ply
format ascii 1.0
element vertex 717
property float x
property float y
property float z
end_header
0.0189731474965810776 0.116062380373477936 0.101045027375221252
-0.0253559444099664688 0.559918642044067383 -0.145714759826660156
-0.172914817929267883 -0.343641608953475952 0.0412205345928668976
0.0608923807740211487 0.0908076092600822449 -0.150644063949584961
-0.232785210013389587 -0.0250761453062295914 -0.144441142678260803
-0.0124338138848543167 0.555067777633666992 -0.165560156106948853
-0.143369272351264954 -0.0552660748362541199 -0.293413728475570679
0.0920451954007148743 0.258199393749237061 0.188793301582336426
-0.153017014265060425 -0.294980704784393311 -0.0257245991379022598
0.0326864905655384064 0.0736478567123413086 -0.147907882928848267
-0.0880709663033485413 -0.201428309082984924 0.0278976205736398697
-0.223037511110305786 -0.429912686347961426 0.0327199287712574005
-0.139810547232627869 -0.125497370958328247 0.0970140993595123291
-0.235406681895256042 -0.14210258424282074 0.139146789908409119
0.0197775140404701233 0.174509778618812561 -0.126757413148880005
-0.002992257010191679 0.495730668306350708 -0.12563420832157135
0.159436881542205811 0.288170367479324341 -0.0303545109927654266
-0.112547248601913452 -0.037805851548910141 0.258550167083740234
-0.0184653252363204956 0.144877180457115173 0.300059497356414795
-0.194609358906745911 0.308655291795730591 -0.0765570253133773804
0.128721624612808228 0.00252053327858448029 -0.0574778541922569275
-0.0255017038434743881 -0.0867464393377304077 0.0476826876401901245
0.128108665347099304 0.36621740460395813 0.0207911413162946701
-0.0554041154682636261 0.346098572015762329 0.133508414030075073
0.103754237294197083 0.0961729958653450012 0.0968926474452018738
-0.184422925114631653 0.0354179106652736664 0.408798456192016602
-0.152850449085235596 -0.0633520781993865967 0.00681639974936842918
0.00525388307869434357 0.565304815769195557 0.141900822520256042
-0.0622937753796577454 -0.0934510454535484314 -0.00199085683561861515
-0.0794892832636833191 -0.0097721470519900322 -0.0999528840184211731
0.0331471413373947144 -0.0706053078174591064 -0.141823217272758484
-0.0541168563067913055 0.132552847266197205 -0.0717267841100692749
0.0816498398780822754 0.288515657186508179 0.0198926795274019241
0.10622713714838028 0.54637598991394043 0.0342490151524543762
0.0290554612874984741 0.155726999044418335 0.0630773529410362244
-0.136544004082679749 0.0404509119689464569 0.178203552961349487
0.165372297167778015 0.539370596408843994 -0.169881656765937805
-0.0613857656717300415 0.0202686842530965805 -0.0568927228450775146
-0.160134851932525635 0.12998536229133606 -0.296147942543029785
-0.0872327238321304321 -0.123619817197322845 0.151101559400558472
-0.0439245328307151794 -0.329224765300750732 -0.214449942111968994
0.229759573936462402 0.170675918459892273 -0.193775683641433716
0.115022733807563782 0.160214945673942566 -0.338791012763977051
-0.0577263087034225464 0.308981120586395264 -0.156530573964118958
-0.11641237884759903 -0.148047447204589844 -0.138229981064796448
-0.144732847809791565 0.256000280380249023 -0.0366725996136665344
0.000605852401349693537 -0.0047107781283557415 0.00417364016175270081
-0.0599792227149009705 0.22050805389881134 0.116233095526695251
0.142767295241355896 0.479505568742752075 0.15673162043094635
-0.0989282652735710144 -0.244257688522338867 -0.226191163063049316
-0.0768397524952888489 -0.28224530816078186 0.0628014355897903442
-0.0874681100249290466 -0.0290682204067707062 0.204412892460823059
-0.133059263229370117 0.104019753634929657 0.274021714925765991
-0.0283201020210981369 -0.180889427661895752 -0.0158299077302217484
-0.03610982745885849 0.388984262943267822 -0.135899856686592102
-0.00563532719388604164 -0.110982581973075867 -0.138278037309646606
0.0156187117099761963 0.296917855739593506 -0.148598968982696533
-0.0586275719106197357 -0.0127619877457618713 0.200444981455802917
0.00836035143584012985 0.0120207499712705612 -0.0731560513377189636
0.0170405041426420212 0.31171804666519165 -0.0157262701541185379
0.124020643532276154 0.538930654525756836 0.145160898566246033
0.0951883792877197266 0.151664480566978455 -0.195306435227394104
-0.0993134155869483948 0.191008955240249634 0.184645876288414001
-0.202039361000061035 -0.0418755970895290375 0.179451555013656616
-0.127502664923667908 0.412290185689926147 -0.150156617164611816
-0.0393777713179588318 -0.205783143639564514 -0.116477712988853455
-0.146811127662658691 0.245330572128295898 -0.0758289992809295654
0.183656215667724609 0.291406065225601196 -0.184057682752609253
-0.105859041213989258 0.115881375968456268 -0.191331759095191956
0.150867447257041931 0.245790660381317139 -0.159066662192344666
-0.210021242499351501 -0.156043872237205505 -0.055867169052362442
-0.196255043148994446 -0.269212603569030762 -0.249351397156715393
0.127509042620658875 0.595060467720031738 0.172990709543228149
0.0970553234219551086 0.204347714781761169 -0.0145062915980815887
0.021162424236536026 0.332185953855514526 -0.252640694379806519
-0.100615762174129486 0.0656010732054710388 0.0290130507200956345
-0.11483214795589447 -0.353898316621780396 -0.169364199042320251
-0.0367731638252735138 0.541326820850372314 -0.0358695611357688904
-0.0317627973854541779 -0.0383026115596294403 -0.072422415018081665
0.0927194803953170776 0.455742776393890381 0.0802745670080184937
-0.185540780425071716 -0.0307317599654197693 0.228722825646400452
-0.044821273535490036 -0.268645942211151123 -0.0961728692054748535
0.0184385757893323898 0.0791816487908363342 -0.126098722219467163
-0.129335939884185791 -0.310675859451293945 -0.240223795175552368
0.0531929507851600647 0.154745131731033325 0.283476591110229492
-0.10314546525478363 -0.0807061493396759033 -0.24599650502204895
-0.204371705651283264 0.117727100849151611 0.260356992483139038
0.0813446864485740662 0.146871089935302734 0.253993183374404907
-0.115890935063362122 0.233727350831031799 -0.0276505891233682632
0.0536673292517662048 0.260484755039215088 -0.061791636049747467
-0.171286970376968384 -0.458646714687347412 -0.0721404626965522766
0.0605600178241729736 0.298338323831558228 0.0519453920423984528
-0.15330997109413147 0.0404657535254955292 0.293696373701095581
-0.165938138961791992 -0.0892095044255256653 -0.018790077418088913
0.0507008209824562073 0.183255285024642944 -0.118533879518508911
-0.0639445781707763672 0.542495012283325195 0.222294747829437256
-0.193064719438552856 -0.0690202564001083374 0.355305224657058716
-0.136410817503929138 0.114403031766414642 -0.251108050346374512
-0.0768415555357933044 -0.0464308634400367737 0.0768643468618392944
-0.174418449401855469 -0.196230635046958923 0.140415102243423462
-0.100341208279132843 -0.112800002098083496 0.168135896325111389
0.0343063920736312866 -0.112006321549415588 -0.0193179510533809662
-0.124226376414299011 0.238756850361824036 -0.354798108339309692
0.111493773758411407 0.421457022428512573 -0.157932072877883911
0.00630429806187748909 0.288034766912460327 -0.284138679504394531
-0.122205592691898346 0.244655415415763855 0.144932776689529419
0.0920701697468757629 0.54186481237411499 -0.274887889623641968
-0.243701592087745667 -0.38050958514213562 -0.0588108152151107788
0.105755113065242767 0.15350322425365448 -0.211540430784225464
-0.019376654177904129 -0.0885743126273155212 -0.0263575874269008636
-0.144476890563964844 0.0598674342036247253 0.17386975884437561
0.0292958039790391922 0.202554956078529358 -0.154373079538345337
-0.039838351309299469 0.170161768794059753 0.144752860069274902
0.086171269416809082 0.571098566055297852 -0.292485684156417847
0.221245944499969482 0.451478481292724609 0.120193347334861755
0.0318085849285125732 0.517678558826446533 -0.167996272444725037
-0.0642716586589813232 -0.00967463478446006775 0.010069018229842186
-0.0743178650736808777 -0.346362769603729248 -0.184089824557304382
0.293385863304138184 0.217315375804901123 -0.144031018018722534
0.019396929070353508 -0.0293967723846435547 0.0608866699039936066
-0.156052887439727783 -0.0509907975792884827 0.11848980188369751
0.0432995446026325226 0.233219623565673828 -0.0743713676929473877
-0.121090300381183624 0.317550688982009888 0.165370389819145203
-0.0148279471322894096 0.357732385396957397 -0.191963016986846924
-0.238613098859786987 0.00417025340721011162 0.245131358504295349
-0.100014321506023407 0.20262695848941803 0.149894624948501587
0.0855688378214836121 0.381810456514358521 0.201427116990089417
0.00399761740118265152 -0.109598614275455475 0.11301189661026001
-0.136297404766082764 0.226955562829971313 0.186410307884216309
-0.0444731004536151886 -0.161670878529548645 -0.0456326715648174286
0.0125568509101867676 -0.0121689699590206146 -0.0258653350174427032
-0.0169771760702133179 0.436584413051605225 0.122417457401752472
-0.0513515099883079529 0.204840987920761108 -0.0222748611122369766
-0.208769381046295166 -0.433755457401275635 -0.00430969242006540298
-0.0880257487297058105 0.196955516934394836 0.143098771572113037
-0.10460083931684494 -0.164296507835388184 -0.30433771014213562
-0.120708853006362915 0.180274859070777893 -0.026810869574546814
0.0391282960772514343 0.13062383234500885 -0.0904964655637741089
-0.134571775794029236 0.000491169863380491734 0.24786008894443512
-0.265027701854705811 -0.223924487829208374 -0.248383253812789917
-0.0934991836547851562 0.190933242440223694 -0.0212622229009866714
0.09564923495054245 0.412839621305465698 -0.168026268482208252
0.0177893061190843582 0.605243027210235596 0.168758243322372437
0.0475273691117763519 -0.0885766670107841492 -0.0661774426698684692
0.180202901363372803 0.286514252424240112 -0.00412633549422025681
-0.111148498952388763 0.213405042886734009 0.12699483335018158
-0.0238603223115205765 0.192311748862266541 -0.143561109900474548
0.0577935762703418732 -0.0953539386391639709 -0.0766602158546447754
0.147087350487709045 0.197849884629249573 0.036728978157043457
-0.0875353291630744934 -0.306418061256408691 -0.0877027362585067749
0.0727593898773193359 0.289518535137176514 -0.14629267156124115
0.0653142333030700684 0.460144251585006714 0.112962447106838226
0.0596336908638477325 0.185176178812980652 -0.0843585729598999023
-0.0351450592279434204 -0.238485664129257202 -0.0806434080004692078
0.0482857786118984222 0.262642890214920044 0.245963945984840393
-0.12397264689207077 0.490315675735473633 -0.257899761199951172
-0.0219002477824687958 0.204351022839546204 0.081149570643901825
-0.0942291244864463806 -0.403046607971191406 -0.170519888401031494
-0.0763109698891639709 0.0408214926719665527 -0.05915021151304245
0.016587601974606514 -0.164827123284339905 -0.240670099854469299
0.0173914805054664612 0.0281574465334415436 0.0212498940527439117
-0.217762842774391174 -0.192170619964599609 -0.171317502856254578
-0.0544829107820987701 0.215790316462516785 -0.0593677014112472534
-0.147254049777984619 -0.0478229448199272156 0.265865117311477661
-0.0361277945339679718 0.436047554016113281 0.0537544526159763336
-0.246059790253639221 0.0523277893662452698 0.274819046258926392
-0.103991806507110596 0.145960628986358643 0.0976617634296417236
-0.0877083465456962585 -0.0323195420205593109 0.0996713042259216309
0.0764509737491607666 0.386008113622665405 -0.149104341864585876
-0.17281670868396759 -0.0850231125950813293 -0.0544980354607105255
-0.172498598694801331 0.452493280172348022 -0.137381494045257568
-0.127970129251480103 -0.414783388376235962 0.0229790490120649338
-0.00632966496050357819 -0.164429977536201477 -0.00961263757199048996
-0.142219066619873047 0.300634443759918213 -0.0488471947610378265
-0.0437430962920188904 -0.177195519208908081 -0.193320482969284058
-0.0915166884660720825 -0.0508944578468799591 0.0232816338539123535
-0.195418432354927063 0.0555842891335487366 0.0783873200416564941
-0.168105944991111755 0.141296148300170898 -0.293413907289505005
0.105984650552272797 0.349439859390258789 0.282920897006988525
-0.116256013512611389 -0.294236987829208374 0.113945469260215759
0.112154573202133179 0.237616509199142456 0.0673709884285926819
-0.101230159401893616 0.407257974147796631 0.240433663129806519
-0.0221352186053991318 0.344487756490707397 -0.00112613989040255547
-0.0243173688650131226 -0.129530712962150574 -0.00736823026090860367
-0.0699919834733009338 0.397073358297348022 -0.132349669933319092
0.107551202178001404 0.505876600742340088 0.0604829266667366028
-0.207263857126235962 -0.161803171038627625 -0.164411231875419617
-0.0551516450941562653 -0.120040073990821838 -0.0320427007973194122
-0.095850042998790741 0.230588719248771667 0.07244892418384552
-0.118639983236789703 -0.102584019303321838 0.127563685178756714
-0.0194191113114356995 0.0760909244418144226 0.12750205397605896
0.0630462914705276489 0.387174934148788452 -0.0872921571135520935
-0.119729466736316681 0.197111114859580994 0.0435997135937213898
-0.0483208484947681427 0.234345719218254089 0.0286986548453569412
-0.00677051441743969917 0.404852569103240967 0.142566218972206116
-0.0848698094487190247 -0.0948766395449638367 -0.131653353571891785
0.0207486394792795181 0.0840702876448631287 0.0479333586990833282
-0.128500774502754211 -0.451493889093399048 -0.112343065440654755
0.114540748298168182 0.411293148994445801 0.0739667713642120361
-0.037470545619726181 0.121565788984298706 0.0608546622097492218
0.0527367144823074341 0.486572414636611938 -0.295467376708984375
-0.102861642837524414 0.394344806671142578 -0.137749895453453064
0.217488497495651245 0.41985553503036499 -0.191346079111099243
0.0430491901934146881 0.225267797708511353 -0.0842168927192687988
-0.0308781806379556656 0.348358839750289917 -0.244476810097694397
0.0866711139678955078 0.240746274590492249 -0.262074261903762817
0.121961988508701324 0.523597300052642822 0.160477012395858765
-0.111730098724365234 -0.319696873426437378 -0.198833853006362915
-0.323022633790969849 0.0168550200760364532 0.307200610637664795
-0.17053590714931488 0.310918301343917847 0.00699431123211979866
-0.228023499250411987 -0.279360711574554443 0.182391524314880371
0.0823266655206680298 0.338847965002059937 0.0110612157732248306
-0.0596204735338687897 0.489603012800216675 0.0420261621475219727
-0.187006741762161255 -0.280211508274078369 0.115049697458744049
0.0101129123941063881 0.26429632306098938 0.33365631103515625
0.0501187779009342194 0.433043479919433594 0.253840357065200806
0.00120961782522499561 -0.110146395862102509 -0.0421471484005451202
0.013486313633620739 0.445286422967910767 -0.0170952007174491882
0.018812965601682663 0.146798774600028992 0.239897832274436951
-0.0308082215487957001 -0.0696979686617851257 -0.000479496462503448129
-0.108115829527378082 0.349073916673660278 0.0304578449577093124
-0.147180840373039246 -0.0539371110498905182 0.0943245738744735718
-0.00739416247233748436 0.180610612034797668 0.105735063552856445
-0.163685008883476257 -0.0940002351999282837 0.174044117331504822
-0.114929869771003723 -0.0924080833792686462 -0.0937162265181541443
0.0850575342774391174 0.246256917715072632 -0.15206502377986908
0.0854353755712509155 0.209585189819335938 -0.100186571478843689
-0.0450985655188560486 0.0346978269517421722 -0.149251237511634827
0.0357659496366977692 0.152321204543113708 0.0768214166164398193
-0.0121471034362912178 -0.159931108355522156 -0.191337689757347107
0.0268387496471405029 -0.0622587725520133972 -0.0694653689861297607
-0.260528236627578735 -0.119839377701282501 -0.0908925905823707581
-0.072968803346157074 -0.334752798080444336 -0.0949559956789016724
-0.166294381022453308 -0.45126807689666748 -0.189920276403427124
-0.0705796778202056885 0.168833434581756592 -0.034054979681968689
0.0261595714837312698 0.430617004632949829 0.0649849548935890198
0.122742064297199249 0.312651455402374268 -0.103393130004405975
0.0338533446192741394 0.379489868879318237 -0.0434883460402488708
0.0688433349132537842 0.276883393526077271 -0.103418119251728058
-0.234423711895942688 -0.143221020698547363 -0.114486761391162872
-0.202140972018241882 -0.224256038665771484 -0.190995246171951294
-0.00692481966689229012 0.0577807910740375519 -0.163175463676452637
0.0359459593892097473 0.195060193538665771 -0.261293381452560425
0.0404485613107681274 -0.0647419989109039307 -0.021117042750120163
0.0621644631028175354 0.364296972751617432 -0.0756510123610496521
-0.0258912201970815659 0.550792455673217773 -0.0670691877603530884
-0.31650775671005249 -0.16249297559261322 0.215334564447402954
-0.131909802556037903 -0.123599469661712646 0.0697224140167236328
-0.0420846268534660339 -0.0677288919687271118 -0.122173815965652466
-0.0719488933682441711 0.10277237743139267 0.156921416521072388
-0.073250897228717804 -0.203503847122192383 0.0824257954955101013
-0.145571336150169373 -0.32837262749671936 0.0997664928436279297
-0.185081720352172852 0.311863511800765991 -0.0590139664709568024
-0.177626103162765503 0.272149711847305298 -0.0761508643627166748
-0.295116573572158813 0.0278406422585248947 0.258309870958328247
-0.146828100085258484 -0.109943881630897522 -0.235760048031806946
-0.207350343465805054 -0.324720084667205811 -0.0495690107345581055
-0.359363466501235962 -0.0870092287659645081 -0.247880816459655762
0.19685932993888855 0.315803050994873047 -0.233080238103866577
0.11823233962059021 0.14483112096786499 -0.134803041815757751
-0.167913362383842468 -0.0293508581817150116 0.115250512957572937
0.106376558542251587 0.340255260467529297 0.31689220666885376
0.0310341045260429382 -0.0531289316713809967 -0.198394775390625
-0.0900223702192306519 -0.235904410481452942 0.0161397326737642288
-0.211427748203277588 -0.311000317335128784 -0.0853530243039131165
-0.0443976372480392456 -0.106059551239013672 0.0145082687959074974
0.000236195483012124896 0.404436409473419189 0.140443190932273865
-0.10894756019115448 0.32083362340927124 0.037850748747587204
-0.157597750425338745 -0.212277680635452271 -0.229914218187332153
-0.241447418928146362 -0.048814043402671814 -0.0356395021080970764
-0.0639716982841491699 0.356548905372619629 0.159098058938980103
0.0838412865996360779 0.16109001636505127 -0.0933085307478904724
-0.0924513489007949829 -0.14616510272026062 -0.118338704109191895
-0.058468058705329895 -0.0138536347076296806 0.153043657541275024
-0.0627628117799758911 0.118944168090820312 0.0815456509590148926
-0.0629308074712753296 -0.370410233736038208 -0.131287097930908203
-0.147295773029327393 0.2583942711353302 0.0953177139163017273
-0.0794884338974952698 0.281951189041137695 0.0172728803008794785
-0.0471199005842208862 -0.14753645658493042 0.00843343790620565414
0.00808701943606138229 0.135760262608528137 0.107031218707561493
-0.0265455804765224457 0.201972007751464844 -0.0744918957352638245
-0.092656843364238739 0.290817558765411377 0.195325866341590881
0.0661341995000839233 0.165990963578224182 -0.259086728096008301
-0.144132524728775024 -0.0969674363732337952 0.0649839267134666443
-0.0635736063122749329 0.507611930370330811 -0.299213886260986328
-0.033007252961397171 -0.193453207612037659 -0.123274646699428558
-0.416842132806777954 -0.243639931082725525 -0.128953531384468079
-0.093022473156452179 -0.358129024505615234 -0.119430795311927795
-0.0559160374104976654 0.403903603553771973 0.170719891786575317
-0.0438599921762943268 -0.281696021556854248 -0.155608788132667542
0.0354271754622459412 0.396399736404418945 -0.194267675280570984
-0.210447505116462708 -0.291476219892501831 -0.257358044385910034
-0.112930931150913239 0.0767305567860603333 -0.142613694071769714
-0.0739255324006080627 -0.34679335355758667 -0.149499312043190002
-0.0206206105649471283 0.0184751171618700027 -0.0614215880632400513
0.0104767270386219025 0.629125535488128662 0.163811638951301575
0.096422240138053894 0.22124326229095459 -0.170911520719528198
-0.072984062135219574 -0.145117536187171936 -0.0837513357400894165
-0.190240576863288879 -0.332865595817565918 -0.0902853906154632568
-0.155675992369651794 -0.172166526317596436 0.104654431343078613
-0.127722278237342834 -0.135397553443908691 -0.183461502194404602
-0.276365041732788086 -0.0277733486145734787 0.13751731812953949
-0.135722383856773376 -0.346440672874450684 -0.118620693683624268
-0.0920121371746063232 -0.121786944568157196 -0.175470799207687378
-0.018750414252281189 0.464399784803390503 -0.0790358111262321472
-0.127923265099525452 0.000383316626539453864 0.28010895848274231
0.121772348880767822 -0.0306438636034727097 -0.147679448127746582
-0.153398111462593079 0.477880001068115234 -0.190546318888664246
-0.0608426406979560852 0.297230422496795654 -0.0590193383395671844
-0.117735937237739563 0.429489552974700928 -0.100501909852027893
-0.151241332292556763 0.144037887454032898 0.274823874235153198
-0.168395563960075378 0.257021933794021606 0.011617748998105526
0.0636264383792877197 0.239199936389923096 0.161049067974090576
-0.263318747282028198 0.00745339598506689072 -0.165507465600967407
0.031306002289056778 0.198746845126152039 0.0824704468250274658
-0.159544289112091064 0.0109556810930371284 0.0477993711829185486
0.0407893843948841095 0.311781525611877441 0.112865641713142395
0.00329951150342822075 -0.204072445631027222 -0.178661167621612549
0.0961053371429443359 0.164326146245002747 0.125515013933181763
0.0666177272796630859 0.360090315341949463 -0.0831337273120880127
0.00322317774407565594 -0.285313725471496582 -0.176749318838119507
-0.327357649803161621 -0.106990590691566467 -0.229408144950866699
-0.108985625207424164 0.221260398626327515 -0.0170836076140403748
-0.0967032238841056824 0.0967956781387329102 -0.21588413417339325
-0.260223627090454102 -0.444704234600067139 0.00405845697969198227
-0.0145320845767855644 0.168200671672821045 0.0202505607157945633
0.0574719235301017761 0.402767479419708252 -0.108348987996578217
-0.108478628098964691 0.470415115356445312 -0.259989827871322632
-0.101163364946842194 -0.105566635727882385 0.131361901760101318
-0.187670379877090454 -0.332290291786193848 -0.0665778666734695435
0.0755820348858833313 0.106380321085453033 0.123201020061969757
-0.0178116075694561005 0.157547309994697571 0.0902813076972961426
0.118299447000026703 0.411299824714660645 -0.242894262075424194
0.0551109015941619873 0.24205075204372406 -0.0306694637984037399
-0.17369861900806427 0.0638373494148254395 -0.165794521570205688
-0.146748125553131104 -0.213371872901916504 -0.165771797299385071
0.0211718063801527023 0.332121998071670532 -0.225098937749862671
-0.0711316913366317749 -0.0640163123607635498 0.298391789197921753
-0.0690299719572067261 0.246642023324966431 0.14023725688457489
0.0358282849192619324 0.196799516677856445 -0.0304136853665113449
-0.00562770850956439972 0.0177130047231912613 -0.283327281475067139
-0.178077921271324158 0.269824713468551636 -0.0145141799002885818
-0.156783446669578552 -0.140955090522766113 -0.198592334985733032
-0.309669703245162964 -0.237303555011749268 -0.119904883205890656
0.161615297198295593 0.26125025749206543 0.11692405492067337
0.0887081250548362732 0.264557570219039917 -0.014714311808347702
0.133051156997680664 0.155559033155441284 0.0684005767107009888
0.0175054334104061127 -0.0529703237116336823 -0.00475988816469907761
0.0623975731432437897 0.527410566806793213 0.0191973410546779633
-0.0596164874732494354 0.336002379655838013 -0.303485363721847534
0.111413687467575073 0.429591387510299683 -0.354641497135162354
-0.0252698268741369247 0.249646812677383423 -0.0436840839684009552
-0.266391456127166748 -0.311554163694381714 -0.103649690747261047
0.0159849952906370163 0.455847650766372681 0.0962281599640846252
0.0776557326316833496 0.538948953151702881 0.285420089960098267
-0.160313606262207031 -0.256312370300292969 -0.0434208586812019348
0.108213506639003754 0.363620758056640625 0.178533956408500671
-0.164451032876968384 0.00287872622720897198 0.284004062414169312
0.0807387307286262512 0.165131524205207825 0.0433769486844539642
-0.174594327807426453 0.126058205962181091 -0.306739091873168945
0.0369643233716487885 0.0868297815322875977 0.135867103934288025
0.0437411032617092133 0.0292069688439369202 -0.270064800977706909
-0.286816239356994629 -0.163369640707969666 -0.124362006783485413
-0.12142055481672287 -0.125610664486885071 0.363715648651123047
0.0716717988252639771 0.0101094162091612816 0.0475584715604782104
-0.0825735628604888916 0.119140073657035828 -0.183336168527603149
0.00938816554844379425 0.494249790906906128 -0.0358342304825782776
0.0492552593350410461 0.1318369060754776 -0.178518116474151611
-0.0472475029528141022 0.172000110149383545 -0.198670312762260437
-0.213851794600486755 -0.288826644420623779 -0.276724100112915039
0.0790890157222747803 0.301282256841659546 0.0666314885020256042
-0.26108202338218689 -0.094358101487159729 0.304208606481552124
-0.129588544368743896 0.219189554452896118 0.0545462518930435181
-0.0276683475822210312 0.0581357628107070923 0.16808106005191803
0.0152482874691486359 -0.00455981818959116936 0.0774546340107917786
-0.162227243185043335 -0.19157719612121582 -0.0969608649611473083
0.0801284462213516235 0.189404189586639404 0.0365362502634525299
0.178186386823654175 0.218622848391532898 0.109350167214870453
-0.1466359943151474 0.253922045230865479 -0.0969380959868431091
0.00104996794834733009 -0.143845841288566589 -0.24100099503993988
0.0827089622616767883 0.456194251775741577 0.0817678123712539673
0.0247574374079704285 0.117358148097991943 0.0715822651982307434
-0.00454199453815817833 0.162150859832763672 -0.00054458563681691885
0.107627518475055695 0.560934126377105713 0.0406306833028793335
0.0938698872923851013 0.483933478593826294 0.195274025201797485
-0.22381313145160675 -0.209571391344070435 -0.242696389555931091
-0.027556905522942543 -0.152690872550010681 0.0588570833206176758
-0.20558340847492218 -0.107328660786151886 0.274368584156036377
0.0793164521455764771 0.122480228543281555 -0.166747063398361206
0.0818107575178146362 0.386249274015426636 -0.155365049839019775
-0.170604601502418518 0.00262471591122448444 0.23289334774017334
0.0166588462889194489 0.447240144014358521 -0.103160932660102844
0.0823438465595245361 0.367920905351638794 -0.17522837221622467
-0.0929110273718833923 -0.064792826771736145 -0.00246160151436924934
0.0832566991448402405 0.0222972258925437927 -0.0636467114090919495
-0.0137407984584569931 0.254581063985824585 -0.0881013274192810059
0.165970176458358765 0.478702127933502197 -0.16771833598613739
-0.109327353537082672 0.0568022690713405609 0.278687238693237305
-0.159210935235023499 -0.257571101188659668 -0.265387177467346191
-0.061549115926027298 -0.127426370978355408 -0.0931592434644699097
-0.24738486111164093 -0.235267326235771179 -0.197157189249992371
-0.141951203346252441 -0.19105800986289978 -0.251027226448059082
-0.046088777482509613 0.225262239575386047 -0.0312677323818206787
-0.14405880868434906 -0.195183604955673218 0.111739106476306915
-0.0696895867586135864 0.061564374715089798 -0.145202666521072388
-0.0645327717065811157 -0.301185876131057739 -0.1739063560962677
0.147851109504699707 0.420954048633575439 0.114798836410045624
0.0248707924038171768 0.333552092313766479 0.100657545030117035
0.0874836891889572144 0.182707250118255615 0.0440351255238056183
0.00236344290897250175 -0.0381682142615318298 -0.0368684940040111542
-0.232855930924415588 -0.129864946007728577 0.247600048780441284
0.109785683453083038 0.18110211193561554 -0.0883213654160499573
-0.0497786514461040497 0.0792063251137733459 -0.119590878486633301
-0.352056443691253662 -0.369907230138778687 -0.0924068912863731384
0.136109992861747742 0.349562138319015503 0.162329912185668945
-0.192722365260124207 0.0221853889524936676 0.0668633058667182922
-0.067989543080329895 -0.171961948275566101 -0.061016421765089035
-0.164007961750030518 -0.24262450635433197 0.115532748401165009
0.0127069372683763504 0.526332318782806396 0.0018237485783174634
-0.152811676263809204 -0.0475480109453201294 -0.0157495886087417603
0.0545096434652805328 0.433851659297943115 -0.255896121263504028
-0.126254603266716003 0.0306363608688116074 -0.0996516495943069458
-0.0411896444857120514 0.188430473208427429 0.0937138944864273071
-0.206896021962165833 -0.13006591796875 -0.253917217254638672
-0.293466746807098389 -0.235974520444869995 -0.313278466463088989
0.14736078679561615 0.509400129318237305 -0.185042291879653931
-0.0892630890011787415 0.326463222503662109 -0.251328885555267334
0.0348908044397830963 0.369557172060012817 -0.0265027228742837906
-0.0222210418432950974 0.267752379179000854 0.0488452985882759094
0.0128141129389405251 -0.23529680073261261 -0.195401936769485474
-0.0113857286050915718 0.346033036708831787 -0.117252573370933533
0.0112860053777694702 0.175777480006217957 -0.189230024814605713
-0.00190411275252699852 -0.0683161839842796326 0.0125883705914020538
-0.0143103450536727905 -0.0907501131296157837 -0.054156571626663208
-0.107442796230316162 -0.301266193389892578 -0.0162835884839296341
-0.151044204831123352 -0.24550357460975647 0.116611391305923462
0.0978729650378227234 0.291672706604003906 -0.206005483865737915
0.0510227791965007782 0.366575032472610474 -0.181319817900657654
-0.110390059649944305 -0.306974530220031738 -0.0247669592499732971
-0.304517626762390137 -0.45987093448638916 0.0118820099160075188
-0.141796916723251343 0.153822317719459534 -0.222391143441200256
-0.0273352432996034622 -0.163425609469413757 0.0319237373769283295
-0.237453699111938477 -0.0388085395097732544 0.286092191934585571
0.0169881749898195267 0.0528211221098899841 0.295312017202377319
-0.207474231719970703 -0.279371410608291626 -0.365591049194335938
0.0619969591498374939 0.148735836148262024 0.069186873733997345
-0.123381271958351135 -0.00994802545756101608 0.248216509819030762
-0.20290885865688324 -0.177985906600952148 -0.224317222833633423
-0.177588671445846558 0.292567014694213867 0.188356325030326843
-0.283500224351882935 -0.169517561793327332 -0.0988592952489852905
0.0297674629837274551 0.392006337642669678 -0.223410710692405701
0.0951610952615737915 -0.072216622531414032 -0.0678440630435943604
-0.10321875661611557 -0.422492921352386475 -0.184973686933517456
-0.0495664365589618683 0.381993860006332397 -0.112099550664424896
0.0559684522449970245 0.082754179835319519 0.195085227489471436
-0.26583746075630188 0.0181924756616353989 0.151638537645339966
0.0862460359930992126 0.47129860520362854 0.0800513848662376404
0.137092426419258118 0.257853507995605469 0.098978772759437561
0.154413342475891113 0.40979573130607605 0.157455205917358398
-0.0719015598297119141 -0.12369035929441452 0.0152795324102044106
-0.0858353152871131897 0.445357620716094971 -0.204264789819717407
-0.241368502378463745 -0.343215048313140869 0.0871228873729705811
-0.143895745277404785 -0.360186219215393066 -0.155982106924057007
0.092638649046421051 0.485051840543746948 -0.221028700470924377
0.143510371446609497 0.422142148017883301 -0.180128440260887146
0.0342794843018054962 0.409653693437576294 -0.0520308725535869598
-0.138281777501106262 -0.336932092905044556 -0.103373698890209198
-0.173925131559371948 -0.0749383866786956787 0.21380847692489624
-0.156692951917648315 -0.217341244220733643 -0.241010904312133789
0.116223864257335663 0.0822885781526565552 0.103246986865997314
0.160459399223327637 0.616658627986907959 0.0522839464247226715
-0.0796342939138412476 0.511786997318267822 0.202606514096260071
0.0813807025551795959 0.190577670931816101 -0.153912872076034546
-0.291541963815689087 -0.247501358389854431 -0.246861934661865234
0.060298476368188858 0.153818070888519287 -0.154356524348258972
0.0384271778166294098 0.303900241851806641 -0.127863094210624695
-0.0697715580463409424 0.0124999163672327995 0.0455676168203353882
0.0222387872636318207 0.396944016218185425 0.274100035429000854
-0.106558434665203094 -0.313599765300750732 0.0456502474844455719
-0.110533729195594788 0.26437222957611084 -0.271381616592407227
-0.145047158002853394 -0.272642374038696289 -0.19946599006652832
-0.141697809100151062 0.0327071212232112885 0.110695585608482361
0.0875401347875595093 0.132576391100883484 0.0820743292570114136
-0.205502256751060486 -0.172804102301597595 -0.0496863275766372681
-0.12572498619556427 0.136275678873062134 -0.208170428872108459
-0.256773233413696289 0.105825789272785187 0.253096550703048706
-0.158243879675865173 -0.397520452737808228 -0.0841106325387954712
-0.00987218786031007767 0.0172313004732131958 0.241090133786201477
-0.0334927625954151154 -0.200571820139884949 -0.146469488739967346
0.0149913551285862923 0.161804854869842529 -0.0898684188723564148
-0.137356162071228027 0.0383437685668468475 0.20939984917640686
-0.0865041092038154602 -0.317175924777984619 -0.0504583083093166351
0.112816601991653442 0.310201853513717651 -0.130964905023574829
-0.0588039234280586243 -0.222109168767929077 -0.141019433736801147
-0.016777917742729187 0.477258771657943726 0.0717796161770820618
-0.197943761944770813 -0.260772466659545898 -0.183602571487426758
0.180887028574943542 0.426340818405151367 0.167103216052055359
0.0212160814553499222 0.349225461483001709 -0.187877431511878967
-0.285150825977325439 -0.276013612747192383 -0.133002579212188721
0.0270548742264509201 -0.035605747252702713 -0.000418406503740698099
-0.0566906258463859558 0.417141228914260864 -0.246491983532905579
-0.113858714699745178 0.147331878542900085 -0.188496619462966919
-0.0315175466239452362 0.133969888091087341 -0.108083054423332214
0.130303829908370972 0.179977759718894958 -0.193952545523643494
0.162082955241203308 0.159803852438926697 -0.126485049724578857
0.151221811771392822 0.289023816585540771 -0.0168677754700183868
-0.182373404502868652 -0.0648132786154747009 0.457483053207397461
-0.201271772384643555 0.0690470188856124878 0.0557285696268081665
-0.225654095411300659 -0.157188087701797485 -0.221019268035888672
-0.141846045851707458 0.47902226448059082 -0.223840385675430298
-0.0187437944114208221 0.165592163801193237 -0.066404588520526886
-0.241473913192749023 -0.0901486128568649292 -0.291466683149337769
-0.282777845859527588 -0.268037647008895874 -0.245437696576118469
-0.109611630439758301 0.455846577882766724 0.263545691967010498
0.217017382383346558 0.506217718124389648 0.191420823335647583
0.0823566168546676636 -0.0318854749202728271 -0.179025411605834961
-0.0414384305477142334 0.00538566987961530685 0.0570547543466091156
-0.187983810901641846 -0.0891610383987426758 0.251913279294967651
0.168655037879943848 0.386806577444076538 -0.014090290293097496
0.0601100251078605652 0.250061124563217163 -0.318105190992355347
0.0378708355128765106 0.515863716602325439 0.318664968013763428
-0.10638890415430069 -0.0913828611373901367 0.290912449359893799
-0.204078495502471924 -0.461548417806625366 -0.0198153778910636902
-0.0545235276222229004 -0.11110822856426239 0.231000050902366638
0.00779235409572720528 0.0725095793604850769 0.173390820622444153
0.0304724853485822678 0.268024265766143799 0.0522842109203338623
0.0691475048661231995 0.245852679014205933 -0.0880377963185310364
0.00362785719335079193 0.225243166089057922 0.261925071477890015
-0.123855039477348328 0.357707202434539795 -0.0726464763283729553
-0.0164552405476570129 0.452449232339859009 0.169973105192184448
-0.0827650502324104309 0.422234982252120972 0.208653911948204041
0.0292923394590616226 -0.0142736248672008514 -0.105350010097026825
-0.230009078979492188 -0.0922903493046760559 0.303529292345046997
-0.0934343934059143066 -0.299580693244934082 -0.244889095425605774
-0.26742631196975708 -0.0230625439435243607 0.300608307123184204
0.157194375991821289 0.245046883821487427 0.00683439243584871292
-0.0184607449918985367 0.197131618857383728 0.214949473738670349
0.129074349999427795 0.272094964981079102 0.088503517210483551
0.0132440710440278053 0.416325598955154419 -0.122016534209251404
-0.182139113545417786 -0.292336314916610718 -0.341430872678756714
-0.281375676393508911 -0.156008601188659668 -0.176494807004928589
-0.156428545713424683 -0.104348830878734589 -0.266004890203475952
-0.028801916167140007 0.581701576709747314 -0.172291874885559082
-0.106255002319812775 0.293160140514373779 -0.0493947863578796387
-0.161109223961830139 -0.0944368764758110046 -0.27263149619102478
-0.0133442198857665062 0.185034111142158508 0.141636580228805542
-0.0285623446106910706 -0.296887338161468506 -0.125862941145896912
0.0605891905725002289 0.341112852096557617 0.193036139011383057
-0.100918561220169067 0.358205735683441162 0.160319119691848755
-0.112909011542797089 -0.086092144250869751 -0.0480522923171520233
-0.245244801044464111 -0.025043535977602005 -0.325443893671035767
-0.054623827338218689 -0.118843458592891693 0.0730026513338088989
-0.169863104820251465 0.207386910915374756 -0.091843336820602417
0.188495546579360962 0.432523280382156372 0.147611677646636963
-0.163331300020217896 0.145384535193443298 0.160813271999359131
0.0479381531476974487 0.421763867139816284 0.102936588227748871
-0.0481870993971824646 -0.126333445310592651 -0.145878821611404419
0.0527711361646652222 0.243502765893936157 0.0226315632462501526
0.0984414666891098022 0.515041470527648926 -0.249923929572105408
-0.0368128679692745209 0.325622856616973877 0.0326067171990871429
-0.175580024719238281 -0.305398494005203247 0.175443202257156372
-0.0439111888408660889 -0.190643832087516785 0.0247040670365095139
0.0614687800407409668 0.243322566151618958 0.0536164306104183197
-0.07701825350522995 0.227538689970970154 -0.240618467330932617
-0.0520309358835220337 0.143708303570747375 -0.153446048498153687
-0.1443195641040802 -0.292188823223114014 0.0800742805004119873
-0.0540443174540996552 0.490058541297912598 0.195941552519798279
-0.0477064773440361023 0.539268255233764648 -0.0502871014177799225
-0.00553470104932785034 0.313619703054428101 -0.222029715776443481
-0.125929281115531921 -0.0662741661071777344 -0.261575222015380859
-0.00445799250155687332 -0.0348586812615394592 0.0292653162032365799
-0.177880004048347473 0.0464723967015743256 0.22793954610824585
-0.0422692634165287018 0.105158105492591858 -0.159865573048591614
-0.202128171920776367 -0.310250222682952881 0.109074205160140991
-0.153573781251907349 0.0652988255023956299 -0.130932539701461792
0.00198176922276616096 0.149725139141082764 0.359844475984573364
0.201307117938995361 0.187589794397354126 -0.125456511974334717
0.0526275709271430969 0.0654740557074546814 -0.246851265430450439
0.0369574464857578278 0.167450189590454102 0.12749403715133667
0.107260935008525848 0.434689342975616455 0.138132765889167786
0.0910784974694252014 0.522855639457702637 0.146028012037277222
-0.0701444819569587708 0.190413326025009155 -0.0333888642489910126
-0.272087186574935913 -0.216759130358695984 -0.128401845693588257
0.0726549327373504639 -0.0766067877411842346 0.00397150032222270966
0.100554466247558594 0.306799381971359253 -0.0139713836833834648
0.0609271340072154999 0.18465481698513031 0.0757123455405235291
0.121658302843570709 0.36045798659324646 -0.154043570160865784
-0.0380386561155319214 0.473065495491027832 0.0595005229115486145
0.0761090219020843506 0.361608564853668213 -0.244566828012466431
-0.0220008343458175659 -0.062380518764257431 0.0102122826501727104
-0.0285190213471651077 0.00646193046122789383 0.235387563705444336
-0.0241774879395961761 0.490542501211166382 0.152412295341491699
-0.0475564897060394287 0.207634255290031433 0.0713033378124237061
-0.170892775058746338 -0.341479092836380005 0.0950675532221794128
0.048600856214761734 0.219868272542953491 -0.122062921524047852
-0.0555015839636325836 0.166064411401748657 -0.128985166549682617
-0.236184418201446533 -0.0216055475175380707 0.160320118069648743
0.00140316400211304426 -0.0746346265077590942 -0.028791109099984169
-0.126115262508392334 0.337003648281097412 -0.0952314808964729309
0.0351299755275249481 -0.0809637084603309631 -0.000115113318315707147
-0.0275807809084653854 -0.27992701530456543 -0.0656027719378471375
-0.0271585546433925629 0.228535398840904236 -0.0566763617098331451
-0.000552040932234376669 -0.182915136218070984 -0.0340399444103240967
0.0419675186276435852 0.00923487916588783264 0.0489779897034168243
0.148139014840126038 0.15354640781879425 -0.16521039605140686
0.18428589403629303 0.391065418720245361 -0.19082227349281311
0.118578225374221802 0.290078938007354736 0.00638154800981283188
-0.109784156084060669 -0.083629123866558075 -0.0714813098311424255
-0.252787470817565918 -0.011111854575574398 0.295392721891403198
-0.169783622026443481 -0.345669150352478027 -0.219586074352264404
-0.107289955019950867 -0.0965159609913825989 0.247286602854728699
-0.114295080304145813 -0.240576907992362976 0.0968014895915985107
-0.0797242447733879089 0.273251831531524658 0.0903199240565299988
0.0351325869560241699 0.0854695737361907959 0.269196957349777222
0.0632302761077880859 0.494202971458435059 0.118980519473552704
0.0154142528772354126 -0.169903650879859924 -0.18530842661857605
0.0768071264028549194 0.143872156739234924 -0.0991934835910797119
0.0635838881134986877 0.432992935180664062 -0.0872195884585380554
-0.27471458911895752 -0.374910145998001099 -0.0721240267157554626
0.0387000590562820435 0.446925491094589233 -0.278871685266494751
0.0773948356509208679 0.325851976871490479 0.0163751691579818726
0.216841384768486023 0.464117527008056641 -0.193491816520690918
-0.0544689483940601349 0.39499974250793457 -0.110165625810623169
-0.075959816575050354 -0.0453354865312576294 -0.161459341645240784
0.0420532338321208954 0.162645682692527771 0.0328045710921287537
-0.2665538489818573 -0.193392232060432434 -0.151856139302253723
0.0366636365652084351 0.247999489307403564 -0.0267662107944488525
-0.0622753985226154327 0.127826139330863953 -0.0976204872131347656
-0.250715672969818115 -0.182095274329185486 -0.219284340739250183
-0.157076209783554077 0.438162386417388916 -0.0921974703669548035
-0.106139630079269409 0.259483933448791504 -0.0759100615978240967
-0.0790495425462722778 -0.192904457449913025 -0.209882006049156189
-0.122798986732959747 0.33348691463470459 -0.31456717848777771
-0.0970702469348907471 0.00368674146011471748 0.0101065635681152344
0.212626516819000244 0.461748778820037842 0.165363401174545288
-0.133030280470848083 0.292360126972198486 -0.0570029020309448242
-0.382801413536071777 -0.124018602073192596 -0.168798878788948059
0.136597529053688049 0.0270182173699140549 -0.0354355275630950928
-0.213429316878318787 -0.1358376145362854 -0.115265622735023499
-0.0350317396223545074 0.099879734218120575 0.0965117588639259338
-0.0915793478488922119 0.192091748118400574 0.0855325832962989807
-0.0939414128661155701 -0.136358901858329773 -0.136184379458427429
0.00690204789862036705 0.521227657794952393 -0.0456118546426296234
0.0306302681565284729 0.576609790325164795 0.13012164831161499
0.206961005926132202 0.35613328218460083 0.126395389437675476
0.0547815337777137756 0.124311633408069611 0.0991236567497253418
0.0468016602098941803 0.0548749156296253204 -0.146011069416999817
-0.284490674734115601 -0.249188870191574097 -0.130091875791549683
0.030386313796043396 0.17871546745300293 -0.0156807377934455872
0.239104077219963074 0.495464056730270386 0.226994886994361877
0.0168037153780460358 0.00104690343141555786 -0.293830811977386475
-0.00285481754690408707 0.402538269758224487 0.074437260627746582
0.0875221267342567444 0.294567257165908813 -0.0781748741865158081
-0.0191972702741622925 -0.0445394441485404968 0.141499370336532593
0.178254082798957825 0.212950512766838074 -0.123065061867237091
-0.207293570041656494 -0.213763043284416199 -0.180793538689613342
-0.122069001197814941 0.108993858098983765 -0.111768536269664764
-0.0814167335629463196 0.218391716480255127 -0.247333377599716187
-0.0981062501668930054 -0.0707892253994941711 0.265962034463882446
-0.325983047485351562 -0.089956529438495636 -0.279011517763137817
-0.0857211127877235413 -0.0557995699346065521 0.0613581277430057526
-0.0329155437648296356 0.214440897107124329 0.174151599407196045
-0.11525426059961319 0.177399009466171265 -0.13367713987827301
-0.143177628517150879 0.0267412960529327393 0.119102850556373596
-0.106391608715057373 0.492725670337677002 0.0486468635499477386
-0.115588858723640442 0.0709921270608901978 0.0651455894112586975
0.0119811585173010826 0.189474388957023621 -0.0824991986155509949
-0.183037430047988892 -0.257944762706756592 0.123852886259555817
-0.0749501064419746399 0.241363421082496643 -0.0460544712841510773
-0.188428759574890137 -0.19249078631401062 -0.149968177080154419
-0.0504899583756923676 0.36373630166053772 0.027999604120850563
-0.114374458789825439 -0.336352020502090454 -0.0802883803844451904
-0.143831029534339905 0.00848394725471735001 0.30329325795173645
-0.130220189690589905 -0.198411539196968079 0.107972443103790283
-0.31818157434463501 0.00793968886137008667 0.119160860776901245
-0.144247040152549744 -0.0229011159390211105 0.018827119842171669
-0.0128796258941292763 0.128801539540290833 0.0933560207486152649
-0.0929223522543907166 0.167176499962806702 0.086846083402633667
-0.210563778877258301 -0.205949485301971436 -0.0967140942811965942
0.0729788467288017273 0.225760668516159058 0.0167757663875818253
0.145273804664611816 0.519704997539520264 0.107737161219120026
0.113314315676689148 0.291076362133026123 -0.0161450356245040894
-0.273101985454559326 -0.276524454355239868 -0.165000587701797485
-0.197511851787567139 -0.241217851638793945 -0.0497537851333618164
0.0906462296843528748 0.159657672047615051 0.0654245913028717041
0.0336033478379249573 0.253823906183242798 -0.109798774123191833
-0.157646775245666504 -0.13063126802444458 -0.252056628465652466
0.0490976721048355103 0.0476175062358379364 0.097668863832950592
-0.278668373823165894 -0.265737533569335938 -0.108446463942527771
0.0634839609265327454 0.353909790515899658 -0.295381516218185425
-0.198266983032226562 -0.392645418643951416 -0.0772731825709342957
-0.0468052253127098083 0.354611009359359741 -0.11758778989315033
-0.114175416529178619 0.299590229988098145 -0.293849349021911621
-0.0576622635126113892 0.229353263974189758 -0.0178223736584186554
0.0627560466527938843 0.378349989652633667 -0.220261797308921814
-0.153867021203041077 0.0106023214757442474 0.123677775263786316
-0.0560414046049118042 0.356224507093429565 -0.278031319379806519
0.0204294472932815552 0.165767505764961243 0.0285954829305410385
-0.130655884742736816 -0.165848657488822937 -0.343361049890518188
-0.089408189058303833 0.0573856458067893982 0.0734673961997032166
-0.0739755481481552124 0.00143121066503226757 0.0673430114984512329
-0.102914005517959595 -0.0997496619820594788 0.0481738746166229248
-0.379373133182525635 -0.134222954511642456 -0.129765719175338745
0.0901892855763435364 0.38887631893157959 -0.300532698631286621
0.199176222085952759 0.160052105784416199 -0.188605889678001404
0.0624005720019340515 0.0655893459916114807 0.119955182075500488
0.238487988710403442 0.2997264564037323 0.1560220867395401
0.0237773563712835312 0.342784464359283447 0.101019673049449921
-0.0497204624116420746 -0.13833966851234436 -0.128130108118057251
-0.0401458442211151123 0.247186571359634399 0.112846694886684418
-0.0638260245323181152 0.339181363582611084 -0.0735188201069831848
0.0289146807044744492 0.364477097988128662 0.125159233808517456
-0.15123295783996582 -0.130772441625595093 0.105149053037166595
-0.260600239038467407 -0.0721964240074157715 -0.298839062452316284
0.0458282493054866791 0.396883904933929443 0.19811132550239563
0.019975028932094574 -0.225400567054748535 -0.213623687624931335
-0.169156908988952637 -0.167932197451591492 -0.137611687183380127
