ply
format ascii 1.0
element vertex 717
property float x
property float y
property float z
end_header
-0.474646538496017456 -0.118711233139038086 -0.00594077631831169128
0.586097002029418945 0.0640968978404998779 -0.0588859543204307556
0.589374125003814697 -0.50484853982925415 0.362060308456420898
0.578968167304992676 0.343951493501663208 0.445306658744812012
0.574324846267700195 -0.140425994992256165 0.0971070453524589539
-0.603907942771911621 0.439300745725631714 0.282666414976119995
0.405363529920578003 -0.132914334535598755 0.267373532056808472
-0.348256349563598633 -0.141668349504470825 -0.0959868356585502625
0.601232290267944336 0.0570778511464595795 -0.18308866024017334
-0.398553133010864258 0.470106840133666992 0.0554201863706111908
-0.0348501503467559814 -0.263958603143692017 0.472195416688919067
-0.584771215915679932 -0.232354342937469482 0.285993695259094238
-0.431342720985412598 0.485807329416275024 0.204892680048942566
0.377594500780105591 -0.167370498180389404 0.441857635974884033
0.227137282490730286 -0.158431395888328552 0.459578067064285278
-0.100823491811752319 -0.363828718662261963 0.435955256223678589
-0.420957595109939575 -0.230254605412483215 0.451228320598602295
-0.140147656202316284 -0.185066908597946167 0.435151159763336182
-0.494401127099990845 0.468297809362411499 0.225243568420410156
-0.312185704708099365 0.472362905740737915 0.186100229620933533
0.525603294372558594 -0.139649078249931335 0.260429143905639648
0.287522643804550171 0.422950804233551025 -0.437132775783538818
0.573372900485992432 0.121497295796871185 0.440605491399765015
-0.503846824169158936 0.463208943605422974 0.22159770131111145
0.388679921627044678 -0.127100065350532532 0.299951016902923584
0.570124506950378418 0.261582851409912109 -0.0115228546783328056
0.564640164375305176 -0.0897896438837051392 0.0699910148978233337
0.449185073375701904 -0.144205495715141296 0.118195362389087677
-0.354001939296722412 -0.308085858821868896 0.443534910678863525
0.595848202705383301 -0.0877071171998977661 0.263365954160690308
0.574650049209594727 0.208540037274360657 0.193536490201950073
-0.591507494449615479 0.24470868706703186 0.468585073947906494
0.590719699859619141 0.420927166938781738 0.0785500779747962952
-0.456543624401092529 0.0721237286925315857 0.444218546152114868
0.552225291728973389 -0.316492199897766113 0.370175451040267944
0.574056684970855713 0.0739988312125205994 -0.0160316061228513718
0.0207685790956020355 -0.128705725073814392 0.423883408308029175
-0.277763575315475464 0.259376019239425659 0.44418787956237793
0.422418385744094849 0.486233711242675781 0.468764990568161011
0.56639629602432251 -0.0542567931115627289 0.308189153671264648
-0.599959313869476318 -0.337172865867614746 0.44781494140625
0.570145905017852783 -0.531290113925933838 0.200146064162254333
-0.240073338150978088 0.463171094655990601 -0.4129372239112854
0.576314270496368408 0.266443878412246704 -0.246062248945236206
0.60773622989654541 -0.370289534330368042 0.343123883008956909
0.393924951553344727 0.498676538467407227 -0.121956117451190948
-0.474008917808532715 0.273069918155670166 0.434418141841888428
0.453973352909088135 0.38238188624382019 -0.414326965808868408
0.5593453049659729 0.158221468329429626 0.284340828657150269
0.602494895458221436 0.387691974639892578 0.232805788516998291
0.548463702201843262 -0.0544515401124954224 -0.118674501776695251
0.408868342638015747 0.00560626760125160217 0.448563754558563232
0.586723923683166504 0.0131781315430998802 0.104143247008323669
0.565269351005554199 -0.202380955219268799 -0.0552107803523540497
0.577784359455108643 -0.321713835000991821 0.438547044992446899
0.212271168828010559 0.475413113832473755 0.213615953922271729
0.123193517327308655 0.423595845699310303 0.460085153579711914
0.570052921772003174 0.190269976854324341 -0.0705595165491104126
-0.170292079448699951 -0.235391974449157715 0.438876718282699585
0.235315278172492981 0.201566681265830994 0.448812723159790039
0.588599622249603271 -0.480172097682952881 0.481388568878173828
-0.591520011425018311 0.23876170814037323 -0.100278966128826141
-0.474462956190109253 0.483896434307098389 0.125716537237167358
-0.561759412288665771 -0.49984276294708252 0.128744587302207947
0.114858813583850861 0.278994768857955933 0.46541932225227356
0.0558784380555152893 -0.132917106151580811 0.228996440768241882
0.564951479434967041 0.32417711615562439 0.476645499467849731
0.517801105976104736 -0.155936643481254578 0.0961684063076972961
0.0271908547729253769 0.47610899806022644 0.444942474365234375
0.146340325474739075 0.48623320460319519 0.0304425973445177078
0.579472959041595459 0.318862050771713257 0.178079769015312195
-0.577387392520904541 -0.409715235233306885 0.292783915996551514
-0.466226130723953247 -0.11732909083366394 0.106771692633628845
-0.287509530782699585 0.501702070236206055 -0.314729571342468262
-0.593071103096008301 -0.295452326536178589 0.33943524956703186
0.572849750518798828 -0.0401260107755661011 0.199839025735855103
0.549496650695800781 0.207333803176879883 -0.303600668907165527
0.600481569766998291 0.380526959896087646 -0.00679913163185119629
0.567277133464813232 0.0449899174273014069 0.0669034197926521301
-0.597866833209991455 -0.117819942533969879 0.140530481934547424
0.574585437774658203 -0.0502816811203956604 0.397264599800109863
-0.21580563485622406 0.405901670455932617 -0.422114908695220947
0.36205628514289856 -0.0648758187890052795 0.448434293270111084
0.262127906084060669 -0.376802623271942139 0.459286272525787354
-0.282010942697525024 0.460861951112747192 0.440173625946044922
-0.092344626784324646 -0.141703680157661438 -0.131617292761802673
-0.58028942346572876 0.45613253116607666 0.196652323007583618
0.0555351972579956055 0.468922883272171021 0.37663644552230835
-0.581379592418670654 -0.270681083202362061 0.181253060698509216
-0.112747944891452789 0.075259670615196228 0.476837426424026489
0.599489092826843262 0.307976692914962769 -0.100054576992988586
0.531537950038909912 -0.266937524080276489 0.447475910186767578
0.609163045883178711 -0.579665660858154297 0.343777894973754883
0.598854601383209229 0.363007396459579468 0.347715169191360474
-0.219561383128166199 0.409870237112045288 0.478007346391677856
0.572064042091369629 0.507606029510498047 -0.325970083475112915
0.369537085294723511 0.469440728425979614 0.103570424020290375
-0.494427978992462158 -0.263795852661132812 0.45960545539855957
-0.166452541947364807 0.18860761821269989 0.462322086095809937
0.595528364181518555 -0.00717178033664822578 -0.00579978013411164284
-0.540446877479553223 0.170302435755729675 0.343714356422424316
-0.164812594652175903 0.48267403244972229 -0.196654871106147766
0.22910483181476593 0.205612793564796448 -0.387993305921554565
0.551160216331481934 -0.221590891480445862 0.267755508422851562
-0.284904122352600098 -0.142515376210212708 0.207852572202682495
0.581420242786407471 -0.230340451002120972 0.477104246616363525
-0.422209411859512329 0.498013287782669067 0.14678916335105896
-0.598478734493255615 0.0178501680493354797 0.258329838514328003
0.131486937403678894 -0.214508756995201111 0.425012797117233276
0.373266518115997314 -0.304145216941833496 0.445784837007522583
0.604633569717407227 0.0027099002618342638 0.06339225172996521
-0.569291114807128906 0.0973795652389526367 0.395277410745620728
0.457338780164718628 0.477966547012329102 -0.390124619007110596
0.303729981184005737 -0.292088568210601807 0.437278807163238525
-0.370731174945831299 0.439762026071548462 -0.389875799417495728
-0.603753030300140381 -0.29518204927444458 0.157972916960716248
0.380981773138046265 0.464780539274215698 0.380107969045639038
-0.59500575065612793 0.28822624683380127 -0.181198954582214355
-0.448842555284500122 -0.0844213366508483887 0.436651825904846191
0.603519797325134277 -0.194233477115631104 0.408254265785217285
0.297778993844985962 -0.0551506169140338898 0.471844315528869629
-0.408355623483657837 0.357624024152755737 0.480934590101242065
-0.151209652423858643 -0.131597548723220825 0.233405560255050659
-0.603862345218658447 -0.25146484375 -0.0378701090812683105
0.401802808046340942 0.493886768817901611 -0.266036689281463623
-0.583443105220794678 0.272715002298355103 0.0572387278079986572
-0.588583707809448242 0.506647408008575439 0.262488991022109985
-0.397875040769577026 0.487844228744506836 -0.220115497708320618
0.567930161952972412 -0.587966561317443848 0.133184492588043213
-0.604571819305419922 0.46449357271194458 -0.381244927644729614
-0.391495764255523682 -0.138094216585159302 0.136361375451087952
0.60238337516784668 -0.662236034870147705 0.342420428991317749
-0.566799342632293701 0.386762320995330811 -0.268129914999008179
0.172724872827529907 -0.124676093459129333 0.234171688556671143
0.62081456184387207 0.481741458177566528 -0.167176350951194763
0.492658734321594238 0.494853854179382324 0.361109077930450439
-0.59355628490447998 0.391610771417617798 0.0268369466066360474
-0.579921483993530273 -0.0722782611846923828 0.204486757516860962
-0.589835643768310547 0.292183011770248413 -0.152500182390213013
-0.2053346186876297 -0.124878667294979095 0.380663156509399414
-0.0603532232344150543 -0.343216121196746826 0.459397882223129272
0.0622636750340461731 0.26309087872505188 0.433332443237304688
0.221341386437416077 -0.143480792641639709 0.103771120309829712
0.579657137393951416 -0.114645384252071381 0.175665527582168579
0.228250756859779358 0.435448557138442993 -0.389178872108459473
0.0567278414964675903 0.0800776183605194092 0.458137184381484985
-0.57179790735244751 0.229169026017189026 0.219335705041885376
-0.227834001183509827 0.48894384503364563 -0.0427921228110790253
0.595734655857086182 0.0762722492218017578 0.0644168183207511902
-0.18130551278591156 0.506743013858795166 -0.158181905746459961
0.170951336622238159 -0.147769853472709656 0.441484898328781128
-0.59491497278213501 0.489502549171447754 0.215649470686912537
0.596222221851348877 0.225532293319702148 0.116797581315040588
-0.562002837657928467 0.0324078202247619629 0.214630529284477234
-0.594429671764373779 -0.247843816876411438 0.218475461006164551
0.281783789396286011 -0.150913044810295105 -0.149135082960128784
-0.0874762013554573059 0.479383230209350586 -0.107460364699363708
0.181564643979072571 -0.136779472231864929 0.16889616847038269
0.535943269729614258 0.507073104381561279 0.0657785311341285706
-0.542667210102081299 0.460652351379394531 0.234121620655059814
-0.569238960742950439 0.143402993679046631 0.123561426997184753
0.609520912170410156 0.240244150161743164 0.446576088666915894
0.293839186429977417 -0.330974668264389038 0.461354464292526245
0.131237700581550598 0.271547824144363403 -0.381309479475021362
-0.592453539371490479 0.333141058683395386 0.43535962700843811
-0.159422487020492554 0.269483804702758789 -0.381927698850631714
-0.545462310314178467 -0.368211060762405396 0.473306864500045776
0.597063422203063965 -0.684935867786407471 0.138552546501159668
0.516237497329711914 0.508389592170715332 -0.374272316694259644
-0.370643734931945801 0.504504919052124023 -0.253900200128555298
-0.563327252864837646 0.483328044414520264 0.379091739654541016
0.257620841264724731 0.479757428169250488 0.0562453903257846832
0.563640594482421875 0.0396221354603767395 -0.163108199834823608
0.59536278247833252 -0.022158794105052948 -0.188017860054969788
-0.25143277645111084 0.472382843494415283 -0.222722947597503662
0.582831621170043945 -0.545700788497924805 0.0757533758878707886
-0.603717625141143799 -0.29264986515045166 0.0983721986413002014
0.51549232006072998 0.151609212160110474 -0.387336671352386475
0.424712002277374268 0.4033774733543396 0.467521995306015015
-0.506296515464782715 0.478848487138748169 0.113310128450393677
0.560653269290924072 0.315299004316329956 0.345149636268615723
0.0829691439867019653 -0.180071189999580383 0.458981305360794067
-0.600069582462310791 0.180464029312133789 0.0948829278349876404
0.123554572463035583 0.480248212814331055 0.474533617496490479
-0.5287742018699646 0.515292823314666748 0.392877370119094849
-0.374748021364212036 0.480187386274337769 0.110347867012023926
-0.562442421913146973 0.464067071676254272 0.0116778481751680374
-0.584948301315307617 0.345355331897735596 -0.400255739688873291
0.433082342147827148 -0.139296472072601318 0.0180370602756738663
-0.389312893152236938 0.276550889015197754 0.457213073968887329
-0.316727489233016968 0.375529050827026367 0.444340616464614868
-0.604923129081726074 0.478691905736923218 0.444105923175811768
-0.581415653228759766 0.41988489031791687 -0.365730941295623779
-0.597326815128326416 -0.278341591358184814 0.253468781709671021
0.421130180358886719 -0.0732068046927452087 0.454221338033676147
0.400372833013534546 0.259994417428970337 0.4526233971118927
0.555690884590148926 0.114503175020217896 0.139067485928535461
-0.55297166109085083 -0.456530779600143433 0.229402050375938416
-0.253807753324508667 0.292302250862121582 -0.371603876352310181
-0.211844876408576965 0.469671547412872314 -0.191245943307876587
0.424292504787445068 0.483310282230377197 0.398565590381622314
-0.344181209802627563 0.495598435401916504 0.384719967842102051
-0.549798905849456787 -0.128466352820396423 0.227847307920455933
0.481652349233627319 -0.144511580467224121 0.016141057014465332
0.250020384788513184 -0.144706472754478455 0.190944075584411621
-0.490168482065200806 0.484329640865325928 -0.0853085368871688843
-0.0934377908706665039 0.0240149814635515213 0.431516647338867188
-0.568390071392059326 0.350301682949066162 0.379331439733505249
-0.0724135860800743103 -0.159747585654258728 0.359382569789886475
-0.169644787907600403 -0.147113844752311707 -0.026677694171667099
-0.372753679752349854 0.0883673429489135742 0.443115472793579102
0.0165641456842422485 -0.0162023864686489105 0.43340948224067688
0.560028374195098877 -0.135838896036148071 -0.173531472682952881
0.265340834856033325 0.504170060157775879 0.334159642457962036
0.557859838008880615 -0.559658706188201904 0.246897384524345398
0.0258358437567949295 -0.133401602506637573 -0.116815522313117981
0.623245298862457275 0.264835596084594727 -0.0732719600200653076
0.057984471321105957 -0.172757178544998169 0.477836012840270996
-0.456684976816177368 0.491217255592346191 0.0328698083758354187
0.264723807573318481 -0.158400833606719971 0.460531264543533325
0.597922086715698242 0.262340247631072998 0.181125670671463013
0.513232052326202393 0.195344656705856323 -0.392737746238708496
-0.499221503734588623 -0.121844075620174408 0.371591150760650635
0.176226004958152771 0.461715638637542725 0.0885522812604904175
-0.58720695972442627 0.189394727349281311 0.0413575582206249237
0.359387308359146118 0.47951921820640564 -0.400099366903305054
0.6182212233543396 -0.0788343697786331177 0.160882800817489624
-0.359489709138870239 0.00480561936274170876 0.465144813060760498
0.604660451412200928 0.281108498573303223 -0.285071223974227905
-0.607669711112976074 0.258030682802200317 -0.0757844299077987671
0.593017578125 0.214422181248664856 0.333037525415420532
0.0707034394145011902 0.39612656831741333 -0.380399882793426514
-0.609916329383850098 -0.179967135190963745 -0.0769936442375183105
-0.259837329387664795 0.486191660165786743 -0.166087538003921509
-0.154771074652671814 -0.130135685205459595 -0.126138299703598022
-0.260178208351135254 -0.24786376953125 0.458822727203369141
-0.0215665083378553391 0.465142816305160522 0.242058366537094116
-0.565097928047180176 -0.461599528789520264 0.270995646715164185
0.513721168041229248 0.386186093091964722 0.431543797254562378
-0.604560196399688721 0.396199673414230347 -0.0874450951814651489
-0.451103121042251587 -0.145656824111938477 0.42110326886177063
0.167392224073410034 0.456458181142807007 -0.23025725781917572
0.595724046230316162 0.130094632506370544 -0.370233714580535889
0.59149622917175293 0.348729878664016724 0.223823443055152893
-0.603348970413208008 -0.0850159302353858948 0.290112048387527466
0.602044641971588135 0.315467745065689087 -0.358365178108215332
-0.575342297554016113 0.372832059860229492 0.218864306807518005
0.599870800971984863 0.331804484128952026 0.137648105621337891
0.0704118013381958008 0.475219041109085083 -0.270106673240661621
-0.55085909366607666 0.276882916688919067 0.466312974691390991
0.592905521392822266 -0.144327491521835327 0.293441593647003174
-0.406344622373580933 0.012944784015417099 0.468271702527999878
-0.595070958137512207 -0.61620020866394043 0.257358282804489136
0.598965346813201904 -0.677785634994506836 0.225994065403938293
-0.591454207897186279 0.0407413356006145477 -0.107576683163642883
0.594104647636413574 -0.500774741172790527 0.199236318469047546
0.401235640048980713 -0.146576359868049622 -0.204065009951591492
-0.576129317283630371 -0.30532565712928772 0.128736570477485657
-0.585726082324981689 0.0654686093330383301 0.0180749800056219101
0.444622129201889038 -0.137234404683113098 -0.0549808628857135773
-0.0222580190747976303 0.476781547069549561 0.124524131417274475
-0.0195115189999341965 -0.352243512868881226 0.485389530658721924
0.248424291610717773 -0.265799134969711304 0.441285938024520874
-0.223986923694610596 -0.224174261093139648 0.431742280721664429
0.176506578922271729 -0.129973068833351135 0.0433316603302955627
-0.565628111362457275 -0.679641127586364746 0.281114369630813599
-0.480406284332275391 0.464693456888198853 0.177154198288917542
-0.52961498498916626 -0.108113035559654236 0.456060916185379028
0.561703324317932129 -0.236595362424850464 0.414356410503387451
0.1880902498960495 -0.116869315505027771 -0.184917718172073364
0.483608990907669067 0.514045357704162598 0.109074860811233521
0.271205335855484009 0.0246959030628204346 0.453024178743362427
0.59930872917175293 0.281511515378952026 -0.308883965015411377
-0.566662311553955078 0.20050378143787384 -0.0507937818765640259
0.569454073905944824 0.413344591856002808 -0.252470880746841431
0.594297647476196289 -0.34821021556854248 -0.0347157120704650879
-0.284449934959411621 -0.148284792900085449 0.321350753307342529
0.0647999048233032227 -0.144224941730499268 0.297882974147796631
0.593517541885375977 -0.181181356310844421 0.213317424058914185
-0.503930270671844482 -0.154733002185821533 0.267508089542388916
-0.375675708055496216 0.496276378631591797 -0.314157187938690186
0.596755802631378174 0.41361236572265625 -0.418601006269454956
0.583787977695465088 0.488144040107727051 0.197464406490325928
0.0616583079099655151 0.48831021785736084 0.0808968693017959595
0.608588755130767822 0.195206537842750549 -0.240387007594108582
-0.248700246214866638 0.494859993457794189 -0.149484947323799133
-0.124897681176662445 -0.133836522698402405 0.454941064119338989
-0.583961248397827148 0.391504675149917603 0.242129325866699219
0.0160523336380720139 0.514347493648529053 0.264237135648727417
-0.302561134099960327 0.0728932321071624756 0.472573846578598022
0.0125230671837925911 -0.211583405733108521 0.456658661365509033
-0.114587120711803436 0.50466454029083252 -0.145217567682266235
0.582273900508880615 0.141494631767272949 -0.0176253616809844971
0.280458629131317139 0.269506067037582397 0.468410193920135498
0.612307965755462646 0.226074889302253723 -0.411551445722579956
-0.550005137920379639 -0.555192530155181885 0.375997066497802734
0.541317462921142578 0.43067324161529541 -0.387632429599761963
0.117697194218635559 -0.253966867923736572 0.471803098917007446
-0.368029266595840454 -0.126652747392654419 0.00245314370840787888
-0.128010258078575134 0.465753465890884399 0.158779844641685486
0.560747623443603516 0.512705802917480469 0.298134595155715942
-0.58786696195602417 0.283002346754074097 0.299788951873779297
-0.0793920978903770447 0.440126925706863403 0.455449402332305908
-0.520703375339508057 0.379630923271179199 0.453649550676345825
-0.561271309852600098 0.170286849141120911 -0.129749193787574768
-0.560805022716522217 0.200471267104148865 0.238274857401847839
-0.611923396587371826 -0.143013462424278259 -0.0039878329262137413
0.601812124252319336 0.402495324611663818 -0.251744627952575684
0.0134867271408438683 -0.135788887739181519 0.160309404134750366
-0.576232731342315674 -0.678307533264160156 0.457818299531936646
0.310937106609344482 0.490453779697418213 -0.234108269214630127
-0.586070835590362549 -0.193684950470924377 0.276383817195892334
0.535979330539703369 -0.141252949833869934 0.185386255383491516
0.291652917861938477 0.453571587800979614 -0.427514344453811646
0.57417374849319458 -0.144128516316413879 0.0298435874283313751
-0.0256677009165287018 -0.172370463609695435 0.442721396684646606
-0.271693825721740723 -0.126576855778694153 0.40085873007774353
-0.566811442375183105 0.292051166296005249 -0.218267679214477539
0.0135003458708524704 0.422011464834213257 0.466658413410186768
0.581182003021240234 0.476171612739562988 -0.286097586154937744
-0.0842711701989173889 -0.218642175197601318 0.461760073900222778
0.600601136684417725 -0.574807941913604736 0.101489759981632233
0.404654890298843384 0.171849623322486877 0.441457033157348633
-0.555703401565551758 0.101335495710372925 0.332419514656066895
0.400281250476837158 -0.219273000955581665 0.452596783638000488
-0.419143944978713989 -0.155596882104873657 -0.00913498364388942719
0.195689961314201355 0.49156343936920166 -0.039186481386423111
0.560379743576049805 -0.439772069454193115 0.130419820547103882
-0.593098759651184082 0.0100941872224211693 0.0199129749089479446
0.31325995922088623 0.256266325712203979 -0.40561753511428833
-0.196238011121749878 0.345638513565063477 -0.430722862482070923
-0.559475541114807129 -0.403633564710617065 0.0998065322637557983
-0.555184245109558105 -0.326944619417190552 0.0896202549338340759
-0.563477516174316406 -0.152173414826393127 0.0674423053860664368
0.532287240028381348 0.256826817989349365 0.449508428573608398
-0.456517666578292847 -0.148628905415534973 0.348553836345672607
0.511541604995727539 0.329551219940185547 -0.425157219171524048
0.590125501155853271 0.187413647770881653 -0.402313649654388428
-0.423585742712020874 0.246916547417640686 0.442240685224533081
0.0800348520278930664 0.498187631368637085 0.0569006279110908508
-0.588513433933258057 0.479796350002288818 0.041896868497133255
0.0416811704635620117 0.475352436304092407 -0.187720790505409241
0.580678224563598633 -0.154883697628974915 0.216123536229133606
-0.0538894124329090118 0.505566179752349854 -0.0366852320730686188
0.611609935760498047 0.309412300586700439 -0.0476003959774971008
0.604182302951812744 -0.0797187760472297668 0.10671069473028183
-0.155812591314315796 0.453671902418136597 0.394936412572860718
-0.196378529071807861 0.474998503923416138 0.270843714475631714
-0.25046423077583313 -0.318397849798202515 0.469582289457321167
-0.391982018947601318 0.495349586009979248 0.459986984729766846
0.619790494441986084 -0.153402909636497498 -0.18165995180606842
0.49024122953414917 -0.328173965215682983 0.450222611427307129
-0.337936818599700928 0.355380147695541382 -0.384395420551300049
0.564518392086029053 -0.234391272068023682 0.292308658361434937
-0.46025007963180542 -0.0942292511463165283 0.463651329278945923
-0.270087063312530518 0.475945740938186646 0.111228540539741516
-0.227514833211898804 -0.135273590683937073 0.408628135919570923
0.522518575191497803 0.0449859462678432465 0.472860902547836304
0.222368746995925903 -0.148223757743835449 0.197824284434318542
-0.304524838924407959 -0.297215014696121216 0.459472239017486572
0.568643093109130859 -0.0152973746880888939 -0.215638771653175354
-0.326292723417282104 0.499108463525772095 -0.259112447500228882
-0.225222989916801453 0.380691856145858765 -0.394165098667144775
-0.253005564212799072 0.496821761131286621 -0.356078654527664185
-0.50861048698425293 -0.312743157148361206 0.430657178163528442
-0.180065333843231201 -0.124814875423908234 0.011288975365459919
-0.0227001272141933441 -0.127890527248382568 0.463918328285217285
-0.0670183971524238586 0.500160932540893555 -0.388008713722229004
-0.601515829563140869 0.343461394309997559 0.199947342276573181
0.0147012770175933838 0.476374298334121704 0.196357995271682739
-0.130397647619247437 0.497271716594696045 -0.336584895849227905
-0.606898248195648193 0.421199798583984375 -0.217681795358657837
0.595251202583312988 -0.160680323839187622 0.37697562575340271
-0.595858931541442871 0.126976549625396729 0.44135051965713501
0.157145529985427856 -0.349760442972183228 0.458271145820617676
0.342510968446731567 0.0445973537862300873 0.455514311790466309
-0.355258315801620483 0.486874431371688843 0.0574539303779602051
0.380310624837875366 -0.0804725810885429382 0.446203798055648804
0.566822052001953125 0.519233286380767822 0.342802077531814575
0.470285385847091675 -0.130457878112792969 0.297320097684860229
0.592263400554656982 0.464718163013458252 0.357419252395629883
-0.396954983472824097 -0.147259443998336792 0.401042759418487549
-0.609139859676361084 -0.23942895233631134 0.0748971849679946899
0.0146432248875498772 -0.144207879900932312 -0.0559120737016201019
0.592785954475402832 -0.327997595071792603 0.0926869064569473267
0.61010819673538208 0.439218193292617798 0.0568189695477485657
0.0561920143663883209 -0.258428335189819336 0.452483177185058594
0.571932435035705566 -0.0059286290779709816 -0.278339684009552002
-0.409560412168502808 -0.134456232190132141 0.177158161997795105
-0.128568634390830994 -0.113319151103496552 0.460283458232879639
0.566904664039611816 -0.176486894488334656 -0.0135426120832562447
-0.477779865264892578 -0.375506669282913208 0.467080861330032349
-0.595141172409057617 0.174432218074798584 0.306387603282928467
-0.564757466316223145 -0.337994933128356934 0.419321686029434204
0.388749867677688599 -0.148168206214904785 0.065491601824760437
0.483964651823043823 0.219076812267303467 -0.414103150367736816
0.559890568256378174 0.462487339973449707 -0.250673413276672363
0.330216914415359497 0.291675776243209839 -0.386688888072967529
-0.582403779029846191 -0.0930859744548797607 0.417510747909545898
-0.506600439548492432 0.485882878303527832 -0.308940649032592773
-0.39541587233543396 0.495227634906768799 -0.401643872261047363
-0.590371251106262207 -0.505956113338470459 0.47784993052482605
-0.0952192842960357666 0.472693383693695068 -0.230895712971687317
-0.0375796295702457428 0.36426958441734314 0.450001537799835205
-0.153734356164932251 0.494586586952209473 0.108868956565856934
-0.587518990039825439 0.233435437083244324 0.146663084626197815
-0.57811206579208374 -0.144800394773483276 0.382506459951400757
0.0679984018206596375 0.350567847490310669 -0.389230281114578247
0.599625766277313232 -0.436113595962524414 0.194496124982833862
0.567817151546478271 -0.468404471874237061 0.362567484378814697
-0.0516229420900344849 0.485146790742874146 -0.333468466997146606
-0.554329514503479004 0.229268655180931091 0.102612487971782684
0.469653189182281494 0.000825177121441811323 0.457226663827896118
0.0521478168666362762 -0.0751002952456474304 0.441104292869567871
-0.550891339778900146 -0.0110455825924873352 0.0695155337452888489
-0.579568684101104736 0.0240967515856027603 -0.0215302165597677231
0.610660016536712646 0.250999778509140015 0.403022497892379761
-0.380187004804611206 0.487228661775588989 0.308108747005462646
-0.58577573299407959 0.287661224603652954 0.241029724478721619
0.0687805190682411194 -0.364267170429229736 0.436800539493560791
-0.610015690326690674 0.331429153680801392 -0.000877884565852582455
0.413323849439620972 0.44409102201461792 0.455363869667053223
0.209503546357154846 -0.138387724757194519 0.292662292718887329
0.143344655632972717 -0.182508662343025208 0.4790840744972229
0.0620841272175312042 0.474835813045501709 -0.324475616216659546
0.602930009365081787 -0.141647681593894958 -0.135218948125839233
0.558836281299591064 -0.551353275775909424 0.370427876710891724
0.578215956687927246 0.109871968626976013 0.405566036701202393
-0.444333881139755249 -0.145944163203239441 -0.0859301239252090454
0.571834862232208252 0.0135624492540955544 0.42145112156867981
-0.116985820233821869 0.46631699800491333 0.066392652690410614
0.0680246353149414062 0.493085175752639771 -0.3195686936378479
-0.562785565853118896 0.41736796498298645 0.186497882008552551
0.189338073134422302 0.46613118052482605 -0.335599571466445923
0.594513654708862305 -0.434213340282440186 0.0183628518134355545
-0.570815980434417725 -0.383139491081237793 0.188886001706123352
-0.267686277627944946 0.325047433376312256 0.453282266855239868
-0.558967411518096924 -0.385014444589614868 0.127114668488502502
0.335378259420394897 0.476763546466827393 0.437026143074035645
0.317636102437973022 -0.150888293981552124 0.202162012457847595
0.577471911907196045 0.14604736864566803 -0.325726091861724854
0.444984734058380127 0.491093724966049194 0.224230408668518066
-0.60955202579498291 0.272799372673034668 -0.252637296915054321
-0.572955131530761719 -0.170761421322822571 0.308384746313095093
0.307661086320877075 0.468603312969207764 0.296900302171707153
-0.0338622555136680603 0.25656592845916748 0.449565261602401733
-0.574056088924407959 0.445381700992584229 -0.0689853057265281677
0.308525294065475464 -0.209182143211364746 0.464306414127349854
0.54381483793258667 0.457320719957351685 0.0244785845279693604
0.504220366477966309 -0.255794048309326172 0.471588402986526489
-0.605695962905883789 0.0845480859279632568 0.134590372443199158
-0.604830682277679443 -0.259148746728897095 0.1061440110206604
0.429650843143463135 0.31991913914680481 0.461061805486679077
-0.278168678283691406 -0.153261870145797729 0.0849884003400802612
-0.605798423290252686 -0.150279715657234192 0.398911058902740479
0.568209707736968994 -0.472964704036712646 0.178250879049301147
0.562023520469665527 -0.28065955638885498 0.374049484729766846
0.350639760494232178 0.0914559289813041687 0.462835490703582764
0.572759389877319336 -0.312033742666244507 0.0818212851881980896
-0.0609114840626716614 -0.140132859349250793 -0.0620195232331752777
-0.559872150421142578 -0.364510536193847656 0.413590699434280396
-0.261139452457427979 -0.15518265962600708 0.474359899759292603
-0.577433109283447266 -0.149032130837440491 0.215055882930755615
0.598424911499023438 0.397054463624954224 0.288073748350143433
-0.584133028984069824 0.395604252815246582 -0.30473598837852478
-0.337139040231704712 -0.129104867577552795 0.115685947239398956
-0.388504087924957275 0.228340595960617065 0.438767731189727783
-0.599713146686553955 0.278066039085388184 0.39894634485244751
-0.556786179542541504 -0.198604658246040344 0.357504278421401978
0.561908721923828125 0.0831171423196792603 0.460528403520584106
-0.605426132678985596 -0.435034960508346558 0.274508804082870483
-0.207424372434616089 -0.248166188597679138 0.442109614610671997
0.528846263885498047 -0.105245955288410187 0.441988736391067505
-0.567023336887359619 0.295280426740646362 -0.0172701720148324966
0.555054605007171631 -0.648270845413208008 0.231292381882667542
0.47972482442855835 -0.293086796998977661 0.454380631446838379
0.50655829906463623 0.423445135354995728 0.455316752195358276
0.128008469939231873 -0.118029706180095673 0.129495531320571899
0.417343854904174805 0.0584697090089321136 0.458301246166229248
0.0546647012233734131 0.275720924139022827 -0.436469137668609619
0.0513026341795921326 0.500838577747344971 -0.394756793975830078
0.23362576961517334 -0.143908306956291199 0.345228880643844604
-0.55631411075592041 0.462124645709991455 0.273245424032211304
0.249131515622138977 0.476378917694091797 -0.266036629676818848
0.309080928564071655 -0.152012169361114502 0.435785651206970215
0.117659904062747955 0.249755963683128357 0.459251374006271362
-0.577652812004089355 0.338573604822158813 0.452272653579711914
-0.0998704582452774048 0.268605917692184448 0.45124778151512146
-0.234239161014556885 -0.155350983142852783 0.451720744371414185
-0.598773419857025146 -0.424629032611846924 0.398425459861755371
0.567330420017242432 0.325010567903518677 -0.180768191814422607
-0.558226048946380615 -0.105060912668704987 -0.0452332720160484314
0.431202530860900879 0.482973277568817139 0.265316694974899292
-0.51611483097076416 0.447551459074020386 0.434986501932144165
0.498264133930206299 0.49176439642906189 -0.315513640642166138
-0.123776331543922424 0.494488716125488281 -0.172307968139648438
-0.50411611795425415 -0.185407534241676331 0.455701529979705811
0.579925417900085449 0.44691389799118042 0.417696654796600342
0.0158200878649950027 -0.136021152138710022 0.0964904427528381348
0.13667982816696167 -0.312232226133346558 0.45304405689239502
0.390686362981796265 -0.140852317214012146 0.363732695579528809
-0.309142380952835083 -0.133678734302520752 0.033449169248342514
-0.107453741133213043 -0.110237307846546173 0.46779400110244751
0.348535925149917603 0.432054907083511353 0.467716455459594727
-0.567973136901855469 0.15772615373134613 -0.00693669309839606285
0.306241929531097412 0.261956363916397095 0.474329650402069092
9.71025729086250067e-05 0.389879107475280762 -0.38688349723815918
0.295383810997009277 0.279139995574951172 0.45603644847869873
0.246795743703842163 0.495994359254837036 0.136248841881752014
-0.581380188465118408 0.352085918188095093 0.359357982873916626
-0.605734407901763916 0.0318646878004074097 0.165892273187637329
0.42049291729927063 0.499822139739990234 -0.029672328382730484
-0.385842621326446533 0.457260042428970337 0.460928261280059814
-0.173889458179473877 -0.140480563044548035 -0.0732683688402175903
0.297846466302871704 0.417526364326477051 0.456145972013473511
0.560413777828216553 0.321342974901199341 -0.386499553918838501
-0.325180321931838989 -0.141768395900726318 0.38855212926864624
-0.552568495273590088 -0.670585334300994873 0.271532565355300903
-0.134318232536315918 0.115522176027297974 0.462761849164962769
0.216904431581497192 -0.125564143061637878 -0.0613894015550613403
-0.6040077805519104 0.0366428270936012268 -0.174716025590896606
0.472997575998306274 -0.141682326793670654 0.23448866605758667
-0.436859816312789917 -0.137086957693099976 0.205215916037559509
0.141416221857070923 0.206012561917304993 -0.395787805318832397
-0.05689287930727005 0.353938251733779907 -0.402669250965118408
-0.599367678165435791 0.322214335203170776 -0.186169147491455078
0.196071520447731018 0.498583525419235229 -0.20654653012752533
-0.353084087371826172 0.476336538791656494 0.257155835628509521
0.516199290752410889 0.468236327171325684 0.230098500847816467
0.228023037314414978 0.408116579055786133 0.449639230966567993
0.549622297286987305 -0.603047013282775879 0.390592724084854126
0.602036237716674805 -0.600956380367279053 0.414940834045410156
0.007915496826171875 -0.0763228237628936768 0.476978689432144165
0.566641569137573242 0.0338421054184436798 -0.195218279957771301
-0.56118321418762207 -0.424190402030944824 0.426360994577407837
0.524038493633270264 0.496698886156082153 -0.168649300932884216
-0.56744682788848877 -0.47985386848449707 0.371182352304458618
0.559190571308135986 -0.154340505599975586 -0.164447769522666931
0.195130258798599243 0.279512941837310791 -0.393625915050506592
0.0425147302448749542 0.467061996459960938 0.124501846730709076
-0.608596980571746826 -0.651097655296325684 0.324147731065750122
-0.307455658912658691 0.49012458324432373 0.0756919234991073608
0.371881306171417236 0.299253761768341064 0.448334932327270508
-0.494293123483657837 0.385862678289413452 -0.418069183826446533
-0.603126347064971924 0.31842195987701416 -0.114386193454265594
-0.576115846633911133 -0.377104848623275757 0.328908860683441162
-0.338946610689163208 0.153212249279022217 0.450166374444961548
-0.505228161811828613 -0.133686959743499756 0.0866464674472808838
0.564777970314025879 0.0519171617925167084 -0.233907639980316162
0.602313816547393799 0.12881004810333252 -0.0953311026096343994
-0.463893234729766846 0.393781810998916626 0.460900306701660156
-0.408126771450042725 0.0468524321913719177 0.455582976341247559
0.552170813083648682 0.44815903902053833 0.256613254547119141
-0.151916712522506714 0.512207984924316406 0.0352494977414608002
0.587211787700653076 0.283754706382751465 0.310908257961273193
-0.217173486948013306 -0.13360421359539032 0.179043009877204895
-0.420499682426452637 0.493637949228286743 0.166434288024902344
-0.552708029747009277 -0.243626788258552551 0.462374716997146606
0.522725105285644531 0.453365862369537354 0.356753170490264893
-0.169135868549346924 0.470678091049194336 -0.368780463933944702
0.51112830638885498 0.290214091539382935 -0.396663010120391846
0.56776130199432373 0.105683371424674988 0.0221452265977859497
-0.222651466727256775 0.468049943447113037 0.390626698732376099
-0.564040482044219971 0.396869152784347534 -0.355192720890045166
-0.19058266282081604 0.370154261589050293 -0.388471096754074097
0.571885526180267334 -0.233453154563903809 0.133651003241539001
-0.571088492870330811 -0.298141390085220337 0.0730435773730278015
0.59316706657409668 0.0436392612755298615 0.300651371479034424
0.0860454589128494263 -0.142244979739189148 0.0167276263236999512
0.563022613525390625 0.442383259534835815 -0.114236049354076385
-0.202626779675483704 -0.1201457679271698 0.0566192232072353363
0.113788865506649017 0.478151828050613403 -0.299459010362625122
0.180150151252746582 0.511332452297210693 0.114820197224617004
-0.460403531789779663 -0.307886272668838501 0.472032815217971802
0.574507713317871094 0.000125044010928831995 -0.143886089324951172
0.60344696044921875 -0.275267452001571655 0.296131730079650879
0.499372243881225586 0.27293965220451355 0.458587080240249634
0.594973146915435791 0.0296819377690553665 0.380132466554641724
0.560488283634185791 -0.517547190189361572 0.144333809614181519
0.0723092406988143921 0.150378912687301636 0.47409018874168396
-0.602512538433074951 0.00826406292617321014 0.200194031000137329
-0.0589540973305702209 0.452239006757736206 -0.422240614891052246
-0.197598263621330261 -0.287110894918441772 0.438897013664245605
0.0876488387584686279 -0.290707558393478394 0.463553637266159058
0.229163810610771179 0.310476392507553101 0.460674673318862915
-0.297189176082611084 -0.13579171895980835 0.0754542872309684753
0.566368699073791504 -0.030510513111948967 0.464383959770202637
0.494596809148788452 0.504382312297821045 0.153571203351020813
-0.60481572151184082 0.0753571242094039917 0.273169398307800293
-0.608076333999633789 -0.648456394672393799 0.361944139003753662
-0.520854353904724121 -0.283465951681137085 0.459301650524139404
0.561568260192871094 0.00822795461863279343 0.288177281618118286
-0.469625324010848999 0.472214370965957642 -0.162193372845649719
-0.247928261756896973 -0.0311748497188091278 0.448979645967483521
-0.58509361743927002 -0.00266754534095525742 -0.133130475878715515
-0.593279421329498291 0.141274690628051758 -0.193134769797325134
0.601837635040283203 0.197115853428840637 0.00836963113397359848
-0.484144806861877441 -0.137606590986251831 0.126489251852035522
0.156244680285453796 0.227932587265968323 0.459713727235794067
-0.587471425533294678 -0.417090773582458496 0.118448227643966675
-0.277844220399856567 0.307627439498901367 -0.404308885335922241
0.451954156160354614 0.494847565889358521 0.446064144372940063
0.116766892373561859 -0.132187142968177795 0.369329363107681274
-0.268055975437164307 0.414633661508560181 0.459090590476989746
-0.573687970638275146 0.325100451707839966 0.209153592586517334
0.366203039884567261 0.270060986280441284 -0.363875836133956909
0.3052864670753479 0.504580497741699219 -0.357150644063949585
-0.579271137714385986 0.177933946251869202 0.406550586223602295
0.53682398796081543 0.184650272130966187 0.45294189453125
-0.520979762077331543 0.303516864776611328 0.463612675666809082
-0.419135868549346924 0.490753650665283203 0.274471044540405273
0.435036569833755493 -0.320998996496200562 0.452567547559738159
0.0233238339424133301 0.47444462776184082 -0.0693534910678863525
0.230216622352600098 0.476249814033508301 -0.167415648698806763
-0.368739008903503418 -0.157742887735366821 0.0786720439791679382
0.580544233322143555 0.104696273803710938 0.304890364408493042
0.60044485330581665 0.30205264687538147 0.0948950126767158508
0.413233697414398193 -0.129241600632667542 0.20412832498550415
-0.575693011283874512 0.392118841409683228 -0.0127077531069517136
0.46601557731628418 0.507152676582336426 0.19149443507194519
0.581772506237030029 -0.442497849464416504 0.0652723237872123718
0.327344328165054321 -0.131639614701271057 0.388821780681610107
-0.259309172630310059 0.466730743646621704 0.359104186296463013
-0.274534940719604492 0.469001412391662598 0.0234156269580125809
-0.37255251407623291 -0.376811623573303223 0.462128877639770508
-0.564270555973052979 0.265086770057678223 0.11205802857875824
0.536349117755889893 0.0344582423567771912 0.440026402473449707
0.58584749698638916 0.120363622903823853 0.340717971324920654
-0.566232025623321533 -0.134652659296989441 -0.0753041133284568787
0.579250574111938477 -0.139673128724098206 0.356021732091903687
-0.478626012802124023 0.349483281373977661 0.451004117727279663
0.259940087795257568 0.128095418214797974 0.4639911949634552
-0.0470479093492031097 0.302862197160720825 0.457958191633224487
0.602002263069152832 -0.102642573416233063 0.0729165524244308472
0.492910027503967285 0.323862463235855103 -0.380894184112548828
-0.572027146816253662 -0.263847589492797852 0.399259239435195923
0.58275294303894043 0.483076483011245728 -0.0608893148601055145
-0.0264940708875656128 0.490193694829940796 0.171857267618179321
0.329277902841567993 0.156456708908081055 0.459399431943893433
0.179744064807891846 0.488870292901992798 -0.0254740137606859207
0.580116868019104004 0.442874550819396973 -0.414007276296615601
-0.0415620990097522736 0.0937827751040458679 0.477631330490112305
0.160626694560050964 -0.0715661123394966125 0.459131568670272827
-0.0224938802421092987 0.159158378839492798 0.474451601505279541
0.456216603517532349 0.458243310451507568 -0.129881873726844788
0.00636078976094722748 -0.138969108462333679 -0.11997850239276886
-0.407980293035507202 0.494776308536529541 0.452237993478775024
-0.599858105182647705 -0.110133744776248932 0.367741525173187256
-0.599568009376525879 -0.120135828852653503 -0.0595700927078723907
0.591278612613677979 -0.147188305854797363 0.139390334486961365
-0.361063659191131592 0.322219371795654297 -0.41895708441734314
-0.493647158145904541 0.227240294218063354 0.44751247763633728
0.0903930515050888062 0.482393831014633179 0.349632978439331055
0.031330794095993042 -0.259083032608032227 0.451491743326187134
-0.151256009936332703 0.48661649227142334 -0.30485883355140686
-0.564131081104278564 0.393002688884735107 0.141098380088806152
-0.378889232873916626 -0.128892973065376282 0.298191040754318237
0.0467204079031944275 0.229202911257743835 0.444964557886123657
-0.314618170261383057 -0.0752181932330131531 0.460940331220626831
-0.60929262638092041 0.131363764405250549 0.323568344116210938
-0.0945690274238586426 -0.129284858703613281 0.0526590459048748016
-0.415593475103378296 -0.13498273491859436 -0.146111980080604553
-0.172132909297943115 0.102411597967147827 0.451438575983047485
-0.557350575923919678 -0.235104292631149292 0.240098372101783752
0.416141539812088013 0.259136289358139038 0.444860160350799561
-0.453027307987213135 0.124790571630001068 0.455140948295593262
-0.0816130936145782471 0.498654663562774658 -0.300869464874267578
-0.241950750350952148 0.0414070188999176025 0.444820135831832886
-0.429915279150009155 0.486473679542541504 -0.297546118497848511
0.576961636543273926 0.223881721496582031 0.455779761075973511
-0.364234626293182373 -0.123658172786235809 0.343685775995254517
-0.514829039573669434 -0.15031076967716217 0.411024808883666992
0.191613852977752686 -0.140387117862701416 -0.0873339474201202393
-0.275502473115921021 0.462182849645614624 -0.0286371316760778427
0.565569043159484863 0.126907363533973694 -0.0696612372994422913
0.60739290714263916 0.289492785930633545 -0.404952317476272583
-0.542353332042694092 0.468267470598220825 -0.0912547707557678223
0.414328277111053467 0.105743408203125 0.450228363275527954
0.596011102199554443 -0.100372828543186188 -0.0901602879166603088
-0.0693672746419906616 0.484262555837631226 -0.0991408675909042358
-0.337078183889389038 -0.1242656409740448 0.420013189315795898
-0.570847034454345703 -0.123873271048069 0.251425266265869141
-0.565756380558013916 0.0638111680746078491 -0.0660896599292755127
0.201973184943199158 0.460484474897384644 0.39763835072517395
0.396608501672744751 -0.149968639016151428 0.467778027057647705
-0.144105538725852966 0.490821123123168945 -0.011128915473818779
-0.483606457710266113 0.501128017902374268 0.364476621150970459
0.022755499929189682 -0.155401080846786499 0.0662694051861763
0.478900253772735596 0.0584823451936244965 0.482354730367660522
0.298149198293685913 0.49643358588218689 0.11572740226984024
-0.221462681889533997 0.330034017562866211 0.47577783465385437
0.443475514650344849 0.466220200061798096 0.281569391489028931
0.0155100906267762184 -0.142492383718490601 0.0131544666364789009
0.597173511981964111 0.0988423377275466919 -0.341575413942337036
-0.573090136051177979 0.492976933717727661 -0.170779719948768616
0.199687421321868896 0.492855429649353027 0.463356614112854004
-0.417655915021896362 -0.171887591481208801 0.457244426012039185
-0.564531028270721436 -0.440142393112182617 0.191857412457466125
0.228504881262779236 0.496040105819702148 -0.341820985078811646
-0.189638972282409668 -0.0129072833806276321 0.464435786008834839
-0.0612218156456947327 -0.133463203907012939 0.255661338567733765
-0.473050117492675781 0.518521249294281006 -0.265272140502929688
-0.0948397889733314514 0.494720578193664551 -0.167927294969558716
-0.0223041567951440811 0.214232280850410461 0.437303632497787476
-0.243824407458305359 0.291608542203903198 0.454958260059356689
0.164426818490028381 -0.116454839706420898 -0.17060185968875885
-0.264052659273147583 -0.130610004067420959 0.0259299855679273605
0.55746692419052124 0.236301407217979431 -0.118367724120616913
0.094266057014465332 0.4375629723072052 -0.409349918365478516
-0.611590921878814697 0.0741130411624908447 0.225591003894805908
-0.532556414604187012 0.499244183301925659 -0.107628516852855682
0.609697282314300537 -0.607560813426971436 0.448328495025634766
-0.0568099506199359894 0.455812126398086548 0.01654009148478508
-0.389738231897354126 -0.130118668079376221 0.255597382783889771
0.304982870817184448 0.473142415285110474 -0.171726271510124207
0.440406590700149536 0.321380943059921265 -0.398247689008712769
-0.540483951568603516 0.207390710711479187 0.480052322149276733
