ply
format ascii 1.0
element vertex 717
property float x
property float y
property float z
end_header
0.366826623678207397 -0.145775914192199707 0.513079702854156494
0.289155274629592896 0.0311314128339290619 -0.383094727993011475
0.168149054050445557 0.311967372894287109 0.120974451303482056
-0.191979140043258667 0.370219886302947998 -0.746592998504638672
0.0607777610421180725 0.420195698738098145 -0.32289355993270874
-0.560164749622344971 0.288442015647888184 -0.371141821146011353
0.217270910739898682 0.23070409893989563 -0.389039307832717896
-0.182899653911590576 0.313160061836242676 -0.376298576593399048
-0.0410635508596897125 0.599040746688842773 -0.225498795509338379
-0.166456028819084167 0.53007131814956665 -0.538953542709350586
0.101889945566654205 0.168441161513328552 -0.133660048246383667
0.278483390808105469 0.52920377254486084 0.403780490159988403
0.403163224458694458 0.00584723055362701416 0.0358025282621383667
0.378660827875137329 -0.0556156858801841736 -0.121176868677139282
-0.0836043506860733032 -0.247550323605537415 0.333909183740615845
-0.342887639999389648 0.542383015155792236 -0.634703636169433594
0.158928349614143372 0.243650957942008972 -0.536216676235198975
0.223377108573913574 -0.0333849824965000153 -0.313232302665710449
-0.066122300922870636 0.579926252365112305 -0.316493719816207886
-0.0382930412888526917 0.418211221694946289 -0.499112606048583984
0.306928575038909912 0.114077582955360413 0.13454572856426239
-0.0664945244789123535 0.444028615951538086 0.00791625399142503738
0.376348108053207397 -0.100770480930805206 -0.158980116248130798
-0.00471905525773763657 0.431363731622695923 -0.428623706102371216
-0.0391407385468482971 0.350392401218414307 -0.121809467673301697
0.37879413366317749 -0.0247304141521453857 -0.0820499956607818604
-0.0869859084486961365 0.482735008001327515 -0.0935667455196380615
0.0698118135333061218 0.409926563501358032 0.147920072078704834
0.0267649758607149124 0.338640928268432617 -0.0289766993373632431
0.0591947473585605621 0.559378504753112793 0.0797304138541221619
0.162600576877593994 0.0852175056934356689 -0.212772056460380554
0.0705462545156478882 0.138207599520683289 -0.533293545246124268
-0.148356452584266663 0.253375619649887085 -0.684219181537628174
0.352419883012771606 0.223775967955589294 0.278191894292831421
0.0725934654474258423 0.0409125462174415588 -0.444594144821166992
0.174062669277191162 0.291413962841033936 0.0921158194541931152
-0.18583911657333374 0.328553915023803711 -0.722721457481384277
-0.334464281797409058 0.471212208271026611 -0.386440038681030273
0.470026642084121704 -0.355886280536651611 0.353976219892501831
0.392862290143966675 -0.291913866996765137 0.396233052015304565
0.311681777238845825 -0.143243208527565002 -0.210852950811386108
-0.0700322464108467102 0.147592499852180481 -0.480861097574234009
0.368995606899261475 -0.168000653386116028 0.450793564319610596
-0.158206015825271606 0.569894015789031982 -0.404242157936096191
-0.341049790382385254 0.599255144596099854 -0.560491383075714111
0.445577293634414673 -0.0479407943785190582 -0.162997573614120483
0.316512793302536011 -0.121738359332084656 0.496710091829299927
0.272788375616073608 0.120274461805820465 -0.418942809104919434
0.341406941413879395 0.03108934685587883 -0.0230824258178472519
0.315913379192352295 0.340278476476669312 0.499864459037780762
0.0723563209176063538 0.508089244365692139 -0.171061471104621887
0.22491590678691864 0.512796998023986816 0.0586083456873893738
-0.0290497858077287674 0.196451947093009949 -0.599639654159545898
0.337624788284301758 -0.0774439871311187744 -0.22396501898765564
0.403193861246109009 0.110407650470733643 0.19692133367061615
0.382826417684555054 0.0120294932276010513 0.0153551269322633743
-0.0758597403764724731 0.496531575918197632 -0.0820223391056060791
-0.404333114624023438 0.531080543994903564 -0.381708085536956787
0.22908155620098114 0.285214453935623169 -0.272695809602737427
0.249069914221763611 0.119709305465221405 -0.0483375787734985352
0.256413668394088745 0.389491528272628784 0.383488565683364868
0.204182550311088562 -0.430028647184371948 0.374419212341308594
0.206514447927474976 0.171548753976821899 -0.467390984296798706
0.0147617179900407791 0.564928114414215088 -0.145642802119255066
-0.347955286502838135 0.383820772171020508 -0.680686771869659424
0.338951587677001953 -0.173364266753196716 0.391986578702926636
0.108904562890529633 0.0107059795409440994 -0.384293705224990845
0.411876320838928223 -0.211800098419189453 0.456058681011199951
-0.157597661018371582 0.431999355554580688 -0.734993100166320801
0.225927934050559998 0.553046345710754395 0.373097777366638184
0.484195113182067871 -0.196967467665672302 -0.149392858147621155
0.127558261156082153 0.611004650592803955 0.139934569597244263
0.474269866943359375 -0.340475380420684814 0.395941585302352905
0.235955715179443359 0.225194796919822693 0.153878927230834961
0.134022951126098633 0.491165190935134888 0.302631169557571411
0.179533109068870544 0.0916688963770866394 -0.146632194519042969
0.392418622970581055 -0.34103769063949585 0.290877819061279297
-0.0428305007517337799 0.326088994741439819 -0.184875994920730591
-0.0975052416324615479 -0.159742861986160278 0.350511461496353149
-0.0472942627966403961 0.714935660362243652 -0.522320270538330078
0.275006711483001709 0.381055563688278198 0.429159581661224365
0.484489202499389648 -0.133554890751838684 -0.0574014745652675629
0.245622739195823669 0.0404917709529399872 -0.369279086589813232
0.236386790871620178 0.167361944913864136 0.0349458307027816772
-0.0892926231026649475 0.527647316455841064 -0.653020501136779785
-0.00775170605629682541 0.559156596660614014 -0.151570543646812439
-0.00456371158361434937 0.302374303340911865 -0.610428333282470703
0.19351428747177124 0.527938902378082275 0.0266314093023538589
0.0933086574077606201 0.0342755801975727081 -0.441420972347259521
0.150494962930679321 0.182951599359512329 -0.532184362411499023
-0.0695712566375732422 0.431773364543914795 -0.0383788309991359711
0.2955130934715271 0.238548010587692261 -0.270942866802215576
0.0899047702550888062 0.395308703184127808 -0.335114747285842896
0.161367222666740417 0.361835598945617676 0.227534011006355286
0.438698559999465942 0.0279005337506532669 0.0421404354274272919
0.330044656991958618 0.435555785894393921 0.442374527454376221
0.131374955177307129 0.218885496258735657 -0.593558371067047119
0.235972970724105835 0.434013456106185913 0.378572791814804077
0.380013316869735718 0.346965134143829346 0.49827614426612854
0.0231199618428945541 0.247909590601921082 -0.182604089379310608
0.201533570885658264 0.0908758491277694702 0.197796210646629333
0.26160159707069397 0.594320356845855713 0.340922564268112183
-0.124347232282161713 -0.172507360577583313 0.341975867748260498
0.356464862823486328 -0.106749929487705231 0.393756330013275146
-0.0443028397858142853 0.548463582992553711 -0.578921854496002197
0.13050428032875061 -0.0226951930671930313 0.186932161450386047
0.143161237239837646 0.0347144603729248047 -0.424589991569519043
0.217671215534210205 0.431829243898391724 0.397081911563873291
0.414349913597106934 -0.111139371991157532 -0.216056987643241882
0.0128147080540657043 0.415617018938064575 -0.414721071720123291
0.431933432817459106 -0.282962232828140259 0.278164148330688477
0.403992623090744019 0.278239667415618896 0.418902605772018433
-0.757351100444793701 0.104982726275920868 -0.227447956800460815
0.0823385939002037048 0.22204253077507019 -0.140975892543792725
-0.12132764607667923 -0.213839873671531677 0.377614349126815796
0.370412826538085938 0.425190329551696777 0.401789247989654541
0.451467186212539673 0.107134848833084106 0.244841232895851135
-0.0637211576104164124 0.138125494122505188 -0.557303488254547119
0.4420737624168396 -0.0911203324794769287 -0.0277240611612796783
0.0261439718306064606 -0.106414385139942169 0.339221924543380737
0.255509883165359497 0.0891276895999908447 0.094617791473865509
0.299032211303710938 -0.150722429156303406 -0.195133775472640991
-0.141502022743225098 0.260169118642807007 -0.398217469453811646
0.409512251615524292 0.238690540194511414 0.403047114610671997
0.166890561580657959 -0.0286125373095273972 -0.336428046226501465
0.300477862358093262 0.0774156525731086731 -0.0411746539175510406
-0.0802112147212028503 0.583145380020141602 -0.213909775018692017
0.288419723510742188 -0.382024377584457397 0.284000903367996216
-0.00404880335554480553 0.729906141757965088 -0.454417914152145386
0.346760034561157227 -0.222026079893112183 0.369054108858108521
0.0909648984670639038 0.577133297920227051 0.176507294178009033
-0.0690501183271408081 0.611256718635559082 -0.60774695873260498
-0.591938614845275879 0.1523619145154953 -0.316161543130874634
0.343142330646514893 0.264263749122619629 0.373636782169342041
-0.292202264070510864 0.455876648426055908 -0.712563097476959229
-0.0612458102405071259 0.760650396347045898 -0.515201032161712646
-0.109053455293178558 0.428157597780227661 -0.561788380146026611
0.116043940186500549 0.0603759400546550751 0.274624347686767578
-0.254656314849853516 0.235143378376960754 -0.618472874164581299
0.457955926656723022 -0.153272658586502075 0.527661800384521484
0.434707134962081909 0.0842410773038864136 0.0946253389120101929
0.173670306801795959 0.398221045732498169 -0.210102111101150513
-0.0678230449557304382 0.246924266219139099 -0.653502821922302246
-0.196284681558609009 0.450213342905044556 -0.766820967197418213
-0.105386823415756226 0.199504777789115906 0.543291091918945312
-0.0950284302234649658 0.23806355893611908 -0.400179356336593628
0.2289457768201828 0.34318426251411438 0.283677577972412109
-0.0460172481834888458 -0.241161346435546875 0.325620472431182861
-0.0921128243207931519 0.31543809175491333 -0.67136693000793457
0.264003872871398926 0.0611638575792312622 -0.104938067495822906
-0.0659817010164260864 0.407048076391220093 -0.131099104881286621
-0.0356246195733547211 0.217181742191314697 -0.608108043670654297
0.289375245571136475 -0.0786671265959739685 -0.217573270201683044
-0.2061939537525177 0.410455286502838135 -0.75632011890411377
0.375410288572311401 -0.0422135069966316223 -0.0664256736636161804
0.358308523893356323 0.224242329597473145 0.299254417419433594
0.23722703754901886 0.102089397609233856 0.162694230675697327
0.144908428192138672 0.461117208003997803 0.362161159515380859
0.213520333170890808 0.0443696975708007812 0.144482508301734924
0.0948751047253608704 0.234972968697547913 -0.584701001644134521
-0.102338112890720367 0.598079681396484375 -0.271210283041000366
0.328530281782150269 -0.523295223712921143 0.448231816291809082
-0.188726514577865601 0.389060229063034058 -0.315444499254226685
0.0807104557752609253 0.550547361373901367 0.175873681902885437
0.339659184217453003 0.474219977855682373 0.417094886302947998
0.211747050285339355 -0.220003530383110046 -0.185857474803924561
0.407350540161132812 0.255648225545883179 0.280005156993865967
0.366233676671981812 -0.0737156122922897339 0.618189036846160889
-0.068715415894985199 0.406398266553878784 -0.66363823413848877
-0.0170971918851137161 0.501619279384613037 -0.0166943259537220001
0.120031438767910004 0.456930816173553467 -0.233831793069839478
-0.191909506916999817 0.213184341788291931 -0.626522839069366455
0.0418661534786224365 0.532493650913238525 0.0825033411383628845
-0.00134421989787369967 0.489400595426559448 0.133701339364051819
0.160640716552734375 0.331042230129241943 -0.467107445001602173
-0.173087939620018005 0.133965075016021729 0.606494545936584473
-0.245050176978111267 0.569278478622436523 -0.560908734798431396
0.384658843278884888 -0.151381343603134155 0.621982038021087646
-0.0212103221565485001 0.744686424732208252 -0.451803028583526611
0.0596651211380958557 0.425278604030609131 -0.289748698472976685
0.0323912911117076874 0.504343628883361816 0.322616040706634521
-0.0960878282785415649 0.22774919867515564 -0.630323171615600586
0.0952743291854858398 -0.0635239332914352417 0.194144144654273987
0.43237990140914917 0.106407485902309418 0.130475014448165894
-0.312053948640823364 0.522698283195495605 -0.266160666942596436
0.327614963054656982 -0.0748776793479919434 -0.189530253410339355
0.13409152626991272 0.37621346116065979 0.452865004539489746
-0.165696635842323303 0.422400236129760742 -0.169525116682052612
0.418091356754302979 -0.152395471930503845 0.577153027057647705
0.365259438753128052 0.262586057186126709 0.232018560171127319
0.264528900384902954 0.200649216771125793 0.199277237057685852
0.0800650864839553833 0.496392101049423218 -0.516296446323394775
0.164187818765640259 0.424323558807373047 -0.190963134169578552
0.198417618870735168 -0.0358490608632564545 -0.304684191942214966
-0.266567260026931763 0.61675494909286499 -0.602416813373565674
0.245899826288223267 -0.0478360839188098907 -0.230607375502586365
0.0451233610510826111 -0.0636824667453765869 0.25204765796661377
0.0956711471080780029 0.613757908344268799 -0.0528962649405002594
-0.239534854888916016 0.691353857517242432 -0.430383354425430298
-0.00459639215841889381 0.481604069471359253 0.125847786664962769
-0.151537969708442688 0.434539943933486938 -0.708691000938415527
-0.191943436861038208 0.499449938535690308 -0.571484029293060303
-0.186418220400810242 0.0942147895693778992 0.636708498001098633
0.411246538162231445 0.182977810502052307 0.300581693649291992
-0.307497531175613403 0.616630613803863525 -0.420985102653503418
0.107870370149612427 0.369589388370513916 0.168972209095954895
-0.109142415225505829 0.14681553840637207 -0.571267664432525635
-0.019972093403339386 0.250123381614685059 0.492815554141998291
0.0869340747594833374 0.0602538846433162689 -0.374722838401794434
-0.24539598822593689 0.239152595400810242 -0.544542968273162842
0.242767751216888428 0.236708894371986389 -0.349241435527801514
0.429523587226867676 0.0517994239926338196 0.110633127391338348
0.223591729998588562 0.443717777729034424 -0.0793739035725593567
-0.140873029828071594 0.482770770788192749 -0.541118085384368896
-0.106784611940383911 0.362908720970153809 -0.216956362128257751
-0.0428711511194705963 0.328178554773330688 -0.633894741535186768
-0.399882763624191284 0.442860633134841919 -0.621963024139404297
0.150224074721336365 0.144696459174156189 -0.5145912766456604
-0.391512900590896606 0.441616743803024292 -0.445946574211120605
-0.253437966108322144 0.604406356811523438 -0.519729495048522949
0.292473763227462769 0.101581640541553497 0.0331491567194461823
-0.000616041535977274179 0.314530283212661743 -0.595060765743255615
0.184373125433921814 0.333707034587860107 -0.300605952739715576
-0.0494318641722202301 0.317292779684066772 -0.695694267749786377
-0.154038414359092712 0.513476371765136719 -0.165554970502853394
-0.113191962242126465 0.524604618549346924 -0.65573585033416748
0.0677426159381866455 0.50540536642074585 0.241635903716087341
-0.152661606669425964 0.110241904854774475 0.638637363910675049
0.495273500680923462 -0.057817947119474411 0.0520292967557907104
-0.0877931267023086548 0.201756179332733154 0.546155750751495361
-0.400521069765090942 0.386546969413757324 -0.609978199005126953
0.0742923691868782043 0.184377923607826233 -0.169182345271110535
-0.273681908845901489 0.5169716477394104 -0.244597926735877991
-0.0278042703866958618 0.083531603217124939 -0.51124948263168335
-0.199364170432090759 0.571669220924377441 -0.248147591948509216
0.371403545141220093 0.386991649866104126 0.472917288541793823
0.160160064697265625 0.0326791480183601379 -0.413939237594604492
0.0141331404447555542 0.194997668266296387 -0.236872091889381409
-0.0429815426468849182 0.54264909029006958 -0.328666925430297852
0.428341329097747803 -0.0251569617539644241 -0.0339716896414756775
0.0176420863717794418 0.631318211555480957 -0.504743278026580811
-0.0107418233528733253 0.707683086395263672 -0.490931123495101929
0.259781211614608765 -0.146310999989509583 -0.168329477310180664
-0.161297336220741272 0.600922942161560059 -0.452508151531219482
0.414574235677719116 0.0730577558279037476 0.152404189109802246
0.487643331289291382 -0.319166272878646851 0.396969467401504517
0.117202959954738617 0.232454270124435425 -0.548073470592498779
0.422421574592590332 0.378183603286743164 0.538484454154968262
0.216295942664146423 0.494039773941040039 0.0264089815318584442
0.345832377672195435 0.157974615693092346 0.17569887638092041
0.0330612547695636749 -0.0118166049942374229 0.269609957933425903
0.239792689681053162 -0.0888886973261833191 -0.286901026964187622
0.404307752847671509 0.107475109398365021 0.0153182381764054298
0.0935713723301887512 0.496947228908538818 0.383236199617385864
-0.126728355884552002 0.684967458248138428 -0.574895322322845459
0.205834224820137024 0.586665511131286621 0.34345659613609314
-0.0102354763075709343 -0.167450755834579468 0.253345310688018799
0.146103143692016602 -0.242252066731452942 -0.14276355504989624
0.243098318576812744 0.30769801139831543 0.24046170711517334
0.128558218479156494 0.31880795955657959 -0.393959343433380127
0.351943165063858032 -0.0865955576300621033 0.578956723213195801
0.320370525121688843 0.11817854642868042 0.140050500631332397
0.0704039335250854492 0.471146911382675171 -0.515920519828796387
-0.343056917190551758 0.609169304370880127 -0.426588624715805054
0.255800068378448486 0.195319414138793945 0.0646003186702728271
-0.64050745964050293 0.146449550986289978 -0.306430906057357788
0.0557428896427154541 0.295760005712509155 -0.548843979835510254
0.0436438620090484619 0.169796779751777649 -0.252684235572814941
-0.027878396213054657 0.487738251686096191 -0.00281230849213898182
-0.696572422981262207 0.0888351872563362122 -0.270662754774093628
0.0265567675232887268 0.480188250541687012 0.21279577910900116
0.131311327219009399 0.437321335077285767 0.256577879190444946
0.242207080125808716 0.0746515914797782898 0.0868241190910339355
0.255224227905273438 -0.0314754024147987366 -0.277196556329727173
0.101903840899467468 0.398833483457565308 -0.303833246231079102
0.498972922563552856 -0.169295191764831543 -0.156507283449172974
0.2095794677734375 0.473441511392593384 -0.0229733884334564209
0.282583177089691162 0.273609429597854614 0.213927090167999268
-0.15370585024356842 0.640620172023773193 -0.625091671943664551
0.392327427864074707 0.24950137734413147 0.232002764940261841
-0.0035235770046710968 0.0492170378565788269 -0.489757388830184937
0.173177674412727356 0.00214631459675729275 0.121430188417434692
-0.269223779439926147 0.588713347911834717 -0.301437675952911377
0.446547895669937134 -0.248732388019561768 0.370101273059844971
0.206772074103355408 0.386266529560089111 0.301870852708816528
0.240824967622756958 0.131907805800437927 0.0349684134125709534
0.023366754874587059 0.270785540342330933 0.537029087543487549
-0.0636286064982414246 -0.1969185471534729 0.325614005327224731
0.0815636590123176575 0.440338939428329468 0.202040642499923706
0.0192826520651578903 0.589087724685668945 -0.176293879747390747
0.0462008267641067505 0.383798807859420776 -0.5932883620262146
-0.0357282496988773346 0.728979885578155518 -0.492416530847549438
0.258896142244338989 0.169161111116409302 -0.419055044651031494
-0.20618923008441925 0.524650514125823975 -0.753175795078277588
-0.134846091270446777 0.183324173092842102 0.587314844131469727
0.351311415433883667 0.305194377899169922 0.281803935766220093
-0.0339949317276477814 0.158825039863586426 -0.393146365880966187
-0.0139486389234662056 0.366974771022796631 -0.496650993824005127
-0.0475975610315799713 0.260803133249282837 -0.255186468362808228
0.348737657070159912 0.393073230981826782 0.515101969242095947
0.0371076501905918121 0.536216318607330322 -0.178024947643280029
0.393467187881469727 -0.0875178128480911255 -0.122576966881752014
-0.0147732682526111603 0.601109564304351807 -0.211389198899269104
0.200859874486923218 0.245652526617050171 0.0699548125267028809
-0.0111128184944391251 0.139483049511909485 -0.0507842861115932465
0.416194707155227661 -0.429949104785919189 0.373549729585647583
-0.231801927089691162 0.520624876022338867 -0.755430817604064941
0.287408918142318726 0.151280537247657776 0.140993133187294006
-0.25846293568611145 0.26458585262298584 -0.608038008213043213
0.261950820684432983 0.400068283081054688 0.481656640768051147
-0.0367959775030612946 0.471530765295028687 0.0438303574919700623
-0.404089480638504028 0.508836030960083008 -0.56953507661819458
0.0549008511006832123 0.0720235034823417664 -0.465012341737747192
0.424122333526611328 -0.138613522052764893 0.420704007148742676
-0.193337529897689819 0.417543202638626099 -0.28100883960723877
-0.325559109449386597 0.505931973457336426 -0.307176560163497925
-0.0128379194065928459 0.238110542297363281 -0.249547943472862244
0.191590458154678345 0.301008462905883789 0.190960779786109924
0.282165437936782837 0.198573783040046692 0.162048742175102234
0.00689066667109727859 0.517343878746032715 -0.564093708992004395
0.0884308964014053345 0.451340198516845703 -0.245314449071884155
0.186753839254379272 0.505005836486816406 -0.00393285881727933884
0.339126557111740112 -0.197186574339866638 0.360159605741500854
0.0766718611121177673 0.525195002555847168 -0.488409042358398438
0.461932092905044556 -0.360443413257598877 0.332522958517074585
-0.0191462207585573196 0.545910835266113281 -0.538694381713867188
0.102508105337619781 0.31447136402130127 0.00183487543836236
0.174856051802635193 0.334433555603027344 -0.276669919490814209
0.309477657079696655 -0.0536626502871513367 0.48664325475692749
-0.399252086877822876 0.467652112245559692 -0.580342233180999756
0.0620830357074737549 0.557457149028778076 0.345875471830368042
0.3748188316822052 -0.295466840267181396 0.322496980428695679
0.31869208812713623 0.151666879653930664 0.162638425827026367
0.0418470799922943115 0.524235725402832031 0.0399418994784355164
-0.69990307092666626 0.103426471352577209 -0.247247397899627686
0.11266983300447464 -0.258584976196289062 -0.0992020368576049805
-0.477498263120651245 0.277716577053070068 -0.393102467060089111
0.146511569619178772 0.509877145290374756 0.401245683431625366
-0.0250525493174791336 -0.167259633541107178 0.311579644680023193
0.232967212796211243 -0.118707694113254547 -0.15654166042804718
0.442914247512817383 -0.016628265380859375 0.0599020756781101227
-0.353296488523483276 0.521589517593383789 -0.341802060604095459
0.186603724956512451 0.185135349631309509 -0.00596236716955900192
0.00747134210541844368 0.278723806142807007 -0.176554381847381592
0.011876237578690052 0.352285444736480713 -0.500988245010375977
0.164010211825370789 0.0977450981736183167 0.19325023889541626
-0.0409931689500808716 -0.254663467407226562 0.357292592525482178
-0.0371189266443252563 0.724346458911895752 -0.50328904390335083
0.0452121570706367493 0.110747918486595154 -0.346347391605377197
-0.0638262555003166199 0.159103751182556152 0.582304120063781738
0.265673220157623291 0.116765081882476807 -0.0253873448818922043
0.412752419710159302 -0.202720493078231812 0.387477457523345947
0.215698540210723877 0.415918081998825073 0.445778578519821167
0.427487373352050781 0.00908348243683576584 0.0685440003871917725
-0.30351567268371582 0.359914153814315796 -0.442916721105575562
-0.194123238325119019 0.287817776203155518 -0.423804789781570435
-0.00660309474915266037 0.0673476383090019226 0.0139488000422716141
-0.0850978270173072815 0.671174526214599609 -0.561256706714630127
0.414637446403503418 -0.272864818572998047 0.427830934524536133
-0.16421981155872345 0.595456600189208984 -0.683788776397705078
0.0814466774463653564 0.358595341444015503 -0.360264122486114502
0.220802336931228638 0.295160830020904541 -0.236946567893028259
0.28443261981010437 -0.0383512936532497406 -0.209500506520271301
0.463200896978378296 -0.299906134605407715 0.321367383003234863
0.462289571762084961 0.0281256623566150665 0.15071442723274231
0.396116852760314941 0.117064781486988068 0.079977773129940033
0.0456420481204986572 0.550658881664276123 0.284164726734161377
0.0178709905594587326 0.290092885494232178 -0.108685560524463654
-0.019092148169875145 0.470059096813201904 -0.347611069679260254
0.238214507699012756 0.42958483099937439 -0.0320384316146373749
0.246169611811637878 0.287611782550811768 0.212107643485069275
-0.23845142126083374 0.562804043292999268 -0.244437277317047119
0.0801228657364845276 0.36300995945930481 -0.396606564521789551
0.427195131778717041 -0.0698244795203208923 0.567689239978790283
0.34172859787940979 0.345132112503051758 0.341649770736694336
-0.0663383901119232178 -0.206443145871162415 0.320500969886779785
0.137578293681144714 0.356670260429382324 -0.344830930233001709
-0.482674092054367065 0.362366139888763428 -0.402653902769088745
-0.303931564092636108 0.524668753147125244 -0.656341254711151123
-0.131460070610046387 0.111425906419754028 0.621697723865509033
0.0877958312630653381 0.142196133732795715 -0.515670180320739746
0.0456930622458457947 0.327430814504623413 0.475106030702590942
-0.0815915763378143311 0.45482027530670166 -0.65335923433303833
-0.100529879331588745 0.330699563026428223 -0.27753061056137085
-0.0353023260831832886 0.363408446311950684 -0.591196298599243164
0.399247676134109497 0.0526172444224357605 0.0447089746594429016
-0.125707060098648071 0.517764925956726074 -0.490330964326858521
-0.0147756356745958328 0.308406293392181396 -0.160810947418212891
-0.14672379195690155 0.568420171737670898 -0.244211107492446899
-0.202140763401985168 0.710882961750030518 -0.631389498710632324
-0.52374267578125 0.248065158724784851 -0.337179630994796753
-0.0122526371851563454 0.124292574822902679 -0.418312788009643555
0.255308598279953003 -0.0978838205337524414 0.567751705646514893
0.297357380390167236 -0.110556550323963165 -0.183727666735649109
-0.0844875499606132507 0.660313725471496582 -0.587512075901031494
-0.0167687870562076569 -0.40148589015007019 -0.0255936421453952789
-0.137215256690979004 0.420668154954910278 -0.150647878646850586
-0.0888836085796356201 0.478204429149627686 -0.454590886831283569
0.0367432199418544769 0.48431771993637085 -0.314239203929901123
0.25785517692565918 -0.112226314842700958 0.589034616947174072
-0.244960933923721313 0.383790910243988037 -0.708105802536010742
-0.0746813267469406128 0.471132725477218628 -0.0395962521433830261
0.350411355495452881 0.0934277176856994629 0.137756854295730591
-0.103796213865280151 0.532743692398071289 -0.418095618486404419
0.0649086311459541321 0.49852260947227478 -0.204987779259681702
0.113165132701396942 0.551016569137573242 0.344036459922790527
0.293294548988342285 -0.227829113602638245 0.68158721923828125
0.363903999328613281 0.451710700988769531 0.497563719749450684
0.151694968342781067 0.535858213901519775 0.387406885623931885
0.215521544218063354 0.309917628765106201 -0.255986630916595459
-0.167898193001747131 0.188749387860298157 -0.561710596084594727
0.00119148311205208302 -0.419905006885528564 -0.0272145383059978485
0.0297612063586711884 0.069952353835105896 -0.475758522748947144
0.478897541761398315 -0.12795528769493103 -0.155765742063522339
-0.168250828981399536 0.746416926383972168 -0.602583587169647217
0.362307518720626831 -0.00940030068159103394 -0.308730512857437134
0.00577222090214490891 0.488188952207565308 -0.337293714284896851
0.179978266358375549 0.648110628128051758 0.140798106789588928
-0.0764343291521072388 0.21807435154914856 0.582066595554351807
-0.319737017154693604 0.386842399835586548 -0.495679229497909546
-0.408218473196029663 0.516936957836151123 -0.507028698921203613
0.204817593097686768 0.445568323135375977 0.361401140689849854
-0.124982766807079315 0.166214287281036377 -0.500333666801452637
-0.296679884195327759 0.38692203164100647 -0.498413711786270142
0.205896839499473572 0.389414131641387939 0.340268880128860474
0.219459250569343567 0.605530321598052979 0.321502447128295898
0.327451705932617188 0.131800428032875061 0.134882733225822449
-0.271128267049789429 0.291718155145645142 -0.568892061710357666
0.0298808813095092773 0.341937094926834106 -0.120608493685722351
0.181866973638534546 0.427222132682800293 0.480797410011291504
-0.0976804718375205994 0.416706830263137817 -0.675440013408660889
-0.0793218687176704407 0.247418686747550964 -0.341293990612030029
0.164905324578285217 0.421903640031814575 0.380928456783294678
0.0866002663969993591 0.51785743236541748 -0.132648691534996033
0.327330350875854492 -0.104942411184310913 0.544198095798492432
0.264158189296722412 0.562173962593078613 0.35899767279624939
-0.0563829913735389709 0.165391534566879272 -0.422919571399688721
-0.146344959735870361 0.303243517875671387 -0.333526164293289185
-0.325478225946426392 0.337096512317657471 -0.589203596115112305
-0.0535014979541301727 -0.072381235659122467 0.180909916758537292
0.121054135262966156 0.466085165739059448 -0.189613908529281616
-0.0851955562829971313 0.0978514552116394043 -0.564561545848846436
0.25536036491394043 -0.0425323694944381714 -0.302968502044677734
-0.168379276990890503 0.15669742226600647 -0.586796343326568604
-0.100032709538936615 0.515799939632415771 -0.169292613863945007
-0.0483891777694225311 0.181131824851036072 -0.37032771110534668
-0.336993545293807983 0.504251182079315186 -0.356738001108169556
-0.0243444982916116714 0.444508165121078491 0.0447289459407329559
0.190420955419540405 0.681243717670440674 0.207273572683334351
0.352833420038223267 -0.198664560914039612 0.680756926536560059
0.177255377173423767 0.278077274560928345 -0.494255334138870239
0.26968875527381897 0.0887275338172912598 0.0550990141928195953
0.235669717192649841 0.176645785570144653 -0.449971795082092285
0.343811482191085815 -0.121664583683013916 0.409634381532669067
0.142590686678886414 0.437199681997299194 0.450168579816818237
0.0323647856712341309 0.365693420171737671 0.0093375006690621376
0.177458137273788452 0.0519934743642807007 -0.259206235408782959
0.386246860027313232 0.122738286852836609 0.220186993479728699
0.255581080913543701 0.455441296100616455 0.466560453176498413
-0.556681454181671143 0.208577752113342285 -0.311677366495132446
0.166641935706138611 0.625851333141326904 0.157311394810676575
0.17669329047203064 0.51292341947555542 0.3987693190574646
0.128767266869544983 0.618970870971679688 0.167778626084327698
-0.140579149127006531 0.456852227449417114 -0.716860294342041016
0.396528691053390503 -0.151318520307540894 -0.118658646941184998
0.455307990312576294 -0.274388313293457031 0.344644218683242798
0.335847645998001099 -0.0532054118812084198 -0.195473194122314453
0.0694895535707473755 0.415511161088943481 -0.550520777702331543
0.198220610618591309 0.353871613740921021 0.211483389139175415
-0.0337563008069992065 0.437024950981140137 -0.454063475131988525
-0.285565495491027832 0.627697408199310303 -0.421783596277236938
0.446081191301345825 -0.118844829499721527 0.590103983879089355
0.253879308700561523 0.407156288623809814 0.40079769492149353
0.0602425113320350647 -0.169171392917633057 0.238526150584220886
0.195872575044631958 0.39069133996963501 0.250163376331329346
-0.0685091093182563782 0.322337567806243896 -0.214629530906677246
0.410164117813110352 -0.0596449263393878937 -0.0379560478031635284
-0.687123358249664307 0.0498030409216880798 -0.262372761964797974
-0.152664020657539368 0.445124983787536621 -0.161464467644691467
-0.0777368023991584778 0.516916394233703613 -0.139813721179962158
0.156604498624801636 0.279586076736450195 -0.385433286428451538
0.374770045280456543 0.325207442045211792 0.38316112756729126
0.0317822173237800598 0.682004332542419434 -0.486305952072143555
-0.210506394505500793 0.366884827613830566 -0.343417167663574219
0.0801636949181556702 0.27768021821975708 -0.52192002534866333
0.452051132917404175 -0.234580397605895996 0.416834533214569092
-0.0713385716080665588 -0.193741217255592346 0.353703498840332031
0.117482297122478485 0.416288286447525024 -0.504522919654846191
-0.353606075048446655 0.492776691913604736 -0.421278029680252075
0.0110252425074577332 0.438614875078201294 -0.381565064191818237
0.150048688054084778 0.439645946025848389 0.272814333438873291
0.235364258289337158 0.393199831247329712 -0.131849184632301331
0.357924968004226685 0.346268653869628906 0.381331473588943481
0.396269470453262329 -0.0939578190445899963 0.540786683559417725
0.146857932209968567 0.329426288604736328 -0.345503568649291992
0.137221336364746094 0.212909102439880371 -0.558790683746337891
0.100418493151664734 0.442535609006881714 -0.520614445209503174
-0.0646905526518821716 0.480844110250473022 -0.63998490571975708
0.189682260155677795 0.116298340260982513 -0.132299900054931641
-0.120723702013492584 0.463333070278167725 -0.520552337169647217
0.150895982980728149 0.591919422149658203 0.0165212210267782211
0.311570316553115845 0.0880081877112388611 0.117017187178134918
0.36045539379119873 -0.309610694646835327 0.276629835367202759
-0.188897743821144104 0.306288063526153564 -0.693747878074645996
-0.251172333955764771 0.503913700580596924 -0.24386364221572876
-0.106779418885707855 0.567940175533294678 -0.351039856672286987
-0.0167342331260442734 0.233797505497932434 -0.631872832775115967
0.443370193243026733 -0.331020832061767578 0.377560645341873169
-0.0659321323037147522 0.286053687334060669 -0.69597393274307251
0.114920169115066528 -0.047681909054517746 0.179393649101257324
0.376344293355941772 -0.121175289154052734 0.46878206729888916
0.0723368823528289795 0.0333607159554958344 -0.43534165620803833
0.0665643289685249329 -0.391601204872131348 -0.0282599348574876785
0.0568925440311431885 0.576444387435913086 -0.114737682044506073
0.379533499479293823 0.0577748455107212067 0.0851793438196182251
-0.115607209503650665 0.738495349884033203 -0.581454336643218994
0.338940978050231934 0.366218537092208862 0.545178592205047607
0.437345683574676514 -0.165549859404563904 0.589000940322875977
0.137913286685943604 0.272971183061599731 -0.544618129730224609
0.0657750815153121948 0.353354215621948242 -0.412305057048797607
0.405102074146270752 -0.158590719103813171 0.528656721115112305
-0.0727533102035522461 0.725770652294158936 -0.527034878730773926
-0.408700138330459595 0.361282438039779663 -0.452188283205032349
0.341143757104873657 -0.318054467439651489 0.24852558970451355
0.0370461232960224152 0.245874688029289246 -0.155801787972450256
0.127059444785118103 0.57679295539855957 -0.0460694581270217896
0.3083324134349823 -0.262119948863983154 0.68494182825088501
0.385494738817214966 0.425699979066848755 0.520379960536956787
-0.125167995691299438 -0.221817269921302795 0.357575684785842896
0.0841966196894645691 0.0986108556389808655 -0.302312850952148438
0.0463438034057617188 0.292111128568649292 0.510838687419891357
-0.337643206119537354 0.370250433683395386 -0.521049559116363525
-0.207061022520065308 0.578107953071594238 -0.70619356632232666
0.328230530023574829 0.422087728977203369 0.42653203010559082
0.367933779954910278 -0.166413784027099609 -0.188002526760101318
0.44578021764755249 0.0991731435060501099 0.219361215829849243
-0.213605731725692749 0.496184080839157104 -0.593208372592926025
-0.0390717387199401855 0.457759171724319458 -0.427064687013626099
-0.133397534489631653 0.230731815099716187 -0.648366034030914307
-0.0684977397322654724 -0.191945463418960571 0.287723571062088013
0.163367912173271179 0.429429858922958374 -0.435556530952453613
-0.30988273024559021 0.416346639394760132 -0.457897692918777466
0.0402573421597480774 0.533557891845703125 0.159988850355148315
0.23576045036315918 0.0823684781789779663 -0.455450087785720825
-0.294485211372375488 0.643024861812591553 -0.592830359935760498
0.256629049777984619 0.379314512014389038 0.358164191246032715
0.272643774747848511 0.515097439289093018 0.400318533182144165
0.104909271001815796 0.591076195240020752 0.0610844343900680542
0.459535390138626099 -0.249706283211708069 0.472146302461624146
0.203502625226974487 0.471137076616287231 0.426296651363372803
0.212874248623847961 -0.0693606287240982056 -0.263305962085723877
0.262859076261520386 -0.411893218755722046 0.334989488124847412
-0.0859120637178421021 0.293259114027023315 -0.272820204496383667
0.330274522304534912 0.0162971839308738708 -0.335663527250289917
0.147344544529914856 -0.210367247462272644 0.625160753726959229
-0.21562473475933075 0.295025914907455444 -0.476377367973327637
-0.203801244497299194 0.64001995325088501 -0.702590227127075195
-0.20670635998249054 0.54780125617980957 -0.516822695732116699
0.370994210243225098 -0.490681320428848267 0.448049396276473999
-0.328416407108306885 0.440529078245162964 -0.672662317752838135
0.174244776368141174 0.168418467044830322 -0.528948664665222168
0.283424466848373413 0.0883976593613624573 -0.00335004157386720181
-0.29465135931968689 0.491514891386032104 -0.320102393627166748
0.0783746838569641113 0.362593531608581543 -0.552845180034637451
0.0347158350050449371 0.35221448540687561 -0.605925619602203369
-0.232703059911727905 0.625943958759307861 -0.350923508405685425
0.0389697849750518799 0.35462525486946106 -0.575174331665039062
0.0648193284869194031 0.329323321580886841 -0.461881071329116821
-0.110511839389801025 0.286120116710662842 -0.680903971195220947
0.306688368320465088 0.258612304925918579 0.263419568538665771
0.340083122253417969 -0.240911751985549927 0.330348730087280273
0.430237799882888794 -0.0680930092930793762 -0.0882637649774551392
0.150686457753181458 0.185552105307579041 -0.0934152454137802124
-0.27151063084602356 0.314119249582290649 -0.499911099672317505
-0.219847545027732849 0.288949638605117798 -0.683276712894439697
-0.119138076901435852 0.608565032482147217 -0.628618299961090088
0.0474514029920101166 0.533676564693450928 -0.473794311285018921
0.182426288723945618 0.273416072130203247 -0.497860729694366455
0.479183554649353027 -0.0989007651805877686 -0.13735431432723999
0.399605035781860352 0.14843885600566864 0.0498244538903236389
-0.129541978240013123 0.586047589778900146 -0.234483197331428528
-0.175811484456062317 0.424431771039962769 -0.753792822360992432
-0.0342965908348560333 0.113433755934238434 -0.543002307415008545
-0.640861392021179199 0.130469828844070435 -0.264326423406600952
-0.380192399024963379 0.473834365606307983 -0.608768701553344727
0.248139724135398865 0.0803506001830101013 -0.0815903022885322571
0.137456372380256653 0.47724384069442749 -0.13311631977558136
-0.0105615574866533279 0.621960818767547607 -0.524714887142181396
-0.0868733972311019897 -0.238828539848327637 0.321589201688766479
0.0078397383913397789 0.406072348356246948 0.0399625636637210846
0.0787995904684066772 0.574976325035095215 0.278702586889266968
0.0869833827018737793 0.437205523252487183 0.2225445955991745
-0.367398679256439209 0.430349558591842651 -0.531184971332550049
-0.629693567752838135 0.186126440763473511 -0.273928672075271606
-0.125151142477989197 0.57972341775894165 -0.351669967174530029
0.377895146608352661 0.290751546621322632 0.303946644067764282
0.226742938160896301 0.392531871795654297 0.501821696758270264
0.46096116304397583 -0.0522055663168430328 0.0205364655703306198
0.362606972455978394 0.323148518800735474 0.27090144157409668
0.476447492837905884 -0.265359669923782349 0.453242301940917969
-0.277739882469177246 0.576330482959747314 -0.631453275680541992
0.368087798357009888 -0.450648337602615356 0.421582460403442383
0.0298541784286499023 0.588346600532531738 -0.536370337009429932
0.482679247856140137 -0.388366758823394775 0.33580935001373291
-0.0437277667224407196 0.643580734729766846 -0.553188979625701904
-0.0316248945891857147 0.498645246028900146 -0.585069656372070312
-0.640590667724609375 0.187495499849319458 -0.304699927568435669
-0.06496458500623703 0.458806693553924561 -0.470274835824966431
0.362682372331619263 -0.0801315680146217346 -0.13853609561920166
-0.159514904022216797 0.424273490905761719 -0.633781790733337402
0.0150736374780535698 0.297083765268325806 -0.0560440421104431152
-0.337905973196029663 0.439727306365966797 -0.460079550743103027
0.27784457802772522 -0.0348171107470989227 -0.206318885087966919
-0.000698159798048436642 0.38570442795753479 0.0287547986954450607
-0.120867788791656494 0.343940556049346924 -0.688072860240936279
0.189882948994636536 0.290999442338943481 0.146644696593284607
-0.226596668362617493 0.346497029066085815 -0.706880569458007812
-0.0576385892927646637 0.385373175144195557 -0.573781013488769531
0.516907989978790283 -0.116962552070617676 0.0135802775621414185
0.108671121299266815 0.590939044952392578 0.32845035195350647
0.0334686078131198883 0.265579879283905029 -0.572590887546539307
-0.353805482387542725 0.336767137050628662 -0.603893756866455078
0.299466401338577271 0.302389085292816162 0.302244275808334351
0.193824723362922668 0.657209634780883789 0.167875424027442932
0.473338186740875244 -0.137019231915473938 -0.0458370707929134369
0.0876270309090614319 0.29446721076965332 -0.567477881908416748
0.401447564363479614 0.23326505720615387 0.222312629222869873
-0.0637081116437911987 -0.195237204432487488 0.434435397386550903
-0.162880659103393555 0.647998273372650146 -0.335268884897232056
0.402238339185714722 -0.0887675806879997253 -0.139348253607749939
0.027680419385433197 0.499847203493118286 -0.532161593437194824
0.226318925619125366 0.452708572149276733 -0.0519158653914928436
0.390467554330825806 0.321358144283294678 0.361861199140548706
-0.207406356930732727 0.47125929594039917 -0.244680941104888916
0.16426907479763031 0.406702280044555664 0.244148388504981995
0.0339012965559959412 -0.0402979254722595215 0.293700277805328369
0.0944742113351821899 0.283581644296646118 -0.00811894889920949936
0.177487105131149292 0.142790272831916809 -0.0727307796478271484
-0.196798175573348999 0.088977225124835968 0.66916358470916748
0.101153217256069183 0.495728224515914917 -0.473582863807678223
0.336460679769515991 0.427416741847991943 0.481747210025787354
0.441910058259963989 0.0604652091860771179 0.0475999191403388977
0.0718830078840255737 0.231231123208999634 -0.117815539240837097
0.179484233260154724 0.621350526809692383 0.108590386807918549
-0.140294507145881653 0.617822825908660889 -0.375405669212341309
-0.105457857251167297 0.550956189632415771 -0.397104978561401367
-0.0628429800271987915 0.513514339923858643 -0.62010115385055542
-0.185014694929122925 0.235031560063362122 -0.491630643606185913
-0.662407577037811279 0.161303281784057617 -0.275923162698745728
0.139353543519973755 0.0830600261688232422 -0.227929979562759399
-0.260776937007904053 0.483705431222915649 -0.291477829217910767
-0.00966984033584594727 0.332883119583129883 -0.560451269149780273
-0.690384566783905029 0.0979554280638694763 -0.219942301511764526
0.333014070987701416 -0.0418284311890602112 0.541418790817260742
-0.315922081470489502 0.567643225193023682 -0.665426790714263916
0.134220913052558899 0.37286028265953064 -0.462963223457336426
0.23392564058303833 0.210282251238822937 0.0809307917952537537
-0.367140889167785645 0.406603842973709106 -0.650778353214263916
-0.0325698703527450562 0.298081785440444946 -0.206896379590034485
0.421621114015579224 0.0561964437365531921 0.0487480498850345612
0.318840742111206055 -0.0206857193261384964 -0.112502045929431915
0.230750098824501038 0.236297190189361572 -0.455405682325363159
0.181646421551704407 -0.223873734474182129 -0.144659534096717834
0.314703851938247681 0.0980940908193588257 -0.400877416133880615
0.480940937995910645 0.0553594082593917847 0.167952269315719604
-0.177215740084648132 0.675386250019073486 -0.664849996566772461
-0.0749441161751747131 0.58928447961807251 -0.324901193380355835
0.342283934354782104 -0.219869792461395264 0.306042194366455078
0.0773904547095298767 0.535853385925292969 0.365939706563949585
-0.105027168989181519 0.414558261632919312 -0.713503777980804443
0.14437006413936615 0.555798351764678955 0.362363666296005249
0.0408653654158115387 0.248206242918968201 -0.647346377372741699
-0.227883726358413696 0.199738442897796631 -0.627904355525970459
0.0079443957656621933 -0.157111763954162598 0.23601551353931427
-0.304600954055786133 0.463661938905715942 -0.314719021320343018
0.24373076856136322 -0.0556673146784305573 -0.297019153833389282
0.00328222126699984074 0.152807146310806274 -0.550539135932922363
-0.0961520597338676453 0.129475876688957214 -0.516489088535308838
0.139873415231704712 0.61861717700958252 0.0751892104744911194
-0.32791629433631897 0.614769697189331055 -0.473810881376266479
0.417231142520904541 -0.300858944654464722 0.31095549464225769
-0.72369307279586792 0.0772387236356735229 -0.257968425750732422
0.0167346205562353134 -0.427994459867477417 -0.0293719209730625153
0.0826364085078239441 0.318854391574859619 -0.569917380809783936
-0.106183722615242004 -0.181939661502838135 0.404751121997833252
-0.127945110201835632 0.437409967184066772 -0.110163941979408264
-0.191740319132804871 0.0752136930823326111 0.626262187957763672
0.0540371127426624298 -0.0374730266630649567 0.31302642822265625
0.328812122344970703 -0.201735138893127441 0.401274830102920532
0.0116586629301309586 0.105851203203201294 -0.401603430509567261
0.133557051420211792 0.438829630613327026 0.443798929452896118
0.224445238709449768 0.337494254112243652 -0.223482176661491394
-0.0656136050820350647 0.0192635226994752884 0.210848540067672729
0.221054792404174805 0.284308135509490967 -0.287620484828948975
0.476275920867919922 -0.34939303994178772 0.347509860992431641
0.20162452757358551 0.284299612045288086 -0.45075562596321106
-0.0173799879848957062 0.411131739616394043 -0.470538616180419922
0.390108674764633179 0.352203905582427979 0.400559723377227783
0.429343819618225098 0.00944552011787891388 -0.000736344780307263136
-0.146910712122917175 0.340958207845687866 -0.306059539318084717
-0.400439202785491943 0.395413488149642944 -0.566753566265106201
0.054826829582452774 0.168037310242652893 -0.543282032012939453
0.0785499513149261475 -0.0907609760761260986 0.22542041540145874
-0.177448570728302002 0.481065839529037476 -0.591085433959960938
0.0165890529751777649 0.436106771230697632 -0.606165230274200439
0.125700488686561584 0.417258262634277344 0.213752478361129761
-0.253635257482528687 0.2522086501121521 -0.666178703308105469
-0.077105008065700531 0.216468796133995056 -0.382706820964813232
-0.0773092582821846008 0.559167683124542236 -0.60093003511428833
0.101152494549751282 0.0246221832931041718 -0.352376759052276611
0.0489012487232685089 0.536453723907470703 0.217816963791847229
-0.370504409074783325 0.560202300548553467 -0.541409075260162354
-0.196252405643463135 0.435665130615234375 -0.657163679599761963
-0.376051247119903564 0.412124454975128174 -0.492212295532226562
0.12522965669631958 0.58649742603302002 0.0903172194957733154
0.341377735137939453 0.328997105360031128 0.413468480110168457
0.294704943895339966 -0.0523583553731441498 -0.149030879139900208
