ply
format ascii 1.0
element vertex 717
property float x
property float y
property float z
end_header
0.198424503207206726 -0.225858390331268311 -0.089278101921081543
0.0574407130479812622 -0.222235575318336487 -0.105069667100906372
0.0425977855920791626 -0.123738542199134827 -0.25154915452003479
0.21016867458820343 0.0846268236637115479 -0.0718335211277008057
0.136262997984886169 0.234726071357727051 -0.0425539538264274597
-0.141969189047813416 -0.216677457094192505 -0.19696509838104248
-0.058481317013502121 0.0471064560115337372 -0.00559102930128574371
0.0468352586030960083 -0.147589966654777527 -0.221157804131507874
0.00521938316524028778 0.406763732433319092 -0.0103764273226261139
-0.105315230786800385 -0.236286595463752747 -0.196622908115386963
0.232829421758651733 0.155864819884300232 -0.0743728503584861755
-0.202538043260574341 0.00160250754561275244 -0.244466736912727356
0.00435953401029109955 0.598347008228302002 -0.0584403574466705322
0.155686140060424805 0.0130484364926815033 0.207268372178077698
-0.212461709976196289 0.0464924536645412445 -0.181144863367080688
0.074496053159236908 0.223141714930534363 -0.0194267798215150833
0.00427642557770013809 0.490653127431869507 -0.125500872731208801
0.214634165167808533 0.0478867776691913605 0.108933299779891968
-0.0140111278742551804 -0.190073341131210327 -0.223272114992141724
-0.214151203632354736 -0.152478307485580444 -0.0697276145219802856
-0.13592161238193512 0.0648663714528083801 -0.212244123220443726
0.072381533682346344 0.582504153251647949 0.0237953197211027145
0.213560715317726135 -0.252806216478347778 0.000446642807219177485
-0.00286068371497094631 -0.190181940793991089 0.0138059128075838089
0.0789347290992736816 -0.186349734663963318 0.204250961542129517
0.0963782370090484619 -0.207429215312004089 -0.0162531696259975433
-0.0790301188826560974 -0.203476026654243469 -0.100324004888534546
-0.23073190450668335 -0.256742894649505615 -0.077135622501373291
-0.0736788734793663025 -0.187803924083709717 -0.231244906783103943
-0.201324462890625 -0.0548930652439594269 -0.234819397330284119
0.139300227165222168 -0.20216841995716095 0.165210530161857605
-0.0807739272713661194 -0.216428399085998535 -0.126346513628959656
-0.0309624914079904556 -0.0458742603659629822 -0.0468699634075164795
0.0344458259642124176 0.466394662857055664 -0.0981290042400360107
0.207866698503494263 -0.167297184467315674 0.00708792032673954964
0.120942950248718262 -0.207251518964767456 0.174760311841964722
0.234181523323059082 0.0169794410467147827 0.142481952905654907
-0.219571083784103394 -0.0833319351077079773 -0.162001609802246094
0.212699964642524719 0.165314406156539917 0.115758657455444336
-0.00434393249452114105 -0.161431610584259033 -0.0194612536579370499
0.228743702173233032 -0.241049051284790039 0.039549507200717926
0.0632074251770973206 0.296671450138092041 0.0262132156640291214
-0.058478429913520813 0.0495097525417804718 -0.246431142091751099
-0.171801984310150146 0.0848440229892730713 -0.233333110809326172
0.234633445739746094 0.010300779715180397 -0.0545238032937049866
-0.0127438707277178764 -0.198604822158813477 -0.0790892615914344788
-0.228595733642578125 0.0702051669359207153 -0.16405804455280304
0.0396759733557701111 0.229838669300079346 -0.146327987313270569
-0.106986053287982941 -0.223826363682746887 -0.24984326958656311
0.195444732904434204 -0.185868397355079651 -0.0161156896501779556
0.0666974633932113647 -0.21677766740322113 0.00201570941135287285
-0.0811093226075172424 -0.203192546963691711 -0.227956429123878479
0.0221429355442523956 0.523866057395935059 -0.109546251595020294
0.108313150703907013 -0.035991232842206955 -0.238655388355255127
-0.119112245738506317 -0.213980183005332947 0.0182720553129911423
0.120705701410770416 0.147432059049606323 -0.231590956449508667
0.201618984341621399 -0.24966748058795929 -0.0824808627367019653
0.208127915859222412 -0.126908302307128906 -0.206070035696029663
-0.105751201510429382 -0.205989614129066467 -0.0217054449021816254
0.215182036161422729 0.0726640522480010986 0.178338631987571716
-0.085799194872379303 -0.215940192341804504 -0.105271100997924805
0.0083636334165930748 -0.12120143324136734 0.0354741215705871582
0.016917182132601738 -0.216746538877487183 -0.235452145338058472
-0.0978061780333518982 -0.206451103091239929 -0.206335410475730896
0.228053748607635498 -0.0461468324065208435 0.175932213664054871
-0.0801557824015617371 0.297721505165100098 -0.0353232063353061676
0.226381033658981323 -0.195408940315246582 -0.13795335590839386
0.199408099055290222 0.117107801139354706 -0.179061844944953918
0.114252351224422455 -0.0291688069701194763 -0.220269203186035156
-0.211140736937522888 -0.233854725956916809 -0.179826885461807251
0.213343039155006409 -0.0667563974857330322 -0.164547964930534363
-0.0614673346281051636 0.148928359150886536 -0.235747963190078735
-0.228744745254516602 -0.0574904978275299072 -0.147887259721755981
0.0156071195378899574 0.330682575702667236 -0.0740003287792205811
0.0748473629355430603 0.582083702087402344 0.0302435979247093201
0.167476549744606018 -0.0124532487243413925 -0.228779405355453491
0.214591622352600098 0.160656839609146118 -0.0994039550423622131
0.226784750819206238 0.0154154570773243904 -0.113610699772834778
0.164243340492248535 -0.0717279240489006042 -0.222837388515472412
-0.195537909865379333 -0.21279868483543396 -0.116924554109573364
0.137213721871376038 -0.0750684440135955811 -0.201121389865875244
-0.0745387151837348938 -0.217301532626152039 0.0237950067967176437
0.043770667165517807 -0.202103182673454285 0.146668002009391785
-0.0584972091019153595 0.221020787954330444 0.0430675297975540161
0.234974652528762817 -0.175447896122932434 -0.0627724230289459229
0.0890798568725585938 0.661557257175445557 0.0493276901543140411
0.226016014814376831 -0.194900378584861755 0.05313115194439888
0.178406059741973877 -0.201989457011222839 -0.0537585727870464325
0.012920391745865345 -0.0394679568707942963 0.0379906110465526581
0.0157186966389417648 -0.223203107714653015 0.0473789870738983154
-0.0222604479640722275 0.296870410442352295 -0.0354771502315998077
0.0596738792955875397 -0.256470799446105957 -0.222071006894111633
0.142159387469291687 -0.20373961329460144 -0.210304677486419678
0.142630189657211304 -0.213818743824958801 0.0537532232701778412
-0.233440890908241272 0.0273972135037183762 -0.198329150676727295
0.0378766357898712158 -0.0789839401841163635 -0.224216893315315247
-0.0405177511274814606 0.120790116488933563 -0.10761716216802597
0.233692124485969543 0.0266569647938013077 -0.259408771991729736
0.23931555449962616 0.0191131867468357086 0.207008987665176392
0.0820947811007499695 0.273589432239532471 0.097931303083896637
0.227597951889038086 -0.0903275460004806519 0.0794658586382865906
0.182243809103965759 -0.207755282521247864 0.106678709387779236
0.0217032749205827713 -0.125788107514381409 -0.210524946451187134
0.210074007511138916 0.0728345438838005066 0.219614028930664062
0.144231528043746948 -0.0564021803438663483 0.220566034317016602
0.0768286585807800293 -0.14072023332118988 -0.247779354453086853
-0.187946274876594543 -0.116454124450683594 -0.230685815215110779
-0.0144335273653268814 -0.0786277279257774353 -0.230174392461776733
0.169080808758735657 -0.019498087465763092 -0.220453307032585144
-0.101842917501926422 -0.210708826780319214 -0.228868171572685242
-0.0658599883317947388 -0.201123699545860291 -0.198490723967552185
0.21147097647190094 -0.04953007772564888 -0.217092573642730713
-0.0373453199863433838 -0.0589139051735401154 0.0777901411056518555
-0.050325147807598114 0.207922771573066711 -0.12768341600894928
0.20925748348236084 -0.0904116109013557434 0.0675651431083679199
0.146629661321640015 -0.161866679787635803 -0.210681557655334473
0.238429546356201172 -0.151071295142173767 0.175940975546836853
0.00786835234612226486 0.0627622082829475403 0.00405377242714166641
0.196799084544181824 -0.206302881240844727 -0.0954212546348571777
-0.222986921668052673 -0.243762776255607605 -0.107489705085754395
-0.164334774017333984 -0.195921346545219421 -0.247042268514633179
0.210211202502250671 -0.203501850366592407 0.12484394758939743
-0.0808688029646873474 -0.21950232982635498 0.0387126654386520386
0.125418305397033691 -0.0587720200419425964 -0.232998311519622803
-0.188319727778434753 -0.2097272127866745 -0.0513552986085414886
-0.0508506409823894501 0.104631438851356506 -0.0723381564021110535
0.21924293041229248 -0.0970104783773422241 0.0268109701573848724
0.0242850948125123978 0.00648105982691049576 -0.21650347113609314
-0.0998687893152236938 -0.272556453943252563 -0.244799897074699402
-0.219873473048210144 -0.220007911324501038 -0.174318939447402954
0.0138675505295395851 0.0928837954998016357 0.055338885635137558
0.130553185939788818 -0.193708151578903198 -0.101153962314128876
0.168497920036315918 -0.0536009669303894043 -0.249875128269195557
0.214021205902099609 -0.139999017119407654 0.0782562494277954102
-0.0118214031681418419 0.0974195376038551331 0.00911244936287403107
0.245492592453956604 -0.0361007340252399445 0.148173511028289795
0.157198786735534668 0.2976875901222229 -0.0329996496438980103
0.0376890450716018677 0.17319139838218689 0.0263543594628572464
0.2261190265417099 0.0372369252145290375 -0.129015296697616577
0.0520988069474697113 -0.213208794593811035 -0.174104496836662292
0.180535361170768738 -0.0164981111884117126 -0.23605579137802124
-0.208396032452583313 -0.0631500706076622009 -0.236928582191467285
-0.219770938158035278 -0.0970276370644569397 -0.126366287469863892
-0.0773739442229270935 -0.0628719702363014221 -0.210841134190559387
0.201872259378433228 -0.232550278306007385 -0.0325094945728778839
0.0907718762755393982 0.139005869626998901 -0.236033573746681213
0.212408006191253662 -0.0399686507880687714 -0.180586725473403931
0.0747049897909164429 0.317415386438369751 0.123712867498397827
-0.00386577984318137169 -0.209774672985076904 -0.222745895385742188
0.236534863710403442 0.074543192982673645 -0.133510485291481018
0.161394447088241577 -0.200903221964836121 0.0793998539447784424
0.0252732504159212112 0.114482849836349487 -0.0502959787845611572
0.024735746905207634 0.315114915370941162 0.0891843587160110474
-0.19921053946018219 -0.107592403888702393 -0.228656768798828125
0.208947479724884033 -0.0591293163597583771 0.0688709914684295654
-0.0295826978981494904 -0.18866613507270813 0.0696178823709487915
0.20911446213722229 -0.240864142775535583 0.0612985678017139435
0.0936468616127967834 -0.1400022953748703 0.221566364169120789
0.219520360231399536 0.0705433040857315063 -0.092532724142074585
0.0954263061285018921 -0.129267603158950806 0.231386095285415649
-0.237735778093338013 -0.131533965468406677 -0.0678274407982826233
0.19628220796585083 -0.218963250517845154 -0.146695464849472046
0.017850855365395546 0.372045934200286865 -0.103111498057842255
-0.0636315718293190002 0.102033905684947968 -0.232694819569587708
-0.0337194837629795074 0.265011519193649292 -0.0356222726404666901
0.216494396328926086 0.0616348832845687866 0.165137425065040588
0.0467473380267620087 0.187688395380973816 -0.0118828713893890381
-0.212598279118537903 -0.264684170484542847 -0.0437064692378044128
-0.230285793542861938 -0.144988670945167542 -0.150737538933753967
-0.031504407525062561 -0.0291578099131584167 0.00309069268405437469
0.112254805862903595 0.456438452005386353 0.134995594620704651
0.237212836742401123 0.0259283501654863358 -0.166676104068756104
0.0411690175533294678 -0.190950721502304077 -0.228376105427742004
0.0691970959305763245 -0.215347543358802795 0.0469854287803173065
0.0731291919946670532 0.366239041090011597 -0.0346841998398303986
0.233935385942459106 -0.0389974750578403473 -0.000921636121347546577
0.177158668637275696 0.0829373598098754883 0.23003387451171875
-0.020460180938243866 0.120692998170852661 -0.030965171754360199
0.0563987195491790771 0.42017596960067749 0.00831564236432313919
0.231197386980056763 -0.102567687630653381 0.205139249563217163
-0.224664345383644104 -0.12817816436290741 -0.0739884227514266968
0.161690130829811096 -0.21216486394405365 0.210842728614807129
0.135099276900291443 -0.0805694311857223511 -0.216614231467247009
0.208493247628211975 0.072289884090423584 -0.24150453507900238
0.158616006374359131 0.00669639278203248978 -0.232331410050392151
0.0372571684420108795 -0.0394727177917957306 0.0052628745324909687
0.105789743363857269 0.763889729976654053 0.0579921305179595947
-0.0726604610681533813 -0.220082640647888184 -0.139682695269584656
0.202073261141777039 -0.0784661769866943359 0.0282949749380350113
0.18127143383026123 0.327498853206634521 -0.0585410743951797485
-0.138721838593482971 0.172622621059417725 -0.230531945824623108
0.0315449945628643036 -0.218189075589179993 -0.119401164352893829
0.0490089878439903259 0.172613233327865601 0.0252449624240398407
-0.0669312998652458191 -0.223826974630355835 -0.0781777948141098022
0.215134277939796448 -0.0147455064579844475 -0.204035788774490356
-0.137651070952415466 -0.224370032548904419 -0.212046414613723755
0.223318904638290405 -0.241528809070587158 -0.126509934663772583
0.0643390342593193054 -0.244310393929481506 0.217896267771720886
0.200690820813179016 -0.128948330879211426 0.206777319312095642
0.113707795739173889 0.152012631297111511 -0.235649541020393372
0.169245406985282898 -0.231405019760131836 0.0277264788746833801
-0.233045950531959534 0.0166440512984991074 -0.205153316259384155
-0.226049721240997314 -0.0114824948832392693 -0.152405232191085815
0.190488368272781372 -0.103223800659179688 0.211791619658470154
0.0145817343145608902 -0.167327269911766052 -0.00966335274279117584
-0.164773494005203247 -0.0407396331429481506 -0.243574261665344238
0.0829365551471710205 -0.105098798871040344 0.235170349478721619
0.223100617527961731 -0.234873250126838684 0.0671323537826538086
-0.229689761996269226 -0.0776644349098205566 -0.137421905994415283
-0.178370848298072815 -0.0487704873085021973 -0.222669243812561035
0.167271092534065247 -0.169215694069862366 -0.233771160244941711
-0.0828346982598304749 -0.216444402933120728 -0.22261674702167511
-0.218269139528274536 -0.178278222680091858 -0.178232103586196899
0.107981972396373749 -0.20828622579574585 -0.108455076813697815
-0.0210969559848308563 -0.015416586771607399 0.0321080908179283142
0.0065090046264231205 -0.203643009066581726 0.0576584897935390472
-0.0130036128684878349 -0.221875041723251343 -0.181117698550224304
0.111682400107383728 -0.0463710986077785492 0.214385747909545898
-0.203681811690330505 -0.0346026383340358734 -0.152589574456214905
0.0652197524905204773 -0.22282332181930542 -0.136518672108650208
-0.020075429230928421 0.322332680225372314 -0.0556499511003494263
-0.193473666906356812 -0.223218873143196106 -0.180045455694198608
0.0276915039867162704 0.201504155993461609 -0.0473802872002124786
0.221488624811172485 -0.110420189797878265 0.0665802732110023499
0.0359888672828674316 -0.252989411354064941 0.218995586037635803
-0.0585822947323322296 0.204340890049934387 -0.0252130758017301559
0.0706526339054107666 -0.22306099534034729 -0.0483184270560741425
-0.213225290179252625 -0.026271577924489975 -0.117624856531620026
0.0706009119749069214 0.300559461116790771 0.0946921929717063904
0.109959393739700317 -0.0852303057909011841 0.230144619941711426
0.0422002337872982025 0.0266919750720262527 -0.235407263040542603
0.0513503625988960266 0.270641982555389404 0.00298566999845206738
0.118189416825771332 0.474583476781845093 4.838395761908032e-05
-0.201775610446929932 0.0351179689168930054 -0.121876925230026245
0.0494887679815292358 0.397042691707611084 0.0449041761457920074
0.215126842260360718 -0.013517480343580246 0.224000126123428345
-0.181235224008560181 0.0231452938169240952 -0.223603084683418274
0.141067415475845337 -0.0465235002338886261 -0.218963190913200378
0.220706045627593994 -0.234918132424354553 0.0589212626218795776
-0.221075430512428284 -0.0882761180400848389 -0.191224396228790283
-0.225978255271911621 -0.236282303929328918 -0.109181657433509827
0.173170924186706543 -0.0683996006846427917 0.226018354296684265
0.01509093027561903 0.495488405227661133 -0.110589213669300079
0.0220275204628705978 0.646536767482757568 -0.146308541297912598
0.0840836018323898315 0.606810510158538818 0.0550319738686084747
0.0248348657041788101 0.199731871485710144 -0.0972806885838508606
0.104223385453224182 0.397814273834228516 -0.0160652641206979752
0.107831493020057678 -0.2760811448097229 0.218480944633483887
0.0445992089807987213 0.368459552526473999 -0.0917903557419776917
0.0539485886693000793 -0.137189745903015137 -0.241000324487686157
0.195890843868255615 -0.200125142931938171 0.0522814393043518066
-0.0231583844870328903 -0.204910770058631897 -0.224209010601043701
-0.0274106729775667191 0.497863829135894775 -0.00874402653425931931
0.231403753161430359 -0.130176126956939697 0.207511335611343384
0.231219232082366943 -0.197906911373138428 0.0639139190316200256
-0.219118416309356689 -0.103512093424797058 -0.139501169323921204
0.207426831126213074 -0.025884237140417099 0.229131326079368591
-0.202506542205810547 -0.201283633708953857 -0.116128072142601013
-0.00585663598030805588 -0.0504824556410312653 0.008526630699634552
-0.146770760416984558 -0.218828350305557251 -0.102085404098033905
0.0124757736921310425 -0.091996997594833374 -2.95822906082321424e-06
-0.165003001689910889 -0.207300141453742981 -0.0784278586506843567
-0.000461646588519215584 -0.207745343446731567 0.0914972499012947083
0.0237155184149742126 -0.202847972512245178 -0.120114751160144806
0.201375290751457214 -0.0804870724678039551 0.207114383578300476
0.0684099942445755005 -0.212200909852981567 -0.205036088824272156
-0.0438392236828804016 -0.175890788435935974 0.0260620955377817154
0.118976682424545288 -0.211785003542900085 -0.193641096353530884
0.202328741550445557 -0.10252901166677475 0.21880696713924408
-0.232517346739768982 0.0651740655303001404 -0.227910056710243225
0.224559202790260315 0.00169349438510835171 0.115083292126655579
-0.215744048357009888 -0.110972106456756592 -0.142436802387237549
0.128020524978637695 -0.212259933352470398 -0.00122471293434500694
0.0156078487634658813 0.470530599355697632 0.0117519143968820572
-0.180760741233825684 -0.00541400723159313202 -0.236746981739997864
-0.110625892877578735 -0.226263225078582764 -0.224563673138618469
0.204351887106895447 0.0667763426899909973 -0.218717187643051147
0.22960895299911499 0.0536255352199077606 -0.188653036952018738
-0.0445889756083488464 -0.214670225977897644 0.116469390690326691
-0.224497944116592407 -0.0756631419062614441 -0.136240243911743164
-0.172600701451301575 0.0554014146327972412 -0.245979845523834229
-0.231789588928222656 -0.220904991030693054 -0.0891591757535934448
0.12477489560842514 -0.0938197895884513855 -0.246232867240905762
0.161493450403213501 -0.199015364050865173 -0.2272377610206604
0.167184844613075256 -0.202436715364456177 -0.138260573148727417
0.0783666074275970459 -0.195787340402603149 0.107763424515724182
0.0106375878676772118 -0.14555126428604126 -0.237551227211952209
0.0593497976660728455 -0.2215069979429245 -0.00769303971901535988
0.114557504653930664 -0.194119900465011597 0.226983308792114258
0.213450968265533447 -0.218766212463378906 -0.0888364836573600769
0.0705871880054473877 -0.213874846696853638 0.121408164501190186
0.00921121146529912949 -0.213096827268600464 0.105984956026077271
0.203806102275848389 -0.213098257780075073 -0.174783945083618164
0.23623146116733551 -0.230875670909881592 0.0160360746085643768
0.199911072850227356 -0.0884386375546455383 0.189831435680389404
0.219639614224433899 -0.0603257268667221069 -0.214188173413276672
0.0626267567276954651 -0.101639322936534882 -0.223058789968490601
0.102637149393558502 0.739359676837921143 0.0308068711310625076
0.0182141438126564026 0.108471214771270752 -0.0414217449724674225
0.139315605163574219 0.516443908214569092 0.148376643657684326
0.174638912081718445 0.0774964168667793274 -0.213543221354484558
-0.0211424902081489563 -0.217728555202484131 0.133198216557502747
0.00945340655744075775 -0.222527652978897095 -0.10589541494846344
0.227521270513534546 -0.246168702840805054 -0.0194095652550458908
0.218762919306755066 0.0873302072286605835 0.1719503253698349
0.161520391702651978 -0.129203930497169495 -0.23876836895942688
0.0878735557198524475 -0.159080788493156433 -0.216841593384742737
0.232558548450469971 0.0632894113659858704 0.171913936734199524
0.00834415853023529053 -0.212581455707550049 -0.0608976110816001892
-0.017062455415725708 0.621265649795532227 -0.0695075616240501404
-0.0459807105362415314 -0.206190094351768494 -0.0204622186720371246
0.0128763113170862198 0.792417526245117188 -0.117174513638019562
0.202956467866897583 -0.262761026620864868 0.0908602699637413025
-0.203090682625770569 -0.169029712677001953 -0.0733187273144721985
-0.0983328819274902344 0.376010477542877197 -0.151142388582229614
-0.216654255986213684 0.0418818071484565735 -0.248822435736656189
0.158899053931236267 -0.216574683785438538 -0.0415988415479660034
0.232477053999900818 0.110562354326248169 -0.0635787919163703918
-0.0789941102266311646 -0.207609593868255615 -0.0691536888480186462
0.017979862168431282 -0.0341383889317512512 -0.0230900011956691742
0.0252562947571277618 0.296592265367507935 -0.0655586719512939453
0.208292856812477112 0.0750326365232467651 -0.228086486458778381
0.139241233468055725 -0.021604171022772789 0.208265870809555054
-0.0119357900694012642 -0.218500390648841858 -0.176633432507514954
0.0570253543555736542 -0.220531076192855835 0.126241758465766907
0.225022181868553162 -0.18588121235370636 -0.0316796377301216125
-0.0161513704806566238 -0.108941152691841125 0.0829878002405166626
0.141426965594291687 -0.217813298106193542 -0.170596376061439514
0.129309967160224915 -0.198937609791755676 0.0170207638293504715
-0.216196700930595398 -0.0642115622758865356 -0.200509622693061829
-0.0333306081593036652 0.0575591549277305603 -0.253716021776199341
-0.0869255587458610535 -0.237817719578742981 -0.210227474570274353
0.214926555752754211 -0.00576393492519855499 -0.136451676487922668
0.0356281585991382599 0.239526167511940002 -0.0713941380381584167
-0.0216094106435775757 0.000831719546113163233 0.0164835043251514435
-0.00769334146752953529 -0.199445277452468872 -0.136164695024490356
0.147191181778907776 -0.207920104265213013 0.103849589824676514
-0.255363315343856812 -0.117378532886505127 -0.135264769196510315
0.0624474585056304932 -0.203419804573059082 -0.110365599393844604
-0.231230512261390686 -0.19319644570350647 -0.0751296281814575195
-0.12978343665599823 -0.0896475985646247864 -0.223616078495979309
0.22186848521232605 0.16985262930393219 0.136682704091072083
0.163573324680328369 -0.20132233202457428 -0.240875795483589172
-0.171066328883171082 -0.178898096084594727 -0.241373151540756226
0.175100609660148621 -0.0352615751326084137 -0.215392127633094788
0.217923656105995178 -0.181418180465698242 -0.0423818379640579224
0.0868408754467964172 -0.0983883142471313477 0.199383169412612915
-0.0639539062976837158 -0.0372930876910686493 -0.00532823754474520683
-0.0729103013873100281 0.210435360670089722 -0.0336299203336238861
-0.216775029897689819 0.0357992127537727356 -0.213981211185455322
-0.154600411653518677 -0.212351396679878235 -0.154443591833114624
0.214966163039207458 -0.225781947374343872 -0.0315118581056594849
-0.0329587049782276154 0.0542567037045955658 -0.229388147592544556
0.0223242919892072678 -0.04217519611120224 -0.22381080687046051
0.222126200795173645 -0.221226677298545837 0.0311703700572252274
0.0771816819906234741 -0.261334985494613647 0.211107239127159119
-0.214985251426696777 -0.133771985769271851 -0.188177347183227539
0.0564728714525699615 -0.229155495762825012 -0.0624208003282546997
0.228819042444229126 -0.195890337228775024 -0.135009869933128357
0.22048109769821167 -0.0812200978398323059 -0.120284579694271088
0.0827463194727897644 -0.190469741821289062 0.203935220837593079
0.217539951205253601 -0.0489124394953250885 -0.155609637498855591
-0.0142924794927239418 0.268852293491363525 0.00800632964819669724
-0.00755765894427895546 0.145856082439422607 0.0461973473429679871
0.100170142948627472 -0.208462417125701904 -0.0126280384138226509
-0.220381647348403931 0.00702712684869766235 -0.218820482492446899
-0.141807377338409424 -0.196561053395271301 -0.203071713447570801
0.111206792294979095 0.413161367177963257 0.114262290298938751
-0.0166904833167791367 -0.220462098717689514 0.119638480246067047
0.224600404500961304 -0.245175525546073914 -0.107763685286045074
0.0962954014539718628 -0.213371977210044861 -0.205563470721244812
-0.0362596586346626282 -0.216841384768486023 -0.203658431768417358
0.217845022678375244 -0.125584974884986877 0.117580205202102661
-0.0068965754471719265 -0.211949646472930908 -0.0159782171249389648
0.0680150091648101807 -0.229401752352714539 0.0494561195373535156
-0.0205720756202936172 0.659189462661743164 -0.0906936973333358765
-0.000261608191067352891 -0.168661117553710938 0.0130638927221298218
-0.0655847713351249695 -0.151246190071105957 -0.245332077145576477
0.0095258103683590889 0.559836328029632568 -0.109455965459346771
0.0596610717475414276 0.152852699160575867 -0.245857357978820801
0.00283861299976706505 0.361327558755874634 0.00711679551750421524
0.223993808031082153 -0.17716902494430542 0.151687860488891602
0.215630918741226196 -0.0894761532545089722 -0.0623899959027767181
0.183524683117866516 -0.193864434957504272 -0.0497195832431316376
-0.100741632282733917 -0.205519795417785645 0.0103805148974061012
0.224371835589408875 0.0348568782210350037 -0.0415529645979404449
0.175573334097862244 -0.133556142449378967 0.224949076771736145
0.15937533974647522 -0.0648673325777053833 0.212917342782020569
-0.0629321187734603882 0.149278908967971802 -0.0871035903692245483
-0.188563928008079529 -0.0745976641774177551 -0.234166696667671204
-0.147384241223335266 0.135801941156387329 -0.235291063785552979
0.207058101892471313 -0.180640220642089844 -0.0597776919603347778
0.22925800085067749 -0.106763124465942383 0.0100219864398241043
0.2341717928647995 -0.0985238850116729736 -0.0836006402969360352
0.0754457041621208191 -0.221991464495658875 -0.0954455062747001648
-0.242648273706436157 0.0341305695474147797 -0.176216661930084229
-0.213922992348670959 -0.0968355461955070496 -0.0848670303821563721
0.010693676769733429 0.131020635366439819 -0.0377195067703723907
0.172157302498817444 -0.153298050165176392 -0.249483376741409302
-0.180204704403877258 -0.161778777837753296 -0.227441579103469849
0.130345404148101807 -0.0918384641408920288 -0.229623720049858093
-0.127651259303092957 -0.211660653352737427 -0.0368352346122264862
0.22639252245426178 -0.0174144282937049866 0.0339914970099925995
0.0375974960625171661 -0.222275286912918091 0.0567918606102466583
0.237492725253105164 -0.0771026015281677246 0.0936553329229354858
0.243497535586357117 0.0331994481384754181 0.024563198909163475
0.214699432253837585 0.0174875594675540924 -0.0780747979879379272
0.217122212052345276 -0.0879182368516921997 0.193869724869728088
0.0638027861714363098 -0.21523129940032959 0.203398481011390686
-0.00256147515028715134 -0.255516737699508667 -0.216809019446372986
0.14594702422618866 0.901610314846038818 0.0632786527276039124
0.0716082751750946045 -0.0796840786933898926 0.221780180931091309
0.0732570737600326538 -0.21066264808177948 0.190420553088188171
0.240408867597579956 -0.186317890882492065 0.0814156904816627502
-0.0576991289854049683 0.0499963536858558655 -0.230716690421104431
0.220950767397880554 -0.2085990309715271 -0.0230851899832487106
0.157942518591880798 -0.0859221667051315308 0.219650626182556152
0.24021872878074646 -0.111836522817611694 -0.183439180254936218
0.0509578250348567963 -0.185620084404945374 -0.233478724956512451
-0.193521797657012939 -0.183437839150428772 -0.111160054802894592
0.0587672367691993713 -0.0178105626255273819 0.0312475170940160751
0.221197247505187988 -0.209969878196716309 -0.0862032994627952576
0.189806252717971802 -0.217245832085609436 0.0508188493549823761
-0.0275684352964162827 0.0437758862972259521 -0.0538971200585365295
0.0508591420948505402 0.0968646407127380371 0.00759300822392106056
0.115279711782932281 0.429811656475067139 -0.0074822399765253067
0.119599074125289917 0.798389434814453125 0.0478364452719688416
0.0902144387364387512 0.380732238292694092 -0.0131324296817183495
0.0792791321873664856 0.471895098686218262 0.0155218951404094696
0.133774638175964355 -0.210614711046218872 0.00393250444903969765
0.0934735611081123352 -0.230878561735153198 0.209632217884063721
-0.0426193960011005402 -0.206083595752716064 -0.128094211220741272
0.161383092403411865 0.0769098103046417236 -0.244299769401550293
-0.011720229871571064 0.538614809513092041 -0.0714760050177574158
0.122615225613117218 -0.216039687395095825 0.0327669009566307068
0.0646439418196678162 0.162701472640037537 0.086970888078212738
-0.228328213095664978 -0.135126501321792603 -0.214684233069419861
0.0951363816857337952 -0.210505172610282898 0.211699217557907104
0.103565208613872528 -0.253272891044616699 -0.230625271797180176
-0.0388483218848705292 -0.188841149210929871 0.028996909037232399
0.207644626498222351 0.0450168885290622711 -0.0699471533298492432
0.0210154689848423004 -0.234097182750701904 -0.0796625539660453796
0.237868204712867737 -0.0918751358985900879 -0.113749265670776367
-0.00318815046921372414 -0.0311357900500297546 0.0239060614258050919
-0.00641148211434483528 -0.111823640763759613 -0.0210527554154396057
0.209565132856369019 -0.137545362114906311 -0.237591445446014404
-0.218665972352027893 -0.0592123419046401978 -0.133166790008544922
-0.160331174731254578 -0.194162517786026001 -0.140172958374023438
0.0793297663331031799 -0.0770461335778236389 -0.232710495591163635
0.0171951558440923691 0.0658990293741226196 -0.0622101239860057831
0.223068684339523315 -0.0656960606575012207 0.0591117963194847107
-0.0751636624336242676 0.21535918116569519 -0.120691299438476562
0.0423463918268680573 -0.100999429821968079 0.0116365309804677963
0.12056269496679306 -0.188746199011802673 0.0307818781584501266
-0.0521461181342601776 -0.20377291738986969 -0.241922646760940552
-0.235460534691810608 -0.127731502056121826 -0.1951303631067276
-0.197640657424926758 -0.107335075736045837 -0.233659759163856506
-0.221624881029129028 -0.236176028847694397 -0.077281467616558075
-0.0399482995271682739 -0.210191637277603149 0.0350283831357955933
0.171363264322280884 -0.223505035042762756 0.0571062229573726654
0.215417027473449707 -0.117432184517383575 0.159244954586029053
0.245442241430282593 0.028652312234044075 -0.222087666392326355
0.215521544218063354 -0.0504555851221084595 -0.0862359777092933655
-0.0166672226041555405 -0.219908148050308228 -0.154416292905807495
-0.044936157763004303 -0.188558340072631836 0.00473613245412707329
0.0340515263378620148 -0.109925895929336548 0.0424681492149829865
0.123308718204498291 -0.205916315317153931 0.130832165479660034
-0.0431470498442649841 -0.201599568128585815 -0.154308021068572998
0.0585912540555000305 0.0860796421766281128 0.0758238807320594788
-0.0382595732808113098 -0.0342631489038467407 0.0683552548289299011
-0.214197114109992981 -0.0139145161956548691 -0.207421198487281799
0.172968611121177673 -0.203717917203903198 0.166039600968360901
-0.102008908987045288 -0.20201072096824646 -0.14568464457988739
0.23233756422996521 -0.0890449881553649902 -0.111683681607246399
-0.230453252792358398 -0.0597013272345066071 -0.220840469002723694
-0.0124709280207753181 0.180973723530769348 -0.0204448346048593521
-0.0402933470904827118 0.00384190725162625313 -0.00988930277526378632
0.231350153684616089 -0.218202695250511169 0.0665224269032478333
0.0462057888507843018 -0.0655675902962684631 -0.0161161329597234726
-0.0728322491049766541 0.144134372472763062 -0.223694249987602234
-0.224742144346237183 -0.0209732875227928162 -0.191070660948753357
0.207315683364868164 0.062307402491569519 0.214180305600166321
0.221088305115699768 -0.269933581352233887 -0.0527247823774814606
0.0879958271980285645 -0.222513958811759949 0.216865852475166321
0.0046719815582036972 0.154872491955757141 -0.0260251015424728394
0.116581633687019348 -0.192268729209899902 -0.156027510762214661
0.215327665209770203 -0.085034199059009552 -0.016325831413269043
-0.171135962009429932 -0.0672619566321372986 -0.22640712559223175
-0.160562977194786072 -0.209663420915603638 -0.0316523611545562744
0.224619954824447632 -0.198694273829460144 -0.168309703469276428
0.0309736020863056183 0.0241506639868021011 -0.00133706536144018173
-0.232124060392379761 0.0262927282601594925 -0.182982131838798523
-0.231367677450180054 -0.163077384233474731 -0.196381479501724243
-0.0608404278755187988 -0.212071731686592102 -0.18677222728729248
0.0191497150808572769 0.146441087126731873 0.064224541187286377
0.0532071515917778015 -0.218334734439849854 -0.0399383008480072021
-0.0268583614379167557 -0.0679399445652961731 -0.0535564236342906952
0.144773527979850769 -0.228864789009094238 -0.0341851711273193359
0.211320698261260986 -0.0634179264307022095 0.170622408390045166
0.0919176936149597168 0.212373927235603333 0.0980215668678283691
0.0448147319257259369 -0.218721136450767517 0.0865044444799423218
0.221014842391014099 0.0599475763738155365 -0.235263615846633911
-0.0186373442411422729 0.177238881587982178 -0.0101222610101103783
0.232792213559150696 0.0469454415142536163 -0.0986113026738166809
0.056958269327878952 0.101145751774311066 -0.0224715359508991241
0.192768260836601257 0.0884294360876083374 -0.231580525636672974
0.130252182483673096 -0.219575047492980957 0.139625310897827148
0.23482947051525116 -0.133235827088356018 -0.116081982851028442
0.0281729698181152344 0.571334481239318848 -0.124680109322071075
0.163129106163978577 0.0896121039986610413 0.200668618083000183
-0.230518445372581482 0.157302379608154297 -0.154270559549331665
0.143329903483390808 -0.218895047903060913 -0.125408366322517395
0.00182730716187506914 0.127772346138954163 0.0258751660585403442
-0.000284302659565582871 -0.212106987833976746 -0.209095403552055359
0.213841632008552551 -0.214560359716415405 0.00102463492657989264
-0.227614998817443848 0.100397460162639618 -0.16761450469493866
0.220696106553077698 0.0186858288943767548 -0.176854208111763
0.223111912608146667 0.0908266305923461914 -0.173736929893493652
0.0913360938429832458 -0.0446144789457321167 0.209367454051971436
-0.101739630103111267 -0.203566357493400574 -0.0864005610346794128
-0.0122944898903369904 0.264406681060791016 0.0329848304390907288
0.156547218561172485 -0.176503211259841919 -0.218103766441345215
-0.176359787583351135 0.0838246047496795654 -0.233066648244857788
-0.0871482491493225098 -0.119124695658683777 -0.228191614151000977
-0.0394201502203941345 -0.0329751074314117432 0.0882763564586639404
-0.0324579291045665741 -0.0809249207377433777 -0.0266602318733930588
-0.0198569539934396744 -0.0464765727519989014 -0.0479536913335323334
0.228906497359275818 -0.0829872488975524902 -0.120955944061279297
0.056851264089345932 -0.0875152125954627991 -0.218508735299110413
-0.1467742919921875 -0.219598174095153809 0.00713000167161226273
-0.0013490249402821064 -0.218639284372329712 0.150374561548233032
0.21998104453086853 -0.199110552668571472 -0.165251076221466064
0.180100604891777039 0.0348164066672325134 -0.221016481518745422
-0.206335440278053284 -0.21757112443447113 -0.14427533745765686
0.204637393355369568 -0.193120315670967102 0.130403876304626465
-0.148129209876060486 -0.128011807799339294 -0.235745817422866821
0.222432300448417664 -0.0903279110789299011 -0.0146675650030374527
0.0655652135610580444 0.345309078693389893 0.0142590356990695
0.190970376133918762 -0.205146834254264832 0.151380911469459534
0.194457322359085083 -0.0724711865186691284 -0.221380069851875305
0.110945142805576324 0.0160830579698085785 -0.242575764656066895
0.161047011613845825 -0.210509926080703735 0.12419678270816803
-0.2449168860912323 -0.133976548910140991 -0.142333135008811951
0.00101033120881766081 -0.140160888433456421 0.0120485797524452209
0.153585374355316162 -0.213787615299224854 0.0749548226594924927
-0.0948215946555137634 -0.175759106874465942 -0.233120441436767578
0.0417286418378353119 -0.214306145906448364 0.0978504195809364319
0.0704948455095291138 -0.203500702977180481 -0.238031625747680664
0.0126428920775651932 0.463288694620132446 -0.0800477340817451477
0.0838457494974136353 -0.216411441564559937 -0.179221466183662415
0.0691728666424751282 -0.184711351990699768 0.218238666653633118
0.075453534722328186 -0.226267144083976746 -0.0778449401259422302
0.107644394040107727 0.175429508090019226 -0.0186758134514093399
-0.131180360913276672 -0.0579264163970947266 -0.228711172938346863
-0.0345871932804584503 -0.140629604458808899 -0.234664767980575562
0.00597566692158579826 -0.0413659512996673584 -0.0354528501629829407
0.225808635354042053 -0.122116781771183014 -0.0177670344710350037
0.0203229542821645737 -0.222443610429763794 -0.112052209675312042
0.111474029719829559 -0.0645846500992774963 0.213179633021354675
0.207160085439682007 -0.203985676169395447 -0.000991296488791704178
0.226645201444625854 0.00725323427468538284 0.218851104378700256
0.167979791760444641 -0.200892701745033264 0.00276941736228764057
0.011277015320956707 -0.208410024642944336 0.120345398783683777
-0.0152650130912661552 -0.0144663602113723755 -0.0194244943559169769
0.216390043497085571 -0.098833039402961731 -0.0701000764966011047
-0.163787677884101868 -0.218740358948707581 -0.208917185664176941
0.0983312726020812988 0.597624003887176514 0.00089931051479652524
0.0397679954767227173 0.400429517030715942 -0.0877375900745391846
-0.225562378764152527 -0.12627720832824707 -0.188286006450653076
0.236109495162963867 -0.248228520154953003 -0.0581037700176239014
0.0931591913104057312 -0.228281259536743164 -0.0666082575917243958
0.0203564930707216263 0.476628869771957397 -0.0886274874210357666
0.0576670840382575989 -0.218551427125930786 0.22723938524723053
0.231146946549415588 -0.0584959834814071655 -0.0973675251007080078
-0.0510155782103538513 0.285716235637664795 -0.138314098119735718
0.228787884116172791 -0.101275742053985596 0.206383496522903442
0.200258702039718628 -0.0872484296560287476 -0.243002966046333313
0.217728912830352783 -0.233951166272163391 -0.0336644388735294342
0.140233695507049561 0.157326385378837585 0.23494739830493927
0.0224675685167312622 -0.00975420884788036346 0.00401263544335961342
0.000691635359544306993 0.510566830635070801 -0.0664816573262214661
0.208681583404541016 -0.00417835870757699013 -0.226512700319290161
0.187011495232582092 -0.111985325813293457 0.205273941159248352
0.145649254322052002 -0.0901363193988800049 -0.235096797347068787
-0.0280451755970716476 -0.0375888533890247345 -0.209770381450653076
0.0628263950347900391 0.00737867318093776703 0.0137016996741294861
-0.249380797147750854 0.0563472770154476166 -0.167107462882995605
0.232192575931549072 0.0334235355257987976 -0.120018437504768372
0.230928391218185425 -0.135272547602653503 0.1564522385597229
0.182287707924842834 0.0271285120397806168 0.241638019680976868
0.0445453152060508728 0.247247815132141113 0.0771501660346984863
-0.00960301607847213745 0.425212621688842773 -0.0562971904873847961
-0.0444181375205516815 -0.242211878299713135 -0.153701320290565491
0.0328741148114204407 -0.228536248207092285 -0.168186292052268982
0.124066963791847229 -0.21700635552406311 -0.0721236839890480042
0.0533323623239994049 -0.0856408178806304932 0.0178331416100263596
0.089803159236907959 0.0684832632541656494 -0.0213253889232873917
0.0699018090963363647 0.0283706355839967728 0.0135650318115949631
0.0598023682832717896 0.454518556594848633 0.0402874834835529327
-0.0811990499496459961 0.0691298991441726685 -0.238999098539352417
0.0576944462954998016 0.141316965222358704 0.0130431065335869789
0.0523028820753097534 0.109157241880893707 0.0490526072680950165
0.10456046462059021 -0.204735890030860901 0.141074895858764648
0.139564439654350281 -0.230576440691947937 -0.18306124210357666
-0.0127924997359514236 -0.234089657664299011 -0.220635190606117249
0.122217044234275818 -0.102602824568748474 -0.23498159646987915
0.0724876150488853455 -0.273855715990066528 -0.234377413988113403
0.229706361889839172 -0.131730109453201294 0.00804193876683712006
0.08100929856300354 -0.0724479556083679199 0.219409182667732239
0.140818029642105103 -0.069607265293598175 0.228060930967330933
-0.130406618118286133 -0.0953326448798179626 -0.2222452312707901
-0.233735322952270508 -0.0901702940464019775 -0.110759131610393524
0.245235785841941833 -0.0137615473940968513 0.117237582802772522
0.0986044332385063171 -0.215707495808601379 0.0364007651805877686
0.100470349192619324 -0.205846980214118958 0.124884322285652161
0.187422394752502441 0.0168732702732086182 0.221033886075019836
0.220821961760520935 -0.0770907476544380188 0.103212513029575348
0.226345613598823547 -0.0426277033984661102 -0.12157546728849411
0.0826161503791809082 0.104448318481445312 -0.00966637302190065384
0.0911551192402839661 -0.209530040621757507 0.0312836840748786926
0.137927919626235962 0.918373703956604004 0.0629716292023658752
-0.035097029060125351 0.0880751535296440125 -0.0780952498316764832
-0.113023646175861359 0.42134016752243042 -0.177342742681503296
0.132790282368659973 -0.201982691884040833 0.139611303806304932
0.149344936013221741 -0.13865053653717041 0.209601551294326782
-0.0429415851831436157 -0.0535085611045360565 0.026558607816696167
-0.0262288730591535568 -0.0882676243782043457 -0.220974981784820557
-0.233726844191551208 -0.198771536350250244 -0.146947383880615234
0.22122502326965332 0.114079371094703674 0.168414101004600525
0.0335076265037059784 0.125503510236740112 0.0156358592212200165
0.213344484567642212 0.0235813204199075699 0.0644132867455482483
-0.215964809060096741 -0.0783117339015007019 -0.189037665724754333
0.0305137857794761658 0.0829936414957046509 -0.00378051586449146271
-0.0227508228272199631 0.027565833181142807 -0.0217266157269477844
0.126135736703872681 -0.133761852979660034 -0.239748284220695496
0.206446930766105652 -0.125293627381324768 -0.140882492065429688
0.164156362414360046 0.139670699834823608 0.212846681475639343
-0.129896089434623718 0.153132826089859009 -0.224716171622276306
0.0993740037083625793 0.671670019626617432 0.0176904629915952682
-0.217919051647186279 -0.203141152858734131 -0.0862319320440292358
0.0615848563611507416 -0.268459677696228027 0.211783424019813538
0.151632219552993774 -0.230192855000495911 -0.102539218962192535
0.0027261790819466114 -0.261032074689865112 -0.230221137404441833
0.0582683198153972626 -0.209646895527839661 0.0395728982985019684
0.206730678677558899 0.0513870120048522949 -0.0729449167847633362
-0.136247232556343079 -0.201915770769119263 -0.076575741171836853
0.0329879485070705414 0.0562164336442947388 -0.00608183769509196281
0.219606161117553711 -0.187829241156578064 0.0353333614766597748
0.108478941023349762 0.666614115238189697 0.0282648969441652298
-0.222652226686477661 -0.00811801198869943619 -0.1671895831823349
0.0724323689937591553 -0.0925607383251190186 -0.200565949082374573
0.20287284255027771 0.0834215059876441956 -0.235277742147445679
0.204423993825912476 -0.214113995432853699 0.0322755053639411926
-0.0571374297142028809 0.0811284035444259644 -0.233121424913406372
-0.153967082500457764 -0.226145341992378235 -0.0242975931614637375
0.0537188686430454254 0.164868175983428955 0.00656220875680446625
0.186177283525466919 0.0232014842331409454 -0.228723123669624329
0.0996279418468475342 -0.180627748370170593 -0.235845565795898438
0.236132442951202393 -0.132965058088302612 0.181290581822395325
0.057529158890247345 -0.173203602433204651 -0.233148440718650818
0.0635035261511802673 0.399775832891464233 0.0495912171900272369
-0.0153514668345451355 -0.0926779508590698242 -0.00499193603172898293
-0.195861086249351501 -0.149867892265319824 -0.230820640921592712
0.14738890528678894 -0.213768348097801208 0.167128264904022217
0.0454793795943260193 0.302451729774475098 0.017471829429268837
0.229556933045387268 0.0336611233651638031 0.162234500050544739
0.0239758901298046112 -0.213265538215637207 0.0773451998829841614
0.0388021767139434814 -0.212055161595344543 -0.160834833979606628
-0.0847800299525260925 -0.218391358852386475 -0.0022587247658520937
0.202590301632881165 0.0346318446099758148 -0.239226788282394409
0.00580374104902148247 -0.0434023328125476837 -0.211700528860092163
0.229792490601539612 -0.0194759238511323929 0.141751483082771301
-0.211877703666687012 -0.0719476863741874695 -0.205624043941497803
0.0347432792186737061 -0.211765363812446594 0.189813733100891113
-0.119279347360134125 -0.208126053214073181 -0.21621115505695343
0.0187568962574005127 -0.0723366588354110718 -0.0328262858092784882
0.22226811945438385 -0.116794392466545105 0.13523373007774353
0.0270858127623796463 -0.218691512942314148 -0.170978516340255737
-0.0899591520428657532 0.22090071439743042 -0.0407597906887531281
0.0865855515003204346 0.16030004620552063 -0.242029339075088501
-0.0698191747069358826 0.182653322815895081 -0.0233561471104621887
0.0252860132604837418 -0.162514075636863708 -0.2301025390625
0.131777241826057434 0.0381455868482589722 0.221171990036964417
0.00959633756428956985 -0.22244030237197876 0.084272041916847229
0.238192096352577209 0.154627114534378052 0.0914346352219581604
-0.205294087529182434 -0.190180018544197083 -0.120056599378585815
0.137439116835594177 0.0241268444806337357 0.221136003732681274
0.0486110299825668335 -0.234382420778274536 -0.233014136552810669
0.211726218461990356 -0.0428303033113479614 -0.224851012229919434
0.064009152352809906 0.419433534145355225 0.0164700895547866821
-0.0363808125257492065 -0.121947452425956726 -0.241389259696006775
0.00852403044700622559 -0.0328025892376899719 -0.0147227877750992775
-0.097683146595954895 -0.188096866011619568 -0.0915833786129951477
0.0872247666120529175 0.256876379251480103 0.0763488709926605225
-0.0793243274092674255 -0.234941795468330383 -0.246831715106964111
0.234717056155204773 -0.0993860885500907898 -0.000712383887730538845
-0.175619155168533325 -0.00490401033312082291 -0.235279306769371033
0.222497120499610901 -0.0229014959186315536 0.196382224559783936
0.0449317842721939087 -0.206015080213546753 -0.0668469741940498352
0.242132574319839478 -0.188310354948043823 0.0904906019568443298
0.0118428068235516548 0.0186593551188707352 -0.0601004734635353088
0.234924823045730591 -0.0672057867050170898 -0.195561572909355164
-0.0238222703337669373 -0.254632234573364258 -0.227565154433250427
0.220773264765739441 0.161045342683792114 0.0686502307653427124
0.216890707612037659 -0.0468242242932319641 -0.179756343364715576
0.0427089370787143707 0.214733302593231201 0.0299936048686504364
0.234769657254219055 -0.209432244300842285 -0.052210681140422821
-0.0240303389728069305 -0.0981013402342796326 0.0101096481084823608
0.221966356039047241 0.0218323580920696259 -0.195428162813186646
-0.0497491881251335144 0.0300157088786363602 -0.0514297634363174438
0.0201647281646728516 0.0863075628876686096 0.0694913789629936218
-0.0295583754777908325 -0.173939868807792664 0.0627341717481613159
0.246755883097648621 0.0560190044343471527 0.181372508406639099
0.106084182858467102 -0.223677664995193481 -0.15590299665927887
0.185878261923789978 -0.108337856829166412 -0.203494861721992493
0.0611921772360801697 -0.222533777356147766 -0.140041694045066833
0.0545303374528884888 0.111181125044822693 -0.237047255039215088
