ply
format ascii 1.0
element vertex 717
property float x
property float y
property float z
end_header
-0.125421270728111267 0.222251206636428833 -0.75840151309967041
0.203879952430725098 0.103015057742595673 -0.363030105829238892
-0.146611854434013367 0.407263636589050293 -0.553932011127471924
-0.146319866180419922 0.25864526629447937 -0.8370017409324646
-0.209761559963226318 0.407264918088912964 -0.575362324714660645
-0.028168870136141777 0.159017249941825867 -0.728878557682037354
0.131851941347122192 0.124509170651435852 -0.443946659564971924
-0.0705464109778404236 0.214854314923286438 -0.802251577377319336
-0.159018725156784058 0.273330241441726685 -0.701155781745910645
-0.0105859842151403427 0.262365281581878662 -0.556642353534698486
-0.110354915261268616 0.281415611505508423 -0.574162125587463379
-0.159889131784439087 0.276050567626953125 -0.730546832084655762
0.0285610053688287735 0.283941894769668579 -0.515615165233612061
-0.14099256694316864 0.232924684882164001 -0.741418421268463135
-0.0306461136788129807 0.211362257599830627 -0.617303311824798584
0.0894926413893699646 0.144552305340766907 -0.590103566646575928
-0.121029086410999298 0.211248695850372314 -0.714269340038299561
-0.10634324699640274 0.254493504762649536 -0.750412106513977051
0.190772280097007751 0.148082122206687927 -0.419717937707901001
0.0415489710867404938 0.185358390212059021 -0.500421822071075439
-0.116626739501953125 0.261839091777801514 -0.758390486240386963
-0.035353533923625946 0.25771021842956543 -0.648083984851837158
-0.059582587331533432 0.147686675190925598 -0.787877559661865234
0.070216737687587738 0.204279646277427673 -0.525669574737548828
0.145586803555488586 0.0950160473585128784 -0.465585917234420776
-0.184582367539405823 0.305349409580230713 -0.727660655975341797
-0.0366473682224750519 0.232444480061531067 -0.597254335880279541
0.0986887738108634949 0.184448316693305969 -0.498495757579803467
-0.0524429604411125183 0.331496745347976685 -0.432126015424728394
-0.263025462627410889 0.374731689691543579 -0.679809927940368652
0.173458248376846313 0.115003734827041626 -0.474986881017684937
0.144644111394882202 0.133757427334785461 -0.489371001720428467
-0.207967370748519897 0.344249069690704346 -0.686460196971893311
-0.128826320171356201 0.195539891719818115 -0.866618633270263672
-0.17383633553981781 0.463390141725540161 -0.519925534725189209
-0.238739505410194397 0.426072120666503906 -0.609664738178253174
-0.162109464406967163 0.214382767677307129 -0.808721423149108887
-0.0409443527460098267 0.157822340726852417 -0.670006632804870605
0.0248444322496652603 0.232806652784347534 -0.42672380805015564
-0.128375649452209473 0.333854317665100098 -0.648709475994110107
0.0728172510862350464 0.20097719132900238 -0.481368958950042725
0.107845909893512726 0.065067484974861145 -0.583712995052337646
-0.145678386092185974 0.42703622579574585 -0.505708694458007812
0.296189844608306885 0.0461004525423049927 -0.363431185483932495
0.116972401738166809 0.180696070194244385 -0.504872918128967285
-0.012555902823805809 0.103589244186878204 -0.717149257659912109
-0.166493535041809082 0.400898069143295288 -0.497752577066421509
0.132230088114738464 0.114877402782440186 -0.446286290884017944
-0.0414396487176418304 0.172555297613143921 -0.828455269336700439
0.121509261429309845 0.118371486663818359 -0.613090336322784424
0.0575556717813014984 0.111968949437141418 -0.677813947200775146
-0.232716739177703857 0.455550998449325562 -0.558724820613861084
0.0304987207055091858 0.167591601610183716 -0.69616323709487915
0.187995314598083496 0.0771128833293914795 -0.418277949094772339
-0.139298379421234131 0.23009847104549408 -0.866994321346282959
0.160357221961021423 0.155676960945129395 -0.458328127861022949
-0.0883298441767692566 0.17836664617061615 -0.875631153583526611
-0.20833761990070343 0.411496847867965698 -0.685874998569488525
0.158069685101509094 0.0528228245675563812 -0.543094635009765625
0.107452213764190674 0.0408645756542682648 -0.60506439208984375
-0.0282791368663311005 0.216168984770774841 -0.65413433313369751
-0.124834276735782623 0.324415087699890137 -0.699324607849121094
0.114573702216148376 0.116292625665664673 -0.579341590404510498
0.179985746741294861 0.106074050068855286 -0.394154459238052368
0.0395054295659065247 0.170200079679489136 -0.47208636999130249
-0.171033173799514771 0.302726238965988159 -0.80597299337387085
0.0801477804780006409 0.150525853037834167 -0.480987370014190674
-0.182707920670509338 0.361944228410720825 -0.740688681602478027
0.158135935664176941 0.0749506503343582153 -0.562415599822998047
0.238244101405143738 0.0182903148233890533 -0.539421379566192627
-0.113733038306236267 0.222356900572776794 -0.77482151985168457
-0.0556597374379634857 0.315283924341201782 -0.543266713619232178
-0.00773681001737713814 0.141640901565551758 -0.678697705268859863
-0.0335316881537437439 0.255983412265777588 -0.484066128730773926
-0.046001877635717392 0.134039998054504395 -0.732311487197875977
-0.174858585000038147 0.292006134986877441 -0.808659672737121582
-0.16240304708480835 0.425323218107223511 -0.550743341445922852
-0.145152181386947632 0.379985183477401733 -0.522224068641662598
-0.0780113860964775085 0.249724552035331726 -0.664536774158477783
-0.208153665065765381 0.437973529100418091 -0.637325465679168701
-0.0658053383231163025 0.197665795683860779 -0.778812825679779053
-0.00826762989163398743 0.250673681497573853 -0.581907212734222412
-0.189229175448417664 0.266524642705917358 -0.792601406574249268
0.0469844229519367218 0.117232032120227814 -0.623821675777435303
-0.0159738268703222275 0.250608682632446289 -0.524057626724243164
0.0756272003054618835 0.243202134966850281 -0.459425508975982666
-0.0652040764689445496 0.256360292434692383 -0.722730159759521484
0.0137661220505833626 0.226205930113792419 -0.433290988206863403
0.0345314033329486847 0.218934729695320129 -0.422487527132034302
-0.0748683437705039978 0.257336318492889404 -0.707954585552215576
0.156497344374656677 0.0523177869617938995 -0.534869551658630371
0.0267366711050271988 0.1954994797706604 -0.45703357458114624
-0.127626180648803711 0.204221069812774658 -0.842956721782684326
0.132192358374595642 0.124735824763774872 -0.564673364162445068
0.212143450975418091 0.0729586631059646606 -0.385971099138259888
-0.143319830298423767 0.365472227334976196 -0.52353668212890625
-0.135971501469612122 0.363673478364944458 -0.525779426097869873
0.0577548183500766754 0.157249987125396729 -0.521573841571807861
-0.132353335618972778 0.239567190408706665 -0.721085727214813232
-0.122130759060382843 0.341602295637130737 -0.531787276268005371
-0.0578504763543605804 0.267179131507873535 -0.608449757099151611
0.161580994725227356 0.0885640755295753479 -0.542668521404266357
-0.224459558725357056 0.383690625429153442 -0.676649749279022217
0.0320545919239521027 0.109314456582069397 -0.689208924770355225
-0.140717759728431702 0.224300622940063477 -0.82031559944152832
0.0314591079950332642 0.176348000764846802 -0.554468035697937012
-0.132240071892738342 0.281525850296020508 -0.764566421508789062
-0.0668115243315696716 0.346178919076919556 -0.532399833202362061
-0.163566187024116516 0.267267227172851562 -0.711962342262268066
-0.210732012987136841 0.381287634372711182 -0.735455691814422607
0.176273167133331299 0.106289505958557129 -0.379586637020111084
0.0551646724343299866 0.194157183170318604 -0.510095417499542236
-0.0414617657661437988 0.199440374970436096 -0.765567600727081299
0.0344808362424373627 0.131981804966926575 -0.73516923189163208
-7.30738902348093688e-05 0.26117020845413208 -0.508888661861419678
-0.0568938180804252625 0.316797465085983276 -0.591970860958099365
-0.00774421030655503273 0.259530574083328247 -0.579199671745300293
0.0058760414831340313 0.190813690423965454 -0.682715237140655518
-0.0392953753471374512 0.265820086002349854 -0.456424176692962646
0.214531287550926208 0.0187665596604347229 -0.563035964965820312
0.0924326330423355103 0.155466407537460327 -0.511969983577728271
0.136502921581268311 0.0361962020397186279 -0.599236249923706055
-0.0887643247842788696 0.209628075361251831 -0.765251517295837402
0.0595996640622615814 0.184433415532112122 -0.454510390758514404
0.0722949430346488953 0.222125649452209473 -0.444284111261367798
-0.100680127739906311 0.266969740390777588 -0.652220845222473145
0.0936460867524147034 0.225115567445755005 -0.419681847095489502
0.170133635401725769 0.075289115309715271 -0.441227227449417114
-0.09877767413854599 0.132176041603088379 -0.829792976379394531
-0.0880759060382843018 0.218367740511894226 -0.686535656452178955
-0.0377076789736747742 0.30536949634552002 -0.613633275032043457
0.103762187063694 0.144584894180297852 -0.521358072757720947
-0.124025270342826843 0.299347758293151855 -0.806280553340911865
0.159637123346328735 0.0944349467754364014 -0.428048610687255859
-0.135484158992767334 0.403934448957443237 -0.577344655990600586
-0.174426332116127014 0.330559611320495605 -0.6432342529296875
0.166607990860939026 0.0994326472282409668 -0.573265671730041504
0.075392700731754303 0.155140623450279236 -0.573591947555541992
0.276266098022460938 0.0775505155324935913 -0.37140190601348877
-0.102240815758705139 0.230830952525138855 -0.734860658645629883
-0.0847875475883483887 0.153777718544006348 -0.820665717124938965
-0.131969556212425232 0.206772163510322571 -0.822599351406097412
-0.0260053947567939758 0.230515927076339722 -0.520803272724151611
-0.000165362784173339605 0.111268870532512665 -0.765208601951599121
-0.195895224809646606 0.380499958992004395 -0.704141199588775635
0.0248902402818202972 0.159687384963035583 -0.614160656929016113
0.185712382197380066 0.10648307204246521 -0.40903279185295105
-0.201494187116622925 0.428666263818740845 -0.538537442684173584
-0.0541252568364143372 0.198074072599411011 -0.706069827079772949
0.0151398498564958572 0.304636627435684204 -0.481063216924667358
-0.104400567710399628 0.276320099830627441 -0.638575911521911621
0.026897793635725975 0.297396421432495117 -0.43219330906867981
0.0721847638487815857 0.223735600709915161 -0.465890556573867798
0.0596713423728942871 0.171030059456825256 -0.603962957859039307
0.14536149799823761 0.0635183155536651611 -0.552911996841430664
0.16907183825969696 0.143536120653152466 -0.430413156747817993
0.0571921393275260925 0.209319800138473511 -0.473433464765548706
0.0449671559035778046 0.160378262400627136 -0.573023796081542969
-0.145185977220535278 0.451982319355010986 -0.489107072353363037
0.208778142929077148 0.103638924658298492 -0.389937281608581543
0.064312860369682312 0.135993137955665588 -0.562878012657165527
-0.206292688846588135 0.375299245119094849 -0.710973024368286133
-0.178617283701896667 0.341207921504974365 -0.654126346111297607
-0.0368759594857692719 0.290114074945449829 -0.555501699447631836
-0.228748321533203125 0.384940773248672485 -0.701699972152709961
-0.0796146690845489502 0.319630205631256104 -0.525474369525909424
0.00055953621631488204 0.234175637364387512 -0.556848049163818359
-0.045395486056804657 0.222970917820930481 -0.707107901573181152
0.221441060304641724 0.0912316292524337769 -0.41846311092376709
-0.0762731581926345825 0.290071547031402588 -0.536088764667510986
-0.0448596552014350891 0.261200278997421265 -0.532277047634124756
0.143836468458175659 0.128200128674507141 -0.393528759479522705
0.16687244176864624 0.141352370381355286 -0.448008537292480469
0.0474603064358234406 0.23457007110118866 -0.550171971321105957
0.0409583151340484619 0.19037221372127533 -0.544861137866973877
-0.118073277175426483 0.191475570201873779 -0.865096092224121094
-0.00992083922028541565 0.165924623608589172 -0.75997394323348999
-0.111300505697727203 0.279668360948562622 -0.743652462959289551
-0.036287553608417511 0.178342252969741821 -0.6374472975730896
-0.169594138860702515 0.443476289510726929 -0.54556041955947876
0.0475285686552524567 0.210793808102607727 -0.462084025144577026
-0.126290515065193176 0.266089558601379395 -0.661773741245269775
-0.0189452487975358963 0.313039392232894897 -0.473964184522628784
-0.108587548136711121 0.159227162599563599 -0.824389636516571045
-0.228509247303009033 0.457442611455917358 -0.638186275959014893
-0.191325753927230835 0.375315248966217041 -0.555989682674407959
0.0513854548335075378 0.11496242880821228 -0.624652445316314697
0.0871865898370742798 0.141402289271354675 -0.501847147941589355
0.191529020667076111 0.107499107718467712 -0.39481845498085022
-0.156641796231269836 0.339957863092422485 -0.717711269855499268
0.0864813923835754395 0.163420036435127258 -0.501386880874633789
0.0894714593887329102 0.130392804741859436 -0.58198779821395874
-0.189705818891525269 0.427907168865203857 -0.482770591974258423
0.106738954782485962 0.11605573445558548 -0.570359945297241211
-0.133765280246734619 0.426223605871200562 -0.509995222091674805
-0.00687462650239467621 0.196799561381340027 -0.576993227005004883
-0.226784780621528625 0.442894786596298218 -0.542291879653930664
0.0301444567739963531 0.174231216311454773 -0.659661233425140381
-0.12034992128610611 0.169114768505096436 -0.841874003410339355
-0.0456263460218906403 0.233836084604263306 -0.655117511749267578
-0.151162698864936829 0.275209307670593262 -0.787165284156799316
-0.0301249828189611435 0.249260157346725464 -0.540517747402191162
0.159782513976097107 0.0153491990640759468 -0.564317584037780762
-0.0887013673782348633 0.325328260660171509 -0.481341928243637085
-0.167752459645271301 0.344369471073150635 -0.71780240535736084
0.165028035640716553 0.12861652672290802 -0.488231003284454346
0.168461441993713379 0.0483074560761451721 -0.597102761268615723
-0.156266316771507263 0.307967096567153931 -0.746142387390136719
-0.21261480450630188 0.465660214424133301 -0.575989842414855957
0.0947997495532035828 0.113416619598865509 -0.53056257963180542
-0.0623918585479259491 0.246282503008842468 -0.657316982746124268
-0.197802141308784485 0.360126703977584839 -0.723680794239044189
-0.208150759339332581 0.464877963066101074 -0.558933436870574951
-0.0261323694139719009 0.216665536165237427 -0.670493423938751221
-0.102802470326423645 0.302021145820617676 -0.599300980567932129
-0.198950514197349548 0.413862019777297974 -0.560232400894165039
0.0817182809114456177 0.162054628133773804 -0.53506392240524292
0.0113355843350291252 0.211755886673927307 -0.612672090530395508
-0.0159458480775356293 0.194179713726043701 -0.770907998085021973
-0.0211997963488101959 0.210876524448394775 -0.673978924751281738
-0.0644094944000244141 0.22865729033946991 -0.644101321697235107
-0.133964523673057556 0.315606564283370972 -0.702978014945983887
0.0918733775615692139 0.0803460627794265747 -0.65079963207244873
0.0934433639049530029 0.0700056999921798706 -0.584734559059143066
0.233671143651008606 0.0835621282458305359 -0.358738303184509277
-0.104010693728923798 0.248169034719467163 -0.76451343297958374
-0.016139080747961998 0.183515474200248718 -0.753912806510925293
-0.0723246932029724121 0.308647751808166504 -0.575998067855834961
-0.00751195941120386124 0.226158127188682556 -0.65420609712600708
-0.00621510250493884087 0.147311434149742126 -0.802740693092346191
0.0103261582553386688 0.193698033690452576 -0.620083391666412354
-0.139887034893035889 0.273315101861953735 -0.785399913787841797
-0.0233508441597223282 0.17259661853313446 -0.748282849788665771
0.146851792931556702 0.0890470296144485474 -0.484705954790115356
-0.0720828250050544739 0.212703138589859009 -0.637381315231323242
0.244621217250823975 0.0915412157773971558 -0.379779279232025146
0.146461308002471924 0.0541509948670864105 -0.560447037220001221
-0.123253203928470612 0.426847398281097412 -0.552420496940612793
-0.0854544714093208313 0.29140007495880127 -0.623430132865905762
-0.0636051222681999207 0.348948299884796143 -0.47685888409614563
0.0842394605278968811 0.185623675584793091 -0.525540590286254883
0.141879871487617493 0.135713785886764526 -0.441803842782974243
-0.0338546596467494965 0.265773892402648926 -0.547445774078369141
0.195751219987869263 0.0658104568719863892 -0.558272182941436768
-0.196948796510696411 0.279526352882385254 -0.802376508712768555
0.0873856693506240845 0.206447780132293701 -0.483790397644042969
-0.13557077944278717 0.288701742887496948 -0.769607603549957275
0.0066455574706196785 0.137656748294830322 -0.79171454906463623
-0.0278681032359600067 0.271738022565841675 -0.460296928882598877
-0.0354379415512084961 0.315852135419845581 -0.478791773319244385
-0.172246992588043213 0.391842633485794067 -0.52646791934967041
0.10588131844997406 0.111531540751457214 -0.526750504970550537
-0.0605560839176177979 0.342825800180435181 -0.527126908302307129
-0.0754579305648803711 0.23525218665599823 -0.728895306587219238
-0.197722837328910828 0.341001152992248535 -0.688929438591003418
0.0032194869127124548 0.233606547117233276 -0.478491008281707764
-0.0436986498534679413 0.18168988823890686 -0.75949329137802124
0.100105755031108856 0.113485276699066162 -0.635260999202728271
-0.0830347314476966858 0.219414502382278442 -0.68367612361907959
-0.0695751979947090149 0.274917960166931152 -0.541978836059570312
-0.0425925478339195251 0.166328608989715576 -0.753503501415252686
-0.121916040778160095 0.392430424690246582 -0.462698876857757568
0.0509316474199295044 0.0984158292412757874 -0.671767354011535645
0.0186596885323524475 0.165893822908401489 -0.704191923141479492
0.01476304791867733 0.146643534302711487 -0.615876376628875732
0.140331730246543884 0.0245985072106122971 -0.585169374942779541
-0.12182222306728363 0.269210755825042725 -0.671461641788482666
0.0124992672353982925 0.224834799766540527 -0.600114762783050537
0.0902580022811889648 0.146407634019851685 -0.592107534408569336
-0.128458529710769653 0.392634481191635132 -0.591178774833679199
0.13970126211643219 0.171997964382171631 -0.440000414848327637
-0.106532074511051178 0.306093871593475342 -0.591535508632659912
0.120150119066238403 0.0447470806539058685 -0.605920255184173584
-0.207821011543273926 0.346000045537948608 -0.737766385078430176
0.0883133187890052795 0.139046639204025269 -0.53276747465133667
-0.143607735633850098 0.21366468071937561 -0.850711166858673096
0.066582702100276947 0.193879708647727966 -0.594375669956207275
-0.062601238489151001 0.170574992895126343 -0.836375296115875244
-0.172504037618637085 0.375559359788894653 -0.578711211681365967
-0.192241549491882324 0.380010783672332764 -0.753263115882873535
0.121744222939014435 0.0844519361853599548 -0.593823075294494629
-0.0926146134734153748 0.230080574750900269 -0.817537486553192139
-0.0308788344264030457 0.213547930121421814 -0.6797904372215271
-0.151228934526443481 0.370356142520904541 -0.541889369487762451
-0.0414848998188972473 0.179157242178916931 -0.802071571350097656
0.0629078671336174011 0.261784613132476807 -0.444229692220687866
-0.176756709814071655 0.342922747135162354 -0.681508779525756836
-0.0021261223591864109 0.23637351393699646 -0.584564208984375
0.00192999152932316065 0.124647319316864014 -0.662145376205444336
0.075592041015625 0.149028182029724121 -0.519150793552398682
-0.158821761608123779 0.345061182975769043 -0.600800633430480957
-0.0158490054309368134 0.163929805159568787 -0.734615325927734375
0.00464209867641329765 0.253188818693161011 -0.486617863178253174
-0.0958961695432662964 0.212305858731269836 -0.804654121398925781
-0.0529148392379283905 0.237190902233123779 -0.677945494651794434
-0.0182991176843643188 0.329582542181015015 -0.476344883441925049
-0.0762044861912727356 0.190783947706222534 -0.845387399196624756
-0.0814923197031021118 0.239801749587059021 -0.762111663818359375
0.232531517744064331 0.128250718116760254 -0.37154620885848999
0.0614667385816574097 0.0989275574684143066 -0.602492570877075195
-0.156310185790061951 0.376913756132125854 -0.707711756229400635
-0.0176310986280441284 0.304103881120681763 -0.48545914888381958
-0.0758162736892700195 0.214873671531677246 -0.674763143062591553
-0.107935324311256409 0.180531278252601624 -0.846732735633850098
0.0396364964544773102 0.155996754765510559 -0.582302629947662354
-0.128250971436500549 0.188981711864471436 -0.847774267196655273
0.0509895160794258118 0.198380336165428162 -0.433523565530776978
-0.126676738262176514 0.332674384117126465 -0.721486568450927734
-0.227812454104423523 0.414775848388671875 -0.586080431938171387
0.0496405065059661865 0.191904157400131226 -0.547082901000976562
0.152974739670753479 0.0692664384841918945 -0.564768373966217041
0.166307836771011353 0.0409035123884677887 -0.627568066120147705
-0.133066758513450623 0.25355413556098938 -0.829171240329742432
-0.124945729970932007 0.3182353675365448 -0.573541581630706787
0.148749232292175293 0.0631741732358932495 -0.602084219455718994
0.00832322984933853149 0.146972060203552246 -0.746005415916442871
-0.126156657934188843 0.359596014022827148 -0.637440204620361328
-0.160153850913047791 0.315893232822418213 -0.644429266452789307
-0.0814392343163490295 0.31667521595954895 -0.61822211742401123
0.0907593593001365662 0.21917426586151123 -0.463057547807693481
0.15638202428817749 0.0829926356673240662 -0.549277245998382568
0.0340833179652690887 0.20053333044052124 -0.534424722194671631
-0.0304531678557395935 0.248729914426803589 -0.511615574359893799
0.00587687455117702484 0.0870634019374847412 -0.736791372299194336
0.113292515277862549 0.195807665586471558 -0.467325359582901001
0.0257218498736619949 0.0981278121471405029 -0.678668498992919922
-0.146834418177604675 0.364261925220489502 -0.517276227474212646
-0.122790500521659851 0.3652992844581604 -0.481813967227935791
-0.0683650299906730652 0.22147776186466217 -0.794423818588256836
0.114547379314899445 0.106399938464164734 -0.467965453863143921
-0.0692820847034454346 0.201175808906555176 -0.669055044651031494
-0.119556181132793427 0.290073156356811523 -0.621276676654815674
0.106722235679626465 0.0801295936107635498 -0.634563326835632324
-0.084189094603061676 0.316191911697387695 -0.602236926555633545
0.130068689584732056 0.173102870583534241 -0.425637096166610718
0.0811352059245109558 0.148642152547836304 -0.455951422452926636
-0.214619919657707214 0.447805494070053101 -0.607735872268676758
-0.013095867820084095 0.0797004327178001404 -0.771924078464508057
0.0687559992074966431 0.122374095022678375 -0.68102109432220459
0.0802570655941963196 0.192690372467041016 -0.500342011451721191
-0.0254673268646001816 0.197142079472541809 -0.620721518993377686
-0.19277617335319519 0.421622484922409058 -0.495520055294036865
-0.167228013277053833 0.344551116228103638 -0.733432650566101074
-0.0666271671652793884 0.262441337108612061 -0.63681405782699585
0.00303357001394033432 0.225177645683288574 -0.479257136583328247
-0.143951877951622009 0.313779115676879883 -0.707975447177886963
-0.214840501546859741 0.358081400394439697 -0.670122981071472168
0.170514509081840515 0.0945457667112350464 -0.390032142400741577
0.0327366925776004791 0.219316676259040833 -0.462912917137145996
-0.10343613475561142 0.398349493741989136 -0.509377419948577881
0.0217552781105041504 0.280145972967147827 -0.510757923126220703
-0.0449491068720817566 0.366709411144256592 -0.468213051557540894
-0.0278454367071390152 0.207389876246452332 -0.735954582691192627
0.0322948582470417023 0.168938726186752319 -0.487282872200012207
0.196294978260993958 0.0729459002614021301 -0.430438727140426636
-0.141245409846305847 0.195094883441925049 -0.841982603073120117
-0.0783350616693496704 0.200040116906166077 -0.815234839916229248
0.223220348358154297 0.00188313191756606102 -0.554337620735168457
0.0585425794124603271 0.195681095123291016 -0.522445201873779297
-0.198353543877601624 0.339218676090240479 -0.755523145198822021
-0.149224042892456055 0.298531532287597656 -0.827795743942260742
0.0723213478922843933 0.188507571816444397 -0.544463992118835449
0.0509134754538536072 0.183685570955276489 -0.596782028675079346
0.203984066843986511 0.0812941938638687134 -0.399342179298400879
0.127592504024505615 0.0761427879333496094 -0.623354971408843994
-0.136720374226570129 0.340222477912902832 -0.683497786521911621
0.125521481037139893 0.041203569620847702 -0.635795295238494873
0.113074116408824921 0.144999295473098755 -0.396440386772155762
-0.211907386779785156 0.310676842927932739 -0.720469176769256592
-0.0039170500822365284 0.213411673903465271 -0.668649196624755859
-0.180719494819641113 0.392558842897415161 -0.649076640605926514
0.0753226950764656067 0.144024267792701721 -0.470059990882873535
0.0718801096081733704 0.23498399555683136 -0.459756731986999512
-0.0119874579831957817 0.257805973291397095 -0.563556373119354248
-0.122550308704376221 0.224502235651016235 -0.832155406475067139
-0.0691740214824676514 0.202440395951271057 -0.770438969135284424
-0.0684111788868904114 0.295349419116973877 -0.498282194137573242
0.171841874718666077 0.167370766401290894 -0.4120444655418396
-0.0356358587741851807 0.32848021388053894 -0.452957838773727417
0.14914405345916748 0.123664841055870056 -0.411237388849258423
0.0574953518807888031 0.181237757205963135 -0.482630312442779541
-0.120333902537822723 0.273155450820922852 -0.758550107479095459
-0.0844652801752090454 0.161761939525604248 -0.796175539493560791
-0.0643021836876869202 0.221439510583877563 -0.634258508682250977
-0.0347968563437461853 0.148870453238487244 -0.725512146949768066
-0.139100134372711182 0.300884634256362915 -0.626280784606933594
-0.0155150918290019035 0.329688102006912231 -0.463599056005477905
-0.177127748727798462 0.244642540812492371 -0.81035691499710083
0.0794528573751449585 0.174881577491760254 -0.563371121883392334
0.147218748927116394 0.0749694481492042542 -0.527066946029663086
-0.108663648366928101 0.356730848550796509 -0.611842215061187744
-0.0150860659778118134 0.257872462272644043 -0.568238675594329834
0.16845405101776123 0.120607480406761169 -0.374428659677505493
-0.0461689122021198273 0.287869304418563843 -0.551062583923339844
-0.120575316250324249 0.343218356370925903 -0.546774685382843018
0.0974726453423500061 0.135354280471801758 -0.562650740146636963
0.0105371223762631416 0.219842895865440369 -0.555041670799255371
-0.229254037141799927 0.428670644760131836 -0.655494451522827148
0.00816789455711841583 0.164009645581245422 -0.610651314258575439
-0.0700331032276153564 0.211794808506965637 -0.774660885334014893
-0.177689731121063232 0.40933266282081604 -0.626875996589660645
-0.156109094619750977 0.335242569446563721 -0.718078732490539551
-0.141668453812599182 0.393398791551589966 -0.484501898288726807
0.0810852423310279846 0.186097323894500732 -0.509020686149597168
0.0777148306369781494 0.256441384553909302 -0.450451046228408813
-0.128430292010307312 0.212873697280883789 -0.786326050758361816
0.0288965422660112381 0.136913493275642395 -0.736340343952178955
-0.0034722078125923872 0.268463194370269775 -0.580286979675292969
0.105658106505870819 0.110543347895145416 -0.494979739189147949
-0.00188820564653724432 0.242177292704582214 -0.549155235290527344
-0.0964351892471313477 0.312585800886154175 -0.641326069831848145
-0.0455105341970920563 0.219815611839294434 -0.72039562463760376
-0.191609025001525879 0.420744508504867554 -0.509198963642120361
-0.0472375527024269104 0.310904383659362793 -0.447866082191467285
0.0951358973979949951 0.176301091909408569 -0.477141141891479492
-0.150598406791687012 0.218884602189064026 -0.816912472248077393
-0.0740901529788970947 0.355731695890426636 -0.50327068567276001
0.00723226368427276611 0.14670930802822113 -0.643666625022888184
-0.054430060088634491 0.133093520998954773 -0.769963741302490234
0.169357776641845703 0.00389663758687674999 -0.574589133262634277
0.15268293023109436 0.145259186625480652 -0.40784105658531189
-0.115973867475986481 0.240517139434814453 -0.802140951156616211
-0.033922925591468811 0.184315502643585205 -0.812987387180328369
0.125212743878364563 0.117507025599479675 -0.557417333126068115
0.0772268250584602356 0.182977825403213501 -0.515505135059356689
-0.0483257845044136047 0.228936329483985901 -0.6431846022605896
-0.0607560127973556519 0.262663394212722778 -0.532956063747406006
-0.0344995483756065369 0.258817374706268311 -0.494566410779953003
0.0488731823861598969 0.223020091652870178 -0.462072402238845825
-0.0588058829307556152 0.178469941020011902 -0.752113044261932373
-0.100196607410907745 0.274673491716384888 -0.718130052089691162
0.00223855744116008282 0.186463892459869385 -0.545912683010101318
0.0725619494915008545 0.080839894711971283 -0.577688634395599365
0.0629777908325195312 0.159324750304222107 -0.578276455402374268
-0.0485587455332279205 0.122012175619602203 -0.790344774723052979
0.190668448805809021 0.153267353773117065 -0.398345381021499634
0.16004142165184021 0.0319416671991348267 -0.508961498737335205
-0.100941523909568787 0.213299110531806946 -0.866737067699432373
-0.0247141327708959579 0.252667397260665894 -0.498706698417663574
-0.12243478000164032 0.187254071235656738 -0.876870870590209961
-0.201284125447273254 0.278130561113357544 -0.787613272666931152
-0.245444029569625854 0.422451585531234741 -0.56826472282409668
0.00654468405991792679 0.115760639309883118 -0.685170590877532959
-0.123789384961128235 0.305289864540100098 -0.596423327922821045
0.00334357819519937038 0.186760932207107544 -0.501221716403961182
0.0204748976975679398 0.187751784920692444 -0.58963465690612793
-0.0909880176186561584 0.28601682186126709 -0.664117693901062012
0.134944602847099304 0.19631551206111908 -0.430061876773834229
-0.136956647038459778 0.306221723556518555 -0.622739791870117188
0.0648539215326309204 0.192253246903419495 -0.563020288944244385
-0.0259589347988367081 0.252750039100646973 -0.613440752029418945
0.0314434245228767395 0.213995486497879028 -0.57480090856552124
-0.0252889245748519897 0.196531787514686584 -0.629498779773712158
-0.186831757426261902 0.351487606763839722 -0.592926979064941406
0.043589666485786438 0.275093287229537964 -0.485416948795318604
-0.0257885567843914032 0.171746030449867249 -0.7518729567527771
0.00590835604816675186 0.253258228302001953 -0.554775416851043701
-0.0537799559533596039 0.208977490663528442 -0.666369140148162842
-0.0711982399225234985 0.178860127925872803 -0.825483858585357666
-0.159153252840042114 0.381211161613464355 -0.620615959167480469
0.035813305526971817 0.137346088886260986 -0.70134347677230835
0.0613030977547168732 0.118011474609375 -0.591283798217773438
-0.0913786664605140686 0.168014317750930786 -0.841659486293792725
-0.00866927206516265869 0.241460308432579041 -0.630520224571228027
-0.168020188808441162 0.276617079973220825 -0.734274744987487793
-0.049055103212594986 0.356469959020614624 -0.448538810014724731
-0.0378720983862876892 0.281356960535049438 -0.575379133224487305
0.00626269960775971413 0.215653300285339355 -0.561344444751739502
-0.132224366068840027 0.177066370844841003 -0.864858508110046387
-0.0531281866133213043 0.198533549904823303 -0.807752370834350586
-0.126924246549606323 0.335531473159790039 -0.615197360515594482
-0.191123649477958679 0.421527326107025146 -0.604284763336181641
0.19250565767288208 0.0256199371069669724 -0.596028268337249756
-0.108050093054771423 0.260387599468231201 -0.743702113628387451
-0.14792226254940033 0.285238713026046753 -0.666994333267211914
0.142414256930351257 0.104541577398777008 -0.46779024600982666
-0.0255330298095941544 0.279872149229049683 -0.474528491497039795
-0.131143540143966675 0.398977786302566528 -0.57057112455368042
-0.0758483782410621643 0.302978157997131348 -0.500790059566497803
0.0798038169741630554 0.20027594268321991 -0.447488963603973389
0.159682139754295349 0.160087704658508301 -0.393664389848709106
0.0533704161643981934 0.129771038889884949 -0.640341401100158691
-0.173706367611885071 0.286343574523925781 -0.6946297287940979
-0.180010825395584106 0.348621010780334473 -0.639423489570617676
-0.180307880043983459 0.246108919382095337 -0.837697923183441162
0.110060445964336395 0.0674781352281570435 -0.54143911600112915
-0.0878812670707702637 0.239074662327766418 -0.71373218297958374
-0.0457325167953968048 0.128615215420722961 -0.792920351028442383
-0.166965648531913757 0.348383069038391113 -0.616674900054931641
-0.0573993735015392303 0.161050647497177124 -0.772253930568695068
-0.112645283341407776 0.244430780410766602 -0.801672101020812988
-0.0589068643748760223 0.26842692494392395 -0.636635482311248779
0.0582932978868484497 0.163818031549453735 -0.592620432376861572
-0.130664080381393433 0.391657501459121704 -0.537472784519195557
0.102676711976528168 0.146387219429016113 -0.400311589241027832
-0.0325927175581455231 0.238329976797103882 -0.592228233814239502
0.0894908979535102844 0.184621751308441162 -0.456163644790649414
-0.105361863970756531 0.321287572383880615 -0.5576133131980896
-0.0758972913026809692 0.321089059114456177 -0.505879342555999756
-0.0207144822925329208 0.212294474244117737 -0.595177412033081055
0.0193988233804702759 0.208682313561439514 -0.449969053268432617
-0.20337185263633728 0.289909809827804565 -0.759128391742706299
-0.209038153290748596 0.343643605709075928 -0.67205965518951416
-0.00698949443176388741 0.28093266487121582 -0.524776875972747803
-0.225632280111312866 0.459258139133453369 -0.581284523010253906
0.0868963822722434998 0.21774686872959137 -0.492764800786972046
-0.00657171942293643951 0.148892104625701904 -0.702038943767547607
-0.0833734199404716492 0.212731003761291504 -0.646280527114868164
0.0945174023509025574 0.0980824679136276245 -0.53211134672164917
0.259380221366882324 0.0546734258532524109 -0.39032396674156189
-0.0822805538773536682 0.23366062343120575 -0.711891055107116699
-0.128930315375328064 0.427636861801147461 -0.496386438608169556
0.10731922835111618 0.0757621899247169495 -0.566255509853363037
-0.17877449095249176 0.270733505487442017 -0.800671517848968506
-0.0762793943285942078 0.180930718779563904 -0.812798857688903809
0.187122613191604614 0.0985495969653129578 -0.402103185653686523
0.0419678837060928345 0.110649272799491882 -0.669437289237976074
0.218525156378746033 0.0896156132221221924 -0.371149361133575439
0.123242743313312531 0.153742149472236633 -0.509479522705078125
0.190596386790275574 0.10218387097120285 -0.406291604042053223
0.152414217591285706 0.0659199133515357971 -0.551814138889312744
-0.128008708357810974 0.216199144721031189 -0.858708202838897705
0.00245036836713552475 0.164183735847473145 -0.639373183250427246
0.0503765121102333069 0.210101261734962463 -0.559288859367370605
-0.042017769068479538 0.250407576560974121 -0.624413788318634033
-0.0391931161284446716 0.262682825326919556 -0.647970676422119141
-0.210882812738418579 0.479669451713562012 -0.612928569316864014
-0.0699140280485153198 0.270141750574111938 -0.601556777954101562
-0.160780519247055054 0.337187916040420532 -0.718441307544708252
-0.0407710857689380646 0.277478396892547607 -0.473503440618515015
0.0751998499035835266 0.224660813808441162 -0.485969573259353638
0.155839622020721436 0.0614211857318878174 -0.535046100616455078
0.141837313771247864 0.125266537070274353 -0.507142841815948486
0.0492091439664363861 0.219741076231002808 -0.485452800989151001
-0.0921261981129646301 0.23644903302192688 -0.790304303169250488
-0.106694221496582031 0.254157394170761108 -0.77650141716003418
0.0350866764783859253 0.303820759057998657 -0.451768636703491211
0.0027043255977332592 0.190892338752746582 -0.659536540508270264
-0.141724109649658203 0.291396468877792358 -0.784049689769744873
-0.236183956265449524 0.450172752141952515 -0.627438068389892578
-0.134373188018798828 0.233588233590126038 -0.798614859580993652
0.00511989975348114967 0.292342543601989746 -0.466993957757949829
-0.040797695517539978 0.26332131028175354 -0.587979018688201904
-0.157846301794052124 0.356800854206085205 -0.573955178260803223
-0.0516798682510852814 0.142455399036407471 -0.827142715454101562
-0.0049695759080350399 0.236924260854721069 -0.595363378524780273
0.0673764348030090332 0.233696728944778442 -0.522453606128692627
0.173877760767936707 0.0948346704244613647 -0.449359923601150513
-0.0386735871434211731 0.259191125631332397 -0.531288385391235352
0.194636836647987366 0.0642798468470573425 -0.411544561386108398
-0.021036958321928978 0.198779836297035217 -0.686681807041168213
0.101628899574279785 0.146555393934249878 -0.579428315162658691
-0.0898809581995010376 0.292280673980712891 -0.542696774005889893
0.0294812619686126709 0.117228977382183075 -0.751801729202270508
0.227407097816467285 0.0921686217188835144 -0.423377752304077148
-0.210436031222343445 0.466104000806808472 -0.579861760139465332
0.0373275168240070343 0.213079571723937988 -0.50711822509765625
-0.235694915056228638 0.370837360620498657 -0.712287247180938721
-0.15559794008731842 0.352782189846038818 -0.561420679092407227
0.155409753322601318 0.0320354700088500977 -0.534547090530395508
0.084604211151599884 0.09535188227891922 -0.590558111667633057
-0.106946766376495361 0.193152546882629395 -0.82871091365814209
0.0221501048654317856 0.125185459852218628 -0.711389362812042236
-0.157834261655807495 0.261446744203567505 -0.841891348361968994
-0.0252913311123847961 0.10331214964389801 -0.788219213485717773
0.155197501182556152 0.0933874547481536865 -0.506112873554229736
-0.145553380250930786 0.236605346202850342 -0.745946824550628662
-0.13544483482837677 0.261004626750946045 -0.705380141735076904
-0.0375187620520591736 0.199325293302536011 -0.663357853889465332
-0.0105814067646861076 0.146012678742408752 -0.726441621780395508
0.0164069086313247681 0.129209890961647034 -0.763467848300933838
-0.04940047487616539 0.140906885266304016 -0.741859614849090576
-0.123941883444786072 0.329952746629714966 -0.702955186367034912
-0.0352969393134117126 0.302730709314346313 -0.545513451099395752
-0.194620832800865173 0.459664314985275269 -0.556217193603515625
-0.0930455923080444336 0.273440569639205933 -0.67854994535446167
-0.0236848983913660049 0.182969912886619568 -0.704490482807159424
0.0556246191263198853 0.119970120489597321 -0.593727350234985352
0.0427504517138004303 0.143595322966575623 -0.563987016677856445
-0.18906305730342865 0.444620281457901001 -0.472818195819854736
0.0503671430051326752 0.173087239265441895 -0.598473548889160156
-0.104257352650165558 0.266427695751190186 -0.664898574352264404
-0.0344817154109477997 0.264024108648300171 -0.57993018627166748
-0.0824751108884811401 0.303872227668762207 -0.651699483394622803
-0.230002641677856445 0.399968832731246948 -0.678242087364196777
0.213973879814147949 -0.0132045354694128036 -0.524117052555084229
0.126831769943237305 0.138253301382064819 -0.539265453815460205
-0.0797791332006454468 0.263453125953674316 -0.716924369335174561
-0.00585281290113925934 0.103290878236293793 -0.758440017700195312
-0.000191876650205813348 0.175403565168380737 -0.718791961669921875
-0.239716619253158569 0.398309826850891113 -0.631255149841308594
0.29327082633972168 0.0719196349382400513 -0.392349183559417725
-0.187323540449142456 0.29478868842124939 -0.740736603736877441
0.0971944853663444519 0.135078474879264832 -0.529949426651000977
0.0249450821429491043 0.278251856565475464 -0.468396306037902832
0.140462711453437805 0.125015929341316223 -0.393191218376159668
-0.210834681987762451 0.46902504563331604 -0.518217861652374268
-0.0908991023898124695 0.298413187265396118 -0.60989457368850708
-0.0525497868657112122 0.265796810388565063 -0.495805710554122925
-0.245633587241172791 0.409992039203643799 -0.673836648464202881
-0.172600477933883667 0.467640876770019531 -0.56160503625869751
-0.100009173154830933 0.358951658010482788 -0.585893809795379639
0.121086128056049347 0.0658412203192710876 -0.52364426851272583
-0.112551912665367126 0.287206023931503296 -0.608475923538208008
0.249863862991333008 0.080190613865852356 -0.376867055892944336
-0.103540793061256409 0.351840496063232422 -0.587441861629486084
0.128351658582687378 0.0911934152245521545 -0.514486968517303467
-0.0197790991514921188 0.299450457096099854 -0.55220484733581543
-0.0279673226177692413 0.245694965124130249 -0.558350443840026855
-0.138018220663070679 0.409999042749404907 -0.525368750095367432
0.048334117978811264 0.16703052818775177 -0.507484495639801025
-0.0487148202955722809 0.24011586606502533 -0.703836679458618164
0.0533623620867729187 0.15549759566783905 -0.533288896083831787
0.00281733251176774502 0.232020437717437744 -0.554163694381713867
-0.225871667265892029 0.428947180509567261 -0.584517598152160645
0.176748320460319519 0.123889513313770294 -0.401269584894180298
-0.181231662631034851 0.442839950323104858 -0.501000285148620605
-0.0649439617991447449 0.194349810481071472 -0.803383111953735352
-0.0691145956516265869 0.205470159649848938 -0.656804025173187256
-0.142496362328529358 0.280720710754394531 -0.654507577419281006
0.145292699337005615 0.101703308522701263 -0.585381805896759033
-0.0679082199931144714 0.161818504333496094 -0.866390109062194824
-0.0284480471163988113 0.17607608437538147 -0.648554086685180664
0.0625177249312400818 0.143297940492630005 -0.539396703243255615
-0.029345393180847168 0.139809980988502502 -0.78113853931427002
0.0706161037087440491 0.177911430597305298 -0.504232227802276611
0.00882620178163051605 0.25478816032409668 -0.606644392013549805
-0.228417307138442993 0.386349469423294067 -0.659908890724182129
-0.011590481735765934 0.232681825757026672 -0.577696263790130615
-0.170228853821754456 0.394606798887252808 -0.628625631332397461
-0.0160294491797685623 0.178946137428283691 -0.711746156215667725
-0.204182237386703491 0.382480859756469727 -0.727550983428955078
-0.211801782250404358 0.350268810987472534 -0.722577333450317383
-0.1138286292552948 0.352141767740249634 -0.481456130743026733
0.0112229529768228531 0.242850616574287415 -0.435395210981369019
0.00377115071751177311 0.169518828392028809 -0.68959963321685791
0.0654382631182670593 0.130646750330924988 -0.583982288837432861
0.226802453398704529 0.0258297007530927658 -0.526812255382537842
-0.194844543933868408 0.309685975313186646 -0.766957879066467285
0.0478459298610687256 0.203885093331336975 -0.516617238521575928
-0.0174915846437215805 0.22854238748550415 -0.564031362533569336
0.266968578100204468 0.0839031338691711426 -0.375645846128463745
-0.211710765957832336 0.429581612348556519 -0.624856710433959961
-0.101643681526184082 0.254344731569290161 -0.678270220756530762
-0.00602201791480183601 0.112147927284240723 -0.727583110332489014
0.0569587722420692444 0.150519609451293945 -0.642786026000976562
0.178501054644584656 0.142023146152496338 -0.450361669063568115
-0.164576888084411621 0.388860970735549927 -0.526960134506225586
-0.142802909016609192 0.261764496564865112 -0.770321011543273926
0.00847863219678401947 0.128426715731620789 -0.754566013813018799
-0.0399341471493244171 0.127970501780509949 -0.773008763790130615
-0.169794902205467224 0.374536484479904175 -0.635007202625274658
-0.152881413698196411 0.364789843559265137 -0.528330981731414795
-0.132589459419250488 0.422520637512207031 -0.509301483631134033
0.0373760052025318146 0.116846233606338501 -0.647774875164031982
-0.077334083616733551 0.30651390552520752 -0.640127182006835938
-0.144848302006721497 0.398057639598846436 -0.619517207145690918
-0.146140888333320618 0.315710484981536865 -0.725999951362609863
0.022870013490319252 0.105524100363254547 -0.690774857997894287
-0.188256636261940002 0.385964661836624146 -0.598908066749572754
0.0863932743668556213 0.107779711484909058 -0.530689775943756104
0.0386550985276699066 0.252237617969512939 -0.490275561809539795
-0.0636271089315414429 0.282327085733413696 -0.602212071418762207
-0.0300492588430643082 0.215930372476577759 -0.644169449806213379
0.14361158013343811 0.120932526886463165 -0.454977869987487793
0.00952299777418375015 0.246333375573158264 -0.569870233535766602
-0.182721704244613647 0.25835716724395752 -0.778478562831878662
-0.118073970079421997 0.272036224603652954 -0.644864499568939209
0.110896460711956024 0.133900254964828491 -0.409232586622238159
-0.0445666313171386719 0.207343369722366333 -0.677962243556976318
-0.129792675375938416 0.260467678308486938 -0.815328717231750488
-0.125239446759223938 0.374584197998046875 -0.561380743980407715
-0.0123616987839341164 0.229530513286590576 -0.490864783525466919
-0.0598976686596870422 0.290372490882873535 -0.58212202787399292
-0.0484932027757167816 0.134644791483879089 -0.776896655559539795
-0.0380931831896305084 0.214098960161209106 -0.63388526439666748
-0.0896538421511650085 0.344704866409301758 -0.553838968276977539
-0.146742314100265503 0.397287309169769287 -0.593835353851318359
-0.00176831916905939579 0.101665526628494263 -0.699640154838562012
-0.00898341089487075806 0.115304835140705109 -0.75512993335723877
-0.100389622151851654 0.15270465612411499 -0.822704970836639404
0.0047900923527777195 0.222869589924812317 -0.587971031665802002
-0.063111528754234314 0.235322162508964539 -0.643802464008331299
-0.200499564409255981 0.368856549263000488 -0.631666302680969238
0.0366227626800537109 0.201797604560852051 -0.501223981380462646
-0.0115526383742690086 0.224272578954696655 -0.642436027526855469
-0.0288197286427021027 0.26475989818572998 -0.556162178516387939
-0.0801640674471855164 0.224216356873512268 -0.789131283760070801
-0.132542237639427185 0.223908141255378723 -0.861646294593811035
0.232872143387794495 -0.00130882824305444956 -0.547357141971588135
-0.062771238386631012 0.291385918855667114 -0.506016790866851807
0.0879373624920845032 0.188493728637695312 -0.463659822940826416
0.141674578189849854 0.05993695929646492 -0.554713845252990723
0.0764148235321044922 0.0864240080118179321 -0.61667710542678833
0.0137274684384465218 0.227293968200683594 -0.570379793643951416
0.181848958134651184 0.100375883281230927 -0.457387268543243408
-0.206342294812202454 0.397006720304489136 -0.685322999954223633
-0.0821057930588722229 0.286796808242797852 -0.698453009128570557
0.176147416234016418 0.120449140667915344 -0.433656692504882812
-0.09069061279296875 0.173627570271492004 -0.853477835655212402
-0.165077716112136841 0.46513327956199646 -0.521407663822174072
-0.0160709377378225327 0.196340814232826233 -0.58955848217010498
-0.113410957157611847 0.299429088830947876 -0.73746258020401001
0.120151884853839874 0.15659034252166748 -0.397505342960357666
-0.116099141538143158 0.341545939445495605 -0.474600344896316528
0.114748649299144745 0.209407567977905273 -0.429005146026611328
0.0311984233558177948 0.234237253665924072 -0.431323736906051636
0.057929161936044693 0.248555541038513184 -0.431261956691741943
0.116090796887874603 0.124529846012592316 -0.468878954648971558
-0.013141104020178318 0.293423563241958618 -0.605628132820129395
-0.187930762767791748 0.334734141826629639 -0.720495402812957764
-0.189945042133331299 0.35135948657989502 -0.74417954683303833
-0.0673573687672615051 0.259436041116714478 -0.680787086486816406
0.0702549219131469727 0.219399675726890564 -0.415832877159118652
0.0082624414935708046 0.24342915415763855 -0.565567314624786377
-0.171966686844825745 0.432749390602111816 -0.588313937187194824
0.0403678789734840393 0.255922764539718628 -0.506538629531860352
