ply
format ascii 1.0
element vertex 717
property float x
property float y
property float z
end_header
-0.165688544511795044 -0.728319287300109863 0.0223973356187343597
0.151656046509742737 0.816201210021972656 -0.0170038323849439621
0.139700144529342651 0.827341794967651367 -0.0734796971082687378
0.15531669557094574 0.638262450695037842 -0.0118435211479663849
-0.161768808960914612 -0.66886436939239502 0.0292488802224397659
0.125979512929916382 -0.650803327560424805 -0.0709628164768218994
0.00968101434409618378 -0.508739113807678223 0.0653746873140335083
-0.0122672552242875099 -0.529871821403503418 0.0175008326768875122
0.00376888969913125038 0.386720359325408936 -0.145221367478370667
0.0406778641045093536 -0.191806793212890625 -0.0237020459026098251
0.0018905256874859333 -0.568481206893920898 -0.168383166193962097
0.0538627244532108307 0.0405411012470722198 0.0426805727183818817
0.0327963866293430328 0.0332344397902488708 0.00404895562678575516
-0.106437638401985168 -0.581368088722229004 -0.128834202885627747
0.0576441287994384766 0.0346501506865024567 0.0231320597231388092
0.0906645655632019043 -0.703523099422454834 -0.118314072489738464
0.129691258072853088 0.219453096389770508 0.027750084176659584
-0.174211487174034119 -0.624063551425933838 0.0328044593334197998
0.134490758180618286 -0.590895950794219971 -0.0743432193994522095
0.0711136385798454285 0.516359448432922363 -0.069121822714805603
0.132997378706932068 -0.740133941173553467 -0.0191574171185493469
0.0316359847784042358 0.156644836068153381 0.000537874293513596058
0.148539483547210693 -0.638131320476531982 -0.0727384462952613831
0.0625786781311035156 0.304039478302001953 -0.15820176899433136
0.0191839616745710373 0.174845099449157715 -0.0106267668306827545
0.105893984436988831 0.63089364767074585 -0.00320466584526002407
0.100803747773170471 0.400022149085998535 -0.0700814574956893921
0.0994601696729660034 0.427745521068572998 -0.0239289980381727219
0.0501663237810134888 -0.779861629009246826 -0.132151052355766296
0.066140592098236084 -0.0904474556446075439 -0.000899801147170364857
0.0293981637805700302 -0.51006615161895752 0.0102071994915604591
0.146739184856414795 -0.657158970832824707 -0.0264272149652242661
-0.0271906126290559769 0.679102540016174316 -0.150707826018333435
-0.00434004794806241989 -0.695072293281555176 0.136455520987510681
-0.00405136216431856155 -0.383640050888061523 0.0518893115222454071
0.289763927459716797 0.778806746006011963 -0.00726636731997132301
0.0533754788339138031 -0.732023417949676514 0.0944725349545478821
-0.071752399206161499 -0.566078722476959229 -0.0932408198714256287
-0.150411263108253479 -0.57117307186126709 -0.0254366863518953323
-0.0358109958469867706 -0.0873066410422325134 0.00136711634695529938
-0.14937986433506012 -0.565616011619567871 -0.0578074678778648376
-0.140309154987335205 -0.561963498592376709 0.0696930885314941406
-0.097552083432674408 -0.725762426853179932 0.122122563421726227
-0.0443791300058364868 -0.796692967414855957 -0.0172667335718870163
0.00946779176592826843 -0.48067823052406311 -0.00316933728754520416
-0.0143664004281163216 -0.779418706893920898 0.103496648371219635
0.0269728228449821472 0.289641261100769043 -0.00270856916904449463
-0.0201504100114107132 -0.119813412427902222 0.0635265931487083435
-0.0811810269951820374 -0.55898892879486084 -0.100578583776950836
0.0930445417761802673 0.769530653953552246 -0.100008025765419006
-0.00475590117275714874 0.538691997528076172 -0.0369222648441791534
-0.0484682843089103699 0.120942488312721252 -0.00940764322876930237
0.0470756255090236664 0.236530855298042297 -0.0274430736899375916
0.195355907082557678 0.694882333278656006 -0.0120786754414439201
0.202894538640975952 0.702067255973815918 -0.00330073642544448376
0.217889636754989624 0.879036545753479004 -0.195706069469451904
0.0445052199065685272 0.116054743528366089 0.0100588677451014519
0.076720409095287323 -0.758220911026000977 0.101471744477748871
-0.0669311210513114929 -0.781693339347839355 -0.0775273591279983521
0.216950520873069763 0.969447195529937744 -0.164490222930908203
-0.0688464641571044922 -0.701498985290527344 -0.161980018019676208
-0.115597046911716461 0.178283706307411194 -0.041890271008014679
-0.0162941813468933105 -0.573291182518005371 -0.111319310963153839
0.0936006829142570496 -0.561166822910308838 0.0521972477436065674
0.0867824777960777283 0.178664237260818481 -0.0304345730692148209
0.00914524495601654053 -0.651462972164154053 0.130110174417495728
0.0526504330337047577 -0.718229949474334717 -0.178339764475822449
0.149034202098846436 0.849370419979095459 -0.044549994170665741
-0.162176951766014099 -0.539950966835021973 0.0292749684303998947
0.0604306720197200775 -0.787258625030517578 0.0953449979424476624
0.0294584706425666809 -0.784056425094604492 -0.0144104985520243645
-0.0708047598600387573 0.0215719770640134811 -0.0866800472140312195
-0.0217638760805130005 -0.57351374626159668 -0.165207475423812866
-0.114281609654426575 -0.619841694831848145 -0.124204955995082855
-0.0867042839527130127 0.502398788928985596 -0.113471083343029022
-0.0276832301169633865 0.150475427508354187 -0.0648230463266372681
0.0629384145140647888 -0.572474181652069092 -0.077496647834777832
-0.0240889396518468857 -0.685232639312744141 -0.187133044004440308
-0.168292388319969177 -0.659644424915313721 0.0321228951215744019
0.0666591301560401917 -0.564899682998657227 0.0908981859683990479
0.0569248348474502563 -0.785134375095367432 -0.139077171683311462
-0.0454510971903800964 0.614456236362457275 -0.136641800403594971
0.107963986694812775 0.690377652645111084 -0.0583974346518516541
-0.0482386313378810883 -0.580719053745269775 0.0979888811707496643
-0.0102530093863606453 -0.58097463846206665 0.07617197185754776
-0.0797806978225708008 -0.0283132176846265793 -0.0643288418650627136
-0.145916283130645752 -0.681257963180541992 -0.12370782345533371
0.128549590706825256 0.242054373025894165 0.0195056628435850143
0.0276447944343090057 -0.0516490936279296875 -0.0183840431272983551
-0.165711209177970886 -0.76469188928604126 -0.0391683392226696014
0.0234879143536090851 0.200992166996002197 0.00799288507550954819
0.0526579171419143677 -0.573569118976593018 -0.0374318920075893402
-0.121181398630142212 -0.685791492462158203 -0.100334182381629944
0.167962446808815002 0.488430529832839966 -0.0288443919271230698
0.00883852690458297729 -0.35382002592086792 0.043095029890537262
0.0698948726058006287 0.523532986640930176 -0.0415938682854175568
-0.00506844930350780487 0.126604214310646057 -0.0133557617664337158
0.215158626437187195 0.629221081733703613 -0.0260551068931818008
0.0637682080268859863 0.756599903106689453 -0.163747668266296387
-0.0812569260597229004 -0.573535621166229248 0.0530463233590126038
-0.126623749732971191 -0.659995615482330322 0.0947815403342247009
0.127039417624473572 -0.534268617630004883 0.0315151959657669067
0.0876278281211853027 -0.76142275333404541 -0.0950007811188697815
0.00964080821722745895 0.379218310117721558 -0.157152250409126282
0.0587160401046276093 0.100885406136512756 0.0158736538141965866
-0.0532572343945503235 -0.583137869834899902 -0.106849275529384613
-0.0906955674290657043 0.0965309888124465942 -0.0683144927024841309
0.0909672677516937256 0.727984249591827393 -0.088862590491771698
0.0951205119490623474 -0.720379352569580078 0.0706780850887298584
-0.162089183926582336 -0.704212307929992676 0.0482618957757949829
0.14026111364364624 -0.697925090789794922 -0.0525762811303138733
0.0812419727444648743 -0.0902233272790908813 -0.0609715580940246582
-0.0767916664481163025 -0.775210082530975342 0.0426832549273967743
0.0687705427408218384 -0.260441780090332031 0.00399987725540995598
0.126752212643623352 0.723183751106262207 -0.100638262927532196
-0.0424718186259269714 0.161695107817649841 0.0195474307984113693
0.0431253239512443542 0.245078310370445251 -0.0558484829962253571
-0.0458771809935569763 -0.76301652193069458 0.14110545814037323
-0.0269452799111604691 -0.583418548107147217 -0.140536680817604065
0.131741032004356384 -0.719283223152160645 -0.0498115979135036469
0.0429418347775936127 -0.393214583396911621 0.000366047577699646354
0.0601422972977161407 0.0367404147982597351 -0.0218451078981161118
0.0440351925790309906 0.139427587389945984 -0.0673025324940681458
-0.143930837512016296 -0.621437907218933105 0.0699274837970733643
0.0505232550203800201 -0.144753396511077881 0.00564692402258515358
-0.165165022015571594 -0.623870909214019775 -0.0129557913169264793
0.0924577265977859497 -0.583442807197570801 -0.134864762425422668
0.12144044041633606 -0.669659733772277832 0.0582373142242431641
0.11639702320098877 -0.756670236587524414 -0.0650315359234809875
0.0982527211308479309 -0.0904274135828018188 -0.111989058554172516
0.121670536696910858 0.468806356191635132 0.0037408310454338789
0.00482590403407812119 0.346252769231796265 -0.150535851716995239
0.142381370067596436 0.581363499164581299 -0.0213869567960500717
0.115580327808856964 -0.038225516676902771 -0.100154802203178406
0.116326421499252319 -0.607916891574859619 0.0576951615512371063
-0.173672333359718323 -0.586984574794769287 -0.021946590393781662
-0.131719529628753662 -0.597783148288726807 -0.120639637112617493
0.121733896434307098 0.269430220127105713 0.0243770070374011993
-0.110006131231784821 -0.777661502361297607 -0.0884031951427459717
-0.0228127036243677139 -0.462025344371795654 -0.00123053230345249176
0.0341211408376693726 -0.580157101154327393 0.0973823145031929016
-0.173905640840530396 -0.674246430397033691 0.0123708993196487427
0.10578802227973938 0.638776063919067383 -0.0661276355385780334
0.0286778323352336884 -0.409716814756393433 0.012783341109752655
0.0805826783180236816 -0.691176116466522217 0.0880798548460006714
0.0730280056595802307 -0.554215848445892334 -0.0613827258348464966
0.0957296118140220642 -0.571531176567077637 -0.124721154570579529
0.0770592465996742249 0.22319968044757843 0.0282550547271966934
0.0311158504337072372 -0.77039039134979248 -0.120040260255336761
-0.0534099116921424866 0.0238297227770090103 -0.0565886534750461578
0.0369348153471946716 -0.215831980109214783 0.00210131891071796417
0.0674926713109016418 0.32782900333404541 -0.0571418926119804382
-0.15229526162147522 -0.693536937236785889 0.088940642774105072
-0.15797048807144165 -0.766296744346618652 0.0604983195662498474
-0.0635275542736053467 -0.573680341243743896 -0.0217980369925498962
-0.00231477012857794762 -0.00285495002754032612 -0.020947139710187912
-0.0671200156211853027 0.243476390838623047 -0.0787499696016311646
0.112440526485443115 -0.724897503852844238 -0.126392573118209839
-0.170368209481239319 -0.60996931791305542 0.0336591042578220367
-0.00525180157274007797 -0.780516088008880615 0.109667226672172546
0.250068217515945435 0.293969243764877319 0.00186357612255960703
-0.183625355362892151 -0.609754502773284912 -0.0489057339727878571
7.12417095201089978e-05 0.237755909562110901 -0.0613816864788532257
0.1047477126121521 -0.58275526762008667 -0.0987572595477104187
0.0531973093748092651 -0.0648639798164367676 -0.0099521176889538765
0.161363571882247925 0.164312660694122314 0.0128518091514706612
-0.0119087910279631615 -0.575216054916381836 -0.0970188602805137634
0.0732864364981651306 -0.0456002801656723022 -0.0476723611354827881
-0.151529803872108459 -0.561088800430297852 0.01184865552932024
0.0418693944811820984 0.124845646321773529 -0.0184180550277233124
0.0490485318005084991 0.410137146711349487 -0.112703479826450348
-0.185877159237861633 -0.679515182971954346 -0.0616082549095153809
0.143012464046478271 0.63714289665222168 0.00784145761281251907
0.109670199453830719 0.712905526161193848 -0.0306037552654743195
0.201507315039634705 0.916513502597808838 -0.102628022432327271
0.118352614343166351 -0.785309016704559326 -0.0725789740681648254
0.0721413791179656982 -0.7914772629737854 0.0884348750114440918
0.0122400317341089249 -0.577044188976287842 -0.13683415949344635
0.0187881812453269958 0.238716930150985718 -0.0323386117815971375
-0.00427098805084824562 -0.732522249221801758 0.138188987970352173
0.0608888044953346252 -0.561813175678253174 0.109482675790786743
-0.0172834228724241257 0.180755451321601868 -0.0582383014261722565
-0.0788139253854751587 -0.782841205596923828 -0.144573047757148743
-0.00596885476261377335 0.292989432811737061 -0.00361154554411768913
-0.15199686586856842 -0.789678335189819336 0.0214857775717973709
0.0507592186331748962 -0.793658614158630371 -0.0512379072606563568
0.00444008596241474152 0.383390069007873535 -0.182241886854171753
-0.123915240168571472 -0.571731805801391602 0.0616652593016624451
0.070949256420135498 -0.768329441547393799 -0.146095126867294312
-0.023421144112944603 -0.58697742223739624 0.143041789531707764
0.11469307541847229 -0.715539932250976562 -0.0722562521696090698
-0.0151588749140501022 -0.263848602771759033 -0.0106168603524565697
0.264900118112564087 0.845617175102233887 -0.00731772230938076973
-0.0961941927671432495 -0.590619504451751709 0.0794452428817749023
-0.0734767541289329529 0.419959366321563721 -0.192002058029174805
-0.0310547295957803726 -0.130935564637184143 -0.00744535867124795914
0.10433264821767807 -0.574168801307678223 -0.0572594404220581055
0.0166780278086662292 0.270519405603408813 -0.102040357887744904
-0.071854911744594574 0.520871281623840332 -0.142769172787666321
0.186963021755218506 0.248266339302062988 0.013024614192545414
0.07522553950548172 0.453220784664154053 0.0263436976820230484
-0.0244950149208307266 -0.770024240016937256 -0.12037523090839386
0.0520744025707244873 -0.11559760570526123 -0.0110618975013494492
-0.138758182525634766 -0.646149575710296631 0.0801081433892250061
-0.0501421503722667694 -0.57916712760925293 -0.0109629491344094276
-0.00963542889803647995 -0.526407301425933838 0.0151636181399226189
-0.00140445411670953035 0.165039345622062683 -0.0245401319116353989
0.135827913880348206 0.889721333980560303 -0.0469999834895133972
0.158327251672744751 0.314016878604888916 0.00175930059049278498
-0.00493864947929978371 -0.581121325492858887 -0.113217338919639587
-0.0602131076157093048 0.199324309825897217 -0.14694136381149292
0.266584962606430054 0.290052801370620728 -0.0216003935784101486
0.136663466691970825 -0.580513298511505127 0.0211862530559301376
0.0837088301777839661 -0.560698509216308594 0.0652969852089881897
0.0220648832619190216 0.0549105517566204071 0.018541727215051651
0.0468085780739784241 0.414093255996704102 -0.0133920256048440933
0.0124170538038015366 -0.4244803786277771 0.0162160694599151611
0.0419492200016975403 -0.779334187507629395 -0.00563035858795046806
0.102332577109336853 -0.0748300626873970032 -0.0712665468454360962
0.0143758580088615417 -0.76868969202041626 -0.153747498989105225
-0.00568632455542683601 -0.770659089088439941 -0.0456764064729213715
0.171799734234809875 0.238088324666023254 0.0555835552513599396
-0.0794029012322425842 0.142548084259033203 -0.0252553541213274002
0.0356391109526157379 0.196324065327644348 0.0210308842360973358
-0.0543585978448390961 0.589309275150299072 -0.167822033166885376
0.126138627529144287 0.177441224455833435 0.0204347576946020126
0.104534998536109924 -0.553977429866790771 0.0234641004353761673
0.370971620082855225 0.282973587512969971 -0.00837252195924520493
-0.112318724393844604 -0.573405981063842773 -0.0442434512078762054
-0.00884062331169843674 -0.302123159170150757 0.0151952626183629036
0.0187454260885715485 -0.338341385126113892 0.0276367012411355972
0.00695962458848953247 -0.788092195987701416 -0.0541680082678794861
0.0501783452928066254 0.193092718720436096 -0.053111054003238678
0.058257024735212326 0.116746783256530762 -0.0148871047422289848
0.0222338046878576279 0.15383736789226532 -0.0266011487692594528
0.190996825695037842 0.574723601341247559 -0.0106311552226543427
0.0605529583990573883 -0.0892355367541313171 -0.0254171397536993027
0.12205766886472702 -0.704139828681945801 -0.0119884144514799118
0.0871736779808998108 0.48134082555770874 -0.0928054526448249817
0.147022247314453125 0.155169084668159485 0.00356215424835681915
-0.167193293571472168 -0.731602013111114502 -0.0316869392991065979
-0.167789652943611145 -0.599721252918243408 -0.0187690015882253647
-0.0803185403347015381 0.470331460237503052 -0.214841738343238831
-0.18434886634349823 -0.601358473300933838 -0.0103193167597055435
-0.0254919026046991348 -0.0451386906206607819 -0.0476467795670032501
-0.103496834635734558 0.470660686492919922 -0.134853631258010864
-0.131318673491477966 -0.60125964879989624 0.0893899723887443542
-0.0242848210036754608 -0.101964756846427917 0.0100655807182192802
-0.0133893266320228577 -0.468764364719390869 0.00635132193565368652
0.183856606483459473 0.865529656410217285 -0.148511692881584167
-0.039800059050321579 -0.0387021340429782867 0.00231950264424085617
-0.00356662529520690441 -0.267901629209518433 0.0383481606841087341
-0.0433198623359203339 -0.0310745891183614731 -0.0452252849936485291
0.208250001072883606 0.838642299175262451 0.00608236156404018402
0.130524918437004089 -0.782975196838378906 -0.0864943787455558777
0.126995652914047241 -0.576995134353637695 -0.0231137685477733612
0.00334464246407151222 -0.582221388816833496 0.119383744895458221
0.10330953449010849 -0.601399660110473633 0.10840296745300293
-0.14408537745475769 -0.59173738956451416 0.0720715299248695374
-0.158543750643730164 -0.64577561616897583 0.0126039590686559677
0.0521911270916461945 0.521511614322662354 -0.0119935097172856331
-0.092473939061164856 -0.73163837194442749 -0.168984726071357727
-0.000946783926337957382 0.209052324295043945 -0.0282838605344295502
-0.170978128910064697 -0.695781230926513672 -0.0873012393712997437
-0.0650131106376647949 0.565073966979980469 -0.0937899425625801086
-0.0168878380209207535 -0.355582654476165771 0.000951171095948666334
-0.152023047208786011 -0.573194921016693115 0.0280811265110969543
-0.114395268261432648 -0.712862014770507812 -0.151850283145904541
0.00920374691486358643 -0.768354475498199463 0.0392869375646114349
0.0508019290864467621 -0.564439892768859863 -0.118154168128967285
0.0167684946209192276 -0.437323182821273804 0.0451713278889656067
0.11587999016046524 -0.665645599365234375 -0.116664186120033264
-0.115657106041908264 -0.744599044322967529 -0.147176012396812439
-0.0508873127400875092 -0.788277685642242432 -0.0681762844324111938
0.0161688067018985748 0.244704440236091614 0.0164800398051738739
0.050836760550737381 -0.758876383304595947 0.127259567379951477
-0.217524319887161255 0.134053826332092285 -0.063038557767868042
0.0328115113079547882 0.412429571151733398 -0.00713121378794312477
0.0561949536204338074 0.291677027940750122 -0.0279005318880081177
-0.159262999892234802 -0.757102787494659424 0.0136575866490602493
-0.0539746284484863281 0.271184384822845459 0.00128543667960911989
-0.067859455943107605 -0.555682778358459473 -0.154877379536628723
-0.000732641026843339205 -0.143296167254447937 0.0527689866721630096
-0.000429556093877181411 -0.78326570987701416 -0.0753917619585990906
-0.0528646782040596008 0.318732112646102905 -0.0603155940771102905
0.0172731634229421616 -0.460920333862304688 0.0544151999056339264
-0.0838404595851898193 0.483091145753860474 -0.103707440197467804
0.0290691796690225601 -0.554957926273345947 -0.0347064286470413208
0.0566559657454490662 0.677691519260406494 -0.0306879431009292603
-0.00982011295855045319 -0.190644711256027222 0.0480006784200668335
-0.0424260683357715607 0.512148618698120117 -0.0528845824301242828
0.235361337661743164 0.613038063049316406 -0.0233183391392230988
-0.163717970252037048 -0.733679592609405518 -0.0927660092711448669
-0.117935158312320709 0.199179798364639282 -0.0686898455023765564
0.123371593654155731 -0.604337155818939209 0.0816881582140922546
-0.109549611806869507 -0.57349783182144165 -0.0941033512353897095
-0.0833117961883544922 0.372259736061096191 -0.167076200246810913
-0.124506458640098572 -0.748675644397735596 0.105346247553825378
-0.00156068475916981697 -0.582520842552185059 -0.148131892085075378
0.00615091947838664055 0.240546897053718567 -0.0936597436666488647
0.0133546702563762665 -0.586464107036590576 -0.105391040444374084
0.079487629234790802 0.387586206197738647 -0.0204397458583116531
0.0821427181363105774 0.180589213967323303 -0.120652973651885986
0.0473830252885818481 -0.559619784355163574 -0.154607892036437988
-0.0766348913311958313 0.565264105796813965 -0.0918874964118003845
-0.0436654314398765564 -0.625678718090057373 -0.160370096564292908
0.101757027208805084 0.293110281229019165 -0.0183328129351139069
0.0228924639523029327 -0.607629656791687012 0.133116409182548523
-0.047083638608455658 -0.771154403686523438 0.141752064228057861
0.133650034666061401 -0.626270890235900879 0.0423519983887672424
-0.00379718327894806862 -0.0483141839504241943 0.0421531163156032562
0.00560644129291176796 -0.114042557775974274 0.0281017664819955826
-0.00229772552847862244 0.138409525156021118 -0.0131158428266644478
-0.0813691914081573486 -0.67451179027557373 0.122190758585929871
0.170523554086685181 0.156263336539268494 0.00452632969245314598
-0.0330775678157806396 -0.666289448738098145 0.14295746386051178
0.227402716875076294 0.920610547065734863 -0.181307971477508545
0.107746221125125885 0.695000112056732178 -0.121681921184062958
-0.0276532508432865143 -0.778359591960906982 -0.022510722279548645
0.0536146014928817749 0.228098496794700623 -0.0148068433627486229
0.084400862455368042 0.53193134069442749 -0.0753256604075431824
-0.111197181046009064 -0.639483034610748291 -0.14159761369228363
-0.0797850340604782104 -0.564653456211090088 -0.0723099038004875183
-0.146922364830970764 -0.684674322605133057 -0.101334363222122192
0.0288751330226659775 -0.67192310094833374 0.129549711942672729
-0.0662313178181648254 0.587590634822845459 -0.135963514447212219
0.118113219738006592 0.56330031156539917 -0.00519963726401329041
0.0424552373588085175 -0.68214881420135498 -0.167222321033477783
-0.0393360182642936707 0.628039240837097168 -0.159171104431152344
-0.00997841544449329376 -0.407089352607727051 0.00980401411652565002
-0.0200101491063833237 -0.360534220933914185 -0.0151351448148488998
-0.0379311926662921906 -0.772036194801330566 0.066927000880241394
0.0579424537718296051 0.308761388063430786 0.0292174220085144043
-0.0212864149361848831 -0.11467280238866806 0.0187472905963659286
0.0592651031911373138 -0.57503277063369751 -0.0580746009945869446
-0.128660932183265686 -0.731972754001617432 -0.12257857620716095
-0.109690673649311066 -0.584258377552032471 -0.0441115759313106537
-0.0637781322002410889 0.495847940444946289 -0.134345293045043945
0.0955668091773986816 0.565028965473175049 -0.0484341531991958618
0.0477648749947547913 0.214542150497436523 -0.00169947429094463587
-0.0747023075819015503 0.139418289065361023 -0.0381001308560371399
-0.0564946867525577545 -0.574212312698364258 0.127663671970367432
-0.0583176128566265106 -0.574541866779327393 0.0757137760519981384
0.0697207599878311157 0.360118627548217773 -0.114919997751712799
-0.114044003188610077 -0.586341917514801025 0.0862379968166351318
0.109092392027378082 0.841287434101104736 -0.195001423358917236
0.128581956028938293 0.298578530550003052 0.0661919713020324707
-0.0241607837378978729 -0.478279650211334229 -0.0036855663638561964
0.0539428889751434326 -0.732512295246124268 0.146512851119041443
-0.171453505754470825 -0.634944319725036621 -0.0691011473536491394
-0.03694925457239151 0.334808886051177979 -0.0891599953174591064
0.106610618531703949 0.325560003519058228 0.0333793200552463531
-0.0711449310183525085 -0.758722007274627686 0.0925534367561340332
0.162122368812561035 0.166965916752815247 0.041663341224193573
0.150365456938743591 0.429512172937393188 -0.132686838507652283
-0.132124036550521851 -0.726558387279510498 -0.115454696118831635
-0.135231673717498779 -0.554086387157440186 0.0866392627358436584
-0.158158689737319946 -0.709264099597930908 -0.0923503413796424866
0.0171957593411207199 -0.698783278465270996 -0.172157719731330872
-0.151351690292358398 -0.584911465644836426 -0.0398983992636203766
-0.0539457164704799652 -0.601777791976928711 0.13441823422908783
-0.0674163028597831726 0.432132899761199951 -0.237324178218841553
0.128958404064178467 -0.66974252462387085 0.0283926036208868027
0.0326669774949550629 0.0957287177443504333 0.00349365640431642532
-0.119492821395397186 -0.769218385219573975 0.0410528257489204407
0.0736000537872314453 0.403024077415466309 -0.0529436059296131134
0.00885491259396076202 0.17653338611125946 0.00856026820838451385
0.0678372159600257874 -0.704167306423187256 0.114015914499759674
-0.163461029529571533 -0.658574223518371582 -0.00221195118501782417
0.041592329740524292 -0.551267623901367188 0.0629917234182357788
-0.00322295958176255226 -0.545878410339355469 0.0171465296298265457
0.11801467090845108 -0.755655467510223389 -0.0964156687259674072
0.164169222116470337 -0.624565720558166504 -0.0537103377282619476
-0.0141175435855984688 -0.56342017650604248 0.0243851784616708755
-0.146217882633209229 -0.587408244609832764 -0.113274246454238892
0.032001834362745285 -0.152783676981925964 -0.0119887860491871834
-0.14001891016960144 0.14813309907913208 -0.0562572069466114044
0.0976911783218383789 -0.572247445583343506 0.0411963984370231628
0.0161018650978803635 -0.720716774463653564 -0.153470590710639954
-0.0824694931507110596 -0.6485862135887146 -0.171731486916542053
0.00667702639475464821 -0.378649145364761353 0.0130820227786898613
0.0383810661733150482 -0.784585535526275635 0.124342449009418488
-0.0878396555781364441 -0.5774344801902771 0.0803148820996284485
0.089422665536403656 0.598549485206604004 -0.0308285932987928391
-0.104239627718925476 -0.588822364807128906 -0.167424798011779785
0.114375941455364227 -0.587333083152770996 -0.105076044797897339
-0.0437904074788093567 0.297040045261383057 -0.0554096587002277374
0.0468321703374385834 -0.708854794502258301 0.149497032165527344
-0.0372951999306678772 -0.615824878215789795 -0.164820730686187744
-0.149534612894058228 -0.777322590351104736 -0.00152179331053048372
-0.00428221141919493675 -0.610449910163879395 -0.179451510310173035
0.20560850203037262 0.856207489967346191 0.015862414613366127
0.037469174712896347 -0.396457850933074951 -0.025283176451921463
0.00701327668502926826 0.156365618109703064 -0.0467629246413707733
-0.0348528176546096802 -0.577058136463165283 0.0352484025061130524
-0.123750694096088409 -0.70749133825302124 0.100779049098491669
0.0905124545097351074 0.359563589096069336 -0.0143964113667607307
-0.0533639304339885712 0.626349508762359619 -0.0785258933901786804
-0.0374835841357707977 0.614684402942657471 -0.0649698153138160706
0.000539108237717300653 -0.545140624046325684 0.025334896519780159
0.0710571557283401489 -0.56231844425201416 -0.157878756523132324
-0.0109605900943279266 0.275736182928085327 -0.00278917327523231506
0.058904796838760376 -0.562346994876861572 -0.131654828786849976
-0.0445343628525733948 0.343585342168807983 -0.0542742311954498291
-0.0988470837473869324 -0.587319374084472656 0.115499533712863922
-0.0252473149448633194 0.189576268196105957 -0.0568146556615829468
0.0699560269713401794 0.245367556810379028 0.0248005203902721405
0.00382547243498265743 0.188660994172096252 -0.00399844488129019737
-0.0993672236800193787 -0.608789384365081787 0.128708481788635254
0.0520490743219852448 0.11141696572303772 -0.0488055944442749023
-0.151872038841247559 -0.597360372543334961 0.0390607155859470367
0.136553078889846802 -0.630237162113189697 -0.0911216661334037781
0.176885485649108887 0.823623418807983398 -0.00262211705558001995
0.135959357023239136 -0.609848380088806152 0.0410700254142284393
-0.130351841449737549 -0.588516056537628174 -0.0622541420161724091
-0.00216239946894347668 0.269539833068847656 0.0166172478348016739
0.0666527599096298218 0.451189756393432617 0.00850362610071897507
-0.169042587280273438 -0.578187882900238037 -0.0481119826436042786
-0.0739542096853256226 0.172615602612495422 -0.0969319865107536316
0.126329138875007629 -0.566572427749633789 0.009532158263027668
0.0882032513618469238 0.172914952039718628 -0.008535727858543396
-0.00649869907647371292 -0.736788094043731689 -0.156451359391212463
0.223401114344596863 0.772290170192718506 0.00561932660639286041
-0.140967965126037598 -0.723455071449279785 0.0801110565662384033
0.04069499671459198 0.307265311479568481 0.00208310526795685291
-0.0336835496127605438 0.510516703128814697 -0.270858108997344971
-0.0959383472800254822 -0.690259397029876709 -0.130678310990333557
0.00710104778409004211 -0.770324349403381348 0.133390709757804871
0.110237829387187958 -0.738701879978179932 -0.0917164161801338196
-0.0544189512729644775 0.591396212577819824 -0.162550449371337891
-0.146287664771080017 -0.565758109092712402 0.0159346107393503189
-0.0153656937181949615 -0.300782173871994019 0.026417657732963562
0.0786706730723381042 -0.775869369506835938 0.0659816116094589233
-0.0953069478273391724 -0.584262967109680176 0.0480303093791007996
0.0952972769737243652 0.738827705383300781 -0.0505203939974308014
0.100419573485851288 -0.577568590641021729 0.0664861425757408142
0.112786248326301575 0.689625442028045654 -0.175767675042152405
0.0141290342435240746 0.543940246105194092 -0.00765178864821791649
-0.00631044665351510048 -0.378777563571929932 0.00822845101356506348
0.0232045408338308334 0.457527488470077515 -0.0278279781341552734
0.226748198270797729 0.895387470722198486 -0.160137742757797241
0.130693003535270691 0.672220051288604736 -0.00985410809516906738
0.135408908128738403 -0.573482275009155273 -0.0353853330016136169
-0.0608937591314315796 -0.641325533390045166 0.14623570442199707
0.331182718276977539 0.633594393730163574 -0.0484371893107891083
0.0625555887818336487 0.0801039710640907288 -0.0341524295508861542
-0.119305148720741272 -0.620422959327697754 -0.107956908643245697
-0.106152258813381195 -0.563873946666717529 -0.125656619668006897
0.104511499404907227 0.85905611515045166 -0.141007766127586365
-0.00436869170516729355 -0.367876499891281128 0.0406699739396572113
0.0189771596342325211 -0.557323992252349854 -0.00115033192560076714
-0.0357876904308795929 0.682408630847930908 -0.150800585746765137
-0.14865913987159729 -0.786564767360687256 -0.0244305655360221863
0.0538932345807552338 -0.681770443916320801 -0.154379040002822876
0.138605251908302307 -0.565347433090209961 -0.0762007161974906921
0.0722939297556877136 -0.597450554370880127 0.110038861632347107
-0.0940901860594749451 -0.612075388431549072 -0.165922567248344421
0.177515000104904175 0.228690072894096375 0.0820471495389938354
0.152665317058563232 -0.60362851619720459 -0.029795914888381958
-0.0656314045190811157 -0.72000962495803833 0.141700297594070435
-0.10197748988866806 -0.55406486988067627 -0.119596220552921295
0.0259680300951004028 0.205783605575561523 0.0268503110855817795
0.133598163723945618 -0.783924877643585205 0.0185556318610906601
-0.0529639087617397308 0.238696277141571045 -0.0790964365005493164
-0.173394560813903809 -0.613106667995452881 -0.0703176334500312805
-0.00221305363811552525 -0.0688794329762458801 0.0372026972472667694
-0.157289877533912659 -0.662708580493927002 0.0712963193655014038
0.067769274115562439 -0.67707526683807373 0.0922506824135780334
-0.0161979198455810547 -0.499882817268371582 0.0349564328789710999
-0.0414784811437129974 -0.583056986331939697 -0.0723894909024238586
-0.0423277951776981354 -0.77367866039276123 0.100511945784091949
-0.0527089349925518036 0.203995943069458008 -0.000954554241616278887
0.136296987533569336 0.0462915413081645966 -0.0960106253623962402
-0.0886743217706680298 -0.786425530910491943 -0.0884162783622741699
0.0047295810654759407 -0.44845658540725708 0.0275931507349014282
0.133687481284141541 -0.656454503536224365 -0.064321175217628479
-0.0251188986003398895 -0.564671218395233154 0.118251502513885498
-0.0874769315123558044 -0.787146806716918945 0.00607231445610523224
0.124371565878391266 -0.7215690016746521 -0.115172490477561951
0.0392271876335144043 -0.483613163232803345 -0.0144368782639503479
-0.134101927280426025 -0.766514122486114502 0.0922725051641464233
0.0751833990216255188 0.334632992744445801 -0.0241977795958518982
0.153071597218513489 -0.566163599491119385 -0.0551767051219940186
-0.101551458239555359 -0.720164179801940918 -0.145372912287712097
0.0496201030910015106 0.215388134121894836 -0.0185696091502904892
0.0278951544314622879 -0.572346627712249756 0.114917069673538208
0.0539139658212661743 -0.628811478614807129 0.10675569623708725
0.113848403096199036 0.62289130687713623 -0.214148476719856262
-0.143852084875106812 -0.555852651596069336 -0.0331688784062862396
0.0690587311983108521 0.198292151093482971 0.0103862276300787926
0.00321864848956465721 -0.778746604919433594 0.129496201872825623
-0.0829546600580215454 0.524757921695709229 -0.100638151168823242
0.252268314361572266 0.371032625436782837 0.0207412745803594589
-0.0752192363142967224 0.464691132307052612 -0.161411672830581665
0.0675848349928855896 0.203327715396881104 -0.0109634092077612877
-0.0114603014662861824 0.104963831603527069 0.047373645007610321
0.12681366503238678 0.242935702204704285 -0.0450222976505756378
0.107618562877178192 0.119146816432476044 -0.0226097460836172104
0.29951167106628418 0.622331917285919189 -0.0548535622656345367
0.0283175259828567505 0.308753341436386108 -0.126519873738288879
-0.0174084119498729706 -0.785510838031768799 -0.0935895964503288269
0.0921213105320930481 -0.582072734832763672 -0.0809772461652755737
0.0256021823734045029 -0.0729352757334709167 -0.00186910026241093874
0.0962590873241424561 0.820346832275390625 -0.224803715944290161
0.0706761777400970459 -0.0192306134849786758 -0.00893841031938791275
-0.0652760863304138184 0.557906210422515869 -0.113686650991439819
0.000852657714858651161 -0.57889634370803833 0.00623614480718970299
0.259989321231842041 0.91027146577835083 -0.220346659421920776
-0.0673846229910850525 -0.653016149997711182 -0.169061273336410522
0.0976526364684104919 0.654922902584075928 -0.166984200477600098
-0.0269541963934898376 -0.0249602645635604858 -0.0346209444105625153
0.108924813568592072 0.169989556074142456 0.000626958499196916819
-0.0386228412389755249 -0.567636430263519287 -0.148518547415733337
-0.0127611216157674789 -0.294950276613235474 0.0473534204065799713
0.0940534621477127075 -0.782117545604705811 0.00584626570343971252
-0.0122200660407543182 -0.612007737159729004 0.127193063497543335
0.147066876292228699 -0.561989307403564453 -0.00230499682947993279
0.151385590434074402 -0.727445840835571289 -0.0700974985957145691
-0.0517890229821205139 -0.784734427928924561 0.0329738445580005646
0.00400824937969446182 -0.0651484951376914978 -0.00706577114760875702
0.0427753105759620667 -0.566850960254669189 -0.131737470626831055
-0.143890514969825745 -0.56674271821975708 0.0307221971452236176
-0.165401026606559753 -0.555870473384857178 -0.0821186825633049011
0.116140417754650116 0.616151392459869385 -0.0308367852121591568
-0.00274135521613061428 0.248793363571166992 -0.0219295136630535126
0.137978285551071167 0.620826900005340576 -0.242364093661308289
0.112312920391559601 0.694321095943450928 -0.133621737360954285
0.0355019979178905487 -0.135971948504447937 -0.0129126701503992081
0.00115463836118578911 -0.354359894990921021 -0.00187374139204621315
0.0318999998271465302 -0.708605706691741943 -0.168141350150108337
0.0618839040398597717 -0.156705498695373535 -0.0321389734745025635
0.0640046074986457825 0.162352651357650757 -0.0299983527511358261
-0.0894557610154151917 -0.725835323333740234 0.120332345366477966
0.00223664543591439724 -0.663719415664672852 -0.177369818091392517
-0.128871887922286987 0.117552310228347778 -0.0657509714365005493
0.107641533017158508 -0.794190406799316406 -0.0382128991186618805
0.092985302209854126 0.258897632360458374 -0.00456363288685679436
0.0119638890027999878 -0.056065823882818222 0.0250125862658023834
0.11212119460105896 -0.721779227256774902 0.0955735146999359131
-0.0802054628729820251 -0.764016211032867432 0.0422361046075820923
-0.100227035582065582 -0.597135305404663086 -0.0103171365335583687
0.237422510981559753 0.811173081398010254 0.00242248945869505405
-0.0418393984436988831 0.0973168686032295227 -0.00869708415120840073
-0.0056360168382525444 -0.591290116310119629 0.130306601524353027
0.00767823401838541031 0.0257145501673221588 -0.019434535875916481
-0.0668679550290107727 0.440978288650512695 -0.132710695266723633
0.074534289538860321 -0.569414854049682617 0.0474071800708770752
-0.178246989846229553 -0.601227521896362305 0.0128945866599678993
-0.0209819748997688293 -0.440047264099121094 0.00878843106329441071
0.0258705262094736099 -0.465524584054946899 0.00702577829360961914
0.00603144662454724312 -0.585769355297088623 -0.130461767315864563
0.140728741884231567 -0.611834466457366943 0.00271600368432700634
0.0454641245305538177 0.339989364147186279 -0.0360295884311199188
0.0346918106079101562 -0.145631000399589539 -0.0226058624684810638
0.0655571445822715759 0.606212794780731201 -0.0443545840680599213
0.0620635077357292175 0.0973199009895324707 -0.0176214072853326797
-0.0656332671642303467 0.528313636779785156 -0.0900556296110153198
0.0705737695097923279 -0.668846368789672852 -0.147681593894958496
-0.16260133683681488 0.231616675853729248 -0.0798376426100730896
0.0682573094964027405 0.0473184660077095032 0.00345217296853661537
0.0954844802618026733 0.65009993314743042 0.00644951080903410912
-0.150058701634407043 -0.658735811710357666 0.0792115330696105957
0.0667209997773170471 0.293565154075622559 -0.0100435232743620872
0.072776399552822113 0.0598681941628456116 -0.0272123254835605621
0.00729651656001806259 0.144393488764762878 0.0300518609583377838
-0.134500890970230103 -0.767773628234863281 0.0346848852932453156
0.133204951882362366 -0.76504284143447876 0.00176171376369893551
0.0708391815423965454 0.346314400434494019 -0.0523413494229316711
0.00337598961777985096 -0.568086147308349609 0.0813160687685012817
0.0505160428583621979 -0.582823693752288818 -0.156727567315101624
0.181221112608909607 0.879354894161224365 -0.11955726146697998
-0.0122116636484861374 0.209541648626327515 -0.0726403966546058655
0.0967176854610443115 0.685668587684631348 -0.0301430448889732361
0.084122389554977417 0.188237294554710388 1.44005962283699773e-05
0.0900579541921615601 -0.777636885643005371 0.0767083838582038879
-0.0637254714965820312 0.350447148084640503 -0.116740211844444275
0.0351193137466907501 0.183731809258460999 -0.0792439877986907959
0.0913661569356918335 0.352007806301116943 -0.00416565127670764923
-0.0484873168170452118 -0.595075547695159912 0.00724045606330037117
0.152941912412643433 0.872786164283752441 -0.0860959887504577637
0.130501553416252136 -0.713071584701538086 0.0400410071015357971
0.0903421416878700256 0.689243137836456299 -0.0197956357151269913
0.0959508791565895081 0.371639460325241089 0.00129841757006943226
0.00688653159886598587 -0.729841649532318115 -0.173753529787063599
0.0309722051024436951 0.254716932773590088 -0.0289901886135339737
-0.00866293720901012421 0.074869401752948761 0.0331814959645271301
-0.0618174821138381958 -0.55902332067489624 0.126438438892364502
-0.10641421377658844 -0.698297500610351562 -0.146108746528625488
0.115930072963237762 -0.703173398971557617 0.0581385530531406403
0.0266637224704027176 -0.584121167659759521 -0.185556739568710327
0.0784419029951095581 0.385389417409896851 -0.0500326491892337799
0.00647753104567527771 0.314630448818206787 -0.111983828246593475
-0.0326893143355846405 -0.613674759864807129 0.144070327281951904
0.1711873859167099 0.861940979957580566 -0.108582109212875366
0.165556773543357849 0.876034975051879883 -0.149149686098098755
-0.0182683225721120834 -0.313729196786880493 0.00544640142470598221
-0.146129518747329712 -0.577770829200744629 0.107755310833454132
-0.0665863975882530212 -0.696322619915008545 0.117116332054138184
0.000124288795632310212 0.186587929725646973 -0.0500692315399646759
-0.045401204377412796 -0.567382276058197021 0.0628182142972946167
0.125896036624908447 0.62077486515045166 -0.06813059002161026
-0.00674766069278120995 -0.702044129371643066 -0.196978271007537842
-0.155787631869316101 -0.760051071643829346 0.0655711665749549866
0.0351575016975402832 0.0185338873416185379 -0.0045254463329911232
-0.0471355840563774109 -0.775243580341339111 0.036663547158241272
0.110705085098743439 -0.67767566442489624 -0.115765385329723358
0.00405600201338529587 -0.792397677898406982 -0.143661901354789734
0.0349472835659980774 -0.602344930171966553 0.0336089245975017548
0.18289715051651001 0.77377617359161377 -0.146546319127082825
0.180409088730812073 0.209920972585678101 0.020678393542766571
0.019561372697353363 -0.0281575564295053482 -0.0139273293316364288
-0.170541390776634216 -0.565232574939727783 -0.0272585339844226837
0.0772937983274459839 -0.107913829386234283 -0.0564847439527511597
0.133899927139282227 -0.688759863376617432 0.0299050230532884598
0.0651475787162780762 0.56110990047454834 -0.183094024658203125
-0.131143480539321899 -0.578670620918273926 0.0170860998332500458
0.0502589903771877289 0.261535227298736572 -0.027734002098441124
-0.059111379086971283 -0.670505225658416748 0.139360487461090088
0.0241076201200485229 -0.265362590551376343 0.0106926597654819489
-0.0453121177852153778 0.180493593215942383 -0.0311079192906618118
0.0348384976387023926 0.110320314764976501 -0.0310549456626176834
0.0528886131942272186 -0.0631901323795318604 -0.0229985062032938004
0.249398648738861084 0.790097832679748535 0.0163670126348733902
-0.0649153590202331543 -0.790003061294555664 0.0825910493731498718
0.0453644543886184692 0.0333901606500148773 0.00400752760469913483
0.0589980185031890869 -0.774000942707061768 0.0165311675518751144
-0.155265182256698608 -0.61067652702331543 -0.0924100279808044434
0.0643670931458473206 0.280637115240097046 -0.0128555968403816223
-0.137273505330085754 -0.760273933410644531 0.0143892643973231316
-0.139966875314712524 -0.732043981552124023 -0.109906934201717377
-0.0560492426156997681 -0.576762259006500244 0.00367210479453206062
-0.0838232040405273438 -0.575105726718902588 -0.0500524900853633881
0.259368151426315308 0.771646201610565186 -0.0158609021455049515
0.116607971489429474 0.559940516948699951 -0.00751620763912796974
0.135073944926261902 -0.756195247173309326 -0.0657599866390228271
0.0738951340317726135 0.748628079891204834 -0.037324707955121994
0.102463476359844208 0.633211374282836914 -0.200017616152763367
0.00738244503736495972 -0.331029355525970459 0.00805055629462003708
0.0399718694388866425 -0.350658953189849854 -0.0291185770183801651
-0.0994594469666481018 -0.657453477382659912 -0.150773033499717712
-0.161259010434150696 -0.658104062080383301 -0.0321809612214565277
-0.172768950462341309 -0.569871783256530762 -0.0583134889602661133
-0.0743972435593605042 0.580168843269348145 -0.117401294410228729
0.0623174272477626801 -0.0545094497501850128 -0.039908774197101593
-0.0499250888824462891 0.0189350005239248276 0.00733997765928506851
-0.0086376778781414032 -0.522000968456268311 0.0398381352424621582
0.0271846316754817963 0.449131399393081665 -0.000886966357938945293
0.0373953208327293396 -0.421630024909973145 -0.0322763286530971527
0.0893825963139533997 0.65032494068145752 -0.0817163959145545959
0.0153548931702971458 -0.470567762851715088 0.0483769364655017853
0.0825432240962982178 -0.000573103316128253937 -0.0816941484808921814
-0.0113710500299930573 0.542982935905456543 -0.0188564006239175797
-0.000525232520885765553 -0.24943244457244873 0.0134404795244336128
0.10191035270690918 -0.803319990634918213 0.0379836447536945343
0.032931499183177948 0.192949637770652771 -0.030223572626709938
0.00163076573517173529 -0.190172478556632996 0.0189518667757511139
0.132811322808265686 -0.787376701831817627 -0.0266209859400987625
-0.176541328430175781 -0.685762465000152588 -0.0558684989809989929
0.0206041485071182251 0.334093213081359863 -0.0699212327599525452
-0.128331780433654785 -0.573371291160583496 0.0881311893463134766
0.0325461700558662415 -0.594301044940948486 -0.164221182465553284
-0.0365391373634338379 -0.151693552732467651 0.00610791100189089775
0.00175852398388087749 -0.176069155335426331 0.0518605820834636688
-0.000279572035651654005 -0.314880967140197754 0.0697894245386123657
-0.103220462799072266 -0.559228301048278809 -0.107025392353534698
0.091485150158405304 0.738315939903259277 -0.0434207692742347717
0.0930409878492355347 -0.777134299278259277 -0.0892720147967338562
-0.131232753396034241 -0.76649320125579834 -0.108324810862541199
0.0912127122282981873 0.601255536079406738 -0.0504691526293754578
-0.140972167253494263 -0.646411418914794922 -0.0988290309906005859
0.130272820591926575 -0.721753180027008057 -0.0813226476311683655
-0.0462282635271549225 -0.752907156944274902 0.143437474966049194
0.0508964397013187408 0.22764858603477478 0.0223114453256130219
-0.0131488228216767311 0.0380357764661312103 0.0453503727912902832
-0.159983277320861816 -0.70977860689163208 -0.00198670639656484127
-0.138457193970680237 -0.773309648036956787 -0.0243969503790140152
-0.0500111021101474762 -0.770544826984405518 -0.11763569712638855
-0.125963181257247925 -0.675118327140808105 0.0966850295662879944
0.00927126593887805939 -0.768442869186401367 -0.0245820824056863785
-0.0103082312270998955 -0.559348046779632568 0.00531864864751696587
-0.0402206890285015106 -0.686650753021240234 0.144609123468399048
0.0988603606820106506 -0.55344092845916748 -0.119249008595943451
0.0409379526972770691 -0.565740108489990234 -0.181546390056610107
-0.016878172755241394 -0.573819339275360107 0.0917912200093269348
-0.0352231226861476898 0.551159501075744629 -0.0631967037916183472
0.108649827539920807 0.410210847854614258 -0.107707694172859192
0.317542761564254761 0.633875131607055664 -0.0519760921597480774
0.104351893067359924 -0.752222061157226562 0.0815393775701522827
0.0607884302735328674 0.501636326313018799 0.000429929204983636737
-0.097489185631275177 -0.77401202917098999 -0.150104999542236328
0.102871216833591461 0.728810310363769531 -0.0608733370900154114
-0.165483981370925903 -0.726127684116363525 0.065089493989944458
0.0136085720732808113 -0.762822806835174561 0.101264700293540955
0.124102815985679626 -0.748827040195465088 -0.0594486445188522339
0.167881876230239868 0.79348444938659668 -0.0924289226531982422
0.0300559736788272858 -0.775828003883361816 0.0431627929210662842
0.0145322605967521667 -0.372476726770401001 -0.000192798746866174042
-0.00269618979655206203 -0.570248305797576904 0.00680524902418255806
0.208817452192306519 0.858919858932495117 -0.197882279753684998
0.225811570882797241 0.937571823596954346 -0.173062130808830261
0.0760043486952781677 -0.77801048755645752 -0.0233687069267034531
-0.11047440767288208 -0.77822113037109375 -0.0652649626135826111
0.0259091462939977646 -0.571272730827331543 0.0463449396193027496
0.129246532917022705 0.127213761210441589 0.0169457271695137024
-0.101893797516822815 0.416625618934631348 -0.108406946063041687
0.230585724115371704 0.304095268249511719 0.00156814698129892349
0.0898212417960166931 -0.553717553615570068 -0.0959744825959205627
0.0279833432286977768 -0.305618613958358765 -0.0121968872845172882
0.0557122305035591125 -0.577619969844818115 -0.0908142104744911194
0.0425563603639602661 0.0942857563495635986 0.0140054132789373398
0.0874248296022415161 0.417998403310775757 -0.0211763884872198105
-0.0569030269980430603 0.167962625622749329 0.0060996166430413723
0.0211736541241407394 0.190572604537010193 0.0327035114169120789
0.0855843126773834229 0.346109151840209961 -0.0703319981694221497
0.0477492772042751312 0.233853861689567566 -0.0525775179266929626
0.063960537314414978 0.41662365198135376 -0.0599787086248397827
-0.0219967272132635117 -0.58187103271484375 0.10648634284734726
