ply
format ascii 1.0
element vertex 717
property float x
property float y
property float z
end_header
-0.355140060186386108 0.124598763883113861 -0.0809202715754508972
0.0451355651021003723 0.168627649545669556 -0.185602441430091858
-0.26580473780632019 -0.150108754634857178 -0.0504890270531177521
-0.0625052675604820251 0.905219554901123047 -0.325834184885025024
-0.195510253310203552 -0.215869545936584473 -0.220538213849067688
-0.20261150598526001 -0.308098286390304565 -0.0146547835320234299
0.246257305145263672 0.25848078727722168 0.171717360615730286
0.0306433010846376419 -0.306505113840103149 -0.0847096294164657593
-0.110398858785629272 -0.923046529293060303 0.214802831411361694
0.16056312620639801 0.221572712063789368 0.0545952171087265015
0.252250015735626221 -0.739489614963531494 0.0438066907227039337
0.307038486003875732 -0.529467403888702393 0.00177041080314666033
-0.0706448107957839966 -0.113412894308567047 0.00590109452605247498
0.194410458207130432 0.762894153594970703 -0.350681304931640625
-0.322879254817962646 -0.279989570379257202 -0.145247116684913635
-0.084711126983165741 0.900734424591064453 -0.295673638582229614
-0.191768333315849304 0.467202246189117432 -0.332720190286636353
-0.08920326828956604 -0.045368194580078125 0.0657766759395599365
0.0577074997127056122 0.202057495713233948 -0.14750826358795166
0.110514439642429352 0.409416884183883667 0.0344233810901641846
-0.167632237076759338 -0.0296715404838323593 -0.0624521933495998383
-0.242509901523590088 -0.873889029026031494 0.1054491326212883
-0.261628985404968262 -0.909383952617645264 -0.0302991066128015518
0.0863442569971084595 0.515703737735748291 -0.0270218998193740845
-0.012457946315407753 0.658110618591308594 -0.210137113928794861
0.386777400970458984 0.370436578989028931 0.0420345962047576904
-0.0209662653505802155 -0.260605394840240479 -0.0628810152411460876
-0.192550316452980042 -0.423469811677932739 -0.336679041385650635
0.199433609843254089 0.00394179532304406166 -0.0931091904640197754
0.0113583886995911598 0.31315922737121582 -0.0463909804821014404
-0.146173372864723206 -0.0193353220820426941 -0.149470061063766479
0.0854303613305091858 -0.00727428868412971497 0.0283398274332284927
-0.184460818767547607 -0.343511492013931274 -0.147301524877548218
0.341017186641693115 0.133543536067008972 -0.0323137305676937103
0.321845442056655884 0.179133340716362 0.0423110239207744598
0.190486878156661987 -0.144105687737464905 -0.0685126557946205139
0.0267817247658967972 -0.103808887302875519 0.126161858439445496
0.318923264741897583 -0.454771608114242554 0.210640951991081238
0.149693593382835388 0.503404676914215088 -0.354896962642669678
0.0632764697074890137 0.019321804866194725 0.0531506091356277466
0.236815035343170166 0.390131831169128418 -0.048375934362411499
0.0836955681443214417 -0.927936553955078125 -0.0999571159482002258
0.100925169885158539 -0.0990471541881561279 -0.00292562111280858517
0.0849800333380699158 -0.0631778165698051453 0.100221678614616394
0.00623958231881260872 0.559795737266540527 -0.1063188835978508
0.315762996673583984 0.0391304530203342438 0.202995017170906067
-0.0442115999758243561 -0.395970672369003296 -0.231007829308509827
0.265892177820205688 -0.00404718052595853806 0.218816861510276794
0.190923020243644714 -0.0774282440543174744 -0.065579339861869812
-0.00859183352440595627 0.261360526084899902 0.0394190773367881775
-0.227446690201759338 -0.224126175045967102 -0.209350049495697021
0.181871801614761353 -0.717766523361206055 0.230451911687850952
0.141068905591964722 0.0772832781076431274 0.136334076523780823
0.257538199424743652 -0.17374052107334137 -0.19365297257900238
-0.0792429447174072266 -0.264819145202636719 -0.112984068691730499
0.22202947735786438 -0.157354310154914856 -0.197992131114006042
-0.0973022580146789551 0.651416003704071045 -0.225862056016921997
-0.0312584154307842255 0.0360001064836978912 0.0283227115869522095
0.143379628658294678 -0.434855431318283081 0.014946790412068367
-0.00765415700152516365 0.145453736186027527 -0.258053421974182129
0.227499306201934814 0.487204670906066895 0.0987611040472984314
0.364216834306716919 0.496884435415267944 -0.0788915008306503296
0.0319518744945526123 -0.192679733037948608 -0.092596396803855896
0.279510647058486938 0.206500321626663208 0.0846372917294502258
-0.0123745081946253777 -0.422441959381103516 -0.0970803126692771912
0.433090478181838989 0.469893455505371094 0.0926901549100875854
0.218527257442474365 -0.0208123363554477692 -0.488215148448944092
-0.0255787819623947144 0.301975339651107788 -0.223756521940231323
0.0473199672996997833 -0.329219013452529907 -0.251752525568008423
-0.144058287143707275 0.0466498807072639465 -0.0556450411677360535
-0.167381629347801208 0.616872668266296387 -0.0703210458159446716
0.20422518253326416 -0.229119837284088135 0.0899436771869659424
-0.0826905891299247742 0.613228440284729004 -0.314218342304229736
-0.0510562434792518616 0.198732063174247742 -0.0776286199688911438
0.0613079071044921875 -0.236519888043403625 0.133816808462142944
0.175407707691192627 0.0838856250047683716 0.0908100083470344543
0.141008704900741577 0.0309056174010038376 0.171581730246543884
-0.244017452001571655 0.0612750016152858734 -0.160272166132926941
0.138275027275085449 -0.430215686559677124 -0.231344327330589294
0.0104108415544033051 0.107505984604358673 -0.315014511346817017
-0.144676029682159424 0.384836137294769287 -0.457929491996765137
-0.408207535743713379 -0.438120245933532715 0.0162492655217647552
-0.211047708988189697 0.364990353584289551 -0.205285951495170593
0.134870722889900208 0.308648258447647095 0.0402667000889778137
-0.0192443914711475372 0.449962824583053589 -0.415165901184082031
0.330414146184921265 -0.188996821641921997 -0.0996027886867523193
0.0546388179063796997 -0.920587837696075439 -0.127281859517097473
-0.149924620985984802 0.497205227613449097 -0.31085243821144104
0.435139179229736328 0.76967090368270874 0.0964544862508773804
-0.255590140819549561 -0.00583475688472390175 -0.0529586374759674072
-0.0909069478511810303 0.395633935928344727 -0.097218535840511322
0.0453924350440502167 0.0666802674531936646 -0.052778933197259903
0.323048800230026245 -0.350359886884689331 0.117771685123443604
0.193183660507202148 -0.793674767017364502 0.194234535098075867
-0.262760370969772339 -0.828692436218261719 0.0190012082457542419
0.155692294239997864 -0.015528443269431591 0.109516903758049011
0.263352513313293457 0.283490806818008423 -0.150608256459236145
0.243414312601089478 -0.801770925521850586 -0.0138638503849506378
0.356608033180236816 -0.0089109465479850769 -0.281143486499786377
-0.0186675228178501129 -0.196507304906845093 -0.0779363438487052917
0.0701356902718544006 0.0316162779927253723 -0.285566180944442749
0.0920409485697746277 -0.219864368438720703 -0.428264379501342773
-0.0931380614638328552 -0.228089168667793274 -0.081463836133480072
-0.218919798731803894 -0.523639976978302002 -0.261301189661026001
-0.151014119386672974 0.334496229887008667 -0.0523397102952003479
-0.317225158214569092 -0.382818669080734253 -0.196787133812904358
-0.0909114554524421692 -0.0202331822365522385 0.00110023748129606247
0.0817045271396636963 -0.426420897245407104 0.17473207414150238
0.097336307168006897 0.0134504111483693123 -0.213645458221435547
0.311545073986053467 -0.0962091535329818726 -0.452662467956542969
-0.173141241073608398 0.201465532183647156 -0.137171134352684021
0.0879202783107757568 0.365907490253448486 -0.0363699197769165039
0.0858877375721931458 -0.934568285942077637 -0.150516703724861145
0.0648049935698509216 -0.0621233023703098297 -0.420663207769393921
0.189966782927513123 -0.284964472055435181 0.2130909264087677
0.240904197096824646 0.177868306636810303 0.0232846420258283615
0.142697229981422424 0.111247710883617401 0.155849695205688477
-0.0633712559938430786 -0.0991910770535469055 0.0679468810558319092
0.0992036238312721252 -0.166502639651298523 -0.0705280080437660217
-0.300756782293319702 -0.554134011268615723 -0.15056312084197998
0.228122323751449585 0.036329951137304306 -0.132108315825462341
-0.0838392674922943115 0.163521602749824524 -0.23787333071231842
0.449441224336624146 0.742545604705810547 0.020074477419257164
-0.114793099462985992 -0.162817463278770447 0.0954765155911445618
0.0815620645880699158 -0.228064358234405518 0.189336895942687988
0.0893894955515861511 -0.049795299768447876 0.0031846372876316309
0.127523243427276611 -0.627120792865753174 0.275211155414581299
-0.103927873075008392 0.859228610992431641 -0.360631287097930908
-0.0627309903502464294 -0.0788374841213226318 -0.104149460792541504
0.0603170804679393768 -0.446860939264297485 0.111849740147590637
0.305959492921829224 -0.397334635257720947 -0.210002988576889038
0.221368804574012756 -0.432093560695648193 0.17082194983959198
-0.0950840860605239868 0.0131662236526608467 -0.133433207869529724
0.142117202281951904 0.224013090133666992 -0.33223763108253479
0.00280757620930671692 0.421301811933517456 -0.28896060585975647
0.15404316782951355 0.293118178844451904 0.0019317918922752142
0.123598434031009674 0.570542633533477783 -0.306786864995956421
-0.0254281908273696899 -0.0670149847865104675 -0.0798668414354324341
0.174466580152511597 -0.231412515044212341 0.164966776967048645
0.108829997479915619 0.314459502696990967 -0.116755716502666473
0.0463288500905036926 -0.527207374572753906 -0.320998638868331909
0.0755240172147750854 -0.156918168067932129 -0.143969133496284485
0.167912334203720093 -0.0912031829357147217 -0.117712974548339844
0.369073688983917236 0.315799355506896973 -0.103608898818492889
0.475977391004562378 0.459324687719345093 0.0920057222247123718
0.147101223468780518 -0.19982495903968811 0.0374918617308139801
-0.146428480744361877 -0.223375871777534485 -0.125056922435760498
0.0715580284595489502 -0.00623785518109798431 -0.318819820880889893
-0.366692304611206055 0.231506988406181335 -0.14121730625629425
-0.173675358295440674 0.217392727732658386 -0.064677409827709198
-0.137497514486312866 0.0538456328213214874 -0.238594844937324524
-0.154341131448745728 0.168828636407852173 -0.152198031544685364
-0.119771614670753479 -0.735742330551147461 -0.228084012866020203
-0.199861258268356323 0.267634719610214233 -0.0471771359443664551
0.198687225580215454 0.0686497911810874939 0.168208196759223938
0.0297303646802902222 -0.360510706901550293 -0.0522943697869777679
-0.238119333982467651 0.54793018102645874 -0.324576616287231445
-0.273820638656616211 -0.280294746160507202 -0.181284233927726746
-0.18339221179485321 -0.915792763233184814 0.105327829718589783
0.308168023824691772 -0.366692245006561279 -0.16916249692440033
0.36069914698600769 0.163232788443565369 0.17656022310256958
0.330042630434036255 0.370332270860671997 0.094593830406665802
0.131586566567420959 -0.234727710485458374 0.0202005449682474136
0.124682188034057617 0.0851427540183067322 -0.177858471870422363
-0.230025738477706909 0.153329476714134216 -0.2569599449634552
0.337953239679336548 0.348846375942230225 0.0552834346890449524
0.239292070269584656 -0.0126424506306648254 -0.345048964023590088
0.195515826344490051 -0.157843932509422302 -0.0896853283047676086
-0.246321648359298706 -0.806669473648071289 -0.115497671067714691
-0.0807836204767227173 -0.43132445216178894 0.140045419335365295
-0.140203267335891724 -0.133392959833145142 -0.107752524316310883
0.029112689197063446 0.898617684841156006 -0.153533264994621277
0.219168543815612793 -0.0959563106298446655 -0.060313791036605835
0.110430218279361725 0.0114434873685240746 -0.098391994833946228
0.267248421907424927 0.242909491062164307 -0.027724510058760643
0.150062695145606995 0.13423098623752594 -0.211289301514625549
-0.0397434569895267487 0.333655655384063721 -0.207805916666984558
0.0890876799821853638 -0.0194911975413560867 0.181117832660675049
-0.0818143114447593689 0.621405303478240967 -0.244055032730102539
-0.0802996903657913208 -0.251766175031661987 -0.21287199854850769
-0.308955341577529907 -0.427754759788513184 0.0322237648069858551
-0.23073790967464447 0.0184319373220205307 0.0228611230850219727
-0.0473565533757209778 -0.93457639217376709 -0.154000356793403625
-0.173783242702484131 -0.312801927328109741 0.0451976470649242401
-0.0185504984110593796 -0.342530727386474609 0.0427228063344955444
-0.172632470726966858 -0.187808603048324585 0.0186092182993888855
0.0299422070384025574 -0.140837967395782471 -0.195522204041481018
0.266588449478149414 0.587601363658905029 -0.0889760181307792664
0.00350305507890880108 -0.385965466499328613 -0.359533488750457764
0.122537434101104736 -0.698691666126251221 0.253399252891540527
-0.0613453835248947144 0.603968620300292969 -0.034250013530254364
0.0463601984083652496 0.206323325634002686 0.0195794906467199326
-0.053111054003238678 -0.808580517768859863 -0.244382619857788086
-0.329773902893066406 -0.603486061096191406 -0.0210826266556978226
0.249124243855476379 0.500347316265106201 -0.113909706473350525
-0.143777906894683838 -0.928276360034942627 -0.14031335711479187
-0.0590184368193149567 -0.0999122262001037598 -0.17199552059173584
0.00305321021005511284 0.496039301156997681 -0.181685328483581543
-0.112178914248943329 -0.172152206301689148 -0.21254536509513855
-0.237414747476577759 0.668283462524414062 -0.109094016253948212
0.200624153017997742 -0.163078323006629944 -0.305907517671585083
-0.145176693797111511 -0.032061304897069931 -0.0447366088628768921
0.129712969064712524 -0.0200226977467536926 -0.382415741682052612
0.170263022184371948 0.147393912076950073 0.0222616996616125107
0.119424253702163696 0.0880193188786506653 0.00765243265777826309
0.242194652557373047 -0.0737161561846733093 -0.172046467661857605
0.0573305226862430573 0.243950337171554565 -0.31153947114944458
-0.143199846148490906 -0.442694664001464844 0.00220488407649099827
0.267310112714767456 -0.618559420108795166 0.113388754427433014
-0.22762569785118103 0.42519986629486084 -0.0928029417991638184
-0.0725423917174339294 0.104950599372386932 0.0279718562960624695
-0.106013983488082886 -0.288724005222320557 0.0351099744439125061
-0.223454877734184265 0.0849063843488693237 -0.0329523272812366486
-0.335591495037078857 -0.521382927894592285 -0.0241189710795879364
0.0710241198539733887 -0.305698543787002563 -0.131389662623405457
0.108609303832054138 0.0558772087097167969 -0.201888248324394226
0.216369524598121643 0.0780969932675361633 -0.0903052091598510742
-0.115603804588317871 0.194706246256828308 -0.154481083154678345
0.209477126598358154 -0.746151089668273926 0.156001031398773193
0.183184564113616943 -0.0735401660203933716 -0.158836573362350464
0.110864803194999695 0.268812954425811768 0.053940504789352417
0.0829941704869270325 -0.14821779727935791 0.0799195095896720886
0.135591670870780945 -0.0328939370810985565 0.133207201957702637
0.0334240198135375977 0.0157707072794437408 -0.233275264501571655
0.151227891445159912 -0.11207861453294754 -0.129826098680496216
-0.337139785289764404 -0.362983196973800659 -0.116882883012294769
-0.136226698756217957 0.602579891681671143 -0.108872570097446442
0.220483914017677307 0.0345845334231853485 -0.287023097276687622
0.0096183503046631813 -0.188442990183830261 -0.0241430904716253281
-0.160954371094703674 0.00178168946877121925 -0.358740389347076416
0.0314805023372173309 -0.147362366318702698 -0.403450876474380493
-0.219367891550064087 -0.786733508110046387 -0.16199791431427002
-0.331962406635284424 -0.234027937054634094 -0.0528135299682617188
0.0354112572968006134 0.210460752248764038 -0.331408590078353882
-0.0366244763135910034 0.410983353853225708 -0.492794424295425415
0.016701776534318924 0.785502851009368896 -0.0862135812640190125
0.297715544700622559 -0.550528228282928467 0.0882475301623344421
0.053426649421453476 0.345251709222793579 -0.0739536210894584656
-0.105686843395233154 -0.520689427852630615 -0.309463530778884888
0.273852318525314331 0.0164051037281751633 -0.457031577825546265
-0.0997067093849182129 -0.200037017464637756 -0.0436899252235889435
0.520917236804962158 0.377225548028945923 0.157639786601066589
-0.164060279726982117 0.563401758670806885 -0.277223020792007446
-0.0440767370164394379 0.251556217670440674 -0.0336250811815261841
-0.313585877418518066 -0.411653250455856323 -0.243724361062049866
-0.0223455466330051422 -0.192708402872085571 0.0642782524228096008
0.050322309136390686 -0.0280465837568044662 0.0306408833712339401
0.268011510372161865 -0.365663021802902222 -0.0978692248463630676
0.120184175670146942 0.119837373495101929 -0.114170588552951813
-0.030408959835767746 -0.250553250312805176 -0.152959033846855164
0.179955616593360901 0.0556674674153327942 -0.416403055191040039
0.155562549829483032 0.835756301879882812 0.0138436015695333481
-0.131014928221702576 -0.199202641844749451 -0.140659525990486145
-0.346993088722229004 -0.429719507694244385 -0.198022782802581787
0.281239360570907593 0.513210594654083252 -0.0725001916289329529
-0.0619121305644512177 0.348023176193237305 -0.00537892244756221771
0.0545450113713741302 -0.214644685387611389 -0.190524518489837646
0.0759529843926429749 0.0712943747639656067 0.000916556688025593758
0.125728607177734375 0.0323878079652786255 -0.455734491348266602
0.136093303561210632 -0.502633094787597656 -0.297856420278549194
-0.278082907199859619 -0.105222389101982117 -0.189984992146492004
-0.0912185311317443848 -0.174480274319648743 0.0897096171975135803
0.143574431538581848 0.0516365095973014832 -0.0959283038973808289
0.126276955008506775 -0.176843017339706421 -0.152596622705459595
0.139295205473899841 -0.374817311763763428 -0.242643937468528748
-0.113381445407867432 -0.378028333187103271 -0.280741333961486816
0.432598590850830078 0.430776596069335938 -0.0690148621797561646
-0.127980783581733704 0.876394987106323242 -0.275956213474273682
-0.123747415840625763 -0.339059174060821533 -0.162789762020111084
0.378798842430114746 -0.368954002857208252 -0.0864248201251029968
0.211610063910484314 0.020823327824473381 0.181036815047264099
0.0714265629649162292 0.356139093637466431 -0.175478622317314148
0.128729328513145447 0.0215616859495639801 -0.34200972318649292
-0.0819324329495429993 -0.12710610032081604 -0.120365895330905914
0.0297814942896366119 0.10001692920923233 -0.202163279056549072
0.273705184459686279 0.0386570394039154053 0.0647972598671913147
-0.274172961711883545 -0.430600374937057495 -0.138002723455429077
-0.0626613646745681763 0.0952374041080474854 -0.0610269531607627869
-0.209820136427879333 0.243990778923034668 -0.122715242207050323
0.0850376933813095093 -0.453222513198852539 -0.330336272716522217
0.11637415736913681 -0.365901470184326172 -0.191972509026527405
0.323490560054779053 0.1949501633644104 -0.0909160971641540527
0.0709744319319725037 0.325047999620437622 -0.251034080982208252
-0.255579292774200439 -0.840326666831970215 -0.0551133975386619568
-0.101437203586101532 0.191241949796676636 -0.0155478725209832191
0.242173492908477783 0.908095479011535645 -0.040670149028301239
-0.358804434537887573 -0.0928686186671257019 -0.0284828655421733856
0.0814064517617225647 0.38425445556640625 -0.100684970617294312
0.411490112543106079 0.799721002578735352 0.14163893461227417
-0.0549715571105480194 0.581209838390350342 -0.133337900042533875
0.256197094917297363 -0.80117189884185791 0.0485559217631816864
0.208215281367301941 -0.055888105183839798 -0.0236345827579498291
0.367828726768493652 -0.0398190133273601532 -0.0299902092665433884
-0.0383708886802196503 -0.0384984128177165985 -0.0503945536911487579
-0.251277178525924683 -0.325813442468643188 -0.0502410456538200378
0.125780150294303894 -0.314327895641326904 -0.0267005749046802521
-0.298199474811553955 -0.109608873724937439 -0.0174706913530826569
-0.0312755480408668518 0.362900048494338989 -0.0233317650854587555
0.24286574125289917 -0.678365051746368408 -0.122383035719394684
0.0832627937197685242 -0.31597486138343811 0.0813469737768173218
0.411541014909744263 -0.0271822810173034668 -0.158729046583175659
0.0542532764375209808 -0.0650359317660331726 0.0920813605189323425
-0.0681995227932929993 -0.921640276908874512 0.168682023882865906
0.0498422831296920776 0.817248880863189697 -0.128364428877830505
-0.197393506765365601 0.493326246738433838 -0.309623420238494873
-0.0716778114438056946 -0.310002684593200684 0.084187626838684082
-0.0579926781356334686 -0.209773510694503784 0.0045206747017800808
-0.195681780576705933 0.143801376223564148 -0.35058942437171936
-0.0245270915329456329 -0.147512629628181458 -0.0116662289947271347
0.0122430827468633652 -0.877002179622650146 -0.232863292098045349
-0.396090716123580933 -0.474564105272293091 -0.0242535360157489777
-0.238555625081062317 0.194675818085670471 -0.0655547827482223511
0.0106008304283022881 -0.126485303044319153 -0.155881822109222412
0.246668830513954163 0.113863423466682434 0.195167452096939087
0.0582318156957626343 -0.0994129031896591187 -0.0081766955554485321
0.0777717828750610352 0.120209202170372009 -0.305581122636795044
0.511856913566589355 -0.0809032395482063293 -0.223841816186904907
0.111113466322422028 0.0867750197649002075 -0.0993707999587059021
-0.261448025703430176 0.0966516435146331787 -0.318772763013839722
0.389879405498504639 -0.0362841635942459106 -0.236599728465080261
0.250818401575088501 -0.0207036212086677551 -0.38136330246925354
0.0234101247042417526 0.105561196804046631 -0.246812134981155396
-0.267736881971359253 0.0192815586924552917 -0.203411653637886047
0.164813891053199768 -0.158845230937004089 0.0642191916704177856
-0.382151395082473755 -0.490642160177230835 0.0206459797918796539
-0.159530699253082275 0.164265066385269165 -0.0172884464263916016
0.21263439953327179 0.286570608615875244 -0.0199439004063606262
0.289012730121612549 0.851894199848175049 0.0403579510748386383
0.0915114209055900574 0.198373928666114807 0.0501200035214424133
0.158682331442832947 -0.0127551434561610222 -0.136173799633979797
0.241637855768203735 -0.624086618423461914 -0.14090670645236969
0.140016183257102966 0.0573970526456832886 0.075534529983997345
-0.171370700001716614 -0.113287046551704407 0.0379216596484184265
0.134613513946533203 -0.0436273813247680664 -0.0270782392472028732
0.101327642798423767 -0.911836206912994385 -0.173174440860748291
-0.180731922388076782 -0.173648640513420105 -0.174881920218467712
-0.0563614293932914734 0.556902527809143066 -0.340840965509414673
-0.0441071279346942902 0.448925167322158813 -0.112234510481357574
-0.369282692670822144 -0.368029981851577759 -0.053285498172044754
-0.193434029817581177 0.366122901439666748 -0.223067417740821838
0.116132989525794983 -0.831474840641021729 0.228537321090698242
0.137497261166572571 0.0269952137023210526 -0.0192548800259828568
0.188635006546974182 -0.931815981864929199 -0.0713078752160072327
0.184614405035972595 0.204543948173522949 -0.0395419523119926453
-0.178722098469734192 0.269786328077316284 -0.189031481742858887
0.138643696904182434 -0.930745363235473633 0.0259759668260812759
0.227550595998764038 0.592157125473022461 -0.045318257063627243
-0.169395819306373596 0.258141636848449707 -0.00464280834421515465
-0.0204428005963563919 -0.414321631193161011 -0.297264724969863892
-0.290245354175567627 -0.0742116421461105347 -0.0810493752360343933
0.0410825498402118683 0.465029209852218628 -0.17034226655960083
-0.320994794368743896 -0.59659111499786377 0.0589707531034946442
-0.0127073647454380989 0.448122948408126831 -0.0362791977822780609
0.469394057989120483 0.442424267530441284 0.117291867733001709
0.0103731704875826836 0.321756660938262939 -0.205156102776527405
0.0547889359295368195 -0.171009227633476257 -0.064526677131652832
0.0625356808304786682 0.210895299911499023 -0.0937655046582221985
-0.249571457505226135 0.603838682174682617 -0.223243013024330139
0.366328448057174683 0.777089178562164307 -0.0332444310188293457
0.0878731906414031982 0.407632172107696533 0.00606808019801974297
-0.0330529883503913879 -0.513357996940612793 -0.32331317663192749
-0.170295625925064087 -0.364649951457977295 -0.178914055228233337
0.10014401376247406 0.319146305322647095 -0.0298665836453437805
0.30686303973197937 0.194822698831558228 0.126319766044616699
-0.0366411618888378143 -0.26479300856590271 -0.0346313007175922394
0.0424689538776874542 -0.320262432098388672 0.111660502851009369
-0.169946625828742981 -0.839306294918060303 -0.169710159301757812
-0.0801499262452125549 -0.154325321316719055 -0.206380382180213928
0.304381608963012695 -0.159870624542236328 0.0101900389418005943
-0.0618307627737522125 -0.900261938571929932 -0.228093281388282776
-0.170525670051574707 -0.882822513580322266 -0.178596019744873047
0.0211891252547502518 -0.227889999747276306 -0.179521441459655762
0.15657399594783783 -0.429829329252243042 -0.0801071599125862122
0.0167685914784669876 0.395838230848312378 0.0419269762933254242
0.296501249074935913 -0.468003779649734497 -0.205812931060791016
-0.208234876394271851 0.301782965660095215 -0.128684684634208679
-0.107290357351303101 -0.0180057510733604431 -0.406919121742248535
0.125927150249481201 -0.127890452742576599 -0.0108441440388560295
0.159794867038726807 -0.0194185599684715271 -0.0891944915056228638
0.077302493155002594 -0.259378641843795776 0.0444746054708957672
0.00495401816442608833 -0.239189162850379944 -0.0132920136675238609
-0.0156842637807130814 -0.0633702799677848816 -0.120444744825363159
0.311001241207122803 -0.487732440233230591 0.148138508200645447
0.293823748826980591 0.553853631019592285 -0.138436064124107361
0.390541642904281616 0.744543135166168213 -0.0675467774271965027
0.162737727165222168 -0.104167088866233826 -0.180671006441116333
-0.0422417409718036652 -0.02803085558116436 -0.111368954181671143
-0.086742788553237915 0.480144679546356201 -0.288677096366882324
-0.207976222038269043 -0.105267703533172607 0.0027602736372500658
0.0775169581174850464 0.156759202480316162 0.115582607686519623
-0.114467382431030273 0.162592992186546326 -0.0983626618981361389
0.00833268556743860245 0.86021888256072998 -0.202782213687896729
0.320488333702087402 -0.28006666898727417 0.0275847353041172028
-0.13559471070766449 -0.593044281005859375 -0.281586915254592896
-0.0658872798085212708 -0.188467621803283691 -0.128958269953727722
0.117194786667823792 0.804975628852844238 -0.0180357731878757477
0.172905638813972473 0.417924106121063232 -0.0143353566527366638
0.0322008617222309113 -0.2368478924036026 -0.00399763695895671844
0.0128996949642896652 -0.200018659234046936 -0.373207420110702515
0.197527214884757996 0.0919006690382957458 0.00530697405338287354
-0.271999388933181763 0.576112926006317139 -0.204579591751098633
0.0109239900484681129 0.632293701171875 -0.355053812265396118
-0.0706977620720863342 -0.232088536024093628 -0.279860407114028931
0.0824195519089698792 -0.926857650279998779 -0.0920770764350891113
0.267164558172225952 0.364287614822387695 0.0206530317664146423
-0.227495864033699036 0.370221883058547974 -0.357237011194229126
-0.107010610401630402 0.418669700622558594 -0.445835411548614502
-0.0216724369674921036 -0.151631861925125122 0.0470150299370288849
0.362753629684448242 0.150135859847068787 0.0252490844577550888
0.381592601537704468 -0.410223603248596191 0.0212578792124986649
0.103885382413864136 0.619608879089355469 -0.251257538795471191
-0.0166082940995693207 -0.353122621774673462 0.114317797124385834
0.00976222287863492966 -0.231184795498847961 0.0402870476245880127
-0.134737312793731689 -0.344221979379653931 0.011813020333647728
0.117782466113567352 0.0686647593975067139 -0.250450193881988525
0.257085204124450684 0.262131482362747192 -0.109419018030166626
-0.00702645396813750267 0.0215310845524072647 -0.314900338649749756
0.0794892236590385437 -0.112355686724185944 0.187696918845176697
-0.0564866960048675537 -0.937955081462860107 -0.00289994361810386181
0.00455482956022024155 0.449928909540176392 -0.117967553436756134
0.0752784684300422668 0.564297318458557129 -0.250581562519073486
0.119674086570739746 -0.286095380783081055 0.051467016339302063
-0.0752772316336631775 -0.332777053117752075 0.119642592966556549
-0.166657358407974243 0.176642969250679016 -0.276473939418792725
0.150399491190910339 -0.279985904693603516 0.031880747526884079
-0.0705462247133255005 -0.428362816572189331 -0.245383992791175842
0.177583619952201843 0.257417857646942139 -0.0541251786053180695
-0.0327251367270946503 -0.1533927321434021 -0.420054465532302856
-0.249597400426864624 -0.239631637930870056 -0.0590818598866462708
0.0825650840997695923 0.937700212001800537 -0.297751396894454956
0.0979638323187828064 -0.0123637095093727112 -0.11296854168176651
0.172238335013389587 0.00980255194008350372 -0.035709187388420105
-0.141500622034072876 -0.297376662492752075 -0.069551907479763031
-0.113366700708866119 -0.159972772002220154 -0.119998104870319366
0.404888570308685303 0.112965255975723267 -0.0881714895367622375
-0.297623246908187866 -0.10127674788236618 -0.140466988086700439
0.10784323513507843 -0.737503945827484131 -0.248319953680038452
0.136179536581039429 -0.866859853267669678 0.207611575722694397
0.226221948862075806 0.270936131477355957 0.0447596944868564606
0.146307602524757385 -0.201020270586013794 -0.00361890881322324276
0.0337658599019050598 -0.259619355201721191 -0.121724560856819153
-0.0351146534085273743 -0.286067783832550049 -0.0807712972164154053
0.157938659191131592 0.0135187422856688499 -0.083118736743927002
-0.0998444557189941406 -0.348349213600158691 -0.188722357153892517
0.01051352359354496 -0.194901123642921448 0.132325038313865662
-0.245726630091667175 0.0785470232367515564 -0.128398939967155457
-0.011326078325510025 -0.183505222201347351 -0.174235939979553223
0.0377906300127506256 0.164187505841255188 0.0808287635445594788
-0.199493363499641418 -0.00527050299569964409 -0.0960904806852340698
0.283548653125762939 0.0465166196227073669 -0.0361885055899620056
0.157846167683601379 -0.316562116146087646 -0.127597525715827942
0.142350763082504272 -0.335401654243469238 -0.19820067286491394
0.124910697340965271 0.496953725814819336 -0.221282035112380981
0.244741305708885193 -0.386978596448898315 -0.215635523200035095
-0.119877241551876068 -0.096590287983417511 -0.19548681378364563
0.08539542555809021 -0.436319053173065186 -0.14899386465549469
0.426958233118057251 -0.0649769380688667297 -0.265401095151901245
0.380073368549346924 -0.0373417139053344727 -0.113811053335666656
0.305061668157577515 0.363623827695846558 0.164452120661735535
-0.0987813994288444519 0.200620189309120178 -0.0820577517151832581
0.279901623725891113 0.489127874374389648 -0.111138217151165009
-0.406373113393783569 0.436839401721954346 -0.348067313432693481
0.102205783128738403 -0.353743165731430054 -0.270652085542678833
0.039989817887544632 0.587603330612182617 -0.0169023629277944565
-0.12987247109413147 0.484774917364120483 -0.0897024050354957581
0.0943460762500762939 0.128297671675682068 -0.0583461448550224304
-0.114339970052242279 -0.10915423184633255 -0.0132393743842840195
-0.268138319253921509 -0.427817761898040771 0.0930954292416572571
-0.225436434149742126 -0.471128791570663452 -0.27499505877494812
-0.0915276035666465759 0.00115670368541032076 -0.0759948268532752991
0.267606258392333984 0.510839343070983887 -0.202213451266288757
-0.371764689683914185 0.565814435482025146 -0.238968014717102051
-0.302719235420227051 -0.499370068311691284 -0.153367504477500916
-0.0440732128918170929 -0.0496798306703567505 -0.0447839498519897461
-0.155515015125274658 -0.245190262794494629 0.0275024324655532837
0.0731973424553871155 -0.218156516551971436 -0.145523890852928162
0.164365127682685852 -0.238391250371932983 0.0693595781922340393
-0.288323134183883667 -0.475305765867233276 -0.237244158983230591
-0.251338481903076172 0.454423964023590088 -0.148632422089576721
0.0941209942102432251 -0.54394829273223877 -0.290626406669616699
-0.133229717612266541 -0.393098890781402588 -0.349413573741912842
-0.11830633133649826 -0.276085704565048218 -0.0849350467324256897
-0.0103937992826104164 -0.690982520580291748 -0.288470834493637085
-0.1501750648021698 0.304576724767684937 -0.240896731615066528
0.0761889070272445679 0.540960907936096191 -0.126453861594200134
0.0876314863562583923 -0.427282452583312988 0.25532194972038269
0.00755043746903538704 -0.392218291759490967 0.0231416206806898117
0.328501731157302856 -0.373354047536849976 0.0726858600974082947
0.290262311697006226 -0.647288203239440918 0.0644176006317138672
0.0128028085455298424 -0.938520908355712891 0.167366072535514832
0.17224179208278656 0.515779733657836914 -0.0918978452682495117
0.0546990260481834412 0.0138431228697299957 -0.306044667959213257
0.281793594360351562 -0.237750500440597534 -0.344547182321548462
-0.279197454452514648 -0.721697866916656494 -0.0887500494718551636
-0.244147554039955139 -0.0665461346507072449 -0.193799316883087158
-0.100213490426540375 -0.194878637790679932 -0.150144383311271667
-0.253889560699462891 0.120740868151187897 -0.0683966204524040222
0.084743015468120575 0.22725147008895874 -0.341971874237060547
0.0201494563370943069 -0.300663083791732788 -0.153622522950172424
-0.0848474204540252686 -0.181902661919593811 -0.0708267316222190857
0.141463443636894226 -0.940770983695983887 -0.0505703426897525787
-0.101750090718269348 -0.433034300804138184 -0.1662435382604599
-0.120000094175338745 0.332636445760726929 -0.00708892149850726128
0.010709528811275959 -0.327957212924957275 -0.19472995400428772
-0.291887462139129639 0.588833868503570557 -0.308942794799804688
0.0876774638891220093 -0.861025750637054443 0.242117837071418762
-0.12335503101348877 -0.109379053115844727 -0.250272274017333984
0.167023897171020508 0.541662096977233887 -0.304075002670288086
0.0454248525202274323 -0.453013002872467041 -0.0484040491282939911
0.113980583846569061 0.0554936788976192474 -0.423063814640045166
-0.158748120069503784 0.605539381504058838 -0.158841073513031006
0.12462683767080307 -0.0287019237875938416 -0.121247678995132446
0.170123547315597534 -0.168109297752380371 -0.278690457344055176
0.216491833329200745 0.166981860995292664 0.130559369921684265
0.324167102575302124 -0.0417017564177513123 0.247129976749420166
-0.0702369958162307739 -0.183047771453857422 0.0241861660033464432
0.294360965490341187 0.25442543625831604 -0.123581171035766602
0.406418710947036743 0.53792119026184082 0.0402229130268096924
0.0985329896211624146 0.883264064788818359 -0.132270768284797668
-0.133375227451324463 -0.871572315692901611 -0.206738084554672241
0.235269129276275635 -0.0436968468129634857 -0.339296191930770874
-0.0388663075864315033 -0.260493606328964233 0.0451364889740943909
0.405292153358459473 0.190952494740486145 0.0396098345518112183
0.192899450659751892 -0.907593190670013428 -0.102909795939922333
-0.127261146903038025 0.742702007293701172 -0.108957372605800629
-0.153818383812904358 0.164800599217414856 -0.0963287502527236938
0.265409380197525024 -0.423180609941482544 0.140619382262229919
0.219712778925895691 -0.393005698919296265 -0.293040961027145386
-0.255124479532241821 0.051026422530412674 -0.398246020078659058
-0.129665255546569824 0.220357835292816162 0.0221322830766439438
-0.219857305288314819 -0.180052697658538818 -0.076609387993812561
0.16213323175907135 0.272218793630599976 -0.249097511172294617
0.152620390057563782 0.0263597480952739716 -0.211459174752235413
-0.0223005712032318115 -0.855960547924041748 0.280388206243515015
0.127058401703834534 -0.207348629832267761 -0.176469370722770691
-0.0673572346568107605 0.95725250244140625 -0.225754514336585999
-0.0732600092887878418 0.506724536418914795 -0.250851452350616455
0.168810978531837463 0.185784041881561279 -0.104774221777915955
-0.135066032409667969 0.414234310388565063 -0.427018910646438599
0.0958334729075431824 0.133963465690612793 -0.166196748614311218
-0.10029611736536026 -0.22288435697555542 -0.113062597811222076
0.039082847535610199 -0.0477566346526145935 0.121156945824623108
0.505991518497467041 0.665207982063293457 0.120145343244075775
-0.138774171471595764 -0.0953854620456695557 -0.16828569769859314
0.245452091097831726 -0.0317689180374145508 -0.0464332848787307739
0.30129706859588623 -0.194266736507415771 -0.0141923315823078156
0.33860209584236145 0.508370697498321533 -0.0504631996154785156
0.0768632367253303528 -0.121641814708709717 -0.0117128044366836548
-0.192418500781059265 0.265733063220977783 -0.13232538104057312
-0.0825695842504501343 0.178609415888786316 -0.0929903239011764526
0.33786618709564209 0.206006169319152832 0.207921415567398071
0.112689696252346039 0.332985490560531616 -0.0819796696305274963
0.292932689189910889 -0.162730291485786438 -0.282276302576065063
0.0996156632900238037 -0.634276270866394043 -0.247272223234176636
0.210860639810562134 -0.344354540109634399 0.0812371298670768738
0.229592129588127136 -0.00241221417672932148 0.205015137791633606
0.0198200233280658722 0.7966156005859375 -0.193343892693519592
0.0728644058108329773 -0.0831772834062576294 -0.26470649242401123
0.106434442102909088 -0.320833355188369751 -0.187314361333847046
-0.173205450177192688 0.0228198189288377762 -0.322536975145339966
0.176268741488456726 0.416902720928192139 0.0587010197341442108
0.130425944924354553 0.151354163885116577 0.117618396878242493
-0.0654392018914222717 -0.316866964101791382 0.0431766770780086517
0.148026838898658752 0.159697189927101135 0.0668708682060241699
0.184462234377861023 0.522642374038696289 0.0273320563137531281
-0.03270721435546875 0.0862321704626083374 -0.205608397722244263
0.103751733899116516 -0.930552124977111816 0.0783805325627326965
-0.312114566564559937 0.0946796983480453491 -0.178615182638168335
-0.231697291135787964 -0.0312864445149898529 -0.0939752012491226196
0.187243744730949402 -0.372781753540039062 -0.246279776096343994
0.147342130541801453 0.00807302631437778473 -0.140069395303726196
-0.0849285051226615906 0.0448833853006362915 -0.156509354710578918
0.0936713665723800659 -0.114711500704288483 -0.106298662722110748
-0.113520145416259766 -0.480539619922637939 -0.357135117053985596
-0.0238329526036977768 -0.0603952556848526001 0.12298642098903656
-0.173695936799049377 0.0386047549545764923 -0.0978706330060958862
0.184343189001083374 0.0260456595569849014 -0.00917026400566101074
0.206529527902603149 0.822921335697174072 0.00258523714728653431
0.0977529436349868774 -0.0636143162846565247 0.0181664023548364639
0.2041148841381073 -0.352758854627609253 -0.168378129601478577
0.448093175888061523 0.284366309642791748 -0.0451077558100223541
-0.207252025604248047 -0.105052784085273743 0.0294556654989719391
-0.127173423767089844 0.0281292106956243515 -0.14678993821144104
0.0762152448296546936 -0.0278513506054878235 0.10708889365196228
-0.180525302886962891 -0.937736690044403076 -0.0930196568369865417
0.00673518050462007523 -0.0525528900325298309 0.0574008598923683167
0.3368397057056427 0.207916259765625 -0.0670092403888702393
-0.0132585698738694191 -0.934293448925018311 -0.0741896703839302063
0.0685765370726585388 0.297712624073028564 -0.21980518102645874
0.316794335842132568 -0.380054056644439697 0.20357184112071991
-0.0201660376042127609 -0.0896035730838775635 -0.0410274490714073181
-0.152485251426696777 -0.283104002475738525 0.0186922214925289154
0.29270172119140625 -0.112519785761833191 0.0274603627622127533
0.0764343813061714172 -0.0860328376293182373 -0.0752934738993644714
-0.115788310766220093 -0.0609809458255767822 -0.202475905418395996
0.213769048452377319 0.158170506358146667 0.1778983473777771
-0.108381256461143494 -0.117913633584976196 -0.155451416969299316
-0.235016405582427979 0.646629571914672852 -0.146784588694572449
0.0887592285871505737 -0.392980039119720459 -0.313580751419067383
-0.0205059964209794998 0.470646053552627563 -0.339575499296188354
-0.126774176955223083 0.242834359407424927 -0.0695107579231262207
-0.0436660237610340118 0.6051749587059021 -0.315568298101425171
-0.297058731317520142 0.0501830317080020905 -0.0525461025536060333
0.368592619895935059 0.474560767412185669 -0.0781360790133476257
0.279978662729263306 0.520242989063262939 0.0391773059964179993
0.292932242155075073 -0.4446888267993927 0.00966749805957078934
0.16975519061088562 0.18073698878288269 -0.0209044050425291061
0.250303894281387329 0.141405701637268066 0.100065343081951141
-0.280834674835205078 -0.385513365268707275 -0.106128081679344177
0.179394513368606567 0.121760495007038116 -0.0434037111699581146
0.000187289304449222982 -0.923602104187011719 -0.224420443177223206
0.00371774658560752869 0.569055259227752686 0.00552969146519899368
0.275507330894470215 -0.17711794376373291 -0.0325834937393665314
-0.244067907333374023 -0.379746139049530029 -0.276277899742126465
0.0834252387285232544 -0.944637179374694824 0.128591060638427734
0.145982518792152405 -0.569312691688537598 -0.251851588487625122
0.0454841665923595428 -0.266405433416366577 0.0629218146204948425
0.294618338346481323 0.5279654860496521 -0.179946437478065491
0.302313297986984253 0.0123546216636896133 0.0152703970670700073
-0.221779242157936096 -0.90244758129119873 -0.0882771760225296021
0.0259173884987831116 0.121545396745204926 -0.0343828126788139343
-0.0127196796238422394 -0.378833264112472534 -0.0109190931543707848
0.179150626063346863 0.255893021821975708 -0.317114919424057007
-0.0918602719902992249 -0.239617303013801575 -0.0222167801111936569
0.150858372449874878 0.829359769821166992 -0.32726779580116272
-0.128412887454032898 -0.0473002754151821136 0.0247848592698574066
-0.000289424206130206585 -0.43429112434387207 -0.228294268250465393
-0.206870511174201965 -0.0823759287595748901 -0.141545966267585754
0.0521303974092006683 0.0109077533707022667 -0.117100335657596588
-0.0904469713568687439 0.0140999583527445793 -0.331749290227890015
0.112382896244525909 -0.381619721651077271 -0.293308287858963013
0.194628208875656128 -0.227413266897201538 -0.0353320389986038208
-0.319316476583480835 0.0771518126130104065 -0.202068090438842773
-0.0556411109864711761 -0.454978376626968384 -0.0485444553196430206
0.172283917665481567 0.578405439853668213 0.0268719866871833801
0.174420863389968872 -0.577148199081420898 0.274798095226287842
-0.0241631008684635162 0.0101734809577465057 -0.124586783349514008
0.208314910531044006 -0.344949901103973389 0.0217078141868114471
0.203889891505241394 0.0444969944655895233 -0.18477475643157959
0.27090492844581604 0.541761219501495361 0.11616089940071106
-0.0413312278687953949 -0.405004590749740601 -0.303372025489807129
0.0706019774079322815 -0.204670876264572144 0.00802305154502391815
0.244078353047370911 0.880320549011230469 -0.0113826654851436615
0.284293472766876221 -0.0121208969503641129 0.175320222973823547
-0.298361808061599731 -0.268811315298080444 -0.115510888397693634
-0.277582645416259766 -0.187792390584945679 -0.0210351590067148209
0.0796961858868598938 0.148477911949157715 0.0200906582176685333
-0.153284341096878052 -0.413176774978637695 -0.0922325178980827332
0.0374665334820747375 -0.18583621084690094 -0.182757332921028137
-0.15050642192363739 -0.925490081310272217 0.160350695252418518
0.10060843825340271 -0.08663158118724823 0.112532392144203186
0.103958547115325928 -0.0123444441705942154 0.107590429484844208
0.0635191425681114197 0.437259703874588013 -0.284975111484527588
0.0723448172211647034 -0.233630388975143433 -0.16014552116394043
-0.293012857437133789 -0.390156000852584839 0.00582821154966950417
-0.0446487255394458771 -0.105784997344017029 -0.00394118111580610275
-0.385367631912231445 -0.442176967859268188 -0.125954747200012207
-0.108458518981933594 -0.270918130874633789 -0.202652990818023682
0.384847790002822876 0.57099151611328125 0.00294268690049648285
0.198299303650856018 -0.12276051938533783 -0.0909117981791496277
0.236546844244003296 0.0665782168507575989 -0.0606883242726325989
0.227396920323371887 0.55246657133102417 0.0494223013520240784
0.373314797878265381 0.396584063768386841 0.0250656437128782272
0.52734297513961792 0.409472167491912842 0.13610367476940155
0.153229430317878723 -0.169740274548530579 -0.104601167142391205
0.170917317271232605 0.22719535231590271 0.0853405371308326721
-0.117955334484577179 -0.155402794480323792 -0.174630895256996155
-0.23113541305065155 -0.167067095637321472 -0.000831471639685332775
0.239483162760734558 -0.0172067452222108841 -0.152115702629089355
-0.186163231730461121 0.143472403287887573 0.0233213510364294052
0.262632429599761963 -0.145403206348419189 0.0030720375943928957
-0.246423885226249695 0.0572236217558383942 -0.0666353404521942139
0.174927026033401489 -0.218300938606262207 0.0450941696763038635
-0.0756671428680419922 0.254006356000900269 -0.0213012062013149261
0.349834740161895752 -0.0561207979917526245 0.198943659663200378
0.281179457902908325 -0.420524865388870239 -0.249485239386558533
0.203983813524246216 -0.656957328319549561 -0.191905900835990906
0.0107516245916485786 0.0195264909416437149 0.0044483761303126812
-0.137329205870628357 0.13353922963142395 0.0364534184336662292
-0.0977646708488464355 -0.93145143985748291 -0.0101581979542970657
-0.0486526750028133392 -0.69099956750869751 -0.275552868843078613
0.242573052644729614 -0.282948732376098633 0.134376615285873413
-0.0900851413607597351 -0.124464176595211029 -0.00613720528781414032
0.155451923608779907 -0.334503293037414551 -0.206463605165481567
0.11852659285068512 0.570583343505859375 -0.167714014649391174
-0.143163859844207764 -0.5064353346824646 -0.287512898445129395
-0.162368476390838623 0.254322648048400879 -0.0609745979309082031
-0.00481993565335869789 -0.0168187227100133896 0.0372007675468921661
0.236488685011863708 -0.101111091673374176 -0.0131113417446613312
0.053334016352891922 0.370625823736190796 -0.215637564659118652
0.132112756371498108 -0.693273365497589111 -0.225908488035202026
0.00733514921739697456 -0.374956518411636353 -0.215961620211601257
0.400851219892501831 0.524468898773193359 0.117630846798419952
0.14557957649230957 0.38035738468170166 -0.0148895988240838051
0.0482618995010852814 -0.037304263561964035 -0.333341389894485474
-0.0947576835751533508 -0.149630099534988403 0.0479501746594905853
-0.0488557592034339905 0.0323118120431900024 -0.15117335319519043
0.0216926038265228271 -0.0964366719126701355 -0.204536616802215576
0.134346842765808105 0.219478219747543335 0.0269308183342218399
-0.107029184699058533 0.510287821292877197 -0.124280303716659546
-0.27279248833656311 0.0831289216876029968 -0.196422472596168518
-0.229973271489143372 -0.0326753593981266022 0.00997948180884122849
-0.225970983505249023 -0.191372886300086975 0.0243824757635593414
-0.310411185026168823 -0.698060989379882812 -0.0374603308737277985
-0.240332767367362976 -0.198876217007637024 -0.159492701292037964
0.0218043010681867599 -0.84594261646270752 -0.25080147385597229
0.178696081042289734 0.251949846744537354 0.0240044500678777695
0.272542238235473633 -0.401037126779556274 0.0890240669250488281
0.068333946168422699 0.016393367201089859 -0.260336488485336304
-0.00430099712684750557 0.0456209443509578705 -0.292885482311248779
-0.013341476209461689 0.866686046123504639 -0.13232460618019104
0.0113915428519248962 -0.0454576760530471802 -0.369876682758331299
0.206536874175071716 -0.302976340055465698 -0.0424003079533576965
0.0436936020851135254 0.552128076553344727 0.00555985141545534134
-0.107191115617752075 -0.0236743111163377762 -0.208687648177146912
-0.0852849707007408142 -0.4387778639793396 0.0374876633286476135
-0.186389774084091187 -0.50002288818359375 -0.256277948617935181
