ply
format ascii 1.0
element vertex 717
property float x
property float y
property float z
end_header
0.325990229845046997 0.230687975883483887 0.290366441011428833
-0.390224099159240723 -0.573447287082672119 0.778340935707092285
0.301202833652496338 0.0426454991102218628 -0.069944337010383606
-0.225726187229156494 -0.600748240947723389 0.633277833461761475
-0.158220604062080383 -0.710038900375366211 0.752033233642578125
0.0957771837711334229 0.145143255591392517 0.176936879754066467
-0.256892561912536621 -0.474657833576202393 0.955024003982543945
0.117239996790885925 0.186032757163047791 0.300864547491073608
-0.311000645160675049 -0.466587483882904053 0.714460611343383789
0.100679725408554077 0.0309520158916711807 0.358518332242965698
-0.142675742506980896 -0.423969924449920654 0.725423932075500488
0.0595491640269756317 -0.0646486878395080566 0.448379695415496826
-0.231299698352813721 -0.535970926284790039 0.620662033557891846
-0.20821775496006012 -0.422995716333389282 0.738868176937103271
-0.318842470645904541 -0.447383135557174683 0.852288961410522461
-0.344576418399810791 -0.647986769676208496 0.741500914096832275
0.116565912961959839 0.0564721599221229553 0.349109292030334473
-0.168335020542144775 -0.717467069625854492 0.82707667350769043
-0.351475507020950317 -0.458567112684249878 0.742658376693725586
-0.0632716640830039978 -0.607579469680786133 0.799667179584503174
-0.054713856428861618 -0.351186275482177734 0.652110517024993896
-0.189041748642921448 -0.675043761730194092 0.842354893684387207
-0.00123736774548888206 -0.183861225843429565 0.491384267807006836
0.252940177917480469 0.110036700963973999 0.187182515859603882
-0.253455609083175659 -0.632363796234130859 0.863179385662078857
-0.37243315577507019 -0.559777677059173584 0.740852653980255127
-0.338394731283187866 -0.468187332153320312 0.864112138748168945
0.275299817323684692 0.0229978282004594803 0.312963426113128662
-0.0370058752596378326 -0.278719276189804077 0.582814037799835205
-0.10668867826461792 -0.641261875629425049 0.858419120311737061
0.184564679861068726 0.00143860082607716322 0.371385484933853149
-0.0538949333131313324 -0.573419749736785889 0.711331367492675781
-0.110520616173744202 -0.487984299659729004 0.742503166198730469
0.113696485757827759 0.00674221152439713478 0.317958235740661621
0.333671778440475464 0.0213728435337543488 0.114309437572956085
-0.0381882302463054657 -0.364911139011383057 0.64158862829208374
0.0842551141977310181 -0.197608068585395813 0.516244173049926758
-0.23346218466758728 -0.467515230178833008 0.729001224040985107
-0.224708884954452515 -0.60675048828125 0.881682991981506348
0.201055198907852173 0.149784490466117859 0.246307194232940674
0.120353661477565765 0.00772976735606789589 0.404524654150009155
0.0728523582220077515 -0.221623197197914124 0.515733480453491211
-0.273538678884506226 -0.49312978982925415 0.603409945964813232
0.363002985715866089 0.106286123394966125 0.170998454093933105
-0.104025490581989288 -0.355520635843276978 0.643942534923553467
-0.216121777892112732 -0.52797621488571167 0.65669560432434082
-0.127425849437713623 -0.461474865674972534 0.758034169673919678
-0.117605231702327728 -0.417110741138458252 0.729478895664215088
-0.264204293489456177 -0.59859466552734375 0.649253427982330322
-0.271803200244903564 -0.619845271110534668 0.833790063858032227
-0.189813658595085144 -0.380483448505401611 0.824130117893218994
-0.0327329151332378387 -0.499152690172195435 0.804525375366210938
-0.152633249759674072 -0.405063927173614502 0.778674185276031494
0.132092192769050598 0.12886480987071991 0.22779025137424469
-0.0592412352561950684 -0.528489351272583008 0.756674110889434814
0.085557401180267334 -0.0381494536995887756 0.425130337476730347
-0.113566458225250244 -0.466053277254104614 0.758947134017944336
-0.281303942203521729 -0.371032267808914185 0.739989817142486572
0.169612795114517212 -0.119888685643672943 0.434938013553619385
-0.073514692485332489 -0.590158522129058838 0.701716601848602295
-0.0790137425065040588 -0.610624909400939941 0.752965450286865234
0.227389156818389893 0.193355798721313477 0.10814957320690155
0.207029521465301514 0.209277898073196411 0.156562119722366333
-0.341992765665054321 -0.496325165033340454 0.744967162609100342
-0.229585751891136169 -0.540459215641021729 0.953574597835540771
0.106049619615077972 0.0206183157861232758 0.214517787098884583
0.325337797403335571 0.0845732316374778748 0.253352105617523193
-0.079683549702167511 -0.537183463573455811 0.866953194141387939
-0.310379743576049805 -0.445205152034759521 0.691606819629669189
-0.0938685089349746704 -0.574145495891571045 0.734718799591064453
0.0364288166165351868 -0.19593474268913269 0.496523052453994751
-0.198090046644210815 -0.55926978588104248 0.937546908855438232
0.367470592260360718 0.0607934482395648956 0.33861154317855835
-0.0916124433279037476 -0.544427692890167236 0.896048784255981445
-0.382289916276931763 -0.58159184455871582 0.796004652976989746
-0.231399089097976685 -0.473098427057266235 0.962079465389251709
-0.325460702180862427 -0.423669159412384033 0.795108497142791748
-0.0878005176782608032 -0.537132680416107178 0.907626152038574219
-0.262599706649780273 -0.653271973133087158 0.778156876564025879
-0.334104806184768677 -0.474705696105957031 0.882668733596801758
0.0685964822769165039 -0.120433896780014038 0.439635962247848511
-0.294062763452529907 -0.617382347583770752 0.790032267570495605
0.220254361629486084 0.0805254578590393066 0.176448896527290344
0.13483874499797821 0.00893517304211854935 0.286586999893188477
-0.292988061904907227 -0.427912592887878418 0.658433973789215088
0.0216952338814735413 -0.132093042135238647 0.509372949600219727
-0.150855869054794312 -0.512041568756103516 0.700377523899078369
0.102649062871932983 -0.166204646229743958 0.467322587966918945
0.257100164890289307 0.0210575610399246216 0.190125182271003723
-0.0321351513266563416 -0.563120424747467041 0.713455140590667725
-0.39966544508934021 -0.547249197959899902 0.806666076183319092
-0.10414142906665802 -0.457352191209793091 0.790366649627685547
0.291676849126815796 0.0457648709416389465 0.0915015265345573425
0.118400953710079193 0.00647084414958953857 0.303329318761825562
0.190813377499580383 0.170535638928413391 0.104535475373268127
-0.0139494556933641434 -0.238233745098114014 0.59757000207901001
-0.370393961668014526 -0.577764272689819336 0.742775142192840576
-0.117221243679523468 -0.575120806694030762 0.655817091464996338
-0.00445062434300780296 -0.315810441970825195 0.603579580783843994
0.341205865144729614 0.0423829779028892517 0.133183464407920837
-0.0197447594255208969 -0.521372020244598389 0.788745224475860596
0.327309995889663696 0.07336396723985672 0.197630420327186584
0.0597629360854625702 -0.0700122490525245667 0.451126664876937866
0.106217354536056519 0.184680834412574768 0.333445370197296143
-0.0589119270443916321 -0.458767503499984741 0.824654519557952881
-0.195985287427902222 -0.605070650577545166 0.898945450782775879
0.390015542507171631 0.0937829166650772095 0.301291704177856445
-0.210169032216072083 -0.677575886249542236 0.721281826496124268
0.137553006410598755 0.0150776514783501625 0.327629923820495605
0.0913752764463424683 -0.043261989951133728 0.405147522687911987
0.268488854169845581 0.0202262215316295624 0.145556151866912842
-0.273845702409744263 -0.503447592258453369 0.626652777194976807
0.0977263599634170532 0.0239765867590904236 0.365604311227798462
-0.27108466625213623 -0.683786749839782715 0.747069001197814941
0.0716611966490745544 0.0150281209498643875 0.384257972240447998
0.166491806507110596 0.0886003896594047546 0.440544009208679199
-0.0216867942363023758 -0.267240077257156372 0.563375353813171387
-0.333259463310241699 -0.626557648181915283 0.812419712543487549
-0.350682526826858521 -0.630667984485626221 0.723376214504241943
-0.0674589499831199646 -0.616800606250762939 0.820374548435211182
0.319679170846939087 0.0811990275979042053 0.19822286069393158
-0.279326677322387695 -0.473911494016647339 0.633109211921691895
-0.00838156882673501968 -0.214762076735496521 0.536134839057922363
-0.0146080963313579559 -0.341437965631484985 0.611878156661987305
0.305308818817138672 0.0999944955110549927 0.230392053723335266
-0.135593503713607788 -0.573944091796875 0.669175267219543457
-0.106079034507274628 -0.533451437950134277 0.911860942840576172
0.339521974325180054 0.187077358365058899 0.223471835255622864
-0.324038207530975342 -0.482480138540267944 0.675288677215576172
-0.0312271937727928162 -0.558524847030639648 0.810449361801147461
0.201503604650497437 0.0652763471007347107 0.308796167373657227
0.208151295781135559 0.226185053586959839 0.192045420408248901
-0.0703476890921592712 -0.52389681339263916 0.761968433856964111
-0.209195524454116821 -0.359206855297088623 0.792144656181335449
-0.303405344486236572 -0.498805642127990723 0.941105544567108154
0.39601781964302063 0.0953226163983345032 0.300361752510070801
-0.247334212064743042 -0.620764732360839844 0.863130629062652588
-0.160690188407897949 -0.405652135610580444 0.794355690479278564
-0.283053785562515259 -0.571729123592376709 0.868251800537109375
0.23671974241733551 0.218292608857154846 0.3393440842628479
-0.162248969078063965 -0.376112610101699829 0.834211826324462891
-0.105649307370185852 -0.642181754112243652 0.854710578918457031
-0.207742244005203247 -0.607165336608886719 0.6487007737159729
-0.203964740037918091 -0.349082529544830322 0.815369129180908203
-0.28358045220375061 -0.413256585597991943 0.849733591079711914
-0.189215674996376038 -0.43187028169631958 0.902520060539245605
-0.249265134334564209 -0.627314090728759766 0.834722816944122314
0.187458813190460205 0.0113037070259451866 0.221132636070251465
-0.297740012407302856 -0.393506944179534912 0.671634852886199951
-0.285793781280517578 -0.678810000419616699 0.7721518874168396
0.276807576417922974 0.0712782666087150574 0.164589300751686096
-0.0820480808615684509 -0.561638057231903076 0.868265390396118164
-0.154759019613265991 -0.699637353420257568 0.851307213306427002
-0.10593685507774353 -0.614484608173370361 0.691713511943817139
-0.358034014701843262 -0.588762104511260986 0.750482678413391113
0.237508296966552734 0.115141704678535461 0.051347196102142334
-0.366724163293838501 -0.480773597955703735 0.837824523448944092
0.234860897064208984 -0.0103484466671943665 0.361330240964889526
0.211923137307167053 -0.0434181876480579376 0.374833196401596069
0.00330491014756262302 -0.147298857569694519 0.431291371583938599
0.319356471300125122 0.130215436220169067 0.303577214479446411
-0.10944627970457077 -0.386628508567810059 0.697791874408721924
-0.0811600163578987122 -0.379108339548110962 0.695090711116790771
0.13018210232257843 0.2719135582447052 0.230599716305732727
-0.316096514463424683 -0.475449681282043457 0.654189169406890869
-0.327784746885299683 -0.579399764537811279 0.709804177284240723
-0.274204879999160767 -0.460184335708618164 0.909962892532348633
-0.151538461446762085 -0.541173458099365234 0.651941001415252686
0.192689031362533569 0.104979462921619415 0.453385353088378906
0.16670893132686615 0.0688045471906661987 0.300058215856552124
-0.179742276668548584 -0.558919727802276611 0.632457554340362549
-0.195373907685279846 -0.486082196235656738 0.708748102188110352
-0.198802322149276733 -0.672128438949584961 0.81931602954864502
0.308472037315368652 0.0204874314367771149 0.149285465478897095
0.281029760837554932 0.0749521553516387939 0.245352566242218018
0.292456448078155518 0.0711960121989250183 -0.0573245100677013397
-0.130946636199951172 -0.708039522171020508 0.789290428161621094
-0.211345300078392029 -0.429360628128051758 0.903790473937988281
0.451202392578125 0.0711561664938926697 0.322677344083786011
-0.241117298603057861 -0.63703620433807373 0.857200980186462402
0.296179503202438354 0.0568355731666088104 0.285925179719924927
-0.339274585247039795 -0.632311046123504639 0.745424509048461914
0.17521686851978302 0.0427844077348709106 0.313636451959609985
0.299944907426834106 0.110228098928928375 0.260616868734359741
0.195028200745582581 0.192220225930213928 0.200539007782936096
-0.298231542110443115 -0.423098891973495483 0.713293254375457764
-0.305481910705566406 -0.440474748611450195 0.716508090496063232
0.331318467855453491 0.0683511048555374146 0.404259324073791504
-0.0902053341269493103 -0.629889786243438721 0.749755918979644775
-0.112254232168197632 -0.354630708694458008 0.705808699131011963
0.120072633028030396 -0.101794913411140442 0.425175875425338745
-0.126599729061126709 -0.654852569103240967 0.695188164710998535
-0.311402112245559692 -0.501014053821563721 0.678692102432250977
-0.311273843050003052 -0.438132733106613159 0.645196020603179932
0.301031649112701416 0.086407005786895752 0.244004562497138977
-0.15581803023815155 -0.443742722272872925 0.90050351619720459
0.275034129619598389 -0.022075355052947998 0.143610656261444092
-0.147510305047035217 -0.685149848461151123 0.745055079460144043
-0.334672391414642334 -0.645500838756561279 0.77414858341217041
-0.10048329085111618 -0.481577455997467041 0.880764126777648926
0.323358714580535889 0.107391059398651123 0.256396114826202393
-0.365197867155075073 -0.563000082969665527 0.819814324378967285
-0.0854473337531089783 -0.301054269075393677 0.605587601661682129
0.0322453752160072327 -0.226784691214561462 0.514355957508087158
-0.30061715841293335 -0.451348334550857544 0.679252982139587402
-0.092734992504119873 -0.633097648620605469 0.831125378608703613
0.144033163785934448 -0.218130201101303101 0.456246644258499146
0.0760863795876502991 0.0654857233166694641 0.378337860107421875
-0.158859118819236755 -0.59834665060043335 0.624735593795776367
0.270414948463439941 -0.0710930004715919495 0.257647573947906494
-0.0165656264871358871 -0.51687246561050415 0.799752175807952881
-0.321419864892959595 -0.462085992097854614 0.817404508590698242
-0.0885656476020812988 -0.306633442640304565 0.633305370807647705
-0.120377622544765472 -0.383512020111083984 0.68609917163848877
-0.34650912880897522 -0.459585696458816528 0.847071349620819092
0.207491129636764526 -0.0752355456352233887 0.332439243793487549
0.186005771160125732 0.175366237759590149 0.318323731422424316
-0.18048781156539917 -0.474512666463851929 0.928249478340148926
0.267518430948257446 0.0932274758815765381 0.00810401421040296555
-0.328219443559646606 -0.565556108951568604 0.675172209739685059
0.0852049589157104492 -0.124243669211864471 0.473819077014923096
0.172343730926513672 0.00573925208300352097 0.176628962159156799
-0.0676740333437919617 -0.408428937196731567 0.676676273345947266
0.170178711414337158 -0.0342075303196907043 0.34643206000328064
-0.342271357774734497 -0.482994139194488525 0.673879146575927734
0.202543690800666809 0.0498817563056945801 0.457960963249206543
0.225277602672576904 0.0752764120697975159 0.178595080971717834
0.359252214431762695 0.135403215885162354 0.217918246984481812
0.242353290319442749 0.00274576339870691299 0.277640551328659058
0.268920958042144775 0.0022752771619707346 0.240281134843826294
-0.122257918119430542 -0.618428409099578857 0.658864796161651611
-0.204698055982589722 -0.513753175735473633 0.702819406986236572
-0.21784287691116333 -0.554236948490142822 0.931150496006011963
-0.383132010698318481 -0.558089375495910645 0.767788112163543701
-0.237984240055084229 -0.368215322494506836 0.850700616836547852
-0.0554030761122703552 -0.581090748310089111 0.828176915645599365
0.292159289121627808 0.0526505559682846069 0.196950510144233704
-0.118570566177368164 -0.679770112037658691 0.847121059894561768
-0.045605190098285675 -0.574262082576751709 0.755631923675537109
-0.214186429977416992 -0.58716195821762085 0.914346635341644287
-0.0865555256605148315 -0.575899958610534668 0.678475558757781982
-0.0790399760007858276 -0.618840992450714111 0.863525986671447754
-0.285851150751113892 -0.436543494462966919 0.863294661045074463
0.166265219449996948 0.103845559060573578 0.380492299795150757
0.263700127601623535 0.245817780494689941 0.335727214813232422
-0.22537645697593689 -0.498779326677322388 0.65507817268371582
-0.0834961459040641785 -0.505396664142608643 0.780175387859344482
-0.353780597448348999 -0.472758650779724121 0.870328545570373535
-0.0642954632639884949 -0.413014233112335205 0.707056581974029541
-0.066662907600402832 -0.312349528074264526 0.616306066513061523
0.447800815105438232 0.0194722134619951248 0.3632163405418396
-0.253216266632080078 -0.611862897872924805 0.674919366836547852
-0.117512635886669159 -0.393137663602828979 0.685831725597381592
-0.33223310112953186 -0.650328099727630615 0.714496135711669922
0.110164470970630646 -0.0320300683379173279 0.436355412006378174
0.228699132800102234 0.0818606987595558167 0.265320152044296265
0.235950931906700134 0.109158523380756378 0.270779669284820557
0.184656143188476562 -0.156576439738273621 0.407673150300979614
-0.241993904113769531 -0.583358526229858398 0.908514440059661865
-0.27544093132019043 -0.438792616128921509 0.897613167762756348
-0.29872971773147583 -0.584013104438781738 0.676348567008972168
-0.0835945531725883484 -0.632939398288726807 0.717621088027954102
-0.0555239692330360413 -0.449566006660461426 0.815943598747253418
-0.268283933401107788 -0.677523434162139893 0.692412257194519043
0.257949024438858032 0.141794875264167786 0.192414417862892151
-0.150903195142745972 -0.425905495882034302 0.734799027442932129
0.253572702407836914 0.121126905083656311 0.196952059864997864
-0.130134359002113342 -0.405941873788833618 0.741245865821838379
0.0554500222206115723 0.0495901070535182953 0.35499534010887146
-0.140001490712165833 -0.572368025779724121 0.628897488117218018
-0.317768782377243042 -0.445097744464874268 0.845592081546783447
0.0377532802522182465 -0.238131538033485413 0.556838512420654297
0.346260160207748413 0.0765633508563041687 -0.0886957645416259766
0.256990313529968262 0.0117426272481679916 0.361070543527603149
0.122223332524299622 0.0745910480618476868 0.34010016918182373
-0.179281041026115417 -0.622241854667663574 0.681673169136047363
0.168349862098693848 -0.0412772074341773987 0.183942288160324097
0.218786492943763733 0.141071900725364685 0.199915632605552673
0.236337512731552124 0.0987880006432533264 0.0240134503692388535
-0.18147161602973938 -0.675253331661224365 0.721205711364746094
-0.348336249589920044 -0.551639080047607422 0.742845535278320312
-0.146651953458786011 -0.734162211418151855 0.815525531768798828
0.341344892978668213 0.110009625554084778 0.159344881772994995
-0.190679445862770081 -0.422911465167999268 0.773752272129058838
0.267715662717819214 0.0163405630737543106 0.352283239364624023
-0.229396343231201172 -0.511878371238708496 0.971924662590026855
0.270415455102920532 -0.0299234930425882339 0.382199496030807495
-0.257456809282302856 -0.448466390371322632 0.909800231456756592
0.100621692836284637 -0.0766523629426956177 0.375467389822006226
-0.363827824592590332 -0.526772856712341309 0.810336053371429443
-0.22613370418548584 -0.703891754150390625 0.77337116003036499
0.356129825115203857 -0.0192963723093271255 0.0843511000275611877
-0.314074218273162842 -0.464067518711090088 0.686746537685394287
0.0467441678047180176 -0.225770667195320129 0.525372743606567383
-0.165646731853485107 -0.475107669830322266 0.733275711536407471
0.238687291741371155 0.2250567227602005 0.146283164620399475
-0.155238017439842224 -0.407265245914459229 0.788826704025268555
0.170965701341629028 0.152608335018157959 0.181534767150878906
-0.0690228641033172607 -0.305156707763671875 0.674692928791046143
-0.302911043167114258 -0.587621986865997314 0.843931317329406738
0.105756640434265137 -0.114588864147663116 0.429346203804016113
0.12329573929309845 0.172032713890075684 0.13406197726726532
0.176677554845809937 0.108975209295749664 0.206940799951553345
-0.0906411483883857727 -0.558243870735168457 0.654239058494567871
0.173406094312667847 0.147970438003540039 0.264258772134780884
0.260637938976287842 0.0174063388258218765 0.336776316165924072
0.128235757350921631 -0.0412159599363803864 0.397105574607849121
0.13488924503326416 0.102977432310581207 0.328126996755599976
0.044290587306022644 -0.11278226226568222 0.421373426914215088
-0.250916004180908203 -0.408983349800109863 0.751506626605987549
0.172964483499526978 -0.0772713422775268555 0.393064022064208984
0.0235705431550741196 -0.0538059249520301819 0.28019300103187561
0.383272320032119751 0.148953333497047424 0.15448606014251709
0.260749369859695435 0.0640751048922538757 0.0153679065406322479
-0.341725528240203857 -0.474686861038208008 0.801613926887512207
0.48510703444480896 0.123039580881595612 0.307045876979827881
0.0387647673487663269 -0.0211012102663516998 0.4757576584815979
0.172747060656547546 0.0831571668386459351 0.415560543537139893
-0.245946511626243591 -0.591744899749755859 0.870048582553863525
-0.338750600814819336 -0.434015184640884399 0.782455265522003174
0.346639633178710938 0.139803618192672729 0.271661847829818726
0.141110837459564209 0.170235961675643921 0.277725398540496826
-0.295684337615966797 -0.532956957817077637 0.665227293968200684
0.173348352313041687 0.00797091424465179443 0.304107069969177246
-0.327425658702850342 -0.508540809154510498 0.686204910278320312
0.0447295010089874268 -0.0320527926087379456 0.238008871674537659
-0.248389780521392822 -0.707075953483581543 0.770384550094604492
-0.200454652309417725 -0.570065140724182129 0.622054100036621094
-0.356535375118255615 -0.492321968078613281 0.788681983947753906
-0.109483383595943451 -0.513413190841674805 0.721228063106536865
-0.387553095817565918 -0.570552527904510498 0.806247055530548096
0.470137745141983032 0.0722612515091896057 0.31857377290725708
-0.321129173040390015 -0.542482495307922363 0.696909308433532715
-0.0793747082352638245 -0.43078160285949707 0.851729929447174072
-0.366193056106567383 -0.5745697021484375 0.691298544406890869
-0.0689532309770584106 -0.338448524475097656 0.635157465934753418
0.276674240827560425 0.0891664028167724609 0.264624267816543579
-0.0580429509282112122 -0.497749388217926025 0.783344388008117676
-0.341325104236602783 -0.567917406558990479 0.87527233362197876
-0.117593273520469666 -0.664071023464202881 0.817455649375915527
-0.0551710017025470734 -0.590244293212890625 0.736646533012390137
-0.00171035842504352331 -0.183899611234664917 0.560988545417785645
-0.132147401571273804 -0.460892736911773682 0.78172600269317627
-0.197671845555305481 -0.54559481143951416 0.599151849746704102
-0.16461692750453949 -0.457033365964889526 0.745570838451385498
0.309258133172988892 0.0210363622754812241 0.362747520208358765
0.186903133988380432 0.00136524788103997707 0.180381923913955688
-0.213041245937347412 -0.670187950134277344 0.808118164539337158
0.232245266437530518 0.0234415270388126373 0.3122081458568573
-0.0229504946619272232 -0.348443418741226196 0.628668487071990967
-0.293624579906463623 -0.524154782295227051 0.650904715061187744
-0.0608634687960147858 -0.550015270709991455 0.692953705787658691
0.122750714421272278 0.118828408420085907 0.146013006567955017
-0.263689726591110229 -0.381860792636871338 0.728438258171081543
0.173707485198974609 0.143653348088264465 0.256059020757675171
0.275201380252838135 0.0555671155452728271 0.187526315450668335
-0.269491374492645264 -0.536482036113739014 0.61547476053237915
-0.131056010723114014 -0.40756574273109436 0.717498719692230225
0.178739085793495178 -0.0537092611193656921 0.349618881940841675
0.109895132482051849 -0.0691870227456092834 0.415381312370300293
-0.13800714910030365 -0.68775629997253418 0.755749225616455078
-0.133736252784729004 -0.402055591344833374 0.705241203308105469
0.307329565286636353 0.226316645741462708 0.194716081023216248
0.216847479343414307 0.20029895007610321 0.310604184865951538
0.254719048738479614 0.00481975683942437172 0.275835692882537842
0.111719131469726562 0.130538031458854675 0.0798265263438224792
0.234073594212532043 0.100447900593280792 0.254351586103439331
0.0279394537210464478 -0.166425451636314392 0.557194352149963379
-0.0112950410693883896 -0.28582453727722168 0.589991092681884766
-0.164335682988166809 -0.650101542472839355 0.695321440696716309
0.213290184736251831 0.00920360907912254333 0.30111345648765564
0.198619678616523743 0.0263170655816793442 0.338622808456420898
0.531539559364318848 0.0464763790369033813 0.361386746168136597
0.119005762040615082 0.18305794894695282 0.141927525401115417
-0.103406868875026703 -0.486068010330200195 0.904814183712005615
-0.107134662568569183 -0.54769819974899292 0.909138619899749756
-0.207911029458045959 -0.47984728217124939 0.701296687126159668
-0.023064861074090004 -0.320155709981918335 0.606730222702026367
-0.0610885880887508392 -0.376920551061630249 0.653641462326049805
-0.340060710906982422 -0.434949398040771484 0.818278908729553223
-0.112346380949020386 -0.437205791473388672 0.854052960872650146
0.276153922080993652 0.111520722508430481 0.218776866793632507
0.243130654096603394 0.204411327838897705 0.243722528219223022
0.131813704967498779 0.0441010519862174988 0.393455296754837036
-0.104933805763721466 -0.422819077968597412 0.834260761737823486
-0.0289615578949451447 -0.492522925138473511 0.782648801803588867
-0.0616166740655899048 -0.397267997264862061 0.685753524303436279
0.240309670567512512 0.0315358564257621765 0.220456391572952271
-0.26503559947013855 -0.672210454940795898 0.713628828525543213
-0.160937845706939697 -0.414792031049728394 0.801219582557678223
0.334724843502044678 0.11715400218963623 0.279192477464675903
-0.280246049165725708 -0.431322991847991943 0.879757285118103027
-0.280012190341949463 -0.663364648818969727 0.79416346549987793
0.184853062033653259 0.0730351507663726807 0.274494320154190063
-0.259869277477264404 -0.588591337203979492 0.900039553642272949
-0.157659351825714111 -0.660204708576202393 0.698712587356567383
-0.302459657192230225 -0.637951552867889404 0.719598174095153809
-0.221830010414123535 -0.67678600549697876 0.661112606525421143
-0.205777406692504883 -0.456971853971481323 0.7269858717918396
0.217270523309707642 0.0761375352740287781 0.398603588342666626
-0.0506883673369884491 -0.340537518262863159 0.610628902912139893
0.0454635955393314362 -0.131233006715774536 0.43437725305557251
-0.320541083812713623 -0.657991409301757812 0.769077897071838379
0.204845994710922241 0.00697408244013786316 0.47004091739654541
0.249941319227218628 -0.0638437196612358093 0.361183822154998779
-0.110336214303970337 -0.431368589401245117 0.692345380783081055
0.101297140121459961 0.0192361734807491302 0.365502268075942993
0.132880657911300659 0.0277385972440242767 0.245758160948753357
0.264947354793548584 0.0117417527362704277 0.303474783897399902
-0.0560780838131904602 -0.486695259809494019 0.839783370494842529
-0.208575427532196045 -0.400420606136322021 0.786432504653930664
0.204031795263290405 -0.0387072190642356873 0.304361015558242798
0.219408556818962097 0.0615127831697463989 0.139724776148796082
-0.179924055933952332 -0.55344080924987793 0.60617297887802124
-0.345605403184890747 -0.524664103984832764 0.868537306785583496
-0.368609219789505005 -0.602471888065338135 0.787224173545837402
-0.0723424628376960754 -0.616933345794677734 0.783900976181030273
0.247172534465789795 0.143338948488235474 0.21013621985912323
0.111757449805736542 -0.0258973799645900726 0.399156957864761353
-0.0965862423181533813 -0.454501420259475708 0.793167829513549805
-0.255720585584640503 -0.713102757930755615 0.747061848640441895
-0.359029650688171387 -0.523418009281158447 0.873775780200958252
-0.176155760884284973 -0.417846262454986572 0.880846619606018066
0.350876361131668091 0.155436962842941284 0.276678621768951416
-0.162552669644355774 -0.572972953319549561 0.936455786228179932
0.178596362471580505 0.0153830293565988541 0.312108337879180908
0.0444984659552574158 -0.0744654387235641479 0.475994080305099487
-0.139620661735534668 -0.689348876476287842 0.716583847999572754
0.101675942540168762 -0.0223814956843852997 0.274682462215423584
0.140641272068023682 0.148599028587341309 0.163371026515960693
0.0833005234599113464 0.0671491473913192749 0.370226234197616577
-0.278628498315811157 -0.441697984933853149 0.66804659366607666
-0.0175427831709384918 -0.535283803939819336 0.737931132316589355
-0.276761412620544434 -0.608147323131561279 0.65393221378326416
0.215953394770622253 0.0626252368092536926 0.111835338175296783
-0.236010178923606873 -0.417283087968826294 0.736171185970306396
-0.13412339985370636 -0.363061279058456421 0.74453437328338623
-0.279305726289749146 -0.354813158512115479 0.775703608989715576
0.421797841787338257 0.0872528478503227234 0.316536188125610352
-0.28451266884803772 -0.429860085248947144 0.877201676368713379
0.353768050670623779 0.195039555430412292 0.231648698449134827
-0.133508235216140747 -0.370596855878829956 0.840289056301116943
0.309520035982131958 0.0231774132698774338 0.0498427301645278931
0.0366703160107135773 -0.2122374027967453 0.520565688610076904
-0.224588260054588318 -0.545334875583648682 0.957246303558349609
-0.118067800998687744 -0.62660062313079834 0.651250481605529785
-0.100705407559871674 -0.63629150390625 0.72949063777923584
0.179387927055358887 -0.0547097250819206238 0.334261983633041382
0.183190196752548218 -0.012604815885424614 0.258788228034973145
-0.146838292479515076 -0.450767368078231812 0.781441450119018555
-0.226937711238861084 -0.466215997934341431 0.689738273620605469
0.283979803323745728 0.0753913521766662598 0.242396727204322815
-0.0852807685732841492 -0.50641244649887085 0.76072537899017334
0.229328051209449768 0.240569993853569031 0.2687491774559021
0.0388027504086494446 0.00337422476150095463 0.215222612023353577
-0.125668138265609741 -0.520232200622558594 0.7181587815284729
0.0702739953994750977 -0.19418567419052124 0.48164716362953186
-0.159973308444023132 -0.716095089912414551 0.791163444519042969
0.228614851832389832 -0.0143638141453266144 0.308807909488677979
0.138618633151054382 0.0453805886209011078 0.424714475870132446
0.286604970693588257 0.110456518828868866 0.289785087108612061
0.0989566445350646973 -0.192044958472251892 0.504227519035339355
-0.126555219292640686 -0.350745081901550293 0.663527190685272217
-0.282537192106246948 -0.563480973243713379 0.65483701229095459
-0.247843310236930847 -0.372557848691940308 0.752390086650848389
0.240206852555274963 0.0133427344262599945 0.368076413869857788
-0.076158575713634491 -0.32046586275100708 0.684391558170318604
0.16682279109954834 0.0397199839353561401 0.335923254489898682
-0.30602535605430603 -0.403794378042221069 0.760383367538452148
0.398216336965560913 0.0687558501958847046 0.316713243722915649
0.276591598987579346 0.0108567830175161362 0.14465506374835968
0.373479604721069336 0.151273414492607117 0.190940216183662415
0.266275912523269653 0.102399356663227081 0.258750200271606445
0.31962132453918457 0.0671710222959518433 0.290480762720108032
0.192291483283042908 0.00282924599014222622 0.321631550788879395
-0.192080393433570862 -0.718594551086425781 0.760458111763000488
0.0221446938812732697 -0.0469450466334819794 0.278995126485824585
0.157998800277709961 -0.0270289313048124313 0.417370349168777466
0.145872727036476135 0.14911922812461853 0.13196110725402832
-0.213529154658317566 -0.633856892585754395 0.669009506702423096
-0.210280358791351318 -0.44490388035774231 0.936007380485534668
-0.25362280011177063 -0.693963468074798584 0.758725285530090332
-0.0412200726568698883 -0.25014042854309082 0.557907462120056152
-0.158858433365821838 -0.528280556201934814 0.68214184045791626
0.187456578016281128 0.0803120732307434082 0.201954960823059082
0.0744175910949707031 -0.209517225623130798 0.507182955741882324
-0.266819298267364502 -0.407957762479782104 0.731120586395263672
-0.202023133635520935 -0.395914405584335327 0.856064319610595703
0.210119038820266724 0.0230637528002262115 0.263582885265350342
-0.177267566323280334 -0.453178554773330688 0.7777596116065979
-0.0952022373676300049 -0.509089291095733643 0.745596587657928467
-0.0276073813438415527 -0.444581478834152222 0.82458198070526123
0.0560693554580211639 -0.00327988248318433762 0.380197048187255859
-0.276205956935882568 -0.692310452461242676 0.775108158588409424
-0.170226395130157471 -0.538897931575775146 0.675795853137969971
0.331866025924682617 0.0336138308048248291 0.347623556852340698
0.228115767240524292 0.116677507758140564 0.271153181791305542
-0.323720872402191162 -0.464513033628463745 0.901999115943908691
0.233913183212280273 0.098513484001159668 0.159718632698059082
0.166998013854026794 0.220639511942863464 0.182282403111457825
-0.093036256730556488 -0.612171947956085205 0.713126003742218018
0.0539834611117839813 -0.121379375457763672 0.483642637729644775
0.122315071523189545 0.00446173641830682755 0.409904211759567261
0.154057577252388 0.132422074675559998 0.276488780975341797
0.175866797566413879 0.167257264256477356 0.127990901470184326
0.160895571112632751 -0.17209509015083313 0.418654710054397583
-0.331671953201293945 -0.440250784158706665 0.774223804473876953
0.116681106388568878 0.0153810223564505577 0.400068104267120361
-0.363389164209365845 -0.495059341192245483 0.799823522567749023
-0.121958136558532715 -0.364953130483627319 0.66151738166809082
0.0172296110540628433 -0.268553376197814941 0.582378923892974854
0.0104384655132889748 -0.266315340995788574 0.572290658950805664
-0.256614893674850464 -0.402308434247970581 0.854101002216339111
-0.107448183000087738 -0.649498462677001953 0.744723081588745117
0.271612673997879028 0.117135845124721527 -0.0221424493938684464
-0.26834145188331604 -0.469263404607772827 0.940703272819519043
0.287924081087112427 0.0958273708820343018 0.144819125533103943
0.316745281219482422 -0.0278097819536924362 0.0670052096247673035
0.111073195934295654 0.149207428097724915 0.115126669406890869
-0.12123320996761322 -0.690824210643768311 0.827042162418365479
-0.306241869926452637 -0.523312866687774658 0.889288127422332764
-0.204877331852912903 -0.439990639686584473 0.903945088386535645
0.144787311553955078 0.183630362153053284 0.0658063888549804688
0.303191304206848145 0.158150553703308105 0.186532109975814819
0.123185083270072937 0.0505901016294956207 0.273039460182189941
-0.1365203857421875 -0.588735520839691162 0.933619201183319092
-0.0485488921403884888 -0.609534740447998047 0.752348184585571289
0.207288578152656555 0.178579419851303101 0.317947596311569214
-0.13802124559879303 -0.564740955829620361 0.659021615982055664
-0.150908112525939941 -0.587425053119659424 0.944103121757507324
-0.0409578010439872742 -0.284954935312271118 0.601209402084350586
-0.281266152858734131 -0.388056635856628418 0.801390230655670166
-0.163352757692337036 -0.393594145774841309 0.827354252338409424
-0.160313189029693604 -0.458149731159210205 0.758836090564727783
0.20193636417388916 0.00258565391413867474 0.256923913955688477
0.192105323076248169 0.0491995438933372498 0.225362330675125122
-0.32654803991317749 -0.602805018424987793 0.708410143852233887
-0.0702402889728546143 -0.543702125549316406 0.727035760879516602
-0.101192660629749298 -0.629924118518829346 0.847686409950256348
-0.333219349384307861 -0.575079143047332764 0.838228046894073486
0.115615926682949066 -0.0301192272454500198 0.297440439462661743
-0.252617925405502319 -0.377693831920623779 0.751352429389953613
-0.195243850350379944 -0.579355776309967041 0.593066513538360596
-0.179256394505500793 -0.371798336505889893 0.813182711601257324
0.311163663864135742 0.119103297591209412 0.178860068321228027
0.139322087168693542 0.0701053664088249207 0.217362657189369202
-0.388332664966583252 -0.532980442047119141 0.758117079734802246
-0.293298840522766113 -0.67837291955947876 0.735417604446411133
0.272655963897705078 0.0805914551019668579 0.323196291923522949
-0.297218531370162964 -0.566734373569488525 0.910026311874389648
-0.282471328973770142 -0.531587719917297363 0.92966759204864502
-0.336405128240585327 -0.519897699356079102 0.876412510871887207
-0.136965095996856689 -0.542405426502227783 0.959554135799407959
-0.193111374974250793 -0.360996782779693604 0.835958600044250488
0.050303921103477478 -0.161212235689163208 0.413436919450759888
0.480186700820922852 0.0902824625372886658 0.305445760488510132
-0.147066578269004822 -0.407516211271286011 0.746522843837738037
-0.177965208888053894 -0.525829553604125977 0.98099672794342041
0.144588425755500793 -0.0574598982930183411 0.310744166374206543
-0.00220483611337840557 -0.206243708729743958 0.547285258769989014
-0.0335474386811256409 -0.339436739683151245 0.632643818855285645
-0.0188734140247106552 -0.309101730585098267 0.612623035907745361
-0.327044874429702759 -0.42750018835067749 0.847113072872161865
-0.143797531723976135 -0.383997201919555664 0.674481034278869629
-0.0819574296474456787 -0.295153975486755371 0.650427699089050293
0.223389357328414917 0.0132915060967206955 0.190168231725692749
-0.25969541072845459 -0.381494462490081787 0.779398262500762939
-0.153878718614578247 -0.616133332252502441 0.654753208160400391
-0.0118034500628709793 -0.530198395252227783 0.754850029945373535
-0.323674261569976807 -0.484123647212982178 0.6305428147315979
-0.205446392297744751 -0.516472756862640381 0.653717279434204102
0.205266639590263367 0.0813459679484367371 0.276371657848358154
-0.113507561385631561 -0.448790967464447021 0.73883521556854248
-0.171429991722106934 -0.53412163257598877 0.962019383907318115
0.210624128580093384 0.207075968384742737 0.153402447700500488
-0.228603675961494446 -0.527443051338195801 0.590207934379577637
0.404480338096618652 0.0926589816808700562 0.154368042945861816
0.323390781879425049 -0.00614096084609627724 0.390481948852539062
0.0827617570757865906 -0.0534619688987731934 0.354981899261474609
0.133236631751060486 0.122349321842193604 0.276679754257202148
0.239044412970542908 0.0297784525901079178 0.156818494200706482
-0.174492061138153076 -0.455315530300140381 0.737587809562683105
-0.0933199822902679443 -0.464499324560165405 0.881936430931091309
-0.17231866717338562 -0.525284469127655029 0.682464420795440674
0.396566897630691528 0.13099999725818634 0.072795480489730835
0.154985889792442322 -0.0555005110800266266 0.411657631397247314
0.327313035726547241 0.232082933187484741 0.24487517774105072
0.246027722954750061 0.0689377859234809875 0.317279458045959473
-0.182035639882087708 -0.582239151000976562 0.960479080677032471
0.0806587710976600647 -0.051672670990228653 0.361543446779251099
-0.0736510604619979858 -0.397567093372344971 0.702927529811859131
-0.23349936306476593 -0.65899658203125 0.705275535583496094
-0.138156592845916748 -0.42828834056854248 0.859721601009368896
-0.204700633883476257 -0.360008001327514648 0.849878489971160889
-0.262857824563980103 -0.356290668249130249 0.781539082527160645
0.0844535902142524719 0.0100755468010902405 0.207646936178207397
0.0261959396302700043 -0.123621992766857147 0.479735910892486572
-0.108010545372962952 -0.426074087619781494 0.690824508666992188
0.209299564361572266 0.0496822930872440338 0.166332647204399109
-0.266233563423156738 -0.40170973539352417 0.84282994270324707
-0.10073775053024292 -0.376212179660797119 0.678375065326690674
-0.0190934166312217712 -0.502942919731140137 0.764896690845489502
-0.0897157639265060425 -0.540089547634124756 0.727249741554260254
0.26406899094581604 0.248361572623252869 0.23618800938129425
0.118022069334983826 -0.0648055970668792725 0.232373952865600586
-0.233071044087409973 -0.55230414867401123 0.948876082897186279
-0.187033802270889282 -0.674282371997833252 0.710177302360534668
-0.340297281742095947 -0.594578921794891357 0.739104151725769043
0.343911498785018921 0.139814600348472595 0.233267158269882202
-0.0490316450595855713 -0.37911263108253479 0.677209198474884033
-0.341794729232788086 -0.651984274387359619 0.762148499488830566
-0.129494190216064453 -0.404282063245773315 0.828538835048675537
-0.300500571727752686 -0.461796015501022339 0.871145963668823242
0.176062628626823425 0.00954816862940788269 0.141366183757781982
0.0241615921258926392 -0.255184382200241089 0.563464343547821045
0.347792893648147583 0.130462154746055603 0.15302199125289917
-0.14195704460144043 -0.65884166955947876 0.888656556606292725
0.0687987729907035828 -0.00928674079477787018 0.237570792436599731
0.389030009508132935 0.187407642602920532 0.176377281546592712
0.297636061906814575 -0.00993528123944997787 0.251861602067947388
-0.169147536158561707 -0.466095119714736938 0.924649834632873535
0.20917867124080658 0.161986321210861206 0.189656749367713928
0.0295108705759048462 -0.259017437696456909 0.560159921646118164
-0.177657216787338257 -0.720719516277313232 0.75863802433013916
0.138935774564743042 0.0506893210113048553 0.388547748327255249
0.163637444376945496 0.10143095999956131 0.273609966039657593
0.0433539189398288727 0.0494479164481163025 0.141788899898529053
0.117124110460281372 0.0171498656272888184 0.439669221639633179
-0.042206302285194397 -0.439469039440155029 0.834181368350982666
-0.223634660243988037 -0.548310756683349609 0.943314015865325928
0.216512307524681091 -0.0142605165019631386 0.353960752487182617
-0.293046802282333374 -0.518388688564300537 0.893651485443115234
-0.0371406376361846924 -0.533400177955627441 0.82207953929901123
0.194540441036224365 -0.0259366296231746674 0.345182240009307861
0.247646838426589966 0.0500240623950958252 0.296738594770431519
0.188776358962059021 0.0247733183205127716 0.197380974888801575
0.0722648277878761292 -0.0232888981699943542 0.259560763835906982
-0.111263364553451538 -0.570943593978881836 0.936953067779541016
-0.258756756782531738 -0.395305991172790527 0.897140860557556152
0.228193163871765137 0.0314972847700119019 0.156026527285575867
-0.316715657711029053 -0.571592867374420166 0.854832112789154053
-0.0204290878027677536 -0.498715043067932129 0.843993067741394043
-0.248402819037437439 -0.623822391033172607 0.64407646656036377
-0.0841633528470993042 -0.488083004951477051 0.785291314125061035
-0.282827317714691162 -0.633983910083770752 0.702328860759735107
-0.251421570777893066 -0.466546237468719482 0.928611397743225098
0.0998376384377479553 0.0223008580505847931 0.315166860818862915
0.286855340003967285 0.175851091742515564 0.198068305850028992
0.318854302167892456 0.187528744339942932 0.241523206233978271
0.241876319050788879 0.264478296041488647 0.319237858057022095
0.204489320516586304 0.0651458725333213806 0.277164548635482788
-0.173155069351196289 -0.394408702850341797 0.804320454597473145
-0.200694993138313293 -0.525629520416259766 0.647959530353546143
-0.286002457141876221 -0.620938301086425781 0.685935556888580322
0.0960237458348274231 0.0459346622228622437 0.358634024858474731
0.0696897134184837341 -0.107488825917243958 0.369074642658233643
-0.293778389692306519 -0.562324464321136475 0.64205014705657959
0.0978198722004890442 0.0199989099055528641 0.366393029689788818
-0.137571781873703003 -0.423095941543579102 0.797077476978302002
0.28480762243270874 -0.0641702190041542053 0.335218042135238647
-0.355619341135025024 -0.636108517646789551 0.765260994434356689
0.0441356748342514038 -0.231590479612350464 0.523832321166992188
-0.236228123307228088 -0.388152331113815308 0.839866995811462402
-0.0948988944292068481 -0.371907740831375122 0.651054263114929199
-0.265388160943984985 -0.486955314874649048 0.640594363212585449
0.233304083347320557 0.0860029906034469604 0.259799867868423462
-0.0301623102277517319 -0.564273655414581299 0.68834078311920166
-0.0960700139403343201 -0.594227313995361328 0.890677094459533691
-0.0934406071901321411 -0.642795026302337646 0.866486608982086182
0.378806620836257935 0.0915187150239944458 0.0945215970277786255
-0.296859383583068848 -0.597810328006744385 0.858735740184783936
-0.0710135549306869507 -0.484382957220077515 0.849927544593811035
0.113819986581802368 -0.0447671748697757721 0.330162674188613892
-0.224590390920639038 -0.602503120899200439 0.664364099502563477
0.213926270604133606 0.0899136662483215332 0.283475339412689209
0.250041544437408447 0.28751140832901001 0.347667306661605835
-0.136446982622146606 -0.424405455589294434 0.819551646709442139
-0.149988621473312378 -0.589339256286621094 0.613720953464508057
0.144145846366882324 0.0362157747149467468 0.231298267841339111
-0.113616503775119781 -0.528950035572052002 0.710793852806091309
-0.0651225820183753967 -0.432972222566604614 0.846175789833068848
-0.174560561776161194 -0.641793370246887207 0.864336133003234863
-0.157208457589149475 -0.601945281028747559 0.931788325309753418
0.411698281764984131 0.0204879753291606903 0.343448787927627563
-0.193979710340499878 -0.454183429479598999 0.920686125755310059
0.269483983516693115 0.0497472025454044342 0.279980510473251343
-0.247481584548950195 -0.594592571258544922 0.862518966197967529
-0.126522645354270935 -0.619423627853393555 0.943580567836761475
-0.124993965029716492 -0.642230808734893799 0.91696012020111084
0.288914799690246582 0.0307719521224498749 0.291700214147567749
-0.128614291548728943 -0.645789086818695068 0.882891237735748291
-0.259993761777877808 -0.523860633373260498 0.630069255828857422
-0.0765715017914772034 -0.626334607601165771 0.728056013584136963
0.0698393955826759338 -0.0747319385409355164 0.387679129838943481
0.20953802764415741 -0.00263516604900360107 0.189371213316917419
-0.0469453819096088409 -0.546908795833587646 0.831594586372375488
-0.258022397756576538 -0.399623960256576538 0.736226201057434082
0.317015230655670166 0.042004074901342392 0.343593746423721313
0.127755612134933472 -0.0376700647175312042 0.384222030639648438
0.115555174648761749 0.126379325985908508 0.364348918199539185
0.13220687210559845 0.0182838905602693558 0.417906254529953003
-0.314693629741668701 -0.588637113571166992 0.850658237934112549
-0.0414023809134960175 -0.582212567329406738 0.779265701770782471
-0.0223250314593315125 -0.211872279644012451 0.596749246120452881
0.201636940240859985 0.170670673251152039 0.290499269962310791
0.118368923664093018 0.136025011539459229 0.302194297313690186
0.23438107967376709 0.00948628690093755722 0.344609081745147705
0.0996553599834442139 -0.077783048152923584 0.417960762977600098
0.170852378010749817 0.039285663515329361 0.322079926729202271
0.0328291617333889008 0.022916451096534729 0.385578960180282593
0.182525709271430969 0.129239737987518311 0.161308586597442627
0.0938691049814224243 -0.115100674331188202 0.411374032497406006
-0.274936556816101074 -0.380344301462173462 0.713555037975311279
-0.355353564023971558 -0.472556382417678833 0.823540270328521729
-0.00772047508507966995 0.00501018902286887169 0.145831048488616943
0.156622886657714844 -0.0573695115745067596 0.437596231698989868
0.135832399129867554 0.139071673154830933 0.21116955578327179
