ply
format ascii 1.0
element vertex 717
property float x
property float y
property float z
end_header
-0.014344455674290657 -0.00815430190414190292 0.257902532815933228
0.227976024150848389 0.78676295280456543 -0.179940566420555115
-0.192417606711387634 0.935031473636627197 -0.0178451668471097946
-0.611774623394012451 0.370675593614578247 0.0650141537189483643
0.0998464450240135193 -0.12668144702911377 -0.180055245757102966
0.0978759229183197021 0.627986907958984375 -0.411190211772918701
-0.269943118095397949 0.322901487350463867 0.195594072341918945
0.135247319936752319 0.776488125324249268 0.193209633231163025
-0.958952784538269043 1.05389261245727539 -0.0124817369505763054
-0.673504531383514404 0.70124363899230957 0.218836978077888489
-0.83539116382598877 1.03576803207397461 0.0419582650065422058
-0.0723398476839065552 0.259929507970809937 0.480517596006393433
0.245924502611160278 0.67007756233215332 -0.352940768003463745
-1.11032533645629883 0.109604090452194214 0.00446946406736969948
-0.903817296028137207 0.837854862213134766 0.0675568357110023499
-0.0782707333564758301 0.828869462013244629 -0.323757797479629517
-1.11500406265258789 0.578783690929412842 0.0235830657184123993
-0.890135824680328369 0.267247974872589111 0.265251010656356812
-0.545992851257324219 0.359640955924987793 0.0640905126929283142
0.228486031293869019 0.13115556538105011 -0.137263223528862
0.14569246768951416 0.220015227794647217 0.0415808446705341339
-0.697255492210388184 0.250733226537704468 0.332204520702362061
-0.681823015213012695 0.950891613960266113 0.143829107284545898
0.16120302677154541 0.236011236906051636 -0.224326133728027344
-0.0467180348932743073 -0.248466923832893372 0.346799373626708984
-0.04923248291015625 0.839101314544677734 -0.21609942615032196
-0.0313006825745105743 0.824861705303192139 -0.256185948848724365
0.229894325137138367 0.0077330414205789566 -0.166494891047477722
-0.198867470026016235 0.138420835137367249 0.587272584438323975
0.144191280007362366 0.16850106418132782 -0.202573642134666443
-0.0511438436806201935 0.316246151924133301 0.526205003261566162
-0.123159147799015045 0.215600937604904175 0.607723355293273926
0.16690528392791748 -0.166703924536705017 -0.109682559967041016
0.19731476902961731 0.673660874366760254 0.10864441841840744
0.302117913961410522 0.687211096286773682 -0.160578981041908264
0.0956762582063674927 -0.269271999597549438 -0.127057716250419617
-0.154756307601928711 0.307321786880493164 0.266889303922653198
-1.09325742721557617 0.316813766956329346 -0.0199981890618801117
-0.118476629257202148 0.366319745779037476 0.393311560153961182
-0.577231407165527344 0.933234512805938721 -0.376896291971206665
-0.233343616127967834 0.326048880815505981 0.158859208226203918
-0.0732732415199279785 0.283814430236816406 0.185480698943138123
-0.6189536452293396 0.360411494970321655 -0.0548902377486228943
0.317178338766098022 0.744117200374603271 -0.255698978900909424
-0.755646049976348877 0.39660295844078064 0.259405314922332764
-0.0774028673768043518 0.300610244274139404 0.509011626243591309
-0.894048929214477539 0.931783914566040039 0.0657303705811500549
-0.934366703033447266 0.879217147827148438 -0.21412360668182373
-0.420107781887054443 0.967850387096405029 0.000819196284282952547
-0.0565069466829299927 0.583684146404266357 0.509744882583618164
-0.0687990561127662659 0.26770704984664917 0.126582756638526917
-0.323222696781158447 0.211284637451171875 0.520537912845611572
-0.178390473127365112 0.612671971321105957 0.424802094697952271
0.0417111925780773163 0.869482219219207764 -0.00898115430027246475
-0.434449166059494019 0.634352326393127441 0.351207464933395386
-0.367072761058807373 0.292322427034378052 -0.0408921502530574799
-0.910991787910461426 0.456335157155990601 0.0866889730095863342
-0.280968964099884033 0.813708186149597168 0.376198261976242065
-0.896479427814483643 1.0392080545425415 -0.248494908213615417
0.11112513393163681 0.875390052795410156 0.238870248198509216
-0.253278970718383789 0.888617098331451416 -0.127960652112960815
0.0389174707233905792 0.0643232986330986023 -0.238921567797660828
-0.931749343872070312 0.668328642845153809 -0.240687146782875061
0.157356798648834229 0.193481475114822388 0.00478022731840610504
-0.466231495141983032 0.350061178207397461 0.0270715747028589249
-0.72524416446685791 1.03802990913391113 0.0981139019131660461
-1.04579341411590576 0.885294616222381592 -0.0464445054531097412
-0.18168206512928009 0.426440387964248657 0.502433598041534424
0.0174096785485744476 0.145987138152122498 0.331925779581069946
-0.0565670952200889587 0.775113582611083984 -0.498346388339996338
-0.99721074104309082 0.781596720218658447 -0.074619002640247345
-0.638485252857208252 0.890056014060974121 0.150411501526832581
-1.01654565334320068 0.446039944887161255 -0.0411751121282577515
-0.439006209373474121 0.310798108577728271 -0.0777944475412368774
-1.060355544090271 0.642790853977203369 -0.0843758061528205872
-0.063203863799571991 0.239369243383407593 0.458856254816055298
-0.0830926299095153809 0.146958723664283752 0.474082201719284058
-0.245878890156745911 0.224480181932449341 0.522480785846710205
0.12629324197769165 0.279256939888000488 0.150477871298789978
-0.923394441604614258 0.922966837882995605 -0.229640543460845947
-0.0721653103828430176 0.0922476872801780701 0.43100622296333313
0.0405515395104885101 0.363613098859786987 -0.33299216628074646
-1.16253328323364258 -0.0239920374006032944 0.00674754008650779724
-0.111690804362297058 0.35684889554977417 0.446444422006607056
-0.301063448190689087 0.362900912761688232 0.385373950004577637
-0.884979903697967529 1.06637740135192871 -0.107462398707866669
-0.796401619911193848 0.826716244220733643 0.112748034298419952
0.147915706038475037 0.0249650590121746063 -0.18186168372631073
-0.595022857189178467 1.00041389465332031 0.0353846289217472076
-1.03173220157623291 0.23062644898891449 0.197287410497665405
-0.458158016204833984 0.991592824459075928 0.117110759019851685
-0.369061529636383057 0.65924304723739624 0.34780585765838623
-0.286618411540985107 0.307205170392990112 0.0314994864165782928
0.220136329531669617 0.408691853284835815 -0.263977169990539551
-0.194488599896430969 0.277943462133407593 0.573140144348144531
0.0602631829679012299 -0.291129201650619507 0.107937663793563843
-0.139247015118598938 0.817733168601989746 0.42727777361869812
-1.13618254661560059 0.322554409503936768 -0.0131255760788917542
-0.902051091194152832 0.469325542449951172 0.152054518461227417
-0.869557023048400879 0.912042200565338135 -0.422827273607254028
-0.269683510065078735 0.854221880435943604 -0.240209460258483887
-0.882527291774749756 0.948495388031005859 -0.430892139673233032
-0.954214930534362793 0.88566744327545166 -0.126899853348731995
-0.105147063732147217 0.354637801647186279 0.555395185947418213
-1.11878097057342529 0.298435598611831665 0.0576075725257396698
0.25371241569519043 0.106105044484138489 -0.172086521983146667
0.023532351478934288 -0.110407844185829163 0.153069153428077698
-0.148582503199577332 0.954318761825561523 0.207438111305236816
-0.512923538684844971 0.854492247104644775 0.272123485803604126
-0.106955133378505707 0.901116311550140381 0.416534125804901123
-0.292004287242889404 0.633443653583526611 0.408700257539749146
-0.115068286657333374 0.949589073657989502 0.290720224380493164
-0.298671633005142212 0.937613368034362793 0.317976653575897217
0.108779840171337128 0.690558195114135742 -0.404678493738174438
-0.32695963978767395 0.290377765893936157 -0.0580620989203453064
-0.0873443335294723511 0.209082424640655518 0.528437972068786621
-0.183630272746086121 0.247230872511863708 -0.145663157105445862
-1.1137690544128418 0.303025096654891968 0.179590776562690735
-0.287927180528640747 0.974223136901855469 0.117453493177890778
0.144796058535575867 0.075181134045124054 0.0476602986454963684
0.191527694463729858 0.0650599822402000427 -0.205159872770309448
-0.322660326957702637 0.750823736190795898 0.353346079587936401
-0.764363884925842285 0.905806541442871094 0.141462951898574829
0.10320618748664856 0.0644351094961166382 0.110794179141521454
-1.03703200817108154 0.407255440950393677 0.125885263085365295
-0.857485175132751465 0.840627133846282959 -0.420128077268600464
0.203784450888633728 0.723093807697296143 0.0307017043232917786
-0.750351846218109131 1.03657686710357666 0.0693939775228500366
-0.336743086576461792 0.895593822002410889 -0.34142458438873291
-0.960309743881225586 0.579373836517333984 -0.287396430969238281
-0.197845295071601868 0.446939975023269653 0.512302577495574951
-0.0936852991580963135 0.365239351987838745 0.505668997764587402
0.085927031934261322 0.867698371410369873 -0.0521135292947292328
-0.715542018413543701 0.436295598745346069 0.28369063138961792
-0.438663631677627563 0.665568351745605469 0.3128662109375
0.075495205819606781 0.186756670475006104 -0.15270698070526123
0.168339401483535767 0.202095478773117065 -0.233640536665916443
-0.856338381767272949 0.744805753231048584 0.115301348268985748
-0.835219144821166992 0.969658851623535156 -0.464041650295257568
-0.140094920992851257 -0.181681737303733826 0.58971107006072998
0.151934847235679626 0.145411670207977295 0.0543658174574375153
-0.652824044227600098 1.0081031322479248 0.0304262246936559677
0.0228521879762411118 0.148405194282531738 0.21104748547077179
-0.877675533294677734 0.700484156608581543 0.117626667022705078
-0.435944110155105591 0.241359159350395203 0.452759385108947754
-0.0441812463104724884 -0.192883491516113281 0.39479517936706543
-1.05499780178070068 0.717049121856689453 -0.101511642336845398
-0.0440617501735687256 0.985823214054107666 0.379942446947097778
-0.226473376154899597 0.832654297351837158 -0.404950112104415894
-0.578544318675994873 0.479296088218688965 0.31594124436378479
-0.10912749171257019 -0.089084431529045105 0.49104270339012146
0.291614681482315063 0.544908344745635986 -0.304304003715515137
0.113336600363254547 0.117374800145626068 -0.212864205241203308
-0.763512670993804932 1.03515350818634033 -0.0688177719712257385
0.183539703488349915 0.759067177772521973 -0.351124078035354614
0.0797889083623886108 0.535191476345062256 0.250088036060333252
-0.21239173412322998 0.344839543104171753 0.319087207317352295
-0.0122803207486867905 -0.172962978482246399 0.271661728620529175
-0.304544568061828613 0.282147228717803955 -0.0161884482949972153
0.144751355051994324 0.897290885448455811 0.109591364860534668
0.331986486911773682 0.682625830173492432 -0.201575323939323425
-1.05903303623199463 0.202076062560081482 -0.104482933878898621
-0.810365915298461914 1.03723061084747314 0.0628976672887802124
-0.166538223624229431 0.848259329795837402 -0.33354911208152771
-0.107822738587856293 -0.20319017767906189 0.549963891506195068
-0.348798215389251709 0.852455198764801025 0.321739166975021362
-0.615876913070678711 0.992442727088928223 -0.0880873203277587891
0.287367135286331177 0.77842789888381958 -0.0397555269300937653
-0.738449752330780029 0.584097623825073242 0.258823245763778687
-0.892180085182189941 0.873136758804321289 0.0732776448130607605
0.0511790774762630463 -0.283247470855712891 -0.130780592560768127
0.0229894984513521194 0.0385813787579536438 0.248857989907264709
0.177038639783859253 -0.245932698249816895 -0.123417846858501434
-0.0557492822408676147 -0.0576310493052005768 0.413639724254608154
0.247799217700958252 0.766860902309417725 -0.353131860494613647
-0.335603833198547363 0.660245656967163086 0.383727610111236572
-0.276505857706069946 0.458162814378738403 0.459343075752258301
0.25494500994682312 0.712697446346282959 -0.0685357376933097839
0.223573207855224609 0.720169186592102051 0.0633985847234725952
0.113671451807022095 -0.28754618763923645 -0.105226926505565643
-0.026739511638879776 0.0953558534383773804 0.388662904500961304
-0.0329679287970066071 0.85132908821105957 -0.0314648672938346863
0.204235926270484924 0.692423999309539795 -0.354368329048156738
-0.0432352274656295776 -0.279342204332351685 0.301872074604034424
-0.874719321727752686 0.74315875768661499 -0.353830575942993164
-0.00803426094353199005 0.893895983695983887 -0.0177017264068126678
-0.712925732135772705 0.480098247528076172 0.289137363433837891
0.152715191245079041 0.695249974727630615 0.164894476532936096
-0.757541775703430176 0.404432624578475952 -0.00647228537127375603
-0.00294290599413216114 0.935483932495117188 0.200618922710418701
-0.729933083057403564 1.0071181058883667 -0.130394265055656433
-0.0742873921990394592 0.691559970378875732 0.479359894990921021
-0.732069492340087891 0.430312067270278931 0.178044170141220093
-1.0764843225479126 0.625681877136230469 0.0417723730206489563
-0.659693360328674316 0.357982873916625977 -0.0788646042346954346
-0.988384902477264404 0.450943857431411743 0.166415378451347351
-0.950688064098358154 0.521563529968261719 -0.280919879674911499
0.184081077575683594 0.11254216730594635 -0.0782340317964553833
-0.544427692890167236 1.00080525875091553 -0.0639600008726119995
-0.570951521396636963 0.81599956750869751 0.249541938304901123
-0.367285430431365967 0.884012758731842041 0.307588100433349609
-0.458275347948074341 0.914787769317626953 -0.20023694634437561
0.0651503950357437134 -0.180410146713256836 -0.149856016039848328
-1.09005928039550781 0.392329305410385132 -0.0842742025852203369
0.325927734375 0.611195743083953857 -0.282673448324203491
-0.633876681327819824 0.944602251052856445 -0.42563551664352417
-1.07911050319671631 0.811801433563232422 -0.0115718748420476913
0.0188885238021612167 0.274304211139678955 -0.330402612686157227
0.0455291531980037689 0.801674246788024902 -0.401126950979232788
-0.900244057178497314 0.962000489234924316 -0.217919260263442993
-0.0297668613493442535 0.22800542414188385 0.407146662473678589
0.158438116312026978 0.811399579048156738 -0.166522711515426636
-0.0343702435493469238 0.0044197477400302887 0.33900141716003418
-0.95896536111831665 0.844506502151489258 -0.190418362617492676
0.141168862581253052 -0.346416115760803223 -0.057049434632062912
0.0668991506099700928 0.947919964790344238 0.419511169195175171
-1.02821028232574463 0.355127185583114624 0.145938530564308167
0.00273049087263643742 0.817126274108886719 0.492748230695724487
-0.892516791820526123 0.951050102710723877 -0.267817139625549316
0.157548502087593079 -0.151296541094779968 -0.0631808340549468994
0.131458044052124023 0.668240904808044434 -0.405068695545196533
-0.121774144470691681 0.199064970016479492 -0.224277317523956299
0.0736754611134529114 0.245160475373268127 -0.316611260175704956
-0.606395363807678223 0.907983005046844482 -0.397405773401260376
-1.0642625093460083 0.673476636409759521 0.0717002749443054199
-0.639177978038787842 0.978216290473937988 -0.166079208254814148
-0.533462882041931152 0.32170259952545166 -0.159878358244895935
-0.420242369174957275 0.265500396490097046 -0.224547669291496277
-0.751387059688568115 0.377513647079467773 -0.0688570886850357056
-0.778207242488861084 0.33767247200012207 0.281256496906280518
0.147017911076545715 0.330322533845901489 0.0842747017741203308
-0.905249118804931641 0.692077994346618652 -0.358974426984786987
0.200891837477684021 0.822467565536499023 0.0989819541573524475
-1.03209447860717773 0.595608174800872803 -0.14336259663105011
0.16406586766242981 0.110458232462406158 -0.246346354484558105
0.155413508415222168 0.585142731666564941 0.18741936981678009
0.0244108494371175766 0.946598947048187256 0.394968807697296143
-0.374634295701980591 0.35698699951171875 0.26613345742225647
-0.0592225752770900726 -0.16994456946849823 0.39429745078086853
-0.92345273494720459 0.399642705917358398 0.230136439204216003
-0.0940096229314804077 0.88395082950592041 -0.0317610315978527069
-0.0348354391753673553 -0.161532118916511536 0.353358447551727295
-0.483943849802017212 0.366822272539138794 0.231311783194541931
0.0293235480785369873 -0.19055020809173584 -0.16196596622467041
-0.032143760472536087 0.867752790451049805 -0.298058211803436279
0.0756653100252151489 0.704150795936584473 -0.437104672193527222
0.327686876058578491 0.647609233856201172 -0.253979116678237915
0.0834402814507484436 0.80602562427520752 -0.28090280294418335
-0.948470354080200195 0.46159091591835022 0.108941569924354553
-0.563490033149719238 0.543825447559356689 0.301993817090988159
-1.03797948360443115 0.75225222110748291 -0.0523219257593154907
-0.856144905090332031 0.7843514084815979 -0.40015643835067749
-0.349775522947311401 0.956572532653808594 -0.00805824249982833862
-0.0113591114059090614 0.632161438465118408 0.429956734180450439
-0.61606752872467041 0.586423873901367188 0.280305773019790649
-0.564122855663299561 0.987571954727172852 0.158919215202331543
0.153073877096176147 -0.00371076213195919991 -0.0974945351481437683
0.152489498257637024 0.386925458908081055 0.128971785306930542
0.222635671496391296 0.790426969528198242 0.0557718165218830109
0.00763745047152042389 -0.30549311637878418 0.197069406509399414
-1.01716101169586182 0.192203328013420105 -0.202716246247291565
-0.88466799259185791 0.432433515787124634 0.0493142604827880859
-0.175781011581420898 -0.101794920861721039 0.674818992614746094
-0.0926977843046188354 -0.14108431339263916 0.495741546154022217
-0.984352946281433105 0.487000524997711182 -0.262108385562896729
-0.0303622037172317505 0.0221790969371795654 0.400851339101791382
-0.0892620682716369629 0.466654509305953979 0.536446034908294678
0.0634055882692337036 -0.0627604275941848755 -0.230325683951377869
-0.359308362007141113 0.973871827125549316 0.16545829176902771
-0.0689712017774581909 0.908868491649627686 0.0116281071677803993
-0.270479172468185425 0.70610123872756958 0.38442578911781311
-0.0192851405590772629 -0.0687517374753952026 0.288011401891708374
-0.320940107107162476 0.317514091730117798 0.482514113187789917
-0.0540291145443916321 0.0997928306460380554 0.532961070537567139
-1.00202333927154541 0.582888484001159668 -0.184044405817985535
-0.201384708285331726 0.589286208152770996 0.474399477243423462
-1.09066176414489746 0.515815198421478271 0.0536060109734535217
0.123011566698551178 0.733600199222564697 0.329367756843566895
-0.633854269981384277 0.51006770133972168 0.298061907291412354
-0.328223615884780884 0.899868547916412354 -0.260734409093856812
0.0794481933116912842 0.152208924293518066 0.225186571478843689
-1.08900701999664307 0.520977377891540527 0.119887731969356537
-0.426500082015991211 0.48374590277671814 0.384036362171173096
-1.02954328060150146 0.293520718812942505 -0.227329760789871216
-0.202500686049461365 1.01088953018188477 0.326715320348739624
-0.272876888513565063 0.396193772554397583 0.440427333116531372
-0.0633851811289787292 -0.0613541603088378906 0.412452101707458496
-1.01564085483551025 0.782413601875305176 0.0673670992255210876
-0.317462891340255737 0.88027656078338623 -0.315881043672561646
0.00780744152143597603 0.318120002746582031 -0.320749193429946899
-0.165274292230606079 -0.118433102965354919 0.542431235313415527
-0.729194760322570801 0.339218854904174805 -0.190207779407501221
0.356538742780685425 0.705384790897369385 -0.28101426362991333
0.109575904905796051 0.206281602382659912 -0.00379614369012415409
0.137578234076499939 0.177251130342483521 0.0250923670828342438
-0.165815815329551697 0.317017883062362671 0.563131332397460938
0.121178366243839264 0.812478423118591309 0.274687200784683228
-0.603533744812011719 0.949495792388916016 -0.475768625736236572
0.148016542196273804 -0.340614378452301025 -0.0969446823000907898
0.364154279232025146 0.734104454517364502 -0.338348746299743652
-0.172450348734855652 0.835541605949401855 -0.442603826522827148
-0.45030975341796875 1.00804400444030762 0.213692545890808105
-0.146486386656761169 -0.0319327637553215027 0.576578795909881592
-0.409828215837478638 0.946405172348022461 -0.243083745241165161
0.0435712970793247223 0.488114088773727417 -0.414106041193008423
0.216309040784835815 0.171783596277236938 -0.218700572848320007
0.119263194501399994 0.783320605754852295 -0.369336307048797607
-0.972493290901184082 0.731464087963104248 -0.190154343843460083
-0.640595555305480957 1.01814663410186768 -0.0230937488377094269
-0.0119164716452360153 -0.0813565030694007874 0.320423990488052368
-0.312283515930175781 0.533408164978027344 0.39356502890586853
-1.13453733921051025 -0.044415697455406189 -0.0956614464521408081
0.0719170421361923218 0.346294134855270386 0.316102832555770874
0.0161169115453958511 0.318035989999771118 -0.318401366472244263
-0.268327146768569946 0.277322262525558472 -0.170387670397758484
-0.881754279136657715 0.377262860536575317 -0.244148850440979004
-0.00772672472521662712 0.305527955293655396 0.434619486331939697
0.138346880674362183 0.00993815064430236816 -0.025804370641708374
-0.145145848393440247 -0.108231738209724426 0.640953183174133301
-0.891838610172271729 0.788299202919006348 -0.345062077045440674
-0.642965316772460938 0.442369192838668823 0.331723868846893311
-1.02664279937744141 0.402566492557525635 0.190080225467681885
0.0768702849745750427 0.197561532258987427 0.215557962656021118
0.0893697589635848999 0.00262642186135053635 0.13382604718208313
0.0639609694480895996 0.82128751277923584 -0.173858106136322021
-0.0593337565660476685 0.954002261161804199 0.190408110618591309
-0.15497887134552002 0.326196581125259399 0.194513171911239624
-0.649942100048065186 0.737206816673278809 0.190561473369598389
-0.815104186534881592 0.438813179731369019 0.241034090518951416
-0.347552657127380371 0.241139799356460571 -0.262952059507369995
-0.283408403396606445 0.984120368957519531 0.237784251570701599
0.177719905972480774 0.347252935171127319 -0.30224376916885376
0.0561789609491825104 0.779617846012115479 -0.385660827159881592
-0.0860373824834823608 0.918608009815216064 0.160980597138404846
-0.582619369029998779 0.96503603458404541 0.161004811525344849
-1.16096603870391846 0.0190409757196903229 0.0105856200680136681
-1.03159427642822266 0.261061191558837891 -0.227743208408355713
-0.0479959212243556976 0.299320518970489502 0.565762937068939209
-0.837190568447113037 0.987172305583953857 -0.337165325880050659
-0.781568586826324463 0.632260024547576904 0.160558536648750305
-0.631802916526794434 0.384986072778701782 0.115288913249969482
-0.0797823444008827209 0.900359511375427246 0.0605189502239227295
0.113473348319530487 0.373774707317352295 0.15521790087223053
-0.338488548994064331 0.327891260385513306 0.496994584798812866
-1.01727616786956787 0.955749034881591797 -0.0690400004386901855
-0.00649129040539264679 0.295469403266906738 0.236068040132522583
-1.07072651386260986 0.309575945138931274 -0.106881015002727509
-0.804391026496887207 0.371336519718170166 -0.174131765961647034
0.0718847066164016724 0.335928797721862793 0.260616600513458252
-0.169438496232032776 0.767763912677764893 0.435059189796447754
-0.137252002954483032 0.895427405834197998 -0.120691269636154175
-0.804421901702880859 0.941903591156005859 0.0973108410835266113
0.247802108526229858 0.315906733274459839 -0.222890645265579224
0.0894371792674064636 0.894491493701934814 0.118557743728160858
0.137233644723892212 0.654784321784973145 0.161203473806381226
0.174834460020065308 0.294353455305099487 -0.0624774694442749023
0.16504320502281189 -0.0674865618348121643 -0.0261217560619115829
-0.181775569915771484 0.903481841087341309 0.350423634052276611
-1.20078361034393311 0.184425383806228638 0.119274243712425232
-1.08180141448974609 0.593993544578552246 -0.0775078684091567993
-0.186032727360725403 0.935080409049987793 0.363478183746337891
-0.340678662061691284 0.314331531524658203 -0.000239706452703103423
0.154361248016357422 -0.206481650471687317 -0.131669923663139343
-0.03396645188331604 0.683369278907775879 0.490132391452789307
0.228179752826690674 0.747111260890960693 -0.0176235325634479523
-0.102797381579875946 0.931346118450164795 0.135979428887367249
-1.11450231075286865 0.0271725151687860489 -0.0640554577112197876
-0.915501594543457031 0.388071566820144653 -0.236660391092300415
-0.611834585666656494 0.293802976608276367 0.349733233451843262
-0.650534749031066895 1.04382133483886719 0.121347159147262573
-0.632820487022399902 0.245343297719955444 0.365401953458786011
0.301431149244308472 0.750738263130187988 -0.187597602605819702
0.311257421970367432 0.605085790157318115 -0.310829788446426392
0.0117132691666483879 0.14331190288066864 0.26896628737449646
-1.07565808296203613 0.124577142298221588 -0.100125312805175781
-0.80840599536895752 0.409514248371124268 0.0444539263844490051
-0.696447074413299561 0.368291705846786499 0.00374180939979851246
-0.994968891143798828 0.739066660404205322 0.0954516902565956116
-1.12397170066833496 0.310759931802749634 0.0848767682909965515
0.0297348015010356903 0.511841416358947754 -0.367402404546737671
-0.0121708903461694717 -0.210182130336761475 0.239392086863517761
0.132060587406158447 -0.085492551326751709 0.0537905916571617126
-0.121517382562160492 0.490131229162216187 0.49750635027885437
0.0748915672302246094 0.203594863414764404 0.183370694518089294
-0.612651407718658447 0.819962859153747559 0.206143856048583984
-1.13005101680755615 0.388768255710601807 0.125031650066375732
-0.0276361275464296341 0.496153980493545532 0.537790775299072266
0.0458410941064357758 0.504640281200408936 0.294849216938018799
0.219944611191749573 0.819448292255401611 -0.138258025050163269
0.162061721086502075 -0.0821999013423919678 -0.122743383049964905
0.199029430747032166 0.258618175983428955 -0.0905866250395774841
0.316241055727005005 0.450163513422012329 -0.268325209617614746
-0.402630388736724854 0.353798747062683105 0.209110632538795471
-0.212472543120384216 0.927837491035461426 0.00862952601164579391
0.00869307760149240494 0.493966877460479736 0.422510534524917603
-0.743262290954589844 0.967242062091827393 -0.2987326979637146
-0.155935019254684448 0.231381535530090332 0.563912689685821533
-1.10726356506347656 -0.000487075303681194782 -0.0513166263699531555
-1.03036904335021973 0.832278966903686523 0.0357442460954189301
-1.14305460453033447 0.238723486661911011 0.0648616626858711243
0.288793027400970459 0.684276401996612549 -0.345078736543655396
0.0722050517797470093 0.578592479228973389 -0.403227478265762329
-0.0823395252227783203 0.183546885848045349 -0.296988725662231445
0.232516512274742126 0.456932425498962402 -0.0900212004780769348
-1.12455940246582031 0.52462691068649292 0.092975325882434845
-0.289282709360122681 1.00403666496276855 0.277256399393081665
0.188623577356338501 -0.0137582914903759956 -0.0935295671224594116
-0.893607020378112793 0.52420806884765625 0.199410215020179749
0.0389100052416324615 0.905769407749176025 0.0572144016623497009
-0.388644039630889893 0.213045418262481689 0.489932626485824585
0.153005644679069519 0.797575235366821289 -0.301572859287261963
-1.06050014495849609 0.155922368168830872 -0.155992060899734497
-0.0344976447522640228 0.222765088081359863 -0.157852292060852051
-0.488825142383575439 0.492973625659942627 0.378342658281326294
0.0497739613056182861 0.868617773056030273 0.404130846261978149
-0.978117763996124268 0.608461380004882812 -0.265188127756118774
-0.733709573745727539 0.998155057430267334 -0.111050382256507874
0.252604186534881592 0.622371077537536621 -0.0929845944046974182
-1.0345466136932373 0.461176127195358276 0.139603361487388611
0.0565677285194396973 0.569626331329345703 0.289862781763076782
-0.250156611204147339 0.96352386474609375 0.312785536050796509
-1.09953129291534424 0.451594173908233643 0.0522904172539710999
-0.836869239807128906 0.307175099849700928 0.252083569765090942
-0.265878915786743164 0.305763125419616699 0.0970056205987930298
-1.1631312370300293 -0.0634125992655754089 0.0241213478147983551
-0.576965153217315674 0.355301797389984131 -0.0813485085964202881
-0.267891943454742432 0.29000428318977356 0.499587535858154297
-0.559934616088867188 0.378928989171981812 0.134134367108345032
-0.842194855213165283 0.980109214782714844 0.0667517930269241333
-0.603447020053863525 0.791639745235443115 0.219816103577613831
-0.352859348058700562 0.163979291915893555 0.495399594306945801
-0.349785834550857544 0.320631414651870728 0.103294782340526581
0.114809297025203705 -0.0649862512946128845 0.0893409475684165955
0.0716422423720359802 0.477636903524398804 0.211845561861991882
0.0153789632022380829 -0.08293132483959198 0.229495823383331299
-0.380688399076461792 0.383417576551437378 0.39745861291885376
-1.09787380695343018 0.102318286895751953 -0.0771142914891242981
0.157989740371704102 -0.0406883135437965393 0.0160950813442468643
-0.0517884083092212677 -0.21788787841796875 0.328033238649368286
-1.031005859375 0.53256535530090332 0.141390368342399597
-0.889841437339782715 0.480922579765319824 0.209349110722541809
0.0779186263680458069 0.258566290140151978 0.1696595698595047
-0.785833537578582764 0.693962991237640381 0.166653022170066833
-0.655487656593322754 0.593834757804870605 0.24329356849193573
-0.159710675477981567 0.892329156398773193 -0.101219587028026581
-0.458655267953872681 0.306234449148178101 -0.139671161770820618
0.0961677730083465576 -0.394189059734344482 -0.115688987076282501
-0.737999320030212402 0.791136085987091064 0.146712630987167358
-0.00930287595838308334 0.400302916765213013 0.349658370018005371
-0.52299034595489502 0.396882176399230957 0.192251384258270264
-0.0890410318970680237 0.261145889759063721 0.525485336780548096
-0.594492077827453613 0.989706158638000488 -0.0368262827396392822
-0.694428563117980957 0.965749919414520264 -0.340827137231826782
-1.00219154357910156 0.270175933837890625 -0.198434516787528992
-0.793054759502410889 0.743248343467712402 0.176460921764373779
-0.475876122713088989 0.852602005004882812 0.238573789596557617
0.150151908397674561 -0.295288562774658203 -0.0796567350625991821
0.182091698050498962 0.514546036720275879 0.0615881606936454773
-0.766053497791290283 0.969423055648803711 -0.198375657200813293
-0.0516064837574958801 0.328933566808700562 0.474193304777145386
-0.13325093686580658 0.228948503732681274 -0.108908459544181824
-1.13060164451599121 0.378229498863220215 0.0722368061542510986
0.10732482373714447 0.86561661958694458 0.0313159860670566559
0.128191351890563965 -0.0327665098011493683 0.0178110282868146896
-0.0102451341226696968 0.522150039672851562 0.445847868919372559
-0.180893167853355408 1.0029447078704834 0.254993796348571777
0.186767935752868652 0.720987498760223389 0.0673935636878013611
-0.7452850341796875 1.01540374755859375 -0.0492190234363079071
-0.703505337238311768 1.00618660449981689 -0.0411955863237380981
-0.0229280702769756317 0.188575819134712219 0.471604913473129272
-0.962272167205810547 0.871587693691253662 0.0265182983130216599
0.0329464934766292572 0.845522820949554443 -0.0527857504785060883
-0.394225090742111206 0.93141484260559082 -0.168215230107307434
0.0987160280346870422 0.180108591914176941 0.177413657307624817
-1.13438284397125244 0.420302808284759521 0.015555734746158123
0.104285873472690582 -0.30709153413772583 -0.0454778522253036499
-0.432989448308944702 0.323061525821685791 -0.0163284502923488617
-0.869422614574432373 0.825305044651031494 0.0821131467819213867
0.146700650453567505 0.401847124099731445 -0.321210116147994995
-0.674297094345092773 0.632290065288543701 0.253489553928375244
-0.816513895988464355 0.39826086163520813 -0.11210671067237854
-1.21999657154083252 -0.0504012592136859894 0.192727789282798767
0.0770216956734657288 0.0659656822681427002 0.184558272361755371
-0.972482681274414062 0.53316342830657959 0.139372244477272034
0.204349219799041748 0.809686720371246338 -0.207749754190444946
-0.206318914890289307 0.544685244560241699 0.485698968172073364
-0.220637336373329163 0.278763502836227417 0.548882424831390381
0.0587485805153846741 0.935352683067321777 0.159121051430702209
0.0322406180202960968 0.0829850509762763977 0.330685436725616455
-1.13171589374542236 0.187338024377822876 -0.0305150952190160751
-0.0977914407849311829 0.946304500102996826 0.371490448713302612
-0.570846378803253174 0.431425273418426514 0.315233170986175537
0.0556555129587650299 0.269634008407592773 0.28477245569229126
-0.797143280506134033 0.9881400465965271 -0.330799758434295654
-0.956059157848358154 0.850845456123352051 -0.117004856467247009
-1.12133026123046875 0.465828150510787964 0.0129041196778416634
0.0783026739954948425 0.0284929517656564713 -0.222560882568359375
-0.21727454662322998 0.343564659357070923 0.49538654088973999
0.0130715593695640564 0.00537212612107396126 -0.222024455666542053
-0.23161865770816803 0.357668876647949219 0.405632138252258301
-0.46490517258644104 0.817408859729766846 0.270296573638916016
-0.146400377154350281 0.75213855504989624 0.436097502708435059
-0.963417947292327881 0.451293021440505981 0.156202018260955811
0.136677801609039307 0.777780473232269287 0.124843567609786987
0.13328997790813446 0.104139126837253571 -0.00600808998569846153
0.0658762753009796143 0.3307533860206604 0.200956225395202637
0.335946112871170044 0.571672201156616211 -0.250963479280471802
0.0609877556562423706 0.236290857195854187 0.213526070117950439
0.247601747512817383 0.509622752666473389 -0.312294155359268188
-0.144211828708648682 0.554728865623474121 0.493956148624420166
-0.0707948282361030579 0.230654329061508179 -0.0750391632318496704
-0.0164533033967018127 -0.0246967840939760208 0.370264232158660889
-0.332784414291381836 0.391935676336288452 0.377398282289505005
-0.0853734761476516724 0.984364449977874756 0.223964005708694458
-1.06553375720977783 0.883102834224700928 0.000299540173728018999
0.181486278772354126 -0.091693580150604248 -0.165457978844642639
-0.32246851921081543 0.344861298799514771 0.137306481599807739
-0.555042922496795654 0.312143564224243164 -0.180946096777915955
-1.00313079357147217 0.331272512674331665 -0.189059704542160034
0.0313065052032470703 0.71433413028717041 0.434384793043136597
-0.999057531356811523 0.872545301914215088 -0.140644237399101257
-0.092833101749420166 0.512401580810546875 0.51841127872467041
0.136101633310317993 0.242240443825721741 0.0624933764338493347
-0.137997269630432129 0.262586325407028198 -0.0348592326045036316
-0.0131318299099802971 0.196671232581138611 0.34058302640914917
-0.673919320106506348 0.836547732353210449 0.189878568053245544
-0.980032026767730713 0.965788483619689941 -0.105613023042678833
-0.781121551990509033 0.888022422790527344 0.0942775458097457886
-1.10433650016784668 0.610481500625610352 0.0805406421422958374
-0.819765210151672363 0.370349496603012085 0.247220695018768311
-0.371868938207626343 0.284819155931472778 -0.0993582457304000854
-0.967628121376037598 0.718689501285552979 0.103942915797233582
0.12876284122467041 0.27938959002494812 -0.316682815551757812
0.171867892146110535 -0.0475557669997215271 -0.0998482257127761841
-0.487721502780914307 0.927372395992279053 0.233487844467163086
-1.01189959049224854 0.655756354331970215 0.0921921730041503906
-0.619140207767486572 0.989457011222839355 -0.250960499048233032
0.163350999355316162 0.496683001518249512 0.106059662997722626
-0.737511634826660156 0.352182179689407349 -0.161281168460845947
-0.412577271461486816 0.380232900381088257 0.292466253042221069
0.0113446135073900223 0.687079727649688721 0.481942743062973022
-0.516836464405059814 0.33440476655960083 -0.0520817749202251434
0.1517486572265625 0.809975922107696533 -0.260283678770065308
0.0615243576467037201 0.174151003360748291 0.269122987985610962
0.11241169273853302 0.30773964524269104 0.187911167740821838
-0.555956125259399414 0.937590420246124268 -0.278517872095108032
-1.00187969207763672 0.145402282476425171 -0.188939467072486877
-0.805460155010223389 0.25137057900428772 0.291089117527008057
-0.868169188499450684 0.350833922624588013 0.265246987342834473
-0.236971467733383179 0.731766700744628906 0.418067753314971924
0.0496475137770175934 -0.211437895894050598 0.104085974395275116
0.3119487464427948 0.52822268009185791 -0.200092747807502747
0.180130138993263245 0.659034669399261475 -0.375401675701141357
-0.392695516347885132 0.890436828136444092 -0.46736907958984375
-0.0524685047566890717 0.0032729592639952898 0.446484208106994629
0.011091744527220726 0.396218925714492798 0.323108553886413574
0.0817672833800315857 -0.120509743690490723 0.0462506487965583801
-0.86978459358215332 0.395961284637451172 -0.133210718631744385
-1.11081779003143311 0.250699698925018311 0.000923040148336440325
-0.465163290500640869 0.869981527328491211 -0.485065728425979614
-0.257233232259750366 0.392752885818481445 0.514229416847229004
-0.86047893762588501 0.39747387170791626 -0.0751114115118980408
-0.506295144557952881 1.03851473331451416 0.157824739813804626
0.246161550283432007 0.821778237819671631 -0.0744635835289955139
-0.399186462163925171 0.94709324836730957 0.0120038948953151703
-0.379958212375640869 0.302052199840545654 0.47510489821434021
0.0371470227837562561 0.444516867399215698 0.282391637563705444
-0.954353392124176025 1.0803149938583374 -0.100373581051826477
-0.736897647380828857 0.677430391311645508 0.198201611638069153
0.0379528142511844635 0.921119511127471924 0.371882498264312744
-0.676383912563323975 0.336518019437789917 -0.145970895886421204
0.186110913753509521 0.539065659046173096 0.0203883834183216095
-0.0374411679804325104 0.874976038932800293 0.00941183976829051971
-0.117412015795707703 0.107091948390007019 0.613926172256469727
0.304546833038330078 0.394432306289672852 -0.260682433843612671
-0.0884051024913787842 0.85377037525177002 -0.368527412414550781
-0.19601064920425415 0.231050178408622742 -0.187044426798820496
0.0883742272853851318 0.605746746063232422 0.292209655046463013
-0.125014439225196838 0.0706913545727729797 0.641177475452423096
-0.815331935882568359 1.00314438343048096 -0.198837876319885254
-0.397175759077072144 0.953714609146118164 0.274077177047729492
-0.427950501441955566 0.400436282157897949 0.353743374347686768
0.254073292016983032 0.678499579429626465 -0.0636820346117019653
-0.386490821838378906 0.485977858304977417 0.415233582258224487
-0.201891675591468811 0.826783359050750732 0.373520106077194214
0.118743687868118286 0.507255375385284424 0.12704022228717804
-0.212322518229484558 0.316652089357376099 0.120877534151077271
-0.969302713871002197 0.598483085632324219 -0.228085905313491821
-1.03754031658172607 0.327332466840744019 -0.153682097792625427
-0.874232053756713867 0.416703492403030396 0.209422260522842407
-0.631395637989044189 0.395598351955413818 0.177267223596572876
-0.818542003631591797 0.983270466327667236 -0.242037862539291382
0.11988067626953125 0.623975992202758789 0.146869748830795288
-0.284943759441375732 0.844712018966674805 -0.442309647798538208
-0.151922658085823059 0.338429391384124756 0.359207004308700562
-0.216290920972824097 0.267538577318191528 -0.136575803160667419
0.241503119468688965 0.261962234973907471 -0.0820682868361473083
0.236706912517547607 0.559477090835571289 -0.307856261730194092
0.265789449214935303 0.502847969532012939 -0.086566828191280365
0.0733717158436775208 0.192748934030532837 -0.0757784247398376465
-0.18351416289806366 0.0345967486500740051 0.657111406326293945
-0.926687538623809814 1.04097867012023926 -0.226271182298660278
-0.832794308662414551 0.721865832805633545 0.135992467403411865
0.086949273943901062 0.0532078742980957031 0.128884539008140564
0.181689023971557617 0.344264447689056396 -0.0594656616449356079
0.135533511638641357 -0.0340641587972640991 -0.0357604324817657471
0.375639408826828003 0.656798958778381348 -0.301333338022232056
-0.0548620261251926422 0.32186475396156311 0.363610297441482544
-0.801298737525939941 0.422574609518051147 0.197423473000526428
-1.14829933643341064 0.451226204633712769 0.0656770020723342896
-1.17607736587524414 0.0436300598084926605 0.1051945760846138
-1.14267635345458984 -0.103477433323860168 -0.0264622755348682404
-0.511094391345977783 0.205486774444580078 0.417107611894607544
-0.103438451886177063 -0.230865627527236938 0.483329147100448608
0.114415846765041351 0.0299452450126409531 0.0201529599726200104
-0.324455916881561279 0.942772984504699707 0.28144344687461853
0.14139045774936676 0.823868811130523682 -0.25601920485496521
0.00915666297078132629 0.790422260761260986 -0.468184709548950195
-0.823952257633209229 0.324254095554351807 0.24831688404083252
-0.4011058509349823 0.898373067378997803 -0.35544586181640625
0.00165537616703659296 0.725719928741455078 -0.477905422449111938
-0.9820747971534729 0.373294025659561157 -0.254346162080764771
0.135906234383583069 -0.230190619826316833 -0.0667192339897155762
-1.05623912811279297 0.683589458465576172 0.00707451160997152328
-0.432827234268188477 1.02660596370697021 0.245463460683822632
-0.689299523830413818 0.901391506195068359 0.162100374698638916
0.0693080797791481018 0.942663490772247314 0.29060778021812439
0.0180638525635004044 0.184164345264434814 -0.176766529679298401
0.00342896440997719765 0.703590035438537598 0.499731600284576416
-1.02862012386322021 0.820656478404998779 -0.102697797119617462
0.0152183007448911667 -0.0308534801006317139 -0.2258891761302948
-1.04449307918548584 0.745373964309692383 0.0354693382978439331
-0.524770200252532959 0.297525376081466675 -0.250477790832519531
-1.09155619144439697 0.139219239354133606 -0.0514927208423614502
-0.357279360294342041 0.866097092628479004 -0.401764005422592163
-0.207859084010124207 0.906706750392913818 -0.121628932654857635
-0.0283483173698186874 0.149816706776618958 0.419744998216629028
0.0476957224309444427 -0.332387298345565796 -0.118790902197360992
-0.16011810302734375 0.950183749198913574 0.136456966400146484
-0.544109523296356201 0.76070171594619751 0.247062966227531433
0.0148722492158412933 0.0312577709555625916 0.333064824342727661
-0.0837897434830665588 0.821374118328094482 -0.409395992755889893
-1.1888735294342041 -0.0237898826599121094 0.0761123374104499817
0.10560106486082077 0.562956631183624268 0.253487169742584229
-0.932090520858764648 1.02253139019012451 -0.163793280720710754
0.140525668859481812 -0.00993589870631694794 -0.233652323484420776
-0.271186202764511108 0.222612679004669189 -0.264834851026535034
-0.00938809383660554886 0.637123644351959229 0.523464441299438477
-0.229970306158065796 0.275099515914916992 -0.0146941002458333969
0.0797071829438209534 0.115707911550998688 0.154424801468849182
-0.0468420013785362244 0.415461868047714233 0.495137512683868408
0.124495886266231537 -0.22105833888053894 -0.0308938510715961456
0.112111553549766541 -0.267961323261260986 0.0188820697367191315
0.184986218810081482 0.839795410633087158 0.141518682241439819
-0.247207701206207275 0.422092050313949585 0.457996487617492676
-0.981999099254608154 1.0124516487121582 -0.107641540467739105
-0.511520743370056152 1.00321006774902344 0.102114424109458923
-1.14560270309448242 0.0658295378088951111 0.0675410032272338867
-0.569414913654327393 0.924452364444732666 -0.41634058952331543
0.270924597978591919 0.389250874519348145 -0.159907072782516479
-0.157111302018165588 0.230546638369560242 -0.209625393152236938
-0.987861275672912598 0.350273787975311279 0.177943289279937744
0.0610934458673000336 0.126222670078277588 -0.263876050710678101
-1.04546630382537842 0.568151772022247314 -0.0301132258027791977
0.0263192113488912582 -0.189627140760421753 0.180527374148368835
0.00201863865368068218 0.528329789638519287 0.409738630056381226
-0.408149600028991699 0.334653973579406738 0.42483818531036377
-0.0852431580424308777 0.858997642993927002 -0.100200958549976349
-1.06708502769470215 0.0455879159271717072 -0.107292160391807556
-1.00674653053283691 0.903531730175018311 0.0328002236783504486
0.113618388772010803 0.562276124954223633 0.165139570832252502
-1.03522145748138428 0.699352025985717773 -0.0731392204761505127
-0.0246310103684663773 0.643475830554962158 -0.448764711618423462
-0.0929730385541915894 1.00986588001251221 0.396601974964141846
0.0960566028952598572 0.915223658084869385 0.168510854244232178
0.147614836692810059 0.579752564430236816 0.107960335910320282
0.396128356456756592 0.759373366832733154 -0.326003700494766235
-0.177972063422203064 0.354234039783477783 0.417749792337417603
-0.132666856050491333 0.0339594036340713501 0.555758237838745117
0.258826375007629395 0.620208501815795898 -0.0169132295995950699
-0.502225220203399658 0.323211699724197388 -0.0335218198597431183
-1.04670274257659912 0.464620292186737061 0.0286712087690830231
0.170835494995117188 0.814470469951629639 -0.102559767663478851
-0.478228926658630371 0.99192047119140625 0.0981927439570426941
-0.747439861297607422 0.971476733684539795 0.123678863048553467
-0.549246728420257568 0.837437152862548828 0.205417439341545105
-1.07585716247558594 0.266592115163803101 0.1477833092212677
0.104613453149795532 0.143380075693130493 -0.245148822665214539
0.298353433609008789 0.64941173791885376 -0.315755844116210938
-0.496604830026626587 0.478341996669769287 0.366442114114761353
-0.182945176959037781 -0.193999588489532471 0.655759751796722412
-0.879093647003173828 0.237684056162834167 0.309482544660568237
0.166594728827476501 0.387169331312179565 -0.274201869964599609
0.236048251390457153 0.416632980108261108 -0.0414906777441501617
-0.0221058130264282227 0.78252255916595459 -0.419319987297058105
-0.241564691066741943 0.30750662088394165 0.534784138202667236
-0.476297438144683838 0.284767568111419678 0.423483133316040039
0.115998260676860809 0.826514542102813721 0.337793260812759399
-0.606559872627258301 1.05341196060180664 0.118029370903968811
-1.03979229927062988 0.245359361171722412 -0.134970694780349731
-0.46567988395690918 0.290524929761886597 -0.233205348253250122
-0.853610754013061523 1.04389762878417969 0.0342125184834003448
-1.08250057697296143 0.643020570278167725 -0.0367789454758167267
-0.945068001747131348 0.637600541114807129 -0.289367824792861938
-0.398719966411590576 0.350549906492233276 0.412530273199081421
-0.788797497749328613 0.301616579294204712 0.327934950590133667
-0.172280624508857727 0.969663441181182861 0.211217299103736877
-0.227095380425453186 0.292807966470718384 0.231149733066558838
0.0371004417538642883 0.805115342140197754 0.467605173587799072
-0.264003008604049683 0.56371992826461792 0.444223225116729736
0.121047459542751312 0.750198960304260254 -0.444507718086242676
0.0562194362282752991 -0.279454052448272705 0.0579746365547180176
-0.0303426515311002731 -0.204820737242698669 0.252995342016220093
-0.512451887130737305 0.986137330532073975 0.0347987636923789978
-0.253390640020370483 0.24151301383972168 -0.249886646866798401
0.277235716581344604 0.570686399936676025 -0.131210774183273315
0.0985222905874252319 0.411525994539260864 -0.314683496952056885
