ply
format ascii 1.0
element vertex 717
property float x
property float y
property float z
end_header
-0.250399768352508545 0.862403154373168945 -0.130046635866165161
-0.338542640209197998 1.0558849573135376 -0.0723949596285820007
-0.49281775951385498 0.194840148091316223 -0.10145723819732666
-0.503022253513336182 0.33842003345489502 0.190207526087760925
-0.59397810697555542 0.416295647621154785 -0.00416709855198860168
-0.658736348152160645 0.379161030054092407 0.0778618082404136658
-0.257695764303207397 0.656707048416137695 -0.0111099760979413986
-0.594636678695678711 0.262394547462463379 -0.024473266676068306
-0.321937024593353271 0.150228247046470642 -0.166330859065055847
-0.517812907695770264 0.654492378234863281 0.146688342094421387
-0.361039876937866211 0.111235246062278748 -0.163359388709068298
-0.517899513244628906 0.587741315364837646 -0.229139015078544617
-0.614650070667266846 0.298617929220199585 -0.0302534550428390503
-0.185484603047370911 0.914158105850219727 -0.21307864785194397
-0.648274779319763184 0.386951744556427002 0.0904142633080482483
-0.52075803279876709 0.247010514140129089 0.040814567357301712
-0.300364494323730469 0.477660685777664185 -0.0506234392523765564
-0.279573708772659302 0.750240981578826904 -0.0698077455163002014
-0.545290172100067139 0.268448770046234131 0.146105527877807617
-0.540303707122802734 0.213037431240081787 -0.190335661172866821
-0.331811100244522095 0.380963832139968872 0.0124984690919518471
-0.500044405460357666 0.348961532115936279 0.218998432159423828
-0.503644466400146484 0.43394884467124939 0.189082294702529907
-0.648398876190185547 0.272141963243484497 -0.000957006763201206923
-0.324713259935379028 0.716479182243347168 -0.00264202849939465523
-0.617488324642181396 0.243471905589103699 -0.077672123908996582
-0.483874529600143433 0.230322718620300293 0.0884913131594657898
-0.276388585567474365 0.538645625114440918 -0.0405938327312469482
-0.550704836845397949 0.540348231792449951 0.163817882537841797
-0.36710771918296814 0.337047994136810303 -0.0364838726818561554
-0.600516557693481445 0.539354145526885986 0.0814483389258384705
-0.628521442413330078 0.426899611949920654 0.0206115301698446274
-0.542084217071533203 0.273895293474197388 0.22603122889995575
-0.261352866888046265 1.09045708179473877 -0.0267150290310382843
-0.387021154165267944 0.122978359460830688 -0.168906375765800476
-0.435334205627441406 0.771101176738739014 0.0836984962224960327
-0.636616647243499756 0.318464994430541992 0.0549876056611537933
-0.645102560520172119 0.22204163670539856 -0.0498503334820270538
-0.59977424144744873 0.392278075218200684 -0.0724584087729454041
-0.166023597121238708 0.879473745822906494 -0.0660079494118690491
-0.570792436599731445 0.532874584197998047 0.164623573422431946
-0.437194585800170898 0.2311696857213974 0.154080137610435486
-0.612687528133392334 0.565928220748901367 0.129789963364601135
-0.22773529589176178 0.748870551586151123 -0.141017794609069824
-0.647697210311889648 0.242510482668876648 -0.0951022431254386902
-0.314942210912704468 0.872441589832305908 0.10727914422750473
-0.433697998523712158 0.112586192786693573 -0.182056859135627747
-0.344191253185272217 0.440912991762161255 -0.261088401079177856
-0.360374271869659424 0.495562225580215454 -0.0462741516530513763
-0.413619846105575562 0.197657585144042969 0.010267757810652256
-0.642998456954956055 0.437416166067123413 0.0826004743576049805
-0.196969360113143921 0.994287073612213135 -0.19465520977973938
-0.298572182655334473 0.526629388332366943 -0.118677631020545959
-0.456349045038223267 0.246453911066055298 0.045586705207824707
-0.552943766117095947 0.196905255317687988 -0.199370905756950378
-0.628510951995849609 0.399752140045166016 0.0308850556612014771
-0.15766163170337677 0.907953560352325439 -0.0505225546658039093
-0.529156029224395752 0.473150342702865601 -0.272870779037475586
-0.405043482780456543 0.600765764713287354 -0.0128342835232615471
-0.519396007061004639 0.379805773496627808 0.187603339552879333
-0.46418336033821106 0.351888418197631836 0.054852459579706192
-0.373306453227996826 0.523038029670715332 0.0614180751144886017
-0.39176177978515625 0.162288904190063477 -0.103279158473014832
-0.44610258936882019 0.373639583587646484 0.0574923455715179443
-0.516911923885345459 0.197089612483978271 -0.17747795581817627
-0.36572381854057312 0.283428698778152466 -0.209191739559173584
-0.679527759552001953 0.312081247568130493 0.146513581275939941
-0.553567171096801758 0.234822899103164673 -0.0113456994295120239
-0.36653563380241394 0.202505558729171753 0.0248367004096508026
-0.520014107227325439 0.260843336582183838 0.218460813164710999
-0.440276503562927246 0.353500247001647949 -0.260952353477478027
-0.337214827537536621 0.0964776203036308289 -0.164268732070922852
-0.439933538436889648 0.452056229114532471 0.0858657583594322205
-0.657167673110961914 0.249893531203269958 -0.0340561717748641968
-0.637729346752166748 0.214982539415359497 -0.0995902568101882935
-0.299210548400878906 0.843202769756317139 -0.0253938119858503342
-0.585439145565032959 0.266202598810195923 0.112011909484863281
-0.444554805755615234 0.112453244626522064 -0.201492547988891602
-0.377192765474319458 0.358912199735641479 -0.0378712229430675507
-0.570917367935180664 0.37627798318862915 -0.25861784815788269
-0.387303799390792847 0.156685382127761841 -0.154862940311431885
-0.628815531730651855 0.411112487316131592 0.0784006714820861816
-0.421086907386779785 0.163951918482780457 -0.223775908350944519
-0.564397871494293213 0.563611924648284912 0.15203540027141571
-0.644609928131103516 0.225235477089881897 -0.0307703688740730286
-0.580009222030639648 0.341886281967163086 -0.273692339658737183
-0.214424178004264832 0.919755518436431885 0.0154099315404891968
-0.614024162292480469 0.244033291935920715 -0.146268382668495178
-0.510633230209350586 0.248093664646148682 0.0377513132989406586
-0.545640647411346436 0.427340596914291382 -0.274699419736862183
-0.462747544050216675 0.356322348117828369 0.224190667271614075
-0.392311215400695801 0.639786183834075928 -0.0436976030468940735
-0.403430432081222534 0.573542237281799316 -0.0524377115070819855
-0.178451552987098694 0.976233422756195068 -0.187017828226089478
-0.364585191011428833 0.480327695608139038 -0.00453854445368051529
-0.338294804096221924 0.179297104477882385 -0.164638161659240723
-0.68416297435760498 0.414450168609619141 0.143947839736938477
-0.24179607629776001 1.10543358325958252 -0.0399482585489749908
-0.508626222610473633 0.415724575519561768 0.192655608057975769
-0.643234610557556152 0.2961844801902771 -0.00523628946393728256
-0.629722893238067627 0.45417371392250061 0.0782647803425788879
-0.494578152894973755 0.260939717292785645 0.155864909291267395
-0.25330805778503418 0.605937361717224121 0.0605290904641151428
-0.663535058498382568 0.464048385620117188 0.152568504214286804
-0.414215445518493652 0.247186720371246338 0.0674027279019355774
-0.534272313117980957 0.357171982526779175 0.202066540718078613
-0.239056974649429321 1.18862605094909668 -0.0575320012867450714
-0.578164517879486084 0.236084774136543274 0.210588887333869934
-0.24694475531578064 0.706855177879333496 0.0805972665548324585
-0.338167399168014526 0.450612157583236694 -0.0415317155420780182
-0.0988381877541542053 1.27914965152740479 -0.146314829587936401
-0.315647751092910767 0.754227399826049805 -0.0257901959121227264
-0.531020820140838623 0.597432434558868408 -0.154533922672271729
-0.523985683917999268 0.130496174097061157 -0.22999592125415802
-0.660681068897247314 0.278650999069213867 0.000896746001671999693
-0.504958689212799072 0.184426650404930115 -0.230586260557174683
-0.329540401697158813 0.358302414417266846 -0.00666125910356640816
-0.365475118160247803 0.580536544322967529 -0.000273669342277571559
-0.544276893138885498 0.549318969249725342 0.144279241561889648
-0.271072834730148315 0.425982207059860229 -0.246784240007400513
-0.623594284057617188 0.504034161567687988 0.091144949197769165
-0.354691952466964722 0.653124630451202393 -0.0284487307071685791
-0.619544386863708496 0.27847743034362793 -0.113988064229488373
-0.590942323207855225 0.335118025541305542 -0.180495321750640869
-0.382093459367752075 0.299510449171066284 -0.231607317924499512
-0.2994956374168396 0.799689114093780518 0.0935833081603050232
-0.602482974529266357 0.570362329483032227 0.0628427565097808838
-0.183404266834259033 0.853728353977203369 -0.0537163913249969482
-0.337455719709396362 0.430512130260467529 -0.0243308264762163162
-0.503837108612060547 0.424169093370437622 -0.282421112060546875
-0.356784999370574951 0.181249856948852539 -0.0921253487467765808
-0.35696449875831604 0.17947995662689209 -0.0206588394939899445
-0.449230551719665527 0.520032227039337158 0.184050023555755615
-0.225269943475723267 0.716829061508178711 0.0664048716425895691
-0.332185566425323486 0.641191065311431885 -0.0895598530769348145
-0.427670478820800781 0.241029798984527588 0.144515395164489746
-0.38118743896484375 0.351592451333999634 -0.0376381538808345795
-0.427995055913925171 0.598422467708587646 0.0549713894724845886
-0.384342342615127563 0.552295148372650146 -0.0180282872170209885
-0.528355777263641357 0.224452927708625793 -0.10831557959318161
-0.530614316463470459 0.351188421249389648 0.208382219076156616
-0.545270383358001709 0.276028305292129517 0.0871076807379722595
-0.577852368354797363 0.249559894204139709 -0.0942208245396614075
-0.582403004169464111 0.32047763466835022 -0.209537118673324585
-0.501356124877929688 0.233023032546043396 0.035518404096364975
-0.377090662717819214 0.712508261203765869 -0.0257333498448133469
-0.558438479900360107 0.272303014993667603 -0.259107798337936401
-0.31451299786567688 0.797373831272125244 -0.258082866668701172
-0.449398964643478394 0.49456295371055603 0.165222615003585815
-0.477287620306015015 0.359564781188964844 0.20801950991153717
-0.211066678166389465 0.745759546756744385 -0.0257891211658716202
0.0192922130227088928 1.29089915752410889 -0.0737531110644340515
-0.476640194654464722 0.441728025674819946 0.183300107717514038
-0.287370920181274414 0.540411412715911865 -0.0272990111261606216
-0.686081290245056152 0.251127898693084717 0.0471812300384044647
-0.475171208381652832 0.306832194328308105 0.237140655517578125
-0.36896669864654541 0.181302011013031006 -0.125567987561225891
-0.588071107864379883 0.62095940113067627 0.0948872268199920654
-0.34091264009475708 0.833671092987060547 -0.155388161540031433
-0.57763671875 0.480784028768539429 -0.158231928944587708
-0.627223074436187744 0.442198276519775391 0.032622169703245163
-0.390606731176376343 0.548226892948150635 0.181033626198768616
-0.423872590065002441 0.331747233867645264 -0.0174802783876657486
-0.558781921863555908 0.230591028928756714 -0.0556569136679172516
-0.646731853485107422 0.404392451047897339 0.0922078415751457214
-0.106873571872711182 1.06006669998168945 -0.0544655546545982361
-0.419689148664474487 0.353657424449920654 0.0168585143983364105
-0.601172506809234619 0.523893654346466064 0.0782977193593978882
-0.442244291305541992 0.426465332508087158 0.212178468704223633
-0.479263424873352051 0.373559862375259399 -0.239555418491363525
-0.638473093509674072 0.452931374311447144 0.0909915044903755188
-0.385246306657791138 0.433486849069595337 0.00357059994712471962
-0.505119264125823975 0.325698107481002808 0.215505853295326233
-0.379519850015640259 0.365111023187637329 -0.0197143647819757462
-0.391561567783355713 0.592104315757751465 -0.08619680255651474
-0.440712094306945801 0.355730742216110229 0.222334370017051697
-0.290763705968856812 0.390345782041549683 -0.243906795978546143
-0.491815567016601562 0.438493490219116211 0.202517494559288025
-0.536134660243988037 0.598950505256652832 0.139235109090805054
-0.508508682250976562 0.237419649958610535 -0.0438629239797592163
-0.57671821117401123 0.370054811239242554 -0.137487500905990601
-0.54200059175491333 0.296838492155075073 0.24148094654083252
-0.211481645703315735 1.27184009552001953 -0.0739855468273162842
-0.309747844934463501 0.531773984432220459 0.00746321259066462517
-0.465369910001754761 0.247856289148330688 0.173911795020103455
-0.409861177206039429 0.261898159980773926 -0.227086767554283142
-0.178093761205673218 0.492608428001403809 -0.218497440218925476
-0.608098149299621582 0.5004006028175354 0.0576078891754150391
-0.326725304126739502 0.60079878568649292 0.0322442315518856049
-0.436085730791091919 0.190236970782279968 -0.195685818791389465
-0.488092571496963501 0.453204423189163208 -0.274878531694412231
-0.353733539581298828 0.300835222005844116 -0.234339997172355652
-0.582148253917694092 0.304169118404388428 -0.249097764492034912
-0.649326980113983154 0.307901501655578613 -0.0815867111086845398
-0.605649173259735107 0.247258320450782776 -0.115024343132972717
-0.611985206604003906 0.255378812551498413 -0.0453496761620044708
-0.156280979514122009 0.94334721565246582 -0.211283415555953979
-0.440017759799957275 0.504550158977508545 0.191581830382347107
-0.617701053619384766 0.537032842636108398 0.147857025265693665
-0.48407861590385437 0.182109221816062927 -0.215364649891853333
-0.613138973712921143 0.244745150208473206 -0.182394996285438538
-0.64906841516494751 0.289409011602401733 -0.0173949357122182846
-0.342943489551544189 0.404765486717224121 -0.0670612305402755737
-0.480015397071838379 0.496890485286712646 -0.266841500997543335
-0.60781395435333252 0.340632230043411255 -0.12937532365322113
-0.231789752840995789 0.708930730819702148 -0.0271395780146121979
-0.275450438261032104 0.981189489364624023 -0.0467278808355331421
-0.450040370225906372 0.65974956750869751 0.055546887218952179
-0.629800140857696533 0.263319402933120728 -0.109645947813987732
-0.603261172771453857 0.557903707027435303 0.0633950755000114441
-0.470017969608306885 0.166449889540672302 -0.217967957258224487
-0.338945209980010986 0.479054510593414307 -0.0860836431384086609
-0.507148325443267822 0.360159575939178467 -0.247778072953224182
-0.461238771677017212 0.534345686435699463 0.183103293180465698
-0.338626563549041748 0.70521843433380127 -0.225220829248428345
-0.389515668153762817 0.415930092334747314 0.215136989951133728
-0.639906644821166992 0.313371479511260986 -0.0905019491910934448
-0.304362297058105469 0.800041556358337402 -0.0338399522006511688
-0.594150841236114502 0.556920647621154785 0.128306001424789429
-0.379478305578231812 0.51317673921585083 -0.108643077313899994
-0.624096512794494629 0.251367807388305664 -0.173119649291038513
-0.424961507320404053 0.367080926895141602 0.219901084899902344
-0.157607346773147583 1.05237579345703125 0.00651532644405961037
-0.540771842002868652 0.296974599361419678 -0.257265776395797729
-0.269316136837005615 0.72326892614364624 -0.129586562514305115
-0.125494569540023804 1.24411022663116455 -0.146381884813308716
-0.580658853054046631 0.550042092800140381 -0.00863458681851625443
-0.280131101608276367 0.363820403814315796 -0.23899117112159729
-0.25297921895980835 1.0151749849319458 -0.0476693473756313324
-0.515326857566833496 0.22752825915813446 -0.117755502462387085
-0.46827360987663269 0.205710217356681824 -0.231744945049285889
-0.539381802082061768 0.390462189912796021 0.195225521922111511
-0.487413555383682251 0.483683943748474121 -0.272288262844085693
-0.611098229885101318 0.600441157817840576 0.114405199885368347
-0.447171539068222046 0.281260788440704346 0.000783386582043021917
-0.350289702415466309 0.594853222370147705 -0.153449907898902893
-0.375579237937927246 0.414176434278488159 -0.00461708754301071167
-0.531294107437133789 0.6302834153175354 0.128292471170425415
-0.131050765514373779 1.22840607166290283 0.0179824437946081161
-0.618798613548278809 0.359023362398147583 -0.102935120463371277
-0.449595212936401367 0.608567953109741211 0.0641524642705917358
-0.5539359450340271 0.31430429220199585 -0.237138211727142334
-0.25606691837310791 0.375745028257369995 -0.220381677150726318
-0.576423108577728271 0.254472196102142334 0.0516879633069038391
-0.364882886409759521 0.184890285134315491 -0.100025519728660583
-0.49241289496421814 0.514491438865661621 0.184656694531440735
-0.463180392980575562 0.192309349775314331 -0.102835975587368011
-0.410209417343139648 0.474510729312896729 0.00764140021055936813
-0.123482950031757355 1.30552983283996582 -0.181273072957992554
-0.585960865020751953 0.536062538623809814 0.0855471044778823853
-0.422928839921951294 0.189147293567657471 -0.148251131176948547
-0.234609708189964294 1.13885045051574707 -0.0440612062811851501
-0.327723175287246704 0.568176805973052979 0.184285372495651245
-0.557090401649475098 0.6169777512550354 -0.0179949328303337097
-0.465021342039108276 0.427898824214935303 -0.259754747152328491
-0.609443724155426025 0.585169374942779541 0.123819105327129364
-0.298148453235626221 0.52752983570098877 -0.118072368204593658
-0.466399252414703369 0.314303010702133179 0.0802388042211532593
-0.529033303260803223 0.452813118696212769 0.174269214272499084
-0.39470478892326355 0.315309226512908936 -0.0306385625153779984
-0.270526617765426636 0.950419604778289795 -0.0322420299053192139
-0.326828896999359131 0.149174690246582031 -0.145541787147521973
-0.299582034349441528 0.663421571254730225 0.0294727683067321777
-0.392202973365783691 0.197676733136177063 0.0159660764038562775
-0.319274783134460449 0.19391535222530365 -0.190340474247932434
-0.592333495616912842 0.381756126880645752 0.190108716487884521
-0.53034818172454834 0.456356018781661987 -0.253236055374145508
-0.653908014297485352 0.399647563695907593 0.0655308440327644348
-0.422626703977584839 0.186953634023666382 -0.145948126912117004
-0.515456318855285645 0.224190890789031982 -0.0557156912982463837
-0.561460494995117188 0.319020837545394897 0.198911279439926147
-0.463024705648422241 0.416615188121795654 0.0539737902581691742
-0.229597911238670349 0.881455123424530029 -0.160553619265556335
-0.378990650177001953 0.521456658840179443 0.0466546230018138885
-0.370613455772399902 0.428272873163223267 -0.0686737596988677979
-0.406377077102661133 0.170211836695671082 -0.192161411046981812
-0.233289703726768494 0.658111631870269775 -0.0571003742516040802
-0.245666235685348511 0.607578694820404053 -0.0623975731432437897
-0.631275534629821777 0.301184415817260742 0.167660579085350037
-0.568296968936920166 0.498737752437591553 0.177557766437530518
-0.44572371244430542 0.216165229678153992 0.0898547545075416565
-0.408174395561218262 0.128035992383956909 -0.22140735387802124
-0.296091020107269287 0.552913308143615723 0.062993176281452179
-0.536834776401519775 0.243772298097610474 -0.0514189116656780243
-0.391542553901672363 0.162173345685005188 -0.205751299858093262
-0.548509955406188965 0.218004211783409119 -0.206782266497612
-0.570843935012817383 0.438909918069839478 0.187216416001319885
-0.386920690536499023 0.374107122421264648 -0.00218205037526786327
-0.329560458660125732 0.628683805465698242 -0.190324455499649048
-0.404235780239105225 0.188743963837623596 -0.12238340824842453
-0.560965359210968018 0.449447333812713623 -0.111724317073822021
-0.362134695053100586 0.85419154167175293 -0.0719458982348442078
-0.315743625164031982 0.275468260049819946 -0.217004865407943726
-0.296125710010528564 0.771236836910247803 -0.0155455879867076874
-0.0978513658046722412 1.36404085159301758 -0.174673140048980713
-0.227005645632743835 0.801506280899047852 -0.151824623346328735
-0.260157316923141479 0.408116787672042847 -0.234995335340499878
-0.589463591575622559 0.349780529737472534 -0.0940970033407211304
-0.291005700826644897 0.817643821239471436 -0.0136737283319234848
-0.515796780586242676 0.230282694101333618 -0.0162467639893293381
-0.295274466276168823 0.273490488529205322 -0.20589052140712738
-0.37760847806930542 0.519727468490600586 -0.0656175389885902405
-0.651615560054779053 0.25735136866569519 0.0242890883237123489
-0.400437057018280029 0.290915966033935547 0.0361315086483955383
-0.524874389171600342 0.272668838500976562 0.117037095129489899
-0.516288936138153076 0.351881712675094604 -0.263738721609115601
-0.336241096258163452 0.331676006317138672 0.0275727715343236923
-0.319763779640197754 0.587261617183685303 -0.0641980841755867004
-0.477940112352371216 0.433034956455230713 0.212962865829467773
-0.16271267831325531 1.13605690002441406 0.0174436420202255249
-0.194988593459129333 0.964578151702880859 0.0244539398699998856
-0.676582872867584229 0.274254769086837769 0.0220666974782943726
-0.355545520782470703 0.794797539710998535 -0.138103336095809937
-0.235171452164649963 0.758898913860321045 -0.144469752907752991
-0.515486955642700195 0.349667072296142578 0.208447843790054321
-0.230147019028663635 0.48781585693359375 -0.242579057812690735
-0.634134411811828613 0.481194913387298584 0.170749783515930176
-0.467396020889282227 0.251931995153427124 0.120750918984413147
-0.397429049015045166 0.19303092360496521 -0.0695958063006401062
-0.435131251811981201 0.376493662595748901 0.0304137375205755234
-0.284699827432632446 0.628474593162536621 -0.0406083427369594574
-0.47891998291015625 0.217479825019836426 -0.0849393531680107117
-0.26640811562538147 1.020377516746521 -0.0715423449873924255
-0.640468597412109375 0.266334831714630127 -0.0391604267060756683
-0.405388146638870239 0.295242547988891602 0.0322359763085842133
-0.620821893215179443 0.392796427011489868 0.0237776078283786774
-0.444639801979064941 0.232311323285102844 0.151314422488212585
-0.389074742794036865 0.141108348965644836 -0.190602079033851624
-0.316025763750076294 0.447641521692276001 -0.0719836056232452393
-0.312246561050415039 0.122324444353580475 -0.185926184058189392
-0.554906308650970459 0.515445053577423096 0.185744538903236389
-0.315825790166854858 0.514413177967071533 0.0038905823603272438
-0.338509082794189453 0.668923676013946533 -0.187451183795928955
-0.256232857704162598 0.858717918395996094 -0.0927535519003868103
-0.47877851128578186 0.238529115915298462 0.243439465761184692
-0.1945514976978302 1.07310914993286133 -0.13189949095249176
-0.225973352789878845 0.88652503490447998 -0.160125941038131714
-0.0335356630384922028 1.14731931686401367 -0.0743814855813980103
-0.365450471639633179 0.540005624294281006 0.0591934621334075928
-0.165528461337089539 0.840910971164703369 -0.0525090470910072327
-0.364920377731323242 0.466881245374679565 -0.255561232566833496
-0.427679270505905151 0.238990813493728638 0.128190085291862488
-0.333826750516891479 0.578152775764465332 -0.0477139577269554138
-0.608870625495910645 0.440883845090866089 0.0560680367052555084
-0.485430657863616943 0.274297356605529785 0.239690780639648438
-0.44604337215423584 0.445336639881134033 -0.261346310377120972
-0.559133768081665039 0.641173362731933594 0.0501403473317623138
-0.531501293182373047 0.243022903800010681 0.0859183818101882935
-0.594879806041717529 0.415737062692642212 -0.0703532025218009949
-0.622239947319030762 0.417137622833251953 -0.00359883089549839497
-0.441637217998504639 0.310275048017501831 0.229973107576370239
-0.340345859527587891 0.366939723491668701 -0.0180471297353506088
-0.47095191478729248 0.215084850788116455 -0.139521628618240356
-0.0995900928974151611 1.34346914291381836 -0.182814270257949829
-0.258787482976913452 0.466909945011138916 -0.00842941831797361374
-0.567792236804962158 0.322226971387863159 -0.261663258075714111
-0.623283922672271729 0.286427885293960571 0.155181348323822021
-0.639518141746520996 0.42679789662361145 0.0556284002959728241
-0.545011281967163086 0.477696120738983154 -0.185726091265678406
-0.175436526536941528 0.476934492588043213 -0.223497375845909119
-0.669425070285797119 0.309623211622238159 0.134806767106056213
-0.371483176946640015 0.739410758018493652 -0.121811173856258392
-0.382330596446990967 0.500993788242340088 -0.0067116348072886467
-0.597139239311218262 0.329866617918014526 -0.207313358783721924
-0.612100780010223389 0.280674517154693604 0.186024487018585205
-0.411763668060302734 0.371483027935028076 -0.063304416835308075
-0.248790189623832703 0.453690707683563232 -0.215920135378837585
-0.100706778466701508 1.04069888591766357 -0.0748797208070755005
-0.680975794792175293 0.296535611152648926 0.106558084487915039
-0.590378284454345703 0.251156985759735107 -0.000597251520957797766
-0.55414283275604248 0.312926232814788818 0.200397148728370667
-0.488958030939102173 0.215208157896995544 -0.0771369263529777527
-0.156911998987197876 1.09280908107757568 -0.135555699467658997
-0.532623112201690674 0.310723274946212769 -0.229804888367652893
-0.348234206438064575 0.467823117971420288 0.0230300556868314743
-0.479047894477844238 0.165358841419219971 -0.213617786765098572
-0.664552032947540283 0.306098312139511108 0.183896884322166443
-0.548945784568786621 0.33452412486076355 0.208210751414299011
-0.634903371334075928 0.277835816144943237 -0.0507594756782054901
-0.561837732791900635 0.447435766458511353 0.169172853231430054
-0.563682019710540771 0.359359383583068848 -0.260417759418487549
-0.447082459926605225 0.264084070920944214 0.199543178081512451
-0.530668139457702637 0.476734459400177002 -0.251443654298782349
-0.377416878938674927 0.647565484046936035 0.00683279708027839661
-0.409615397453308105 0.380934864282608032 0.0220916420221328735
-0.649836063385009766 0.282223254442214966 0.019913526251912117
-0.408071070909500122 0.215579792857170105 0.0218137949705123901
-0.219271063804626465 1.14542126655578613 -0.05326031893491745
-0.42435157299041748 0.386484533548355103 0.0383775457739830017
-0.358036071062088013 0.560083448886871338 -0.16552734375
-0.471477419137954712 0.432504326105117798 -0.274084240198135376
-0.336701691150665283 0.572842538356781006 0.18780142068862915
-0.3489266037940979 0.185517385601997375 -0.0848322436213493347
-0.464332103729248047 0.205361023545265198 -0.174139097332954407
-0.130753695964813232 1.00274085998535156 -0.0404252223670482635
-0.214102238416671753 1.17926335334777832 -0.0519824810326099396
-0.52341008186340332 0.227180883288383484 -0.0350785441696643829
-0.362954050302505493 0.625470638275146484 0.0527773946523666382
-0.292948275804519653 0.593130946159362793 0.20598156750202179
-0.367543071508407593 0.772752642631530762 -0.0431663505733013153
-0.220796585083007812 1.25806891918182373 -0.0600175857543945312
-0.438298195600509644 0.25363275408744812 -0.201595291495323181
-0.436775088310241699 0.618718326091766357 0.156287118792533875
-0.0470865555107593536 1.13641619682312012 -0.0707876235246658325
-0.570237100124359131 0.321989327669143677 -0.238821491599082947
-0.451654583215713501 0.282517552375793457 0.228110194206237793
-0.37881392240524292 0.444711059331893921 -0.0283941794186830521
-0.638490378856658936 0.322990983724594116 -0.0383222997188568115
-0.603263914585113525 0.222064152359962463 -0.201584205031394958
-0.383425354957580566 0.191022351384162903 -0.0320096611976623535
-0.409822851419448853 0.376639276742935181 -0.0620141215622425079
-0.465031862258911133 0.42951810359954834 0.204751670360565186
-0.602645635604858398 0.452135205268859863 -0.0406294092535972595
-0.633233606815338135 0.375784933567047119 0.103887319564819336
-0.467429876327514648 0.212499573826789856 0.290756404399871826
-0.263046830892562866 0.277980595827102661 -0.205117210745811462
-0.57982933521270752 0.304057180881500244 0.205598339438438416
-0.301540940999984741 0.457908868789672852 -0.0063796481117606163
-0.340098559856414795 0.899201810359954834 -0.17907010018825531
-0.166228234767913818 0.859865963459014893 -0.0329359881579875946
-0.383421212434768677 0.613142728805541992 -0.163485601544380188
-0.303582996129989624 0.244401708245277405 -0.17397540807723999
-0.586441993713378906 0.257759630680084229 -0.055729936808347702
-0.465030759572982788 0.46652454137802124 -0.2878856360912323
-0.293103277683258057 0.579883337020874023 0.00463002407923340797
-0.323407381772994995 0.455453604459762573 -0.0796293765306472778
-0.568059325218200684 0.272755205631256104 0.129225745797157288
-0.347504526376724243 0.504654109477996826 0.0510354898869991302
-0.310312479734420776 0.315845221281051636 -0.205586746335029602
-0.598464488983154297 0.408538073301315308 -0.109392225742340088
-0.39592057466506958 0.266602367162704468 0.0027893679216504097
-0.475572377443313599 0.316781163215637207 -0.237695291638374329
-0.268031537532806396 0.396160691976547241 -0.250726491212844849
-0.560321927070617676 0.452065229415893555 -0.241244673728942871
-0.402223736047744751 0.202648729085922241 -0.0418290905654430389
-0.504920363426208496 0.497354269027709961 0.172884076833724976
-0.58094334602355957 0.322453111410140991 -0.197053223848342896
-0.573711514472961426 0.362346887588500977 -0.201130121946334839
-0.415069550275802612 0.340244084596633911 -0.0125874262303113937
-0.378074795007705688 0.305314868688583374 -0.223605751991271973
-0.431828588247299194 0.486924201250076294 0.0577255599200725555
-0.612213194370269775 0.328939199447631836 -0.0859451070427894592
-0.342525124549865723 0.52879798412322998 -0.0151247009634971619
-0.486565858125686646 0.282711535692214966 -0.258913189172744751
-0.441450834274291992 0.282819926738739014 -0.240683034062385559
-0.493267595767974854 0.27872583270072937 0.169786244630813599
-0.571948468685150146 0.63032829761505127 -0.0161092951893806458
-0.359727174043655396 0.240520671010017395 -0.186581060290336609
-0.676974058151245117 0.413214534521102905 0.165101319551467896
-0.306867480278015137 0.869199872016906738 -0.050653502345085144
-0.627135396003723145 0.252939671277999878 -0.0662478804588317871
-0.616017758846282959 0.459465295076370239 0.157274365425109863
-0.364900469779968262 0.479330658912658691 -0.121935278177261353
-0.284597337245941162 0.814983189105987549 -0.0107914702966809273
-0.20041126012802124 1.31132173538208008 -0.0506041198968887329
-0.442400604486465454 0.198345571756362915 -0.136373355984687805
-0.366417914628982544 0.462759196758270264 -0.258657366037368774
-0.598128616809844971 0.39072418212890625 -0.0643479004502296448
-0.145906776189804077 1.09151327610015869 0.0174734853208065033
-0.53021472692489624 0.301838517189025879 -0.256913959980010986
-0.54066014289855957 0.293905198574066162 0.143693387508392334
-0.574587345123291016 0.579367876052856445 0.133162930607795715
-0.632120311260223389 0.385284066200256348 0.0104239340871572495
-0.404454201459884644 0.550165355205535889 -0.0544765777885913849
-0.66691058874130249 0.265236914157867432 0.053904704749584198
-0.554816007614135742 0.501961648464202881 -0.110179804265499115
-0.409202724695205688 0.441395670175552368 -0.0314797237515449524
-0.54725492000579834 0.436684191226959229 -0.267178773880004883
-0.556261956691741943 0.419216185808181763 0.186341330409049988
-0.364592403173446655 0.75938713550567627 -0.091532975435256958
-0.504190504550933838 0.421681255102157593 -0.272974371910095215
-0.267457306385040283 0.640529513359069824 -0.00642028823494911194
-0.390725582838058472 0.0990696325898170471 -0.175017029047012329
-0.365276753902435303 0.355073422193527222 0.00658000633120536804
-0.36934247612953186 0.332162588834762573 -0.223671898245811462
-0.486501574516296387 0.487894386053085327 0.190499573945999146
-0.210908845067024231 1.36671233177185059 -0.0552131049335002899
-0.565093159675598145 0.214179694652557373 -0.122000128030776978
-0.550513923168182373 0.255814552307128906 0.232008621096611023
-0.598725020885467529 0.28184819221496582 0.232925102114677429
-0.438628911972045898 0.683844149112701416 0.0605052746832370758
-0.582190573215484619 0.45899808406829834 0.168815016746520996
-0.359724074602127075 0.994164586067199707 -0.0806526392698287964
-0.462990939617156982 0.187951520085334778 -0.120993539690971375
-0.437168896198272705 0.5442962646484375 0.0671896263957023621
-0.587648689746856689 0.249631986021995544 0.217537865042686462
-0.401063472032546997 0.557167768478393555 -0.28688424825668335
-0.314708083868026733 0.703579723834991455 -0.191097766160964966
-0.544763743877410889 0.52530139684677124 0.168184980750083923
-0.537083804607391357 0.310003966093063354 0.212559521198272705
-0.507628858089447021 0.384411543607711792 -0.253320008516311646
-0.474931061267852783 0.222132652997970581 0.0298025049269199371
-0.405305624008178711 0.219377055764198303 0.138657569885253906
-0.344224393367767334 0.456638216972351074 -0.0905476510524749756
-0.639506638050079346 0.41085466742515564 0.145012438297271729
-0.363222330808639526 0.166333004832267761 -0.186684057116508484
-0.355321049690246582 0.205270349979400635 -0.0398017056286334991
-0.426286160945892334 0.418894857168197632 0.198085188865661621
-0.265523612499237061 0.609706878662109375 -0.0935742929577827454
-0.663174629211425781 0.297484368085861206 0.170625269412994385
-0.599258244037628174 0.303662210702896118 0.151891559362411499
-0.336311370134353638 0.58546680212020874 -0.0169867761433124542
-0.162467196583747864 0.772507369518280029 -0.0718626827001571655
-0.400322079658508301 0.184370428323745728 -0.203412681818008423
-0.0271404627710580826 1.16170823574066162 -0.0570119507610797882
-0.582872509956359863 0.362621903419494629 -0.239492133259773254
-0.43953317403793335 0.700194418430328369 0.050480373203754425
-0.54783707857131958 0.54502570629119873 -0.142721608281135559
-0.411992162466049194 0.531888365745544434 0.0181773807853460312
-0.581587672233581543 0.580025136470794678 0.139466583728790283
-0.247837036848068237 0.797070324420928955 0.00686131836846470833
-0.401056200265884399 0.364951252937316895 0.21741543710231781
-0.24347648024559021 0.820495128631591797 -0.0933536365628242493
-0.630208909511566162 0.332387775182723999 -0.147244274616241455
-0.433391004800796509 0.167241916060447693 -0.223815768957138062
-0.580254554748535156 0.604124963283538818 0.0779029205441474915
-0.548364222049713135 0.249978035688400269 -0.0993692576885223389
-0.622660398483276367 0.294054597616195679 0.111242137849330902
-0.291275978088378906 0.847394108772277832 -0.0455556400120258331
-0.328636288642883301 0.545632123947143555 -0.0373695157468318939
-0.4415169358253479 0.615403592586517334 0.162256568670272827
-0.62542271614074707 0.280492246150970459 -0.0874596238136291504
-0.201865389943122864 1.04329407215118408 -0.122346475720405579
-0.237399652600288391 0.735569357872009277 0.0663534775376319885
-0.179615885019302368 0.818830251693725586 -0.179154425859451294
-0.141420811414718628 1.13280022144317627 -0.248846083879470825
-0.152166798710823059 0.992632091045379639 -0.2305174320936203
-0.610709011554718018 0.32232820987701416 0.200541362166404724
-0.545953452587127686 0.549957871437072754 0.165607526898384094
-0.56246417760848999 0.270733475685119629 0.0766972005367279053
-0.274721324443817139 0.879194438457489014 0.00962172448635101318
-0.659320652484893799 0.460089534521102905 0.146231859922409058
-0.229469582438468933 1.1024327278137207 -0.0523429922759532928
-0.500010430812835693 0.419835984706878662 -0.266765952110290527
-0.533758103847503662 0.371508657932281494 -0.271167337894439697
-0.316605418920516968 0.267388612031936646 -0.202229216694831848
-0.345814883708953857 0.287914544343948364 -0.223159253597259521
-0.276713907718658447 0.92672497034072876 -0.0426535159349441528
-0.577477395534515381 0.249730020761489868 -0.0529225096106529236
-0.306180030107498169 0.764822721481323242 -0.0181383155286312103
-0.11173432320356369 1.28719162940979004 -0.143038809299468994
-0.66231304407119751 0.38758540153503418 0.114702187478542328
-0.499951481819152832 0.229530423879623413 -0.0683404579758644104
-0.126783058047294617 1.20233380794525146 0.0248994473367929459
-0.405014514923095703 0.34985467791557312 -0.0558734908699989319
-0.580542027950286865 0.363080590963363647 -0.172692134976387024
-0.285680294036865234 0.596945106983184814 -0.00585074583068490028
-0.577286183834075928 0.278646916151046753 0.118478037416934967
-0.532290637493133545 0.44447287917137146 0.19803929328918457
-0.333358407020568848 0.577287495136260986 -0.0268038306385278702
-0.56827092170715332 0.58036428689956665 -0.0336241163313388824
-0.21381339430809021 0.505463957786560059 -0.249141544103622437
-0.635763287544250488 0.298653364181518555 0.132792860269546509
-0.534186422824859619 0.46173471212387085 -0.255547523498535156
-0.262724608182907104 0.814103305339813232 -0.122254431247711182
-0.448427408933639526 0.294283777475357056 -0.229386299848556519
-0.622911691665649414 0.290416538715362549 0.0857795700430870056
-0.434121489524841309 0.175711318850517273 -0.0611532330513000488
-0.35725170373916626 0.60318756103515625 -0.0368198007345199585
-0.419104248285293579 0.471031367778778076 0.0105665950104594231
-0.359872967004776001 0.349128752946853638 -0.00100689555983990431
-0.582638561725616455 0.576219737529754639 0.0283686183393001556
-0.410108327865600586 0.384905040264129639 0.20400691032409668
-0.153493151068687439 0.742588043212890625 -0.0695812255144119263
-0.567050516605377197 0.317329227924346924 0.216848984360694885
-0.491540133953094482 0.350633323192596436 -0.249921470880508423
-0.4343586266040802 0.252107411623001099 0.197194531559944153
-0.212077438831329346 0.750085175037384033 -0.0251024551689624786
-0.655926108360290527 0.279577642679214478 -0.0174766592681407928
-0.454971104860305786 0.199813365936279297 -0.00963379070162773132
-0.578957140445709229 0.41360706090927124 -0.17360416054725647
-0.292903661727905273 0.225795596837997437 -0.178153544664382935
-0.576927244663238525 0.392910510301589966 0.185143709182739258
-0.65414726734161377 0.316144078969955444 -0.0255735013633966446
-0.315315991640090942 0.57197195291519165 0.0216972846537828445
-0.564822912216186523 0.273709237575531006 0.0153963603079319
-0.184162348508834839 0.897874116897583008 -0.0350428931415081024
-0.556563675403594971 0.451974928379058838 -0.242277294397354126
-0.525947451591491699 0.439673125743865967 0.175662964582443237
-0.373730003833770752 0.17832481861114502 -0.0631819888949394226
-0.24943600594997406 1.04480278491973877 -0.0450279302895069122
-0.42918124794960022 0.335817515850067139 -0.240670561790466309
-0.296494513750076294 0.559304893016815186 -0.141011789441108704
-0.52941739559173584 0.330303072929382324 -0.24809969961643219
-0.277195245027542114 0.60744321346282959 -0.160514920949935913
-0.572827756404876709 0.398195922374725342 -0.235693871974945068
-0.608787655830383301 0.497412681579589844 0.0682326406240463257
-0.336145699024200439 0.472044825553894043 0.0539757274091243744
-0.629797875881195068 0.340920507907867432 -0.0627703666687011719
-0.384640008211135864 0.46248665452003479 -0.105290539562702179
-0.604983627796173096 0.536004841327667236 0.147662773728370667
-0.642823994159698486 0.264475882053375244 -0.0318355709314346313
-0.274805605411529541 0.294587284326553345 -0.190494313836097717
-0.554003596305847168 0.422003716230392456 -0.263460457324981689
-0.576655447483062744 0.661243796348571777 0.0514783188700675964
-0.555889785289764404 0.408695638179779053 -0.235757678747177124
-0.382811993360519409 0.456973403692245483 -0.0228117853403091431
-0.21811850368976593 1.21573829650878906 -0.053255762904882431
-0.276514500379562378 0.620240747928619385 0.0666232109069824219
-0.335158079862594604 0.691925942897796631 0.0738851353526115417
-0.510606706142425537 0.497546285390853882 -0.240583747625350952
-0.667008340358734131 0.282023072242736816 0.0703921467065811157
-0.250103622674942017 0.81892096996307373 0.0264116823673248291
-0.426358819007873535 0.416898906230926514 0.225544452667236328
-0.315555065870285034 0.235944032669067383 -0.178920537233352661
-0.391191035509109497 0.239201277494430542 -0.219553738832473755
-0.546126484870910645 0.341737329959869385 -0.272820651531219482
-0.523715615272521973 0.552209019660949707 0.162042990326881409
-0.51508408784866333 0.292750746011734009 0.220442041754722595
-0.632432937622070312 0.452340900897979736 0.156526342034339905
-0.388929575681686401 0.267904013395309448 -0.237374544143676758
-0.555968344211578369 0.469634383916854858 -0.146357148885726929
-0.39381706714630127 0.223974749445915222 0.11232401430606842
-0.298518151044845581 0.732210516929626465 -0.0972544401884078979
-0.565488338470458984 0.454552829265594482 -0.189798846840858459
-0.436599045991897583 0.65435868501663208 0.0469875186681747437
-0.398456007242202759 0.535792171955108643 -0.0184789020568132401
-0.513240158557891846 0.417230546474456787 0.192356586456298828
-0.366228461265563965 0.393790900707244873 -0.0127703305333852768
-0.301749289035797119 0.190918788313865662 -0.176983952522277832
-0.641436398029327393 0.219489395618438721 -0.0705094635486602783
-0.265615314245223999 0.479895204305648804 -0.0249410867691040039
-0.478814274072647095 0.201446428894996643 -0.11668027937412262
-0.454000353813171387 0.34423026442527771 -0.226092144846916199
-0.618525147438049316 0.365882694721221924 -0.0687265694141387939
-0.426903992891311646 0.55381321907043457 0.179369494318962097
-0.597733497619628906 0.334046065807342529 -0.17029474675655365
-0.263884127140045166 0.69074559211730957 -0.0130140865221619606
-0.388526886701583862 0.155193328857421875 -0.192401915788650513
-0.169924631714820862 1.03183341026306152 0.00192340195644646883
-0.660535931587219238 0.226920932531356812 0.00694459863007068634
-0.36133536696434021 0.175216168165206909 -0.0929265245795249939
-0.444238424301147461 0.190335065126419067 -0.204738080501556396
-0.380911201238632202 0.319270104169845581 0.0271162856370210648
-0.573949873447418213 0.325518548488616943 -0.235124096274375916
-0.559005379676818848 0.292029857635498047 0.201925456523895264
-0.608971655368804932 0.272815048694610596 0.00786974094808101654
-0.233220145106315613 0.829574286937713623 -0.147935852408409119
-0.275257647037506104 0.224486112594604492 -0.192815065383911133
-0.576960980892181396 0.468080520629882812 0.175515368580818176
-0.618802249431610107 0.422530651092529297 0.0937528535723686218
-0.115410864353179932 1.36245131492614746 -0.17237621545791626
-0.429970443248748779 0.246161907911300659 0.198201179504394531
-0.643535017967224121 0.432283937931060791 0.113721199333667755
-0.31546744704246521 0.615815222263336182 0.21196708083152771
-0.651173293590545654 0.322394579648971558 0.0160417854785919189
-0.407099008560180664 0.201956525444984436 -0.0489234849810600281
-0.600573718547821045 0.306876599788665771 -0.170670270919799805
-0.455371826887130737 0.362993925809860229 0.203502342104911804
-0.482117265462875366 0.242247536778450012 -0.0104205189272761345
-0.28930935263633728 0.366972059011459351 -0.21800367534160614
-0.447568833827972412 0.748024165630340576 0.0760616064071655273
-0.402249544858932495 0.335357159376144409 0.0181774180382490158
-0.137787759304046631 1.01232743263244629 -0.24230608344078064
-0.262558609247207642 0.640698134899139404 -0.0131529038771986961
-0.31345367431640625 0.478579610586166382 0.00210227677598595619
-0.610249757766723633 0.355697751045227051 -0.128591224551200867
-0.536257803440093994 0.508801281452178955 -0.234138697385787964
-0.402321040630340576 0.225548624992370605 0.142676353454589844
-0.356206536293029785 0.569794356822967529 0.0698630884289741516
-0.47418677806854248 0.193448200821876526 -0.21580389142036438
-0.604879021644592285 0.254078567028045654 -0.135382473468780518
-0.559731364250183105 0.501942932605743408 -0.216259002685546875
-0.567473649978637695 0.273673772811889648 0.0604574233293533325
-0.626721560955047607 0.554820716381072998 0.110423550009727478
-0.196976453065872192 0.504093348979949951 -0.22063155472278595
-0.487981706857681274 0.246237576007843018 0.134138286113739014
-0.268446207046508789 0.792077064514160156 -0.0629608407616615295
-0.532391071319580078 0.363009333610534668 0.221189945936203003
-0.269693464040756226 0.560026049613952637 -0.0486415140330791473
-0.558607935905456543 0.468422144651412964 0.155284762382507324
-0.58112102746963501 0.394193351268768311 -0.128928884863853455
-0.0021380267571657896 1.21440386772155762 -0.0781200528144836426
-0.370693296194076538 0.2774181067943573 0.0317487902939319611
-0.30232083797454834 0.513091087341308594 0.0670000836253166199
-0.449527442455291748 0.273198992013931274 0.0571912601590156555
-0.0964885801076889038 1.32990312576293945 -0.158369779586791992
-0.277793288230895996 0.444838285446166992 0.0223202984780073166
-0.59221196174621582 0.388319849967956543 0.175428524613380432
-0.461211562156677246 0.224187955260276794 0.0430095642805099487
-0.212096959352493286 0.707651138305664062 -0.0571157597005367279
-0.26029476523399353 0.357420682907104492 -0.207582473754882812
-0.444729477167129517 0.208571568131446838 -0.0938096195459365845
-0.61977463960647583 0.362445056438446045 -0.00521063245832920074
-0.372670441865921021 0.314836114645004272 0.031041119247674942
-0.474796533584594727 0.644438803195953369 0.149980515241622925
-0.154040873050689697 1.13339376449584961 -0.24506300687789917
-0.610876262187957764 0.35878637433052063 -0.0990124791860580444
-0.419610381126403809 0.238464117050170898 -0.2143440842628479
-0.468930035829544067 0.278571397066116333 0.244312360882759094
-0.466493844985961914 0.518090248107910156 0.168002977967262268
-0.359472364187240601 0.643298327922821045 -0.178691700100898743
-0.388894051313400269 0.705642282962799072 -0.0994287505745887756
-0.501814126968383789 0.295979291200637817 -0.239396959543228149
-0.365525990724563599 0.464637398719787598 0.185442507266998291
-0.62423175573348999 0.412250995635986328 0.0691314414143562317
-0.541853964328765869 0.406996577978134155 -0.246445074677467346
-0.291106551885604858 0.880613505840301514 0.108706548810005188
-0.548840582370758057 0.464599490165710449 -0.271235764026641846
-0.603662610054016113 0.252988129854202271 -0.0365136899054050446
-0.295857042074203491 0.571212947368621826 0.00924883689731359482
-0.380173683166503906 0.391166508197784424 -0.239681050181388855
-0.355811357498168945 0.168917059898376465 -0.0942304506897926331
-0.476263165473937988 0.271126151084899902 0.247613206505775452
-0.419703096151351929 0.243179291486740112 0.159230083227157593
-0.564284801483154297 0.381291985511779785 -0.19688241183757782
-0.419741779565811157 0.399567902088165283 0.0460259430110454559
-0.554665029048919678 0.254793882369995117 -0.0394940748810768127
-0.578343033790588379 0.305160194635391235 0.156623527407646179
-0.321090549230575562 0.160556182265281677 -0.124925978481769562
-0.201785638928413391 1.33724105358123779 -0.0604126863181591034
-0.491278618574142456 0.26624143123626709 0.111391082406044006
-0.635080695152282715 0.328604638576507568 -0.0317022986710071564
-0.178352013230323792 1.02155089378356934 0.0193490572273731232
-0.348302692174911499 0.277943730354309082 -0.210824310779571533
-0.411852478981018066 0.214552387595176697 0.0579663738608360291
-0.574393808841705322 0.271253913640975952 0.135087966918945312
