ply
format ascii 1.0
element vertex 717
property float x
property float y
property float z
end_header
-0.399938762187957764 0.103427566587924957 -0.234864741563796997
-0.626487910747528076 -0.280218780040740967 -0.135946616530418396
-0.27427750825881958 -0.294631600379943848 -0.444952666759490967
-0.492952167987823486 0.00408663460984826088 -0.264304012060165405
-0.799905061721801758 -0.479955524206161499 -0.390966534614562988
-0.420942336320877075 -0.0162153970450162888 -0.442739874124526978
-0.697861194610595703 -0.164949521422386169 -0.281288474798202515
-0.778764069080352783 -0.4805278480052948 -0.309874027967453003
-0.714160144329071045 -0.313749611377716064 -0.353584021329879761
-0.839766800403594971 -0.186626285314559937 -0.053827676922082901
-0.929435849189758301 -0.379351228475570679 -0.0962632074952125549
-0.520626068115234375 -0.244535624980926514 -0.477939814329147339
-0.938114464282989502 -0.297883927822113037 -0.142693117260932922
-0.625152647495269775 -0.118459977209568024 -0.254435569047927856
-0.650220394134521484 -0.346165716648101807 -0.12779603898525238
-0.79885488748550415 -0.08693714439868927 -0.0639169514179229736
-0.210362613201141357 -0.123899750411510468 -0.712379217147827148
-0.32481047511100769 0.113338612020015717 -0.405669659376144409
-0.643808543682098389 0.0843237191438674927 -0.0725487172603607178
-0.694069504737854004 0.0137138497084379196 -0.0874929055571556091
-0.573509275913238525 -0.212403282523155212 -0.319812685251235962
-0.302327811717987061 -0.0392068997025489807 -0.72233426570892334
-0.840196669101715088 -0.429396331310272217 -0.220345079898834229
-0.258275657892227173 -0.180008992552757263 -0.575425446033477783
-0.810705721378326416 -0.410462677478790283 -0.0811454057693481445
-0.735124588012695312 -0.0147790815681219101 -0.116742365062236786
-0.189130321145057678 -0.121084943413734436 -0.537840962409973145
-0.670428156852722168 -0.332604825496673584 -0.367650121450424194
-0.838216125965118408 -0.355855315923690796 -0.110104829072952271
-0.505964219570159912 -0.304973512887954712 -0.229498341679573059
-0.281879812479019165 -0.0984547585248947144 -0.358630865812301636
-0.781034350395202637 -0.303101927042007446 -0.427814334630966187
-0.603953778743743896 0.0445168875157833099 -0.00881868600845336914
-0.663282573223114014 0.134120404720306396 0.021652955561876297
-0.308074712753295898 -0.112684860825538635 -0.407342076301574707
-0.660461664199829102 -0.281035810708999634 -0.207570284605026245
-0.624896407127380371 -0.561819911003112793 -0.227587133646011353
-0.646185815334320068 0.0887068286538124084 -0.137492641806602478
-0.39202454686164856 0.0311903133988380432 -0.512856423854827881
-0.528307199478149414 -0.229625552892684937 -0.161697253584861755
-0.500035643577575684 -0.287287056446075439 -0.244000658392906189
-0.793948531150817871 -0.462567567825317383 -0.288417965173721313
-0.550131559371948242 -0.196672961115837097 -0.176402255892753601
-0.40951964259147644 -0.096872963011264801 -0.545729160308837891
-0.729889512062072754 -0.348383098840713501 -0.27625352144241333
-0.390539646148681641 -0.214317798614501953 -0.359975963830947876
-0.621968448162078857 -0.18383730947971344 -0.155089780688285828
-0.338539987802505493 -0.0194448158144950867 -0.603107631206512451
-0.66709524393081665 -0.199709340929985046 -0.141299918293952942
-0.67769622802734375 0.134144559502601624 0.00627274857833981514
-0.488473683595657349 0.0661208704113960266 -0.213291525840759277
-0.677536368370056152 -0.517279386520385742 -0.167354658246040344
-0.24456179141998291 0.155143335461616516 -0.336462944746017456
-0.635477185249328613 -0.264785021543502808 -0.00481940153986215591
-0.635494232177734375 -0.222897797822952271 -0.224758833646774292
-0.221266418695449829 -0.0589892342686653137 -0.514490187168121338
-0.450129836797714233 -0.00386204058304429054 -0.297245800495147705
-0.984926581382751465 -0.568985104560852051 0.211893618106842041
-0.789736628532409668 -0.441769540309906006 -0.245441988110542297
-0.771310627460479736 0.0465835966169834137 -0.0490168556571006775
-0.522011220455169678 0.0541626214981079102 -0.228672623634338379
-0.50612795352935791 -0.28130456805229187 -0.202695891261100769
-0.306966006755828857 -0.0726728141307830811 -0.47255629301071167
-0.861307263374328613 -0.300880134105682373 -0.24248841404914856
-0.532838225364685059 -0.263157963752746582 -0.230137154459953308
-0.580379843711853027 -0.340175330638885498 -0.0856445580720901489
-0.790158212184906006 -0.293142765760421753 -0.482805967330932617
-0.409730762243270874 -0.145011380314826965 -0.558328926563262939
-0.649970412254333496 -0.123877093195915222 -0.205442890524864197
-0.462793171405792236 0.0300596524029970169 -0.521784365177154541
-0.591529548168182373 -0.184712216258049011 -0.338535457849502563
-0.53422701358795166 -0.0134208640083670616 -0.0758951008319854736
-0.363699287176132202 0.0302093792706727982 -0.552427053451538086
-0.687431097030639648 -0.205438032746315002 -0.120578102767467499
-0.50312507152557373 -0.115598522126674652 -0.175378501415252686
-0.196440249681472778 0.0483177900314331055 -0.498275578022003174
-0.751868188381195068 -0.214197695255279541 -0.173480510711669922
-0.241843104362487793 -0.0930533409118652344 -0.582073390483856201
-0.751559972763061523 -0.268987059593200684 -0.285367339849472046
-0.813620030879974365 -0.282467067241668701 -0.442191630601882935
-0.755766689777374268 -0.09518403559923172 -0.111249290406703949
-0.441754013299942017 -0.334218382835388184 -0.418305128812789917
-0.588562846183776855 0.0240431688725948334 -0.184355214238166809
-0.293120086193084717 -0.301181197166442871 -0.569542169570922852
-0.560665607452392578 -0.363879114389419556 -0.116114765405654907
-0.685002684593200684 -0.34527018666267395 -0.227797210216522217
-0.360175579786300659 -0.07814054936170578 -0.300069183111190796
-0.216692686080932617 0.126539081335067749 -0.465193867683410645
-0.456932097673416138 -0.304601728916168213 -0.262862652540206909
-0.888777256011962891 -0.505545377731323242 0.142911136150360107
-0.650364220142364502 -0.378864526748657227 -0.147502362728118896
-0.843204140663146973 -0.213544756174087524 -0.359307795763015747
-0.585411727428436279 0.0933505445718765259 -0.159635722637176514
-0.485543787479400635 -0.204369425773620605 -0.206569820642471313
-0.731117486953735352 0.224271625280380249 -0.159954935312271118
-0.571154177188873291 0.0268026385456323624 -0.0841206759214401245
-0.203543126583099365 0.0211113486438989639 -0.513376832008361816
-0.45040324330329895 -0.0124551374465227127 -0.281477153301239014
-0.570325314998626709 -0.165328189730644226 -0.103450439870357513
-0.258265525102615356 0.0775642096996307373 -0.364594578742980957
-0.668466269969940186 -0.582942545413970947 -0.131485193967819214
-0.431225031614303589 -0.173754796385765076 -0.39820706844329834
-0.802224993705749512 -0.384572654962539673 -0.199766114354133606
-0.650353193283081055 0.0251812562346458435 -0.095494493842124939
-0.744264662265777588 -0.455006182193756104 -0.120130911469459534
-0.492277652025222778 -0.278086751699447632 -0.126481637358665466
-0.551918268203735352 -0.211778432130813599 -0.163831651210784912
-0.779498875141143799 -0.236249148845672607 -0.289500117301940918
-0.836341798305511475 -0.304572314023971558 -0.203636065125465393
-0.400078743696212769 0.0116596464067697525 -0.500401556491851807
-0.379585176706314087 0.00130974769126623869 -0.546857714653015137
-0.681849956512451172 -0.526863217353820801 -0.185304358601570129
-0.806197941303253174 -0.241431936621665955 -0.506555259227752686
-0.826519012451171875 -0.241546601057052612 -0.347521096467971802
-0.444973558187484741 0.0911969989538192749 -0.268477767705917358
-0.304289132356643677 -0.334578931331634521 -0.473892152309417725
-0.170259684324264526 -0.228845730423927307 -0.627732396125793457
-0.477237999439239502 -0.182816490530967712 -0.324178874492645264
-0.426062911748886108 -0.285388410091400146 -0.311853528022766113
-0.403728187084197998 -0.0534037984907627106 -0.192351058125495911
-0.647822439670562744 -0.469064265489578247 -0.20415690541267395
-0.26482999324798584 -0.0961190387606620789 -0.440560042858123779
-0.604736030101776123 -0.286870241165161133 -0.261645615100860596
-0.311298012733459473 -0.307176977396011353 -0.572447001934051514
-0.730888128280639648 -0.256276220083236694 -0.0649785548448562622
-0.723476588726043701 0.144480586051940918 -0.150281280279159546
-0.65385967493057251 -0.251818150281906128 -0.277966052293777466
-0.851364076137542725 -0.412099391222000122 -0.342288732528686523
-0.535424649715423584 -0.142563119530677795 -0.443057000637054443
-0.656928956508636475 -0.229872733354568481 -0.44548383355140686
-0.155825778841972351 0.05258961021900177 -0.699914216995239258
-0.321408003568649292 0.290308713912963867 -0.358213275671005249
-0.411597698926925659 -0.242943540215492249 -0.390910506248474121
-0.728895366191864014 -0.22583433985710144 -0.148200735449790955
-0.39606088399887085 -0.146059423685073853 -0.468038856983184814
-0.784588277339935303 -0.473434865474700928 -0.15210878849029541
-0.702842533588409424 -0.364729046821594238 -0.086607024073600769
-0.749009847640991211 -0.228147849440574646 -0.209940254688262939
-0.88867795467376709 -0.269640058279037476 -0.143270105123519897
-0.819713771343231201 -0.368328183889389038 -0.171064242720603943
-0.682438492774963379 0.211514532566070557 0.0459277406334877014
-0.484797209501266479 -0.198163732886314392 -0.186455413699150085
-0.697616994380950928 0.0731920301914215088 -0.257824301719665527
-0.356945812702178955 -0.133885696530342102 -0.379298657178878784
-0.300321251153945923 -0.136693492531776428 -0.503791987895965576
-0.667574226856231689 -0.409752190113067627 -0.146180823445320129
-0.515188872814178467 -0.0929715409874916077 -0.11162228137254715
-0.0579920373857021332 -0.0971620306372642517 -0.707143187522888184
-0.548093616962432861 -0.220730870962142944 -0.192800760269165039
-0.605497539043426514 -0.0792586132884025574 -0.247544214129447937
-0.686960041522979736 -0.458853006362915039 -0.0429114624857902527
-0.333892613649368286 -0.00436964724212884903 -0.550515949726104736
-0.145046666264533997 -0.106415465474128723 -0.511796474456787109
-0.3829764723777771 0.0525229647755622864 -0.269699603319168091
-0.629619359970092773 -0.237574100494384766 -0.0812376067042350769
-0.446327865123748779 -0.217997565865516663 -0.594988763332366943
-0.28935590386390686 -0.193825379014015198 -0.447340160608291626
-0.780662119388580322 -0.389113306999206543 -0.354616165161132812
-0.867330789566040039 -0.322548747062683105 -0.206697553396224976
-0.248481839895248413 -0.024622628465294838 -0.576466977596282959
-0.398981332778930664 -0.143247321248054504 -0.411037802696228027
-0.281909286975860596 0.199692815542221069 -0.331392645835876465
-0.647985160350799561 -0.247280359268188477 -0.150918781757354736
-0.630054235458374023 0.190457254648208618 -0.0230013001710176468
-0.847702741622924805 -0.344567477703094482 -0.376235932111740112
-0.504089772701263428 -0.350722402334213257 -0.289010316133499146
-0.417612642049789429 0.0135890981182456017 -0.291611611843109131
-0.760043203830718994 -0.378600507974624634 -0.13501131534576416
-0.703107833862304688 -0.327592670917510986 -0.0416313186287879944
-0.56502300500869751 -0.197864025831222534 -0.205271810293197632
-0.461479902267456055 -0.132604345679283142 -0.376186788082122803
-0.650595128536224365 -0.0580224879086017609 -0.181956425309181213
-0.253047436475753784 -0.189141526818275452 -0.382346808910369873
-0.439708888530731201 0.023133469745516777 -0.250687628984451294
-0.30688825249671936 -0.0739972293376922607 -0.637973368167877197
-0.380109459161758423 -0.0833892226219177246 -0.325427889823913574
-0.702858626842498779 -0.465725630521774292 -0.119963914155960083
-0.621102869510650635 -0.264771401882171631 -0.117895536124706268
-0.474717497825622559 0.0329532474279403687 -0.505271792411804199
-0.767690181732177734 -0.351650476455688477 -0.39074176549911499
-0.834206819534301758 -0.235968917608261108 -0.254491478204727173
-1.14636862277984619 -0.69530034065246582 0.325730830430984497
-0.249662980437278748 -0.102823860943317413 -0.673060357570648193
-0.844614505767822266 -0.325788587331771851 -0.337866634130477905
-0.220485225319862366 0.075733281672000885 -0.469433426856994629
-0.460776448249816895 -0.0718747898936271667 -0.456609010696411133
-0.899696707725524902 -0.391141384840011597 -0.102077402174472809
-0.735681235790252686 -0.18150465190410614 -0.0835153162479400635
-0.58295363187789917 -0.1059761643409729 -0.137142375111579895
-0.775880396366119385 -0.344093531370162964 -0.0283452179282903671
-0.765785515308380127 -0.380579501390457153 -0.160691186785697937
-0.61632150411605835 -0.187490001320838928 -0.208811402320861816
-0.356651842594146729 0.0236331745982170105 -0.336427867412567139
-0.756127715110778809 -0.282165557146072388 -0.0343712642788887024
-0.375030636787414551 0.153472244739532471 -0.286178290843963623
-0.300332039594650269 0.254876405000686646 -0.367740124464035034
-0.130222156643867493 0.0891421064734458923 -0.546210289001464844
-0.428971379995346069 -0.0343862436711788177 -0.342850953340530396
-0.800237774848937988 0.15555940568447113 -0.089557349681854248
-0.624185919761657715 -0.373415172100067139 -0.092787623405456543
-0.430587738752365112 -0.191372111439704895 -0.505636632442474365
-0.429739207029342651 -0.03107457235455513 -0.227314576506614685
-0.670661091804504395 -0.417005956172943115 -0.057711869478225708
-0.635972142219543457 -0.0834328308701515198 -0.287110120058059692
-0.687841176986694336 -0.389679491519927979 -0.288035541772842407
-0.616220653057098389 -0.273201584815979004 -0.0792020708322525024
-0.396804511547088623 0.0974710807204246521 -0.268767982721328735
-0.538846909999847412 -0.207755252718925476 -0.130218878388404846
-0.391493082046508789 0.0739170536398887634 -0.177791967988014221
-0.726105570793151855 -0.209272608160972595 -0.380562841892242432
-0.757767379283905029 -0.350045710802078247 -0.309690564870834351
-0.75729137659072876 -0.31383940577507019 -0.138645023107528687
-0.885607540607452393 -0.255358487367630005 -0.314309209585189819
-0.383915573358535767 0.0424780547618865967 -0.417482137680053711
-0.666505277156829834 -0.353337556123733521 -0.194287762045860291
-0.305251479148864746 0.135507822036743164 -0.370942860841751099
-0.400454729795455933 -0.131801009178161621 -0.3805103600025177
-0.236096501350402832 -0.0794256925582885742 -0.518000960350036621
-0.577756106853485107 -0.248545899987220764 -0.24690932035446167
-0.728532791137695312 -0.430733710527420044 -0.389823615550994873
-0.422036886215209961 -0.0232383720576763153 -0.445816308259963989
-0.338166922330856323 -0.308385193347930908 -0.470990687608718872
-0.400170207023620605 -0.0878610536456108093 -0.250177890062332153
-0.782770216464996338 -0.218499109148979187 -0.330288499593734741
-0.238922685384750366 -0.0437735877931118011 -0.381221234798431396
-0.658307433128356934 -0.247663646936416626 -0.0681439340114593506
-0.247334733605384827 -0.0963277742266654968 -0.540206074714660645
-0.165891572833061218 -0.0168377123773097992 -0.653055727481842041
-0.434682637453079224 -0.21166306734085083 -0.278959184885025024
-0.769873440265655518 -0.369903743267059326 -0.284448713064193726
-0.680411338806152344 -0.453240305185317993 -0.433548212051391602
-0.706023871898651123 -0.238692954182624817 -0.083165287971496582
-0.192781716585159302 0.209506168961524963 -0.423822462558746338
-0.693664610385894775 -0.419362246990203857 -0.382195860147476196
-0.282939046621322632 -0.15289345383644104 -0.459168046712875366
-0.587750077247619629 0.206437423825263977 -0.0624654516577720642
-0.6925811767578125 -0.385726273059844971 -0.430270910263061523
-0.754980325698852539 -0.144255176186561584 -0.360732555389404297
-0.396107852458953857 -0.226792126893997192 -0.465266972780227661
-0.314942538738250732 -0.195954605937004089 -0.407994717359542847
-0.352222323417663574 -0.00614290311932563782 -0.303075820207595825
-0.38560137152671814 0.0150817176327109337 -0.390790611505508423
-0.430692672729492188 0.0341085754334926605 -0.195489287376403809
-0.486360341310501099 -0.190481275320053101 -0.129008382558822632
-0.287211179733276367 -0.140627026557922363 -0.539883911609649658
-0.441700965166091919 -0.281912803649902344 -0.293844044208526611
-0.934520542621612549 -0.336691737174987793 -0.07204456627368927
-0.731426835060119629 -0.412861764430999756 -0.106766924262046814
-0.984765112400054932 -0.274969637393951416 -0.0943872034549713135
-0.651308953762054443 -0.0526298396289348602 -0.126755297183990479
-0.748983085155487061 -0.288286268711090088 -0.352409183979034424
-0.797780036926269531 -0.220047101378440857 -0.0618741400539875031
-0.446846842765808105 0.10970509797334671 -0.38118937611579895
-0.485306918621063232 -0.316157311201095581 -0.266524076461791992
-0.723749518394470215 0.0564756803214550018 -0.0541534051299095154
-0.662335872650146484 -0.205540195107460022 -0.258452087640762329
-0.168952926993370056 0.103397160768508911 -0.415373474359512329
-0.759209692478179932 -0.336565494537353516 -0.324591994285583496
-0.602674484252929688 -0.0152068100869655609 -0.249519392848014832
-0.273178070783615112 -0.0713602453470230103 -0.529553771018981934
-0.75186622142791748 -0.202723175287246704 -0.274584859609603882
-0.737464725971221924 -0.254806458950042725 -0.317652851343154907
-0.348676115274429321 -0.0460488088428974152 -0.251812100410461426
-0.516881346702575684 -0.233292475342750549 -0.553938150405883789
-0.290425896644592285 -0.0948749780654907227 -0.410224229097366333
-0.733303844928741455 -0.275261014699935913 -0.364163130521774292
-0.839913249015808105 -0.338837981224060059 -0.0831335410475730896
-0.570329248905181885 -0.433013200759887695 -0.177628457546234131
-0.558529496192932129 -0.353140473365783691 -0.363053888082504272
-0.349357008934020996 -0.276575356721878052 -0.372115999460220337
-0.758781909942626953 -0.337996184825897217 -0.360007941722869873
-1.00798487663269043 -0.601664304733276367 0.22425563633441925
-0.497625976800918579 -0.189654454588890076 -0.203172221779823303
-0.242179170250892639 -0.107610829174518585 -0.38206106424331665
-0.226571574807167053 0.0579220801591873169 -0.557580471038818359
-0.599621891975402832 -0.378425449132919312 -0.235466539859771729
-0.194201186299324036 -0.234815925359725952 -0.67231982946395874
-0.402615368366241455 -0.138012722134590149 -0.360993742942810059
-0.559576630592346191 0.0945678427815437317 -0.149346768856048584
-0.770416796207427979 -0.271409332752227783 -0.277211666107177734
-0.542351484298706055 -0.216342434287071228 -0.584260702133178711
-0.897073686122894287 -0.373818576335906982 -0.136711165308952332
-0.368501484394073486 -0.140013158321380615 -0.436852008104324341
-0.701411545276641846 -0.311686724424362183 -0.564557731151580811
-0.353161484003067017 -0.207345083355903625 -0.367631584405899048
-1.12220966815948486 -0.668401896953582764 0.335464596748352051
-0.882897794246673584 -0.287432104349136353 -0.0660606101155281067
-0.786040425300598145 -0.456496179103851318 -0.127228900790214539
-0.265189439058303833 0.0330803319811820984 -0.327693581581115723
-0.669112563133239746 -0.379456609487533569 -0.0914603322744369507
-0.402160197496414185 -0.0567451752722263336 -0.330964624881744385
-0.278962701559066772 -0.264865577220916748 -0.603212475776672363
-0.606684863567352295 -0.299971401691436768 -0.0887138247489929199
-0.751722395420074463 -0.198798716068267822 -0.0621335245668888092
-0.756964504718780518 -0.173769146203994751 -0.027978990226984024
-0.695364952087402344 -0.411348193883895874 -0.174529135227203369
-0.775758743286132812 -0.217238560318946838 -0.034803878515958786
-0.682790696620941162 -0.17235901951789856 -0.031290937215089798
-0.624476313591003418 -0.260666936635971069 -0.2564258873462677
-0.478146225214004517 -0.201579466462135315 -0.46355786919593811
-0.344322681427001953 0.0652118399739265442 -0.440078943967819214
-0.820001721382141113 -0.352233916521072388 -0.0801406651735305786
-0.623282670974731445 -0.181854084134101868 -0.149431034922599792
-0.847484886646270752 -0.288433879613876343 -0.0689878836274147034
-0.797799646854400635 0.0451864711940288544 -0.0758138075470924377
-0.233130842447280884 0.214550718665122986 -0.396389991044998169
-0.543743908405303955 -0.0779307261109352112 -0.231257408857345581
-0.57518082857131958 -0.391462028026580811 -0.167711466550827026
-0.605852484703063965 -0.0164044499397277832 -0.240114465355873108
-0.56903386116027832 0.148470833897590637 -0.174928396940231323
-0.651210367679595947 -0.319360226392745972 -0.0283967219293117523
-0.506724894046783447 -0.293892800807952881 -0.175333753228187561
-0.665717482566833496 -0.392733722925186157 -0.238201752305030823
-0.336006999015808105 -0.136253565549850464 -0.596634924411773682
-0.389734059572219849 0.0663320645689964294 -0.429753392934799194
-0.829527020454406738 -0.460704565048217773 -0.144530460238456726
-0.183093339204788208 -0.0735923349857330322 -0.593353867530822754
-0.764438033103942871 -0.477109044790267944 -0.284315049648284912
-0.699082911014556885 -0.161262497305870056 -0.471213728189468384
-0.449034154415130615 -0.160752475261688232 -0.431646168231964111
-0.426291376352310181 0.111052952706813812 -0.272395521402359009
-0.477190583944320679 -0.053322918713092804 -0.404975652694702148
-0.411731243133544922 0.199885457754135132 -0.391799420118331909
-0.657927572727203369 0.154121652245521545 -0.186234652996063232
-0.531943857669830322 -0.312554806470870972 -0.252270519733428955
-0.110711991786956787 -0.119725994765758514 -0.696567237377166748
-0.221851184964179993 -0.199783220887184143 -0.616417884826660156
-0.286701798439025879 -0.108621299266815186 -0.473141640424728394
-0.624475419521331787 -0.0168143399059772491 -0.313983380794525146
-0.221744522452354431 0.27727857232093811 -0.39615708589553833
-0.686406850814819336 -0.321206808090209961 -0.38068920373916626
-0.731486141681671143 -0.188527151942253113 0.000469236751087009907
-0.735736310482025146 -0.149176031351089478 -0.332436591386795044
-0.36059078574180603 -0.156015098094940186 -0.373327285051345825
-0.482777208089828491 -0.176373094320297241 -0.32320016622543335
-0.687302649021148682 -0.442101031541824341 -0.0179300978779792786
-0.792477548122406006 -0.278043091297149658 -0.349490046501159668
-0.886474728584289551 -0.487977653741836548 0.147512614727020264
-0.749186217784881592 -0.357717901468276978 -0.333119988441467285
-0.932956039905548096 -0.515084743499755859 0.159277394413948059
-0.294407039880752563 -0.283792734146118164 -0.36073639988899231
-0.391624867916107178 -0.306878209114074707 -0.380371302366256714
-0.821292400360107422 -0.121671341359615326 -0.0660929456353187561
-0.793634235858917236 -0.417948067188262939 -0.355306118726730347
-0.682835996150970459 -0.206066220998764038 -0.049633171409368515
-0.53898698091506958 0.0939505249261856079 -0.24800504744052887
-0.622641503810882568 -0.250089794397354126 -0.119753822684288025
-0.188918367028236389 0.0354418531060218811 -0.65834808349609375
-0.787418723106384277 -0.286083072423934937 -0.00190375116653740406
-0.245736271142959595 0.243146926164627075 -0.40293353796005249
-0.553383708000183105 -0.0443595685064792633 -0.112997964024543762
-0.536367714405059814 0.0179051943123340607 -0.110396407544612885
-0.716883540153503418 -0.422088533639907837 -0.216584742069244385
-0.158128723502159119 -0.153846338391304016 -0.696241915225982666
-0.366443902254104614 -0.0236541349440813065 -0.313380271196365356
-0.777889847755432129 -0.338614225387573242 -0.104962892830371857
-0.881453096866607666 -0.386533260345458984 -0.448090136051177979
-0.26138797402381897 -0.0359075739979743958 -0.355780154466629028
-0.678477287292480469 -0.470363378524780273 -0.0819956958293914795
-0.36887773871421814 -0.315004616975784302 -0.31848299503326416
-0.456284135580062866 -0.12648320198059082 -0.464807599782943726
-0.576798379421234131 -0.169689372181892395 -0.370482861995697021
-0.640359640121459961 -0.332071065902709961 -0.0103858066722750664
-0.457215100526809692 -0.300944745540618896 -0.211317390203475952
-0.71666717529296875 -0.134751617908477783 -0.131237372756004333
-0.138574227690696716 0.107969917356967926 -0.457854419946670532
-0.670352816581726074 0.0511826947331428528 -0.25747370719909668
-0.613206923007965088 -0.336157411336898804 -0.149147942662239075
-0.623841524124145508 0.0231691952794790268 -0.0487734377384185791
-0.767706692218780518 -0.0706098750233650208 -0.135225966572761536
-0.59914398193359375 -0.36055406928062439 -0.0684744492173194885
-0.701296389102935791 0.168796658515930176 -0.168602824211120605
-0.34967350959777832 -0.0850289314985275269 -0.547805488109588623
-0.419009894132614136 -0.198594257235527039 -0.391508221626281738
-0.231607109308242798 0.0852766036987304688 -0.5958138108253479
-0.421384721994400024 -0.2962760329246521 -0.395326703786849976
-0.808305799961090088 -0.202878788113594055 -0.0628172606229782104
-0.26559603214263916 -0.0134465023875236511 -0.456323295831680298
-0.497873812913894653 0.0420698709785938263 -0.304160922765731812
-0.312750250101089478 0.0708304718136787415 -0.443676233291625977
-0.581166207790374756 -0.360462367534637451 -0.16991811990737915
-0.390764772891998291 -0.00144261098466813564 -0.562454760074615479
-0.886601507663726807 -0.214486002922058105 -0.078751005232334137
-0.679402410984039307 -0.384578078985214233 -0.131634160876274109
-0.419880568981170654 -0.334752291440963745 -0.40480571985244751
-0.52439349889755249 -0.218690559267997742 -0.2405690997838974
-0.674661099910736084 -0.359457045793533325 -0.0370248742401599884
-0.567339897155761719 0.109721742570400238 -0.1768932044506073
-0.220890611410140991 -0.241677731275558472 -0.412466377019882202
-0.66570281982421875 -0.323868095874786377 -0.0495871342718601227
-0.261987119913101196 -0.130490690469741821 -0.578470468521118164
-0.734239757061004639 -0.354460597038269043 -0.297296971082687378
-0.682373762130737305 -0.125265493988990784 -0.18445703387260437
-0.51523059606552124 -0.247771784663200378 -0.270821690559387207
-0.702741444110870361 -0.414641469717025757 -0.184031292796134949
-0.65372997522354126 -0.0905222594738006592 -0.0810780227184295654
-0.2220192551612854 0.168976962566375732 -0.373285412788391113
-0.553467690944671631 -0.0721528530120849609 -0.0790466219186782837
-0.512700319290161133 -0.491578847169876099 -0.226464763283729553
-0.706663906574249268 -0.236016154289245605 -0.0823854431509971619
-0.713989913463592529 -0.290514081716537476 -0.0800168439745903015
-0.714133501052856445 -0.189775288105010986 0.0543922595679759979
-0.741867184638977051 -0.339464396238327026 -0.479798316955566406
-0.176317721605300903 0.21986176073551178 -0.414471358060836792
-0.43870893120765686 -0.240930557250976562 -0.217108383774757385
-0.73865509033203125 -0.423625171184539795 -0.0937670692801475525
-0.453140377998352051 -0.106174789369106293 -0.169345095753669739
-0.545423746109008789 -0.0453698672354221344 -0.265004098415374756
-0.297065019607543945 0.00352671695873141289 -0.718257486820220947
-0.25359073281288147 -0.10145287960767746 -0.586903393268585205
-0.695335149765014648 -0.478590577840805054 -0.146411731839179993
-0.29550701379776001 -0.261217355728149414 -0.409295141696929932
-0.37747347354888916 -0.100117430090904236 -0.408450126647949219
-0.695989608764648438 -0.497801989316940308 -0.0576136447489261627
-0.439865589141845703 0.0477484874427318573 -0.429765075445175171
-0.61341404914855957 -0.491771340370178223 -0.0630293264985084534
-0.643943905830383301 -0.183716833591461182 -0.0883788838982582092
-0.441312432289123535 0.0172122549265623093 -0.412076175212860107
-0.780679583549499512 -0.0388066284358501434 -0.112710744142532349
-0.169656023383140564 0.0647385492920875549 -0.468984901905059814
-0.670277953147888184 -0.116179376840591431 -0.145424380898475647
-0.387076020240783691 -0.0461106747388839722 -0.233276456594467163
-0.340852469205856323 -0.16245916485786438 -0.65385514497756958
-0.550178825855255127 -0.325522482395172119 -0.26644742488861084
-0.810728371143341064 -0.237591952085494995 -0.480530321598052979
-1.07585620880126953 -0.662545323371887207 0.286436378955841064
-0.756254136562347412 -0.188699066638946533 -0.329628705978393555
-0.694031357765197754 -0.106260389089584351 0.058598637580871582
-0.772958755493164062 -0.385873258113861084 -0.214778050780296326
-0.388557791709899902 -0.179101631045341492 -0.423610597848892212
-0.31684565544128418 -0.0509915128350257874 -0.323378384113311768
-0.370205342769622803 -0.0279034823179244995 -0.26839900016784668
-0.463056951761245728 -0.233908772468566895 -0.226961508393287659
-0.584862351417541504 -0.217284455895423889 -0.0732430368661880493
-0.598779380321502686 -0.121195182204246521 -0.144420862197875977
-0.542659461498260498 -0.148535236716270447 -0.183864787220954895
-0.732225239276885986 -0.21374143660068512 -0.318046271800994873
-0.930381059646606445 -0.251812368631362915 -0.197677642107009888
-0.240650609135627747 -0.11804768443107605 -0.556814014911651611
-0.491707444190979004 -0.365321069955825806 -0.318202584981918335
-0.367815971374511719 -0.216004267334938049 -0.407924264669418335
-0.204030483961105347 0.075776323676109314 -0.539717674255371094
-0.961671352386474609 -0.482665449380874634 -0.254078209400177002
-0.357616573572158813 -0.22132420539855957 -0.449859380722045898
-0.694054663181304932 -0.122945547103881836 -0.0359140783548355103
-0.666855037212371826 -0.436689317226409912 -0.167774856090545654
-0.622812032699584961 -0.264136582612991333 -0.23083147406578064
-0.505197763442993164 -0.261879801750183105 -0.287701725959777832
-0.705416679382324219 -0.149853065609931946 -0.10875653475522995
-0.628815054893493652 -0.43819117546081543 -0.241609588265419006
-0.552464306354522705 0.0894970670342445374 -0.0862914696335792542
-0.525551319122314453 0.0914129912853240967 -0.272412121295928955
-0.512596011161804199 -0.219220280647277832 -0.36944735050201416
-0.689684510231018066 -0.146277323365211487 0.0467424057424068451
-0.640891671180725098 0.0702956318855285645 -0.0167280547320842743
-0.45553821325302124 -0.171892523765563965 -0.449706763029098511
-0.567354977130889893 -0.157673180103302002 -0.24609905481338501
-0.236344292759895325 -0.0653192624449729919 -0.480319291353225708
-0.596861422061920166 -0.39232364296913147 -0.133990421891212463
-0.759645462036132812 -0.407257765531539917 -0.337461560964584351
-0.915747642517089844 -0.298087745904922485 -0.171523690223693848
-0.309489250183105469 -0.0313772410154342651 -0.628393948078155518
-0.799892663955688477 -0.129540324211120605 -0.0772558748722076416
-0.342649281024932861 0.0180074144154787064 -0.260999381542205811
-0.687841415405273438 -0.281754791736602783 -0.258368879556655884
-0.66059643030166626 -0.0168787501752376556 -0.196592867374420166
-0.455178201198577881 0.106192640960216522 -0.275023460388183594
-0.186313658952713013 0.13335023820400238 -0.591825723648071289
-0.189306825399398804 -0.18619808554649353 -0.446288526058197021
-0.622676491737365723 -0.248452484607696533 -0.276259571313858032
-0.535623908042907715 -0.249227777123451233 -0.255502462387084961
-0.684303820133209229 -0.198270216584205627 0.0131340594962239265
-0.689340353012084961 -0.169237300753593445 -0.30129733681678772
-0.865262091159820557 -0.444676131010055542 -0.370544791221618652
-0.52585303783416748 -0.205527544021606445 -0.181986331939697266
-0.213839933276176453 0.0117138540372252464 -0.599642097949981689
-0.456775039434432983 -0.131183654069900513 -0.23009335994720459
-0.595727086067199707 -0.239633232355117798 -0.217355251312255859
-0.961303889751434326 -0.19668211042881012 -0.366465091705322266
-0.288378328084945679 0.159481927752494812 -0.343910127878189087
-0.454210758209228516 -0.24079345166683197 -0.378264874219894409
-0.611368834972381592 0.0807935148477554321 -0.109058111906051636
-0.663245201110839844 -0.295619159936904907 -0.116727553308010101
-0.605841398239135742 -0.397887259721755981 -0.304096698760986328
-0.593894064426422119 -0.179615259170532227 -0.386777192354202271
-0.327437281608581543 0.1496734619140625 -0.342049658298492432
-0.67030864953994751 0.164902523159980774 -0.0636247619986534119
-0.565227329730987549 -0.0420679599046707153 -0.329761415719985962
-0.340049594640731812 0.00346001400612294674 -0.310684382915496826
-0.421640783548355103 -0.232681646943092346 -0.37901797890663147
-0.569896697998046875 -0.166043192148208618 -0.195199549198150635
-0.620554924011230469 -0.265396922826766968 -0.300352096557617188
-0.710276126861572266 -0.222546011209487915 -0.336340934038162231
-0.439392745494842529 -0.199903890490531921 -0.552695870399475098
-0.790980637073516846 -0.311344325542449951 -0.311415255069732666
-0.241797357797622681 0.111070767045021057 -0.363104522228240967
-0.659318387508392334 0.10015549510717392 0.0482458658516407013
-0.605449140071868896 0.0579558275640010834 -0.138306602835655212
-0.720789730548858643 -0.194858953356742859 -0.21011701226234436
-0.418538719415664673 -0.0422876663506031036 -0.292412638664245605
-0.543333232402801514 -0.237087979912757874 -0.237309202551841736
-0.272324234247207642 -0.0824073776602745056 -0.394681394100189209
-0.346347421407699585 -0.258725434541702271 -0.52639085054397583
-0.637591421604156494 0.121018283069133759 -0.160256892442703247
-0.624025464057922363 -0.179290667176246643 -0.185069695115089417
-0.568386554718017578 0.131970018148422241 -0.212658092379570007
-0.741374373435974121 -0.247895970940589905 -0.0227939225733280182
-0.649238288402557373 -0.125359833240509033 -0.0611475035548210144
-0.660662949085235596 -0.395235747098922729 0.0098679056391119957
-0.581744670867919922 -0.126141086220741272 -0.183282718062400818
-0.792358636856079102 -0.342579454183578491 -0.357538789510726929
-0.708154439926147461 -0.195763930678367615 -0.281242460012435913
-0.199883937835693359 -0.0295740086585283279 -0.486051082611083984
-0.42591392993927002 -0.39630967378616333 -0.415474802255630493
-0.625719785690307617 -0.0181995872408151627 -0.261644333600997925
-0.946060419082641602 -0.261425822973251343 -0.192885205149650574
-0.76234513521194458 -0.320028066635131836 -0.503255307674407959
-0.650387585163116455 -0.249690711498260498 -0.12357763946056366
-0.655505001544952393 -0.324290096759796143 -0.201104044914245605
-0.722668826580047607 -0.180582329630851746 -0.260792464017868042
-0.653228938579559326 -0.327184975147247314 -0.271248042583465576
-1.02339303493499756 -0.602112054824829102 0.246709302067756653
-0.154704943299293518 0.0122617157176136971 -0.692543089389801025
-0.377613931894302368 -0.068675599992275238 -0.4152812659740448
-0.286173969507217407 0.0343192853033542633 -0.30787011981010437
-0.799081027507781982 -0.453813135623931885 -0.31326708197593689
-0.257430493831634521 -0.0799838677048683167 -0.426192998886108398
-0.909790515899658203 -0.475817024707794189 -0.220360279083251953
-0.73750382661819458 -0.403400659561157227 -0.361571013927459717
-0.557083427906036377 -0.212571397423744202 -0.274454355239868164
-0.74476778507232666 -0.333777934312820435 -0.28438219428062439
-0.497238814830780029 -0.176443800330162048 -0.47094416618347168
-0.525716781616210938 -0.265143781900405884 -0.173455461859703064
-0.505679190158843994 0.177601039409637451 -0.1376543790102005
-0.521303236484527588 -0.275545775890350342 -0.137909561395645142
-0.469864130020141602 -0.363189846277236938 -0.431540757417678833
-0.760435163974761963 -0.236890628933906555 -0.0379734188318252563
-0.820966064929962158 0.047156941145658493 -0.0767194405198097229
-0.284144759178161621 -0.138312160968780518 -0.442259937524795532
-0.768637716770172119 -0.371987432241439819 -0.0583247169852256775
-0.641398072242736816 -0.130650594830513 -0.162758514285087585
-0.552481174468994141 -0.421650528907775879 -0.096705220639705658
-0.629747688770294189 0.176170766353607178 -0.215299233794212341
-0.547316253185272217 -0.195822268724441528 -0.204939514398574829
-0.757824361324310303 -0.203890383243560791 -0.0035767718218266964
-0.241640940308570862 -0.0671152099967002869 -0.569375276565551758
-0.232107222080230713 -0.0913172438740730286 -0.721700966358184814
-0.293927997350692749 -0.0867284983396530151 -0.65636146068572998
-0.833584785461425781 -0.298207968473434448 -0.446200788021087646
-0.22151869535446167 -0.218020737171173096 -0.450667113065719604
-0.563064217567443848 -0.14809882640838623 -0.286720395088195801
-0.277814745903015137 -0.0140535356476902962 -0.355595827102661133
-0.421371757984161377 -0.0259904004633426666 -0.223547235131263733
-0.202709540724754333 -0.0956927090883255005 -0.451557636260986328
-0.34264826774597168 0.0146233132109045982 -0.61734849214553833
-0.690221488475799561 -0.19329400360584259 -0.110573306679725647
-0.794318854808807373 -0.321513056755065918 -0.0820693373680114746
-0.549367666244506836 -0.199370220303535461 -0.420699983835220337
-0.620521664619445801 0.0547684617340564728 -0.136885195970535278
-0.798085629940032959 -0.328213900327682495 -0.025617208331823349
-0.290463626384735107 0.0810180976986885071 -0.346963196992874146
-0.735516548156738281 -0.337463647127151489 -0.0924911201000213623
-0.586991250514984131 -0.402097076177597046 -0.0748471468687057495
-0.634566783905029297 -0.378760218620300293 -0.0607914626598358154
-0.519500613212585449 -0.180814415216445923 -0.203134074807167053
-0.767908811569213867 -0.259078741073608398 -0.0727355405688285828
-0.771710991859436035 -0.259422957897186279 -0.151282981038093567
-0.807771801948547363 -0.499785929918289185 -0.182084366679191589
-0.56729811429977417 -0.156029418110847473 -0.183439835906028748
-0.864845931529998779 -0.332183092832565308 -0.179796531796455383
-0.767523407936096191 -0.143652439117431641 0.0292246788740158081
-0.648376166820526123 -0.283614128828048706 -0.270828753709793091
-0.247964709997177124 0.133564189076423645 -0.416939318180084229
-0.762952923774719238 -0.320108652114868164 -0.396124124526977539
-0.798958241939544678 -0.287446051836013794 -0.19335879385471344
-0.824434638023376465 -0.455215185880661011 -0.372275054454803467
-0.330032646656036377 -0.257018536329269409 -0.503440439701080322
-0.961565911769866943 -0.265597075223922729 -0.059675220400094986
-0.320995301008224487 -0.0562181025743484497 -0.593765497207641602
-0.426677972078323364 -0.175456106662750244 -0.57741236686706543
-0.274714767932891846 -0.284144133329391479 -0.517681479454040527
-0.483965396881103516 0.0388249270617961884 -0.465266883373260498
-0.576972365379333496 -0.25495639443397522 -0.116157218813896179
-0.57886660099029541 -0.292579442262649536 -0.318974852561950684
-0.669273018836975098 -0.528953015804290771 -0.0856742188334465027
-0.75577777624130249 -0.218693256378173828 -0.308207124471664429
-0.588778078556060791 0.157488822937011719 -0.0749787315726280212
-0.486858993768692017 -0.138146176934242249 -0.359323173761367798
-0.392072021961212158 -0.0637111663818359375 -0.35628664493560791
-0.21471540629863739 0.254710346460342407 -0.415414959192276001
-0.647150814533233643 0.051372818648815155 0.004925495944917202
-0.337417840957641602 -0.168357312679290771 -0.363211095333099365
-0.521486580371856689 -0.215066626667976379 -0.395263701677322388
-0.514198184013366699 -0.108480632305145264 -0.431334912776947021
-0.39299657940864563 -0.175902068614959717 -0.469877421855926514
-0.715067565441131592 -0.244498968124389648 -0.390864521265029907
-0.598128855228424072 0.00384752219542860985 -0.201705306768417358
-0.396553575992584229 -0.168337240815162659 -0.402715355157852173
-0.647151052951812744 -0.10022590309381485 -0.189683705568313599
-0.375637680292129517 -0.201227098703384399 -0.437462449073791504
-0.252035975456237793 -0.216521084308624268 -0.582298636436462402
-0.53059464693069458 -0.176190808415412903 -0.544158935546875
-0.759134590625762939 -0.446732163429260254 -0.20755283534526825
-0.182327285408973694 0.183549016714096069 -0.395342499017715454
-0.765300393104553223 -0.353165894746780396 -0.245714873075485229
-0.349765241146087646 0.00594391068443655968 -0.264744549989700317
-0.239961490035057068 0.148258954286575317 -0.477477520704269409
-0.322483867406845093 -0.289279431104660034 -0.665707290172576904
-0.831049621105194092 -0.478486418724060059 0.102119013667106628
-0.482443779706954956 -0.258887737989425659 -0.177970439195632935
-0.438761711120605469 -0.118977181613445282 -0.292528510093688965
-0.460287749767303467 -0.178212389349937439 -0.200002968311309814
-0.675101995468139648 -0.410350650548934937 -0.0858292430639266968
-0.913419783115386963 -0.481142163276672363 -0.211814329028129578
-0.816621601581573486 -0.330641895532608032 -0.0822889432311058044
-0.349259227514266968 -0.227874636650085449 -0.502110838890075684
-0.853154957294464111 -0.480069279670715332 -0.126186728477478027
-0.597914516925811768 -0.208012416958808899 -0.2016458660364151
-0.371541410684585571 0.0430925488471984863 -0.286480873823165894
-0.194458842277526855 0.0697575286030769348 -0.562518060207366943
-0.809527039527893066 -0.357509434223175049 -0.403827041387557983
-0.739479482173919678 -0.479386746883392334 -0.155474662780761719
-0.593037962913513184 -0.101847641170024872 -0.187242388725280762
-0.451890707015991211 -0.225969046354293823 -0.625538766384124756
-0.251360952854156494 -0.308211743831634521 -0.581723213195800781
-0.674596130847930908 -0.312734603881835938 -0.136097446084022522
-0.721709489822387695 -0.163919821381568909 -0.269582659006118774
-0.291464358568191528 0.0635350421071052551 -0.351673930883407593
-0.56522524356842041 -0.440640568733215332 -0.205717086791992188
-0.44784390926361084 -0.233152285218238831 -0.284079492092132568
-0.656283438205718994 0.0267534162849187851 -0.0507147014141082764
-0.613477885723114014 -0.131402835249900818 -0.21421012282371521
-0.726263940334320068 -0.312484711408615112 -0.0668800026178359985
-0.864897966384887695 -0.242166340351104736 -0.332464396953582764
-0.781316220760345459 -0.347288936376571655 -0.312202602624893188
-0.651642203330993652 -0.303739339113235474 -0.0237917918711900711
-0.623537778854370117 -0.342897474765777588 -0.0186605583876371384
-0.802245140075683594 -0.277537524700164795 -0.420337885618209839
-0.220030203461647034 -0.126067116856575012 -0.625674605369567871
-0.755009591579437256 0.0820859670639038086 -0.0612366311252117157
-0.855292320251464844 -0.300190061330795288 -0.308460801839828491
-0.260556459426879883 -0.0124812051653862 -0.482452690601348877
-0.688002526760101318 -0.13969188928604126 0.061563100665807724
-0.67330402135848999 0.0436702445149421692 -0.18019510805606842
-0.591678738594055176 0.0555734820663928986 -0.0683771073818206787
-0.890501141548156738 -0.28046688437461853 -0.300350069999694824
-0.242429181933403015 -0.171233296394348145 -0.592607200145721436
-0.37375330924987793 0.158002555370330811 -0.328259557485580444
-0.393084198236465454 -0.310555070638656616 -0.480880260467529297
-0.663022518157958984 -0.345188707113265991 -0.429671883583068848
-0.290178447961807251 -0.143818691372871399 -0.413641750812530518
-0.535061299800872803 -0.144656792283058167 -0.323037475347518921
-0.900771439075469971 -0.376144170761108398 -0.425783425569534302
-0.72194063663482666 0.031306147575378418 -0.254367679357528687
-0.374311268329620361 -0.0584501102566719055 -0.522841870784759521
-0.208227947354316711 0.00101568736135959625 -0.520305871963500977
-0.611012578010559082 0.0342683717608451843 -0.0912839323282241821
-0.411203116178512573 -0.244321644306182861 -0.240406706929206848
-0.817885875701904297 -0.243402540683746338 -0.318059980869293213
-0.546588480472564697 -0.258996456861495972 -0.541567504405975342
-0.800371706485748291 -0.273384153842926025 -0.317223578691482544
-0.831738591194152832 -0.319675028324127197 -0.0385251492261886597
-0.623622357845306396 -0.134228140115737915 -0.0454068481922149658
-0.441377937793731689 -0.324718058109283447 -0.24918791651725769
-0.682643651962280273 -0.553308188915252686 -0.0861877426505088806
-0.443749666213989258 0.0994324237108230591 -0.318859130144119263
-0.536560595035552979 -0.238694846630096436 -0.130742326378822327
-0.560549914836883545 -0.390303492546081543 -0.103754274547100067
-0.429374486207962036 0.0274007171392440796 -0.509386956691741943
-0.546088337898254395 -0.408494293689727783 -0.118057146668434143
-0.400134146213531494 -0.299881249666213989 -0.37834283709526062
-0.653208434581756592 -0.177901536226272583 -0.240831106901168823
-0.429654449224472046 -0.252698421478271484 -0.36603248119354248
-0.480531245470046997 -0.00587918050587177277 -0.391789466142654419
-0.624819815158843994 -0.306767523288726807 -0.153308987617492676
-0.279746890068054199 -0.0350452810525894165 -0.742692053318023682
-0.13987278938293457 -0.127034902572631836 -0.608453631401062012
-0.161203041672706604 0.0435439012944698334 -0.673948705196380615
-0.514005839824676514 -0.187364190816879272 -0.283190220594406128
-0.816033363342285156 -0.433374375104904175 -0.145195111632347107
-0.129227116703987122 0.269084036350250244 -0.444094926118850708
-0.3750457763671875 -0.119355551898479462 -0.367174923419952393
-0.192027956247329712 -0.189065128564834595 -0.438716530799865723
-0.305671900510787964 -0.0967477411031723022 -0.379623055458068848
-0.345582067966461182 -0.0909635722637176514 -0.43042755126953125
-0.429978340864181519 0.061678323894739151 -0.33812907338142395
-0.889486193656921387 -0.245102673768997192 -0.276447504758834839
-0.62393796443939209 -0.307469993829727173 -0.0495975315570831299
-0.728985249996185303 -0.468890726566314697 -0.189514338970184326
-0.487947762012481689 0.00414150068536400795 -0.517780959606170654
-0.12375129759311676 -0.124145813286304474 -0.620606303215026855
-0.748866796493530273 -0.402170717716217041 -0.0974078178405761719
-0.405894279479980469 -0.0197695512324571609 -0.453852951526641846
-0.523777663707733154 0.119831278920173645 -0.123476594686508179
-0.679105460643768311 -0.310599267482757568 -0.050501357764005661
-0.486316025257110596 -0.142886698246002197 -0.217277571558952332
-0.713995754718780518 -0.108198918402194977 -0.33807218074798584
-0.448393911123275757 -0.120696783065795898 -0.434677630662918091
-0.779513061046600342 -0.147718191146850586 -0.0222567059099674225
-0.316673517227172852 -0.00108415784779936075 -0.333412200212478638
-0.632159590721130371 -0.333126068115234375 -0.48229217529296875
-0.613879203796386719 -0.163635343313217163 -0.118109039962291718
-0.219010517001152039 -0.136767342686653137 -0.449543386697769165
-0.680829167366027832 -0.205748721957206726 -0.301572144031524658
-0.373407185077667236 -0.126138806343078613 -0.573271512985229492
-0.958774924278259277 -0.250717788934707642 -0.340361863374710083
-0.462419420480728149 0.0183836948126554489 -0.382230013608932495
-0.145212262868881226 -0.106837078928947449 -0.575176656246185303
-0.774414658546447754 -0.237473934888839722 -0.333719104528427124
-0.787178277969360352 -0.343265622854232788 -0.135017931461334229
-0.52041018009185791 0.0787842497229576111 -0.285104930400848389
-0.41426849365234375 0.0180436205118894577 -0.402628213167190552
-0.305519819259643555 -0.0658001154661178589 -0.658211410045623779
-0.55503612756729126 -0.0827997997403144836 -0.103128306567668915
-0.249493002891540527 0.00915532652288675308 -0.368327528238296509
-0.752705216407775879 -0.411804825067520142 -0.276750653982162476
-0.55915522575378418 -0.185601681470870972 -0.384286850690841675
