ply
format ascii 1.0
element vertex 717
property float x
property float y
property float z
end_header
-0.105058535933494568 -0.00467987870797514915 -0.0187755096703767776
-0.140562787652015686 -0.00103963410947471857 0.0470034554600715637
0.00391828874126076698 0.47681117057800293 0.0171879548579454422
0.0451616942882537842 -0.0195193905383348465 0.0781008303165435791
0.0384323522448539734 -0.25347331166267395 0.142815172672271729
-0.139420539140701294 -0.0038055002223700285 -0.0780278295278549194
0.0275299698114395142 0.0735035911202430725 0.0222098976373672485
-0.0858825519680976868 0.0352432318031787872 0.0560621581971645355
-0.170016855001449585 -0.0103370966389775276 -0.0282085184007883072
0.00524527439847588539 0.93770897388458252 -0.00781178474426269531
0.0286732390522956848 0.0355639606714248657 -0.0812399312853813171
0.0531153753399848938 0.0234399288892745972 -0.0703482255339622498
0.0284891016781330109 -0.0218002870678901672 -0.0111451717093586922
0.0136178052052855492 -0.0442197024822235107 0.0931330770254135132
0.0862835347652435303 -0.20597800612449646 0.102109067142009735
0.107118844985961914 -0.13262641429901123 0.0329907685518264771
-0.0618997029960155487 -0.00979092158377170563 0.166207984089851379
0.0423034988343715668 0.101805500686168671 0.0385337993502616882
0.0201417841017246246 0.0116555681452155113 -0.00383508112281560898
0.0238436944782733917 0.178176000714302063 0.0289166104048490524
-0.104049988090991974 0.023624097928404808 0.0455278195440769196
0.0131897572427988052 0.327218800783157349 0.0284537635743618011
0.000622466497588902712 -0.0465741492807865143 0.11177622526884079
-0.0303989816457033157 -0.159920811653137207 0.136039912700653076
-0.0980714112520217896 -0.0722230523824691772 0.211969554424285889
0.0231433641165494919 -0.0761849880218505859 0.116103895008563995
-0.0289304554462432861 0.0553809739649295807 0.0497927628457546234
-0.0826053991913795471 -0.00350969471037387848 -0.00878295209258794785
0.0653303861618041992 -0.107397943735122681 0.169524118304252625
0.0703652724623680115 -0.228737413883209229 0.118105314671993256
0.000872777483891695738 0.0141837708652019501 -0.0567677021026611328
0.00991280097514390945 -0.0463416799902915955 -0.0483724996447563171
-0.00872794818133115768 0.0278976205736398697 0.108317665755748749
-0.0621776692569255829 -0.196785464882850647 0.0982884317636489868
0.061634548008441925 -0.151121929287910461 0.10667913407087326
-0.0502737388014793396 -0.0149786714464426041 0.0264659356325864792
0.0514719448983669281 -0.0878708511590957642 0.139987453818321228
-0.010307997465133667 0.688785135746002197 0.0190548133105039597
-0.0906179696321487427 -0.109479740262031555 0.103491760790348053
-0.0338106676936149597 -0.186209425330162048 0.116520076990127563
-0.00439434358850121498 0.418893754482269287 0.00704483781009912491
0.0758027732372283936 -0.0305945631116628647 0.175814136862754822
-0.0374931134283542633 0.0118532991036772728 0.0169778931885957718
-0.00339573551900684834 -0.0904163867235183716 0.135081291198730469
0.0715636312961578369 -0.118110284209251404 0.100267760455608368
0.0144612854346632957 0.367083340883255005 0.0298963636159896851
-0.0414559394121170044 0.156890824437141418 0.02786240354180336
-0.0349434018135070801 -0.00931951124221086502 0.114004157483577728
0.0106471488252282143 -0.0243150535970926285 0.0199346039444208145
-0.0808731094002723694 0.083824552595615387 0.0641732588410377502
-0.0489511862397193909 -0.0480143390595912933 -0.0128540806472301483
0.150244221091270447 -0.0519524775445461273 0.0367037393152713776
-0.0604088194668292999 -0.0196137446910142899 -0.0637079402804374695
0.0813550576567649841 -0.0156129142269492149 0.0484598465263843536
-0.151308104395866394 -0.101631000638008118 0.0382346510887145996
0.00830155331641435623 -0.0153074506670236588 0.106022171676158905
0.00500505510717630386 0.490702688694000244 -0.00852363742887973785
0.00352222821675240993 0.360247224569320679 0.0127108888700604439
-0.017897777259349823 0.0671217441558837891 0.0196525324136018753
-0.0320790335536003113 0.37737920880317688 0.0430320873856544495
0.0028057401068508625 0.153125479817390442 -0.0255264844745397568
0.124328963458538055 0.0110594006255269051 0.0469964630901813507
-0.0631577521562576294 0.143061161041259766 0.0241500791162252426
-0.0976839885115623474 -0.193150267004966736 0.0561716705560684204
-0.00815853849053382874 -0.0819211304187774658 0.144658342003822327
0.149343252182006836 -0.188141047954559326 0.0933647304773330688
-0.0303188487887382507 -0.0127984089776873589 0.189706817269325256
-0.0270448774099349976 0.0188639350235462189 -0.0380332842469215393
0.0258940998464822769 0.392326980829238892 -0.0273594129830598831
-0.0953658819198608398 -0.110769942402839661 0.120764374732971191
0.100360691547393799 0.0293116588145494461 -0.0674945488572120667
0.0279029961675405502 0.0139595577493309975 0.076020069420337677
-0.0728328227996826172 -0.0371760353446006775 0.176489338278770447
0.0936321914196014404 -0.0590491704642772675 0.0597869120538234711
0.0277730822563171387 0.155832067131996155 0.0167293604463338852
0.0905884280800819397 0.0135266706347465515 0.0170645024627447128
-0.025385592132806778 -0.0052355094812810421 0.028574526309967041
-0.00913313496857881546 0.43959653377532959 -0.0117269549518823624
-0.0165476556867361069 0.964651346206665039 0.0106034697964787483
-0.0576603710651397705 -0.0446885488927364349 0.0211962983012199402
-0.0151903508231043816 0.0122095616534352303 0.00715248566120862961
-0.0981040522456169128 -0.101853296160697937 0.197292372584342957
-0.0325409471988677979 -0.0550492145121097565 0.0898544639348983765
0.0965894311666488647 -0.180648341774940491 0.0596928372979164124
-0.0131591362878680229 0.0169503092765808105 0.0843094438314437866
-0.0138426749035716057 0.0162603780627250671 -0.0511851012706756592
-0.0546794943511486053 0.198376059532165527 0.0316448509693145752
-0.0378439277410507202 -0.202489659190177917 0.0797040835022926331
0.0618816092610359192 0.0328982509672641754 -0.00181917764712125063
-0.0103744948282837868 -0.0351408831775188446 0.0411611013114452362
0.132898136973381042 0.0264244470745325089 -0.0184518788009881973
-0.0348735824227333069 0.000942960265092551708 0.00689928280189633369
-0.121725179255008698 0.012509465217590332 -0.0230400152504444122
-0.101028658449649811 -0.0347386933863162994 0.0477051064372062683
-0.00951689481735229492 0.0480868369340896606 -0.0697828382253646851
0.103394709527492523 -0.14245779812335968 0.0246927179396152496
0.0821362808346748352 -0.0193608012050390244 0.0827566832304000854
-0.0982439592480659485 -0.0129434941336512566 0.108790963888168335
-0.0172533392906188965 0.961794555187225342 0.00229345704428851604
-0.00188983033876866102 0.459773153066635132 -0.000274925521807745099
-0.0801636502146720886 -0.153337001800537109 0.100709468126296997
-0.0433990582823753357 0.091912783682346344 0.0364463664591312408
0.0685097798705101013 -0.000200818001758307219 -0.0601490437984466553
0.0280143171548843384 0.291549652814865112 0.0201681330800056458
-0.0508625470101833344 -0.0333236195147037506 0.00193901010788977146
-0.115538217127323151 0.0378159284591674805 0.0802118480205535889
0.024274192750453949 0.0791950896382331848 -0.0693765357136726379
0.065813891589641571 -0.0585463084280490875 0.0905910506844520569
0.101092219352722168 -0.141442045569419861 0.0786226615309715271
-0.0441193804144859314 0.26003795862197876 0.0236789174377918243
-0.0177580174058675766 0.0320517122745513916 -0.0954378843307495117
0.114042848348617554 -0.201601743698120117 0.102539420127868652
-0.00173357164021581411 -0.0386690273880958557 0.0666734874248504639
0.157055839896202087 -0.00720594171434640884 -0.0171518493443727493
-0.0753801092505455017 0.0258778482675552368 0.0428854450583457947
-0.00296276435256004333 0.373457461595535278 -0.0330748409032821655
-0.0588517226278781891 -0.0776117295026779175 0.135198697447776794
-0.0684762224555015564 0.107422053813934326 0.0500435121357440948
-0.0141622899100184441 0.360419094562530518 0.0250003933906555176
-0.00401206640526652336 0.446478933095932007 -0.025587739422917366
-0.0261535178869962692 0.0354745984077453613 0.0876949205994606018
-0.0337396971881389618 0.344387054443359375 0.0215875450521707535
-0.0713053420186042786 -0.17280443012714386 0.0874725878238677979
-0.160809159278869629 -0.00717865629121661186 -0.0897538661956787109
-0.0729119777679443359 0.0250736679881811142 0.0876286551356315613
-0.0148002002388238907 0.687395751476287842 -0.00132294150535017252
-0.0447907522320747375 0.0256399735808372498 -0.046629391610622406
0.0645063072443008423 -0.0120389824733138084 0.111384026706218719
0.125941202044487 -0.173652529716491699 0.112952977418899536
-0.0287076812237501144 -0.0427392832934856415 -0.0252071116119623184
-0.110006973147392273 -0.0768506899476051331 -0.0380337387323379517
0.138893723487854004 -0.00122047646436840296 0.00343384197913110256
0.0193241126835346222 -0.228917181491851807 0.0522285066545009613
0.0179517641663551331 0.0165121648460626602 -0.0593667775392532349
-0.0759203657507896423 0.0125289596617221832 0.0786217972636222839
-0.0284541156142950058 -0.0115111134946346283 0.115418784320354462
0.0385726280510425568 -0.108226247131824493 0.163624018430709839
-0.0770124420523643494 -0.0239433664828538895 0.223515838384628296
-0.11745096743106842 0.00194658292457461357 0.0472595430910587311
-0.0742883458733558655 0.0309193450957536697 -0.0411052778363227844
0.0626236200332641602 -0.242099389433860779 0.13888394832611084
-0.0147595098242163658 0.640521109104156494 -0.00180239498149603605
0.0212828256189823151 -0.033888012170791626 0.0814015120267868042
-0.00449527613818645477 -0.047969575971364975 -0.00928710494190454483
-0.0133498962968587875 0.120180569589138031 -0.0579781867563724518
0.0876323878765106201 -0.104463756084442139 0.130123600363731384
0.0534452088177204132 -0.0222459658980369568 0.16080901026725769
0.0257484316825866699 -0.00749143399298191071 0.108963117003440857
-0.0733645409345626831 -0.201002895832061768 0.0647592917084693909
-0.00622379640117287636 -0.217505261301994324 0.0869431868195533752
-0.0379865430295467377 0.0019639073871076107 0.00999804679304361343
-0.0807897225022315979 -0.0502810664474964142 0.107718847692012787
0.0948693528771400452 0.0149431033059954643 0.0265371091663837433
-0.111013278365135193 -0.0371620208024978638 0.0708487853407859802
-0.00771355116739869118 0.877654135227203369 0.0239152312278747559
0.0303592178970575333 0.294190138578414917 0.0197081994265317917
-0.0447873882949352264 -0.042720351368188858 0.106729693710803986
-0.094529278576374054 0.0150317298248410225 0.0539034046232700348
-0.0526603572070598602 0.0183523129671812057 0.0505120009183883667
0.107241928577423096 -0.163465633988380432 0.115087985992431641
0.185002937912940979 -0.0721153914928436279 0.0201131943613290787
-0.0225137714296579361 0.329546362161636353 -0.00700088078156113625
-0.0834475457668304443 -0.0168811231851577759 0.0972737222909927368
0.0265471730381250381 -0.0531296618282794952 0.100079596042633057
0.00968936644494533539 0.297101825475692749 0.00448992429301142693
0.0569666996598243713 -0.263004213571548462 0.0992080047726631165
-0.0124693810939788818 0.688131213188171387 0.00654601538553833961
-0.0617912411689758301 0.00106001284439116716 0.0971599817276000977
0.16339506208896637 -0.0555763952434062958 0.0177823714911937714
-0.0284525789320468903 0.697694838047027588 -0.00470381183549761772
0.0502982139587402344 -0.00404456956312060356 0.146378770470619202
-0.00942330062389373779 0.181178286671638489 -0.0465692766010761261
0.0693065449595451355 -0.207529708743095398 0.0781640484929084778
0.119910389184951782 -0.0752741545438766479 0.00693917367607355118
-0.0358484163880348206 -0.0213487893342971802 0.0853711143136024475
-0.104197598993778229 0.0392659679055213928 0.0233853645622730255
-0.139811784029006958 0.016828443855047226 -0.0392853841185569763
-0.0628712177276611328 0.0214772839099168777 0.0456887185573577881
0.0972794294357299805 -0.0130915679037570953 -0.0113509297370910645
-0.010594773106276989 0.0334980711340904236 0.12424767017364502
0.0704178735613822937 0.0496486946940422058 0.043949030339717865
-0.0313019193708896637 0.0352565757930278778 0.0927616134285926819
0.088888317346572876 -0.19314207136631012 0.173073038458824158
0.0649488717317581177 0.0616745501756668091 0.0666634067893028259
0.0794621258974075317 0.018071664497256279 -0.0411466285586357117
-0.0275188256055116653 0.829565823078155518 0.0245969370007514954
-0.0916871055960655212 -0.196330100297927856 0.0602903999388217926
-0.0102274399250745773 -0.158705964684486389 0.115804918110370636
0.100860223174095154 -0.0939033627510070801 0.126896709203720093
-0.0243771448731422424 0.00355758378282189369 0.0184981971979141235
-0.0771031156182289124 0.0721211358904838562 0.0404958575963973999
-0.10921759158372879 -0.0272073876112699509 0.0983241498470306396
-0.0973696783185005188 -0.00923894066363573074 -0.0384002327919006348
-0.00872091576457023621 0.876977741718292236 -0.0087367640808224678
-0.0547766461968421936 0.0207623187452554703 0.102020978927612305
0.101564913988113403 -0.0649400651454925537 0.130203649401664734
0.0724090263247489929 -0.00090096337953582406 0.0528048761188983917
0.0031963614746928215 -0.0347066447138786316 0.0929643884301185608
0.108873985707759857 -0.211470723152160645 0.0568194538354873657
0.0633823126554489136 0.137513920664787292 0.0271270871162414551
0.0890570506453514099 0.0469804629683494568 -0.0043795313686132431
0.101113982498645782 6.2836952565703541e-05 0.0123276039958000183
-0.0112350843846797943 0.189708709716796875 -0.0463434271514415741
-0.0721207782626152039 -0.0452589169144630432 0.105812214314937592
0.109064072370529175 -0.162975415587425232 0.138576269149780273
-0.108845449984073639 -0.00515823764726519585 0.137645542621612549
0.0727945864200592041 -0.0436191782355308533 0.0706627517938613892
-0.0369924455881118774 0.252565264701843262 0.0233831852674484253
-0.0634076669812202454 -0.20359329879283905 0.0658387765288352966
0.0810997486114501953 -0.00708366185426712036 -0.00812601018697023392
-0.0072852536104619503 -0.152832627296447754 0.140464827418327332
-0.0805083662271499634 -0.115705095231533051 0.20144827663898468
0.05573267862200737 0.00411402201279997826 0.0150401517748832703
0.0911674275994300842 -0.230868816375732422 0.108599774539470673
-0.00494941743090748787 0.182715818285942078 -0.0346751920878887177
0.000341590231982991099 0.250303536653518677 -0.0443869270384311676
-0.0696988478302955627 0.0389947369694709778 0.0359059982001781464
0.0983042046427726746 -0.0150517662987112999 0.0321904532611370087
0.101920649409294128 -0.240117758512496948 0.151405394077301025
-0.0845070183277130127 -0.00694191083312034607 -0.0544611290097236633
-0.159041047096252441 -0.0451251044869422913 -0.00101973011624068022
-0.014779822900891304 0.0146422097459435463 0.0931386873126029968
-0.0117621337994933128 0.086972452700138092 -0.0460341721773147583
0.00963608082383871078 0.732979118824005127 0.0140993464738130569
0.153410971164703369 -0.0798035115003585815 0.0712336823344230652
-0.0229039713740348816 0.449710965156555176 0.00431713834404945374
0.0867608636617660522 -0.143756285309791565 0.146985411643981934
-0.0955462083220481873 -0.0822112485766410828 0.168043464422225952
-0.0274809692054986954 -0.0358460992574691772 -0.020743517205119133
0.128358379006385803 -0.0558109953999519348 0.0227112434804439545
0.0942130610346794128 -0.00362731586210429668 0.101020142436027527
-0.0959977582097053528 -0.174371436238288879 0.060839332640171051
0.0667982473969459534 -0.271735399961471558 0.143882885575294495
0.0141913788393139839 0.392830133438110352 0.0199339911341667175
0.031088637188076973 -0.00688826479017734528 0.0999241098761558533
-0.0327588096261024475 0.325481384992599487 0.0257469657808542252
-0.100294686853885651 -0.158131107687950134 0.108990788459777832
0.0647209584712982178 -0.18418903648853302 0.0971186086535453796
0.0660868138074874878 -0.00544721726328134537 0.0750366821885108948
0.0124249346554279327 0.432191193103790283 0.016989637166261673
0.106980524957180023 0.00466159544885158539 0.0702147781848907471
0.0306752752512693405 -0.0129290567710995674 0.0164971426129341125
-0.00435253605246543884 0.655537843704223633 0.00480880029499530792
-0.00849378481507301331 -0.00969206541776657104 0.0393896698951721191
-0.0469411425292491913 0.239428609609603882 0.0312280263751745224
-0.00341211957857012749 0.0200071819126605988 -0.0136551866307854652
0.0523221977055072784 0.0462568961083889008 -0.0408431626856327057
-0.00533812213689088821 0.481730073690414429 -0.0131652913987636566
-0.00272069987840950489 0.919330418109893799 0.027866315096616745
-0.0624364651739597321 -0.0303099658340215683 0.0170225240290164948
-0.13816659152507782 -0.0734934285283088684 0.00186946685425937176
-0.0353356488049030304 0.310533136129379272 0.0300584826618432999
0.0517634302377700806 -0.155827254056930542 0.187316402792930603
-0.0105992639437317848 0.281502276659011841 -0.01888253353536129
0.0088664032518863678 -0.0664467141032218933 0.10715823620557785
-0.00436676153913140297 0.671064138412475586 -0.00937729049474000931
0.0725378096103668213 -0.0835229307413101196 0.149908050894737244
-0.0302812457084655762 0.0346684493124485016 -0.0783774107694625854
0.0164600946009159088 0.328239679336547852 0.0110884020105004311
-0.121428146958351135 -0.00374614167958498001 0.0530808493494987488
0.121345371007919312 -0.0518062524497509003 0.0248171519488096237
-0.0784647166728973389 -0.025269094854593277 -0.0373880043625831604
0.0286963097751140594 0.235730931162834167 0.0169679801911115646
0.135028481483459473 -0.0735738500952720642 0.140500083565711975
0.0625274926424026489 -0.110650539398193359 0.118439912796020508
-0.0391424894332885742 0.181050598621368408 0.0299836061894893646
0.0370908789336681366 -0.0234811026602983475 0.0949446484446525574
0.0299475286155939102 -0.00983266904950141907 0.0367431491613388062
0.052679751068353653 -0.0687476471066474915 0.107008345425128937
-0.0592685416340827942 0.0241708122193813324 -0.0157287325710058212
0.00980671867728233337 0.295406341552734375 0.0114894462749361992
0.220579400658607483 -0.122178390622138977 0.0603191480040550232
-0.0340497680008411407 -0.100876510143280029 0.185337617993354797
0.189178898930549622 -0.0698900073766708374 -0.0167272873222827911
-0.129159659147262573 -0.00843500811606645584 -0.0121174938976764679
-0.115740664303302765 -0.114532157778739929 -0.0180639605969190598
-0.121375441551208496 -0.121293358504772186 -0.0307854171842336655
0.0600304082036018372 -0.0901087448000907898 0.163221657276153564
-0.128472879528999329 0.00975840166211128235 -0.00312172435224056244
-0.0886273831129074097 0.00798213575035333633 0.123947605490684509
-0.0134255904704332352 0.295886367559432983 -0.0210486836731433868
-0.038484375923871994 0.00501596229150891304 -0.0714283585548400879
0.118885912001132965 -0.232542082667350769 0.125659629702568054
-0.0318741500377655029 0.0572617314755916595 0.103039354085922241
-0.0171985011547803879 0.0125603163614869118 -0.0107612228021025658
0.114434666931629181 -0.145961478352546692 0.0478018857538700104
0.114904269576072693 -0.183094531297683716 0.134731307625770569
0.0490984097123146057 -0.122633188962936401 0.173374712467193604
-0.0391295216977596283 0.222543343901634216 0.0228584855794906616
-0.0123963523656129837 0.0752271190285682678 -0.0053975256159901619
-0.0412860289216041565 -0.0447791106998920441 0.111750558018684387
0.0329694859683513641 0.0259725321084260941 -0.0832986831665039062
-0.0762566700577735901 -0.0323121808469295502 0.0474845282733440399
0.0317534543573856354 0.0314535461366176605 -0.0125992754474282265
0.0695552080869674683 -0.00247708777897059917 0.0078271450474858284
-0.0295107327401638031 -0.187986090779304504 0.105889208614826202
0.133340269327163696 -0.178514093160629272 0.132499977946281433
-0.0233553871512413025 0.0467669367790222168 0.059890013188123703
0.192347913980484009 -0.128283217549324036 0.0598062723875045776
0.10280030220746994 -0.104155093431472778 0.0994780808687210083
0.0819917023181915283 -0.000222868635319173336 0.00678489217534661293
0.0624016076326370239 -0.172210782766342163 0.177480340003967285
-0.0024328411091119051 0.287789821624755859 0.0119849285110831261
-0.0589612163603305817 -0.170828446745872498 0.102247916162014008
-0.050926990807056427 -0.0360409468412399292 0.00895623955875635147
-0.0247119460254907608 0.0208833087235689163 0.0740616396069526672
0.0778968334197998047 -0.147611737251281738 0.154530003666877747
0.0127796698361635208 0.0309698507189750671 -0.0359590686857700348
-0.0663607269525527954 -0.0522090531885623932 0.142592117190361023
-0.0128710381686687469 -0.00863297097384929657 -0.0398486554622650146
0.176911383867263794 -0.0993330255150794983 0.0789522752165794373
0.111554183065891266 -0.126208916306495667 0.020928921177983284
0.00225474056787788868 0.842898786067962646 0.0145911108702421188
-0.0717095732688903809 -0.03916143998503685 -0.00263218441978096962
0.0905238986015319824 -0.115061432123184204 0.11044669896364212
0.0473572574555873871 -0.123244166374206543 0.143059328198432922
-0.0663872510194778442 0.000655653304420411587 0.0333837531507015228
-0.0809368640184402466 0.0214234292507171631 0.0340813659131526947
0.114849008619785309 -0.00373330526053905487 0.0420916751027107239
0.039524763822555542 0.0400019362568855286 -0.0628162920475006104
0.0762367993593215942 -0.150387883186340332 0.103880926966667175
0.0296624917536973953 -0.028232228010892868 0.00593268591910600662
-0.0136241596192121506 0.402877479791641235 0.00697021186351776123
0.127340540289878845 0.0111686922609806061 0.1431560218334198
0.0766876861453056335 -0.0462974831461906433 0.15287482738494873
-0.0125279407948255539 0.983222126960754395 -0.000208919038414023817
-0.0278044696897268295 -0.0118938349187374115 0.0787115097045898438
0.054310481995344162 -0.0491741113364696503 0.0527565069496631622
0.0701462849974632263 0.012862280011177063 0.0160960294306278229
0.0908580571413040161 -0.148960888385772705 0.158085837960243225
0.0381484031677246094 0.236705869436264038 0.0332652442157268524
-0.120301991701126099 -0.018685709685087204 0.0772610977292060852
0.0207393448799848557 0.287085741758346558 0.0335147008299827576
-0.0749593377113342285 -0.000490923353936523199 0.0617407560348510742
-0.108545124530792236 -0.111310072243213654 0.0562030859291553497
-0.00901947822421789169 0.100331768393516541 -0.0762465521693229675
0.0519725382328033447 0.0100913858041167259 0.0650835782289505005
0.0232379063963890076 0.0107385581359267235 0.0439456216990947723
0.058064434677362442 -0.0915424302220344543 0.0924288034439086914
-0.0316875539720058441 0.741043329238891602 -0.013990623876452446
-0.119419485330581665 -0.0478489622473716736 0.00857303664088249207
-0.0752294957637786865 0.0135461222380399704 -0.0161135308444499969
-0.100923433899879456 -0.0173267126083374023 -0.0439425408840179443
0.0275858715176582336 0.0480398349463939667 0.0513473674654960632
-0.125609040260314941 -0.0668028965592384338 -0.0221097804605960846
0.0725941210985183716 -0.0819352269172668457 0.139411970973014832
0.116814970970153809 -0.192143559455871582 0.136105597019195557
0.0115604586899280548 0.396746575832366943 0.0225253794342279434
0.0061993040144443512 0.359275013208389282 -0.00961265061050653458
0.0999913439154624939 -0.192209050059318542 0.0515838265419006348
0.017985176295042038 0.0253425203263759613 0.0135610764846205711
0.0310475621372461319 0.0133542288094758987 -0.0140083814039826393
0.0423253923654556274 -0.141773894429206848 0.121948763728141785
0.0336851216852664948 0.0247901305556297302 -0.0687426477670669556
0.0477786771953105927 0.000963387719821184874 -0.0165289081633090973
0.0342206805944442749 0.0404594875872135162 -0.0586837716400623322
-0.0458390489220619202 -0.0739430561661720276 0.113476201891899109
0.12068437784910202 -0.0732757970690727234 0.166557848453521729
0.0724472776055335999 -0.00147408153861761093 0.0401619337499141693
0.0338853523135185242 0.145636796951293945 0.0342378728091716766
-0.113343909382820129 -0.0916179865598678589 0.222402766346931458
0.105576708912849426 0.000728645012713968754 -0.0627084746956825256
-0.0202018674463033676 0.353209733963012695 -0.00145143386907875538
0.065988391637802124 0.00798065308481454849 -0.030814439058303833
-0.000968057021964341402 0.129348620772361755 -0.0607342459261417389
-0.0168857183307409286 0.41964036226272583 -0.0123121468350291252
0.0448866002261638641 0.0232800226658582687 0.0885401591658592224
-0.0553538613021373749 0.0325519852340221405 0.127096995711326599
-0.0602561347186565399 0.215821996331214905 0.00949564110487699509
-0.168159410357475281 -0.0173586085438728333 -0.007230409886687994
-0.0107559151947498322 0.868399918079376221 -0.00452792877331376076
0.0652550235390663147 -0.0084655173122882843 0.111194059252738953
-0.0585375502705574036 0.020088542252779007 0.0175644848495721817
-0.0909178853034973145 0.0485290698707103729 -0.0486017242074012756
-0.0602582544088363647 -0.0401635356247425079 0.136049091815948486
-0.0443557724356651306 0.0113258734345436096 -0.0194946713745594025
0.101024948060512543 -0.187234491109848022 0.178074643015861511
-0.104453280568122864 0.00913601275533437729 0.134387046098709106
0.0737730562686920166 -0.188642412424087524 0.0970467329025268555
-0.0200090464204549789 0.0498578883707523346 -0.0515518076717853546
-0.0524248816072940826 0.0311469156295061111 0.00574589846655726433
0.00726846139878034592 0.279032498598098755 0.0107499435544013977
-0.0407362058758735657 -0.191352397203445435 0.0672346130013465881
0.0980435237288475037 0.00111165037378668785 0.0943091362714767456
-0.0608104951679706573 0.0253041516989469528 0.0847536399960517883
0.106149725615978241 -0.0702369585633277893 0.136646226048469543
0.00629031052812933922 -0.028839893639087677 -0.0127296075224876404
0.0880850180983543396 0.00287763355299830437 -0.00592591799795627594
-0.0246127899736166 -0.0443539395928382874 -0.0138787431642413139
-0.0164336375892162323 0.437172263860702515 -0.0108596263453364372
0.0810201093554496765 0.0236695539206266403 0.0547451712191104889
0.16445884108543396 -0.0580092146992683411 0.0269502140581607819
-0.000831713259685784578 0.426731139421463013 0.0159081444144248962
-0.123377107083797455 -0.0387728363275527954 -0.0271100960671901703
-0.0188078116625547409 0.0374736301600933075 -0.048254307359457016
0.109852328896522522 -0.0133609678596258163 0.0225955769419670105
0.0942572802305221558 -0.0205996744334697723 -0.0295640956610441208
-0.0760022178292274475 -0.025236085057258606 0.202351227402687073
-0.0408254899084568024 0.106475301086902618 0.0311188995838165283
-0.00687357643619179726 0.606979310512542725 0.00997213087975978851
-0.00722735468298196793 0.0489862263202667236 -0.0693499147891998291
0.119191437959671021 -0.000618011807091534138 0.0292173195630311966
-0.0792160928249359131 -0.053080044686794281 0.0658384785056114197
0.0471992157399654388 0.0112750111147761345 -0.0239854343235492706
0.0468837730586528778 -0.144679635763168335 0.185571551322937012
-0.00134696823079138994 -0.168125748634338379 0.128112182021141052
-0.111616991460323334 0.0138274859637022018 0.0286414362490177155
0.158720597624778748 -0.072076261043548584 -0.00294082053005695343
-0.0106786033138632774 0.0376637466251850128 0.0284430962055921555
0.014126933179795742 -0.00164801499340683222 -0.0588351190090179443
-0.10031544417142868 -0.0528628863394260406 -0.00722102681174874306
-0.0999800637364387512 -0.13482724130153656 0.0796645805239677429
0.118044175207614899 0.0249887574464082718 0.0436023548245429993
-0.0328645296394824982 -0.00118906632997095585 0.114822663366794586
-0.105817317962646484 -0.0905537307262420654 0.116937465965747833
-0.0552261359989643097 0.00591950211673974991 0.0926072001457214355
0.106279700994491577 -0.0479079857468605042 0.125272870063781738
0.0499485880136489868 -0.129768744111061096 0.116919912397861481
0.0850665420293807983 -0.00484170159325003624 0.0458686798810958862
-0.0333549939095973969 -0.218780115246772766 0.0804080888628959656
0.0150361489504575729 0.975445032119750977 0.0116377035155892372
-0.00636210944503545761 0.682259321212768555 -0.00311730825342237949
-0.0279527157545089722 -0.0252214428037405014 0.0881940349936485291
-0.079195849597454071 0.00249801832251250744 0.089875437319278717
-0.0773605406284332275 -0.102882795035839081 0.125047758221626282
-0.0513735748827457428 -0.0923810452222824097 0.14050234854221344
-0.0914923176169395447 -0.0674917101860046387 -0.0548546500504016876
-0.0233613457530736923 -0.0230629686266183853 0.017766093835234642
-0.0303138419985771179 -0.0159091297537088394 0.128165856003761292
-0.0241995900869369507 -0.0400639846920967102 0.0910739824175834656
0.000463780219433829188 0.222376316785812378 -0.0572206303477287292
-0.00741801969707012177 -0.0573411025106906891 -0.0446555279195308685
-0.0152367986738681793 0.213495135307312012 -0.0549706779420375824
0.0605297870934009552 -0.00126397237181663513 0.00296443398110568523
0.1264190673828125 0.0148793170228600502 -0.0146268634125590324
0.16289462149143219 -0.0274391081184148788 0.0296815633773803711
-0.0857875123620033264 -0.0547519177198410034 0.137449473142623901
-0.000506669050082564354 0.540473639965057373 0.0139351077377796173
-0.119049102067947388 -0.0231455769389867783 0.0238971039652824402
-0.146884828805923462 0.0170468669384717941 -0.0674282759428024292
0.0723103806376457214 0.00435855239629745483 0.0826991274952888489
0.0537750981748104095 0.0114565314725041389 0.042629677802324295
-0.00018717758939601481 -0.163352042436599731 0.119134329259395599
0.0654345005750656128 0.00523793371394276619 0.0154153555631637573
-0.0685153156518936157 0.0319226011633872986 -0.0286119859665632248
0.102539144456386566 -0.112044453620910645 0.0497670359909534454
-0.0209818463772535324 0.611030399799346924 0.00970340985804796219
0.00859693344682455063 0.0498658157885074615 -0.0831490904092788696
-0.0779728293418884277 0.0239678192883729935 0.125906035304069519
0.0282707754522562027 0.315349757671356201 0.0262920912355184555
-0.122998252511024475 0.0201973691582679749 -0.0637917518615722656
0.0173371247947216034 0.222570016980171204 0.0498570986092090607
0.078704051673412323 -0.00840604677796363831 0.148000583052635193
0.00477045774459838867 0.869961321353912354 0.0180027652531862259
-0.00741742970421910286 -0.0170406121760606766 -0.0409176424145698547
-0.0887524709105491638 -0.035760585218667984 0.0572189018130302429
-0.0693048983812332153 0.0542917847633361816 0.0410762913525104523
-0.0263170842081308365 0.0278767403215169907 0.0311503838747739792
-0.0160456672310829163 0.615866422653198242 -0.00262428633868694305
-0.116722792387008667 0.0355564095079898834 -0.049302075058221817
-0.00792231317609548569 0.35526624321937561 -0.0235361754894256592
0.0852089524269104004 -0.0123345572501420975 0.0932529270648956299
0.165673509240150452 -0.0307376384735107422 0.0656191855669021606
-0.0219000503420829773 0.216957435011863708 -0.0433999150991439819
-0.0261204596608877182 0.0180611349642276764 -0.0867325738072395325
-0.0475375354290008545 0.294317722320556641 0.0181751083582639694
-0.0635291412472724915 -0.0967122688889503479 0.179054766893386841
0.0027748520951718092 0.424604952335357666 -0.00573787745088338852
-5.11870575792272575e-06 0.0124182803556323051 0.00597744015976786613
0.104524597525596619 -0.00939474906772375107 0.016589827835559845
0.133431315422058105 0.00213342742063105106 -0.0285591147840023041
-0.026124345138669014 0.00681876204907894135 -0.0621560215950012207
0.142300903797149658 -0.00450252648442983627 0.0384566411375999451
-0.061882704496383667 0.143746227025985718 0.0422380790114402771
0.0868903473019599915 -0.12027239054441452 0.0989648103713989258
0.185631155967712402 -0.0050871577113866806 0.0345586910843849182
-0.00469199242070317268 0.407340019941329956 0.0150156179443001747
-0.0909349992871284485 -0.01268802210688591 -0.0774024352431297302
0.0565445162355899811 -0.0812465474009513855 0.115268275141716003
0.126689925789833069 0.0101067712530493736 0.145509898662567139
0.0820583775639533997 -0.0785803422331809998 0.141522243618965149
0.0420249588787555695 -0.112108267843723297 0.109385132789611816
0.0920205563306808472 -0.138265058398246765 0.076394990086555481
0.0458359681069850922 -0.0662511810660362244 0.102629318833351135
0.104475148022174835 -0.0404232963919639587 0.0146539453417062759
0.0382284000515937805 0.0304914955049753189 -0.0426554866135120392
-0.00693890266120433807 0.310512840747833252 -0.00919831916689872742
-0.150839284062385559 0.00150927843060344458 -0.0459928475320339203
-0.0875212103128433228 -0.0310794152319431305 0.0693026185035705566
0.067850843071937561 -0.129026979207992554 0.0881726965308189392
-0.0992015451192855835 -0.0963727384805679321 0.164596349000930786
0.189434260129928589 -0.0931892842054367065 0.00300012994557619095
0.117633290588855743 -0.0922718718647956848 0.00309787644073367119
0.0352160073816776276 -0.00986803695559501648 -0.0546696335077285767
-0.135317102074623108 -0.150135189294815063 0.00986466836184263229
0.0991628468036651611 -0.05330657958984375 -0.0333123430609703064
0.00702309561893343925 -0.0336552262306213379 0.122430711984634399
0.0862505584955215454 -0.10379454493522644 0.115116134285926819
-0.014415958896279335 0.41715124249458313 -0.0104307765141129494
0.0450687818229198456 0.0547191575169563293 0.0262670610100030899
-0.0117947878316044807 0.799452900886535645 0.0107268709689378738
-0.0932206436991691589 -0.159215047955513 0.0939654409885406494
0.107244901359081268 -0.0726926252245903015 0.140603318810462952
-0.108631059527397156 -0.0166317466646432877 0.0343233123421669006
-0.105951443314552307 -0.0635036006569862366 0.197638839483261108
-0.00352803058922290802 0.0198384430259466171 0.101537726819515228
-0.0323523916304111481 0.0417992472648620605 0.0873987749218940735
0.00748881278559565544 0.861958324909210205 -0.00731042539700865746
-0.0647385865449905396 0.0228238459676504135 0.0462301671504974365
-0.0329600125551223755 0.0633977428078651428 -0.0178057290613651276
0.0271144174039363861 -0.00743365148082375526 0.0291761867702007294
0.0249137934297323227 0.0296155773103237152 -0.0469098500907421112
0.0409265011548995972 -0.0616945438086986542 0.174101591110229492
-0.0891463682055473328 0.0109342718496918678 0.132192164659500122
-0.000338329817168414593 -0.0499469935894012451 0.00294735003262758255
-0.129769951105117798 -0.108364596962928772 0.0251959003508090973
0.0327044576406478882 0.0302910003811120987 0.0359929017722606659
0.0527053028345108032 -0.00642873905599117279 0.0441528148949146271
-0.0407175458967685699 0.0172836482524871826 -0.069184817373752594
-0.105953633785247803 0.0184679888188838959 0.111146047711372375
0.0370941981673240662 -0.00028651635511778295 0.0955227240920066833
0.0893937423825263977 -0.0877694264054298401 0.0396626517176628113
-0.0996733158826828003 0.00110051513183861971 -0.0353982299566268921
0.0814796909689903259 -0.0252883806824684143 0.122855260968208313
0.0229802392423152924 -0.134733244776725769 0.112101905047893524
-0.000765188888181000948 0.0706205666065216064 -0.0500257164239883423
0.0687064602971076965 0.01354227215051651 0.0244111940264701843
-0.0984436497092247009 -0.132607653737068176 0.111303940415382385
0.023023214191198349 0.293952703475952148 0.0270359963178634644
-0.0279095210134983063 0.259482294321060181 0.0232051573693752289
-0.142695128917694092 0.026480378583073616 -0.0581267401576042175
0.0474434643983840942 0.0481926240026950836 0.0488915666937828064
-0.00478197215124964714 0.438088566064834595 0.0196162499487400055
0.115237243473529816 -0.0108281252905726433 0.0757455378770828247
0.12469916045665741 -0.040049038827419281 0.0454248450696468353
-0.00742590194568037987 0.316658109426498413 -0.0298243705183267593
-0.110215909779071808 -0.161171883344650269 0.0324956923723220825
-0.0297625996172428131 0.0438982248306274414 0.0262768436223268509
0.0787781029939651489 0.0121746072545647621 0.0811885222792625427
-0.0737814828753471375 0.0466626323759555817 0.0563435330986976624
-0.0145826246589422226 0.525475978851318359 -0.00138399354182183743
0.0306077655404806137 -0.0803577303886413574 0.122153237462043762
0.0153225921094417572 -0.204125314950942993 0.0848506763577461243
-0.103398978710174561 -0.0139238974079489708 0.0390232615172863007
-0.0432546250522136688 0.0271673649549484253 -0.0397109091281890869
-0.00728487782180309296 -0.138361275196075439 0.152295887470245361
-0.0305487662553787231 -0.183389127254486084 0.110685639083385468
0.119570150971412659 -0.0047366623766720295 0.0678788498044013977
-0.00308815832249820232 0.583888471126556396 -0.0146244307979941368
-0.00351357064209878445 0.385830789804458618 0.0266054626554250717
0.110937319695949554 -0.0192067157477140427 0.140861243009567261
0.00136836385354399681 0.820749223232269287 0.0042041274718940258
-0.120417177677154541 -0.0345506928861141205 -0.0261471513658761978
0.0776058360934257507 0.0327159687876701355 -0.0649363547563552856
-0.023106992244720459 0.0582310333847999573 -3.98146039515268058e-05
0.110771626234054565 -0.0224190410226583481 -0.0118947029113769531
-0.0568981096148490906 0.120684221386909485 0.00893322005867958069
0.0908665657043457031 -0.170132845640182495 0.112496107816696167
-0.105666466057300568 -0.11819891631603241 0.0534017421305179596
0.00630732951685786247 -0.0380651354789733887 -0.000901094637811183929
-0.0538353472948074341 0.0202284529805183411 0.0287262070924043655
-0.114405184984207153 -0.006481158547103405 0.117892518639564514
0.0183908566832542419 0.23082268238067627 0.0233655162155628204
0.0893444269895553589 -0.185561925172805786 0.10991331934928894
-0.00589001970365643501 0.448543906211853027 0.0430984646081924438
0.13502204418182373 0.00628901785239577293 0.0245926138013601303
-0.00928889401257038116 0.221164688467979431 -0.0412093140184879303
0.100314341485500336 0.0223484691232442856 -0.0660145729780197144
-0.0610205940902233124 -0.0431770496070384979 0.0358525514602661133
0.135014533996582031 -0.0241115540266036987 0.0440428182482719421
-0.00926680024713277817 0.940514862537384033 0.0170462820678949356
0.00848187040537595749 0.689757227897644043 0.00506546813994646072
-0.112982518970966339 -0.0604373812675476074 0.00681859394535422325
0.0206261053681373596 -0.0378867723047733307 -0.0745741724967956543
0.00790645647794008255 0.0381601564586162567 0.10566132515668869
-0.135279327630996704 -0.112706534564495087 -0.0208675451576709747
-0.0539464876055717468 0.0588772259652614594 0.0613007359206676483
0.174300715327262878 -0.00921173207461833954 0.0435187220573425293
-0.0155503693968057632 0.25980222225189209 0.0162233822047710419
-0.0162548013031482697 0.474991142749786377 -0.00600758567452430725
0.0477678030729293823 0.100322924554347992 0.04105382040143013
0.0478916652500629425 0.0860495269298553467 0.0373322777450084686
-0.0173974223434925079 0.181657344102859497 -0.0373495444655418396
-0.0203448068350553513 0.272520869970321655 -0.00598809868097305298
0.148853272199630737 -0.0784574747085571289 0.04236641526222229
-0.0984165593981742859 0.0202004462480545044 0.0447556748986244202
-0.0818074643611907959 0.0430491417646408081 0.062572769820690155
0.0875061973929405212 -0.115362562239170074 0.0962365716695785522
0.0848984792828559875 0.00988030619919300079 -0.0344035476446151733
-0.0372455529868602753 0.0110600730404257774 0.070499613881111145
-0.0508373044431209564 -0.0807189866900444031 0.101447001099586487
0.13580283522605896 -0.0772707611322402954 0.138139799237251282
-0.0159844420850276947 -0.029275164008140564 0.155105710029602051
-0.0371622703969478607 0.0256597753614187241 0.0430291667580604553
0.118046991527080536 -0.196863040328025818 0.148536995053291321
-0.0230272412300109863 0.379460126161575317 -0.0133638419210910797
-0.00550872273743152618 0.00231385417282581329 0.126551374793052673
-0.0691015198826789856 -0.00991090107709169388 -0.0706207901239395142
0.091035790741443634 0.0100654643028974533 0.0601614899933338165
0.0381279364228248596 0.221701279282569885 0.0263296812772750854
-0.0886285081505775452 0.0706138461828231812 0.0351172536611557007
-0.0131703093647956848 0.95355147123336792 0.012045559473335743
-0.0500376150012016296 -0.0933700278401374817 0.132602304220199585
-0.0114302970468997955 0.154003053903579712 -0.0673695579171180725
0.0486784875392913818 0.00774556025862693787 0.0527580790221691132
-0.0105321137234568596 -0.0344760045409202576 0.0445303283631801605
-0.0677355825901031494 0.0385301709175109863 0.0500812046229839325
-0.0704376623034477234 0.0245366767048835754 -0.073004208505153656
-0.0726035982370376587 -0.00847613345831632614 0.104529231786727905
-0.0145317930728197098 0.229902982711791992 -0.0298986248672008514
0.108870260417461395 -0.00431213062256574631 -0.0340175889432430267
0.0105072567239403725 -0.0197960231453180313 0.0451450198888778687
-0.00927425269037485123 0.0211317297071218491 -0.0827320665121078491
0.0906290709972381592 -0.12787570059299469 0.0663414597511291504
-0.05321546271443367 0.259340047836303711 0.0457555614411830902
-0.0220093708485364914 0.819982051849365234 0.021627429872751236
0.000250610843067988753 0.817023515701293945 -0.0100473091006278992
0.0498341396450996399 -0.0505402274429798126 0.12069142609834671
0.12442866712808609 -0.202820137143135071 0.0950063243508338928
-0.0567832328379154205 0.015978621318936348 0.091200999915599823
0.0017547274474054575 0.815334141254425049 -0.00387270352803170681
-0.0199452973902225494 0.0286952704191207886 0.0985386520624160767
0.152252376079559326 -0.0280012898147106171 0.0741106346249580383
-0.00791044160723686218 0.720836162567138672 -0.00879539921879768372
0.0849733352661132812 0.0345245376229286194 0.00479158619418740273
0.00579081755131483078 0.37805020809173584 0.0029039320070296526
-0.0971957147121429443 0.0130998697131872177 -0.0530402101576328278
-0.113130457699298859 -0.155967697501182556 0.0416229106485843658
-0.00346600683405995369 -0.0256823319941759109 0.00821896456182003021
0.00809413287788629532 -0.00831438414752483368 -0.0730102881789207458
-0.0799826830625534058 -0.0451493039727210999 -0.0250664819031953812
0.00514884293079376221 -0.0338109098374843597 0.042503703385591507
0.0602627769112586975 -0.0104858158156275749 0.0494000650942325592
0.0821247324347496033 -0.0503330118954181671 0.143421247601509094
-0.00515253609046339989 0.711752831935882568 -0.0138479191809892654
0.090599745512008667 -0.231624796986579895 0.0960935279726982117
-0.0423763468861579895 0.0384123176336288452 0.0839452892541885376
0.0522765330970287323 0.0127098392695188522 0.115422874689102173
-0.0473294109106063843 -0.0263508912175893784 0.186350002884864807
-0.131524458527565002 -0.0907197371125221252 0.182772070169448853
-0.0999443009495735168 0.0346208661794662476 -0.0313556455075740814
0.037344273179769516 0.176234811544418335 0.0485878400504589081
-0.110956035554409027 -0.155515953898429871 0.0174323469400405884
0.159207239747047424 -0.0717081576585769653 0.0543455369770526886
0.0222191512584686279 0.423617780208587646 0.0124304378405213356
0.0435582436621189117 0.0144179128110408783 0.0576644204556941986
0.0238395053893327713 -0.00821338407695293427 -0.00309917540289461613
0.0442169569432735443 -0.0296344365924596786 -0.00606652069836854935
0.0997538641095161438 -0.0334746763110160828 -0.0100650042295455933
-0.122635707259178162 0.0204523559659719467 -0.0198339354246854782
-0.00660011405125260353 0.0616265125572681427 -0.048977680504322052
0.130790561437606812 -0.192558065056800842 0.140424534678459167
0.0932265743613243103 0.00321794045157730579 0.078679107129573822
0.155620217323303223 -0.0425253622233867645 0.0215783603489398956
-0.00840055011212825775 0.963815808296203613 -0.000581222819164395332
-0.045565728098154068 0.0409590750932693481 0.109268970787525177
-0.103853076696395874 -0.0366993062198162079 0.0669046640396118164
0.0178882889449596405 -0.0318825170397758484 -0.0131879458203911781
0.0308306310325860977 -0.0298492312431335449 0.0491266213357448578
0.0314506031572818756 -0.185741394758224487 0.0826653167605400085
0.0237579178065061569 0.375050544738769531 0.010721513070166111
-0.0768890306353569031 -0.0368732623755931854 0.0122351571917533875
-0.0267565175890922546 -0.00684455502778291702 0.0608476139605045319
0.0880180671811103821 -0.0356605201959609985 -0.000974537746515125036
-0.0171847231686115265 -0.0214671529829502106 0.0908660516142845154
-0.112473398447036743 -0.0426401868462562561 0.0251248888671398163
-0.08322935551404953 0.0002264470822410658 -0.0373701043426990509
0.0358823612332344055 0.0239501148462295532 0.0696489661931991577
0.101611703634262085 -0.00423906557261943817 0.00272717350162565708
0.0185713507235050201 -0.0240556094795465469 0.120108321309089661
-0.00804897304624319077 0.092296600341796875 -0.0286783948540687561
0.00213996507227420807 0.0153675796464085579 0.034720204770565033
-0.0109335146844387054 -0.079182058572769165 0.145024538040161133
-0.0643083006143569946 0.0179594997316598892 -0.0859979242086410522
0.0288092773407697678 -0.204647436738014221 0.0803079307079315186
0.0319400690495967865 -0.0207759272307157516 0.00428952928632497787
-0.027878759428858757 0.0494925603270530701 -0.0726853534579277039
-0.0241495594382286072 0.679077088832855225 0.00974703207612037659
-0.111120283603668213 -0.0817330926656723022 0.0734790787100791931
0.000424340774770826101 0.0179399009793996811 0.0561337247490882874
0.0858696997165679932 -0.147009551525115967 0.0822770968079566956
0.188520714640617371 -0.02761119045317173 0.0617249011993408203
0.0450306124985218048 -0.0094801243394613266 0.116525024175643921
-0.00850172713398933411 0.788876891136169434 -0.00822470802813768387
0.0758303627371788025 -0.0702368319034576416 0.0769957453012466431
0.0522979721426963806 -0.164883658289909363 0.113570697605609894
-0.078972451388835907 -0.190794944763183594 0.0602104663848876953
0.0225793644785881042 0.0199167449027299881 0.0806358978152275085
-0.103075362741947174 0.0283394549041986465 -0.0134846949949860573
-0.10365092009305954 -0.078848719596862793 0.0765288993716239929
0.0502671226859092712 -0.260274589061737061 0.135323137044906616
-0.121085003018379211 -0.141399592161178589 0.0931697040796279907
0.00397962611168622971 0.442438602447509766 -0.00586250191554427147
0.187388047575950623 -0.0750888735055923462 0.0069041023962199688
0.00641813222318887711 0.182047590613365173 -0.0366378240287303925
0.122188135981559753 -0.116660118103027344 0.127548828721046448
0.104587070643901825 -0.0866720229387283325 0.055607084184885025
-0.064227081835269928 0.107753634452819824 0.0624993406236171722
0.0638704299926757812 0.0424499697983264923 0.0500281266868114471
0.0652656704187393188 0.0637842640280723572 0.0352286137640476227
-0.0594051070511341095 -0.0182193554937839508 -0.0855895429849624634
-0.12833702564239502 -0.141266047954559326 -0.00358550390228629112
0.0108299367129802704 0.214353412389755249 0.0376191176474094391
-0.0850472003221511841 -0.0601250119507312775 0.0915275439620018005
0.0512053817510604858 0.0274693723767995834 0.0421610139310359955
-0.0544240884482860565 0.00178962759673595428 -0.0518759936094284058
-0.0644776374101638794 -0.101522758603096008 0.171039670705795288
-0.116326071321964264 0.0352753289043903351 -0.0150728756561875343
0.189633503556251526 -0.0947878509759902954 0.0395522378385066986
-0.146641641855239868 0.000435555586591362953 -0.0296793896704912186
0.0839904695749282837 0.00739825237542390823 -0.0293206721544265747
-0.049964509904384613 -0.153812304139137268 0.133115813136100769
-0.0771836414933204651 0.106293424963951111 0.0334551669657230377
0.0812791809439659119 -0.152236148715019226 0.066955074667930603
0.118992887437343597 0.0313405729830265045 0.0933577939867973328
-0.0234800074249505997 -0.00491942791268229485 0.13720954954624176
-0.0886411294341087341 0.00228569679893553257 -0.0175651423633098602
