ply
format ascii 1.0
element vertex 717
property float x
property float y
property float z
end_header
-0.059763152152299881 -0.593169748783111572 -0.0830850601196289062
-0.0653109997510910034 -0.214174389839172363 0.453943789005279541
0.474936574697494507 0.126252278685569763 -0.0375719480216503143
-0.0178190488368272781 -0.686020016670227051 -0.10797390341758728
-0.657550275325775146 0.145084738731384277 0.417436152696609497
0.385154306888580322 0.278989613056182861 0.269290328025817871
0.051805347204208374 -0.3353690505027771 -0.145967096090316772
0.0123245557770133018 -0.564557552337646484 -0.0960640683770179749
-0.0901865139603614807 -0.108871504664421082 -0.23135201632976532
0.421863198280334473 0.136188283562660217 0.19337800145149231
-0.0564560890197753906 0.000271679280558601022 0.578150570392608643
-0.00987371616065502167 -0.388656169176101685 -0.107741035521030426
0.0253932122141122818 -0.6979561448097229 0.00330260791815817356
0.0306648742407560349 0.0871632620692253113 0.584598302841186523
0.00190806575119495392 -0.803692102432250977 -0.112295620143413544
0.0142017276957631111 -0.770913183689117432 -0.12232121080160141
0.439655989408493042 -0.0654917806386947632 0.673960685729980469
0.282763034105300903 -0.0800923556089401245 0.607493937015533447
-0.659659445285797119 -0.00146894692443311214 0.0220752358436584473
0.156741142272949219 0.00571686122566461563 0.18848380446434021
-0.254084765911102295 0.00941321346908807755 0.745585441589355469
0.464941054582595825 -0.0344176515936851501 0.314723998308181763
-0.717381596565246582 0.132485121488571167 0.35524594783782959
0.0117085026577115059 0.338927030563354492 0.00988931488245725632
-0.0180127881467342377 -0.8239632248878479 -0.0864064693450927734
-0.00136677490081638098 0.330993771553039551 0.132339775562286377
-0.617563605308532715 0.135586649179458618 0.356375306844711304
0.0347041822969913483 0.395621269941329956 0.154829427599906921
-0.155657947063446045 -0.0359732657670974731 0.661423623561859131
-0.0668373852968215942 -0.673528790473937988 -0.0400788895785808563
-0.0785258039832115173 0.205008983612060547 0.0933964997529983521
-0.624485135078430176 0.117598585784435272 0.446361273527145386
-0.00270710489712655544 -0.681818962097167969 -0.0621730834245681763
-0.639324367046356201 0.109659940004348755 0.501066446304321289
-0.0325468853116035461 0.264547944068908691 0.27365344762802124
0.288876771926879883 -0.0582152456045150757 0.538839221000671387
0.0872847959399223328 -0.789163649082183838 -0.063879847526550293
-0.688713669776916504 0.00358106405474245548 0.0256746280938386917
-0.863191843032836914 -0.0409979075193405151 -0.0960946008563041687
-0.752472937107086182 0.0224939100444316864 0.13867264986038208
0.14416038990020752 0.315678149461746216 0.187588244676589966
-0.361268877983093262 0.108083069324493408 0.389885455369949341
0.0135924946516752243 -0.613228380680084229 -0.139606520533561707
-0.712107598781585693 0.0531249754130840302 0.196481764316558838
0.334169894456863403 -0.067310824990272522 0.622446238994598389
0.399763911962509155 0.207918345928192139 0.0631550699472427368
0.00352322077378630638 -0.430694133043289185 -0.107597008347511292
-0.0865768790245056152 0.174637377262115479 0.0263037532567977905
-0.227853685617446899 -0.0685426443815231323 0.674911916255950928
-0.0480991639196872711 0.048281937837600708 0.573679804801940918
-0.744827091693878174 0.12805861234664917 0.439564377069473267
-0.0796223357319831848 -0.255791008472442627 0.0258942600339651108
0.391485244035720825 -0.00600011600181460381 0.3523826003074646
0.403242051601409912 -0.0539231635630130768 0.606312215328216553
0.219621032476425171 0.221738547086715698 0.287201285362243652
0.0442339889705181122 -0.656710624694824219 -0.067252524197101593
0.588521361351013184 0.0472514182329177856 0.288207590579986572
-0.637709081172943115 -0.0635085776448249817 -0.197695791721343994
-0.117238506674766541 0.122948698699474335 0.714842855930328369
0.0150522487238049507 -0.0895141586661338806 0.45840156078338623
-0.0732564106583595276 0.151932880282402039 0.698772549629211426
-0.0332916863262653351 -0.729586541652679443 -0.0736583396792411804
0.240105479955673218 0.194515705108642578 0.127772256731987
0.482296586036682129 -0.0475521348416805267 0.449133098125457764
-0.489248871803283691 0.349454104900360107 -0.234594270586967468
0.521385729312896729 -0.0305703040212392807 0.464703142642974854
0.227059945464134216 0.202202603220939636 0.240954950451850891
0.181727036833763123 -0.0215435270220041275 0.415949195623397827
-0.0535792186856269836 -0.808403074741363525 -0.0583186820149421692
-0.0254963543266057968 -0.0303102228790521622 0.527390241622924805
-0.00515318894758820534 -0.0850915014743804932 0.268902748823165894
-0.168187886476516724 0.00997859984636306763 0.655620336532592773
0.479095399379730225 0.0443889684975147247 0.141864970326423645
0.0289461705833673477 -0.676145017147064209 -0.0440436452627182007
0.104819402098655701 0.134706020355224609 0.586633801460266113
-0.738006949424743652 0.0614754967391490936 0.159371688961982727
0.0418736264109611511 -0.603658139705657959 -0.0732994973659515381
-0.300107806921005249 0.340894848108291626 -0.25309455394744873
-0.108459107577800751 -0.363942444324493408 -0.0650168433785438538
-0.100772231817245483 0.180106550455093384 0.307246744632720947
0.469253599643707275 0.160753607749938965 -0.144797995686531067
0.0846094340085983276 -0.152586236596107483 -0.112120583653450012
-0.00797574874013662338 -0.786747217178344727 -0.0171546321362257004
-0.0297134611755609512 -0.730009257793426514 -0.10528312623500824
-0.0244122147560119629 -0.479554891586303711 -0.0684513300657272339
0.276659607887268066 -0.108944468200206757 0.256859421730041504
0.0266128424555063248 0.139201372861862183 0.619406282901763916
-0.619795918464660645 0.0419255197048187256 0.150256961584091187
0.381057649850845337 0.308921962976455688 0.2079344242811203
0.0795569270849227905 -0.062110021710395813 0.439186543226242065
-0.00787507370114326477 0.332287579774856567 0.149214714765548706
0.0938098803162574768 -0.704597890377044678 -0.0669502615928649902
-0.00662005180492997169 -0.557669401168823242 -0.0453968271613121033
0.0444679185748100281 -0.650550425052642822 -0.0732332393527030945
0.406544268131256104 0.190715864300727844 0.162808194756507874
0.151100084185600281 -0.0739502608776092529 0.41864621639251709
-0.869952619075775146 -0.0626652315258979797 -0.174674317240715027
-0.26163327693939209 0.375489890575408936 -0.240318596363067627
0.0610965676605701447 -0.669888973236083984 -0.0625370815396308899
0.507768869400024414 -0.0815555229783058167 0.537349224090576172
0.041787225753068924 0.422279030084609985 0.199292242527008057
-0.641125142574310303 -0.0494278334081172943 -0.180852502584457397
-0.650546848773956299 0.142747610807418823 0.158228307962417603
-0.410121262073516846 0.108522094786167145 0.263606995344161987
0.00177404435817152262 -0.345945447683334351 -0.0448712818324565887
-0.610394418239593506 0.111332163214683533 0.427671521902084351
0.363440364599227905 0.0133133810013532639 0.268379032611846924
0.425726354122161865 0.200471401214599609 -0.115413159132003784
-0.0406729802489280701 -0.621722817420959473 -0.114964783191680908
0.522727310657501221 -0.0151995010673999786 0.380298972129821777
0.0313036330044269562 -0.685505807399749756 -0.0890899226069450378
0.277601093053817749 0.138114646077156067 0.377372115850448608
0.47397315502166748 0.208442479372024536 -0.196974292397499084
0.322151839733123779 0.112615250051021576 0.285368800163269043
0.296242445707321167 0.171693593263626099 0.526851356029510498
0.2440967857837677 0.221684515476226807 0.480271369218826294
-0.679164528846740723 0.130097433924674988 0.494422107934951782
0.0479721501469612122 -0.516217529773712158 -0.0521274246275424957
0.504466891288757324 0.196935012936592102 -0.146298214793205261
0.0543593540787696838 -0.811446428298950195 -0.031125267967581749
0.217077001929283142 0.236788064241409302 0.280192553997039795
-0.166833147406578064 0.0967263579368591309 0.340972185134887695
-0.363581329584121704 0.0923915430903434753 0.495772212743759155
-0.0351875275373458862 0.296957582235336304 0.274341404438018799
-0.0336683578789234161 0.176595091819763184 0.693375945091247559
0.486329942941665649 0.0266650747507810593 0.0718596279621124268
0.0861340537667274475 -0.403445273637771606 0.0092202918604016304
0.129842266440391541 -0.0483440645039081573 -0.123086206614971161
0.0130318086594343185 0.124822348356246948 0.629051089286804199
-0.0950979292392730713 -0.406665712594985962 -0.0538919605314731598
0.271350681781768799 0.143128052353858948 0.166601687669754028
0.0276373233646154404 -0.62863004207611084 -0.106001026928424835
0.513594746589660645 -0.035926133394241333 0.439840704202651978
-0.0557606592774391174 -0.628841102123260498 -0.0487750284373760223
-0.0358162522315979004 -0.60643303394317627 -0.0343183502554893494
-0.0762823000550270081 0.182640001177787781 0.0520966760814189911
-0.0926812812685966492 0.166016101837158203 0.128658100962638855
0.0373168885707855225 -0.0904675796627998352 0.430221796035766602
0.519781649112701416 -0.0986839160323143005 0.701707780361175537
-0.392041951417922974 0.0959694087505340576 0.352226108312606812
0.225980266928672791 0.208855107426643372 0.260880798101425171
0.396544963121414185 0.044054519385099411 0.241625353693962097
0.448610007762908936 0.326649904251098633 -0.179525882005691528
-0.0345535911619663239 0.210277557373046875 0.73127436637878418
0.263880372047424316 0.244411364197731018 0.536045670509338379
0.38546597957611084 0.0181588400155305862 0.127072259783744812
0.199676916003227234 0.204256162047386169 0.22853463888168335
-0.601830959320068359 0.109395936131477356 0.319514840841293335
0.392721772193908691 0.258741140365600586 0.332608520984649658
0.402368098497390747 0.00890900474041700363 0.350224673748016357
-0.628266215324401855 -0.0128490971401333809 0.00663282861933112144
-0.0034952978603541851 -0.76026839017868042 -0.156563699245452881
0.107787288725376129 0.363123774528503418 0.30375400185585022
0.0127160195261240005 -0.555541396141052246 -0.147236987948417664
-0.141663700342178345 0.157027199864387512 0.375428229570388794
0.495046317577362061 0.085612170398235321 -0.107299692928791046
0.0482280589640140533 -0.74647057056427002 -0.0656620264053344727
-0.14519798755645752 0.168737024068832397 0.482651352882385254
-0.0669629126787185669 0.251790761947631836 0.362642377614974976
-0.0510550886392593384 -0.562101125717163086 -0.0325003489851951599
0.531405806541442871 0.0281695667654275894 0.288958609104156494
-0.0283086709678173065 0.247530490159988403 0.312201440334320068
0.437508285045623779 0.365779727697372437 -0.209657147526741028
-0.729232132434844971 -0.0253576245158910751 -0.0195582453161478043
-0.323384791612625122 0.118188068270683289 0.312698811292648315
-0.101371027529239655 -0.546299338340759277 -0.0436309650540351868
0.0581241138279438019 -0.182664185762405396 0.389562755823135376
-0.228340193629264832 0.126055449247360229 0.391687124967575073
-0.136077374219894409 0.135909661650657654 0.376265525817871094
0.00106287014205008745 -0.0310703665018081665 0.500261366367340088
-0.0403772853314876556 0.110187307000160217 0.644219279289245605
-0.951123535633087158 -0.0823767408728599548 -0.213673561811447144
0.616099715232849121 -0.0254486538469791412 0.598795294761657715
-0.123113133013248444 0.150448247790336609 0.0992014408111572266
0.0840266719460487366 0.239549770951271057 0.677375555038452148
0.149114921689033508 0.306251049041748047 0.153310418128967285
-0.761461257934570312 -0.0620723515748977661 -0.111639626324176788
0.101451829075813293 0.260519713163375854 0.683126091957092285
0.380166441202163696 -0.0935796201229095459 0.632649064064025879
0.462486714124679565 -0.00114016130100935698 0.329395145177841187
-0.797313153743743896 0.0153978355228900909 0.138292565941810608
0.445156127214431763 0.201212719082832336 -0.120362326502799988
0.071640506386756897 -0.412492573261260986 -0.00067202060017734766
-0.834680318832397461 -0.0534471757709980011 -0.0803149044513702393
0.0354081876575946808 -0.489580541849136353 -0.0600827448070049286
-0.580673038959503174 0.108367547392845154 0.302663803100585938
0.493300825357437134 0.181918755173683167 -0.177854105830192566
0.267299622297286987 0.21745617687702179 0.573204278945922852
-0.254848301410675049 0.0966962650418281555 0.51379317045211792
-0.320187509059906006 0.080605722963809967 0.452215582132339478
0.0122608719393610954 -0.702190041542053223 -0.0926899313926696777
0.0418224893510341644 -0.334322303533554077 -0.14823584258556366
0.00483173690736293793 -0.745612919330596924 0.00157200219109654427
0.0695560574531555176 -0.719982624053955078 -0.0471867397427558899
-0.0700319036841392517 0.168919414281845093 0.267918586730957031
0.428611934185028076 0.194597840309143066 -0.0793296545743942261
-0.0171885993331670761 -0.587012588977813721 -0.0243943314999341965
0.0748375877737998962 -0.821413278579711914 -0.00733784912154078484
-0.00771631626412272453 0.031702868640422821 0.473258107900619507
-0.0353226512670516968 -0.169275984168052673 0.462879478931427002
0.474985480308532715 0.0300900060683488846 0.217032715678215027
-0.0416732393205165863 0.295545071363449097 0.219517946243286133
0.224526882171630859 0.240565404295921326 0.405339956283569336
-0.169950708746910095 0.035748705267906189 0.69238203763961792
0.0207671076059341431 0.354145944118499756 0.0736229568719863892
0.505667030811309814 0.0432574860751628876 -0.0716069340705871582
-0.13160233199596405 0.0923445969820022583 0.0949837863445281982
-0.0585785061120986938 0.225262686610221863 0.141367435455322266
0.526611626148223877 -0.0686011314392089844 0.731725335121154785
0.391256988048553467 0.356051981449127197 -0.114436119794845581
-0.370841741561889648 0.0919360294938087463 0.440588295459747314
0.641781210899353027 0.0297286435961723328 0.276687800884246826
0.0439061075448989868 -0.444436818361282349 -0.118331879377365112
0.00419434346258640289 -0.661243140697479248 -0.0901177152991294861
-0.054627738893032074 0.33435472846031189 0.433174550533294678
-0.22401893138885498 -0.0238996576517820358 0.142030760645866394
0.495917469263076782 -0.0756932720541954041 0.644410490989685059
-0.067494124174118042 0.228909388184547424 0.207125455141067505
-0.568512916564941406 0.00772806210443377495 0.0373055338859558105
-0.0302159115672111511 -0.769012331962585449 -0.0523452684283256531
-0.0248742960393428802 -0.770425379276275635 -0.0803230032324790955
0.188878923654556274 0.0771203786134719849 0.279294580221176147
0.517248749732971191 0.0804139003157615662 -0.23253244161605835
-0.198596000671386719 -0.0836302116513252258 0.106590911746025085
-0.541862308979034424 0.110480599105358124 0.32447698712348938
0.468172699213027954 -0.0175386127084493637 0.393937975168228149
-0.255623906850814819 0.0943106710910797119 0.500082075595855713
0.0306460876017808914 -0.750307023525238037 -0.00730624189600348473
0.0408705733716487885 -0.575415909290313721 -0.129106640815734863
0.587424576282501221 -0.0752475336194038391 0.650226593017578125
0.074085824191570282 -0.116629026830196381 0.410868972539901733
-0.855908036231994629 -0.000422901968704536557 0.0570360869169235229
0.380441546440124512 -0.00334065943025052547 0.309743940830230713
-0.424064874649047852 0.0990996882319450378 0.479884505271911621
-0.55475538969039917 0.0204941928386688232 0.0829700008034706116
0.107425421476364136 -0.76777338981628418 -0.0367542803287506104
-0.0139408968389034271 -0.000190901380847208202 0.511532485485076904
0.0582292713224887848 -0.269105195999145508 0.0158619992434978485
-0.591264605522155762 0.108526915311813354 0.426116645336151123
-0.310428082942962646 0.0998687595129013062 0.51364511251449585
-0.498373866081237793 0.351389259099960327 -0.214275762438774109
0.280820459127426147 0.107669815421104431 0.124994538724422455
0.705954134464263916 -0.0210451520979404449 0.523138225078582764
0.0597237050533294678 -0.862785816192626953 -0.0568302758038043976
0.481884360313415527 0.0172974728047847748 0.300451546907424927
0.062441851943731308 -0.200640022754669189 -0.00436401506885886192
0.390543997287750244 0.281147688627243042 0.0300683807581663132
-0.155020624399185181 0.0968197062611579895 0.252177834510803223
0.0427259653806686401 -0.654731214046478271 -0.0183047186583280563
0.0297013800591230392 -0.629625260829925537 0.0161590222269296646
-0.707782149314880371 0.0295142102986574173 0.128845557570457458
0.358644813299179077 0.400229841470718384 -0.0280295927077531815
-0.0253192763775587082 0.278967499732971191 0.19085182249546051
0.0428363494575023651 0.464469790458679199 0.238144651055335999
0.0537429600954055786 -0.662542283535003662 -0.00900466088205575943
0.0390208996832370758 -0.678240001201629639 -0.0101638361811637878
0.526302576065063477 -0.099424317479133606 0.164351135492324829
-0.180536970496177673 -0.0273832604289054871 -0.172592118382453918
0.15748479962348938 0.371923863887786865 0.466849058866500854
0.180489689111709595 -0.0842153206467628479 0.00207952968776226044
0.263653606176376343 0.143809229135513306 0.205827623605728149
-0.0131790740415453911 -0.70671999454498291 -0.0615946315228939056
0.482674300670623779 0.0506373345851898193 -0.0289349276572465897
0.380727767944335938 0.285906046628952026 0.230199575424194336
0.0417337007820606232 0.205792456865310669 0.665725231170654297
-0.176444217562675476 0.104112513363361359 0.459908872842788696
0.0178618524223566055 -0.705623269081115723 -0.112187795341014862
-0.113550193607807159 0.201997339725494385 0.472213447093963623
-0.217844009399414062 0.0231920499354600906 0.36878514289855957
0.500246882438659668 0.00359913986176252365 0.302968502044677734
0.530651509761810303 -0.0321343205869197845 0.13614298403263092
-0.0268743745982646942 -0.444330006837844849 -0.071657426655292511
0.159927859902381897 0.338155239820480347 0.436869531869888306
0.134180232882499695 0.339465439319610596 0.25455474853515625
0.441357851028442383 0.114716321229934692 -0.0841744467616081238
-0.477395504713058472 0.122846923768520355 0.606091082096099854
-0.0596447065472602844 0.246351912617683411 0.111564002931118011
0.442880928516387939 0.228930428624153137 -0.257139533758163452
-0.0767788141965866089 0.30480802059173584 0.486620187759399414
-0.0715984851121902466 -0.699732184410095215 -0.0224983226507902145
0.424900084733963013 0.172916010022163391 0.259653419256210327
0.263751775026321411 -0.0663393884897232056 0.515777647495269775
-0.674875319004058838 0.138223648071289062 0.241476684808731079
-0.169280901551246643 0.127609744668006897 0.766810476779937744
-0.0671262219548225403 0.198627695441246033 0.191567778587341309
-0.000689081964083015919 -0.60577017068862915 -0.119207091629505157
0.0563780926167964935 -0.526538968086242676 -0.0323497094213962555
0.00051760359201580286 -0.64198535680770874 0.0283919703215360641
0.578742504119873047 -0.0471671074628829956 0.524136185646057129
0.432817935943603516 0.228147029876708984 -0.147076144814491272
-0.0156109966337680817 -0.358059227466583252 -0.0786402150988578796
-0.371015787124633789 0.0980078652501106262 0.285084903240203857
0.0369746461510658264 0.178790256381034851 0.631444275379180908
0.450764328241348267 0.113116547465324402 0.185289427638053894
0.672535717487335205 0.00927046127617359161 0.358925491571426392
0.418251335620880127 0.148187160491943359 0.0550513528287410736
-0.743002653121948242 0.0490901283919811249 0.119035221636295319
-0.234924778342247009 0.0238537359982728958 0.736579954624176025
-0.0135077312588691711 -0.768157243728637695 -0.011984153650701046
0.342077374458312988 0.00361703475937247276 0.284722268581390381
0.17493245005607605 0.24879138171672821 0.141455903649330139
0.598576664924621582 -0.0252041015774011612 0.47195395827293396
0.392720252275466919 0.28429451584815979 -0.00954927131533622742
-0.0248220823705196381 -0.500771701335906982 -0.0754043981432914734
0.590571761131286621 0.0423018410801887512 0.285414248704910278
-0.287845253944396973 0.100854203104972839 0.397406309843063354
-0.185397699475288391 -0.132177308201789856 0.0949663743376731873
0.0226954072713851929 -0.476655542850494385 -0.00753187108784914017
0.423917472362518311 0.119830116629600525 0.144411563873291016
-0.81109774112701416 -0.00189926137682050467 0.0520836114883422852
-0.000397676281863823533 0.139780968427658081 0.626395642757415771
-0.0750903040170669556 -0.103573441505432129 -0.243320435285568237
-0.847039222717285156 -0.0204028896987438202 0.00720695313066244125
0.284404098987579346 0.138054952025413513 0.18292669951915741
-0.0495431013405323029 0.266757577657699585 0.147844269871711731
-0.857758581638336182 -0.0636760294437408447 -0.17005494236946106
0.449980854988098145 -0.014767007902264595 0.341464102268218994
0.245306596159934998 0.132014468312263489 0.0876666679978370667
-0.00841990672051906586 0.389312267303466797 0.341045141220092773
-0.464424073696136475 0.105695076286792755 0.512962698936462402
-0.249159589409828186 0.00768511323258280754 0.355041056871414185
0.469071537256240845 0.0544684603810310364 0.264281213283538818
-0.33271440863609314 0.125074416399002075 0.190893858671188354
0.417012333869934082 0.118087850511074066 0.131829217076301575
-0.023797968402504921 -0.513438820838928223 -0.0405022464692592621
0.448212891817092896 0.113305851817131042 0.0907630622386932373
-0.449667602777481079 0.0984912067651748657 0.421279758214950562
0.0484080612659454346 0.0994984135031700134 0.55933612585067749
-0.117590039968490601 0.112906515598297119 -0.0325148999691009521
0.162827730178833008 0.277607738971710205 0.220567718148231506
0.504033207893371582 -0.0137057909741997719 0.407330453395843506
-0.102653063833713531 -0.216857507824897766 0.0345470570027828217
-0.0911856964230537415 0.0187616366893053055 0.618208885192871094
-0.0747438818216323853 0.212649017572402954 0.306914806365966797
0.385618746280670166 0.217839837074279785 0.182095363736152649
-0.750683426856994629 -0.0583463497459888458 -0.0521260984241962433
-0.0829179510474205017 0.180467948317527771 0.725514829158782959
-0.0809831991791725159 0.178148210048675537 0.0791812464594841003
0.680571019649505615 -0.0204612836241722107 0.511299014091491699
-0.505649864673614502 0.0272590331733226776 0.0476423650979995728
0.416235685348510742 0.170816093683242798 0.0861864909529685974
-0.761137485504150391 -0.0460776686668395996 -0.0527163557708263397
-0.760506570339202881 0.0180544368922710419 0.147917374968528748
-0.755070388317108154 -0.0125978775322437286 0.00922973547130823135
-0.480918049812316895 0.0860991403460502625 0.344379693269729614
0.49925658106803894 -0.0132195185869932175 0.193431243300437927
0.41902458667755127 0.133650556206703186 0.0326361767947673798
0.473816126585006714 0.0811490714550018311 0.134416073560714722
-0.658495247364044189 0.129641667008399963 0.599877357482910156
-0.571698963642120361 0.11464700847864151 0.482614964246749878
-0.00541700422763824463 -0.836439669132232666 -0.10677298903465271
0.435360550880432129 0.114806979894638062 0.0468636117875576019
0.448993146419525146 0.0823493227362632751 0.25629386305809021
0.49046817421913147 -0.0220867171883583069 0.141452893614768982
0.00979863014072179794 -0.440760433673858643 -0.0838832035660743713
-0.897502601146697998 0.0395063087344169617 0.149713709950447083
0.0307136103510856628 -0.426207929849624634 -0.0943301171064376831
0.434486299753189087 0.144599109888076782 0.349728763103485107
0.0485979467630386353 0.197809010744094849 0.671463310718536377
0.674062073230743408 -0.0552243515849113464 0.692119896411895752
0.216512322425842285 0.0658775866031646729 -0.156837224960327148
0.263678848743438721 0.194699883460998535 0.500042557716369629
-0.0344241708517074585 0.273670434951782227 0.00985304918140172958
-0.101365923881530762 0.159813761711120605 0.0407852679491043091
0.169120550155639648 -0.217722594738006592 0.133144870400428772
-0.0206264220178127289 -0.58360135555267334 -0.109831966459751129
-0.0950484424829483032 0.134336844086647034 -0.039118938148021698
-0.035423770546913147 -0.657931804656982422 -0.092245444655418396
0.512666046619415283 0.0320645980536937714 -0.247446164488792419
0.455560833215713501 -0.0729706883430480957 0.684813082218170166
-0.0323951020836830139 -0.571679949760437012 -0.0661858096718788147
0.0521465018391609192 -0.432468295097351074 -0.0816366001963615417
0.481084555387496948 0.0167369134724140167 -0.114156812429428101
0.525844156742095947 -0.028661724179983139 -0.0377097651362419128
0.523960471153259277 0.147880345582962036 -0.164956614375114441
0.0210919976234436035 -0.188828751444816589 0.407799661159515381
-0.360269814729690552 0.0936805158853530884 0.484973132610321045
-0.120562918484210968 0.0133738433942198753 0.630145251750946045
0.234205305576324463 0.154313251376152039 0.490646243095397949
0.601266741752624512 0.0035763145424425602 0.323686778545379639
0.0235318690538406372 -0.390500098466873169 -0.125725939869880676
-0.885339796543121338 -0.0319704897701740265 -0.0983872562646865845
0.521812319755554199 -0.0673433244228363037 0.521101772785186768
-0.0150667969137430191 -0.734074592590332031 -0.052752375602722168
-0.331613719463348389 0.0953494235873222351 0.213819950819015503
-0.565155863761901855 0.112188093364238739 0.548355758190155029
-0.820683300495147705 -0.0086050787940621376 0.0301716085523366928
-0.500978171825408936 0.108269684016704559 0.327391684055328369
-0.0614723972976207733 0.288751542568206787 0.356533199548721313
0.0560212992131710052 0.216828957200050354 0.652651607990264893
-0.0564465560019016266 0.0961906909942626953 0.638128042221069336
0.186281532049179077 0.290479481220245361 0.311101794242858887
0.399033516645431519 0.226909458637237549 0.308672249317169189
0.524881303310394287 -0.0819540619850158691 -0.0352685824036598206
-0.686083018779754639 -0.0667593181133270264 -0.178826794028282166
0.463571727275848389 0.0468979254364967346 0.102835334837436676
0.0988352075219154358 -0.573295116424560547 -0.0508776344358921051
-0.0751218199729919434 0.148271873593330383 0.16922450065612793
-0.701521992683410645 0.123496741056442261 0.377700090408325195
0.0282703805714845657 -0.851524472236633301 -0.035665169358253479
0.058024086058139801 -0.611343324184417725 -0.10178983211517334
0.76049649715423584 0.00447677634656429291 0.472682207822799683
0.00967496633529663086 -0.153549939393997192 0.0034932431299239397
0.631238639354705811 0.0216914359480142593 0.296198844909667969
-0.131811454892158508 0.124841220676898956 0.74198073148727417
0.122522227466106415 0.344871431589126587 0.187735676765441895
-0.128470629453659058 0.0628120824694633484 0.674915969371795654
0.00331098632887005806 0.341532349586486816 0.190852761268615723
-0.0414084494113922119 -0.814953446388244629 -0.0902943611145019531
0.462951332330703735 -0.062178879976272583 0.500175416469573975
0.183861464262008667 0.114435061812400818 0.501832544803619385
-0.527676761150360107 0.114753112196922302 0.46009489893913269
0.264779657125473022 -0.109311990439891815 0.222556054592132568
0.276303917169570923 0.215319439768791199 0.527889072895050049
-0.133187919855117798 0.136356443166732788 0.306634336709976196
0.49219667911529541 0.0100459083914756775 0.185453414916992188
-0.910854339599609375 -0.0331804528832435608 -0.0562279820442199707
0.03495774045586586 -0.778821706771850586 -0.0809273794293403625
0.246430948376655579 0.280796021223068237 0.605114638805389404
-0.732252001762390137 0.00563573278486728668 0.0848226845264434814
0.0472532808780670166 -0.279879510402679443 -0.165539026260375977
-0.02612343430519104 -0.738292396068572998 -0.0480020642280578613
0.453853726387023926 -0.0969762951135635376 0.714506804943084717
-0.0807117745280265808 -0.143797308206558228 -0.220076888799667358
0.00409140344709157944 -0.297421097755432129 -0.0984834656119346619
-0.462972939014434814 0.350359827280044556 -0.222845658659934998
0.0595922209322452545 -0.613858878612518311 -0.0276873335242271423
0.140608489513397217 -0.151714473962783813 -0.0102502563968300819
0.239276885986328125 -0.071631304919719696 0.618659853935241699
0.10223446786403656 -0.649308383464813232 -0.0900990068912506104
-0.587302565574645996 -0.00928980391472578049 -0.0366245917975902557
-0.55331110954284668 0.035263843834400177 0.124512523412704468
-0.63151395320892334 0.147899165749549866 0.158561006188392639
0.488774478435516357 0.0706054717302322388 -0.0883248746395111084
0.387777566909790039 0.261624008417129517 0.213263660669326782
-0.00666103744879364967 0.362355232238769531 0.129584759473800659
0.0610974319279193878 -0.338549494743347168 -0.0996101200580596924
-0.437663882970809937 0.111835159361362457 0.518990218639373779
0.441088438034057617 0.118025325238704681 0.270186185836791992
-0.0110292891040444374 0.320459365844726562 0.0773050114512443542
-0.0522777363657951355 -0.0926261097192764282 0.515521109104156494
0.399161219596862793 -0.0750448703765869141 0.364165365695953369
0.223492339253425598 0.257838577032089233 0.555840909481048584
0.573614239692687988 -0.0504010915756225586 0.485939830541610718
-0.0231312345713376999 -0.436161339282989502 -0.0176756549626588821
-0.565376698970794678 0.120673850178718567 0.188534751534461975
-0.863421916961669922 -0.0719450488686561584 -0.119319900870323181
0.513310074806213379 -0.0833974704146385193 0.614780843257904053
-0.559352099895477295 0.12565554678440094 0.49914976954460144
0.436463415622711182 0.00825002323836088181 0.285544812679290771
-0.204608723521232605 0.0459905751049518585 0.728069126605987549
0.205516159534454346 0.0859312713146209717 0.479342520236968994
0.375718206167221069 0.0368637926876544952 0.270368635654449463
0.465117901563644409 0.132570981979370117 -0.133063673973083496
0.369438290596008301 -0.0728990510106086731 0.502702593803405762
0.0579687505960464478 -0.840043902397155762 -0.0738763511180877686
0.200037956237792969 0.0449075698852539062 -0.16730867326259613
0.51549685001373291 -0.0694524943828582764 0.197191953659057617
0.516988873481750488 -0.083716563880443573 0.673534214496612549
0.520825624465942383 0.0807492733001708984 -0.203502357006072998
-0.0425477661192417145 0.0740981847047805786 0.583595514297485352
0.049387369304895401 -0.382139116525650024 -0.0849981531500816345
-0.277862310409545898 0.114227026700973511 0.460911482572555542
0.436969935894012451 0.171253889799118042 -0.0707554593682289124
0.513203084468841553 0.00823090597987174988 -0.000921908824238926172
-0.91218942403793335 0.00603926368057727814 0.0455060340464115143
-0.00288314023055136204 -0.717504978179931641 -0.0608110353350639343
-0.440064460039138794 0.0989590361714363098 0.311171293258666992
0.481600701808929443 0.0484161823987960815 0.294385075569152832
0.50677567720413208 -0.0115472264587879181 -0.257449328899383545
-0.150531694293022156 0.0914195030927658081 0.338564485311508179
0.194496005773544312 0.30396878719329834 0.404740244150161743
0.383340656757354736 0.271670401096343994 0.23069976270198822
-0.113966397941112518 0.221046298742294312 0.469914048910140991
-0.629571497440338135 -0.0741587430238723755 -0.224297210574150085
0.0571157261729240417 0.135516852140426636 0.606152474880218506
-0.380832850933074951 0.109752379357814789 0.568275272846221924
0.425479084253311157 0.185955643653869629 -0.05236019566655159
-0.0166586674749851227 -0.0381805263459682465 0.349756687879562378
0.50629955530166626 0.0084173940122127533 0.358182668685913086
0.167767003178596497 0.297535806894302368 0.30684959888458252
0.337674200534820557 0.0632568299770355225 0.304167330265045166
0.334077686071395874 -0.0993942171335220337 0.296470731496810913
-0.0131300371140241623 0.203410208225250244 0.730749726295471191
0.573415160179138184 -0.0764673277735710144 0.683992624282836914
0.0202950593084096909 -0.808084785938262939 -0.102614820003509521
-0.971411466598510742 -0.0508465096354484558 -0.128452673554420471
0.0368986763060092926 -0.608904719352722168 -0.00644396152347326279
0.106220036745071411 0.384433567523956299 0.27195778489112854
0.0684903711080551147 -0.157685622572898865 -0.0148952696472406387
0.607445180416107178 -0.0186375193297863007 0.430872559547424316
0.280608057975769043 -0.0849500074982643127 0.58901447057723999
0.454936116933822632 0.100221909582614899 0.319902777671813965
-0.124334834516048431 0.148503556847572327 0.327112734317779541
0.21184617280960083 0.209988385438919067 0.336100935935974121
0.424715429544448853 0.0256119836121797562 0.3528556227684021
0.0221619512885808945 -0.649184048175811768 -0.0334333591163158417
0.0992862358689308167 -0.352060616016387939 0.0411250032484531403
-0.77321392297744751 0.146520644426345825 0.345380485057830811
0.470432817935943604 0.0925738438963890076 0.00760386604815721512
0.404264688491821289 -0.0537126027047634125 0.567759931087493896
0.0176649671047925949 -0.553473234176635742 -0.0270947739481925964
0.0145469792187213898 -0.213933452963829041 -0.208294987678527832
0.0669751390814781189 -0.569112837314605713 -0.0162327401340007782
0.622943222522735596 0.0271700173616409302 0.363701492547988892
-0.00131648755632340908 0.171996697783470154 0.685538113117218018
0.172241583466529846 0.317014366388320923 0.405723690986633301
-0.380366235971450806 0.106984175741672516 0.215068906545639038
-0.540104389190673828 0.104715876281261444 0.216746196150779724
-0.0036340558435767889 -0.125316515564918518 0.225513651967048645
-0.00989883299916982651 -0.823298454284667969 -0.0306575354188680649
-0.0136378081515431404 -0.167575448751449585 0.458774834871292114
0.0333200134336948395 -0.536737442016601562 -0.00809324905276298523
0.0871238857507705688 -0.763133645057678223 -0.0742351934313774109
-0.0729407519102096558 0.188372611999511719 0.246295958757400513
0.452603936195373535 0.0802022367715835571 -0.0239101480692625046
0.0259105302393436432 -0.435450553894042969 0.00818423926830291748
-0.36570313572883606 0.10686858743429184 0.545308470726013184
0.317155450582504272 0.182334661483764648 0.499699711799621582
-0.197191059589385986 -0.0600536689162254333 0.661602914333343506
-0.0118296211585402489 0.337783455848693848 0.223274961113929749
-0.779413998126983643 -0.034102611243724823 0.0268733277916908264
-0.00658060656860470772 -0.480134308338165283 -0.0952566862106323242
0.211867406964302063 0.246490359306335449 0.175124913454055786
-0.563200592994689941 0.126918762922286987 0.133659049868583679
0.35700523853302002 0.0944849103689193726 0.326349735260009766
0.587022602558135986 -0.0600583106279373169 0.660715579986572266
0.0584881193935871124 -0.255669862031936646 -0.0796464830636978149
0.156557977199554443 -0.141617476940155029 -0.158494517207145691
0.0826626941561698914 -0.0842798352241516113 0.418734818696975708
0.0322778187692165375 -0.812485575675964355 -0.00945839658379554749
-0.0344650782644748688 -0.138489127159118652 0.433851331472396851
-0.0933986753225326538 0.214332893490791321 0.316780358552932739
0.0527590811252593994 -0.720590591430664062 0.0108284493908286095
0.51941227912902832 -0.0651203691959381104 0.569198489189147949
-0.713090837001800537 0.131666406989097595 0.4534798264503479
0.375962555408477783 0.317113786935806274 0.0390390008687973022
0.652845084667205811 0.0317346043884754181 0.380854129791259766
-0.0552460849285125732 -0.658535778522491455 -0.0862592980265617371
-0.137143701314926147 0.0753829777240753174 -0.00399002339690923691
-0.0395613536238670349 0.225537717342376709 0.258805185556411743
-0.590568423271179199 -0.0114146899431943893 -0.00122914847452193499
0.133379355072975159 0.334459036588668823 0.455657213926315308
0.0104238465428352356 -0.757572352886199951 -0.113596417009830475
-0.0215294305235147476 0.0171252395957708359 0.52094036340713501
-0.195826411247253418 -0.00816372595727443695 0.698440670967102051
0.455644190311431885 -0.0665062069892883301 0.617562532424926758
0.459822028875350952 0.0771015733480453491 -0.00953542720526456833
0.519856750965118408 -0.0270007085055112839 0.0434120036661624908
-0.712218225002288818 0.131220251321792603 0.276187658309936523
-0.0186785366386175156 0.143317326903343201 0.649061679840087891
-0.0301329512149095535 -0.811245322227478027 -0.0182430781424045563
0.0259229447692632675 -0.566855967044830322 -0.0124483602121472359
0.066551603376865387 -0.653316497802734375 -0.0952568873763084412
-0.0506754107773303986 0.289114475250244141 0.328229725360870361
0.389706194400787354 0.205246314406394958 0.132763177156448364
0.220297932624816895 0.289900124073028564 0.49489179253578186
0.0146240722388029099 0.415323227643966675 0.3497886061668396
0.0234938450157642365 -0.70785290002822876 0.0302504338324069977
-0.118634976446628571 -0.164774015545845032 0.0584265105426311493
-0.238935351371765137 -0.0296137407422065735 0.285237997770309448
-0.134350389242172241 0.0552032627165317535 0.657679736614227295
-0.684790611267089844 0.127122253179550171 0.410818755626678467
0.0827622488141059875 -0.813433229923248291 -0.0725349709391593933
0.503266990184783936 0.168655991554260254 -0.194121256470680237
-0.260332465171813965 0.088717140257358551 0.425178468227386475
-0.0471138358116149902 -0.763193488121032715 -0.0565005019307136536
0.206909984350204468 0.118906848132610321 0.29170757532119751
-0.944145321846008301 -0.0424760542809963226 -0.121872521936893463
0.0248167496174573898 -0.427747935056686401 -0.0652773752808570862
-0.771174490451812744 0.0086213238537311554 0.109236821532249451
-0.026257021352648735 0.0406894758343696594 0.0803766101598739624
-0.103180572390556335 0.22340703010559082 0.410829663276672363
0.121305279433727264 0.368620842695236206 0.415395498275756836
-0.520638644695281982 0.0415626130998134613 0.0799837857484817505
0.417991697788238525 0.166487902402877808 0.314328700304031372
0.290652722120285034 0.122971326112747192 0.281634211540222168
-0.2402162104845047 0.117465712130069733 0.383723974227905273
0.338881701231002808 -0.0549399405717849731 0.539473474025726318
0.435498237609863281 0.0159009397029876709 0.385978162288665771
-0.559254288673400879 -0.0071143261156976223 -0.0392839796841144562
0.460915863513946533 0.15351240336894989 0.299945831298828125
0.0468976497650146484 -0.441364943981170654 -0.028180338442325592
0.0951162651181221008 0.37413141131401062 0.21776638925075531
0.365363091230392456 0.0179915018379688263 0.305363953113555908
0.0421319343149662018 -0.48959079384803772 -0.0595287010073661804
0.0353120267391204834 -0.520848274230957031 -0.0498178750276565552
-0.0426619574427604675 -0.616424202919006348 -0.0754299238324165344
0.349793165922164917 0.033946111798286438 0.218019619584083557
0.0157911777496337891 -0.359236150979995728 -0.152748003602027893
0.0109519381076097488 -0.401393681764602661 -0.0515219420194625854
-0.227686807513237 -0.0125927412882447243 0.711801052093505859
-0.0160245150327682495 0.330357104539871216 0.298147708177566528
0.383873283863067627 0.329108268022537231 -0.134062528610229492
0.150834470987319946 0.0852923914790153503 0.501978814601898193
0.398641854524612427 0.219156414270401001 0.259467393159866333
-0.675869762897491455 0.00484655238687992096 0.0699472874402999878
0.635362207889556885 -0.0651478618383407593 0.634346663951873779
-0.0177808962762355804 -0.573091506958007812 -0.109713323414325714
-0.154556632041931152 -0.307941257953643799 -0.038872797042131424
-0.344571173191070557 0.126753464341163635 0.263736754655838013
0.651066780090332031 0.0150882797315716743 0.355980992317199707
0.0337641313672065735 -0.415660202503204346 -0.095011584460735321
-0.162240445613861084 0.0651949271559715271 0.715964317321777344
-0.74589693546295166 -0.058119356632232666 -0.1629905104637146
-0.749170899391174316 -0.0718819573521614075 -0.176373854279518127
0.107000440359115601 -0.0692364498972892761 0.102702811360359192
-0.448777109384536743 0.100054696202278137 0.586242258548736572
-0.378353089094161987 0.106934033334255219 0.62553703784942627
0.00568122090771794319 -0.836016356945037842 -0.0340774133801460266
-0.945354282855987549 -0.0352778881788253784 -0.0615498162806034088
0.630368053913116455 0.00474217487499117851 0.496545881032943726
-0.0688863024115562439 0.20103047788143158 0.197171717882156372
-0.0584176592528820038 0.24495302140712738 0.170951187610626221
0.378777056932449341 0.326700299978256226 -0.100064605474472046
0.0245700888335704803 -0.781129002571105957 -0.130907908082008362
0.0524429380893707275 -0.219351604580879211 -0.202569335699081421
-0.0680500566959381104 -0.116562947630882263 0.502285480499267578
-0.187786057591438293 0.0912426412105560303 0.404900223016738892
-0.0758995786309242249 0.211591869592666626 0.223590463399887085
-0.553938090801239014 -0.0690114349126815796 -0.0744628459215164185
-0.656943798065185547 0.141347989439964294 0.262421011924743652
0.528084278106689453 -0.0688783973455429077 -0.00587620353326201439
-0.639551460742950439 0.0513521693646907806 0.188613042235374451
0.000790755555499345064 0.376517295837402344 0.289901763200759888
-0.558615803718566895 0.108460552990436554 0.426775127649307251
-0.00142685952596366405 0.345506548881530762 0.314475566148757935
0.00259960349649190903 -0.183220028877258301 -0.0120683386921882629
0.0183370672166347504 -0.632934093475341797 -0.0933167785406112671
-0.673899292945861816 -0.039815511554479599 -0.0152318933978676796
0.025186493992805481 -0.266051709651947021 -0.191962778568267822
-0.212304338812828064 -0.0443222485482692719 0.666328728199005127
0.0550703816115856171 -0.664662003517150879 -0.0862906798720359802
0.0837528705596923828 -0.245384544134140015 0.00329716154374182224
0.429315865039825439 0.16130809485912323 -0.0461659952998161316
-0.0442483648657798767 0.264834344387054443 0.230280429124832153
-0.598849833011627197 0.018868912011384964 0.0480198822915554047
0.0537759475409984589 -0.749801039695739746 -0.0124711887910962105
0.376714557409286499 -0.00274283019825816154 0.342976212501525879
-0.0150869814679026604 -0.780311703681945801 -0.111136220395565033
0.000399199605453759432 -0.474586158990859985 -0.0449910983443260193
-0.497303605079650879 0.127282410860061646 0.414416015148162842
-1.00396120548248291 -0.00849230773746967316 -0.0453466847538948059
0.472650200128555298 0.23980480432510376 -0.220318898558616638
0.550729870796203613 -0.00653885817155241966 0.435975611209869385
0.100118674337863922 -0.0901318192481994629 0.00958447437733411789
-0.490079998970031738 0.074305117130279541 0.36961662769317627
0.515536725521087646 -0.00567849120125174522 0.108303286135196686
-0.262974292039871216 -0.205937832593917847 -0.0623393505811691284
-0.877013087272644043 -0.049437403678894043 -0.126911342144012451
0.610678017139434814 -0.00766062969341874123 0.425731271505355835
0.0223081931471824646 -0.305995404720306396 -0.134047046303749084
0.134325534105300903 0.00468278583139181137 0.166023984551429749
0.565144240856170654 -0.0469759069383144379 0.639571070671081543
0.0196812618523836136 -0.669514477252960205 -0.11351311206817627
0.757547974586486816 0.0017603341257199645 0.470540702342987061
0.412029266357421875 0.196081399917602539 0.0115205077454447746
-0.0590769946575164795 -0.735751688480377197 -0.0584430098533630371
0.00510237831622362137 -0.533820211887359619 -0.0392420291900634766
-0.344046860933303833 0.106175899505615234 0.296022027730941772
0.0366384051740169525 -0.111915804445743561 0.4359779953956604
0.16948235034942627 0.273438572883605957 0.209489613771438599
-0.00570096913725137711 -0.715046167373657227 -0.0151783879846334457
-0.349941611289978027 0.0310472548007965088 0.249117255210876465
-0.362469375133514404 0.107061609625816345 0.256015866994857788
-0.960725307464599609 -0.000362781953299418092 0.0905733257532119751
-0.0128930462524294853 -0.856081187725067139 -0.0445881113409996033
-0.210850656032562256 0.0227077919989824295 0.315573751926422119
0.00484913541004061699 0.315173119306564331 0.0985201746225357056
-0.0128981415182352066 0.311809778213500977 0.196199104189872742
0.0599380917847156525 0.161553263664245605 0.596860408782958984
-0.74137580394744873 0.132688030600547791 0.316931277513504028
-0.532996594905853271 0.026511041447520256 0.00449978234246373177
-0.972258090972900391 -0.0506257563829421997 -0.139417573809623718
0.37372666597366333 -0.0905993059277534485 0.543738305568695068
0.474455744028091431 0.0912831723690032959 -0.142839804291725159
0.109872639179229736 0.2117023766040802 0.628386378288269043
-0.0338199511170387268 -0.630041003227233887 -0.0606603585183620453
0.287583023309707642 0.191141262650489807 0.542225956916809082
-0.682164430618286133 0.144185081124305725 0.400819689035415649
0.18364405632019043 0.177317366003990173 0.546805322170257568
-0.124272331595420837 -0.155706062912940979 -0.152741208672523499
0.0473782271146774292 0.264319121837615967 0.712960183620452881
-0.130465984344482422 0.188290789723396301 0.377291470766067505
0.205605223774909973 -0.0328394398093223572 0.378380715847015381
-0.579236447811126709 0.0144542576745152473 0.104493595659732819
0.352398037910461426 0.0433951131999492645 0.250434398651123047
0.401743084192276001 0.328378528356552124 -0.246291115880012512
0.0336346849799156189 -0.735780417919158936 -0.106659255921840668
0.463707089424133301 0.0544847659766674042 0.205057308077812195
-0.0108016384765505791 -0.602965831756591797 -0.0056848619133234024
0.0775194689631462097 -0.176264628767967224 -0.0185767374932765961
-0.238508209586143494 -0.0514334440231323242 0.696014225482940674
0.672397136688232422 0.0452964119613170624 0.281358510255813599
0.0666944161057472229 -0.482673376798629761 -0.0211372748017311096
0.0999844074249267578 -0.695569097995758057 -0.0969514846801757812
0.150874346494674683 0.309488207101821899 0.351058065891265869
-0.00705712428316473961 0.36846962571144104 0.238451138138771057
-0.723999500274658203 -0.0616890713572502136 -0.102304041385650635
0.0579602383077144623 -0.754403352737426758 0.0102111212909221649
0.0706033185124397278 -0.75178152322769165 -0.0738966986536979675
-0.664264678955078125 -0.0243491251021623611 -0.0199832841753959656
-0.0679261982440948486 0.219592317938804626 0.0213448051363229752
0.107519172132015228 0.352874219417572021 0.234802901744842529
0.0408046059310436249 -0.54014056921005249 -0.0761946961283683777
0.640207111835479736 -0.0753339380025863647 0.684920430183410645
0.00054652505787089467 -0.671467959880828857 -0.129913106560707092
0.0478682667016983032 -0.736282467842102051 -0.086861729621887207
0.544197022914886475 -0.0651162117719650269 0.634522974491119385
0.0336003638803958893 -0.0174047760665416718 0.506211459636688232
-0.241910427808761597 0.119451500475406647 0.244512885808944702
0.194816768169403076 0.260355949401855469 0.311103016138076782
-0.516714692115783691 0.118086621165275574 0.272416830062866211
-0.118430294096469879 0.105247326195240021 0.712179362773895264
0.346559405326843262 -0.0618123561143875122 0.519685566425323486
0.0291357338428497314 0.423741191625595093 0.192939028143882751
-0.140394508838653564 0.0881655290722846985 0.279512643814086914
