ply
format ascii 1.0
element vertex 717
property float x
property float y
property float z
end_header
-0.0822428688406944275 0.245480075478553772 0.107537873089313507
-0.115249060094356537 -0.354747533798217773 -0.017317596822977066
-0.212608113884925842 -0.0716663002967834473 0.188991725444793701
0.108256101608276367 0.522176086902618408 -0.0407010354101657867
-0.250533431768417358 0.0812329128384590149 0.0207486152648925781
-0.126585066318511963 0.29186597466468811 -0.25710606575012207
-0.058234579861164093 -0.161630153656005859 0.141868919134140015
-0.0675988197326660156 0.359770983457565308 -0.263375639915466309
-0.176486626267433167 -0.058834712952375412 0.235097914934158325
0.112687557935714722 -0.0545588359236717224 0.0377842597663402557
-0.32454189658164978 0.0345140174031257629 0.0765845030546188354
-0.0975518301129341125 0.226643219590187073 0.0907725989818572998
-0.140798285603523254 -0.169011160731315613 0.31468847393989563
-0.225525200366973877 0.0254222918301820755 0.0805556625127792358
-0.395803987979888916 0.487313270568847656 -0.149310469627380371
0.119655311107635498 0.439911067485809326 0.0408671349287033081
-0.117104567587375641 -0.0508280433714389801 0.190876826643943787
-0.133675292134284973 0.216721966862678528 -0.0957268625497817993
0.0916977152228355408 0.0500349067151546478 0.0444068312644958496
-0.0578738339245319366 -0.493362665176391602 0.110976867377758026
-0.242509007453918457 0.0156295504420995712 0.171722397208213806
-0.275320172309875488 0.368191719055175781 -0.333512395620346069
-0.167025506496429443 0.224031552672386169 -0.138714924454689026
-0.0582160651683807373 -0.3764229416847229 -0.109130792319774628
-0.0726965144276618958 0.396820366382598877 -0.341884583234786987
-0.257826000452041626 0.0296264588832855225 0.0965925753116607666
0.0876080170273780823 -0.293402820825576782 0.25889509916305542
-0.109106183052062988 -0.709591150283813477 -0.0468945838510990143
-0.348305940628051758 0.203196421265602112 0.235222607851028442
-0.0924575179815292358 -0.0446508638560771942 0.42200133204460144
0.11156947910785675 0.471230089664459229 0.00964326225221157074
-0.151555180549621582 -0.145356282591819763 0.17340831458568573
-0.0860190168023109436 -0.69415813684463501 0.069742053747177124
-0.0227408073842525482 -0.139066949486732483 0.114317096769809723
-0.258662283420562744 0.437512367963790894 -0.362665265798568726
-0.428586572408676147 0.182006001472473145 -0.062424294650554657
-0.065890781581401825 -0.0152522660791873932 -0.0941903665661811829
0.10163242369890213 -0.124694220721721649 0.0895528867840766907
-0.333281397819519043 -0.00617030402645468712 0.19712713360786438
-0.300638437271118164 0.111895203590393066 0.317218422889709473
0.0786893740296363831 -0.00208794302307069302 0.0843459665775299072
-0.108757920563220978 0.0811195895075798035 0.429151266813278198
-0.456345856189727783 0.200304284691810608 -0.0125929620116949081
-0.0889259576797485352 -0.703190088272094727 0.0366742722690105438
-0.0984899774193763733 -0.0361281372606754303 -0.0112352315336465836
0.103823736310005188 -0.206205248832702637 0.0682862550020217896
-0.3669300377368927 0.0552173182368278503 0.206735476851463318
0.0278960205614566803 0.52949059009552002 -0.142489328980445862
-0.406457841396331787 0.0371231734752655029 0.0981843769550323486
-0.103262104094028473 0.466854274272918701 0.0664375051856040955
-0.0192191209644079208 0.378554850816726685 -0.111720770597457886
-0.11497160792350769 -0.169802948832511902 -0.0277255438268184662
-0.0333850495517253876 -0.17225220799446106 0.275551646947860718
-0.120393544435501099 0.0967868790030479431 -0.0105266580358147621
-0.0485996901988983154 -0.694608688354492188 -0.0118149323388934135
-0.159326031804084778 -0.0783488601446151733 0.0999187156558036804
-0.294444650411605835 0.243739292025566101 -0.284492343664169312
-0.0136042414233088493 0.0406016632914543152 0.448526084423065186
0.0629456639289855957 -0.000587319897022098303 -0.115965425968170166
0.0453961566090583801 -0.299908757209777832 0.317237257957458496
-0.197004333138465881 0.415365517139434814 -0.387613147497177124
0.0255024358630180359 0.555101394653320312 0.118896223604679108
0.156667187809944153 0.569701611995697021 -0.147167325019836426
-0.277604579925537109 0.25602346658706665 -0.247608542442321777
0.0705109536647796631 0.0122533664107322693 0.112412787973880768
0.125241488218307495 -0.339908719062805176 0.211224019527435303
-0.368963241577148438 0.101623870432376862 -0.00479597924277186394
-0.115845493972301483 0.230706468224525452 -0.0583985485136508942
-0.0385767333209514618 -0.0907021015882492065 0.424195438623428345
-0.0952391326427459717 -0.119988642632961273 0.413215160369873047
-0.0915466099977493286 -0.423147439956665039 -0.0803097561001777649
-0.038073904812335968 -0.190296575427055359 0.248095646500587463
-0.112899623811244965 -0.376068681478500366 -0.0447477549314498901
-0.0273039769381284714 0.455895066261291504 -0.30833202600479126
0.118425235152244568 0.160567641258239746 0.0476850122213363647
-0.346758097410202026 0.201661869883537292 -0.233173683285713196
-0.361113786697387695 0.330095499753952026 -0.243605360388755798
-0.109488241374492645 -0.104043997824192047 0.0200123321264982224
-0.0896285772323608398 -0.112443983554840088 0.165452435612678528
-0.106915898621082306 -0.189181908965110779 0.263359367847442627
-0.243125572800636292 0.607436835765838623 -0.376850724220275879
0.119273491203784943 -0.355079203844070435 0.309695124626159668
-0.12689739465713501 0.294082880020141602 -0.187627226114273071
0.0335875675082206726 -0.307772278785705566 0.102020278573036194
-0.332398712635040283 0.0753334611654281616 0.265794068574905396
-0.117743402719497681 0.363164603710174561 -0.285064220428466797
-0.0407117195427417755 -0.167811036109924316 0.203651890158653259
-0.20966021716594696 0.248190790414810181 -0.254051059484481812
-0.127382487058639526 -0.617840111255645752 -0.0135755743831396103
-0.125655069947242737 0.0453570708632469177 -0.00444904714822769165
-0.13849368691444397 0.159658610820770264 -0.0720757246017456055
0.0487199835479259491 -0.439522415399551392 0.111516751348972321
-0.0794113799929618835 0.149755194783210754 -0.083078339695930481
-0.110056549310684204 -0.275286436080932617 0.0536609888076782227
0.0678113773465156555 -0.406958699226379395 0.132008597254753113
0.0861247405409812927 -0.312417775392532349 0.337742269039154053
0.013136095367372036 -0.409822553396224976 0.105261579155921936
-0.334122240543365479 0.246129289269447327 -0.218115448951721191
-0.0262586381286382675 -0.226952433586120605 0.10029226541519165
-0.118942216038703918 -0.189739584922790527 -0.000893332122359424829
-0.164003580808639526 0.255560040473937988 -0.15620364248752594
-0.197457253932952881 -0.0744154155254364014 0.219868496060371399
-0.121010579168796539 0.354120969772338867 -0.0184606853872537613
-0.0227573253214359283 -0.18524777889251709 0.112252756953239441
0.0226338189095258713 -0.695636212825775146 0.127509921789169312
-0.298240095376968384 0.536008358001708984 -0.307695627212524414
-0.00949256680905818939 -0.249320805072784424 0.10261256992816925
0.109584823250770569 0.527162313461303711 0.0715349391102790833
-0.0123944096267223358 0.43645244836807251 -0.204701885581016541
-0.259312957525253296 0.279874026775360107 -0.272599965333938599
0.110769696533679962 0.21198706328868866 0.0161896217614412308
-0.228724554181098938 0.340377777814865112 -0.324765831232070923
-0.416793495416641235 0.0674993991851806641 0.0681487396359443665
-0.372338145971298218 0.489650905132293701 -0.228156119585037231
-0.164937764406204224 0.255378097295761108 -0.181210607290267944
0.0445135198533535004 -0.375604540109634399 0.10084957629442215
-0.0906642153859138489 0.0261460505425930023 0.0376007743179798126
-0.216231390833854675 0.627506256103515625 -0.38812527060508728
0.129624098539352417 0.545097589492797852 -0.0225209146738052368
-0.0396256856620311737 -0.101369515061378479 0.108720764517784119
0.069789394736289978 0.511928737163543701 0.0993547141551971436
0.0116835692897439003 -0.229916885495185852 0.24299544095993042
0.0089635821059346199 -0.248364105820655823 0.33045494556427002
-0.120465658605098724 -0.317977070808410645 8.92281896085478365e-05
-0.217338830232620239 -0.0620415471494197845 0.231639757752418518
-0.103001631796360016 0.360711574554443359 -0.394738346338272095
-0.154566168785095215 0.117050766944885254 -0.0459467656910419464
0.106143683195114136 0.451080113649368286 0.0297757722437381744
-0.125458255410194397 -0.535664796829223633 -0.0265130419284105301
-0.139639735221862793 0.109599970281124115 0.413764446973800659
-0.0248701572418212891 -0.510745882987976074 -0.107165209949016571
0.107369512319564819 0.58312225341796875 0.0431657284498214722
0.00248505338095128536 0.525249600410461426 -0.117047421634197235
-0.16788211464881897 0.160873979330062866 -0.0726899579167366028
-0.0439304858446121216 0.679425835609436035 -0.421548366546630859
-0.353597342967987061 0.238253846764564514 -0.18698456883430481
0.0371236614882946014 0.467540085315704346 -0.265457570552825928
-0.25329965353012085 0.0395957119762897491 0.0315649881958961487
0.107142075896263123 0.544073343276977539 -0.170693516731262207
-0.0893094316124916077 -0.250189542770385742 -0.104777120053768158
-0.250859737396240234 0.0765311643481254578 -0.0255945492535829544
-0.12628309428691864 0.391270220279693604 -0.012684674933552742
-0.178685262799263 -0.142104431986808777 0.207961335778236389
-0.348759323358535767 0.226726844906806946 -0.250847578048706055
-0.292572438716888428 -0.031889699399471283 0.312585979700088501
0.0390230827033519745 0.618468582630157471 0.0241836458444595337
0.149292930960655212 -0.371952801942825317 0.338651478290557861
0.0345301665365695953 -0.0923691168427467346 -0.109982728958129883
-0.012099122628569603 0.143617644906044006 -0.141991928219795227
-0.10284944623708725 0.303884595632553101 -0.176749706268310547
-0.0207746662199497223 -0.277783036231994629 0.126846075057983398
0.0915689542889595032 0.541825473308563232 -0.202211245894432068
-0.141166165471076965 -0.122056305408477783 0.289763182401657104
0.00808965601027011871 -0.107260927557945251 0.126824498176574707
-0.0774941444396972656 0.611646354198455811 0.0855147466063499451
-0.168146312236785889 0.114947028458118439 -0.025915859267115593
0.0662474334239959717 0.593842029571533203 0.10377955436706543
-0.0953520610928535461 0.301377415657043457 -0.22738763689994812
-0.0331928394734859467 0.425471454858779907 -0.173157036304473877
-0.0677614733576774597 -0.700984358787536621 -0.0780722200870513916
-0.139676749706268311 0.369421243667602539 -0.411603361368179321
-0.29364737868309021 -0.0889428853988647461 0.247552946209907532
-0.22977370023727417 0.137071624398231506 -0.0864118114113807678
0.0296497810631990433 0.47701495885848999 -0.255557030439376831
-0.231849521398544312 0.327649444341659546 -0.276001811027526855
0.0319429747760295868 -0.231527119874954224 0.424558252096176147
-0.281045287847518921 -0.0884171798825263977 0.253038495779037476
-0.344373762607574463 0.0925784409046173096 -0.00692884344607591629
-0.350436210632324219 0.0690829381346702576 0.143874332308769226
-0.133875995874404907 0.30028223991394043 -0.219447240233421326
-0.199626460671424866 -0.14645916223526001 0.322770297527313232
0.0993696972727775574 -0.32935720682144165 0.224466010928153992
-0.0747059732675552368 0.467649012804031372 0.0766209140419960022
-0.0809713974595069885 -0.128762289881706238 0.15750846266746521
0.0934461057186126709 0.234317168593406677 -0.0541372224688529968
0.18021412193775177 0.574043333530426025 -0.111033447086811066
0.0945548862218856812 0.485468596220016479 -0.129158973693847656
-0.0693439245223999023 0.392443627119064331 -0.272728174924850464
-0.156377404928207397 0.212159737944602966 -0.0980895087122917175
-0.151870086789131165 0.0212919525802135468 0.391587436199188232
-0.0734916776418685913 0.107151493430137634 0.426202893257141113
-0.233203500509262085 0.104138121008872986 0.0287229344248771667
-0.403761059045791626 0.125295475125312805 0.129903659224510193
-0.103323623538017273 -0.16280817985534668 0.418116629123687744
-0.00322949094697833061 0.455961674451828003 -0.228048995137214661
-0.0851706862449645996 0.372648179531097412 0.0773825347423553467
0.0139449490234255791 0.440955787897109985 -0.15807795524597168
-0.0701022371649742126 0.317467868328094482 -0.0867612436413764954
-0.369072377681732178 0.562048673629760742 -0.218461021780967712
0.0842170640826225281 -0.22478388249874115 0.105314068496227264
-0.130768150091171265 0.357028692960739136 0.0391033738851547241
0.0417920276522636414 -0.280194967985153198 0.326744675636291504
-0.12920825183391571 0.516252994537353516 -0.420193731784820557
0.0556412115693092346 0.300921618938446045 -0.119854912161827087
-0.0759904235601425171 -0.529173970222473145 -0.0843705311417579651
-0.287254661321640015 0.104970507323741913 0.0287662297487258911
0.0968760624527931213 -0.345236837863922119 0.269873261451721191
-0.112464942038059235 -0.0882682725787162781 -0.0579549036920070648
-0.100907959043979645 -0.503061830997467041 -0.0725218430161476135
-0.114051975309848785 0.575833618640899658 -0.418829172849655151
-0.275544255971908569 0.0468837320804595947 0.113776572048664093
0.103841483592987061 -0.347810983657836914 0.22924572229385376
-0.233295097947120667 0.108311332762241364 0.0144312409684062004
-0.204172924160957336 -0.126402750611305237 0.292567998170852661
0.0745343267917633057 0.620834171772003174 -0.430286794900894165
0.0820019915699958801 -0.306557387113571167 0.3105735182762146
0.0698378309607505798 0.507239341735839844 -0.213692694902420044
-0.104275628924369812 -0.115040920674800873 0.292756766080856323
-0.241987079381942749 0.14580872654914856 0.355032086372375488
0.0935690850019454956 0.0531276166439056396 -0.0658743306994438171
-0.0297976657748222351 -0.226801976561546326 0.245886057615280151
-0.105670034885406494 0.0318708010017871857 0.105016477406024933
-0.353380978107452393 0.132131293416023254 -0.0547126308083534241
-0.0654895976185798645 0.395796298980712891 -0.0724881067872047424
-0.0317845083773136139 -0.199392199516296387 0.242046758532524109
-0.320185035467147827 -0.024163542315363884 0.193005174398422241
-0.42088782787322998 0.147696852684020996 -0.119047835469245911
0.00806865841150283813 0.426299899816513062 0.111981309950351715
0.020430317148566246 0.734587550163269043 -0.425797790288925171
-0.0438097380101680756 -0.256702452898025513 0.307163596153259277
-0.0707160308957099915 0.401291698217391968 -0.420655012130737305
-0.235472202301025391 -0.140590310096740723 0.357971549034118652
0.117873817682266235 0.38659396767616272 -0.015259631909430027
0.0305884517729282379 0.627280771732330322 0.11642087996006012
0.0907138362526893616 0.465760231018066406 -0.269758492708206177
-0.0881011337041854858 -0.187674984335899353 0.183961138129234314
-0.00534462695941329002 -0.22253882884979248 0.412503421306610107
0.100764252245426178 -0.263797372579574585 0.364909470081329346
0.0861698240041732788 0.500765085220336914 -0.278116703033447266
-0.0124132949858903885 -0.212780073285102844 0.204036593437194824
-0.273452848196029663 -0.0713317021727561951 0.227138832211494446
-0.109363391995429993 -0.111986659467220306 0.293824315071105957
-0.0639294534921646118 0.548221170902252197 0.104744628071784973
-0.0906864553689956665 -0.0277690086513757706 -0.0729290246963500977
0.166023120284080505 -0.0683956369757652283 0.390810608863830566
-0.153250515460968018 0.0460673607885837555 0.013598673976957798
-0.135255128145217896 0.267445921897888184 -0.113870963454246521
-0.0209188424050807953 0.427071332931518555 -0.32407677173614502
0.113379418849945068 0.623117566108703613 -0.018971666693687439
0.00374663318507373333 -0.298129409551620483 0.201533406972885132
-0.00491021852940320969 0.194259375333786011 -0.121408693492412567
0.0815116912126541138 0.540007412433624268 -0.223689481616020203
-0.354270726442337036 -0.00962304789572954178 0.24857136607170105
0.115251317620277405 0.282068043947219849 0.0587522275745868683
0.106124140322208405 0.0203924402594566345 0.417491704225540161
-0.156501665711402893 -0.1033439040184021 0.180693507194519043
0.0474081262946128845 -0.261163324117660522 0.310909450054168701
0.0231537558138370514 -0.266918778419494629 0.256915181875228882
0.122217901051044464 0.17212715744972229 -0.0255694817751646042
-0.000626661698333919048 -0.176199227571487427 0.178383037447929382
-0.000897551595699042082 0.403352081775665283 0.123727269470691681
-0.138252913951873779 -0.45304185152053833 0.0192054808139801025
0.0358694121241569519 0.424365967512130737 -0.35849347710609436
-0.315404802560806274 0.439567506313323975 -0.28785550594329834
-0.103534623980522156 -0.00438812281936407089 0.0192774310708045959
-0.19279797375202179 0.284456431865692139 -0.138924121856689453
0.0551798269152641296 0.230280563235282898 -0.106843344867229462
0.179561823606491089 -0.190147772431373596 0.380298614501953125
0.0731924325227737427 -0.0841724351048469543 0.406028598546981812
-0.288663506507873535 0.27668270468711853 -0.312313348054885864
-0.0141144506633281708 -0.24127642810344696 0.225356966257095337
-0.0433845557272434235 -0.188756689429283142 0.337484925985336304
-0.311466425657272339 0.101943321526050568 -0.0419807508587837219
-0.112007558345794678 0.159138694405555725 -0.0671873092651367188
-0.109530732035636902 -0.400023609399795532 0.0470143742859363556
-0.376911789178848267 0.115768581628799438 -0.0299948453903198242
-0.0352978073060512543 -0.187678635120391846 0.18104080855846405
-0.124748475849628448 -0.4452037513256073 0.0731024965643882751
-0.00448299478739500046 0.349796056747436523 -0.122428372502326965
-0.232077822089195251 0.263062983751296997 -0.293615370988845825
-0.265659719705581665 0.573378622531890869 -0.355362087488174438
-0.204675450921058655 -0.0730403140187263489 0.257529020309448242
-0.280815154314041138 0.0773339271545410156 0.00630913535133004189
-0.0140414852648973465 0.0448353290557861328 -0.131790131330490112
-0.247949451208114624 0.0582729913294315338 0.0611968450248241425
-0.377512425184249878 0.316589534282684326 -0.186968207359313965
0.0703633800148963928 0.776275694370269775 -0.428856700658798218
0.0467860810458660126 0.438976138830184937 -0.364508628845214844
-0.107805311679840088 -0.169464737176895142 0.244604423642158508
0.03094472736120224 -0.22164560854434967 0.41505315899848938
0.163472294807434082 0.626952409744262695 -0.147017836570739746
-0.0949122831225395203 -0.0385346300899982452 0.0526385679841041565
0.0971888899803161621 0.438708901405334473 -0.0802309587597846985
-0.0981131792068481445 -0.110933989286422729 0.203343629837036133
-0.212355971336364746 0.242895931005477905 -0.122754476964473724
-0.0235003363341093063 -0.217540234327316284 0.163402199745178223
0.158890247344970703 -0.272246003150939941 0.392504602670669556
-0.231828257441520691 -0.0863310247659683228 0.283538222312927246
-0.00284339184872806072 -0.241735935211181641 0.188807308673858643
-0.104590974748134613 0.0591190941631793976 0.0359745658934116364
-0.0216096770018339157 0.602994203567504883 -0.418955713510513306
0.126430884003639221 -0.00597778568044304848 0.0455382764339447021
-0.0318089351058006287 0.620774805545806885 0.113053672015666962
-0.0385968312621116638 -0.0310520287603139877 0.411771327257156372
-0.0125058870762586594 0.479440122842788696 -0.434170752763748169
0.158852115273475647 -0.106907278299331665 0.424340933561325073
-0.12854728102684021 0.247016236186027527 -0.0723505541682243347
-0.105332978069782257 -0.179590374231338501 0.0752314776182174683
-0.275613307952880859 -0.0535333007574081421 0.335800468921661377
0.0753557160496711731 0.128117799758911133 -0.0745886862277984619
-0.108070902526378632 0.583117425441741943 -0.421126127243041992
-0.200294703245162964 0.0279920045286417007 0.0743952393531799316
-0.230187892913818359 0.258718311786651611 -0.210408270359039307
0.0212730187922716141 -0.23205171525478363 0.143709585070610046
-0.178235918283462524 -0.071844249963760376 0.18262559175491333
-0.189031124114990234 0.481885135173797607 -0.376857221126556396
-0.139034390449523926 0.336255431175231934 -0.336278021335601807
-0.0118124773725867271 -0.154253780841827393 0.42115357518196106
-0.415828019380569458 0.383220940828323364 -0.076829761266708374
-0.120171993970870972 0.339227288961410522 -0.00274761137552559376
0.230038836598396301 -0.0865568891167640686 0.37398800253868103
-0.410026252269744873 0.162964895367622375 0.174304142594337463
0.0691860392689704895 0.395742684602737427 0.0881515368819236755
0.136638402938842773 0.524116039276123047 -0.188516423106193542
-0.164288327097892761 0.0952313169836997986 0.0416762232780456543
-0.0695251151919364929 0.00618827249854803085 -0.0854606777429580688
-0.118241094052791595 0.11322765052318573 0.0465735942125320435
-0.182466089725494385 0.112806797027587891 0.0343642234802246094
-0.186195462942123413 0.336743712425231934 -0.293862760066986084
-0.279865086078643799 0.594430148601531982 -0.314603149890899658
-0.10377039760351181 -0.601140141487121582 -0.0442347005009651184
0.0294606126844882965 0.626352965831756592 0.0651687309145927429
0.0899693220853805542 0.4667510986328125 -0.0643912330269813538
0.11904086172580719 -0.311149090528488159 0.282233297824859619
-0.257317930459976196 0.260420501232147217 -0.25789332389831543
-0.0883975178003311157 0.256998002529144287 -0.108862541615962982
0.0103328702971339226 0.0834315717220306396 0.0992656424641609192
-0.3025360107421875 0.0106272958219051361 0.212902858853340149
-0.12864704430103302 -0.0781559571623802185 -0.0323232635855674744
0.0629067718982696533 -0.0843553170561790466 0.112335994839668274
-0.444152235984802246 0.311389923095703125 0.0390479490160942078
-0.400806427001953125 0.173912316560745239 -0.112080685794353485
-0.0696879997849464417 -0.165146708488464355 0.279455363750457764
-0.116886317729949951 -0.256714701652526855 0.0283757112920284271
-0.30702856183052063 0.305984616279602051 -0.281755656003952026
-0.400522172451019287 0.0883122459053993225 -0.00284104910679161549
-0.120086483657360077 0.613136410713195801 -0.416815906763076782
0.0837584808468818665 -0.161986097693443298 0.424946188926696777
0.122882112860679626 0.187708020210266113 0.0155989453196525574
-0.0331965722143650055 0.659100711345672607 -0.423635274171829224
-0.141250982880592346 0.0577281564474105835 -0.0514713525772094727
-0.0133282849565148354 -0.0672624632716178894 -0.115849636495113373
-0.0414201691746711731 -0.139508545398712158 -0.125867173075675964
-0.0279915742576122284 0.389315605163574219 -0.301112353801727295
-0.106378018856048584 -0.56238865852355957 0.0414396412670612335
0.0999302342534065247 -0.28135448694229126 0.25894010066986084
-0.197308734059333801 0.102136656641960144 -0.0147286057472229004
-0.118814624845981598 0.469596385955810547 -0.0516864322125911713
-0.233929023146629333 0.205553069710731506 -0.127690181136131287
-0.150946512818336487 0.119553081691265106 0.0526330694556236267
-0.269817501306533813 0.185806840658187866 -0.191406339406967163
-0.0451308116316795349 0.219518914818763733 -0.0912187919020652771
0.103035785257816315 -0.309000253677368164 0.269734442234039307
-0.152035549283027649 0.26912921667098999 -0.0727232098579406738
-0.204341664910316467 0.276892334222793579 -0.238454803824424744
-0.109770387411117554 0.372419118881225586 -0.280719757080078125
0.0495518073439598083 0.576515018939971924 -0.116870604455471039
0.0622040256857872009 0.581111252307891846 -0.152346983551979065
-0.271723777055740356 0.573654413223266602 -0.343849360942840576
0.0797732323408126831 0.466298431158065796 -0.0861752629280090332
0.0347140058875083923 -0.265387237071990967 0.381317287683486938
-0.143767446279525757 0.582921683788299561 -0.421542346477508545
-0.067176520824432373 0.594038248062133789 -0.431278705596923828
0.0126357022672891617 -0.245013535022735596 0.23892037570476532
-0.120853729546070099 -0.17374594509601593 0.237150073051452637
-0.190178334712982178 0.483322292566299438 -0.373072206974029541
-0.0851760655641555786 -0.0806378275156021118 -0.0720407217741012573
-0.440304011106491089 0.367116034030914307 -0.00509094959124922752
0.00931126158684492111 -0.255092352628707886 0.287124544382095337
-0.020444309338927269 0.348287224769592285 0.115124940872192383
0.0077951592393219471 0.420176267623901367 -0.129657477140426636
-0.090871371328830719 0.266792148351669312 -0.119456417858600616
-0.0343247130513191223 0.744788885116577148 -0.433727383613586426
0.0309409089386463165 0.517543256282806396 -0.117666944861412048
0.219850406050682068 -0.14752332866191864 0.340209841728210449
-0.274959206581115723 0.310778707265853882 -0.329650461673736572
-0.11396721750497818 -0.189107418060302734 -0.0379376523196697235
-0.188786908984184265 -0.0626415684819221497 0.184168636798858643
-0.0246606394648551941 0.21232171356678009 0.117024436593055725
-0.119807764887809753 0.20580136775970459 -0.0279685091227293015
-0.00190760497935116291 -0.243009015917778015 0.273776471614837646
-0.103359654545783997 0.431765109300613403 -0.405477434396743774
-0.133046865463256836 -0.158954530954360962 0.358794838190078735
-0.0236379653215408325 -0.198974594473838806 0.34079858660697937
-0.188160687685012817 -0.117375999689102173 0.285050034523010254
-0.0193984806537628174 0.511266410350799561 -0.435568630695343018
0.0707633346319198608 0.307150572538375854 0.0912084132432937622
-0.0217689294368028641 -0.20394761860370636 0.151057004928588867
-0.0566183403134346008 -0.53469616174697876 -0.0890984088182449341
-0.352951020002365112 0.471915483474731445 -0.280789434909820557
-0.0516664572060108185 0.352709949016571045 -0.13056434690952301
-0.00677344761788845062 -0.369109064340591431 0.131350025534629822
-0.187470853328704834 0.0293797552585601807 0.0192621275782585144
-0.279914170503616333 0.203816190361976624 -0.118118107318878174
-0.414280742406845093 0.218261033296585083 0.133017420768737793
-0.124155960977077484 0.148081973195075989 -0.034814298152923584
-0.10989486426115036 0.627573847770690918 -0.0622683241963386536
-0.0549556612968444824 -0.0309549123048782349 0.426455974578857422
-0.433533638715744019 0.248347938060760498 0.0816763117909431458
0.0561016611754894257 0.419787496328353882 -0.102175354957580566
-0.103345297276973724 0.262537240982055664 -0.104516230523586273
-0.430344134569168091 0.145423814654350281 -0.0744689181447029114
-0.0237511862069368362 0.172713339328765869 0.103478312492370605
-0.172086760401725769 0.136256188154220581 0.399165123701095581
-0.341840118169784546 -0.0290943514555692673 0.19228498637676239
-0.120480477809906006 -0.642661809921264648 0.00416662171483039856
0.061643943190574646 -0.308655321598052979 0.213259175419807434
0.151569128036499023 0.596407234668731689 -0.124167419970035553
-0.113013885915279388 0.0302601363509893417 0.404345273971557617
-0.0872358977794647217 -0.00773556530475616455 0.0632152557373046875
-0.0278542786836624146 -0.322988718748092651 0.117940947413444519
-0.330482780933380127 0.0587848201394081116 0.279759049415588379
-0.0657898560166358948 -0.144462570548057556 0.102893613278865814
0.0962079614400863647 0.594780921936035156 -0.111148461699485779
-0.349829167127609253 0.120875075459480286 0.260210961103439331
-0.101714625954627991 0.403315275907516479 -0.349119633436203003
-0.0113202426582574844 0.497335255146026611 -0.192115113139152527
0.0899255424737930298 0.0907881781458854675 0.0661854147911071777
0.118046320974826813 0.629247963428497314 -0.111632943153381348
-0.0253835339099168777 0.541436374187469482 -0.117337383329868317
-0.330167204141616821 0.0577096007764339447 0.123196244239807129
0.109187543392181396 0.252838343381881714 -0.0372595489025115967
-0.409972310066223145 0.236894860863685608 0.0444324687123298645
-0.104926548898220062 0.329784631729125977 -0.189650803804397583
0.0363560542464256287 0.427324086427688599 0.113714277744293213
-0.111734203994274139 0.506831705570220947 -0.0448246188461780548
-0.108331762254238129 0.294547885656356812 -0.0479698069393634796
-0.105270259082317352 -0.686890661716461182 0.0583652965724468231
0.082783922553062439 0.290840178728103638 0.0991777554154396057
-0.0534706450998783112 -0.0756456926465034485 -0.108674056828022003
-0.11852332204580307 0.215363249182701111 -0.0376272983849048615
-0.0987665578722953796 0.237627848982810974 0.0475456938147544861
-0.114253126084804535 0.440360218286514282 0.0394350066781044006
-0.0816629603505134583 0.251469463109970093 -0.0627409070730209351
-0.149732783436775208 -0.113249614834785461 0.200496971607208252
-0.412816077470779419 0.182152792811393738 0.0777113288640975952
-0.123694121837615967 0.537385523319244385 0.0544548630714416504
-0.131057888269424438 0.305847287178039551 -0.0563032627105712891
-0.418990552425384521 0.344460576772689819 0.0644176900386810303
-0.0754266604781150818 0.0648274794220924377 0.0883086919784545898
-0.363654464483261108 0.259990781545639038 0.215164899826049805
-0.0564854741096496582 -0.194065749645233154 0.123355075716972351
0.103577762842178345 0.121683724224567413 -0.0240330677479505539
-0.34612804651260376 0.139824897050857544 0.00674964534118771553
-0.0214399136602878571 -0.187078014016151428 0.193698585033416748
-0.0617517828941345215 0.531876921653747559 -0.423905760049819946
-0.0335816033184528351 -0.470087587833404541 -0.102967157959938049
-0.0338966064155101776 0.227567985653877258 0.122581459581851959
-0.274583101272583008 0.111803926527500153 0.0198430977761745453
-0.28151211142539978 0.0013822140172123909 0.206464812159538269
0.0604583509266376495 0.568887114524841309 -0.174114510416984558
-0.113705664873123169 0.582702934741973877 -0.0319422408938407898
-0.226762920618057251 -0.0451347716152667999 0.166447296738624573
0.0241128485649824142 0.218067586421966553 -0.114755704998970032
-0.44975435733795166 0.353953123092651367 -0.0656569302082061768
-0.129204064607620239 0.157835066318511963 0.0147650334984064102
0.0739135444164276123 0.331425607204437256 -0.101769700646400452
-0.066493302583694458 0.59835284948348999 0.0238643437623977661
-0.113776944577693939 -0.104715101420879364 0.0585349798202514648
-0.355492144823074341 0.216407015919685364 -0.161074116826057434
0.0715353414416313171 0.495666444301605225 0.0814786329865455627
0.115321673452854156 0.491847366094589233 -0.206726163625717163
-0.376900166273117065 0.15838208794593811 -0.14264969527721405
-0.0672211498022079468 -0.226923823356628418 0.0877357199788093567
0.134558990597724915 -0.0735627114772796631 0.420295357704162598
0.10773766040802002 0.386376947164535522 -0.0489732474088668823
-0.255558907985687256 -0.0589326433837413788 0.272209584712982178
-0.113388493657112122 0.168727144598960876 -0.0526825189590454102
-0.201715975999832153 0.141272366046905518 -0.0202535837888717651
-0.22242407500743866 -0.0432220399379730225 0.259783834218978882
-0.079770892858505249 -0.198956027626991272 -0.0654257833957672119
-0.0515215136110782623 -0.15370592474937439 0.408502161502838135
-0.343325614929199219 0.221069276332855225 0.253258764743804932
-0.236886277794837952 0.229233846068382263 -0.100044846534729004
-0.287408322095870972 0.204218626022338867 -0.211862727999687195
-0.190239995718002319 0.347219735383987427 -0.370520740747451782
0.0345087572932243347 -0.314031213521957397 0.177144035696983337
-0.122070677578449249 -0.105356387794017792 0.00416863616555929184
-0.0473471209406852722 -0.409600287675857544 0.112723752856254578
0.0691981613636016846 -0.309346228837966919 0.342195868492126465
-0.18305911123752594 0.332456260919570923 -0.34801056981086731
-0.422811418771743774 0.361007213592529297 -0.124216049909591675
-0.065120011568069458 0.284973472356796265 -0.0854200348258018494
-0.0313297025859355927 -0.115751154720783234 0.164343670010566711
-0.105224967002868652 -0.0556219108402729034 0.133533075451850891
-0.0629631057381629944 0.385762155055999756 -0.205553412437438965
-0.0138822225853800774 0.452736824750900269 0.113521575927734375
-0.0148936444893479347 -0.641761720180511475 0.103052973747253418
-0.0452796928584575653 0.616578519344329834 -0.0907870009541511536
0.000544719863682985306 0.45966455340385437 -0.242853641510009766
-0.123449690639972687 0.0212138798087835312 -0.0178227778524160385
-0.372668445110321045 0.154423519968986511 0.200649052858352661
-0.0341071188449859619 -0.202437654137611389 -0.10783860832452774
-0.390577256679534912 0.295466870069503784 0.158165097236633301
-0.111356891691684723 -0.381816118955612183 0.029949406161904335
-0.0777269229292869568 -0.182438239455223083 0.15415288507938385
-0.266311317682266235 0.0957172363996505737 0.032871730625629425
-0.103536628186702728 0.448041230440139771 -0.0912856832146644592
-0.404919475317001343 0.4708690345287323 -0.115662127733230591
-0.0233690086752176285 -0.613115429878234863 0.117189101874828339
-0.106325551867485046 0.132790476083755493 0.408027052879333496
-0.0647911727428436279 0.352420985698699951 0.0978071242570877075
-0.200368151068687439 -0.0584670044481754303 0.1187257319688797
-0.338645994663238525 0.047077476978302002 0.255951106548309326
-0.0802427008748054504 0.357257336378097534 -0.194517508149147034
-0.407242417335510254 0.421197265386581421 -0.139468878507614136
0.0975806042551994324 0.509007871150970459 -0.268200695514678955
-0.0462282747030258179 0.363508015871047974 -0.344756335020065308
-0.0662860050797462463 -0.413290947675704956 0.115373209118843079
0.0599169544875621796 -0.209668293595314026 0.423814535140991211
-0.222786352038383484 0.550561487674713135 -0.369488298892974854
-0.017230963334441185 0.33361545205116272 0.131656810641288757
-0.292524546384811401 0.278545379638671875 -0.32738688588142395
-0.00585289299488067627 -0.179607212543487549 0.151231646537780762
-0.173122525215148926 0.274111658334732056 -0.216575846076011658
-0.197821736335754395 -0.0814326256513595581 0.372373968362808228
-0.0330839306116104126 0.468771249055862427 -0.318859249353408813
-0.194457754492759705 0.153556838631629944 -0.0140011133626103401
0.115257367491722107 -0.284961521625518799 0.369961142539978027
0.126066729426383972 0.245924383401870728 0.0136358840391039848
0.100265301764011383 -0.352342724800109863 0.135785371065139771
-0.106139145791530609 0.0679122209548950195 0.0507645756006240845
-0.181826815009117126 -0.107422985136508942 0.403592884540557861
0.0658041760325431824 -0.348732292652130127 0.140531197190284729
0.127389565110206604 -0.131382539868354797 0.412537932395935059
-0.0838647633790969849 0.628797829151153564 -0.0145460320636630058
-0.06945771723985672 -0.0916303247213363647 0.129075884819030762
-0.0749988928437232971 0.0867710039019584656 -0.0979267209768295288
0.0401977710425853729 -0.248377293348312378 0.0908742174506187439
-0.027259359136223793 -0.124578043818473816 0.435934096574783325
0.0527530796825885773 -0.303603887557983398 0.272939443588256836
-0.08605145663022995 -0.42661014199256897 0.059718891978263855
-0.341931641101837158 0.387791812419891357 -0.288864761590957642
-0.297152936458587646 0.151366323232650757 -0.0589180141687393188
0.0142565043643116951 -0.24611218273639679 0.130234763026237488
-0.263496935367584229 -0.0813756808638572693 0.303997576236724854
-0.441903024911880493 0.33971482515335083 -0.0167697258293628693
-0.323657840490341187 0.124638892710208893 -0.122904844582080841
-0.0509630590677261353 -0.257939636707305908 0.153971344232559204
-0.299979537725448608 0.588918924331665039 -0.328015774488449097
-0.085717618465423584 -0.156540796160697937 0.0787047445774078369
-0.0561462827026844025 0.631542682647705078 -0.0685601383447647095
-0.0427770987153053284 0.629892706871032715 0.0622349977493286133
0.0205586999654769897 -0.23262333869934082 0.353488683700561523
-0.320664525032043457 0.119311064481735229 -0.00513880187645554543
-0.157116740942001343 -0.13551156222820282 0.420016258955001831
-0.118070833384990692 0.183297976851463318 0.0474676303565502167
-0.0944893583655357361 -0.332465708255767822 -0.0642329975962638855
0.0792132169008255005 -0.152620032429695129 0.43586316704750061
-0.102506794035434723 -0.658496618270874023 -0.0668446272611618042
-0.029720652848482132 -0.193325012922286987 0.320784687995910645
0.148266449570655823 -0.324326932430267334 0.289641439914703369
0.131807282567024231 0.0118066770955920219 0.00609422754496335983
0.0108549259603023529 0.37758868932723999 0.118502646684646606
-0.126083061099052429 -0.204703986644744873 0.349424123764038086
0.0330865606665611267 0.501866579055786133 -0.222722634673118591
0.112373925745487213 0.457078456878662109 -0.0419707335531711578
0.0198929719626903534 0.459092050790786743 -0.174765408039093018
0.0779137760400772095 0.227370157837867737 -0.0946120768785476685
-0.32794681191444397 -0.0485290028154850006 0.155544474720954895
0.101632125675678253 -0.241441801190376282 0.417772799730300903
-0.0931758284568786621 -0.608153998851776123 0.0651974081993103027
-0.446692109107971191 0.341822952032089233 0.0501920916140079498
0.013049861416220665 -0.279942959547042847 0.100888334214687347
0.0949935242533683777 -0.267687469720840454 0.247630804777145386
0.113908946514129639 -0.30534777045249939 0.229061946272850037
-0.121625550091266632 0.570242106914520264 0.0381056405603885651
0.102477237582206726 0.599563658237457275 -0.1341848224401474
-0.219226107001304626 0.122375607490539551 0.37060973048210144
-0.117729738354682922 0.274121493101119995 -0.158447176218032837
-0.438399434089660645 0.216404303908348083 0.0589351728558540344
0.0389786213636398315 0.0622359402477741241 0.43042263388633728
-0.0131539506837725639 0.747537732124328613 -0.43239063024520874
-0.0173159241676330566 -0.0651427656412124634 0.429848402738571167
-0.0917993411421775818 -0.185440078377723694 0.42674592137336731
0.0822120681405067444 0.696057438850402832 -0.429588794708251953
-0.0264616142958402634 0.465035170316696167 -0.2812042236328125
0.0412996262311935425 -0.0113634392619132996 0.111846752464771271
0.0597984865307807922 -0.285604089498519897 0.280565142631530762
-0.0955804511904716492 -0.0738073065876960754 0.139535635709762573
0.0801901817321777344 0.480704426765441895 -0.248470693826675415
-0.101460613310337067 0.607534348964691162 0.00536908907815814018
0.124143525958061218 -0.282089054584503174 0.42128288745880127
0.0248571690171957016 -0.338915854692459106 0.135937482118606567
-0.0874855890870094299 0.20504404604434967 0.0941528603434562683
-0.11024041473865509 -0.111679233610630035 0.413783103227615356
-0.173970639705657959 -0.00784601736813783646 0.0573399625718593597
-0.36758500337600708 0.241315543651580811 0.173577725887298584
0.043923456221818924 -0.112342871725559235 -0.103113628923892975
-0.297180801630020142 0.00581597862765192986 0.333809345960617065
-0.0785797759890556335 0.527919530868530273 -0.088410794734954834
-0.0006470890948548913 -0.0174245666712522507 0.419364959001541138
0.192432984709739685 -0.357814788818359375 0.313152670860290527
-0.0813393518328666687 0.571276009082794189 -0.090541154146194458
0.132348001003265381 0.620727181434631348 -0.179140672087669373
-0.122011855244636536 0.59035944938659668 0.0453846603631973267
-0.362458705902099609 0.0981078222393989563 0.0406898073852062225
0.0379476211965084076 0.503246426582336426 -0.345179826021194458
-0.142843529582023621 0.477517008781433105 -0.390886157751083374
-0.169112309813499451 -0.140429452061653137 0.24180719256401062
0.104642555117607117 0.533154129981994629 0.0579971037805080414
-0.297274231910705566 -0.0673429220914840698 0.243160441517829895
-0.116521477699279785 -0.280746042728424072 -0.0453284457325935364
-0.0554524883627891541 0.0447041429579257965 0.4447154700756073
0.0168061293661594391 0.516550242900848389 -0.432125359773635864
-0.20545649528503418 0.238086968660354614 -0.15491822361946106
-0.10951513797044754 -0.00903658196330070496 0.03572097048163414
0.0787641480565071106 -0.0739142671227455139 0.0760858580470085144
-0.112394466996192932 -0.136280477046966553 -0.0320481359958648682
-0.110874056816101074 -0.0575124993920326233 -0.0468748919665813446
0.144308283925056458 -0.216250956058502197 0.40621456503868103
-0.0376189984381198883 -0.24940606951713562 0.329076796770095825
-0.0663617178797721863 0.346413701772689819 -0.0780977681279182434
-0.413545459508895874 0.238078117370605469 -0.13476225733757019
-0.273445993661880493 0.218677908182144165 -0.151931166648864746
0.0213725045323371887 -0.225387319922447205 0.37736174464225769
0.0198453329503536224 -0.218891814351081848 0.310937643051147461
-0.200200900435447693 0.324000269174575806 -0.346074312925338745
-0.263876199722290039 0.0156867653131484985 0.194236636161804199
-0.0142809739336371422 -0.224084064364433289 0.330586105585098267
-0.104566045105457306 -0.420593172311782837 -0.0497616715729236603
0.0298188254237174988 0.319456666707992554 -0.111553087830543518
-0.42178499698638916 0.143394723534584045 0.113422483205795288
-0.0127787161618471146 -0.160301879048347473 0.130802527070045471
-0.0357217378914356232 -0.711350858211517334 0.0566318593919277191
-0.0775465667247772217 -0.0969124510884284973 0.181911662220954895
-0.28103327751159668 0.109749875962734222 -0.0186411160975694656
-0.220716148614883423 -0.0257785096764564514 0.0883460864424705505
-0.198289752006530762 0.0395567752420902252 0.00701186992228031158
-0.0050089983269572258 -0.467036336660385132 0.0897517204284667969
0.0543456822633743286 0.103015221655368805 -0.111014373600482941
0.0434944853186607361 0.505591511726379395 -0.279712319374084473
-0.0438668355345726013 0.439170390367507935 -0.41933739185333252
-0.192763045430183411 0.325263470411300659 -0.2363995760679245
-0.180978715419769287 -0.131615012884140015 0.374996334314346313
-0.403523176908493042 0.324731349945068359 -0.16259630024433136
-0.348142772912979126 0.185100018978118896 -0.120656035840511322
-0.293222516775131226 0.154023006558418274 -0.0203987974673509598
-0.201249942183494568 0.00645273132249712944 0.364176094532012939
0.0575483553111553192 -0.323313683271408081 0.0930412933230400085
-0.0818016454577445984 -0.0621619485318660736 0.0746225789189338684
-0.183368474245071411 0.297866642475128174 -0.213193535804748535
-0.0256615914404392242 0.400731712579727173 -0.140726268291473389
-0.294874846935272217 0.216450631618499756 -0.222408950328826904
0.100386448204517365 0.551187872886657715 -0.266522586345672607
-0.101545259356498718 0.279877305030822754 0.0577847808599472046
0.0552104674279689789 0.042195592075586319 0.429114431142807007
0.0857881978154182434 0.496010035276412964 -0.355263769626617432
0.0142083056271076202 0.592876970767974854 -0.425443768501281738
-0.253941774368286133 0.229982197284698486 -0.123929515480995178
0.0944577530026435852 0.552455782890319824 -0.128941208124160767
0.0410701222717761993 -0.18079809844493866 0.0988382771611213684
-0.426693946123123169 0.364254027605056763 0.0438016243278980255
-0.390477567911148071 0.277537316083908081 -0.161824390292167664
-0.100122429430484772 0.364259928464889526 -0.222279965877532959
-0.0691559687256813049 -0.204738572239875793 0.221745148301124573
-0.302564710378646851 0.26936042308807373 -0.233566239476203918
-0.161306038498878479 0.196322783827781677 -0.0505839511752128601
-0.137619093060493469 -0.0564795061945915222 0.113968983292579651
0.0204377584159374237 -0.0630348920822143555 0.105981238186359406
-0.42140612006187439 0.37891077995300293 0.00785576272755861282
-0.240583121776580811 0.338540911674499512 -0.372361153364181519
-0.119231708347797394 0.220040664076805115 0.0194937288761138916
-0.104913972318172455 0.448471426963806152 0.0576502531766891479
-0.192203879356384277 0.237602576613426208 -0.207701936364173889
-0.0955833718180656433 0.396421492099761963 -0.186692938208580017
-0.120653137564659119 0.0338651388883590698 -0.0088441167026758194
-0.232252836227416992 -0.0258676446974277496 0.191951379179954529
-0.140749469399452209 0.607843637466430664 -0.413954645395278931
-0.213677361607551575 -0.130523249506950378 0.336638808250427246
0.140251010656356812 0.804765284061431885 -0.41159367561340332
0.0972392857074737549 -0.0671158581972122192 0.0693910643458366394
-0.276947945356369019 0.054177410900592804 0.0422746092081069946
-0.106326103210449219 0.517722189426422119 0.0571126118302345276
0.0284438244998455048 0.46571815013885498 -0.277200877666473389
-0.0769720599055290222 0.255355119705200195 -0.137021303176879883
-0.220878124237060547 0.185072958469390869 -0.0243850629776716232
-0.0362654738128185272 0.321271359920501709 -0.0948062092065811157
0.072756938636302948 0.495888561010360718 -0.131437048316001892
-0.0904832705855369568 -0.691904842853546143 0.00144294905476272106
-0.373946905136108398 0.0968740358948707581 0.238073229789733887
0.0527324751019477844 -0.206067800521850586 0.107615478336811066
-0.0710265040397644043 -0.115717425942420959 -0.100800119340419769
-0.229910627007484436 -0.0563390590250492096 0.180981159210205078
-0.152103900909423828 0.278699100017547607 -0.21294189989566803
0.104988574981689453 0.295029908418655396 -0.0308646950870752335
0.0440836437046527863 0.18274708092212677 -0.121038854122161865
0.0254316553473472595 -0.0228673927485942841 0.0994426459074020386
-0.0527458488941192627 -0.152531936764717102 0.348309934139251709
0.0165045261383056641 0.0925254523754119873 -0.115720398724079132
-0.0675604864954948425 0.464982092380523682 -0.112092435359954834
-0.434961378574371338 0.211295261979103088 -0.0471527203917503357
-0.109939955174922943 0.493443727493286133 -0.401449739933013916
-0.15874946117401123 -0.0656602978706359863 0.0951637476682662964
0.0411940738558769226 -0.22469744086265564 0.133138298988342285
0.109365507960319519 0.176626399159431458 0.0485606342554092407
0.108878381550312042 0.63470149040222168 -0.0546637624502182007
-0.30099719762802124 0.190989196300506592 0.30516427755355835
0.0750891417264938354 -0.358864814043045044 0.160593748092651367
-0.0681929811835289001 -0.155694380402565002 0.301776707172393799
0.000151305852341465652 0.62077796459197998 -0.420221269130706787
0.0909215137362480164 0.00258450442925095558 -0.072492845356464386
-0.166493833065032959 0.135341957211494446 0.390053123235702515
-0.313439488410949707 -0.00729142548516392708 0.230532377958297729
0.0656829476356506348 0.624817073345184326 0.0880652442574501038
-0.0719741135835647583 -0.104370385408401489 0.151255905628204346
-0.051274862140417099 0.0531550347805023193 -0.124087430536746979
0.0267482940107584 -0.184935897588729858 0.109184548258781433
-0.262598901987075806 0.0126514630392193794 0.154374271631240845
0.120453506708145142 0.528820216655731201 -0.224265098571777344
0.0773228257894515991 -0.251150310039520264 0.0837917551398277283
-0.00504082348197698593 0.110081739723682404 -0.112267494201660156
-0.138579338788986206 -0.0789316073060035706 0.222223475575447083
-0.313442409038543701 0.158985301852226257 -0.0609562434256076813
-0.1315879225730896 -0.191340148448944092 0.404792070388793945
-0.195904850959777832 0.00196736492216587067 0.0844170823693275452
0.122776798903942108 0.557334184646606445 -0.117759928107261658
