ply
format ascii 1.0
element vertex 717
property float x
property float y
property float z
end_header
0.0416733846068382263 0.426066547632217407 -0.656781435012817383
-0.31191667914390564 -0.228832632303237915 -0.177350789308547974
-0.340562403202056885 -0.434787601232528687 -0.301939636468887329
-0.293184548616409302 -0.195367082953453064 -0.411987483501434326
-0.106953725218772888 -0.443323969841003418 -0.0352458581328392029
-0.00887376256287097931 0.343381583690643311 -0.431088060140609741
0.219310551881790161 0.481438487768173218 -0.487687468528747559
-0.237500995397567749 -0.220751568675041199 -0.386289745569229126
0.00870712194591760635 0.57000356912612915 -0.432036310434341431
-0.381576746702194214 -0.561109006404876709 -0.257821172475814819
-0.281008362770080566 -0.603157877922058105 -0.327105253934860229
-0.286381900310516357 -0.412721484899520874 -0.245983108878135681
-0.0495708733797073364 -0.447761744260787964 -0.0283444784581661224
0.0128238899633288383 -0.306644409894943237 -0.0393265783786773682
0.313122957944869995 0.514710128307342529 -0.412069022655487061
-0.213665887713432312 0.376723200082778931 -0.469361245632171631
-0.120414391160011292 -0.0342712067067623138 -0.354923218488693237
0.246167942881584167 0.490087002515792847 -0.521121561527252197
-0.116402439773082733 -0.678609013557434082 -0.28323790431022644
0.121683128178119659 0.417467296123504639 -0.679568171501159668
-0.206771671772003174 0.327244818210601807 -0.420589715242385864
0.216679587960243225 0.435230910778045654 -0.485459387302398682
-0.289042651653289795 -0.172492966055870056 -0.176686123013496399
-0.12252768874168396 -0.0622384101152420044 -0.302783429622650146
-0.146448984742164612 0.402709603309631348 -0.50599217414855957
-0.170403122901916504 0.0321193970739841461 -0.187314793467521667
-0.0108612850308418274 0.45966687798500061 -0.523251831531524658
-0.408085286617279053 -0.19397871196269989 -0.388256937265396118
0.0584537573158740997 0.548494517803192139 -0.763314247131347656
-0.266882419586181641 -0.280022561550140381 -0.207648307085037231
0.121821120381355286 0.575151801109313965 -0.754029631614685059
-0.165739551186561584 0.0632738396525382996 -0.419807702302932739
-0.0208416711539030075 0.429080963134765625 -0.218796521425247192
-0.183195620775222778 0.697333991527557373 -0.612416923046112061
0.138185247778892517 0.61228412389755249 -0.761714458465576172
0.47451859712600708 0.613589346408843994 -0.661906599998474121
0.0872018709778785706 0.700445950031280518 -0.755548238754272461
-0.508460342884063721 -0.384015053510665894 -0.373958200216293335
0.252644240856170654 0.420997500419616699 -0.692383766174316406
-0.189394399523735046 -0.219370931386947632 -0.28555375337600708
-0.188969001173973083 0.527938663959503174 -0.685443460941314697
-0.499842166900634766 -0.529197931289672852 -0.270067691802978516
-0.139210477471351624 0.363039165735244751 -0.496943950653076172
-0.340615391731262207 0.262990057468414307 -0.312825381755828857
0.159321054816246033 0.447142630815505981 -0.758706986904144287
-0.146051466464996338 -0.465985000133514404 -0.151455223560333252
-0.340106755495071411 -0.610046982765197754 -0.336972057819366455
-0.294227719306945801 -0.481982111930847168 -0.19528961181640625
-0.301753968000411987 -0.399970412254333496 -0.31964409351348877
0.178256630897521973 0.455710142850875854 -0.31705707311630249
0.0247525870800018311 0.396103382110595703 -0.741780281066894531
-0.240100264549255371 0.214283749461174011 -0.336272150278091431
0.278415948152542114 0.563989818096160889 -0.417649269104003906
0.094800211489200592 0.363703072071075439 -0.244812995195388794
0.210368752479553223 0.448667138814926147 -0.653863847255706787
-0.188627034425735474 0.0235330015420913696 -0.423116862773895264
0.303996682167053223 0.497234523296356201 -0.492442697286605835
0.0909380018711090088 0.556099116802215576 -0.215869590640068054
-0.036059107631444931 0.41705968976020813 -0.215670675039291382
-0.236184641718864441 -0.261274009943008423 -0.270245641469955444
-0.34583631157875061 -0.46767503023147583 -0.295215755701065063
-0.49346277117729187 -0.541334271430969238 -0.309891164302825928
0.140847086906433105 0.381674200296401978 -0.299818068742752075
0.161644518375396729 0.428730905055999756 -0.378525197505950928
-0.305008918046951294 0.0765500590205192566 -0.320065468549728394
-0.129475727677345276 0.516692698001861572 -0.716104686260223389
-0.304111748933792114 -0.585554838180541992 -0.297371923923492432
-0.0382718630135059357 -0.585639297962188721 -0.268828064203262329
-0.270158052444458008 -0.279285252094268799 -0.383515089750289917
0.501708447933197021 0.458487540483474731 -0.532668769359588623
-0.280605554580688477 0.102245345711708069 -0.240613341331481934
0.278816908597946167 0.436436176300048828 -0.562368214130401611
0.420009702444076538 0.44807279109954834 -0.626675546169281006
-0.314820736646652222 0.0614087469875812531 -0.348854273557662964
-0.0891270339488983154 0.438696444034576416 -0.483980238437652588
-0.0144499689340591431 0.544198870658874512 -0.400387495756149292
-0.0508908964693546295 0.0569337531924247742 -0.310258597135543823
0.0487642660737037659 0.238914921879768372 -0.281065940856933594
-0.101092487573623657 0.408966034650802612 -0.5760994553565979
-0.321130901575088501 -0.472725123167037964 -0.219662189483642578
0.15396396815776825 0.497554481029510498 -0.433829247951507568
0.282063603401184082 0.530992627143859863 -0.423074901103973389
-0.347212731838226318 -0.470296084880828857 -0.3575114905834198
0.0450750328600406647 0.408341169357299805 -0.429239392280578613
0.00379919866099953651 0.443219274282455444 -0.70274430513381958
-0.211412355303764343 0.561837315559387207 -0.649963676929473877
-0.0742939412593841553 0.472342759370803833 -0.302173346281051636
-0.0656699016690254211 0.54720759391784668 -0.269519984722137451
0.2955055832862854 0.522276580333709717 -0.39093250036239624
0.0769991576671600342 0.309863567352294922 -0.255484551191329956
0.0825927630066871643 0.661966204643249512 -0.771305441856384277
-0.0982540324330329895 -0.503168940544128418 -0.0514136031270027161
0.174555599689483643 0.518039166927337646 -0.441301405429840088
0.230412304401397705 0.535001397132873535 -0.336935430765151978
-0.521323144435882568 -0.482580125331878662 -0.341057896614074707
0.318062424659729004 0.470468193292617798 -0.706915020942687988
-0.0210863817483186722 0.392308145761489868 -0.55215907096862793
-0.504567623138427734 -0.503501594066619873 -0.317918181419372559
-0.191250845789909363 -0.611527979373931885 -0.27686917781829834
-0.220553845167160034 0.199880748987197876 -0.323522418737411499
-0.002417735755443573 0.597500264644622803 -0.339657068252563477
-0.391715854406356812 -0.146577537059783936 -0.357856452465057373
-0.450551688671112061 -0.178091183304786682 -0.362737983465194702
-0.388711780309677124 0.376847177743911743 -0.509192705154418945
-0.033807799220085144 0.571827948093414307 -0.29853743314743042
-0.23030407726764679 -0.174267485737800598 -0.387111306190490723
-0.314536422491073608 0.0243061576038599014 -0.34704938530921936
-0.0468049570918083191 -0.48298346996307373 -0.0968332737684249878
-0.0170899294316768646 0.372180968523025513 -0.478841692209243774
-0.276750504970550537 -0.338140815496444702 -0.175812289118766785
0.238769844174385071 0.673036038875579834 -0.760817885398864746
0.12213936448097229 0.444505691528320312 -0.681171536445617676
0.000180540126166306436 -0.39166337251663208 -0.103497818112373352
0.169853761792182922 0.478400588035583496 -0.372237116098403931
0.522160708904266357 0.553052425384521484 -0.58497244119644165
0.142250716686248779 0.43836328387260437 -0.412399381399154663
0.00854767579585313797 0.439640581607818604 -0.749037563800811768
0.15346410870552063 0.444242894649505615 -0.280747801065444946
-0.0541286766529083252 0.336690574884414673 -0.418533295392990112
-0.272765606641769409 -0.653400957584381104 -0.375645279884338379
-0.166469067335128784 0.596018075942993164 -0.675688028335571289
-0.218688353896141052 -0.55662006139755249 -0.244989827275276184
-0.141976296901702881 0.0949953943490982056 -0.419521570205688477
0.366488009691238403 0.465433567762374878 -0.692548453807830811
0.0933351069688796997 0.308048933744430542 -0.321295499801635742
-0.238463327288627625 0.253602832555770874 -0.384514361619949341
-0.0357885994017124176 0.452265411615371704 -0.64599144458770752
-0.339617431163787842 0.44893568754196167 -0.564469277858734131
-0.286327123641967773 -0.268807023763656616 -0.151011601090431213
-0.178100287914276123 -0.673063457012176514 -0.448670625686645508
-0.182761892676353455 -0.528130233287811279 -0.174088269472122192
-0.438555598258972168 -0.428701192140579224 -0.402331709861755371
-0.0198826808482408524 0.530542910099029541 -0.352778077125549316
-0.427129209041595459 -0.539532601833343506 -0.190435662865638733
-0.0995664894580841064 -0.680295467376708984 -0.32974889874458313
-0.320763826370239258 0.607682466506958008 -0.480932116508483887
-0.056636027991771698 -0.606484413146972656 -0.359720915555953979
0.105570882558822632 0.439705371856689453 -0.234569206833839417
-0.171078011393547058 0.286543995141983032 -0.329202622175216675
-0.231705740094184875 0.177989840507507324 -0.27059444785118103
-0.23116341233253479 0.168292880058288574 -0.392255902290344238
0.250911951065063477 0.55891948938369751 -0.429205536842346191
-0.200216859579086304 -0.45397600531578064 -0.203818276524543762
-0.191253393888473511 -0.482301712036132812 -0.150092914700508118
-0.160195261240005493 -0.12651902437210083 -0.253345906734466553
-0.583958983421325684 -0.475344270467758179 -0.32837793231010437
-0.338250905275344849 -0.000857294420711696148 -0.345469266176223755
-0.0932359322905540466 0.411857098340988159 -0.412539660930633545
0.0362859331071376801 -0.361712992191314697 -0.126602858304977417
0.479349046945571899 0.648948907852172852 -0.674077212810516357
0.133382037281990051 0.451775521039962769 -0.580169618129730225
-0.162431985139846802 0.228085935115814209 -0.389057040214538574
-0.567921102046966553 -0.460915058851242065 -0.28360438346862793
-0.0375919565558433533 -0.527968108654022217 -0.35194694995880127
-0.320058047771453857 -0.549281656742095947 -0.251010090112686157
-0.324589252471923828 0.41205260157585144 -0.635852694511413574
-0.0586267225444316864 0.52310490608215332 -0.301591575145721436
-0.12387470155954361 0.36044621467590332 -0.387703359127044678
-0.386811763048171997 -0.224181041121482849 -0.409755140542984009
0.0520431995391845703 0.476650506258010864 -0.548455655574798584
-0.125455856323242188 -0.611998677253723145 -0.258409649133682251
0.225597381591796875 0.517018616199493408 -0.508985817432403564
-0.374102950096130371 0.368689090013504028 -0.424531161785125732
-0.310026705265045166 0.589373230934143066 -0.536642193794250488
0.0740030556917190552 0.403936684131622314 -0.463836222887039185
-0.135835900902748108 -0.597362399101257324 -0.179390460252761841
-0.141710162162780762 0.452283114194869995 -0.675813376903533936
0.140428364276885986 0.438823282718658447 -0.572456896305084229
-0.307957470417022705 -0.559425890445709229 -0.303227990865707397
0.425353378057479858 0.505360543727874756 -0.648238778114318848
-0.239517480134963989 0.34216761589050293 -0.543268084526062012
-0.256865948438644409 0.374671250581741333 -0.466349005699157715
-0.204790204763412476 0.381426900625228882 -0.520249128341674805
-0.0991536900401115417 0.139727562665939331 -0.426620781421661377
-0.326240241527557373 0.112285248935222626 -0.269375860691070557
-0.234852448105812073 -0.207393482327461243 -0.233916193246841431
0.0583598576486110687 0.225567266345024109 -0.335804253816604614
-0.52094876766204834 -0.517979145050048828 -0.220475688576698303
-0.017479998990893364 0.0931443274021148682 -0.257669508457183838
-0.179836273193359375 -0.394900262355804443 -0.126932844519615173
0.0354675576090812683 -0.41056331992149353 -0.282861083745956421
-0.10457262396812439 -0.634507834911346436 -0.317578107118606567
0.244240999221801758 0.572480857372283936 -0.737933993339538574
-0.139313206076622009 -0.427689194679260254 -0.0959527567028999329
-0.0234163310378789902 0.411665529012680054 -0.713634610176086426
-0.073546484112739563 0.394782721996307373 -0.697515189647674561
-0.391563206911087036 -0.42864757776260376 -0.181707084178924561
0.0185789819806814194 0.182771965861320496 -0.360248714685440063
0.601722240447998047 0.681542575359344482 -0.585404813289642334
-0.34996330738067627 -0.443425208330154419 -0.212317675352096558
0.066244468092918396 -0.209751337766647339 -0.0274635441601276398
-0.280489116907119751 -0.319718748331069946 -0.159577637910842896
0.00347323482856154442 0.395387828350067139 -0.176956996321678162
0.0958507135510444641 0.425402611494064331 -0.579421341419219971
0.320483535528182983 0.562108516693115234 -0.753521323204040527
-0.401452600955963135 -0.568018019199371338 -0.328912198543548584
-0.050804920494556427 0.386733263731002808 -0.639028668403625488
-0.377343326807022095 -0.283245950937271118 -0.401881098747253418
0.050998147577047348 0.640162527561187744 -0.249475553631782532
-0.303234726190567017 0.20904715359210968 -0.286924421787261963
-0.335526496171951294 -0.531496047973632812 -0.249076679348945618
0.0594148412346839905 0.274194419384002686 -0.330217421054840088
-0.116801872849464417 -0.592235565185546875 -0.23433975875377655
-0.22101081907749176 -0.664947509765625 -0.334558248519897461
-0.134267687797546387 0.446005195379257202 -0.71406179666519165
-0.43322145938873291 -0.345456779003143311 -0.391870349645614624
0.22122490406036377 0.479042500257492065 -0.338053643703460693
0.0878740996122360229 0.557701170444488525 -0.759212911128997803
-0.118090443313121796 -0.7015114426612854 -0.380661666393280029
-0.0815495774149894714 -0.588802754878997803 -0.228902548551559448
0.148882567882537842 0.389206677675247192 -0.362335264682769775
0.0736882686614990234 0.268612474203109741 -0.385513544082641602
0.391134500503540039 0.602139949798583984 -0.723869800567626953
0.165974527597427368 0.625065505504608154 -0.291099637746810913
-0.273800432682037354 -0.362669706344604492 -0.29545128345489502
-0.225850358605384827 -0.368373900651931763 -0.0890539512038230896
-0.383240848779678345 -0.0593585669994354248 -0.265722930431365967
-0.284257411956787109 -0.339060962200164795 -0.371134012937545776
-0.324886530637741089 -0.294625163078308105 -0.188878566026687622
0.240610033273696899 0.552475333213806152 -0.39178013801574707
0.0769064426422119141 0.6979026198387146 -0.275618076324462891
-0.201657667756080627 0.235726073384284973 -0.378057032823562622
-0.0895857661962509155 0.0019829445518553257 -0.23375430703163147
0.0383289270102977753 0.234740138053894043 -0.255984902381896973
-0.101439312100410461 -0.534502089023590088 -0.0537170208990573883
-0.200928211212158203 0.388998210430145264 -0.587103188037872314
0.0948870256543159485 0.459425419569015503 -0.441710084676742554
-0.0377762094140052795 -0.40337139368057251 -0.0383830294013023376
-0.0516356304287910461 0.53714829683303833 -0.734319806098937988
-0.255020737648010254 0.323679596185684204 -0.436527609825134277
-0.0848868414759635925 0.440177589654922485 -0.571012914180755615
-0.185711562633514404 0.301644831895828247 -0.349152058362960815
0.324145287275314331 0.431063920259475708 -0.607086002826690674
-0.0464233532547950745 0.339033246040344238 -0.460623502731323242
-0.0172430910170078278 -0.495813459157943726 -0.366464197635650635
-0.371568888425827026 0.387165546417236328 -0.525387942790985107
-0.245447888970375061 0.22973354160785675 -0.366728484630584717
-0.0536668896675109863 -0.564800441265106201 -0.304259419441223145
0.192027449607849121 0.414030075073242188 -0.67417442798614502
-0.241496816277503967 0.258381366729736328 -0.368458598852157593
-0.576988279819488525 -0.4464913010597229 -0.261510461568832397
-0.49620509147644043 -0.507286250591278076 -0.228505179286003113
0.500545382499694824 0.546930432319641113 -0.617268800735473633
0.379591912031173706 0.400413036346435547 -0.627981901168823242
-0.0454850122332572937 -0.546174824237823486 -0.226662203669548035
-0.42613595724105835 -0.140622809529304504 -0.287172049283981323
0.0229439716786146164 0.554009974002838135 -0.245185643434524536
-0.0231373831629753113 0.622072935104370117 -0.730834424495697021
-0.023623637855052948 -0.450641274452209473 -0.4257945716381073
-0.0403020977973937988 0.0781515464186668396 -0.301592558622360229
-0.344851374626159668 0.313124090433120728 -0.416626781225204468
-0.293749898672103882 0.420177459716796875 -0.557258546352386475
-0.0676198899745941162 0.448220133781433105 -0.242115974426269531
0.166532218456268311 0.471156001091003418 -0.52328568696975708
-0.193681508302688599 -0.40638357400894165 -0.0524158217012882233
0.056431252509355545 -0.348153948783874512 -0.181816518306732178
-0.286447644233703613 -0.0786744728684425354 -0.404936522245407104
-0.159310489892959595 0.360125988721847534 -0.472580552101135254
-0.243902266025543213 0.150820672512054443 -0.283913344144821167
0.203035473823547363 0.474551171064376831 -0.524895310401916504
-0.166403248906135559 0.471177160739898682 -0.692746996879577637
-0.285570621490478516 0.306145697832107544 -0.384882569313049316
-0.170440763235092163 -0.464614450931549072 -0.0883811488747596741
-0.351209461688995361 -0.572920858860015869 -0.371394842863082886
0.427159935235977173 0.486713767051696777 -0.64596790075302124
0.504879772663116455 0.521429836750030518 -0.590709388256072998
0.0788435861468315125 -0.328866720199584961 -0.149992495775222778
-0.104752786457538605 -0.494014203548431396 -0.154829651117324829
0.197843700647354126 0.693070590496063232 -0.747272312641143799
-0.340972036123275757 0.562230587005615234 -0.557243287563323975
-0.0422850064933300018 0.643348097801208496 -0.731234073638916016
-0.101151876151561737 -0.526103317737579346 -0.111889533698558807
-0.00723260454833507538 -0.374729365110397339 -0.074219927191734314
0.0526623986661434174 0.626673042774200439 -0.747512936592102051
-0.257171839475631714 0.143532291054725647 -0.281625479459762573
-0.220163553953170776 -0.565010666847229004 -0.230834439396858215
-0.11501380056142807 0.584576129913330078 -0.711284041404724121
-0.110157974064350128 0.407350510358810425 -0.321389257907867432
0.385452985763549805 0.488304018974304199 -0.512243926525115967
-0.256257981061935425 -0.537688791751861572 -0.301709800958633423
-0.0969598144292831421 0.373694121837615967 -0.241746261715888977
-0.256490230560302734 -0.635135293006896973 -0.375855833292007446
-0.0993162840604782104 0.356881171464920044 -0.508660852909088135
-0.124140918254852295 0.346411198377609253 -0.374508649110794067
-0.106204450130462646 0.080527573823928833 -0.198351085186004639
-0.288984835147857666 0.0921882912516593933 -0.337723493576049805
-0.190620779991149902 0.360571354627609253 -0.502113103866577148
-0.387936562299728394 0.507824301719665527 -0.450326234102249146
0.293676912784576416 0.436365395784378052 -0.66195148229598999
-0.224790483713150024 0.289380311965942383 -0.400794237852096558
-0.0373319052159786224 -0.477805078029632568 -0.141658276319503784
0.01506795734167099 0.656185686588287354 -0.759179770946502686
0.340123802423477173 0.516541063785552979 -0.537872672080993652
-0.505516409873962402 -0.412979573011398315 -0.378332912921905518
-0.266608238220214844 -0.371500194072723389 -0.213796406984329224
-0.227881893515586853 -0.105399250984191895 -0.173009157180786133
0.518275141716003418 0.695803403854370117 -0.667267143726348877
-0.293918699026107788 -0.388970881700515747 -0.189929276704788208
-0.0305941496044397354 -0.527484476566314697 -0.302289694547653198
0.135947763919830322 0.497853755950927734 -0.504506707191467285
0.0883085429668426514 0.435585349798202515 -0.554481685161590576
-0.313457101583480835 0.627470076084136963 -0.468339204788208008
0.100308626890182495 0.514356017112731934 -0.756508946418762207
-0.252652734518051147 -0.328136593103408813 -0.105994194746017456
0.0390397496521472931 0.404032111167907715 -0.700499475002288818
-0.244970321655273438 -0.505588710308074951 -0.194804191589355469
-0.15560285747051239 -0.57853388786315918 -0.167368218302726746
-0.275984615087509155 0.539686799049377441 -0.608080804347991943
0.195968776941299438 0.601152300834655762 -0.445732742547988892
0.129816845059394836 0.645101785659790039 -0.336031556129455566
-0.390878826379776001 -0.546440720558166504 -0.288392364978790283
-0.29695659875869751 -0.430713087320327759 -0.195941835641860962
-0.283593356609344482 -0.347014814615249634 -0.210172742605209351
0.0654541030526161194 0.455582916736602783 -0.760395407676696777
-0.0745644718408584595 0.625827014446258545 -0.718896865844726562
-0.292683243751525879 -0.386546343564987183 -0.364805430173873901
0.0471843443810939789 0.448687583208084106 -0.752094864845275879
-0.265206634998321533 -0.250578194856643677 -0.357195734977722168
0.175905108451843262 0.462206214666366577 -0.604519307613372803
-0.173381820321083069 0.346341460943222046 -0.505943655967712402
-0.333794981241226196 -0.103904187679290771 -0.382761746644973755
0.309955030679702759 0.47076299786567688 -0.622707128524780273
0.0249369647353887558 0.424706786870956421 -0.233953103423118591
0.0705376937985420227 0.306437373161315918 -0.376533597707748413
-0.451721012592315674 -0.520601630210876465 -0.204114839434623718
0.025023752823472023 0.385888069868087769 -0.45218271017074585
-0.386532515287399292 0.353036284446716309 -0.40907636284828186
0.193911522626876831 0.622733712196350098 -0.254523694515228271
-0.246912151575088501 -0.303757667541503906 -0.184950441122055054
0.530136525630950928 0.595764517784118652 -0.599913716316223145
0.312094181776046753 0.627064526081085205 -0.736233234405517578
0.150137290358543396 0.391238123178482056 -0.755582153797149658
0.0592093504965305328 0.322811275720596313 -0.412083536386489868
0.00699954526498913765 -0.483872294425964355 -0.206286579370498657
0.269926995038986206 0.530463516712188721 -0.456180840730667114
0.00277216453105211258 0.101003251969814301 -0.330879449844360352
-0.123342588543891907 0.36136329174041748 -0.38617408275604248
0.00294596259482204914 0.485277563333511353 -0.763958096504211426
-0.305527091026306152 -0.51500624418258667 -0.288402765989303589
0.0489706210792064667 -0.168585687875747681 -0.0061811334453523159
-0.494294583797454834 -0.351305067539215088 -0.380052775144577026
-0.174630001187324524 0.307010650634765625 -0.423704475164413452
0.233547940850257874 0.584836661815643311 -0.384079515933990479
0.380817592144012451 0.467349022626876831 -0.669543266296386719
-0.346611469984054565 -0.448941349983215332 -0.226138070225715637
-0.172342851758003235 0.638285577297210693 -0.63662797212600708
-0.357040613889694214 -0.434509545564651489 -0.24611257016658783
0.250501543283462524 0.442732125520706177 -0.605852901935577393
-0.379100710153579712 -0.513432621955871582 -0.251366615295410156
-0.0883071571588516235 0.1809101402759552 -0.187089338898658752
-0.294397413730621338 -0.553580224514007568 -0.30041167140007019
-0.257651001214981079 -0.326375722885131836 -0.321025699377059937
-0.113407924771308899 -0.545130491256713867 -0.163401246070861816
-0.493352979421615601 -0.27661740779876709 -0.328635483980178833
-0.275639623403549194 -0.367121011018753052 -0.125710919499397278
-0.153065115213394165 0.399505138397216797 -0.494100302457809448
-0.335383176803588867 0.0190992262214422226 -0.328854382038116455
0.168075248599052429 0.54050832986831665 -0.489314496517181396
-0.023066449910402298 0.37652355432510376 -0.533599197864532471
-0.0819996073842048645 0.0961626097559928894 -0.221615046262741089
-0.0578758567571640015 0.0322174429893493652 -0.365288674831390381
0.513285458087921143 0.489414900541305542 -0.567988216876983643
0.0112672783434391022 0.522426843643188477 -0.765428781509399414
-0.026877114549279213 0.194585308432579041 -0.224755272269248962
0.26547771692276001 0.538386940956115723 -0.466464906930923462
0.338602393865585327 0.452261805534362793 -0.633746027946472168
0.0200963057577610016 -0.459242075681686401 -0.328807950019836426
-0.210720434784889221 0.395842373371124268 -0.65703052282333374
-0.13262525200843811 0.419876933097839355 -0.738016963005065918
0.124494612216949463 0.451148688793182373 -0.470967948436737061
-0.197155490517616272 0.24864642322063446 -0.355663537979125977
-0.341032475233078003 -0.458442866802215576 -0.219644248485565186
0.0540073402225971222 0.43147549033164978 -0.661443889141082764
-0.184239402413368225 0.432843983173370361 -0.704168856143951416
-0.144769519567489624 0.298005849123001099 -0.39093741774559021
0.000729235820472240448 0.159345492720603943 -0.245438069105148315
-0.195005789399147034 0.289092898368835449 -0.332929790019989014
-0.304737895727157593 0.315896302461624146 -0.352618306875228882
-0.0472762435674667358 -0.506603777408599854 -0.428249865770339966
-0.156529903411865234 -0.727057516574859619 -0.366479218006134033
0.110692486166954041 0.447297751903533936 -0.582939386367797852
-0.149610623717308044 0.31292155385017395 -0.286772429943084717
0.182887807488441467 0.546401500701904297 -0.422050446271896362
0.141591057181358337 0.564217984676361084 -0.764243662357330322
0.154929846525192261 0.488614708185195923 -0.768378376960754395
0.0865444093942642212 0.448925107717514038 -0.52123713493347168
-0.376487225294113159 -0.397996276617050171 -0.372230112552642822
0.00901219993829727173 0.423562616109848022 -0.529231607913970947
-0.252637535333633423 -0.229036182165145874 -0.186335757374763489
-0.291783064603805542 -0.165505900979042053 -0.414600998163223267
-0.291185319423675537 -0.385998159646987915 -0.226096004247665405
-0.202065348625183105 -0.619127154350280762 -0.2633858323097229
0.177057802677154541 0.635297656059265137 -0.312705248594284058
-0.229028627276420593 -0.316912651062011719 -0.132551014423370361
-0.186117127537727356 0.114366084337234497 -0.42342674732208252
-0.217764526605606079 -0.24135233461856842 -0.303225547075271606
-0.156278640031814575 -0.551566064357757568 -0.252531528472900391
-0.0855663791298866272 -0.65442889928817749 -0.266849011182785034
0.0646223872900009155 0.596666634082794189 -0.754952073097229004
-0.194906085729598999 -0.00274565909057855606 -0.184953644871711731
0.155034437775611877 0.661697030067443848 -0.773762404918670654
0.0980223193764686584 0.34340861439704895 -0.308853268623352051
0.156730979681015015 0.546552717685699463 -0.43056759238243103
-0.265229374170303345 0.173447087407112122 -0.36552131175994873
0.00265357224270701408 0.494684129953384399 -0.417598515748977661
-0.0230275280773639679 0.390294194221496582 -0.457399606704711914
-0.136990100145339966 -0.656799852848052979 -0.287254273891448975
-0.206520095467567444 0.416940093040466309 -0.636028468608856201
0.198756977915763855 0.61662977933883667 -0.340908169746398926
0.285470455884933472 0.41008460521697998 -0.640455961227416992
-0.127431467175483704 -0.651822149753570557 -0.258824020624160767
0.0379412844777107239 0.674052119255065918 -0.375405967235565186
0.288420379161834717 0.60608828067779541 -0.758551597595214844
0.153608337044715881 0.465004652738571167 -0.491117894649505615
-0.120994873344898224 0.414316266775131226 -0.623685181140899658
0.122455388307571411 0.476417124271392822 -0.547762274742126465
0.408789455890655518 0.537177205085754395 -0.674634575843811035
-0.165271356701850891 -0.625717580318450928 -0.286942392587661743
-0.0738825798034667969 0.412747979164123535 -0.538878560066223145
0.128371268510818481 0.395759612321853638 -0.241214856505393982
-0.0170280132442712784 0.564092755317687988 -0.747494935989379883
-0.368575721979141235 0.306253552436828613 -0.404481112957000732
-0.0468010641634464264 0.407874733209609985 -0.493833065032958984
-0.274774998426437378 0.386191040277481079 -0.4985542893409729
0.00399644020944833755 -0.476144582033157349 -0.412956118583679199
-0.162297561764717102 -0.445486217737197876 -0.121899142861366272
0.305942803621292114 0.447983592748641968 -0.631783008575439453
-0.161801725625991821 -0.0671872273087501526 -0.408793121576309204
-0.0948990583419799805 0.173036947846412659 -0.428754955530166626
0.14878527820110321 0.623633265495300293 -0.448749959468841553
-0.399332255125045776 0.470263928174972534 -0.46244320273399353
0.220955535769462585 0.601049423217773438 -0.362679272890090942
-0.249755784869194031 0.672223925590515137 -0.53512108325958252
-0.086367189884185791 0.440338253974914551 -0.383679091930389404
0.00405846303328871727 0.634947776794433594 -0.318503290414810181
-0.00726872030645608902 0.297073572874069214 -0.20472659170627594
-0.190542548894882202 0.341746926307678223 -0.382829338312149048
0.114281021058559418 0.55292665958404541 -0.457328379154205322
0.369781136512756348 0.503821790218353271 -0.701420426368713379
-0.169728457927703857 0.401414334774017334 -0.518400371074676514
0.175574883818626404 0.513802528381347656 -0.762089848518371582
-0.355559855699539185 -0.446763306856155396 -0.333273619413375854
0.409236133098602295 0.690327465534210205 -0.716680765151977539
0.0349567122757434845 0.300725221633911133 -0.232871875166893005
0.335809767246246338 0.446293264627456665 -0.534290671348571777
-0.0825084224343299866 -0.576709747314453125 -0.175231426954269409
-0.452820003032684326 -0.362592518329620361 -0.375607609748840332
-0.312845498323440552 -0.346372604370117188 -0.220556825399398804
-0.0143481967970728874 0.368805110454559326 -0.408064275979995728
0.252366572618484497 0.495628058910369873 -0.503395318984985352
0.117851987481117249 0.480310380458831787 -0.759156525135040283
-0.299082189798355103 0.435827940702438354 -0.609876275062561035
0.180917292833328247 0.441502213478088379 -0.442346006631851196
-0.271739065647125244 -0.330147117376327515 -0.119420409202575684
0.156575128436088562 0.457543551921844482 -0.37689208984375
-0.1941508948802948 -0.580286622047424316 -0.319802135229110718
0.336737692356109619 0.47668910026550293 -0.492495477199554443
-0.232042983174324036 0.487111002206802368 -0.677279651165008545
0.118897721171379089 0.45258861780166626 -0.636996746063232422
0.449891775846481323 0.433934152126312256 -0.557975590229034424
-0.206186860799789429 0.381754398345947266 -0.674622416496276855
0.023975888267159462 0.434494048357009888 -0.529924511909484863
-0.263543248176574707 0.438443899154663086 -0.646035552024841309
-0.0138492891564965248 -0.475595653057098389 -0.250232964754104614
0.128128409385681152 0.470917731523513794 -0.420771956443786621
-0.130171477794647217 0.305795460939407349 -0.39439082145690918
0.153737857937812805 0.435600161552429199 -0.492426007986068726
-0.192115828394889832 -0.122494280338287354 -0.219018548727035522
-0.209000498056411743 -0.188252270221710205 -0.351984947919845581
-0.386943995952606201 -0.0840592235326766968 -0.367614835500717163
-0.385219305753707886 -0.192389830946922302 -0.393603593111038208
-0.267461061477661133 -0.434198826551437378 -0.227495729923248291
-0.148668840527534485 0.375133693218231201 -0.56922680139541626
-0.0484043098986148834 0.407205343246459961 -0.510018527507781982
-0.375757783651351929 -0.0888509154319763184 -0.263058125972747803
0.0659897774457931519 0.274283766746520996 -0.274940758943557739
-0.549823284149169922 -0.374068856239318848 -0.325951337814331055
0.328686624765396118 0.439696520566940308 -0.536240041255950928
0.0550420768558979034 0.63443303108215332 -0.247256875038146973
-0.36878630518913269 -0.0551393777132034302 -0.308495461940765381
-0.178719818592071533 -0.534529387950897217 -0.251280635595321655
-0.114249013364315033 0.360326081514358521 -0.471659690141677856
0.190142586827278137 0.449008852243423462 -0.751408934593200684
0.237120792269706726 0.553885817527770996 -0.276261448860168457
0.0621694661676883698 0.36690637469291687 -0.43064117431640625
-0.143326491117477417 -0.412299573421478271 -0.0559105537831783295
-0.00894451513886451721 0.155698716640472412 -0.244454458355903625
-0.219099029898643494 0.425750434398651123 -0.597006857395172119
-0.0968793854117393494 0.426486611366271973 -0.702713429927825928
-0.465318679809570312 -0.196208864450454712 -0.29602542519569397
0.189662009477615356 0.462832152843475342 -0.643374860286712646
0.185519382357597351 0.429539084434509277 -0.591525793075561523
-0.122867166996002197 -0.490141928195953369 -0.11143261194229126
-0.229487583041191101 0.696570336818695068 -0.551859855651855469
-0.354464083909988403 -0.315454035997390747 -0.164399579167366028
-0.226088732481002808 -0.562238991260528564 -0.269128412008285522
-0.0843332409858703613 0.407825827598571777 -0.453614890575408936
-0.127880185842514038 0.204253837466239929 -0.436466634273529053
-0.227982312440872192 -0.661579906940460205 -0.379834473133087158
0.445774346590042114 0.655994653701782227 -0.707373619079589844
0.48959052562713623 0.563849210739135742 -0.634665429592132568
-0.278049200773239136 -0.245006516575813293 -0.175971508026123047
-0.0159613639116287231 0.472067981958389282 -0.245331361889839172
-0.256417661905288696 0.343183934688568115 -0.461658239364624023
-0.190005004405975342 -0.538106203079223633 -0.172627642750740051
-0.215936228632926941 0.439894497394561768 -0.690561234951019287
-0.0889090895652770996 0.145729631185531616 -0.186092659831047058
-0.0150777148082852364 0.409251302480697632 -0.694923639297485352
-0.264258146286010742 0.346435219049453735 -0.445145159959793091
-0.276094734668731689 -0.323540627956390381 -0.227265611290931702
0.272831827402114868 0.479884594678878784 -0.491139531135559082
-0.214911043643951416 0.660106837749481201 -0.614203274250030518
-0.396969139575958252 -0.547037661075592041 -0.367754638195037842
-0.252042144536972046 -0.0527461506426334381 -0.412251919507980347
0.0588901601731777191 -0.248334884643554688 -0.0864423513412475586
0.149161532521247864 0.426264941692352295 -0.678718626499176025
0.0475916862487792969 -0.310664087533950806 -0.125091910362243652
-0.0843737050890922546 0.567341506481170654 -0.733983516693115234
-0.380091547966003418 -0.392718136310577393 -0.159294173121452332
0.0592670105397701263 0.327745288610458374 -0.227139264345169067
-0.311350464820861816 0.339828044176101685 -0.434839487075805664
0.202876105904579163 0.534839510917663574 -0.749006450176239014
-0.211881309747695923 -0.466009557247161865 -0.101726233959197998
-0.267548501491546631 0.301796257495880127 -0.382925093173980713
-0.0199137330055236816 0.406007260084152222 -0.583218932151794434
-0.0513440556824207306 0.401648133993148804 -0.416363030672073364
-0.00966348405927419662 0.341044872999191284 -0.430700868368148804
-0.238828077912330627 -0.46231156587600708 -0.171589776873588562
-0.0122183356434106827 -0.40929114818572998 -0.0709810703992843628
-0.140016227960586548 0.401137202978134155 -0.586827576160430908
-0.187775507569313049 -0.0950402617454528809 -0.214779749512672424
-0.29335486888885498 0.396027863025665283 -0.565787017345428467
-0.295803099870681763 0.669398844242095947 -0.474472701549530029
0.116619192063808441 0.532432138919830322 -0.226042568683624268
0.392509013414382935 0.502399921417236328 -0.533196091651916504
0.0603299178183078766 0.447073012590408325 -0.507551848888397217
-0.0769186094403266907 -0.549550473690032959 -0.115825541317462921
-0.148892343044281006 0.325286954641342163 -0.389924108982086182
-0.196031227707862854 -0.322196781635284424 -0.0664222240447998047
-0.0598866939544677734 -0.0160367805510759354 -0.329666703939437866
0.00942446105182170868 0.164172142744064331 -0.368324786424636841
-0.096773393452167511 0.369175642728805542 -0.531537771224975586
0.102237716317176819 0.676551878452301025 -0.373417198657989502
0.015939958393573761 0.244610488414764404 -0.410603582859039307
-0.256547927856445312 0.387206614017486572 -0.567274868488311768
-0.227099955081939697 -0.412530332803726196 -0.0965635776519775391
-0.0482644140720367432 -0.564659476280212402 -0.4044056236743927
-0.300443589687347412 0.0781783014535903931 -0.250642627477645874
0.244542926549911499 0.398500263690948486 -0.691516757011413574
0.37487185001373291 0.457472354173660278 -0.565843760967254639
-0.294516324996948242 0.467917889356613159 -0.643321394920349121
-0.08991270512342453 -0.032631605863571167 -0.293294012546539307
-0.285933881998062134 -0.215347334742546082 -0.18475303053855896
-0.241109728813171387 0.158912986516952515 -0.241361945867538452
-0.092699885368347168 0.0584973469376564026 -0.395599663257598877
-0.190796837210655212 -0.186405614018440247 -0.296126693487167358
-0.104335978627204895 0.393736004829406738 -0.512299895286560059
-0.0608010850846767426 0.438077062368392944 -0.406701922416687012
-0.345181912183761597 -0.0305884256958961487 -0.25336003303527832
0.166550248861312866 0.532592892646789551 -0.429271399974822998
-0.354872852563858032 0.593256235122680664 -0.441478967666625977
0.0462013185024261475 0.44334709644317627 -0.495386838912963867
-0.111665830016136169 0.396475076675415039 -0.27535015344619751
0.525413453578948975 0.643573403358459473 -0.630982100963592529
0.196384459733963013 0.550252079963684082 -0.388572096824645996
0.015712713822722435 -0.447123825550079346 -0.17745266854763031
-0.210616350173950195 -0.448644667863845825 -0.140499129891395569
-0.117082558572292328 0.348411917686462402 -0.236789122223854065
-0.112715229392051697 0.322349220514297485 -0.230041638016700745
-0.163093253970146179 0.268991053104400635 -0.36502411961555481
-0.397690176963806152 0.332962304353713989 -0.394174695014953613
0.0548208542168140411 0.463959693908691406 -0.574949741363525391
-0.0210951510816812515 0.140913456678390503 -0.334804773330688477
-0.209546953439712524 -0.682729661464691162 -0.400261551141738892
0.0465458892285823822 0.393608391284942627 -0.547241449356079102
-0.0568015575408935547 0.56838756799697876 -0.743524074554443359
-0.258774399757385254 0.290508538484573364 -0.32738041877746582
-0.26236841082572937 0.18771633505821228 -0.336464017629623413
-0.393127173185348511 -0.122715674340724945 -0.300941705703735352
-0.327194064855575562 -0.0150315584614872932 -0.271972000598907471
-0.366813421249389648 -0.23483063280582428 -0.390709429979324341
-0.221112176775932312 0.208068042993545532 -0.291007786989212036
-0.0917739421129226685 0.584853231906890869 -0.746752023696899414
-0.337190777063369751 -0.52987360954284668 -0.282235920429229736
0.30831572413444519 0.550830841064453125 -0.432576745748519897
-0.171213552355766296 -0.110616691410541534 -0.382930636405944824
-0.145909443497657776 -0.517446339130401611 -0.170049116015434265
0.208960890769958496 0.546370327472686768 -0.465567260980606079
-0.256411284208297729 -0.385481655597686768 -0.0880655348300933838
-0.422854334115982056 -0.120244108140468597 -0.254869043827056885
-0.0302433744072914124 -0.503547132015228271 -0.171553969383239746
-0.25130191445350647 -0.547509551048278809 -0.345260828733444214
0.114837326109409332 0.597295880317687988 -0.223565950989723206
0.250233441591262817 0.423743665218353271 -0.66996234655380249
-0.0751793086528778076 0.156644836068153381 -0.418552935123443604
0.45594179630279541 0.446106672286987305 -0.516568124294281006
-0.187404587864875793 -0.4711570143699646 -0.119593635201454163
-0.215044915676116943 -0.67475593090057373 -0.421736299991607666
0.26428067684173584 0.583108901977539062 -0.353742688894271851
0.15479007363319397 0.467582404613494873 -0.576648414134979248
0.161152005195617676 0.410669773817062378 -0.737031221389770508
0.0507062450051307678 0.1884869784116745 -0.299798041582107544
-0.394437849521636963 -0.517393589019775391 -0.356509625911712646
-0.181091323494911194 0.383359789848327637 -0.526125311851501465
-0.197734102606773376 -0.151643827557563782 -0.371693581342697144
0.00154933880548924208 0.415480345487594604 -0.561613917350769043
-0.187246084213256836 0.378355741500854492 -0.60430222749710083
-0.102546371519565582 -0.464339017868041992 -0.0399349257349967957
0.0213574040681123734 0.213799908757209778 -0.233351916074752808
0.161862969398498535 0.564201056957244873 -0.212938770651817322
0.355433911085128784 0.439901411533355713 -0.640499651432037354
-0.0791234150528907776 0.0205438267439603806 -0.342492669820785522
-0.315401971340179443 0.399254292249679565 -0.585967838764190674
-0.264754116535186768 0.120788276195526123 -0.348966360092163086
-0.303619533777236938 -0.594148337841033936 -0.366718918085098267
0.458272308111190796 0.503624260425567627 -0.615811288356781006
0.0221883561462163925 0.265105873346328735 -0.204559788107872009
-0.128579273819923401 -0.420350581407546997 -0.0386579930782318115
-0.233484581112861633 0.263279467821121216 -0.371091365814208984
-0.334694087505340576 0.351310193538665771 -0.50807952880859375
0.123243086040019989 0.412775486707687378 -0.603523373603820801
0.576830923557281494 0.69895780086517334 -0.631737887859344482
-0.179290533065795898 0.0905171260237693787 -0.182934626936912537
-0.104415841400623322 0.370673030614852905 -0.430434077978134155
-0.16157551109790802 0.274802595376968384 -0.405244141817092896
0.170865952968597412 0.525290787220001221 -0.246240213513374329
0.467605650424957275 0.514951527118682861 -0.636018693447113037
-0.314793139696121216 0.435256838798522949 -0.559148907661437988
0.0626075416803359985 0.409352868795394897 -0.75696796178817749
0.0941484123468399048 0.449445843696594238 -0.601987183094024658
0.158933624625205994 0.496627926826477051 -0.418419003486633301
-0.487460732460021973 -0.51249462366104126 -0.385752737522125244
0.00669828196987509727 -0.456968456506729126 -0.277518421411514282
-0.381998211145401001 -0.516029596328735352 -0.329148173332214355
-0.1393299400806427 0.33825567364692688 -0.448667675256729126
0.0691324174404144287 0.46009904146194458 -0.621078133583068848
0.342399269342422485 0.492171376943588257 -0.525473594665527344
0.131397515535354614 0.664742946624755859 -0.244218647480010986
-0.0441294722259044647 -0.568463683128356934 -0.354832768440246582
0.0203955098986625671 0.508993744850158691 -0.204179227352142334
0.163785949349403381 0.457652807235717773 -0.370210915803909302
0.176633626222610474 0.48395344614982605 -0.511113822460174561
-0.0484605357050895691 0.158405393362045288 -0.222476348280906677
-0.154395639896392822 -0.502521097660064697 -0.0659911558032035828
0.275344967842102051 0.628588378429412842 -0.767676889896392822
0.119913853704929352 0.528280019760131836 -0.450785130262374878
-0.136446714401245117 -0.485484391450881958 -0.138982176780700684
-0.383093357086181641 0.385192662477493286 -0.495407015085220337
0.141218289732933044 0.625082015991210938 -0.200924739241600037
-0.0552218742668628693 0.479088664054870605 -0.355745971202850342
-0.392761200666427612 -0.309802263975143433 -0.39549371600151062
-0.312044382095336914 -0.331146538257598877 -0.139133661985397339
-0.182139918208122253 0.619381725788116455 -0.644284188747406006
-0.257888287305831909 0.386996239423751831 -0.513628005981445312
-0.0732412710785865784 0.358601540327072144 -0.409396231174468994
0.144518435001373291 0.496310502290725708 -0.233032867312431335
0.0891807153820991516 0.681210756301879883 -0.24689839780330658
-0.263666391372680664 0.657078742980957031 -0.523264944553375244
0.0110307736322283745 -0.412910550832748413 -0.224787771701812744
-0.273582100868225098 0.418759703636169434 -0.540594100952148438
-0.333419233560562134 -0.32539743185043335 -0.387302279472351074
-0.153179049491882324 0.403458237648010254 -0.576092183589935303
0.0362268835306167603 0.523811995983123779 -0.232637077569961548
0.274700254201889038 0.474497228860855103 -0.543897390365600586
-0.438484936952590942 0.40584602952003479 -0.490707755088806152
0.356597185134887695 0.49548494815826416 -0.43796268105506897
0.218854263424873352 0.451934069395065308 -0.551846027374267578
0.185714408755302429 0.4864463210105896 -0.428704023361206055
-0.46947634220123291 -0.525132119655609131 -0.257793545722961426
0.218580424785614014 0.480442941188812256 -0.581541001796722412
0.236933127045631409 0.596858084201812744 -0.254148304462432861
-0.0410974062979221344 -0.521579921245574951 -0.313256621360778809
-0.094740159809589386 0.387154161930084229 -0.391746759414672852
-0.00550444098189473152 -0.267400473356246948 0.00386655190959572792
-0.101981952786445618 0.396954983472824097 -0.669086456298828125
0.352630525827407837 0.430764198303222656 -0.552260816097259521
-0.0506725460290908813 -0.588678300380706787 -0.386629015207290649
-0.10239141434431076 -0.509081065654754639 -0.0985499396920204163
-0.340138077735900879 -0.464547574520111084 -0.262930423021316528
-0.273065000772476196 -0.120739951729774475 -0.204277798533439636
-0.217084228992462158 0.253586292266845703 -0.309225559234619141
-0.0664046257734298706 0.19261091947555542 -0.179216459393501282
-0.249907910823822021 0.311858505010604858 -0.448020130395889282
0.0568261779844760895 0.486679643392562866 -0.488402307033538818
0.0693752467632293701 0.620971560478210449 -0.766076207160949707
-0.289428949356079102 0.113104566931724548 -0.288821548223495483
-0.0378370620310306549 -0.560184001922607422 -0.196770846843719482
-0.063131771981716156 0.516843974590301514 -0.743635058403015137
-0.0743006989359855652 0.311271250247955322 -0.21498417854309082
-0.159807160496711731 -0.482717186212539673 -0.188469991087913513
0.11448400467634201 0.685579180717468262 -0.334283918142318726
0.307873368263244629 0.588493466377258301 -0.757373988628387451
-0.0410182029008865356 0.367925286293029785 -0.235946923494338989
0.0520500130951404572 -0.392091602087020874 -0.169876217842102051
0.182076618075370789 0.579790890216827393 -0.433087348937988281
-0.268528282642364502 -0.115540459752082825 -0.38972356915473938
-0.135321259498596191 0.433491379022598267 -0.666411519050598145
-0.132618829607963562 0.0466128252446651459 -0.417967706918716431
0.275896161794662476 0.393224090337753296 -0.686347067356109619
0.0530923865735530853 0.655825674533843994 -0.281666874885559082
-0.297746866941452026 -0.485945045948028564 -0.298746883869171143
-0.342961221933364868 -0.0846278518438339233 -0.389256775379180908
-0.238099098205566406 -0.482405006885528564 -0.218457326292991638
-0.0686998739838600159 0.268266469240188599 -0.414192944765090942
-0.206684798002243042 -0.374674767255783081 -0.177268072962760925
-0.109939523041248322 -0.577733397483825684 -0.185076594352722168
-0.164544746279716492 -0.503653883934020996 -0.163633570075035095
-0.196201667189598083 -0.628782153129577637 -0.278675109148025513
-0.157062307000160217 0.43257489800453186 -0.576579809188842773
0.0228896737098693848 0.485397964715957642 -0.736462771892547607
-0.303658902645111084 -0.536849439144134521 -0.261996477842330933
-0.118145771324634552 -0.578611791133880615 -0.135650604963302612
-0.404333233833312988 -0.393050968647003174 -0.157640904188156128
-0.231455281376838684 -0.130543738603591919 -0.176866933703422546
-0.256700038909912109 -0.359863102436065674 -0.157966569066047668
-0.280240029096603394 -0.0848355889320373535 -0.415490269660949707
-0.227164670825004578 -0.490578651428222656 -0.239397183060646057
