ply
format ascii 1.0
element vertex 717
property float x
property float y
property float z
end_header
0.274660080671310425 -0.369953811168670654 0.398641973733901978
0.203798994421958923 -0.37528151273727417 0.0678935796022415161
0.202166110277175903 -0.383986443281173706 0.471735298633575439
0.216132357716560364 -0.544361591339111328 0.407770454883575439
0.349602282047271729 -0.410705268383026123 0.227699756622314453
0.280494660139083862 -0.387820810079574585 0.437639534473419189
0.32894173264503479 -0.347007870674133301 0.317965388298034668
0.193633809685707092 -0.437595844268798828 0.481357425451278687
0.285814762115478516 -0.324396520853042603 0.46115565299987793
0.15953555703163147 -0.420515120029449463 0.469390690326690674
0.302628129720687866 -0.462691724300384521 0.382434070110321045
0.117277361452579498 -0.245219677686691284 0.301108390092849731
0.155351415276527405 -0.300651252269744873 0.175843134522438049
0.103602923452854156 -0.289325863122940063 0.194339781999588013
0.403503090143203735 -0.504377305507659912 0.209535777568817139
0.132282793521881104 -0.471156060695648193 0.176233038306236267
0.0617709234356880188 -0.370044618844985962 0.236496686935424805
0.401971936225891113 -0.449588268995285034 0.397604674100875854
0.186163708567619324 -0.350591480731964111 0.314167171716690063
0.212682455778121948 -0.48245537281036377 0.424099236726760864
0.138116538524627686 -0.357137084007263184 0.366867512464523315
0.200729846954345703 -0.430676281452178955 0.122082449495792389
0.0759000256657600403 -0.261131554841995239 0.245631039142608643
0.233100414276123047 -0.553145647048950195 0.249971091747283936
0.13526567816734314 -0.534847915172576904 0.183668926358222961
0.333371996879577637 -0.551792263984680176 0.329047203063964844
0.320295989513397217 -0.518755495548248291 0.219210773706436157
0.121862754225730896 -0.362803667783737183 0.38111412525177002
0.125284194946289062 -0.523900210857391357 0.206583127379417419
0.161833330988883972 -0.316145777702331543 0.308632075786590576
0.347429096698760986 -0.485917180776596069 0.2079591304063797
0.303445726633071899 -0.459538817405700684 0.338472545146942139
0.229672729969024658 -0.333519101142883301 0.332610428333282471
0.193554803729057312 -0.352607667446136475 0.368834137916564941
0.265563845634460449 -0.484520286321640015 0.133630990982055664
0.202074721455574036 -0.25987541675567627 0.304494947195053101
0.177290692925453186 -0.380329042673110962 0.438376843929290771
0.0898986086249351501 -0.472014486789703369 0.299879848957061768
0.0771182551980018616 -0.444085657596588135 0.20443667471408844
0.24077923595905304 -0.451303333044052124 0.226788356900215149
0.132195338606834412 -0.389880448579788208 0.163023620843887329
0.386563897132873535 -0.465108126401901245 0.368946969509124756
0.392628073692321777 -0.431946992874145508 0.415767967700958252
0.212299242615699768 -0.49216112494468689 0.411047667264938354
0.12614758312702179 -0.246355623006820679 0.362743645906448364
0.143403813242912292 -0.537588179111480713 0.415288329124450684
0.219427168369293213 -0.325358718633651733 0.183140188455581665
0.229402348399162292 -0.358964830636978149 0.363390564918518066
0.112286210060119629 -0.384064793586730957 0.265065312385559082
0.32592347264289856 -0.417886048555374146 0.312337309122085571
0.281826615333557129 -0.398993879556655884 0.420151203870773315
0.366553843021392822 -0.469703584909439087 0.338057845830917358
0.159652233123779297 -0.324719816446304321 0.387937426567077637
0.191938102245330811 -0.530002474784851074 0.110112182796001434
0.11651226133108139 -0.419067174196243286 0.165264815092086792
0.177047118544578552 -0.46351894736289978 0.133834287524223328
0.0704898685216903687 -0.450039118528366089 0.285814493894577026
0.105062633752822876 -0.335648924112319946 0.38398703932762146
0.235321313142776489 -0.27161213755607605 0.385929733514785767
0.201044097542762756 -0.43006172776222229 0.0389374308288097382
0.134911879897117615 -0.313606560230255127 0.325012177228927612
0.205391421914100647 -0.501364171504974365 0.164609581232070923
0.0469457395374774933 -0.392985671758651733 0.281712800264358521
0.176664859056472778 -0.361627042293548584 0.27744784951210022
0.222006693482398987 -0.299422949552536011 0.291117191314697266
0.158273294568061829 -0.379055649042129517 0.431202203035354614
0.417261600494384766 -0.503748655319213867 0.29347759485244751
0.315382122993469238 -0.383322834968566895 0.315091550350189209
0.269918501377105713 -0.500228345394134521 0.369806021451950073
0.410516619682312012 -0.493370920419692993 0.222985044121742249
0.257910698652267456 -0.501213550567626953 0.430349588394165039
0.233159467577934265 -0.423021763563156128 0.203477323055267334
0.0675650611519813538 -0.46476447582244873 0.24990411102771759
0.117455676198005676 -0.3487834632396698 0.268013298511505127
0.316406697034835815 -0.512109637260437012 0.399206429719924927
0.417860448360443115 -0.48522070050239563 0.312467008829116821
0.152144938707351685 -0.328948467969894409 0.373837500810623169
0.242907717823982239 -0.538735568523406982 0.369598537683486938
0.269215613603591919 -0.480166465044021606 0.393805801868438721
0.275161802768707275 -0.52140963077545166 0.286149889230728149
0.271324604749679565 -0.40785670280456543 0.184173583984375
0.146882310509681702 -0.496591627597808838 0.386263936758041382
0.418617755174636841 -0.477546632289886475 0.373791307210922241
0.285161852836608887 -0.477355420589447021 0.360518604516983032
0.302541077136993408 -0.490160614252090454 0.182531416416168213
0.340098261833190918 -0.382736414670944214 0.159907892346382141
0.209073096513748169 -0.249528422951698303 0.256057620048522949
0.129899069666862488 -0.431552141904830933 0.187955394387245178
0.29516911506652832 -0.351280719041824341 0.415865331888198853
0.143015101552009583 -0.451041966676712036 0.127458691596984863
0.125252112746238708 -0.517879366874694824 0.252094805240631104
0.282336682081222534 -0.493871450424194336 0.416464328765869141
0.262007445096969604 -0.396490395069122314 0.184888824820518494
0.213750049471855164 -0.471678674221038818 0.418434292078018188
-0.244715273380279541 -0.555074334144592285 0.2439069002866745
0.115083850920200348 -0.304867208003997803 0.306566476821899414
0.192421630024909973 -0.358638644218444824 0.202056542038917542
0.356836438179016113 -0.469218939542770386 0.275804102420806885
0.336646020412445068 -0.412670373916625977 0.30693390965461731
0.084662221372127533 -0.362246930599212646 0.228061020374298096
0.24216952919960022 -0.504659712314605713 0.161039367318153381
-0.246880769729614258 -0.577275753021240234 0.208571702241897583
0.145565181970596313 -0.395724594593048096 0.400608211755752563
0.0866842269897460938 -0.409236520528793335 0.339652717113494873
0.169572070240974426 -0.535721004009246826 0.385973244905471802
0.2112760990858078 -0.444685697555541992 0.116875909268856049
0.366106599569320679 -0.372960895299911499 0.280380338430404663
0.132077828049659729 -0.450136095285415649 0.141787052154541016
0.190991878509521484 -0.420869588851928711 0.449251621961593628
0.165824472904205322 -0.488977611064910889 0.40788605809211731
0.0936368927359580994 -0.390447080135345459 0.309612810611724854
0.33335345983505249 -0.355397790670394897 0.36766466498374939
0.354984790086746216 -0.39852789044380188 0.287633717060089111
0.154454484581947327 -0.505718529224395752 0.215197175741195679
0.12330232560634613 -0.529464304447174072 0.409597843885421753
0.300932198762893677 -0.370992839336395264 0.420454591512680054
0.0760042369365692139 -0.472762405872344971 0.223374783992767334
0.150972485542297363 -0.324574738740921021 0.327395766973495483
0.0896600931882858276 -0.43723723292350769 0.363022446632385254
0.302985996007919312 -0.378388971090316772 0.143531054258346558
0.106871984899044037 -0.236625164747238159 0.267947256565093994
-0.220846071839332581 -0.571756958961486816 0.296333402395248413
0.267347186803817749 -0.266755431890487671 0.33908390998840332
0.332738131284713745 -0.444787770509719849 0.328074812889099121
0.244388893246650696 -0.260495871305465698 0.307736873626708984
0.0827606320381164551 -0.459973841905593872 0.248438730835914612
0.250131726264953613 -0.519579887390136719 0.399866610765457153
0.325760483741760254 -0.439872384071350098 0.239236593246459961
0.12219594419002533 -0.268621355295181274 0.346663564443588257
0.149427443742752075 -0.364127010107040405 0.20113585889339447
0.20363067090511322 -0.400502145290374756 0.412839800119400024
0.302905946969985962 -0.413492113351821899 0.13109220564365387
0.252009004354476929 -0.537856757640838623 0.161317884922027588
0.34798729419708252 -0.411327958106994629 0.236838981509208679
0.226422414183616638 -0.50818103551864624 0.132794976234436035
0.265624940395355225 -0.406241685152053833 0.454261541366577148
0.206601440906524658 -0.378266245126724243 0.465765833854675293
0.280945897102355957 -0.478786855936050415 0.295125573873519897
0.337489098310470581 -0.425274759531021118 0.288859784603118896
0.0346031300723552704 -0.391389131546020508 0.254713624715805054
0.142770588397979736 -0.550228118896484375 0.278766751289367676
0.119883537292480469 -0.462400227785110474 0.382187455892562866
0.222394704818725586 -0.440746665000915527 0.195465743541717529
-0.256573677062988281 -0.551324963569641113 0.307174175977706909
0.262564182281494141 -0.510272860527038574 0.272910058498382568
0.250944763422012329 -0.503766953945159912 0.243025779724121094
0.159527629613876343 -0.388805806636810303 0.221436947584152222
0.366335809230804443 -0.450803130865097046 0.365950047969818115
0.289397984743118286 -0.514879703521728516 0.336666017770767212
0.307807326316833496 -0.361596018075942993 0.165215000510215759
0.220720604062080383 -0.257532805204391479 0.24891217052936554
0.29416733980178833 -0.465843886137008667 0.339818388223648071
0.319953203201293945 -0.485475540161132812 0.142753273248672485
0.0902133285999298096 -0.312148481607437134 0.261197775602340698
0.166639089584350586 -0.47537657618522644 0.182089075446128845
0.337170392274856567 -0.501367270946502686 0.19221360981464386
0.193945392966270447 -0.435680866241455078 0.196591809391975403
0.290724426507949829 -0.542276442050933838 0.365484684705734253
0.06577310711145401 -0.487599432468414307 0.266280233860015869
0.233794063329696655 -0.348095893859863281 0.16026228666305542
0.121027618646621704 -0.318698763847351074 0.221349477767944336
0.216244623064994812 -0.354590684175491333 0.365437626838684082
0.217291742563247681 -0.305824935436248779 0.232639551162719727
0.269271582365036011 -0.433728843927383423 0.185697048902511597
0.173826709389686584 -0.52813720703125 0.155761063098907471
0.0607317015528678894 -0.409139364957809448 0.36449509859085083
0.21588560938835144 -0.303280264139175415 0.412704974412918091
0.0662182122468948364 -0.477530896663665771 0.307199925184249878
0.0528049208223819733 -0.437733501195907593 0.369337975978851318
0.390443950891494751 -0.509556829929351807 0.264262497425079346
0.123355716466903687 -0.37028166651725769 0.400213330984115601
0.166441559791564941 -0.420264095067977905 0.412647396326065063
0.155635237693786621 -0.451576590538024902 0.423824697732925415
0.316078215837478638 -0.383638352155685425 0.439488977193832397
0.165631264448165894 -0.480212122201919556 0.162810608744621277
0.0923432633280754089 -0.466162323951721191 0.326209485530853271
0.103822082281112671 -0.447366863489151001 0.413876384496688843
0.196020707488059998 -0.447788536548614502 0.204656019806861877
0.250981926918029785 -0.290556371212005615 0.358491063117980957
0.178087055683135986 -0.309418708086013794 0.256891220808029175
0.0683267191052436829 -0.37864530086517334 0.339910447597503662
0.0754565969109535217 -0.5411263108253479 0.317010164260864258
0.207394018769264221 -0.430170178413391113 0.053349081426858902
0.0664666518568992615 -0.393023878335952759 0.200251996517181396
0.277823269367218018 -0.534204006195068359 0.393171846866607666
0.117385253310203552 -0.30385473370552063 0.17338070273399353
0.105250097811222076 -0.410079926252365112 0.241851717233657837
0.170504137873649597 -0.346519917249679565 0.229073032736778259
0.239565789699554443 -0.447662264108657837 0.123689167201519012
0.28349006175994873 -0.320569366216659546 0.372558563947677612
0.223333626985549927 -0.317071825265884399 0.193875178694725037
0.140523731708526611 -0.420664191246032715 0.202705740928649902
0.186257362365722656 -0.269703805446624756 0.362934082746505737
0.208545714616775513 -0.350767970085144043 0.254457145929336548
0.123625315725803375 -0.505505263805389404 0.294458210468292236
0.148808926343917847 -0.360107541084289551 0.119597144424915314
0.161104574799537659 -0.51342850923538208 0.128331676125526428
0.0994037091732025146 -0.349150747060775757 0.233495786786079407
0.172934636473655701 -0.460267752408981323 0.162896245718002319
0.299874871969223022 -0.45375216007232666 0.387121677398681641
0.296293169260025024 -0.498425781726837158 0.381588876247406006
0.276725113391876221 -0.375781446695327759 0.379716545343399048
0.17432636022567749 -0.494657754898071289 0.445215493440628052
0.41739356517791748 -0.426289260387420654 0.362993597984313965
0.169131726026535034 -0.40622788667678833 0.232565522193908691
0.182585731148719788 -0.510896861553192139 0.405913203954696655
0.055649876594543457 -0.41664084792137146 0.343686133623123169
0.225892290472984314 -0.462168216705322266 0.23875802755355835
0.291805952787399292 -0.516952812671661377 0.332790642976760864
0.231808438897132874 -0.318971604108810425 0.193784132599830627
0.13044409453868866 -0.476161688566207886 0.184545591473579407
0.305575549602508545 -0.397247195243835449 0.376846671104431152
0.192513212561607361 -0.5452536940574646 0.176628202199935913
0.219025537371635437 -0.498268634080886841 0.178484857082366943
0.302896261215209961 -0.317411184310913086 0.355002433061599731
0.177199810743331909 -0.348086714744567871 0.41513901948928833
0.0992530360817909241 -0.382338941097259521 0.371768683195114136
0.342901349067687988 -0.499001145362854004 0.382402688264846802
0.114415489137172699 -0.36188662052154541 0.156487196683883667
0.318376660346984863 -0.495917528867721558 0.272419333457946777
0.186811268329620361 -0.399777531623840332 0.0644971579313278198
0.366591721773147583 -0.434344559907913208 0.229420989751815796
0.0548630878329277039 -0.398750454187393188 0.261643648147583008
0.228436291217803955 -0.292229562997817993 0.189226791262626648
-0.220987811684608459 -0.57601463794708252 0.312324613332748413
0.240551978349685669 -0.550359487533569336 0.401374369859695435
0.230580717325210571 -0.48537135124206543 0.236802101135253906
0.31982150673866272 -0.502030372619628906 0.354717046022415161
0.346262514591217041 -0.409522801637649536 0.241481050848960876
0.301942288875579834 -0.528526186943054199 0.332524657249450684
0.106581412255764008 -0.309079855680465698 0.215324059128761292
0.255197048187255859 -0.410739332437515259 0.341884702444076538
0.0908899977803230286 -0.39374735951423645 0.373195677995681763
0.32381555438041687 -0.506000518798828125 0.175197288393974304
0.0833819806575775146 -0.496002435684204102 0.209277376532554626
0.266917109489440918 -0.410087376832962036 0.369995236396789551
0.0387942418456077576 -0.453901410102844238 0.256221532821655273
0.180459588766098022 -0.367474734783172607 0.217500075697898865
0.298489689826965332 -0.434166491031646729 0.24941156804561615
0.422389835119247437 -0.402147948741912842 0.43482816219329834
0.13680170476436615 -0.43447992205619812 0.17744763195514679
0.383211523294448853 -0.405021041631698608 0.323003917932510376
0.226204022765159607 -0.512232124805450439 0.467315524816513062
0.347311794757843018 -0.421895444393157959 0.284625887870788574
0.237742438912391663 -0.476636618375778198 0.114900730550289154
0.154234141111373901 -0.455191314220428467 0.194135397672653198
0.0601304918527603149 -0.407305300235748291 0.387035101652145386
0.149857297539710999 -0.383138418197631836 0.421747565269470215
0.147866696119308472 -0.326763123273849487 0.123336292803287506
0.209231734275817871 -0.491573631763458252 0.0890626683831214905
0.100306995213031769 -0.513788878917694092 0.231029331684112549
0.217546865344047546 -0.304465889930725098 0.348578155040740967
0.0671580210328102112 -0.389438986778259277 0.312062203884124756
0.10029313713312149 -0.456256687641143799 0.389070212841033936
0.288448154926300049 -0.428487479686737061 0.16487845778465271
0.285269558429718018 -0.399152487516403198 0.401510357856750488
0.30102887749671936 -0.362532228231430054 0.138923555612564087
0.322542428970336914 -0.530144691467285156 0.318652510643005371
0.187496393918991089 -0.493826150894165039 0.46083533763885498
0.0887769535183906555 -0.488602936267852783 0.336163192987442017
0.271349698305130005 -0.313245713710784912 0.443504840135574341
0.115089893341064453 -0.369056552648544312 0.156975746154785156
0.0843409746885299683 -0.436634868383407593 0.236463099718093872
0.292075991630554199 -0.469723105430603027 0.355261474847793579
0.129724457859992981 -0.440753668546676636 0.405471116304397583
0.262795239686965942 -0.507964551448822021 0.235739469528198242
0.304845631122589111 -0.512542247772216797 0.26506921648979187
0.346508979797363281 -0.48632657527923584 0.12162037193775177
0.111332625150680542 -0.284576594829559326 0.268841594457626343
0.0821020752191543579 -0.494047492742538452 0.366801828145980835
0.349532157182693481 -0.374559074640274048 0.322215259075164795
0.318611592054367065 -0.521900534629821777 0.211494565010070801
0.115433067083358765 -0.298370867967605591 0.330970853567123413
0.305946946144104004 -0.479763537645339966 0.161761626601219177
0.123969294130802155 -0.330665618181228638 0.159469589591026306
0.32200053334236145 -0.473655134439468384 0.343174219131469727
0.0160041339695453644 -0.446739077568054199 0.234525367617607117
0.306689441204071045 -0.304125308990478516 0.490774422883987427
0.271763056516647339 -0.315451174974441528 0.349131286144256592
0.140641674399375916 -0.546909511089324951 0.266891926527023315
0.318382054567337036 -0.426515311002731323 0.335199683904647827
0.239222258329391479 -0.357679098844528198 0.353299766778945923
0.0819663926959037781 -0.303540915250778198 0.149651452898979187
0.333343923091888428 -0.504287660121917725 0.409561961889266968
-0.262145698070526123 -0.522939085960388184 0.292092353105545044
0.260508507490158081 -0.482982218265533447 0.390791714191436768
0.404420047998428345 -0.489999622106552124 0.323759466409683228
0.106952659785747528 -0.408207595348358154 0.216492012143135071
0.329210042953491211 -0.503499448299407959 0.31709742546081543
0.0646883025765419006 -0.523954510688781738 0.325656741857528687
0.364472806453704834 -0.459238678216934204 0.205184414982795715
0.322244256734848022 -0.499952107667922974 0.110853850841522217
-0.237839117646217346 -0.56610417366027832 0.195122241973876953
0.161866620182991028 -0.243972256779670715 0.386701494455337524
0.0920838937163352966 -0.428379714488983154 0.189921841025352478
0.17842942476272583 -0.259717404842376709 0.315547078847885132
0.158930316567420959 -0.379481464624404907 0.417958766222000122
0.189970120787620544 -0.292222738265991211 0.311503440141677856
-0.263738036155700684 -0.569477200508117676 0.188688352704048157
0.131184294819831848 -0.27490466833114624 0.358803659677505493
0.180900216102600098 -0.548404097557067871 0.389549046754837036
0.0629078596830368042 -0.373530447483062744 0.285774976015090942
0.0881666988134384155 -0.453815370798110962 0.175490975379943848
0.117758408188819885 -0.313206732273101807 0.127711504697799683
0.290092557668685913 -0.416318058967590332 0.339129418134689331
0.381931573152542114 -0.392407655715942383 0.418321937322616577
0.342787683010101318 -0.478782892227172852 0.311939448118209839
0.283759593963623047 -0.432200223207473755 0.281596213579177856
0.068030238151550293 -0.40775454044342041 0.188545897603034973
0.0779877305030822754 -0.413124561309814453 0.388421952724456787
0.157918274402618408 -0.44184720516204834 0.186505869030952454
0.287816554307937622 -0.431950479745864868 0.444090694189071655
0.269404053688049316 -0.443001717329025269 0.20303034782409668
0.0823895633220672607 -0.386453330516815186 0.223857864737510681
0.126417472958564758 -0.540690302848815918 0.249633848667144775
0.190796405076980591 -0.470700770616531372 0.405721276998519897
0.107571020722389221 -0.517079651355743408 0.381740182638168335
0.208703696727752686 -0.380396336317062378 0.155284211039543152
0.0838279202580451965 -0.276396006345748901 0.205215618014335632
0.206532150506973267 -0.295294106006622314 0.19629533588886261
0.248941108584403992 -0.299433499574661255 0.350603461265563965
0.140670135617256165 -0.225469395518302917 0.38892778754234314
0.385190904140472412 -0.433787494897842407 0.368989467620849609
0.375900566577911377 -0.502400040626525879 0.237793013453483582
0.184965565800666809 -0.468724936246871948 0.412581890821456909
0.104209169745445251 -0.270325779914855957 0.330647796392440796
0.259824067354202271 -0.26257815957069397 0.326796650886535645
0.317322283983230591 -0.332482457160949707 0.399275720119476318
0.339856863021850586 -0.481541723012924194 0.342470824718475342
0.128987878561019897 -0.388196468353271484 0.410337746143341064
0.159314259886741638 -0.452436447143554688 0.417363345623016357
0.164687216281890869 -0.393140882253646851 0.441939711570739746
-0.270963162183761597 -0.559044361114501953 0.216855213046073914
0.133483201265335083 -0.368636399507522583 0.364152193069458008
0.3226967453956604 -0.417027026414871216 0.317991584539413452
0.151872515678405762 -0.216401010751724243 0.349922358989715576
0.32601049542427063 -0.386964797973632812 0.423440665006637573
0.297379463911056519 -0.517961680889129639 0.345361411571502686
0.350759238004684448 -0.357190549373626709 0.430847018957138062
0.195489183068275452 -0.508803784847259521 0.415704548358917236
0.275111556053161621 -0.355582863092422485 0.356397777795791626
0.184716805815696716 -0.462946504354476929 0.135011374950408936
0.20223979651927948 -0.397660493850708008 0.41725727915763855
0.120926789939403534 -0.370337605476379395 0.314043551683425903
0.281978607177734375 -0.378911435604095459 0.160226106643676758
0.0452811643481254578 -0.432202249765396118 0.214470341801643372
0.0799923911690711975 -0.362599670886993408 0.242629557847976685
0.159321531653404236 -0.43169867992401123 0.146451711654663086
0.227808132767677307 -0.464685499668121338 0.428205549716949463
0.105968311429023743 -0.523462295532226562 0.172593250870704651
0.256901592016220093 -0.41051366925239563 0.206693723797798157
0.167190194129943848 -0.353072404861450195 0.36311870813369751
0.140071958303451538 -0.337584495544433594 0.0979928076267242432
0.0947428047657012939 -0.504599332809448242 0.207247704267501831
0.296168863773345947 -0.453364342451095581 0.232159748673439026
0.235836699604988098 -0.443197131156921387 0.383576005697250366
0.137601152062416077 -0.279076874256134033 0.344572931528091431
0.107349388301372528 -0.407964736223220825 0.382266789674758911
0.186694085597991943 -0.322323501110076904 0.221163287758827209
0.186579897999763489 -0.376110494136810303 0.166310429573059082
0.186795637011528015 -0.385979741811752319 0.199528902769088745
0.309915453195571899 -0.509506046772003174 0.1521158367395401
0.19529232382774353 -0.335466682910919189 0.337112784385681152
0.0836596041917800903 -0.32148212194442749 0.154772058129310608
0.200725749135017395 -0.550900101661682129 0.369215339422225952
0.107306018471717834 -0.462616175413131714 0.322040528059005737
0.0877682715654373169 -0.547233462333679199 0.381510019302368164
0.224385902285575867 -0.449442654848098755 0.0645452961325645447
0.253538995981216431 -0.51006627082824707 0.421404480934143066
0.214859828352928162 -0.474838495254516602 0.18596687912940979
0.239923253655433655 -0.39315873384475708 0.183385223150253296
0.31792101263999939 -0.463009566068649292 0.263463199138641357
0.0732343047857284546 -0.495600670576095581 0.322882145643234253
0.360662072896957397 -0.343662858009338379 0.445776700973510742
0.315903604030609131 -0.377326428890228271 0.192625120282173157
0.210925653576850891 -0.440659612417221069 0.459010720252990723
0.38913610577583313 -0.39980044960975647 0.408892303705215454
0.354469120502471924 -0.520354032516479492 0.262604117393493652
0.197435840964317322 -0.383280158042907715 0.0370511710643768311
0.133773833513259888 -0.303464949131011963 0.31090971827507019
0.295972079038619995 -0.471533328294754028 0.393793374300003052
0.225032642483711243 -0.443476468324661255 0.415821284055709839
0.312359333038330078 -0.521703243255615234 0.301133900880813599
0.350641936063766479 -0.450153172016143799 0.35207405686378479
0.08244343101978302 -0.370512276887893677 0.293743878602981567
0.136070027947425842 -0.223125696182250977 0.30425068736076355
0.266368299722671509 -0.449885249137878418 0.210740149021148682
0.239676162600517273 -0.303588300943374634 0.169588014483451843
0.249199211597442627 -0.399398773908615112 0.423978924751281738
0.350808978080749512 -0.402140438556671143 0.32956618070602417
0.17373792827129364 -0.365762859582901001 0.326001465320587158
0.367563784122467041 -0.452001631259918213 0.254843235015869141
0.288884341716766357 -0.377482801675796509 0.196500882506370544
0.295991420745849609 -0.530498266220092773 0.197572752833366394
0.215691149234771729 -0.332783252000808716 0.207245901226997375
0.239421695470809937 -0.4746246337890625 0.162104934453964233
0.361318647861480713 -0.337612718343734741 0.470960766077041626
0.0972284376621246338 -0.475461751222610474 0.184097453951835632
0.164421305060386658 -0.253826498985290527 0.400591671466827393
0.296851873397827148 -0.438946902751922607 0.22613157331943512
0.25503772497177124 -0.447030395269393921 0.227777838706970215
0.258894592523574829 -0.479774028062820435 0.0729739665985107422
0.215831026434898376 -0.279616445302963257 0.410147428512573242
0.0667134076356887817 -0.42546805739402771 0.381700038909912109
0.279966503381729126 -0.545908212661743164 0.34681430459022522
0.300274461507797241 -0.499296337366104126 0.300603389739990234
0.215411022305488586 -0.331848502159118652 0.223829299211502075
0.116459913551807404 -0.469847112894058228 0.185475066304206848
0.174703791737556458 -0.368241190910339355 0.246847823262214661
0.262046486139297485 -0.301293909549713135 0.352700680494308472
0.173871293663978577 -0.368512809276580811 0.39644312858581543
0.0935435965657234192 -0.266771227121353149 0.33382001519203186
0.152905941009521484 -0.390070319175720215 0.445619165897369385
0.217385411262512207 -0.338067114353179932 0.180101752281188965
0.140699282288551331 -0.463639974594116211 0.163127049803733826
0.266166388988494873 -0.498873084783554077 0.236595660448074341
0.352317780256271362 -0.349282324314117432 0.31677362322807312
0.280432432889938354 -0.394671201705932617 0.400111854076385498
0.381371647119522095 -0.37770494818687439 0.222310662269592285
0.245133683085441589 -0.512915372848510742 0.195226028561592102
0.354928910732269287 -0.468521863222122192 0.385199397802352905
0.14218534529209137 -0.527934730052947998 0.20640227198600769
0.291914224624633789 -0.424834787845611572 0.326051533222198486
0.0726134926080703735 -0.416983723640441895 0.244943439960479736
0.108514867722988129 -0.514734625816345215 0.286948800086975098
0.148586094379425049 -0.324907153844833374 0.160979971289634705
0.256463199853897095 -0.319037199020385742 0.372555345296859741
0.323176980018615723 -0.357672035694122314 0.38809889554977417
0.0663080140948295593 -0.447420418262481689 0.264628559350967407
0.149836108088493347 -0.367146432399749756 0.274350911378860474
0.358284741640090942 -0.533739686012268066 0.228637829422950745
0.38542512059211731 -0.504732072353363037 0.288679957389831543
0.255179941654205322 -0.470548689365386963 0.433964580297470093
0.282784223556518555 -0.509960472583770752 0.218089237809181213
0.329541772603988647 -0.335622578859329224 0.453074097633361816
0.0942353382706642151 -0.533338546752929688 0.283615797758102417
0.107830971479415894 -0.356234490871429443 0.276686340570449829
0.139062613248825073 -0.432090699672698975 0.437162339687347412
0.219589635729789734 -0.38669508695602417 0.163018718361854553
0.166366845369338989 -0.523132205009460449 0.367650121450424194
0.0914964601397514343 -0.406317383050918579 0.311776548624038696
0.212822020053863525 -0.497188568115234375 0.225762590765953064
0.215257033705711365 -0.37256351113319397 0.205979004502296448
0.318778008222579956 -0.440718293190002441 0.375416070222854614
0.373387664556503296 -0.473876118659973145 0.26044076681137085
0.217921257019042969 -0.529205322265625 0.145513579249382019
0.09024086594581604 -0.367954134941101074 0.232677072286605835
0.0821311399340629578 -0.34508863091468811 0.341324031352996826
0.199708074331283569 -0.343378812074661255 0.246155679225921631
0.0809936746954917908 -0.36913454532623291 0.307875931262969971
0.0931034833192825317 -0.384252160787582397 0.273839712142944336
0.249883264303207397 -0.499877780675888062 0.421612948179244995
0.102981530129909515 -0.311636835336685181 0.123708456754684448
0.147781148552894592 -0.270320862531661987 0.208201676607131958
0.112320408225059509 -0.356727063655853271 0.158551916480064392
0.146713584661483765 -0.423248291015625 0.432954967021942139
0.315082073211669922 -0.53757786750793457 0.307111501693725586
0.271141976118087769 -0.3212871253490448 0.356232941150665283
0.192645639181137085 -0.436490267515182495 0.453387051820755005
0.112910456955432892 -0.317571371793746948 0.0791106373071670532
0.169611066579818726 -0.465861022472381592 0.418586492538452148
0.221469670534133911 -0.357658088207244873 0.174810409545898438
0.0871412903070449829 -0.287251800298690796 0.259006649255752563
0.180530980229377747 -0.376942217350006104 0.307516783475875854
0.221320047974586487 -0.288595646619796753 0.331720054149627686
0.342130690813064575 -0.328478187322616577 0.315667688846588135
0.290996015071868896 -0.464512288570404053 0.361445993185043335
0.249987766146659851 -0.431678444147109985 0.112224474549293518
0.130339160561561584 -0.543192505836486816 0.180626973509788513
0.146867543458938599 -0.338836193084716797 0.091959826648235321
0.120298244059085846 -0.434545964002609253 0.173468634486198425
0.340824782848358154 -0.515476703643798828 0.250463694334030151
0.402950406074523926 -0.426053613424301147 0.405771195888519287
0.306564509868621826 -0.514170050621032715 0.198391154408454895
0.0509619899094104767 -0.440020710229873657 0.297774314880371094
0.135109022259712219 -0.497178912162780762 0.427300810813903809
0.286131888628005981 -0.515324056148529053 0.280136644840240479
0.272151052951812744 -0.432013750076293945 0.398179382085800171
0.215741395950317383 -0.397363811731338501 0.448869585990905762
0.226929366588592529 -0.487679272890090942 0.469159811735153198
0.264642506837844849 -0.52121049165725708 0.355364173650741577
0.115927673876285553 -0.525565505027770996 0.407156407833099365
0.147787973284721375 -0.350395530462265015 0.0942869558930397034
0.159185722470283508 -0.502347767353057861 0.137907817959785461
0.062486555427312851 -0.435579270124435425 0.345521032810211182
0.359845221042633057 -0.331988900899887085 0.36171334981918335
0.22141072154045105 -0.493554145097732544 0.136718422174453735
0.0833855047821998596 -0.418820708990097046 0.159792080521583557
0.280067622661590576 -0.305838942527770996 0.356046795845031738
0.240201696753501892 -0.521317005157470703 0.192741170525550842
0.154883742332458496 -0.386457592248916626 0.165693432092666626
0.125711575150489807 -0.339541226625442505 0.388369828462600708
0.244252949953079224 -0.509449124336242676 0.2265615314245224
0.123427852988243103 -0.4793548583984375 0.388575881719589233
0.217986598610877991 -0.445596694946289062 0.211578398942947388
0.122742526233196259 -0.318907678127288818 0.104179225862026215
0.118873834609985352 -0.264216363430023193 0.250092923641204834
0.191958606243133545 -0.462487071752548218 0.125427171587944031
0.277399510145187378 -0.421059966087341309 0.462667196989059448
0.296416372060775757 -0.362737208604812622 0.388567835092544556
0.082526080310344696 -0.370842725038528442 0.352136760950088501
0.195708394050598145 -0.293967872858047485 0.201785966753959656
0.221663326025009155 -0.451659113168716431 0.0690657943487167358
0.179478421807289124 -0.439539432525634766 0.41398349404335022
0.206332221627235413 -0.419790655374526978 0.186376705765724182
0.335116446018218994 -0.378730177879333496 0.385161995887756348
0.312350064516067505 -0.430873662233352661 0.311440467834472656
0.112679228186607361 -0.315354645252227783 0.252427428960800171
0.156088054180145264 -0.532518565654754639 0.184056863188743591
0.252779632806777954 -0.537319719791412354 0.146248668432235718
0.328400611877441406 -0.53173297643661499 0.339042723178863525
0.121473513543605804 -0.468656241893768311 0.397985965013504028
0.0442454293370246887 -0.428774148225784302 0.239880532026290894
0.113719262182712555 -0.396949172019958496 0.395599931478500366
0.23483923077583313 -0.54955899715423584 0.159299224615097046
0.0695905983448028564 -0.429305106401443481 0.195359200239181519
0.155627742409706116 -0.487374931573867798 0.1900816410779953
0.411377429962158203 -0.459684699773788452 0.374579489231109619
0.227286040782928467 -0.445446878671646118 0.0496799573302268982
0.095714665949344635 -0.486474126577377319 0.175357118248939514
0.166148528456687927 -0.344239562749862671 0.272424966096878052
0.248091429471969604 -0.448054254055023193 0.437287122011184692
0.222817286849021912 -0.400861263275146484 0.141438752412796021
-0.248395562171936035 -0.552310347557067871 0.259104043245315552
0.184827983379364014 -0.365311890840530396 0.35063326358795166
0.0933523178100585938 -0.378543764352798462 0.321274936199188232
0.361984193325042725 -0.327640950679779053 0.337600231170654297
0.338166505098342896 -0.380293399095535278 0.239038333296775818
0.196704819798469543 -0.493299663066864014 0.131009370088577271
0.266097962856292725 -0.421275109052658081 0.407312065362930298
0.184274390339851379 -0.27436402440071106 0.338154315948486328
0.0968858301639556885 -0.543011009693145752 0.209489703178405762
0.290859490633010864 -0.469618946313858032 0.107066161930561066
0.210729435086250305 -0.296000927686691284 0.36650964617729187
0.0669140368700027466 -0.458999693393707275 0.339348196983337402
0.0612889230251312256 -0.41483008861541748 0.37048831582069397
0.229606255888938904 -0.500756680965423584 0.444282561540603638
0.188816636800765991 -0.288319200277328491 0.290460795164108276
0.114932350814342499 -0.45312914252281189 0.231446117162704468
0.0895106345415115356 -0.392999529838562012 0.271637380123138428
0.200868159532546997 -0.387494862079620361 0.23264700174331665
0.18776308000087738 -0.441641896963119507 0.444271504878997803
0.327226489782333374 -0.507005810737609863 0.122934430837631226
0.160064071416854858 -0.444348037242889404 0.144919157028198242
0.214506879448890686 -0.464748352766036987 0.421088218688964844
0.132310494780540466 -0.360474765300750732 0.317235112190246582
0.262000083923339844 -0.498780310153961182 0.158195987343788147
0.127262085676193237 -0.438219964504241943 0.410451382398605347
0.186500385403633118 -0.356965512037277222 0.151137754321098328
0.0809963271021842957 -0.342858672142028809 0.334392398595809937
0.361959993839263916 -0.404729843139648438 0.286718994379043579
0.100830003619194031 -0.380279898643493652 0.240784764289855957
0.14300556480884552 -0.290197402238845825 0.30194440484046936
0.212315797805786133 -0.356155335903167725 0.181214869022369385
0.241615146398544312 -0.372004538774490356 0.366648018360137939
0.216628819704055786 -0.460892945528030396 0.173632055521011353
0.264566779136657715 -0.360623568296432495 0.362699747085571289
0.322572022676467896 -0.486727625131607056 0.350854575634002686
0.362880796194076538 -0.362950801849365234 0.418311923742294312
0.232228934764862061 -0.314618796110153198 0.192340075969696045
0.165786802768707275 -0.351161539554595947 0.347254723310470581
0.128330126404762268 -0.375911891460418701 0.256351619958877563
0.0820571184158325195 -0.56581646203994751 0.420595377683639526
0.0981520712375640869 -0.352388381958007812 0.17670208215713501
0.323965072631835938 -0.37351575493812561 0.382113605737686157
0.328202307224273682 -0.526666879653930664 0.290267825126647949
0.105565115809440613 -0.487047582864761353 0.366612106561660767
0.290975809097290039 -0.418681949377059937 0.370506793260574341
0.353462189435958862 -0.389548957347869873 0.439440399408340454
0.179469585418701172 -0.489465892314910889 0.199577495455741882
0.0926239937543869019 -0.335515350103378296 0.232781633734703064
0.294425636529922485 -0.493799060583114624 0.323033392429351807
0.0534568130970001221 -0.440846353769302368 0.315421819686889648
0.195625752210617065 -0.289660811424255371 0.413953810930252075
0.316213667392730713 -0.412602812051773071 0.42051360011100769
0.0783049911260604858 -0.329397529363632202 0.224181801080703735
0.337030708789825439 -0.38887515664100647 0.192493081092834473
0.301488608121871948 -0.386628717184066772 0.356285393238067627
0.124733701348304749 -0.403387397527694702 0.390173733234405518
0.0455699265003204346 -0.372341006994247437 0.297757953405380249
0.14621812105178833 -0.557915329933166504 0.268339097499847412
0.288127422332763672 -0.507251381874084473 0.356175035238265991
0.111068442463874817 -0.349274426698684692 0.348395735025405884
-0.240717828273773193 -0.566143989562988281 0.283131510019302368
0.247595518827438354 -0.49541163444519043 0.236392781138420105
0.0917301103472709656 -0.482948094606399536 0.357057392597198486
0.101167261600494385 -0.571267783641815186 0.276509672403335571
-0.284971088171005249 -0.527754545211791992 0.246525198221206665
0.0646430626511573792 -0.47977784276008606 0.268703639507293701
0.0663515031337738037 -0.510119497776031494 0.370080918073654175
0.204446837306022644 -0.414650112390518188 0.431663036346435547
0.116789542138576508 -0.521544456481933594 0.248922735452651978
0.309074193239212036 -0.47251427173614502 0.331997275352478027
0.232573464512825012 -0.541938364505767822 0.400162220001220703
0.107905857264995575 -0.33407139778137207 0.365157276391983032
0.20037686824798584 -0.27042621374130249 0.179432108998298645
0.259898871183395386 -0.474071145057678223 0.214492678642272949
0.110697127878665924 -0.520368337631225586 0.225827082991600037
0.0770163312554359436 -0.31821712851524353 0.264819860458374023
0.145719453692436218 -0.344125300645828247 0.129746243357658386
0.372314691543579102 -0.512998700141906738 0.288034111261367798
0.114053748548030853 -0.492713034152984619 0.170057728886604309
0.12740740180015564 -0.448409438133239746 0.404165893793106079
0.273868829011917114 -0.49081304669380188 0.328350871801376343
0.294375360012054443 -0.401091963052749634 0.408575773239135742
0.307682693004608154 -0.367785841226577759 0.431707143783569336
0.176715850830078125 -0.311971217393875122 0.328318208456039429
0.363212436437606812 -0.484633147716522217 0.237038478255271912
0.174960687756538391 -0.522970378398895264 0.200677469372749329
0.1120329350233078 -0.388263285160064697 0.378323853015899658
0.190486937761306763 -0.302125424146652222 0.194523617625236511
0.16780206561088562 -0.417748838663101196 0.206770226359367371
0.27274554967880249 -0.541785538196563721 0.179343819618225098
0.102066338062286377 -0.447762429714202881 0.382594674825668335
0.147162064909934998 -0.324259698390960693 0.293969124555587769
0.231076449155807495 -0.530835270881652832 0.356654137372970581
0.101388640701770782 -0.477903664112091064 0.222417041659355164
0.321406096220016479 -0.341230303049087524 0.36834987998008728
0.0891131535172462463 -0.435568749904632568 0.257732361555099487
0.0651380270719528198 -0.441526949405670166 0.288641035556793213
0.139607444405555725 -0.322420179843902588 0.134961217641830444
0.120644800364971161 -0.391915023326873779 0.212102264165878296
0.149953261017799377 -0.34693571925163269 0.32567247748374939
-0.247504696249961853 -0.566258847713470459 0.246617257595062256
0.112064540386199951 -0.532353997230529785 0.290588110685348511
0.249410107731819153 -0.305719137191772461 0.454794049263000488
0.0367065742611885071 -0.433320045471191406 0.251753836870193481
0.370303303003311157 -0.444331496953964233 0.270867526531219482
0.0578612051904201508 -0.364229559898376465 0.308593094348907471
0.289743602275848389 -0.394230097532272339 0.181365266442298889
0.325658679008483887 -0.388379812240600586 0.412263840436935425
0.120660334825515747 -0.511803269386291504 0.183915197849273682
0.109486542642116547 -0.400474637746810913 0.218238607048988342
0.128195077180862427 -0.22653864324092865 0.303946077823638916
0.129677802324295044 -0.470854908227920532 0.429473429918289185
0.273420929908752441 -0.336356222629547119 0.165618494153022766
0.288322150707244873 -0.366082131862640381 0.332053154706954956
0.318591266870498657 -0.480121344327926636 0.400500982999801636
0.0689138919115066528 -0.398115605115890503 0.238265514373779297
0.319636404514312744 -0.443174302577972412 0.272221684455871582
0.0998221561312675476 -0.537796676158905029 0.250139564275741577
0.267797470092773438 -0.405983686447143555 0.419427603483200073
0.211709633469581604 -0.464003145694732666 0.129794538021087646
0.2208290696144104 -0.470365166664123535 0.451325953006744385
0.309118002653121948 -0.376169055700302124 0.386976301670074463
0.351014435291290283 -0.414065688848495483 0.405542999505996704
0.17634853720664978 -0.547471344470977783 0.228286281228065491
0.278859645128250122 -0.493885517120361328 0.362467199563980103
0.175077483057975769 -0.529793739318847656 0.212971270084381104
0.106012187898159027 -0.323988139629364014 0.335553348064422607
0.345128774642944336 -0.514491558074951172 0.152856439352035522
0.0702958405017852783 -0.459783464670181274 0.329255938529968262
0.281745672225952148 -0.480950862169265747 0.432561486959457397
0.259970545768737793 -0.372873604297637939 0.334248214960098267
0.297707468271255493 -0.351601481437683105 0.427801519632339478
0.101487025618553162 -0.278497070074081421 0.218431279063224792
0.286182790994644165 -0.54727858304977417 0.310631930828094482
0.208883494138717651 -0.483785808086395264 0.218783870339393616
0.0633819252252578735 -0.408111870288848877 0.276129931211471558
0.136418074369430542 -0.340292781591415405 0.298401445150375366
0.144490793347358704 -0.38442644476890564 0.129387125372886658
0.282435357570648193 -0.473035931587219238 0.226809531450271606
0.234442159533500671 -0.433128952980041504 0.36048358678817749
0.10059654712677002 -0.377950131893157959 0.29881855845451355
0.189636990427970886 -0.285676896572113037 0.373943209648132324
0.0465020574629306793 -0.539343118667602539 0.346485793590545654
-0.252635776996612549 -0.523448526859283447 0.241760924458503723
0.214614778757095337 -0.557077348232269287 0.373439580202102661
0.212014481425285339 -0.365599930286407471 0.178803578019142151
0.393237859010696411 -0.417837232351303101 0.29486963152885437
0.0517589189112186432 -0.395568013191223145 0.343089818954467773
0.199288919568061829 -0.564118325710296631 0.377001583576202393
0.160445094108581543 -0.431709825992584229 0.195949852466583252
0.187538504600524902 -0.362775802612304688 0.313352465629577637
0.304762125015258789 -0.534736394882202148 0.224146217107772827
0.358856230974197388 -0.511838257312774658 0.181095406413078308
0.235969960689544678 -0.527459979057312012 0.396449655294418335
0.323434740304946899 -0.362205207347869873 0.365309923887252808
0.117457188665866852 -0.535566627979278564 0.225039377808570862
0.200105845928192139 -0.316412299871444702 0.418714255094528198
0.253376215696334839 -0.331943273544311523 0.154735878109931946
0.145875632762908936 -0.308460205793380737 0.336496978998184204
0.155778810381889343 -0.346891790628433228 0.095339849591255188
0.267554968595504761 -0.480365067720413208 0.219419866800308228
0.335433423519134521 -0.398023098707199097 0.211068928241729736
0.0641210600733757019 -0.442028343677520752 0.346988469362258911
0.297829568386077881 -0.408254653215408325 0.317396312952041626
0.133640453219413757 -0.409869670867919922 0.184075444936752319
0.20568673312664032 -0.299694955348968506 0.244420573115348816
0.148318082094192505 -0.228195503354072571 0.345212548971176147
0.336073786020278931 -0.537083923816680908 0.248082742094993591
0.10973154753446579 -0.431207954883575439 0.368779361248016357
0.15931934118270874 -0.390673726797103882 0.0948983952403068542
0.195790708065032959 -0.27356410026550293 0.240339145064353943
0.188808724284172058 -0.334834277629852295 0.408343911170959473
0.172459617257118225 -0.296589940786361694 0.312029570341110229
0.216202884912490845 -0.416199475526809692 0.203121691942214966
-0.256935715675354004 -0.573046267032623291 0.183205589652061462
0.274566680192947388 -0.431082099676132202 0.228646174073219299
0.211215957999229431 -0.374958634376525879 0.197763651609420776
0.240106344223022461 -0.517332077026367188 0.389233678579330444
0.0850544944405555725 -0.338734954595565796 0.214731276035308838
0.213725268840789795 -0.423987776041030884 0.437580913305282593
0.306844800710678101 -0.509132027626037598 0.131814911961555481
0.298314720392227173 -0.497162461280822754 0.249246269464492798
0.350849390029907227 -0.517952084541320801 0.11313822865486145
0.351925432682037354 -0.431061297655105591 0.258798897266387939
0.263461291790008545 -0.543199777603149414 0.378227531909942627
0.298982530832290649 -0.482156187295913696 0.14026816189289093
0.145787060260772705 -0.374091595411300659 0.254180848598480225
0.257212251424789429 -0.534945666790008545 0.374968439340591431
0.286095649003982544 -0.53512418270111084 0.274244755506515503
0.123040631413459778 -0.364618927240371704 0.125282764434814453
0.143956243991851807 -0.357171326875686646 0.333570033311843872
0.199036583304405212 -0.32075616717338562 0.392514675855636597
0.347760528326034546 -0.326800525188446045 0.312274634838104248
0.245093017816543579 -0.345793038606643677 0.459570378065109253
