ply
format ascii 1.0
element vertex 717
property float x
property float y
property float z
end_header
-0.0463639646768569946 -0.046328078955411911 0.0140397641807794571
0.0602697692811489105 0.0286446157842874527 0.00169750000350177288
0.656400382518768311 0.0237454380840063095 -0.0234440099447965622
0.00921004265546798706 0.0105195352807641029 -0.0881729871034622192
0.865415632724761963 -0.00961667951196432114 0.0448021590709686279
0.471769720315933228 0.0232033394277095795 0.00938883516937494278
0.340775847434997559 -0.00840023066848516464 -0.00896381866186857224
0.610745549201965332 0.0166157353669404984 -0.0115566430613398552
0.428270578384399414 -0.0116251055151224136 0.0173908956348896027
-0.593121886253356934 -0.0423318743705749512 0.274198561906814575
-0.0828322693705558777 -0.0220393519848585129 0.154657825827598572
0.0872650966048240662 -0.0460234880447387695 -0.00555365532636642456
0.921759605407714844 -0.0301939342170953751 -0.0439966954290866852
0.804830253124237061 0.0294007677584886551 -0.0148753002285957336
0.0231648702174425125 0.0181267242878675461 0.0466408655047416687
-0.338488161563873291 -0.0519874133169651031 0.204054519534111023
-0.361878573894500732 -0.0467245429754257202 0.22458280622959137
0.00844717118889093399 0.0144047727808356285 -0.0942507833242416382
0.834877312183380127 0.014694536104798317 -0.0575664043426513672
0.096835799515247345 -0.0107123469933867455 -0.0483303815126419067
0.0271678771823644638 0.0225941762328147888 0.0882254615426063538
0.0154635347425937653 0.0206796228885650635 0.0196122489869594574
0.0522918701171875 0.0112900761887431145 -0.0124505376443266869
-0.0333986841142177582 -0.0430242978036403656 0.0413884930312633514
-0.270908385515213013 0.0249810200184583664 0.0645186305046081543
0.761493921279907227 0.0188224930316209793 0.00812585745006799698
0.279187679290771484 0.0165190994739532471 -0.0580125004053115845
0.873381555080413818 0.0160601157695055008 0.0103884460404515266
-0.636147022247314453 -0.0296583361923694611 0.222599714994430542
-0.472513347864151001 -0.02864832803606987 0.158171504735946655
-0.409272313117980957 -0.0438155047595500946 0.178321689367294312
-0.154805898666381836 0.0418016649782657623 0.023578183725476265
0.0955129265785217285 0.0502764694392681122 -0.0323306061327457428
0.481582462787628174 0.0380445420742034912 -0.00838465522974729538
0.864216148853302002 -0.0154936444014310837 0.0427750945091247559
0.763700127601623535 0.0216837245970964432 -0.0016183189582079649
0.0681287124752998352 0.0162816513329744339 -0.00204418669454753399
0.852052092552185059 0.00914836209267377853 0.0625297650694847107
-0.522902309894561768 -0.0580243915319442749 0.227967575192451477
0.844251573085784912 -0.0160477533936500549 -0.0516862198710441589
0.288664311170578003 0.0183952227234840393 0.000862896733451634645
-0.212166488170623779 0.0426546372473239899 0.0252023655921220779
-0.140893533825874329 0.0508106723427772522 -0.0237668436020612717
0.379987746477127075 0.0288305077701807022 -0.0385325178503990173
-0.394152134656906128 -0.0430134609341621399 0.2193479984998703
0.922430932521820068 -0.0136755183339118958 0.0868868902325630188
0.537095606327056885 -0.00309575069695711136 0.00268188444897532463
0.717033267021179199 0.02588622085750103 -0.0428572185337543488
-0.0380919165909290314 -0.0323181524872779846 0.107854999601840973
0.457442730665206909 0.0492337830364704132 -0.00721168611198663712
0.194681018590927124 0.0103329597041010857 -0.0346221402287483215
-0.191514179110527039 -0.033539261668920517 -0.0222230982035398483
0.16639651358127594 0.00702247535809874535 0.0106239859014749527
0.0847873538732528687 -0.054320458322763443 -0.0347326360642910004
-0.00409353757277131081 -0.0494883023202419281 -0.0834515541791915894
0.834837079048156738 0.0284842085093259811 0.0236885771155357361
-0.335828423500061035 -0.017423585057258606 0.228460982441902161
-0.196854621171951294 -0.0243990868330001831 0.210441634058952332
-0.149267733097076416 0.0345655232667922974 0.039054136723279953
-0.443016201257705688 0.0182198919355869293 0.259919553995132446
0.0233884081244468689 0.0152543336153030396 0.0438537672162055969
-0.485595881938934326 0.0127261104062199593 0.22083987295627594
0.929584085941314697 -0.0515265762805938721 -0.0136194191873073578
0.42200922966003418 0.0410685800015926361 -0.0106336111202836037
-0.307548731565475464 0.00711162993684411049 0.111078806221485138
-0.243116527795791626 -0.0422780998051166534 0.203303068876266479
0.661021530628204346 -0.00185331364627927542 -0.00379835139028728008
0.628594040870666504 0.0457388609647750854 0.0447332896292209625
0.0897043049335479736 -0.0330871082842350006 0.0084677133709192276
0.855702638626098633 -0.0338901691138744354 0.0699701160192489624
-0.024753764271736145 0.0234042871743440628 0.10963103175163269
0.854923546314239502 -0.0194054506719112396 0.0251988545060157776
0.869833171367645264 -0.019587881863117218 0.0467958636581897736
0.150316789746284485 0.012896648608148098 -0.0355318114161491394
-0.45168834924697876 -1.02416443041875027e-05 0.234732881188392639
0.368504941463470459 0.0149615947157144547 -0.0486265756189823151
-0.147484481334686279 0.0407088957726955414 -0.0145115181803703308
0.856872856616973877 -0.0214643701910972595 -0.0694258138537406921
0.0251095239073038101 0.0433504953980445862 -0.0179036278277635574
0.59110569953918457 0.0147300064563751221 -0.0424388311803340912
-0.492422580718994141 0.0280430279672145844 0.188345298171043396
0.101211428642272949 0.0318795554339885712 0.0277642868459224701
0.131957650184631348 -0.0163975507020950317 0.0285991281270980835
-0.264006286859512329 0.0165170133113861084 0.175432190299034119
0.643432497978210449 0.00637631770223379135 0.0267412271350622177
0.796559572219848633 0.0315632037818431854 0.0428721010684967041
0.953830540180206299 -0.0403473526239395142 0.0201007258147001266
-0.27179330587387085 -0.0439821407198905945 0.187506482005119324
-0.218548387289047241 0.0178570449352264404 0.14874577522277832
0.122284747660160065 0.0363310091197490692 -0.0137191880494356155
-0.347970783710479736 -0.0385846905410289764 0.0936875641345977783
-0.169228062033653259 0.0209823660552501678 -0.00755194667726755142
-0.641940891742706299 -0.0487951859831809998 0.240596622228622437
0.81937938928604126 0.0233804043382406235 -0.00574449356645345688
-0.183106750249862671 -0.0271247643977403641 0.193983212113380432
0.0710830315947532654 -0.04099288210272789 0.0396881029009819031
-0.151819616556167603 -0.0218629296869039536 0.183652147650718689
0.77596127986907959 0.0300199203193187714 -0.0229706671088933945
0.587356805801391602 -0.0034888808149844408 -0.0023926817812025547
0.168985605239868164 0.0166589971631765366 -0.0280499234795570374
0.0247537791728973389 0.0248895622789859772 -0.0882593020796775818
0.900521159172058105 -0.0178990345448255539 -0.057750701904296875
-0.184179008007049561 -0.020374024286866188 0.17821270227432251
0.170948311686515808 0.0194071177393198013 -0.0172204151749610901
-0.335354983806610107 0.0175356529653072357 0.0723029598593711853
0.459654688835144043 0.0140123888850212097 0.006624588742852211
0.0958798080682754517 0.028910929337143898 0.0265018865466117859
0.972562074661254883 -0.0383976548910140991 0.0105526028200984001
-0.356369107961654663 -0.0497699305415153503 0.118334583938121796
0.416936367750167847 0.0326276347041130066 -0.00039893988287076354
0.757265627384185791 0.0215967297554016113 -0.0718438774347305298
-0.160045042634010315 -0.0359728708863258362 0.17688789963722229
0.0141810402274131775 0.0318467766046524048 -0.0125031061470508575
0.736918270587921143 0.00933679286390542984 -0.0190663207322359085
0.14390227198600769 0.0388611443340778351 0.00746623938903212547
-0.245254561305046082 0.0144553929567337036 0.198157668113708496
-0.309044390916824341 -0.0461175590753555298 0.222372233867645264
-0.473329693078994751 0.000677812669891864061 0.235357478260993958
0.502730429172515869 0.0144456112757325172 0.00997215323150157928
-0.28372645378112793 -0.0446514524519443512 0.0233561098575592041
-0.454030096530914307 -0.0324967354536056519 0.278459995985031128
0.3141154944896698 -0.020610421895980835 0.00114272325299680233
0.585863351821899414 0.028445802628993988 -0.0431225188076496124
-0.606160163879394531 0.014738425612449646 0.245719507336616516
0.784591436386108398 0.0223830826580524445 -0.04503583163022995
0.253894627094268799 0.0346177965402603149 -0.0129565466195344925
0.0280933063477277756 -0.047915283590555191 -0.000224545670789666474
0.0399189852178096771 0.0569552965462207794 -0.0520604997873306274
0.554461479187011719 0.00333639560267329216 -0.000355601514456793666
0.586768448352813721 0.0165213793516159058 -0.0482842475175857544
0.637064635753631592 0.00144458631984889507 0.00777455326169729233
-0.254369586706161499 0.0237430669367313385 0.0730306059122085571
0.827488601207733154 -0.00936004519462585449 -0.02003471739590168
0.024511655792593956 0.0217352826148271561 -0.0590829476714134216
0.440940529108047485 0.0194421503692865372 0.0153253274038434029
0.80356442928314209 0.00654158322140574455 -0.0151293892413377762
0.536094903945922852 0.0299757402390241623 0.0170352179557085037
-0.244487002491950989 0.0226109139621257782 0.0556415766477584839
-0.273526191711425781 -0.0592094771564006805 0.0733065903186798096
0.127902016043663025 0.00628252001479268074 0.0262964572757482529
-0.502609133720397949 -0.0391965210437774658 0.166648522019386292
-0.660428285598754883 -0.0547507740557193756 0.261007934808731079
0.967176437377929688 -0.0147963231429457664 0.024303806945681572
0.766790151596069336 0.0297709051519632339 0.0204412732273340225
0.936409115791320801 -0.000642215949483215809 0.0277265105396509171
-0.0207972452044487 0.0541185028851032257 -0.0118982940912246704
-0.392299145460128784 -0.0319569483399391174 0.115895010530948639
0.0596276037395000458 0.0235697180032730103 0.0547051355242729187
0.902089595794677734 -0.0471020117402076721 -0.0610495321452617645
0.0376535952091217041 -0.0302133634686470032 -0.0819889381527900696
-0.431195735931396484 -0.0179343223571777344 0.121276572346687317
0.558670699596405029 0.0164004489779472351 0.0362423695623874664
-0.103248372673988342 0.0230126883834600449 0.00738868024200201035
-0.246252626180648804 -0.036759398877620697 0.149510115385055542
-0.4109840989112854 -0.0491953492164611816 0.14505276083946228
0.235016360878944397 0.0153996702283620834 0.0160020273178815842
0.069902271032333374 0.0574143193662166595 0.0294372625648975372
0.955712199211120605 -0.0445837080478668213 0.0151012018322944641
0.34739413857460022 0.0498886629939079285 0.0386887304484844208
0.816143274307250977 -0.0182489044964313507 -0.0071720639243721962
-0.222935944795608521 0.0105124339461326599 0.1915406733751297
-0.0418607480823993683 -0.0459996461868286133 -0.0378075577318668365
-0.49764135479927063 -0.000801761692855507135 0.274088501930236816
0.115347541868686676 0.0162023250013589859 -0.035353735089302063
-0.100486502051353455 0.0512974001467227936 -0.00643499661237001419
-0.118500180542469025 0.0281958077102899551 9.25171116250567138e-05
-0.102181658148765564 -0.065571807324886322 -0.0134618394076824188
-0.587308764457702637 -0.0500807575881481171 0.258656084537506104
0.00598844559863209724 -0.0334458760917186737 -0.0163971967995166779
-0.0715258494019508362 -0.0531278029084205627 0.0534680075943470001
-0.127241268754005432 -0.05404677614569664 0.14788500964641571
0.468214839696884155 0.0227762609720230103 -0.0182775501161813736
-0.169337525963783264 0.0130664873868227005 0.0570949427783489227
0.363139688968658447 0.0294694602489471436 -0.0254689715802669525
-0.542505145072937012 0.0340473577380180359 0.202814772725105286
-0.0706721320748329163 -0.0491361320018768311 0.0689772069454193115
0.783428311347961426 0.0213252399116754532 -0.0613041669130325317
-0.04421238973736763 0.00613109208643436432 0.00118648144416511059
-0.34957730770111084 0.00127482286188751459 0.225907579064369202
-0.0498128831386566162 -0.0520544461905956268 -0.0576493591070175171
0.0862151384353637695 0.00654183980077505112 0.000851375458296388388
0.827863693237304688 0.0145196802914142609 0.0599049404263496399
-0.0295156762003898621 -0.0533125102519989014 -0.075164109468460083
0.0180465299636125565 -0.00995181594043970108 0.109692826867103577
-0.368910431861877441 -0.0343191362917423248 0.236447468400001526
0.453278332948684692 0.023875158280134201 0.0462214574217796326
-0.0815765932202339172 -0.0397124886512756348 0.102419435977935791
0.632606267929077148 0.0443320795893669128 0.0340119712054729462
-0.183708831667900085 0.0418977662920951843 0.0327298715710639954
0.0896167755126953125 0.0230409633368253708 0.0567036271095275879
-0.238989457488059998 0.0323005653917789459 0.145155832171440125
-0.137382671236991882 0.0149955460801720619 0.062296643853187561
0.678626358509063721 0.0367824956774711609 -0.0194221530109643936
0.768567383289337158 0.0407397113740444183 0.0030856989324092865
0.0173966996371746063 0.0120260817930102348 0.0289701223373413086
0.925072729587554932 -0.0169595964252948761 0.0219940207898616791
-0.132725656032562256 0.0249634627252817154 0.113386251032352448
0.409009307622909546 0.0405884683132171631 0.0104914391413331032
-0.405378729104995728 0.00356848654337227345 0.132154852151870728
-0.572140395641326904 -0.0349845550954341888 0.236032977700233459
-0.254523307085037231 0.013524198904633522 0.104926198720932007
-0.512812972068786621 0.0282443985342979431 0.202594056725502014
0.149070307612419128 0.0157019570469856262 0.0296957213431596756
-0.0949244648218154907 0.00787521712481975555 0.135781571269035339
-0.500793695449829102 0.00478503294289112091 0.186952605843544006
0.999870538711547852 -0.0283439662307500839 0.00310662249103188515
-0.640554547309875488 -0.0347548387944698334 0.258668988943099976
0.00547338230535387993 0.0392853133380413055 -0.0493083149194717407
0.318417936563491821 0.00312642590142786503 -0.0236381683498620987
0.387655526399612427 -0.00670475466176867485 0.0280755665153264999
0.116025336086750031 0.0210208669304847717 0.0285400915890932083
0.20080798864364624 0.0126179968938231468 -0.00418175850063562393
-0.352657198905944824 0.0157680287957191467 0.151918306946754456
0.0895781740546226501 -0.0320413596928119659 -0.0766759216785430908
0.792911887168884277 0.0251060090959072113 0.00775628862902522087
0.0924725905060768127 0.0215246248990297318 -0.0549160093069076538
-0.276595741510391235 -0.030545160174369812 0.210990771651268005
0.289126694202423096 0.034479726105928421 -0.0243877936154603958
-0.134488403797149658 -0.0366838239133358002 0.130149051547050476
0.00498625263571739197 -0.0368737839162349701 -0.055049598217010498
0.029814891517162323 -0.0393112041056156158 0.0174365323036909103
0.892681002616882324 -0.0164729245007038116 0.0567787885665893555
0.389670968055725098 0.00735557405278086662 0.0166020803153514862
0.962727546691894531 -0.0338521115481853485 0.0502762943506240845
0.00291003938764333725 0.0230325460433959961 -0.119730710983276367
-0.370052427053451538 -0.0325656719505786896 0.236690416932106018
0.164044782519340515 0.000540871114935725927 -0.0449300743639469147
-0.146719172596931458 -0.0303579624742269516 0.158893749117851257
-0.149940788745880127 -0.0699374526739120483 -0.0354961343109607697
-0.403324544429779053 0.0076893526129424572 0.240329071879386902
0.597900152206420898 -0.00320575875230133533 -0.0163762196898460388
0.245393127202987671 0.0246394611895084381 -0.0361893363296985626
0.845971584320068359 0.0119900451973080635 -0.0669536888599395752
0.104468189179897308 -0.0479739978909492493 -0.00926089193671941757
0.893794775009155273 0.0189792066812515259 -0.00836044177412986755
-0.468588054180145264 -0.0522094331681728363 0.244727432727813721
-0.0192107837647199631 0.0122236600145697594 -0.116216100752353668
0.332137882709503174 0.037565324455499649 0.0461919642984867096
0.27053561806678772 0.0454479977488517761 0.00860414188355207443
0.0290313661098480225 0.0176095403730869293 0.0171764250844717026
-0.264752477407455444 -0.0450520291924476624 0.121722064912319183
0.669976234436035156 0.0414990857243537903 0.0512030869722366333
0.73675912618637085 0.0407208353281021118 0.00320719275623559952
0.963808894157409668 -0.0518446639180183411 0.0638690218329429626
0.430629044771194458 0.00941303465515375137 -0.0312082991003990173
-0.137977495789527893 0.0280279815196990967 0.0683015361428260803
-0.540104389190673828 -0.0274185501039028168 0.216324135661125183
0.559476852416992188 0.0358676277101039886 -0.0204195156693458557
0.393457472324371338 0.035477612167596817 0.0401515625417232513
0.628028392791748047 0.0281619075685739517 -0.0316930599510669708
0.0706712901592254639 0.0397566854953765869 0.0215757172554731369
0.779038488864898682 -0.00642458628863096237 -0.00285139493644237518
0.490342080593109131 0.0275764800608158112 -0.0206793081015348434
0.0722831562161445618 -0.00968931242823600769 0.0537523664534091949
-0.0883200541138648987 0.0330403149127960205 0.111559681594371796
0.15845942497253418 0.0175154414027929306 -0.0056496509350836277
0.121266789734363556 -0.0117272250354290009 -0.0549127198755741119
-0.0676744729280471802 0.0591964609920978546 0.00655002519488334656
-0.519340336322784424 -0.0632739365100860596 0.232589125633239746
-0.0746468827128410339 -0.0338228791952133179 0.00437419209629297256
-0.339579105377197266 -0.0593464374542236328 0.0836177319288253784
0.534123420715332031 0.00953677110373973846 -0.016098635271191597
-0.129796698689460754 -0.0584321953356266022 -0.0534326434135437012
-0.35158953070640564 0.0104551110416650772 0.232019498944282532
-0.227187380194664001 0.02270510233938694 0.173194989562034607
-0.163590207695960999 0.0209132935851812363 0.134513780474662781
0.44335407018661499 0.0425466857850551605 -0.0225766394287347794
-0.252974063158035278 0.00129304814618080854 0.20476222038269043
-0.0760860443115234375 0.0546232275664806366 -0.0315641574561595917
-0.612300753593444824 -0.0473419800400733948 0.277544856071472168
0.750856518745422363 0.019699394702911377 -0.0298109296709299088
-0.381355911493301392 0.0215120743960142136 0.206620097160339355
-0.113905012607574463 -0.0511196106672286987 -0.00354135478846728802
-0.389361947774887085 0.0318883806467056274 0.155501142144203186
0.668609738349914551 0.00454089697450399399 -0.0275692194700241089
0.244485765695571899 0.0202285479754209518 0.0457407496869564056
0.578704774379730225 0.042401142418384552 0.00316230650059878826
0.852233707904815674 -0.0330572612583637238 0.025996105745434761
-0.662362813949584961 0.00116403552237898111 0.29603046178817749
0.348819464445114136 0.011721346527338028 0.013441598042845726
0.565501987934112549 0.0429325588047504425 -0.0175786092877388
0.826150715351104736 -0.00164863595273345709 -0.0133247794583439827
-0.191871434450149536 0.0322660915553569794 0.0445314459502696991
0.0941958129405975342 0.0293431878089904785 0.00339008308947086334
0.900406539440155029 -0.0321581475436687469 0.0486369431018829346
-0.190923333168029785 0.00465587945654988289 0.184807613492012024
-0.0515631325542926788 0.0505964942276477814 -0.0114798331633210182
0.452462732791900635 0.00331737427040934563 -0.0187189020216464996
0.80335545539855957 0.0329487435519695282 0.0232476610690355301
-0.00635256944224238396 0.0289068650454282761 0.0379044488072395325
0.55280005931854248 0.0174964442849159241 0.0133510604500770569
-0.213727742433547974 0.0407004021108150482 0.156330496072769165
-0.244210332632064819 -0.00998664833605289459 0.215970352292060852
0.0434480533003807068 0.00414145924150943756 -0.100346200168132782
0.18795834481716156 0.000125252365251071751 0.0105482153594493866
-0.351161450147628784 -0.0497565679252147675 0.19530951976776123
0.49381747841835022 0.0204213522374629974 0.0263546723872423172
-0.163827061653137207 0.021180860698223114 0.00521754380315542221
0.83424222469329834 0.0266140643507242203 0.0353377349674701691
0.307871878147125244 0.0109038408845663071 -0.0686502605676651001
0.0233417414128780365 0.0266348179429769516 -0.0284499134868383408
-0.0419997461140155792 0.00906036235392093658 -0.0521386489272117615
0.1718100905418396 0.0472081154584884644 0.0226554200053215027
0.0159927532076835632 0.0678163915872573853 0.0259435661137104034
-0.110045827925205231 -0.018999982625246048 0.165667101740837097
-0.355266541242599487 -0.0317492969334125519 0.25065949559211731
0.867595374584197998 0.014005064032971859 0.0447176508605480194
-0.554793953895568848 0.00141024123877286911 0.262132465839385986
-0.0216899719089269638 0.0159225296229124069 -0.0450354255735874176
-0.169547274708747864 0.0214826744049787521 0.132934659719467163
0.915555179119110107 -0.00282745715230703354 0.0420283004641532898
0.912735462188720703 -0.0299021527171134949 -0.0118290120735764503
-0.374603927135467529 -0.0565066859126091003 0.191969692707061768
-0.0198167655616998672 -0.05746421217918396 -0.0304653365164995193
-0.349174976348876953 0.0278258882462978363 0.12713901698589325
0.627285480499267578 0.0205771271139383316 -0.0429861322045326233
0.760457754135131836 0.0353380590677261353 0.0178613793104887009
0.277535140514373779 0.0050015556626021862 0.0407036654651165009
0.862679243087768555 0.0155910830944776535 0.0223096311092376709
0.919411897659301758 -0.0329491309821605682 -0.0252256393432617188
0.892702817916870117 0.00820680148899555206 -0.0345723256468772888
0.0103333685547113419 -0.0469953790307044983 -0.00189957290422171354
-0.55676192045211792 0.013490019366145134 0.252325505018234253
0.924939572811126709 -0.0407095924019813538 -0.0380640663206577301
0.878814876079559326 -0.0314594954252243042 0.0446199215948581696
-0.0672655552625656128 0.0223125498741865158 0.108456924557685852
-0.399438142776489258 -0.0497944541275501251 0.139482781291007996
0.143961235880851746 -0.0154343750327825546 -0.0206700656563043594
0.704829216003417969 0.0176179371774196625 0.0266865994781255722
0.0615911073982715607 -0.058206900954246521 0.0231949444860219955
0.439507335424423218 -0.00868946127593517303 -0.00441131647676229477
0.00965236686170101166 -0.00195048539899289608 0.0852237045764923096
0.309714734554290771 0.00992673914879560471 0.00300862989388406277
0.946773767471313477 -0.00893819704651832581 -0.0235734153538942337
0.905475020408630371 -0.0224242061376571655 -0.0222289562225341797
-0.215004995465278625 0.022562885656952858 0.186802253127098083
-0.454884916543960571 -0.0386047698557376862 0.18439677357673645
0.00403532804921269417 0.032910473644733429 0.0396799258887767792
0.613011658191680908 0.0483546406030654907 0.0140064852312207222
0.0795444101095199585 0.0099866669625043869 -0.0428614765405654907
-0.0783580765128135681 -0.0386565476655960083 -0.0357721969485282898
0.912669003009796143 -0.0177369993180036545 0.0337699055671691895
-0.452750146389007568 -0.0415538772940635681 0.237485900521278381
0.778791189193725586 0.014957871288061142 -0.00418535526841878891
0.734622955322265625 0.0419147945940494537 0.0235164780169725418
0.885855138301849365 -0.0416522659361362457 -0.000898960395716130733
0.408493161201477051 0.0278608426451683044 -0.0351352766156196594
-0.0757842734456062317 0.00143324199598282576 0.0766864195466041565
-0.0267965942621231079 0.0378267616033554077 0.0637031868100166321
0.00242252321913838387 -0.0227267034351825714 -0.120598644018173218
-0.0701679736375808716 -0.0105594247579574585 -0.0544792674481868744
0.81486201286315918 0.0296874567866325378 -0.0249722860753536224
-0.413201212882995605 -0.00897157285362482071 0.243972122669219971
0.647155165672302246 0.0163854621350765228 0.00880064535886049271
-0.419420391321182251 -0.0378721281886100769 0.24332156777381897
0.554575681686401367 0.0398735553026199341 -0.0447746999561786652
-0.0232714302837848663 -0.0248773600906133652 0.10657636821269989
-0.247854679822921753 -0.0683275461196899414 0.0751335844397544861
-0.0488987565040588379 0.0257496889680624008 0.0593531318008899689
0.0781206861138343811 0.0114961238577961922 -0.0683915242552757263
0.944550752639770508 -0.0369734242558479309 0.00255121709778904915
-0.0548098906874656677 -0.0447388924658298492 -0.115983203053474426
0.924979925155639648 -0.0340501405298709869 -0.00932893715798854828
0.955751121044158936 -0.0222496930509805679 -0.0251766815781593323
0.317548841238021851 0.0342613495886325836 -0.00389314768835902214
-0.131255194544792175 -0.0601067766547203064 -0.00518096983432769775
0.651741445064544678 0.0164717249572277069 -0.0396479815244674683
-0.0793013423681259155 -0.0586636178195476532 0.143995687365531921
0.848744332790374756 -0.0148854730650782585 0.0143179865553975105
0.105753026902675629 0.0111810136586427689 0.0260914415121078491
0.0123679647222161293 -0.00889598764479160309 -0.1066574826836586
0.782030105590820312 0.0290766898542642593 -0.0643375366926193237
-0.0319931507110595703 -0.00914374738931655884 0.1270180344581604
0.911183536052703857 -0.054720807820558548 0.0193381812423467636
0.286338984966278076 -0.00610600737854838371 -0.000230698395171202719
0.93673628568649292 0.00897706672549247742 -0.0302202291786670685
0.0704206377267837524 0.0190460663288831711 -0.0477257147431373596
0.501302659511566162 0.00301324133761227131 0.0380938351154327393
0.394842714071273804 -0.00197759293951094151 -0.03559146448969841
-0.539494216442108154 0.00901149865239858627 0.264016330242156982
0.321668058633804321 0.0188121479004621506 -0.00538343470543622971
0.374458223581314087 -0.00726351421326398849 -0.0144725199788808823
0.583708405494689941 0.0483894683420658112 0.0279513653367757797
0.650963544845581055 0.0229949597269296646 0.00193598656915128231
-0.163620680570602417 -0.0501373708248138428 0.0997854694724082947
0.59432607889175415 0.037430107593536377 -0.00493292883038520813
-0.409132599830627441 0.0223928559571504593 0.201187163591384888
0.508911192417144775 0.0161416362971067429 -0.000930799171328544617
-0.297099590301513672 -0.0536013022065162659 0.0465232841670513153
0.0750623717904090881 0.0390016660094261169 -0.0454408042132854462
-0.185396015644073486 -0.0583279356360435486 0.0759673714637756348
-0.158159792423248291 -0.0293902438133955002 0.197267740964889526
0.09149913489818573 -0.0351503938436508179 0.0544710606336593628
0.320155531167984009 0.0159028861671686172 -0.0252939667552709579
0.33745419979095459 0.0201683305203914642 0.0423416085541248322
-0.196991726756095886 -0.0428182296454906464 0.0478671044111251831
-0.27039530873298645 -0.0540338493883609772 0.0753563791513442993
0.219886347651481628 0.041447758674621582 -0.0438010357320308685
0.165598109364509583 0.0332987643778324127 -0.058049619197845459
0.145455792546272278 0.0311509519815444946 0.0260725002735853195
-0.175299078226089478 0.0202006977051496506 0.101025901734828949
-0.126440346240997314 -0.0236929766833782196 0.142207756638526917
0.104913406074047089 0.0214326456189155579 -0.0461231470108032227
-0.163926452398300171 0.0231123119592666626 0.0936765521764755249
0.320171713829040527 0.0314274430274963379 -0.002860628766939044
0.329612106084823608 0.0220339074730873108 0.0214086510241031647
0.906219005584716797 -0.0276185944676399231 -0.040145043283700943
-0.442511707544326782 0.0468254312872886658 0.234020009636878967
0.354462563991546631 0.0400632582604885101 0.0425347723066806793
0.907390892505645752 -0.0482200309634208679 -0.0173103064298629761
-0.497993171215057373 -0.00778800109401345253 0.161518692970275879
0.864460229873657227 -0.0615983195602893829 0.0394968166947364807
-0.604352474212646484 -0.00583309493958950043 0.274154990911483765
0.00510448124259710312 -0.0412664897739887238 0.0106496065855026245
0.861954152584075928 -0.00554536795243620872 -0.0518527068197727203
-0.0536580681800842285 0.0325128026306629181 0.0981125161051750183
-0.554690957069396973 -0.0541662797331809998 0.26181831955909729
0.0420914292335510254 0.0130284838378429413 -0.0442911572754383087
0.889552712440490723 0.00506063923239707947 0.0229830797761678696
-0.0669958516955375671 -0.0472075566649436951 0.0795834437012672424
-0.0320236459374427795 0.0137022146955132484 -0.0384926795959472656
0.865870535373687744 0.000772635394241660833 -0.0384973101317882538
-0.16859889030456543 0.0457361266016960144 0.0144495284184813499
0.885518312454223633 -0.026424948126077652 0.0378683507442474365
-0.151975706219673157 0.00928144622594118118 0.0187551546841859818
-0.28776898980140686 -0.0431687831878662109 0.0600682720541954041
0.139194011688232422 0.00687139574438333511 0.0215849149972200394
0.26295199990272522 0.00285087781958281994 -0.0145282968878746033
0.58416438102722168 0.0225689280778169632 -0.00199948344379663467
0.0820695832371711731 -0.0548086799681186676 0.0391199775040149689
0.00334713980555534363 0.0195227954536676407 -0.101137377321720123
0.239018797874450684 0.0119025493040680885 0.0282145347446203232
0.744780838489532471 -0.00726404041051864624 -0.00463771075010299683
-0.0741053745150566101 0.0230289269238710403 -0.0207773689180612564
0.182168841361999512 0.0323492027819156647 0.00240512611344456673
-0.418245226144790649 -0.0602253712713718414 0.242383286356925964
-0.216476872563362122 0.0178179983049631119 0.130169227719306946
-0.476241379976272583 -0.00131603225599974394 0.261251688003540039
-0.641450464725494385 -0.0431383810937404633 0.239741399884223938
-0.273747056722640991 0.022913563996553421 0.0464215986430644989
-0.247887164354324341 0.0187868531793355942 0.0675424262881278992
0.561347365379333496 0.0307795871049165726 -0.0153504638001322746
0.440280705690383911 0.0620285794138908386 -0.038798842579126358
-0.221778556704521179 -0.0383946411311626434 0.0704857334494590759
-0.448434144258499146 -0.0242540705949068069 0.272689074277877808
-0.319965749979019165 0.0240755192935466766 0.243682965636253357
0.174553424119949341 -0.00638338923454284668 -0.00672211498022079468
-0.156326591968536377 -0.0314889289438724518 0.10728965699672699
0.088148556649684906 -0.0648801550269126892 -0.0207931268960237503
0.724334895610809326 0.0525717213749885559 0.011040177196264267
0.0311819501221179962 0.0404703207314014435 0.0156416967511177063
0.916375398635864258 -0.0157349240034818649 -0.023177020251750946
0.519917607307434082 0.0367321372032165527 0.00286770588718354702
0.604209244251251221 0.0215030331164598465 0.0257143657654523849
0.269625842571258545 0.0218185372650623322 0.00193040189333260059
-0.627929031848907471 0.00553916720673441887 0.251570135354995728
-0.61906588077545166 -0.0417407266795635223 0.276838183403015137
-0.278433531522750854 0.016066012904047966 0.206456169486045837
0.547217011451721191 0.0333414077758789062 -0.00551802432164549828
0.856330811977386475 0.0120807737112045288 0.0394437126815319061
0.421448409557342529 0.0417264960706233978 0.0282621365040540695
-0.450767666101455688 0.0340912528336048126 0.230212941765785217
0.737595796585083008 0.0175160113722085953 0.0101346466690301895
0.197396665811538696 0.0288193505257368088 0.0274119004607200623
-0.322333246469497681 -0.0657124966382980347 0.166537001729011536
0.835632503032684326 0.0209374520927667618 -0.0128036625683307648
-0.147210285067558289 -0.0456758774816989899 -0.006270573940128088
0.523007094860076904 0.0511109642684459686 -0.0486098937690258026
0.13201943039894104 0.00500498106703162193 0.00215395586565136909
-0.302996337413787842 -0.0671527087688446045 0.0594222508370876312
0.954400002956390381 -0.031945984810590744 0.0230877473950386047
-0.164104416966438293 0.0144459819421172142 -0.0114989876747131348
-0.0670400708913803101 -0.05179586261510849 -0.0277354884892702103
-0.138395637273788452 -0.0299053136259317398 0.0393091402947902679
0.36804884672164917 0.0262230969965457916 -0.0163018275052309036
0.330760329961776733 0.0471696332097053528 -0.0362335070967674255
0.443212181329727173 0.0405406132340431213 0.00404691137373447418
-0.472029000520706177 -0.0366547852754592896 0.139915928244590759
-0.22093711793422699 -0.0646638944745063782 0.0104376468807458878
0.0684845596551895142 0.0144189819693565369 0.0191062744706869125
-0.49662432074546814 -0.0260473936796188354 0.15564902126789093
0.531947135925292969 0.0160271897912025452 0.0268908217549324036
-0.00946705415844917297 0.0334847345948219299 0.0197243876755237579
-0.0172737482935190201 0.0144507419317960739 -0.00328489253297448158
-0.458945721387863159 0.029398234561085701 0.172233656048774719
0.467702656984329224 0.0278243683278560638 -0.045711170881986618
-0.568824887275695801 -0.0311559531837701797 0.191942915320396423
-0.0023760749027132988 0.0378216356039047241 -0.0426102429628372192
-0.158985629677772522 0.00116314319893717766 0.00471926713362336159
-0.0102746691554784775 0.00534740462899208069 0.0378426611423492432
0.435347229242324829 0.0133124152198433876 0.00360111682675778866
0.472901046276092529 0.0288517717272043228 0.0108393607661128044
0.809734761714935303 -0.00646345131099224091 -0.0488708838820457458
0.152849003672599792 0.0116130858659744263 0.0185195039957761765
0.127156496047973633 0.0358034372329711914 0.0276880841702222824
-0.367850124835968018 0.0132096894085407257 0.259155511856079102
0.0352978333830833435 0.026681678369641304 0.036942165344953537
-0.0427367836236953735 0.0144933657720685005 0.0583969950675964355
-0.311791807413101196 0.0268170833587646484 0.204439669847488403
0.158594727516174316 0.0327524878084659576 -0.0328830629587173462
0.0255960673093795776 -0.0120774470269680023 0.0957057476043701172
0.651575267314910889 0.0444117560982704163 0.00154756358824670315
-0.129300564527511597 -0.00172976835165172815 -0.0342016108334064484
0.750374317169189453 0.0223838444799184799 -0.0490123778581619263
0.696952521800994873 0.00148214807268232107 -0.000841987610328942537
-0.269901543855667114 0.0197599083185195923 0.0184787996113300323
-0.160964637994766235 -0.0385935008525848389 0.157266691327095032
0.971684813499450684 -0.0461304374039173126 0.0619318298995494843
0.210185915231704712 0.0397025942802429199 -0.0122487135231494904
-0.339609473943710327 0.0305050238966941833 0.2160634845495224
0.524209022521972656 0.0233620051294565201 0.0356271378695964813
0.878507137298583984 -0.0147216692566871643 -0.0512107126414775848
-0.0851197689771652222 -0.0273784641176462173 -0.0295590441673994064
0.510806441307067871 0.0369272343814373016 0.0173479486256837845
0.084424041211605072 -0.00618316419422626495 0.00154725706670433283
-0.43996816873550415 -0.0202172007411718369 0.26569405198097229
0.289851188659667969 0.0447353646159172058 -0.0464519262313842773
0.244989901781082153 0.00948203261941671371 -0.015407949686050415
-0.262137651443481445 0.0416369102895259857 0.0740870013833045959
-0.121277123689651489 0.0180462729185819626 0.0532441139221191406
0.230644598603248596 0.00744427181780338287 -0.00554390018805861473
-0.0553600676357746124 -0.00564774917438626289 0.13916151225566864
0.38384971022605896 0.0278254691511392593 0.00341088022105395794
0.291227757930755615 0.0325207263231277466 0.0151873631402850151
0.897250711917877197 0.00296780979260802269 -0.00368975917808711529
0.884531080722808838 -0.0219327416270971298 -0.0609768293797969818
0.961519002914428711 -0.0306551344692707062 -0.026022445410490036
-0.181390836834907532 0.0489717796444892883 0.0564249046146869659
0.100016839802265167 0.0118636144325137138 0.0500360652804374695
0.0455017685890197754 0.0455058477818965912 0.0274153575301170349
0.14610561728477478 0.00809991359710693359 -0.0567558519542217255
0.593503832817077637 0.0225948672741651535 0.0208120662719011307
-0.487930595874786377 -0.0483127795159816742 0.274357885122299194
0.288496315479278564 0.00446333177387714386 -0.0406485870480537415
0.296536564826965332 0.0394654646515846252 -0.000867182330694049597
-0.357577681541442871 -0.0420496389269828796 0.0780443549156188965
0.535475015640258789 -0.000741654715966433287 0.0122750252485275269
-0.394840776920318604 -0.0599914863705635071 0.145039364695549011
-0.431055307388305664 -0.0321354344487190247 0.205114647746086121
-0.195060819387435913 0.0233875401318073273 0.0052220318466424942
0.402444183826446533 0.0227219425141811371 0.00140256423037499189
0.358780741691589355 0.0326482169330120087 -0.0396671593189239502
-0.56058657169342041 -0.042588457465171814 0.237506374716758728
-0.403614938259124756 -0.0422384068369865417 0.252350449562072754
0.199770450592041016 0.0315407663583755493 -0.0374657399952411652
-0.166605338454246521 0.0297425389289855957 0.0572509504854679108
-0.139976978302001953 0.0321728028357028961 -0.0123118190094828606
0.185821026563644409 0.0270937252789735794 -0.0337207689881324768
0.0159130394458770752 -0.0397681780159473419 -0.0306100919842720032
0.697356283664703369 0.0263105947524309158 -0.0152792036533355713
0.230907753109931946 0.0292419679462909698 -0.0024575316347181797
-0.559158504009246826 -0.051707148551940918 0.196227565407752991
0.813296318054199219 0.0093291187658905983 0.0535857640206813812
-0.0561537668108940125 0.0151901105418801308 0.111713774502277374
0.76365196704864502 -0.00623303279280662537 0.0579584836959838867
-0.291716217994689941 -0.0535806603729724884 0.162723526358604431
-0.250192701816558838 0.0237980913370847702 0.164536669850349426
0.246734082698822021 0.016955837607383728 -0.0179018862545490265
0.874257385730743408 -0.00854538008570671082 -0.048467881977558136
0.214692205190658569 0.0171917714178562164 0.0251569785177707672
-0.0203957706689834595 0.0477210618555545807 0.0381297357380390167
-0.18101753294467926 -0.0177776720374822617 0.203275591135025024
0.581166625022888184 0.0463837534189224243 0.022607073187828064
0.396916598081588745 0.0184992142021656036 -0.0388795174658298492
-0.202920094132423401 0.0283226128667593002 0.0465214550495147705
-0.122986249625682831 0.015810016542673111 0.0339433066546916962
0.880706965923309326 -0.00280955014750361443 0.00428520841524004936
-0.156853958964347839 0.0543530881404876709 0.0154586043208837509
0.0805049017071723938 -0.0351684875786304474 0.0719870030879974365
0.0583843551576137543 0.041386045515537262 0.0147658567875623703
-0.278616368770599365 0.0104594137519598007 0.101121500134468079
0.872815728187561035 0.0136196613311767578 -0.0359797105193138123
0.830692589282989502 0.017190227285027504 -0.0590456649661064148
0.371362030506134033 -0.011689002625644207 -0.0102365799248218536
-0.342168986797332764 -0.0467377044260501862 0.169460028409957886
0.707520008087158203 0.0324045903980731964 -0.0363275445997714996
-0.270621299743652344 -0.0688440278172492981 0.126423284411430359
0.0378755033016204834 0.0232936292886734009 -0.00974758993834257126
0.288837403059005737 0.0480904802680015564 0.0424384176731109619
-0.0180352125316858292 0.0219194721430540085 0.0265326704829931259
0.0692584514617919922 -0.0224846657365560532 -0.0941442996263504028
0.12824760377407074 0.00615669554099440575 -0.0255101379007101059
0.237992748618125916 0.00925126764923334122 -0.000807783217169344425
0.590713977813720703 0.0536389388144016266 0.0527693293988704681
-0.317572236061096191 -0.0275183245539665222 0.214636176824569702
0.407685279846191406 0.0420665368437767029 0.0302630122750997543
0.850095927715301514 -0.0150323081761598587 0.00485002342611551285
-0.0094700278714299202 -0.0361648984253406525 0.122657112777233124
0.248895317316055298 0.0582186058163642883 0.00334670976735651493
0.684008121490478516 0.0285826176404953003 -0.0152416182681918144
0.0813259556889533997 0.0201754625886678696 0.0198220349848270416
-0.024252789095044136 0.0115258693695068359 -0.0978436991572380066
0.444655269384384155 0.0232227426022291183 -0.026981014758348465
-0.220018014311790466 -0.0392807535827159882 0.178402066230773926
-0.276413768529891968 0.0272824671119451523 0.123466327786445618
-0.708361208438873291 -0.0193545129150152206 0.272108078002929688
0.161170095205307007 -0.00732694286853075027 -0.00660995254293084145
0.798930585384368896 0.00207008933648467064 -0.0323992744088172913
0.50657123327255249 0.0370241142809391022 -0.0121123511344194412
0.65322422981262207 0.0437125079333782196 -0.00348264956846833229
-0.178878098726272583 0.0344516448676586151 0.140547424554824829
0.525484740734100342 0.0215151496231555939 -0.0164149720221757889
0.770743429660797119 0.0217239223420619965 -0.0362812541425228119
0.853527367115020752 -0.0144227053970098495 -0.0607419796288013458
0.55539470911026001 0.0235550068318843842 0.0220651924610137939
0.105211213231086731 0.00846597366034984589 0.0163538344204425812
0.839157164096832275 0.00680965371429920197 -0.0087944595143198967
-0.191435500979423523 0.0107216779142618179 0.17949540913105011
0.88773655891418457 0.0133802788332104683 -0.0207640696316957474
0.0863110125064849854 0.0437550246715545654 0.0280123576521873474
-0.365531563758850098 0.0153740067034959793 0.195415332913398743
-0.506131589412689209 -0.0472860559821128845 0.163680404424667358
0.875948429107666016 -0.0318619459867477417 0.0738773569464683533
-0.251784801483154297 0.0230213608592748642 0.124127082526683807
-0.211367622017860413 -0.0580760650336742401 0.160496339201927185
0.487605690956115723 0.0228341501206159592 -0.0192460324615240097
-0.462018668651580811 -0.057910434901714325 0.162530988454818726
-0.0975029990077018738 0.0439765304327011108 -0.0306053943932056427
-0.212618321180343628 -0.0230502132326364517 0.201494336128234863
-0.120823577046394348 0.00878524407744407654 0.135062664747238159
-0.26281815767288208 -0.0331510528922080994 0.0216476917266845703
0.777799308300018311 0.0522960871458053589 -0.00303348270244896412
0.243746191263198853 0.0211092624813318253 -0.000826069153845310211
0.0375271029770374298 0.0301645733416080475 -0.0571398437023162842
0.107883535325527191 0.0177636239677667618 0.0318421684205532074
0.757207930088043213 0.0240600463002920151 -0.0253956001251935959
0.843272805213928223 0.0271723754703998566 -0.0518429651856422424
-0.0975992381572723389 0.00948947109282016754 -0.0563651472330093384
-0.506462812423706055 0.0343021266162395477 0.235282674431800842
0.836055159568786621 4.29863684985321015e-05 -0.0621983595192432404
0.656928420066833496 0.00132117315661162138 0.00490161450579762459
0.087502114474773407 -0.0155641054734587669 -0.0188160166144371033
-0.44159504771232605 -0.0313301198184490204 0.158795192837715149
-0.432643473148345947 -0.052616409957408905 0.203824296593666077
0.115647211670875549 -0.0246828030794858932 0.00122951576486229897
-0.193573176860809326 -0.0383690111339092255 0.195144683122634888
0.913218021392822266 0.00378018408082425594 0.0129977567121386528
0.913201868534088135 -0.0420580543577671051 -0.0276483837515115738
0.0720145031809806824 0.0171482190489768982 0.0396024547517299652
0.751714825630187988 0.0122752971947193146 0.014969291165471077
-0.327127069234848022 -0.0485545992851257324 0.105575524270534515
0.0351254530251026154 -0.0164064355194568634 -0.0840783044695854187
-0.133155420422554016 0.0281719081103801727 0.0255599450320005417
0.270454674959182739 0.0271838977932929993 0.0540968999266624451
-0.101011805236339569 -0.0434266552329063416 0.079231947660446167
-0.644728422164916992 -0.00832764245569705963 0.278486818075180054
-0.0504158735275268555 -0.0499493293464183807 0.0550148449838161469
-0.629083573818206787 -0.0426038689911365509 0.2487049400806427
-0.237964451313018799 0.0159197729080915451 0.163261890411376953
-0.476894348859786987 -0.0201540756970643997 0.13266463577747345
-0.307688236236572266 -0.0435953587293624878 0.112295672297477722
-0.033605821430683136 -0.0537662394344806671 -0.127280920743942261
0.694984138011932373 0.0487553663551807404 0.0064051356166601181
0.843617081642150879 0.0174921955913305283 0.022953106090426445
-0.277778059244155884 -0.0479489751160144806 0.160965606570243835
-0.248469159007072449 -0.0138298124074935913 0.215599089860916138
0.730811178684234619 0.0381512828171253204 -0.0116547346115112305
-0.288215219974517822 -0.0407981611788272858 0.0815929695963859558
-0.310976266860961914 0.0182883851230144501 0.122025318443775177
0.53037947416305542 0.0262607168406248093 -0.0190531983971595764
-0.181837677955627441 0.0504421070218086243 -0.00242634909227490425
0.931546568870544434 -0.0516674704849720001 -0.034573141485452652
-0.154581576585769653 0.0184095799922943115 0.16205538809299469
-0.141956701874732971 0.0149098699912428856 0.00563008803874254227
-0.230448856949806213 0.0379190146923065186 0.0330191925168037415
-0.503817915916442871 -0.0429452545940876007 0.263946175575256348
0.377375632524490356 0.0114936064928770065 0.0265835225582122803
0.635541856288909912 0.00928006879985332489 -0.0367712937295436859
0.0496417544782161713 -0.0324339121580123901 0.07824668288230896
-0.62600409984588623 -0.025395955890417099 0.269112944602966309
0.414341598749160767 -0.00761284027248620987 -0.0211624130606651306
-0.126169174909591675 -0.0480407625436782837 0.176772728562355042
-0.155954420566558838 0.0291490126401185989 0.160565346479415894
-0.213538199663162231 -0.0554833933711051941 -0.0237458571791648865
-0.321939557790756226 0.0135110858827829361 0.172818019986152649
0.16654735803604126 0.0505581274628639221 0.0194915588945150375
0.039421573281288147 0.0191430691629648209 0.0268768630921840668
0.172079205513000488 -0.018706517294049263 -0.0134984385222196579
-0.100958444178104401 0.0541846640408039093 -0.0152243273332715034
-0.0872315913438796997 0.0233800765126943588 0.144587352871894836
0.0385530441999435425 0.0132701992988586426 -0.00791759137064218521
0.738461613655090332 0.0291004758328199387 0.0565246343612670898
0.126649439334869385 -0.0433925352990627289 -0.0451597198843955994
-0.0762296691536903381 -0.0407714173197746277 0.0572594739496707916
-0.581269145011901855 -0.00209395145066082478 0.274451494216918945
0.221831962466239929 0.0299518276005983353 -0.0133783742785453796
-0.595949172973632812 -0.0514588281512260437 0.247315168380737305
0.574706494808197021 0.0319927893579006195 -0.0172257628291845322
0.568840146064758301 0.0301142279058694839 -0.0260355193167924881
-0.13429512083530426 0.0275410134345293045 0.00888320431113243103
0.0188157688826322556 0.0238973721861839294 0.0459709949791431427
0.628068983554840088 0.0394680909812450409 -0.0268433652818202972
0.127305060625076294 -0.0208675917237997055 0.0401822403073310852
-0.189640238881111145 -0.0385369174182415009 0.196123033761978149
0.279245465993881226 0.033799879252910614 -0.0385546684265136719
0.895662128925323486 -0.0476844236254692078 0.0328440256416797638
-0.029117124155163765 0.0210148822516202927 -0.0432343706488609314
0.15063263475894928 0.016561947762966156 0.0145592167973518372
-0.436215460300445557 -0.0421440526843070984 0.195340156555175781
0.827581882476806641 0.00229260302148759365 -0.0327825210988521576
-0.1485576331615448 0.0132854701951146126 0.0323096662759780884
0.0875819772481918335 0.0415574796497821808 -0.0108292866498231888
0.0230352040380239487 0.0416052602231502533 -0.0225600376725196838
0.355178385972976685 0.0373409353196620941 0.0312831886112689972
-0.316409200429916382 -0.0425904318690299988 0.245984971523284912
0.648453891277313232 0.0250680353492498398 0.0395393818616867065
-0.376471966505050659 0.0126611115410923958 0.112398885190486908
0.696644425392150879 0.0401596687734127045 0.0312022902071475983
0.74479752779006958 0.0377433411777019501 0.0305317360907793045
-0.329783499240875244 0.0323419496417045593 0.147119283676147461
0.443945050239562988 0.0412587746977806091 -0.0184542331844568253
0.817453682422637939 0.0167280454188585281 0.0340336747467517853
-0.476079553365707397 0.032021254301071167 0.178458988666534424
0.233082190155982971 0.0336963534355163574 -0.0119818840175867081
-0.130561366677284241 0.0120764002203941345 -0.0185451693832874298
0.846412897109985352 0.0427432246506214142 -0.0405275523662567139
0.701331794261932373 0.0193403307348489761 -0.0276292432099580765
