ply
format ascii 1.0
element vertex 717
property float x
property float y
property float z
end_header
-0.0418943464756011963 -0.00914112292230129242 -0.05711350217461586
-0.023560723289847374 -0.0323633961379528046 -0.11769597977399826
0.155732914805412292 0.0145688271149992943 0.169182926416397095
0.113723792135715485 -0.0161723960191011429 -0.0591863207519054413
0.520379602909088135 0.0139587810263037682 -0.0112980939447879791
-0.0247850287705659866 -0.0155494548380374908 -0.0440820753574371338
-0.250391840934753418 -0.0175424069166183472 -0.178322121500968933
0.0596421733498573303 0.0233502555638551712 0.0141750620678067207
0.413084119558334351 0.00558539200574159622 0.0559794306755065918
-0.0673414245247840881 0.0200204383581876755 0.00944169145077466965
0.0800896808505058289 -0.0234137605875730515 -0.0606214851140975952
0.0585252419114112854 0.00789566803723573685 0.175400480628013611
-0.0350693650543689728 -0.0214791111648082733 0.113004580140113831
0.228284448385238647 0.0141867268830537796 0.0314009860157966614
0.484995245933532715 0.0223436560481786728 -0.0386384055018424988
-0.223135724663734436 0.024203447625041008 -0.183660626411437988
-0.00750937033444643021 -0.0165384989231824875 -0.0307311825454235077
-0.110099256038665771 -0.0170466527342796326 0.0428993329405784607
-0.104338690638542175 0.0167431514710187912 0.0772741660475730896
0.369467824697494507 -0.00256867497228085995 -0.0122518120333552361
-0.0970067679882049561 0.0194156449288129807 0.0437515191733837128
-0.0935658961534500122 -0.0234546307474374771 0.172958046197891235
0.112067423760890961 0.00583797367289662361 0.0124976588413119316
0.0596049018204212189 -0.0154897021129727364 0.0566253028810024261
-0.00949297752231359482 -0.0247160512953996658 0.134610339999198914
-0.130872100591659546 -0.026010880246758461 0.114282265305519104
0.130302265286445618 0.0124112349003553391 0.0384377576410770416
0.848779261112213135 -0.00715340767055749893 -0.0511146485805511475
0.906612873077392578 -0.0280631110072135925 -0.00797227956354618073
-0.110541552305221558 0.00302500813268125057 -0.0284137409180402756
-0.0577376633882522583 -0.0277199540287256241 0.0774847939610481262
-0.233814075589179993 -0.0298649556934833527 -0.198891445994377136
0.811190485954284668 0.00361857051029801369 0.00339383608661592007
0.849344730377197266 0.00927316956222057343 -0.0231248233467340469
-0.0801529958844184875 0.0329069271683692932 -0.0468669496476650238
-0.188279867172241211 0.0145459370687603951 -0.105727232992649078
0.069931812584400177 -0.00242919335141777992 -0.0721923708915710449
-0.0198973491787910461 0.0013156551867723465 0.00158909254241734743
0.027429560199379921 0.0175076518207788467 -0.177586853504180908
0.0274785403162240982 0.0187565870583057404 -0.0966980978846549988
0.0889242514967918396 0.014481566846370697 -0.0147632034495472908
0.086302340030670166 0.0090956762433052063 -0.0945389419794082642
-0.171830475330352783 -0.0159327741712331772 -0.0526207983493804932
0.103759706020355225 0.0312935225665569305 -0.219677001237869263
0.862803280353546143 -0.0234761349856853485 0.00156132527627050877
0.191782534122467041 -0.00199532881379127502 0.0208134874701499939
0.0184447262436151505 0.0245839022099971771 0.119900353252887726
0.254797071218490601 0.0278086178004741669 0.0235372744500637054
0.209269627928733826 0.0191953647881746292 0.159188911318778992
-0.132713034749031067 -0.0173803325742483139 0.0661680698394775391
-0.0652007460594177246 0.0197697505354881287 0.00649175094440579414
0.255036115646362305 0.0286885090172290802 -0.0178850721567869186
0.0621442496776580811 0.0264718513935804367 0.031549554318189621
0.151743307709693909 -0.0142281707376241684 -0.0250031426548957825
-0.0519799403846263885 0.0248574186116456985 0.135326966643333435
0.024649154394865036 0.0278012547641992569 -0.198711216449737549
-0.138137951493263245 0.0109836095944046974 0.164469256997108459
0.213000670075416565 -0.0306384023278951645 0.183508753776550293
-0.206138953566551208 -0.0366081297397613525 -0.200792863965034485
-0.0323254652321338654 0.0159991905093193054 -0.173616871237754822
-0.00648881075903773308 -0.0142324706539511681 0.114929050207138062
-0.183763518929481506 -0.0428552888333797455 -0.152817308902740479
0.149661719799041748 0.0124653549864888191 0.027826014906167984
-0.161589756608009338 0.010932297445833683 -0.128286853432655334
0.771168291568756104 0.027669563889503479 0.0192109402269124985
0.0113285873085260391 0.0175624042749404907 -0.155249685049057007
-0.120751500129699707 -0.0132291018962860107 -0.106906674802303314
-0.124871283769607544 -0.0202013328671455383 0.153402402997016907
-0.0276812184602022171 -0.0231785066425800323 0.131845176219940186
-0.103279754519462585 0.0119813736528158188 0.173864483833312988
0.0602641589939594269 0.0109578343108296394 0.153245314955711365
0.484369397163391113 0.00688010174781084061 -0.016690477728843689
-0.00433277804404497147 -0.0297004189342260361 0.0111129414290189743
0.00271226326003670692 -0.00146673806011676788 -0.0377424545586109161
0.551247537136077881 -0.00136293692048639059 0.00769929308444261551
-0.0454680696129798889 -0.0239531360566616058 -0.153196394443511963
0.0826040282845497131 -0.0207467805594205856 -0.191696092486381531
-0.147054910659790039 -0.0172213334590196609 0.185924291610717773
-0.0325342565774917603 -0.0191522073000669479 -0.169035926461219788
-0.0758058205246925354 0.0083754928782582283 -0.0136374970898032188
0.241791963577270508 -0.0151518099009990692 0.170662924647331238
0.364674001932144165 0.0182805489748716354 -0.0147250834852457047
0.0756807774305343628 -0.0343718081712722778 -0.0431492067873477936
-0.227129608392715454 -0.0104383714497089386 -0.227065756916999817
0.279653429985046387 0.015692809596657753 -0.0272455886006355286
0.803508222103118896 0.00444460893049836159 -0.0479527600109577179
0.356000661849975586 -0.0104535184800624847 -0.0119292624294757843
0.5644378662109375 0.00752047635614871979 -0.0345624387264251709
0.130081698298454285 -0.000336547556798905134 0.0818563997745513916
0.0554302409291267395 -0.0206051953136920929 -0.0292531941086053848
0.0408692769706249237 0.0214184224605560303 0.0365101061761379242
0.737562298774719238 0.0137546192854642868 0.018489886075258255
0.056556016206741333 -0.0106980893760919571 -0.0671606212854385376
-0.0271329842507839203 -0.0152246924117207527 0.0502812974154949188
0.088075980544090271 -0.0163427963852882385 0.120182499289512634
0.49355316162109375 0.0176798459142446518 0.0276214145123958588
-0.070505581796169281 0.0192969124764204025 0.0531353950500488281
0.161161035299301147 -0.00559925474226474762 -0.0522327050566673279
-0.150661841034889221 0.0115701518952846527 0.00949337147176265717
-0.0708797350525856018 0.0193097405135631561 0.0079333428293466568
0.273999512195587158 0.0146660134196281433 -0.0416111201047897339
0.691895186901092529 -0.00371429510414600372 -0.00355691742151975632
-0.203751727938652039 0.018871476873755455 0.0655127391219139099
0.22260361909866333 0.0267164241522550583 -0.0360244736075401306
-0.102047234773635864 -0.0360748171806335449 0.120050698518753052
0.209442317485809326 -0.0125488610938191414 0.199399396777153015
0.0546447187662124634 -0.0195765849202871323 -0.129809513688087463
-0.154310360550880432 -0.01647193543612957 -0.100489087402820587
-0.156173184514045715 -0.00485370820388197899 -0.0161714963614940643
0.0719165876507759094 -0.0145158106461167336 -0.0392117761075496674
0.219822943210601807 0.0123675158247351646 0.0195899847894906998
0.0541743934154510498 0.0253816787153482437 -0.206796735525131226
-0.124845735728740692 0.00792338233441114426 0.105510994791984558
-0.157327264547348022 0.0207555703818798065 -0.115101009607315063
0.0943445935845375061 0.00864911079406738281 -0.209659174084663391
-0.150722414255142212 0.0108120469376444817 0.00272698979824781418
-0.118047140538692474 -0.0296560116112232208 -0.149628087878227234
-0.0230265986174345016 0.0111204357817769051 -0.047492489218711853
0.691653192043304443 0.00174773554317653179 -0.0166826695203781128
-0.199314087629318237 0.0202003531157970428 0.00475078821182250977
-0.242835536599159241 0.0210834406316280365 -0.216260477900505066
0.708286821842193604 -0.00561820901930332184 -0.028949785977602005
0.392617613077163696 0.0379153415560722351 -0.013381381519138813
-0.00740791670978069305 0.0206023659557104111 -0.0153956664726138115
0.105983175337314606 0.022637469694018364 0.0184582918882369995
-0.173757210373878479 -0.00500291166827082634 0.115833587944507599
0.190176263451576233 0.0069053242914378643 0.143436655402183533
0.12331826239824295 -0.0156470127403736115 -0.0666723847389221191
0.128222867846488953 -0.0032163343857973814 -0.00484378263354301453
0.0845551565289497375 0.0171551629900932312 0.204226046800613403
0.361941874027252197 0.00725977867841720581 0.0110845742747187614
0.108666457235813141 -0.0138772418722510338 -0.00839229300618171692
0.149910569190979004 -0.0229563228785991669 0.120208859443664551
-0.226980045437812805 -0.0145942773669958115 -0.217067211866378784
-0.14059130847454071 0.0337518863379955292 -0.0424777939915657043
0.530474483966827393 0.0180950388312339783 0.000643210543785244226
0.0913957208395004272 -0.0148214371874928474 0.14524368941783905
-0.143773600459098816 -0.00432343222200870514 -0.0372796952724456787
-0.168679520487785339 -0.019057098776102066 -0.171340972185134888
0.0324993804097175598 -0.000121972021588589996 0.180852651596069336
0.170286297798156738 0.0361096411943435669 0.0239720996469259262
-0.153640374541282654 0.0110085541382431984 0.0589716695249080658
-0.0912987515330314636 0.0234906822443008423 -0.134061634540557861
-0.0505064763128757477 0.0143983913585543633 0.0488022007048130035
0.893424510955810547 -0.0370734855532646179 -0.0066104792058467865
0.367810696363449097 -0.0047948760911822319 -0.016295362263917923
-0.0191276110708713531 0.00483005866408348083 -0.147509753704071045
0.108007967472076416 0.00941345654428005219 0.117428995668888092
-0.141178220510482788 -0.0167944282293319702 -0.0177516937255859375
0.0471287593245506287 -0.0346106439828872681 0.10011831670999527
0.0546133965253829956 -0.0147545076906681061 -0.12489057332277298
0.104156844317913055 0.00374415121041238308 -0.0563376061618328094
0.00209032814018428326 0.0194872058928012848 -0.141540735960006714
0.0300036370754241943 0.0186796616762876511 -0.200160607695579529
0.526234447956085205 0.0297513063997030258 0.0338283292949199677
-0.231854408979415894 0.0143325300887227058 -0.143767237663269043
-0.152929559350013733 0.0141816800460219383 0.190580561757087708
0.577346146106719971 0.0107340170070528984 0.00315285311080515385
-0.0236023683100938797 -0.0234805084764957428 0.129949212074279785
0.834553658962249756 -0.0412766784429550171 -0.0461931973695755005
0.137559667229652405 0.0123108606785535812 -0.15862119197845459
-0.0445315353572368622 0.0218632947653532028 -0.17599661648273468
0.0379058718681335449 0.0137324174866080284 -0.0737020671367645264
0.208012223243713379 -0.0100138932466506958 0.193711116909980774
0.035467199981212616 -0.0103381620720028877 0.0914885550737380981
0.0904543325304985046 0.0207443740218877792 -0.216171994805335999
-0.0993213653564453125 0.00485499482601881027 -0.00600655842572450638
0.262034982442855835 0.00433595571666955948 0.0345464497804641724
-0.140180468559265137 0.0169513747096061707 0.165741279721260071
-0.194514095783233643 -0.0224679876118898392 0.0958740189671516418
-0.0120165850967168808 -0.0432252027094364166 -0.0903126969933509827
0.732486426830291748 0.0264328718185424805 0.011565876193344593
0.0206991098821163177 0.0238196682184934616 0.038750816136598587
0.0128552941605448723 0.0120331253856420517 -0.17571943998336792
-0.0466496534645557404 0.0101496027782559395 0.0120312003418803215
0.509947597980499268 -0.0193653851747512817 -0.0417179875075817108
-0.0447918958961963654 -0.0118369385600090027 -0.120099328458309174
-0.0109384553506970406 -0.00116732832975685596 -0.0311837010085582733
0.0729960799217224121 -0.0256754737347364426 0.106816679239273071
-0.103852517902851105 -0.00232402398250997066 0.036732405424118042
0.200531899929046631 -0.0228627212345600128 0.192313194274902344
0.17043420672416687 -0.0104841636493802071 -0.0435251928865909576
-0.0394477210938930511 0.000337413977831602097 0.0457885079085826874
-0.0944004654884338379 0.0286200661212205887 0.0539316274225711823
0.836148381233215332 -0.0426265746355056763 -0.00257638539187610149
0.158664897084236145 -0.0116540705785155296 0.112629815936088562
-0.124764546751976013 0.00054981582798063755 0.0220381803810596466
-0.175665661692619324 -0.00582135934382677078 -0.0466916263103485107
0.0210739467293024063 0.0185079090297222137 -0.138237819075584412
0.00466436753049492836 0.0473832003772258759 0.0480661503970623016
-0.104367062449455261 0.011389508843421936 0.155446484684944153
-0.0872111842036247253 -0.00829927157610654831 -0.0103482585400342941
0.0124764330685138702 -0.0270444042980670929 -0.0421340130269527435
-0.155734524130821228 0.0072411559522151947 -0.0220649559050798416
-0.11364271491765976 -0.0225123465061187744 0.144858017563819885
0.105317652225494385 -0.0110699106007814407 -0.013898913748562336
0.000319937913445755839 -0.0079769352450966835 -0.0415172390639781952
0.819712042808532715 -0.0149052655324339867 -0.0399896875023841858
0.0309865828603506088 0.0145300477743148804 -0.0635455399751663208
-0.137197986245155334 -0.00325790327042341232 0.0166387129575014114
0.0593766681849956512 -0.0334721989929676056 0.113073423504829407
-0.157210871577262878 -0.0225534029304981232 -0.0292343143373727798
-0.217694222927093506 -0.033890504390001297 -0.0752309858798980713
0.128573670983314514 -0.000216172906220890582 -0.17372739315032959
0.260211706161499023 -0.00196681404486298561 0.00791773758828639984
0.367059856653213501 -0.00193297048099339008 -0.0378255359828472137
-0.087489984929561615 -0.0187327954918146133 -0.0559451058506965637
-0.134849563241004944 -0.0102580804377794266 0.00800764374434947968
-0.100313782691955566 0.00892120692878961563 0.138477608561515808
0.0883509218692779541 0.0278985016047954559 0.13355526328086853
0.0407658442854881287 0.0161041226238012314 0.106468237936496735
0.939675211906433105 -0.0322468876838684082 0.0578101165592670441
0.200590923428535461 -0.0233393870294094086 0.192587330937385559
0.139579087495803833 0.015561186708509922 -0.194511130452156067
-0.085806526243686676 -0.0195086579769849777 0.137321725487709045
0.0506655536592006683 0.00888472888618707657 -0.114983402192592621
0.215905472636222839 0.011865418404340744 0.178299978375434875
0.105622909963130951 -0.0192895885556936264 -0.0487614311277866364
-0.179954081773757935 0.030903862789273262 0.0230540968477725983
0.506402969360351562 0.00575253088027238846 -0.0391951613128185272
-0.0121769551187753677 -0.0296524297446012497 -0.0623965412378311157
-0.204884514212608337 0.0216579344123601913 -0.0970245525240898132
0.954706192016601562 -0.0473343878984451294 0.0423410162329673767
-0.0881489068269729614 -0.0343180559575557709 0.0862943902611732483
0.0053342101164162159 -0.0312275402247905731 0.10961662232875824
-0.0483407974243164062 -0.0345152691006660461 0.00392068177461624146
0.0443241260945796967 -0.0222986023873090744 -0.147056743502616882
-0.0247708763927221298 -0.0249347500503063202 0.1119571253657341
-0.116837970912456512 -0.0107176704332232475 -0.116145320236682892
-0.153953850269317627 0.0237487740814685822 0.0110621368512511253
-0.0685144290328025818 0.0168474428355693817 0.0692639350891113281
-0.227237462997436523 0.0367570854723453522 -0.0822131633758544922
0.0294303242117166519 -0.0137763619422912598 -0.00756649300456047058
0.0226118545979261398 -0.0275600645691156387 -0.154993712902069092
0.107460923492908478 0.0167880412191152573 0.0135414907708764076
0.0518608801066875458 0.0231288596987724304 -0.158104047179222107
-0.142883166670799255 0.0284961946308612823 -0.136559247970581055
-0.174210131168365479 0.0191077888011932373 -0.201664254069328308
-0.180313527584075928 0.000417109840782359242 0.152827158570289612
-0.144203215837478638 0.000374275405192747712 0.1924305260181427
0.0127829750999808311 -0.0431991629302501678 -0.00235814624466001987
-0.0694781690835952759 -0.00373316672630608082 0.0313509553670883179
0.537191808223724365 0.0273633673787117004 0.0462307147681713104
-0.149480774998664856 0.00753824040293693542 0.0844506025314331055
0.179250970482826233 -0.0222957227379083633 0.125866308808326721
-0.0952277332544326782 -0.0371069572865962982 -0.0715979710221290588
0.0847123786807060242 -0.0255747232586145401 -0.0895348265767097473
0.0107370186597108841 -0.0352594032883644104 0.163830593228340149
-0.142769604921340942 0.0241129081696271896 -0.152870938181877136
-0.0123130772262811661 0.011737532913684845 0.0210392344743013382
0.10324908047914505 -0.00661004148423671722 -0.214750289916992188
0.0197555311024188995 -0.0029591158963739872 -0.0282486472278833389
0.107740715146064758 -0.0057572266086935997 0.0356206744909286499
0.812014639377593994 0.00640528788790106773 -0.00252746162004768848
0.132250979542732239 0.0143913747742772102 0.10299459844827652
-0.250488728284835815 0.0175910759717226028 -0.147171124815940857
-0.109643436968326569 0.0281966831535100937 0.0137977655977010727
0.0209055300801992416 0.0305119920521974564 -0.0186362694948911667
-0.080872751772403717 0.0256989412009716034 -0.0809502080082893372
-0.025249965488910675 -0.00986373331397771835 -0.155301764607429504
0.117869123816490173 -0.0295649487525224686 -0.0163265839219093323
0.0855425149202346802 0.000517314823810011148 -0.0475129485130310059
0.00307393679395318031 0.0311725158244371414 0.101383417844772339
0.60571819543838501 0.00972399581223726273 -0.0405408889055252075
0.127538159489631653 0.0140795726329088211 -0.195604115724563599
0.149240761995315552 -0.0206696800887584686 0.169157847762107849
-0.165943548083305359 0.0121878944337368011 0.0279439631849527359
0.453034490346908569 0.0218434818089008331 0.0202024616301059723
0.162628695368766785 0.0278102513402700424 -0.048768162727355957
0.0584985129535198212 0.00252254796214401722 -0.0185751896351575851
-0.0192796867340803146 0.0027353307232260704 -0.0118551468476653099
-0.0333727225661277771 0.0308465193957090378 0.0443306267261505127
0.446639358997344971 -0.000458248221548274159 -0.0123341744765639305
0.15600191056728363 0.0154298003762960434 0.175140470266342163
-0.202409446239471436 0.000395677488995715976 -0.191075965762138367
0.2871723473072052 0.0181083567440509796 0.0113981850445270538
-0.169903457164764404 0.0375873483717441559 0.00556296529248356819
0.0487069524824619293 -0.0406986810266971588 0.00650959322229027748
-0.205289140343666077 0.0314379483461380005 0.0250872578471899033
0.603623151779174805 0.022687787190079689 0.0289326421916484833
0.223677113652229309 0.0336381867527961731 0.0173325967043638229
-0.220317050814628601 -0.0309424325823783875 -0.23163682222366333
0.120971895754337311 0.00737030385062098503 -0.0433601588010787964
-0.018271375447511673 -0.0279815886169672012 -0.012586480937898159
0.0222169943153858185 -0.00538214156404137611 0.0480755753815174103
-0.181052014231681824 -0.0328644439578056335 -0.048238709568977356
-0.0100614652037620544 -0.0114125525578856468 0.0283014737069606781
0.349046826362609863 0.0060841413214802742 -0.00695996591821312904
0.379914730787277222 0.00192882376722991467 -0.0191320106387138367
-0.068963073194026947 -0.00732231652364134789 -0.0834747180342674255
0.345406979322433472 0.0212038718163967133 -0.00952907558530569077
0.215524017810821533 0.00635188817977905273 0.159442618489265442
0.00812293961644172668 0.0100093912333250046 -0.00757212284952402115
0.800151348114013672 0.000465903256554156542 -0.0136312711983919144
-0.259151041507720947 0.0209229234606027603 -0.166024655103683472
0.943907976150512695 -0.045688435435295105 0.0291809346526861191
0.246061667799949646 0.0403122790157794952 0.175351336598396301
0.400246024131774902 0.0237488243728876114 0.0130979986861348152
0.0599716454744338989 -0.0035703880712389946 0.168541088700294495
0.140304327011108398 -0.0488227233290672302 0.184054091572761536
-0.0104210348799824715 0.0161191672086715698 -0.103078410029411316
0.997082293033599854 -0.0527985468506813049 0.0322709754109382629
0.165643036365509033 -0.000843543733935803175 0.0106997471302747726
-0.0712022110819816589 -0.0136697795242071152 0.0923566669225692749
-0.0646005868911743164 0.0279825348407030106 -0.122137732803821564
0.182321518659591675 -0.0280280858278274536 0.161586388945579529
0.584461629390716553 0.00177996023558080196 -0.0408367328345775604
-0.0748617574572563171 -0.0172537080943584442 0.0440761148929595947
0.695433080196380615 -0.0205982550978660583 -0.00707383360713720322
-0.133424386382102966 0.0423514582216739655 -0.0182784460484981537
0.72662806510925293 -0.0177562553435564041 -0.0208135992288589478
0.96367180347442627 -0.0463930852711200714 0.0529332421720027924
-0.0124897770583629608 0.0160722807049751282 -0.164124637842178345
-0.00707205664366483688 0.0313451848924160004 0.0309351030737161636
0.396622717380523682 0.0249622594565153122 -0.0397237725555896759
-0.0547497160732746124 -0.00766312936320900917 0.106761142611503601
-0.171560779213905334 0.0176099445670843124 -0.0370591767132282257
0.368785560131072998 0.00441688532009720802 0.00700041931122541428
-0.150055721402168274 -0.00376680819317698479 -0.0520349107682704926
0.632010519504547119 0.0132607119157910347 -0.00868459790945053101
0.210988223552703857 -0.0357610099017620087 0.140729889273643494
0.829855561256408691 0.0142326569184660912 -0.0178063102066516876
0.0908800885081291199 -0.00542765203863382339 0.0968955680727958679
0.798600852489471436 0.0174898635596036911 -0.0242788344621658325
-0.0906092450022697449 0.017781844362616539 -0.0291869118809700012
0.717933475971221924 -0.000800864771008491516 -0.0345074832439422607
-0.142411068081855774 0.019671265035867691 0.190251871943473816
-0.219850748777389526 0.00792728085070848465 -0.14828045666217804
0.937672257423400879 -0.0470362007617950439 0.0667660534381866455
0.326724767684936523 0.0115335183218121529 -0.0349768772721290588
0.12359301745891571 -0.0085232127457857132 0.0351461730897426605
-0.190238133072853088 -0.00907944701611995697 0.0146137969568371773
-0.053079213947057724 0.0138157429173588753 0.0345829799771308899
-0.174179330468177795 -0.022154076024889946 0.0572200305759906769
-0.089937061071395874 -0.0164464786648750305 -0.0737125352025032043
0.795928597450256348 -0.0193205829709768295 -0.0515356287360191345
-0.178578406572341919 0.0127048054710030556 0.0852740481495857239
0.0650617778301239014 0.0169364083558320999 0.155125156044960022
0.958509624004364014 -0.0282267872244119644 0.0898839160799980164
0.214832141995429993 0.0164243858307600021 0.179297000169754028
0.661914348602294922 0.0116583053022623062 -0.014231768436729908
0.344238907098770142 0.0110513241961598396 -0.0419603362679481506
0.243751555681228638 0.00798868387937545776 -0.0193348526954650879
0.132441714406013489 0.014696810394525528 0.0811225473880767822
0.779035747051239014 0.00500305322930216789 0.0217952169477939606
0.0627409964799880981 0.0238416418433189392 -0.0425299033522605896
0.388419359922409058 0.0168452039361000061 0.0357530340552330017
-0.128280758857727051 0.00436604348942637444 0.0761275887489318848
0.190900132060050964 0.0076523609459400177 -0.0215713754296302795
-0.0300342962145805359 0.0102391783148050308 -0.0999160036444664001
-0.208723530173301697 0.0118589596822857857 -0.132760420441627502
0.122636139392852783 -0.00468818750232458115 -0.0344996899366378784
-0.0262874141335487366 -0.0178687646985054016 -0.0433479398488998413
0.496486306190490723 0.00840532407164573669 0.012574927881360054
-0.132669821381568909 0.0132687771692872047 0.104051768779754639
-0.150822624564170837 0.00778432562947273254 0.0210979040712118149
-0.147259220480918884 0.0282239671796560287 -0.07421845942735672
0.543100893497467041 0.0379768684506416321 -0.0260693635791540146
0.204426631331443787 -0.00119962147437036037 -0.0253901183605194092
1.00000500679016113 -0.0467102043330669403 0.0830186530947685242
0.090941108763217926 -0.00618996843695640564 0.0281123500317335129
0.139622241258621216 -0.025066053494811058 0.110902704298496246
-0.0877500846982002258 -0.0185468196868896484 0.0176532957702875137
0.301348328590393066 0.0115933846682310104 -0.0419746600091457367
-0.0293933302164077759 -0.0339039228856563568 0.0589556097984313965
0.854044258594512939 -0.0196545403450727463 0.0343808308243751526
-0.109211236238479614 0.0604464262723922729 -0.170923575758934021
0.141387760639190674 -0.00996049493551254272 -0.155928909778594971
0.0163176394999027252 -0.0372766293585300446 -0.0180194266140460968
0.428654462099075317 -0.00507245725020766258 0.0221784710884094238
-0.0158687178045511246 0.0117750214412808418 0.117789335548877716
-0.198618039488792419 0.011022297665476799 -0.154992863535881042
-0.213808014988899231 -0.0210686791688203812 -0.0417363829910755157
-0.227713853120803833 0.00749853393062949181 -0.109268046915531158
-0.177506089210510254 0.0270800888538360596 -0.0121239777654409409
0.106599234044551849 -0.00381120271049439907 -0.139891400933265686
-0.0974186733365058899 -0.0356498770415782928 0.140885069966316223
-0.0143014891073107719 0.0345137640833854675 -0.173070460557937622
-0.228774532675743103 -0.0129048833623528481 -0.2233743816614151
0.122067511081695557 0.0210585836321115494 0.139470338821411133
0.670426726341247559 0.00139720144215971231 0.00536130368709564209
-0.078199043869972229 0.00470306165516376495 -0.155099764466285706
0.808205664157867432 0.0252702049911022186 -0.0791805759072303772
0.453568875789642334 0.0104559753090143204 -0.0424706935882568359
-0.14811117947101593 -0.0105097666382789612 0.0377418547868728638
0.0289484448730945587 -0.0259157903492450714 -0.100862249732017517
0.191160425543785095 -0.0191447660326957703 0.0349250137805938721
0.754006803035736084 7.01418030075728893e-05 -0.00961575843393802643
-0.059575594961643219 0.0191460270434617996 0.154684260487556458
-0.181553512811660767 0.0189724843949079514 -0.145005613565444946
-0.0283781532198190689 0.0233553871512413025 -0.104446575045585632
0.110806897282600403 0.00123133359011262655 0.0202903598546981812
0.119579479098320007 0.00689569069072604179 0.0397857613861560822
0.0898571088910102844 -0.0211659260094165802 0.199302494525909424
0.209955751895904541 -0.0169983860105276108 0.170823708176612854
-0.0361109934747219086 0.0052839214913547039 0.0386870726943016052
0.815963625907897949 -0.00438224058598279953 -0.0605696029961109161
0.0525712892413139343 0.022431815043091774 0.0110021987929940224
-0.143782377243041992 -0.0348019078373908997 0.17156904935836792
0.108701504766941071 -0.00947280600666999817 0.0678420141339302063
-0.210842832922935486 0.0097959078848361969 -0.179299250245094299
-0.100856028497219086 -0.0290178209543228149 -0.139693543314933777
-0.0441725477576255798 0.0268372707068920135 0.157437145709991455
-0.00389516539871692657 0.0152456257492303848 0.13837742805480957
0.236075058579444885 0.0294275209307670593 0.148878112435340881
0.243864670395851135 0.0390905104577541351 0.137379929423332214
-0.00232590222731232643 -0.0485473796725273132 0.0422767885029315948
0.824390947818756104 -0.0203096400946378708 -0.0103844618424773216
0.236063390970230103 0.00911701563745737076 0.176320075988769531
0.645091414451599121 -0.0101533848792314529 -0.0355397425591945648
0.808269202709197998 -0.00646404456347227097 0.0208161976188421249
0.0199033245444297791 0.00903467275202274323 0.148360371589660645
-0.077858269214630127 0.0235802400857210159 0.0753220543265342712
0.893146038055419922 -0.00692946696653962135 0.041620008647441864
0.179435014724731445 0.00231593800708651543 0.00476552778854966164
0.831349313259124756 0.0287913531064987183 -0.0598152279853820801
0.00999392289668321609 0.0239915382117033005 0.119470320641994476
-0.17344684898853302 0.00741206621751189232 -0.163329616189002991
0.73527061939239502 0.0112173156812787056 0.0217782072722911835
-0.127945095300674438 0.0160580147057771683 0.0189035292714834213
-0.246128097176551819 -0.00309952790848910809 -0.234177127480506897
-0.122182480990886688 -0.0201733261346817017 -0.110441677272319794
-0.0078012244775891304 -0.0217292793095111847 0.0473498329520225525
-0.197975963354110718 0.0064935712143778801 -0.0797148793935775757
0.489568501710891724 -0.00209786510095000267 0.0104735847562551498
0.552492737770080566 0.0217979233711957932 0.00868989527225494385
0.0305258911103010178 -0.0295115243643522263 -0.189834862947463989
-0.100320637226104736 -0.0244847889989614487 -0.00543080316856503487
-0.0240752585232257843 -0.00520895235240459442 -0.167232692241668701
-0.137849375605583191 0.0252725817263126373 -0.0544797331094741821
-0.168466448783874512 0.0121061084792017937 0.0188313238322734833
0.893648207187652588 -0.0290289521217346191 0.0398323275148868561
0.405348718166351318 0.0239259898662567139 -0.0346474461257457733
0.684916973114013672 0.0270465314388275146 -0.00965263042598962784
0.0235141441226005554 0.0185189917683601379 0.0321921110153198242
0.781924247741699219 0.0202836468815803528 -0.0198836233466863632
0.193764910101890564 -0.00855743791908025742 0.0201013330370187759
-0.0125286728143692017 0.0110175861045718193 -0.138361811637878418
-0.233090221881866455 0.00396442878991365433 -0.217988878488540649
-0.0685730203986167908 0.00784277450293302536 0.0743593126535415649
-0.0707588270306587219 -0.013276948593556881 0.150306016206741333
0.86668241024017334 -0.0220991931855678558 -0.0187955200672149658
-0.119834199547767639 -0.023475276306271553 -0.171664252877235413
-0.218530058860778809 -0.000657514261547476053 -0.183936625719070435
-0.238554894924163818 0.0230564624071121216 -0.203975796699523926
0.106147259473800659 -0.0066356356255710125 -0.170415252447128296
-0.00876619108021259308 0.0121401138603687286 0.0368579588830471039
-0.212500885128974915 0.024535374715924263 -0.0909643322229385376
0.00396405672654509544 0.0282230395823717117 0.00756931398063898087
-0.101762093603610992 0.0157721322029829025 -0.124153256416320801
0.0713839754462242126 0.0321264639496803284 0.120393291115760803
-0.134611546993255615 -0.0385106392204761505 -0.0904735997319221497
0.156825751066207886 0.00563865853473544121 -0.0325233861804008484
0.254038333892822266 0.00237830495461821556 0.00688909972086548805
0.285935580730438232 0.0171010661870241165 -0.00465125730261206627
0.0111291641369462013 0.0379775390028953552 -0.1927947998046875
0.115674257278442383 0.010679248720407486 -0.158689409494400024
-0.197869807481765747 0.00390358408913016319 -0.0156908575445413589
0.752115547657012939 0.000793249462731182575 0.014861096628010273
-0.0411662012338638306 -0.034926682710647583 0.060070384293794632
0.311440140008926392 0.000336998258717358112 0.0282422900199890137
0.128211796283721924 -0.0283905863761901855 0.17539215087890625
-0.139384552836418152 0.00853844825178384781 0.0115280505269765854
0.883647382259368896 -0.0258172750473022461 0.0232262499630451202
-0.0924247056245803833 0.00661680148914456367 0.164844691753387451
0.885872602462768555 -0.00108517962507903576 0.00828107446432113647
-0.113311529159545898 0.0408386029303073883 0.00424571195617318153
0.780768215656280518 -0.00385041977278888226 -0.00264930236153304577
0.935824573040008545 -0.0497778952121734619 0.029986189678311348
0.821577012538909912 -0.0219229981303215027 0.00387318339198827744
0.787924587726593018 0.00416827155277132988 0.0149072799831628799
0.491800308227539062 0.0160288289189338684 -0.0204921439290046692
0.0926821902394294739 -0.0209000371396541595 0.0827290639281272888
0.221695616841316223 0.0132150892168283463 0.13273446261882782
0.743830025196075439 0.0157659929245710373 0.00792684685438871384
0.57355201244354248 -0.00900875497609376907 0.00750280171632766724
0.054953891783952713 -0.0243195705115795135 0.0824662372469902039
0.767878949642181396 0.0104683544486761093 -0.00899318978190422058
-0.20355650782585144 -0.00716854538768529892 0.00460883649066090584
0.569317460060119629 0.0272352844476699829 0.0315365418791770935
-0.128359675407409668 -0.029419703409075737 0.0574212968349456787
-0.0901165753602981567 -0.0308297369629144669 -0.151257053017616272
0.181395977735519409 0.0120608098804950714 -0.00597510114312171936
0.0564340986311435699 0.00441117072477936745 0.165413767099380493
0.133739173412322998 0.0153624610975384712 -0.0132879447191953659
-0.142423525452613831 -0.0348933525383472443 0.180636107921600342
0.323917299509048462 0.00274575268849730492 0.0191107429563999176
-0.0719944462180137634 0.0230616610497236252 0.0292223673313856125
0.115073129534721375 0.0220454074442386627 -0.00210725446231663227
-0.17792193591594696 -0.0193824823945760727 0.0429318398237228394
0.835408687591552734 -0.00104762823320925236 0.0255928412079811096
0.320790112018585205 0.022112969309091568 0.00266917399130761623
0.0720110461115837097 -0.00192281941417604685 0.0795000046491622925
-0.0561661645770072937 -0.0153476027771830559 -0.115293532609939575
-0.145535245537757874 0.0256339423358440399 -0.0133865848183631897
-0.0503193214535713196 0.0228967498987913132 -0.0781041234731674194
0.540575861930847168 0.00964685343205928802 0.0235314220190048218
-0.133065983653068542 0.0300389286130666733 0.0205267947167158127
0.317126154899597168 0.0162255354225635529 -0.0105218058452010155
0.0811875760555267334 -0.015166078694164753 -0.162988916039466858
-0.025229206308722496 0.0437058433890342712 -0.00437299022451043129
0.240163803100585938 0.0181792508810758591 0.0167024079710245132
0.864766538143157959 -0.0321690067648887634 -0.0021647321991622448
-0.0626443102955818176 0.031035933643579483 0.130592495203018188
0.157648399472236633 -0.0302973315119743347 0.149079263210296631
0.894640207290649414 -0.0322544798254966736 0.0393674150109291077
-0.114639982581138611 -0.0212717223912477493 0.098383679986000061
-0.183235034346580505 0.0308714564889669418 -0.0367720760405063629
0.17786039412021637 -0.0147609822452068329 -0.00804001651704311371
-0.240759953856468201 0.0123328017070889473 -0.0948601886630058289
-0.0304927751421928406 0.012850690633058548 -0.063987143337726593
0.184256032109260559 -0.00293688289821147919 -0.0312905386090278625
-0.0336113534867763519 0.0295680630952119827 0.0903657004237174988
-0.135415762662887573 0.0136832678690552711 -0.0422816090285778046
0.934893906116485596 -0.0282267536967992783 0.00964528881013393402
0.212643459439277649 0.00337046035565435886 0.165937229990959167
0.433881998062133789 0.00889828987419605255 0.000240782566834241152
0.156038209795951843 0.00261552096344530582 0.0913342088460922241
0.774456501007080078 0.004419681616127491 0.0241072997450828552
-0.283416420221328735 0.0138011490926146507 -0.224895238876342773
0.162171736359596252 -0.0367964580655097961 -0.0127568216994404793
-0.166970863938331604 -0.0280942637473344803 -0.0727777034044265747
-0.0429885685443878174 0.0275315996259450912 0.089726671576499939
-0.132919356226921082 0.018826192244887352 0.16506512463092804
-0.095441967248916626 -0.0233709197491407394 0.14326728880405426
0.196075469255447388 0.0288354009389877319 0.146092802286148071
0.0917237773537635803 -0.0114933596923947334 0.178054898977279663
0.1460915207862854 -0.0131373833864927292 0.0487281009554862976
-0.130569577217102051 -0.000635338656138628721 -0.0403299219906330109
0.63940727710723877 0.0138389049097895622 -0.016102377325296402
-0.0663101822137832642 -0.0111453747376799583 0.0687420666217803955
0.00443319277837872505 -0.0189979411661624908 -0.147199779748916626
-0.209412813186645508 0.0152596766129136086 -0.0182925499975681305
-0.104646734893321991 0.0242996010929346085 0.144922345876693726
0.801415562629699707 0.0120116434991359711 0.0352128073573112488
-0.180123984813690186 0.00671025970950722694 -0.106108039617538452
-0.0496195033192634583 0.000974134774878621101 0.0358513407409191132
-0.117789573967456818 -0.00803174078464508057 0.17773301899433136
-0.108974695205688477 0.0161684304475784302 0.160536617040634155
0.466377377510070801 0.00877373572438955307 0.0396490544080734253
0.212465807795524597 -0.00347724603489041328 -0.00495847035199403763
0.253901392221450806 -0.00511299259960651398 -0.00250318786129355431
0.068896166980266571 0.00392582407221198082 -0.0709965378046035767
-0.000300026091281324625 -0.0131301404908299446 0.151673227548599243
0.0595530979335308075 -0.0202505160123109818 -0.175685092806816101
0.681055903434753418 0.0398512445390224457 -0.036394704133272171
0.444462716579437256 0.01494597177952528 -0.0242049805819988251
0.181957647204399109 -0.0207678228616714478 -0.0294290706515312195
0.57456815242767334 0.00759218446910381317 -0.0230613425374031067
0.24338984489440918 -0.0192094556987285614 0.171234920620918274
0.183001339435577393 0.0218479149043560028 0.143075659871101379
0.425006389617919922 0.011792963370680809 -0.00958059728145599365
0.133661523461341858 0.0291419625282287598 0.161566182971000671
0.567325770854949951 0.0115962792187929153 0.00773950573056936264
-0.126185998320579529 -0.00527606857940554619 0.197822153568267822
0.875120222568511963 -0.0117608243599534035 0.0427674129605293274
0.057660076767206192 -0.0387932993471622467 0.181640028953552246
0.228488922119140625 -0.0111433751881122589 0.170158103108406067
0.240454167127609253 -0.0151036111637949944 0.128072887659072876
0.772020339965820312 -0.0157873146235942841 -0.031981687992811203
-0.16445063054561615 0.0124878138303756714 0.0252232998609542847
0.0668801218271255493 -0.0231515131890773773 0.151738345623016357
0.0122046153992414474 -0.0283719878643751144 0.114311188459396362
0.641866922378540039 0.0194753091782331467 0.0165842436254024506
-0.00549197755753993988 0.0101314159110188484 -0.089913390576839447
0.113101556897163391 -0.0352530553936958313 -0.0568726658821105957
0.0980878546833992004 -0.00415846612304449081 -0.0158593114465475082
0.248475059866905212 0.00499588390812277794 -0.0333849824965000153
-0.248181343078613281 0.0111323064193129539 -0.151892930269241333
-0.000841461354866623878 -0.0127998702228069305 0.0397007018327713013
0.689207792282104492 0.00614866847172379494 0.0175263285636901855
0.338630646467208862 0.0302019044756889343 -0.00426275422796607018
-0.15701843798160553 0.00443260045722126961 -0.191967859864234924
0.177608117461204529 -0.0126671027392148972 0.153098329901695251
0.799073934555053711 -0.0063166515901684761 -0.0052099740132689476
-0.151040375232696533 -0.0442058965563774109 -0.124179646372795105
0.4811667799949646 0.0156860575079917908 0.00395229225978255272
-0.196552261710166931 -0.0188482478260993958 -0.0959892123937606812
0.810003757476806641 0.00369903352111577988 0.0307622645050287247
0.0994167551398277283 0.0153517508879303932 0.185052752494812012
0.17311917245388031 -0.00950082391500473022 -0.0477378033101558685
-0.123477436602115631 0.00864243507385253906 0.0419830828905105591
-0.108690209686756134 0.0138631211593747139 -0.0388564020395278931
-0.183727487921714783 0.0123452469706535339 -0.122836492955684662
-0.180502980947494507 0.0146258566528558731 -0.0753582939505577087
-0.116055160760879517 -0.0238878335803747177 -0.142326295375823975
0.798592090606689453 -0.022032666951417923 0.0191040411591529846
-0.0352972745895385742 0.00959853548556566238 -0.143596768379211426
-0.223108425736427307 0.00575404847040772438 -0.0771495699882507324
0.0515544116497039795 0.01312251016497612 -0.0864769220352172852
0.444052726030349731 0.0222788862884044647 0.028677087277173996
0.0664216503500938416 0.0183742474764585495 0.160768896341323853
0.11900743842124939 -0.0117574026808142662 0.13462105393409729
0.0864287093281745911 0.0119129754602909088 -0.187579810619354248
0.191417455673217773 0.0067510032095015049 0.00855615735054016113
0.125358507037162781 0.0247425399720668793 0.171026319265365601
-0.0240540560334920883 -0.0366798862814903259 0.101855456829071045
-0.0349004939198493958 -0.0218200590461492538 -0.0209831688553094864
0.473417133092880249 -0.00926051661372184753 -0.010361851193010807
0.0822975635528564453 -0.00477825803682208061 0.158892452716827393
0.435214728116989136 0.0273998919874429703 0.0225084163248538971
-0.155046328902244568 -0.0216672755777835846 0.0131281418725848198
-0.208573251962661743 0.00662941206246614456 -0.0256904400885105133
-0.0365964844822883606 -0.0020430050790309906 -0.0516581162810325623
0.0494851991534233093 -0.02114851213991642 0.0468455217778682709
0.0777611732482910156 -0.0151481647044420242 -0.202658876776695251
-0.132948637008666992 0.0122471088543534279 0.107643701136112213
0.61490929126739502 -0.0164551548659801483 -0.0279562156647443771
0.00449242163449525833 0.0110480422154068947 0.0517598912119865417
-0.266071230173110962 0.0155286313965916634 -0.21525891125202179
0.0320534780621528625 -0.0343947075307369232 -0.0919892638921737671
0.0598239116370677948 -0.0292357616126537323 0.136413455009460449
-0.12810872495174408 -0.0218091066926717758 -0.0817728415131568909
0.0956879034638404846 0.00581606384366750717 0.0378355570137500763
0.57046043872833252 0.00297715375199913979 -0.0159660540521144867
0.0934563204646110535 -0.00681043369695544243 0.0239835605025291443
-0.00947050843387842178 -0.00169720989651978016 0.0614171698689460754
-0.169305622577667236 0.0250493809580802917 0.0764574706554412842
0.842461884021759033 0.00983303133398294449 0.00311020435765385628
-0.172711402177810669 -0.0283476598560810089 -0.173802599310874939
0.933788836002349854 -0.0543840266764163971 0.0828319787979125977
0.0264242235571146011 0.0368123538792133331 -0.0768993869423866272
0.380743145942687988 0.0163074303418397903 -0.00773962447419762611
-0.0987743958830833435 -0.0201594401150941849 -0.0636997297406196594
0.0543241314589977264 -0.0250023063272237778 -0.106008082628250122
0.00713894888758659363 -0.0190025530755519867 -0.175373360514640808
0.243095800280570984 0.0244260802865028381 -0.0234694816172122955
0.909218430519104004 -0.0265632160007953644 0.0230641532689332962
-0.110820308327674866 0.0230107381939888 -0.04363270103931427
-0.0785829201340675354 0.012548358179628849 -0.163031652569770813
-0.0506675653159618378 -0.0181643404066562653 0.164823740720748901
-0.0346050858497619629 0.00727817509323358536 0.0596817247569561005
0.15348072350025177 -0.00742002762854099274 -0.187442749738693237
0.274787485599517822 -0.00503514567390084267 -0.00829032622277736664
0.0283151417970657349 -0.0129183800891041756 -0.192189142107963562
0.0945151820778846741 0.0134226633235812187 0.158632174134254456
-0.184798091650009155 0.00905104260891675949 0.162906482815742493
0.0586569346487522125 -0.0111387651413679123 -0.125701889395713806
0.244401082396507263 0.0148622319102287292 0.0375975258648395538
0.126473724842071533 0.0109060155227780342 0.0104419924318790436
0.513599038124084473 0.000180118120624683797 0.0228530950844287872
-0.134793534874916077 0.00494071329012513161 0.0213554147630929947
-0.156713277101516724 0.0214607380330562592 0.156359061598777771
-0.0155037278309464455 -0.0259304400533437729 -0.082290947437286377
-0.00991522427648305893 0.0348179824650287628 0.0206939727067947388
0.788203179836273193 0.0286960378289222717 -0.0435907430946826935
-0.0465848445892333984 0.0224863048642873764 0.0514338985085487366
0.14021727442741394 0.00949220359325408936 -0.164393573999404907
0.783891379833221436 -0.00562361069023609161 0.0150705417618155479
0.181206539273262024 -0.0274119451642036438 0.157912030816078186
-0.0691771730780601501 0.0255206301808357239 -0.0018863435834646225
0.0223563052713871002 0.0178111158311367035 0.113291323184967041
0.73134845495223999 0.000419370102463290095 -0.0111976116895675659
0.750894665718078613 0.00537015870213508606 -0.0243778470903635025
-0.161704763770103455 0.0172156170010566711 0.0567926913499832153
-0.191605180501937866 0.00561749469488859177 0.0341267809271812439
0.0205984245985746384 0.00832864735275506973 0.0481848753988742828
-0.135964155197143555 0.0206485148519277573 0.0635859742760658264
0.0625723600387573242 -0.0265880804508924484 0.0256530661135911942
-0.206912115216255188 0.0430980361998081207 -0.195929601788520813
-0.0894604474306106567 -0.0118732722476124763 -0.169601157307624817
0.617094576358795166 0.012172747403383255 -0.000218621979001909494
0.0374573394656181335 -0.0194969382137060165 0.131160438060760498
0.0320148468017578125 -0.0264279618859291077 -0.194620877504348755
-0.163726329803466797 -0.0371735282242298126 -0.107261277735233307
0.0754237174987792969 0.00567134097218513489 -0.105657525360584259
0.838261008262634277 -0.00218546041287481785 -0.0648151114583015442
-0.228707373142242432 -0.0106830662116408348 -0.185670807957649231
0.165114536881446838 -0.0338622108101844788 0.210547208786010742
0.0345715843141078949 -0.0031353712547570467 -0.0399453043937683105
-0.0951195806264877319 -0.0168607588857412338 0.0337859131395816803
-0.134927660226821899 -0.0210649427026510239 -0.125355333089828491
0.90402597188949585 -0.0274998098611831665 0.00445482740178704262
-0.0688096210360527039 -0.013018372468650341 -0.0111598372459411621
0.517040431499481201 0.0282147377729415894 0.0151235852390527725
-0.0490419492125511169 -0.0287142638117074966 0.0686426237225532532
-0.0935128629207611084 0.0130906188860535622 0.157537698745727539
-0.170035615563392639 -0.022802308201789856 -0.131376862525939941
0.100229911506175995 0.00990934204310178757 0.178538024425506592
0.211422771215438843 0.00173348491080105305 0.129388868808746338
0.414690852165222168 -0.0299758110195398331 -0.031835358589887619
0.589499354362487793 0.0144135290756821632 -0.0149106616154313087
0.102103941142559052 -0.0196577198803424835 -0.197691470384597778
0.0233788695186376572 -0.0330245420336723328 -0.116193592548370361
0.978594660758972168 -0.0416082069277763367 0.0528745315968990326
-0.199532553553581238 -0.0106153087690472603 -0.190307959914207458
-0.0625067949295043945 -0.0137537810951471329 0.0608732961118221283
-0.0618804208934307098 0.0264553185552358627 0.0640620812773704529
-0.0596931427717208862 0.0036678581964224577 0.154837712645530701
0.579638361930847168 0.0246769450604915619 -0.0354605764150619507
-0.107982262969017029 0.0130977621302008629 0.0434434637427330017
0.132704809308052063 -0.0108022568747401237 0.140717387199401855
0.552626192569732666 0.0128551367670297623 -0.020182119682431221
0.00723916105926036835 -0.00448888726532459259 0.0685489177703857422
0.838415920734405518 -0.00933270622044801712 -0.0634311065077781677
-0.0647077038884162903 -0.0343479886651039124 -0.0381610803306102753
0.157862365245819092 -0.0175938494503498077 0.146705895662307739
-0.159013479948043823 -0.0233411379158496857 0.0567681677639484406
0.474990636110305786 -0.00141606747638434172 0.0109691135585308075
0.248077034950256348 0.0336825698614120483 -0.0499656833708286285
0.706003308296203613 0.0176927335560321808 -0.0233454257249832153
-0.0132872303947806358 -0.0283578615635633469 -0.134237110614776611
-0.0516683049499988556 -0.0171584393829107285 0.111527234315872192
0.124017097055912018 -0.0209711641073226929 0.131836757063865662
0.755210041999816895 0.0211305133998394012 0.0233749151229858398
0.383250057697296143 0.00905349478125572205 0.00722935562953352928
0.0868160054087638855 -0.030957348644733429 0.154523208737373352
0.534066855907440186 -0.00193319178652018309 -0.00858275685459375381
0.0225783046334981918 0.01139054074883461 0.141391173005104065
-0.177016913890838623 -0.0324860997498035431 -0.197095707058906555
-0.131109669804573059 -0.0346660204231739044 -0.127776041626930237
-0.0114541128277778625 -0.0109483236446976662 -0.122243151068687439
-0.035504419356584549 -0.00139682728331536055 -0.101536236703395844
0.15630495548248291 0.0259693413972854614 0.180543392896652222
0.871754705905914307 -0.0264023598283529282 0.00465137092396616936
-0.186087623238563538 0.0134504158049821854 -0.0218027476221323013
-0.135310247540473938 -0.00361767108552157879 -0.1824817955493927
