ply
format ascii 1.0
element vertex 717
property float x
property float y
property float z
end_header
0.158935785293579102 -0.174998730421066284 0.0323567725718021393
0.154483258724212646 -0.188524231314659119 0.00745160458609461784
0.177006110548973083 -0.0806325599551200867 -0.0800861343741416931
-1.03342080116271973 -0.290527433156967163 -0.669577538967132568
-0.351974636316299438 -0.237392991781234741 -0.405711144208908081
0.183926254510879517 -0.263680517673492432 -0.0491759292781352997
0.145183444023132324 -0.324700385332107544 -0.511289834976196289
-0.600621283054351807 -0.551726102828979492 -0.11855393648147583
0.314772605895996094 -0.501862406730651855 -0.142623141407966614
-0.791148185729980469 -0.350717514753341675 -0.549309909343719482
-0.572756171226501465 -0.835150659084320068 0.158458128571510315
-0.717368125915527344 -0.104054689407348633 0.120786219835281372
-0.114055626094341278 -0.117459870874881744 -0.340832352638244629
-0.89440077543258667 -0.268077552318572998 -0.399824321269989014
-0.942857861518859863 -0.0700278580188751221 -0.158679455518722534
-0.670688450336456299 -0.0844100713729858398 0.11729884147644043
-0.0740292444825172424 -0.187977582216262817 -0.327816158533096313
-0.544075310230255127 -1.06406950950622559 0.0668789446353912354
-0.4095572829246521 -0.700969219207763672 0.0695033669471740723
-0.0384310260415077209 -0.299240171909332275 0.340103954076766968
-0.53816986083984375 -0.574078857898712158 0.120900832116603851
0.145803973078727722 -0.100369341671466827 0.0772258415818214417
0.192332103848457336 -0.431992292404174805 -0.0360744409263134003
-0.376862972974777222 -0.520226895809173584 -0.083634987473487854
-0.354100167751312256 -0.606872498989105225 -0.000432071014074608684
-0.580910682678222656 -0.0924786925315856934 0.0716328248381614685
-0.687682211399078369 -0.436278641223907471 -0.657011508941650391
-0.502498447895050049 -0.00662707537412643433 0.0969671308994293213
-0.340176016092300415 -0.216947197914123535 -0.3699931800365448
0.310930311679840088 -0.590446710586547852 -0.219543725252151489
-0.63506317138671875 -1.05573129653930664 0.177202552556991577
-0.839765310287475586 -0.0842541307210922241 -0.0583287030458450317
-0.538491904735565186 -0.931936144828796387 0.0765069872140884399
-0.823629140853881836 -0.417968571186065674 -0.731465935707092285
-0.565074622631072998 -0.167910188436508179 -0.591527879238128662
-1.13536322116851807 -0.00967461708933115005 -0.134929925203323364
-0.947296023368835449 -0.226061508059501648 -0.412812799215316772
-0.22337871789932251 -0.195371583104133606 -0.284280687570571899
-0.497652202844619751 -0.0255097895860671997 0.0667966306209564209
-0.434154987335205078 -0.354623466730117798 0.211826637387275696
-1.05575013160705566 -0.261939913034439087 -0.64736098051071167
-1.01147580146789551 -0.0505523905158042908 -0.186336234211921692
-0.981933653354644775 -0.257764577865600586 -0.451641976833343506
0.171145200729370117 -0.586688339710235596 -0.030421186238527298
0.25060918927192688 -0.305618137121200562 -0.240939170122146606
-0.553349614143371582 -0.987375378608703613 0.194074749946594238
-0.546453177928924561 -0.886201918125152588 0.127681702375411987
-0.429884493350982666 -0.629653871059417725 0.104345127940177917
-0.857651352882385254 -0.325696617364883423 -0.478224575519561768
-0.520311057567596436 -0.873685240745544434 0.0569788962602615356
0.198244631290435791 -0.11488775908946991 -0.171333387494087219
-0.878341257572174072 -0.231362119317054749 -0.390954017639160156
-0.980233609676361084 -0.333493471145629883 -0.748943865299224854
-0.0408560410141944885 -0.441932648420333862 -0.405899584293365479
-0.243067905306816101 -0.185635685920715332 -0.433963119983673096
-0.110885880887508392 -0.16613471508026123 0.321443766355514526
-0.458469927310943604 -0.632443547248840332 0.0818091928958892822
0.148181900382041931 -0.175438031554222107 -0.366687893867492676
0.18539777398109436 -0.265981853008270264 0.0186904370784759521
-0.541112124919891357 -0.89922255277633667 0.0387544147670269012
-0.282987058162689209 -0.45894959568977356 -0.575916409492492676
0.161368459463119507 -0.139683470129966736 0.0438228733837604523
0.0935150310397148132 -0.174587398767471313 0.158258974552154541
-0.338434070348739624 0.00171367055736482143 0.214892610907554626
-0.485482782125473022 0.0107288584113121033 -0.480318605899810791
0.273421794176101685 -0.462761282920837402 -0.320105046033859253
-0.205955728888511658 -0.439705222845077515 -0.500318706035614014
-0.513635456562042236 -0.238392472267150879 -0.534974455833435059
-0.6433066725730896 -0.416262656450271606 -0.581791460514068604
-0.238017410039901733 -0.331019043922424316 -0.324597179889678955
0.209076553583145142 -0.21996740996837616 -0.131644412875175476
-0.35699915885925293 -0.287788927555084229 -0.583911359310150146
-0.0475495755672454834 -0.299471855163574219 -0.307711571455001831
-0.493613570928573608 -0.137695953249931335 -0.510057270526885986
-0.528002321720123291 -0.165894001722335815 -0.0131890652701258659
-0.26459231972694397 -0.13649711012840271 -0.480480372905731201
-0.528848230838775635 -0.727671325206756592 0.0723080188035964966
-0.550140500068664551 -1.02951955795288086 0.184090197086334229
-0.512783706188201904 -0.282321006059646606 -0.556130290031433105
-1.02150166034698486 -0.216674283146858215 -0.478483885526657104
-1.00677764415740967 -0.213484704494476318 -0.421127766370773315
0.173692077398300171 -0.468069344758987427 -0.00753276888281106949
-0.51680070161819458 -0.177022382616996765 -0.0722623094916343689
-1.05169200897216797 -0.0257351696491241455 -0.161494255065917969
-0.493142426013946533 -0.741547465324401855 0.113252177834510803
0.196597471833229065 -0.392186164855957031 -0.0442894212901592255
-1.04109597206115723 -0.184587255120277405 -0.420245915651321411
-0.485008478164672852 -0.687227249145507812 0.152963846921920776
-0.427063196897506714 -0.586323142051696777 0.112638451159000397
0.192874938249588013 -0.284240484237670898 -0.370509624481201172
-0.451896488666534424 -0.4169730544090271 -0.521734476089477539
-0.492370694875717163 -0.760411739349365234 0.0696435868740081787
0.201461106538772583 -0.378863245248794556 -0.420953273773193359
-0.494914382696151733 -0.951287806034088135 0.127414330840110779
-0.143206343054771423 -0.238770589232444763 0.368704676628112793
0.149348527193069458 -0.0472033284604549408 -0.0230885110795497894
0.177813544869422913 -0.416109025478363037 -0.517543196678161621
0.0449704639613628387 -0.435917556285858154 -0.310588836669921875
0.219603165984153748 -0.360915333032608032 -0.368806988000869751
-0.100007392466068268 -0.375548899173736572 0.453489571809768677
0.155312508344650269 -0.0791752263903617859 0.00239177164621651173
0.185845956206321716 -0.151323258876800537 -0.141752108931541443
-0.351683259010314941 -0.43904450535774231 -0.475662320852279663
-0.799444973468780518 -0.0910434499382972717 0.0601877309381961823
0.290715694427490234 -0.463001012802124023 -0.180783525109291077
-0.629709780216217041 -0.388533920049667358 -0.00297408644109964371
0.206503316760063171 -0.369668036699295044 -0.39235842227935791
0.20647914707660675 -0.273155629634857178 -0.172358646988868713
0.106838837265968323 -0.445408523082733154 0.214368283748626709
-0.0995123833417892456 -0.260339140892028809 0.348811566829681396
-0.239273548126220703 -0.204691365361213684 0.319341540336608887
0.0316895954310894012 -0.260786563158035278 -0.271986424922943115
0.20652027428150177 -0.268652051687240601 -0.308264732360839844
-0.992380619049072266 -0.276468724012374878 -0.494044840335845947
-0.402446389198303223 -0.381502032279968262 -0.491286575794219971
-0.482633978128433228 -0.827445089817047119 0.0611875280737876892
-1.19613873958587646 0.00446333596482872963 -0.120624586939811707
-0.753617703914642334 -0.413995027542114258 -0.617574214935302734
-0.559772968292236328 -0.972097039222717285 0.0240839272737503052
-0.532564342021942139 -0.999931573867797852 0.0791226178407669067
-0.553065598011016846 -0.660325407981872559 -0.0319758914411067963
-0.138740107417106628 -0.0895960256457328796 -0.383192598819732666
0.178055182099342346 -0.47568395733833313 0.0536828897893428802
-0.358513206243515015 -0.486797124147415161 -0.156073927879333496
-0.86540907621383667 -0.0764714553952217102 -0.0228417534381151199
-0.552350521087646484 -0.87809830904006958 0.182161867618560791
-0.613388180732727051 -0.330596178770065308 -0.679838597774505615
-0.598154544830322266 -0.868359267711639404 0.125295788049697876
-1.07122719287872314 -0.227610573172569275 -0.540970504283905029
0.271355479955673218 -0.343606919050216675 -0.136043041944503784
-0.150317654013633728 -0.228220283985137939 -0.384209871292114258
-0.477539479732513428 -0.240398183465003967 -0.482055425643920898
-0.272453576326370239 -0.110551752150058746 0.266873806715011597
-0.566709935665130615 -0.71615833044052124 0.0183259919285774231
0.00550123210996389389 -0.44305846095085144 -0.344769924879074097
-0.767990171909332275 -0.417560040950775146 -0.67899012565612793
-0.484173566102981567 -0.922207474708557129 0.0627716332674026489
-0.550834596157073975 -0.226066336035728455 -0.0539662726223468781
-1.15868508815765381 0.0321111008524894714 -0.0905484855175018311
-0.558894038200378418 -1.05682551860809326 0.181448370218276978
-0.416093021631240845 -0.263801902532577515 -0.459571897983551025
-0.630685269832611084 -1.06905162334442139 0.0751117914915084839
-0.445894777774810791 0.0603555366396903992 0.0729522928595542908
-0.159389212727546692 -0.125887691974639893 -0.386063039302825928
-0.376061856746673584 -0.557656049728393555 0.0749673247337341309
-0.136175572872161865 -0.12152235209941864 -0.360445588827133179
-1.10270273685455322 -0.185825765132904053 -0.521371901035308838
-0.805556237697601318 -0.373628288507461548 -0.601687967777252197
-0.582386672496795654 -0.865342378616333008 0.0614534281194210052
-0.605672180652618408 -1.10951519012451172 0.100565537810325623
-0.369006365537643433 -0.234158918261528015 -0.394565403461456299
-0.447949349880218506 -0.439637929201126099 -0.549485445022583008
-0.696196854114532471 -0.397534728050231934 -0.599050283432006836
-0.46431499719619751 -0.884097397327423096 0.158754870295524597
0.134389370679855347 -0.188884526491165161 0.116480961441993713
-0.601449429988861084 -0.033073965460062027 0.128936305642127991
-0.498943954706192017 -0.30582505464553833 -0.5481986403465271
0.198933437466621399 -0.518767654895782471 -0.158753201365470886
0.207774028182029724 -0.357402414083480835 -0.430152237415313721
-0.808166444301605225 -0.284520089626312256 -0.39462009072303772
-0.53730463981628418 -0.97375410795211792 0.114263713359832764
-0.0894459784030914307 -0.234390139579772949 -0.332547307014465332
-0.755568623542785645 -0.26508215069770813 -0.372305095195770264
0.269040733575820923 -0.391533195972442627 -0.304841667413711548
-0.485242336988449097 -0.306540817022323608 -0.528595089912414551
-0.778210282325744629 -0.359446734189987183 -0.51728975772857666
-0.0585602819919586182 -0.428077548742294312 -0.371038496494293213
-0.0226590577512979507 -0.158623263239860535 0.269565969705581665
-0.456863760948181152 -0.053645014762878418 -0.467531144618988037
-0.170302942395210266 -0.242916122078895569 -0.396410465240478516
-0.616704881191253662 -1.07129967212677002 0.149637952446937561
-0.349147319793701172 -0.214813172817230225 -0.538684666156768799
-0.0999996736645698547 -0.280666589736938477 -0.374990731477737427
-0.526248931884765625 -0.931988418102264404 0.188605949282646179
-0.512677550315856934 0.00808875821530818939 -0.536656022071838379
-0.548650622367858887 -0.100832849740982056 0.0263309739530086517
-0.605818271636962891 -1.00562810897827148 0.0480086915194988251
-0.660372018814086914 -0.120524220168590546 0.08677702397108078
-0.347886502742767334 -0.310075998306274414 -0.547130286693572998
-0.42829662561416626 -0.0965344160795211792 -0.449957042932510376
-0.765222907066345215 -0.381125152111053467 -0.541917860507965088
-0.48248291015625 -0.949066340923309326 0.125814065337181091
0.15724499523639679 -0.374700307846069336 -0.515852093696594238
-0.637225925922393799 -1.05103218555450439 0.0938084200024604797
-0.609354257583618164 -0.164526194334030151 -0.642099440097808838
-0.463131695985794067 -0.460965663194656372 0.0554170645773410797
0.165256500244140625 -0.112892806529998779 -0.0348198674619197845
-0.238400310277938843 -0.51870572566986084 -0.0774706155061721802
-0.514168620109558105 -0.991791009902954102 0.107559323310852051
-0.641072869300842285 -1.09209060668945312 0.147506564855575562
0.100712381303310394 -0.389780372381210327 0.208282575011253357
0.202782094478607178 -0.327671647071838379 -0.427807927131652832
-0.512914657592773438 -1.10748147964477539 0.13675786554813385
-0.329430162906646729 -0.47014164924621582 -0.138909250497817993
-0.473056882619857788 -0.16171632707118988 -0.0731238499283790588
-0.457290858030319214 -0.482561737298965454 -0.127786889672279358
0.230152279138565063 -0.257627815008163452 -0.238819286227226257
-0.187560886144638062 -0.205480754375457764 0.30200505256652832
0.142288029193878174 -0.451375037431716919 0.0913299992680549622
0.236100971698760986 -0.233965203166007996 -0.149159595370292664
-0.487702757120132446 -0.230370640754699707 -0.512397646903991699
-0.36736750602722168 -0.223045095801353455 -0.589345932006835938
-0.334040552377700806 -0.206621721386909485 -0.541260898113250732
-0.255987286567687988 -0.501188755035400391 0.0442728511989116669
0.296220213174819946 -0.386112093925476074 -0.11173626035451889
-0.583894312381744385 -0.991788148880004883 0.0814041644334793091
0.312356263399124146 -0.615122020244598389 -0.23373749852180481
-0.568792879581451416 -0.914522171020507812 0.123920530080795288
-0.566793978214263916 -0.895150840282440186 0.106985844671726227
-1.01859951019287109 -0.334243804216384888 -0.725092291831970215
0.275325804948806763 -0.600724577903747559 -0.340397179126739502
-0.551715075969696045 -1.09390437602996826 0.141239538788795471
-0.492216259241104126 -0.718868494033813477 0.146262139081954956
0.0660708323121070862 -0.28334847092628479 0.188680887222290039
0.100496493279933929 -0.175463780760765076 0.113157995045185089
-0.40133550763130188 -0.0194423813372850418 0.00495838280767202377
-0.441267639398574829 -0.166247233748435974 -0.468890100717544556
-0.441995859146118164 -0.0462674796581268311 -0.00870825070887804031
-0.993788778781890869 -0.277601659297943115 -0.574137687683105469
-0.137437641620635986 -0.31482541561126709 -0.39498785138130188
-0.103886716067790985 -0.451354682445526123 -0.128303289413452148
-0.454053908586502075 -0.304061949253082275 -0.484528392553329468
0.226555332541465759 -0.154644161462783813 -0.118413873016834259
0.291233837604522705 -0.407938390970230103 -0.280862152576446533
-0.493331313133239746 -0.184342920780181885 0.0468277670443058014
0.214064300060272217 -0.265805512666702271 -0.296053588390350342
-0.553126513957977295 -0.890680968761444092 0.0517862215638160706
-0.50510483980178833 -0.737256050109863281 0.0411163680255413055
-0.741705954074859619 -0.114562317728996277 -0.0715605467557907104
-0.557652771472930908 -0.949392139911651611 0.0693213716149330139
-1.0624992847442627 -0.0433714650571346283 -0.25623670220375061
0.24123808741569519 -0.34274253249168396 -0.289044618606567383
0.168272614479064941 -0.16402435302734375 -0.323620200157165527
0.159203186631202698 -0.235221505165100098 0.0724613964557647705
-0.30278933048248291 -0.142289251089096069 -0.329689621925354004
-0.979801297187805176 -0.322655737400054932 -0.629745066165924072
-0.797938764095306396 -0.285289138555526733 -0.387254327535629272
-0.954712212085723877 -0.281134307384490967 -0.535453677177429199
-0.851201832294464111 -0.0799550488591194153 -0.0259582549333572388
0.172286048531532288 -0.301757395267486572 -0.484810113906860352
-0.492857992649078369 -0.872546553611755371 0.125573620200157166
-0.61621248722076416 -0.932534277439117432 0.142484679818153381
-0.544353783130645752 -1.12460994720458984 0.15273362398147583
-0.0445233024656772614 -0.351464301347732544 0.0227282103151082993
-0.184607997536659241 -0.270793497562408447 -0.416794508695602417
-0.510374665260314941 -1.05471205711364746 0.157317474484443665
-0.57054978609085083 -0.119629688560962677 -0.593600034713745117
-0.541867852210998535 -0.0900556296110153198 0.063705936074256897
0.169523864984512329 -0.209113091230392456 -0.0518861226737499237
-0.855313479900360107 -0.400205343961715698 -0.756712198257446289
-0.451987177133560181 -0.685206890106201172 0.013185771182179451
-0.335945338010787964 -0.273223578929901123 -0.405087113380432129
-0.429357558488845825 -0.229802489280700684 -0.45111161470413208
-0.101972237229347229 -0.232526734471321106 0.333895683288574219
0.278819888830184937 -0.607718169689178467 -0.350801557302474976
-0.384643286466598511 -0.241820245981216431 -0.421242833137512207
0.114016450941562653 -0.381788402795791626 0.18163667619228363
0.119410298764705658 -0.501271843910217285 0.209669530391693115
-0.698042094707489014 -0.278526067733764648 -0.0489837080240249634
-0.172597020864486694 -0.463011085987091064 -0.185390248894691467
-0.630327343940734863 -0.276376932859420776 0.229102015495300293
-0.312780886888504028 -0.287234127521514893 -0.544993400573730469
-0.493429601192474365 -0.832894384860992432 0.122934140264987946
-0.482472091913223267 0.00861983653157949448 -0.53426826000213623
-1.00587320327758789 -0.238707259297370911 -0.492675244808197021
-0.794242918491363525 -0.167214438319206238 0.109302707016468048
0.00527715496718883514 -0.492883533239364624 -0.36497187614440918
-0.974138259887695312 -0.0507726594805717468 -0.178364530205726624
-0.948496878147125244 -0.0573457218706607819 -0.343699336051940918
-0.519796252250671387 -0.901369929313659668 0.080478958785533905
-0.308933675289154053 -0.129183858633041382 -0.354319959878921509
-0.959353506565093994 -0.205424532294273376 -0.401620149612426758
-0.532926559448242188 -0.682564616203308105 0.0863348543643951416
-0.583446025848388672 -0.073205605149269104 -0.583083689212799072
-0.458508759737014771 -0.630659639835357666 0.168642714619636536
0.325017720460891724 -0.54552912712097168 -0.173925086855888367
0.161348268389701843 -0.406352698802947998 -0.551197290420532227
-0.466851204633712769 0.0259006060659885406 0.0986304730176925659
0.129223823547363281 -0.406018197536468506 0.123868837952613831
-0.605979382991790771 -1.02823901176452637 0.122424118220806122
0.0217026732861995697 -0.305330187082290649 0.282259553670883179
-0.700806379318237305 -0.158608093857765198 0.0830964818596839905
-1.11801719665527344 -0.173012822866439819 -0.536367893218994141
-0.571336865425109863 -0.836708724498748779 0.085531182587146759
0.053255770355463028 -0.183580145239830017 0.174184367060661316
-0.652754127979278564 -0.960082530975341797 0.0983053147792816162
0.182322293519973755 -0.417761296033859253 -0.0782629400491714478
-0.599585473537445068 -1.10840332508087158 0.154497221112251282
-0.307870268821716309 -0.592446982860565186 -0.0221779625862836838
0.271405041217803955 -0.482313424348831177 -0.301600456237792969
-0.504442095756530762 -0.0751178935170173645 0.0285311844199895859
-0.0125609822571277618 -0.344472944736480713 0.32388991117477417
-0.470595240592956543 -0.664352059364318848 0.0881345942616462708
-0.5503501296043396 -0.204069003462791443 -0.566563308238983154
-1.18026232719421387 0.0242316219955682755 -0.212721884250640869
0.252304702997207642 -0.342364698648452759 -0.255741119384765625
-0.953570902347564697 -0.172145634889602661 -0.334837347269058228
-0.728239655494689941 -0.217586144804954529 -0.0492738597095012665
-0.563548684120178223 -1.06030786037445068 0.124105252325534821
-0.90472412109375 -0.349352359771728516 -0.632758378982543945
-0.433459371328353882 -0.0881556198000907898 -0.0553594455122947693
-0.568928837776184082 -0.2988261878490448 -0.613438606262207031
0.191354453563690186 -0.289684981107711792 0.018855314701795578
-0.998830854892730713 -0.0321724489331245422 -0.0115229338407516479
0.184416785836219788 -0.390909761190414429 -0.500425875186920166
-0.285624474287033081 -0.159712597727775574 -0.453165620565414429
-1.10943973064422607 -0.246854767203330994 -0.691274285316467285
-0.573333501815795898 -0.565789341926574707 -0.0906416475772857666
-0.376978218555450439 -0.563009262084960938 0.12304600328207016
-0.780679106712341309 -0.22356259822845459 -0.290718793869018555
0.0391951166093349457 -0.41478961706161499 -0.205696523189544678
0.186194226145744324 -0.240315273404121399 -0.303855150938034058
-0.486845970153808594 -0.918163836002349854 0.133719414472579956
-0.466541290283203125 -0.337271928787231445 -0.522987544536590576
-0.649170517921447754 -1.01422631740570068 0.117154501378536224
-0.468084216117858887 -0.859571516513824463 0.0798445120453834534
-0.527898252010345459 -0.917182505130767822 0.193967416882514954
-1.09249842166900635 -0.176218405365943909 -0.482518881559371948
0.175795778632164001 -0.18833787739276886 -0.113976463675498962
-0.375093698501586914 -0.563057243824005127 -0.0472679063677787781
0.28657260537147522 -0.400438249111175537 -0.17551867663860321
-0.106652207672595978 -0.28062400221824646 0.0756312534213066101
-0.537783026695251465 -1.00688827037811279 0.0510604232549667358
-0.505886375904083252 -0.719466745853424072 0.0939232856035232544
-0.43131786584854126 -0.716316282749176025 0.0274824816733598709
-0.614313602447509766 -1.07896924018859863 0.165648475289344788
-0.312224596738815308 -0.423269271850585938 0.0529361702501773834
-0.429672598838806152 -0.431791484355926514 0.323165446519851685
-0.853628039360046387 -0.381422907114028931 -0.605487227439880371
-0.242231696844100952 -0.532606899738311768 -0.112392343580722809
-0.940477669239044189 -0.253889858722686768 -0.480961978435516357
-0.495356112718582153 -0.878453493118286133 0.12359272688627243
-1.02007687091827393 -0.185820654034614563 -0.432610213756561279
-0.0331233441829681396 -0.421911180019378662 0.388886570930480957
-0.614074409008026123 -0.433783441781997681 0.00465195020660758018
0.111247032880783081 -0.408261775970458984 0.260171353816986084
-1.07771050930023193 -0.0182933341711759567 -0.103300578892230988
-0.221745103597640991 -0.286285102367401123 -0.470239073038101196
-0.0839575827121734619 -0.186945274472236633 0.305680841207504272
0.28701367974281311 -0.304081887006759644 -0.0112899132072925568
-0.579539954662322998 -1.02420353889465332 0.0368109829723834991
-0.0252280943095684052 -0.231055095791816711 0.278076589107513428
-0.526071727275848389 -1.07751059532165527 0.135143086314201355
0.246368557214736938 -0.254053354263305664 -0.173815175890922546
-0.461561292409896851 -0.78671419620513916 0.0844174996018409729
-0.926296710968017578 -0.351204752922058105 -0.701949536800384521
-0.383473455905914307 -0.317128747701644897 -0.628822088241577148
-0.556488156318664551 -0.548312008380889893 0.00106790149584412575
-0.246087029576301575 -0.470991432666778564 -0.524873256683349609
0.0544628575444221497 -0.468112081289291382 -0.340808331966400146
0.0666184797883033752 -0.397239714860916138 -0.28463783860206604
-0.0626915469765663147 -0.235736310482025146 0.306402236223220825
-0.508767068386077881 -0.980214357376098633 0.155480831861495972
0.14816652238368988 -0.23928011953830719 0.0908862650394439697
-0.30055728554725647 -0.428967475891113281 -0.192733243107795715
-1.00192403793334961 -0.210177883505821228 -0.421220183372497559
0.0387945957481861115 -0.201808705925941467 0.217534184455871582
-0.00803221948444843292 -0.427890092134475708 -0.297971636056900024
-0.522226989269256592 -0.700519323348999023 0.104647859930992126
0.159573763608932495 -0.101186268031597137 -0.00144417816773056984
0.188234016299247742 -0.207045570015907288 -0.165898621082305908
-0.0687433704733848572 -0.290214776992797852 -0.326881289482116699
0.139407798647880554 -0.471789956092834473 0.154797911643981934
-1.10894322395324707 -0.000783809577114880085 -0.0523329451680183411
-0.453056663274765015 -0.80085456371307373 0.072222784161567688
-0.414111286401748657 -0.104879692196846008 -0.050897400826215744
-0.573985040187835693 -0.966576337814331055 0.19582328200340271
-0.114351712167263031 -0.189088642597198486 0.347112029790878296
-0.456404328346252441 -0.241863787174224854 -0.473494499921798706
0.131233200430870056 -0.314428120851516724 -0.564563453197479248
-0.886824667453765869 -0.0851235911250114441 -0.0555846095085144043
-1.04555594921112061 -0.31474032998085022 -0.75512850284576416
-0.00914318114519119263 -0.199520602822303772 0.251434475183486938
-1.13110709190368652 0.00310283340513706207 -0.171454876661300659
0.15706343948841095 -0.323846727609634399 -0.00552981765940785408
0.187164321541786194 -0.148543477058410645 -0.226114600896835327
-0.423531979322433472 -0.296850055456161499 0.265671730041503906
0.128721743822097778 -0.54906010627746582 0.143853038549423218
-0.606386303901672363 -0.933432161808013916 0.0881699100136756897
-0.903497695922851562 -0.0715146362781524658 -0.321323275566101074
0.0203701332211494446 -0.0526020005345344543 0.169728875160217285
-0.977915048599243164 -0.0522244051098823547 -0.0735641345381736755
-0.266512006521224976 -0.533964753150939941 -0.628236293792724609
-0.382215827703475952 -0.305420339107513428 -0.619990050792694092
-1.09301245212554932 -0.0233113188296556473 -0.101451009511947632
-0.543562352657318115 -0.922675967216491699 0.0409663692116737366
-0.551214933395385742 -0.867501199245452881 0.067817196249961853
0.280747294425964355 -0.43100440502166748 -0.286058008670806885
-0.00787172373384237289 -0.224214702844619751 -0.30364692211151123
-0.313653260469436646 -0.560292720794677734 -0.053498540073633194
-0.380137145519256592 -0.0448130704462528229 -0.0233222879469394684
-0.740596115589141846 -0.378656506538391113 -0.517993688583374023
-0.141270563006401062 -0.310532182455062866 -0.393896311521530151
0.165613457560539246 -0.0505497641861438751 -0.104147076606750488
-0.484001189470291138 -0.252011269330978394 0.0383946113288402557
-1.1247107982635498 -0.00166538567282259464 -0.20304425060749054
-0.21799701452255249 -0.278389126062393188 0.353202372789382935
-0.128208890557289124 -0.263120323419570923 -0.387136012315750122
-0.520931541919708252 -0.84073716402053833 0.119505524635314941
-0.568309187889099121 -1.04051089286804199 0.148253694176673889
0.12616044282913208 -0.132779210805892944 0.125269889831542969
-0.544212400913238525 -0.0699526965618133545 0.0664892420172691345
0.138796493411064148 -0.110090993344783783 -0.0700182691216468811
-0.25509876012802124 -0.115785621106624603 -0.436575710773468018
-0.546633720397949219 -0.826715826988220215 0.0938678383827209473
-0.643631517887115479 -1.09239065647125244 0.138117745518684387
-0.169988751411437988 -0.0465746298432350159 -0.382672667503356934
-1.13903617858886719 -0.00395742990076541901 -0.295981794595718384
0.272772431373596191 -0.434383094310760498 -0.227714687585830688
-0.458780556917190552 -0.452676951885223389 0.155151143670082092
-0.245064690709114075 -0.205627277493476868 -0.321578413248062134
-0.988042891025543213 -0.140043124556541443 -0.33034062385559082
-0.063123069703578949 -0.442146807909011841 -0.146017715334892273
0.162851437926292419 -0.399879932403564453 0.0587084740400314331
-0.589113116264343262 -1.10139250755310059 0.0592363476753234863
-0.525711297988891602 -0.370562106370925903 -0.577122151851654053
-1.06503582000732422 -0.154230892658233643 -0.411812782287597656
0.220686063170433044 -0.179470837116241455 -0.150418117642402649
-0.469680428504943848 -0.155567124485969543 -0.490277230739593506
-0.611102163791656494 -0.941438794136047363 0.0571581050753593445
-0.791611790657043457 -0.225124046206474304 -0.330168932676315308
0.184397429227828979 -0.430599123239517212 -0.0149034177884459496
0.215664923191070557 -0.231085598468780518 -0.266238391399383545
-0.465837150812149048 -0.512786269187927246 0.133755415678024292
-0.525629758834838867 -0.986926257610321045 0.137186050415039062
-0.542150676250457764 -0.628862679004669189 0.0455819666385650635
-0.559018611907958984 -0.688068151473999023 -0.00657541817054152489
-0.521508514881134033 -0.757159888744354248 0.0765747427940368652
-0.1372813880443573 -0.395850002765655518 -0.410235613584518433
0.226831406354904175 -0.377127081155776978 -0.384630650281906128
-0.372092008590698242 -0.206789910793304443 -0.584910452365875244
-0.0587405972182750702 -0.229051351547241211 -0.321628540754318237
-0.588319122791290283 -1.08567976951599121 0.200585290789604187
-0.52528691291809082 -0.0422366335988044739 0.0871561169624328613
-0.449375152587890625 -0.575019896030426025 -0.042095530778169632
-0.310953289270401001 -0.416809350252151489 -0.607252240180969238
-0.225587829947471619 -0.481594443321228027 -0.499127298593521118
0.205519780516624451 -0.556458711624145508 -0.121581971645355225
-0.931503057479858398 -0.274656772613525391 -0.501652717590332031
-0.869421482086181641 -0.0966675877571105957 -0.312259882688522339
-1.02622389793395996 -0.0463461987674236298 -0.213200986385345459
-0.293981760740280151 -0.0880091041326522827 -0.483750283718109131
-0.193993479013442993 -0.407363325357437134 -0.480193227529525757
-0.712399840354919434 -0.116240859031677246 0.103219412267208099
-0.335475116968154907 -0.0516046620905399323 -0.347161322832107544
-0.941619515419006348 -0.0848534703254699707 -0.135298788547515869
-0.90848076343536377 -0.292376041412353516 -0.437925428152084351
-0.245027199387550354 -0.0847772881388664246 -0.437874585390090942
-1.05748653411865234 -0.305900126695632935 -0.71431046724319458
-0.459204375743865967 -0.179000005125999451 -0.470377922058105469
-0.517927646636962891 -0.999721169471740723 0.0766775906085968018
-0.59780806303024292 -1.08886873722076416 0.165235072374343872
-0.310357481241226196 -0.21302562952041626 -0.500425815582275391
-0.485603630542755127 -0.717281460762023926 0.0338431522250175476
-0.274067461490631104 -0.441979140043258667 -0.561937332153320312
-0.48251640796661377 -0.13634122908115387 -0.487970829010009766
0.175919607281684875 -0.186138436198234558 -0.0389536991715431213
0.139615342020988464 -0.0506891272962093353 0.02413194440305233
-0.516377389430999756 -0.0538972057402133942 0.0512192919850349426
0.14686797559261322 -0.28659406304359436 -0.513734340667724609
-0.619505405426025391 -0.219050571322441101 -0.669682800769805908
-0.663776636123657227 -0.116320312023162842 -0.021349787712097168
0.00384771940298378468 -0.330301433801651001 0.282266497611999512
-0.147123932838439941 -0.148384049534797668 -0.381729722023010254
-0.4890097975730896 -0.177819579839706421 -0.0567568950355052948
0.115950129926204681 -0.133201479911804199 -0.372172653675079346
-0.989611148834228516 -0.264480620622634888 -0.61441195011138916
-0.0938574597239494324 -0.181322619318962097 -0.339993953704833984
0.175609484314918518 -0.129323184490203857 -0.0872398465871810913
-0.417182952165603638 -0.630378186702728271 -0.00892097596079111099
-0.531516075134277344 -0.369141161441802979 -0.597706854343414307
-0.935621201992034912 -0.0633000358939170837 -0.20496852695941925
0.180338397622108459 -0.311234891414642334 0.019021354615688324
-0.385088860988616943 0.0755374133586883545 0.0512712150812149048
-0.887957751750946045 -0.0772045031189918518 -0.242771223187446594
-0.506530344486236572 -0.762714743614196777 0.0771030038595199585
-0.545386731624603271 -0.943042516708374023 0.131334483623504639
-0.590301990509033203 -0.263679742813110352 -0.625657975673675537
-0.234120398759841919 -0.409527778625488281 -0.502098500728607178
-0.582729935646057129 -1.00678181648254395 0.14649471640586853
0.203502058982849121 -0.295714765787124634 -0.339413106441497803
-0.111968725919723511 -0.307632803916931152 0.425247758626937866
-0.0687916502356529236 -0.0740262791514396667 0.281238585710525513
-0.407378554344177246 -0.206613197922706604 -0.433984637260437012
-0.856480956077575684 -0.210276037454605103 -0.365015923976898193
-0.227787822484970093 -0.488096237182617188 -0.525336265563964844
-0.555687248706817627 -0.90900951623916626 0.12279675155878067
-0.990601122379302979 -0.256733536720275879 -0.559441804885864258
-1.10175120830535889 -0.222429484128952026 -0.611123383045196533
-0.429140239953994751 -0.536703944206237793 -0.535129725933074951
-0.408400297164916992 -0.224007874727249146 -0.44849693775177002
-0.438606053590774536 -0.40765678882598877 0.171530663967132568
-0.772295951843261719 -0.0997152850031852722 -0.0707489624619483948
0.182638660073280334 -0.305523961782455444 0.0260465852916240692
-0.257338941097259521 -0.392259836196899414 -0.276968270540237427
0.210411831736564636 -0.266775965690612793 -0.121154151856899261
-0.388986408710479736 -0.471957921981811523 -0.515361666679382324
-0.340237826108932495 -0.623523116111755371 -0.041423063725233078
-1.01113986968994141 -0.0567490421235561371 -0.224352523684501648
-0.0501243770122528076 -0.332738518714904785 0.365054517984390259
-0.810597479343414307 -0.15713869035243988 -0.0771033614873886108
-0.201556921005249023 -0.259447455406188965 -0.435472369194030762
-0.504694223403930664 -0.685612022876739502 0.0743477419018745422
-0.941607356071472168 -0.365385681390762329 -0.756067514419555664
0.197529077529907227 -0.276647061109542847 -0.34880375862121582
-0.0977775231003761292 -0.287007659673690796 0.391053587198257446
-0.446377575397491455 -0.532291829586029053 -0.0748922452330589294
0.200224235653877258 -0.42113029956817627 -0.481349319219589233
-0.415154725313186646 -0.514744222164154053 0.0859852805733680725
-0.53500676155090332 -0.757792234420776367 0.113748356699943542
-1.11909544467926025 -0.0268292929977178574 -0.155906841158866882
-0.425453364849090576 -0.627494990825653076 0.0530398376286029816
-1.18853068351745605 0.0154913151636719704 -0.172197476029396057
-0.25052991509437561 -0.257685273885726929 -0.332679063081741333
-0.216729745268821716 -0.499096333980560303 -0.142628252506256104
-0.87502753734588623 -0.0615595094859600067 0.0477978885173797607
0.198815301060676575 -0.472887396812438965 -0.10792897641658783
-1.03821659088134766 -0.127744764089584351 -0.388011187314987183
-0.498191922903060913 -0.216266855597496033 -0.542601287364959717
-0.241260915994644165 -0.550167262554168701 -0.563250839710235596
-0.502071142196655273 -0.104886889457702637 -0.522579669952392578
-0.00641576992347836494 -0.252522438764572144 0.273234546184539795
-1.07041430473327637 -0.0261889118701219559 -0.163851365447044373
-1.13569629192352295 0.00313975219614803791 -0.2227458655834198
-0.838893532752990723 -0.0764734894037246704 -0.00482691172510385513
-0.421662330627441406 -0.465744912624359131 -0.540523767471313477
0.144112646579742432 -0.493260473012924194 0.0987706482410430908
-0.268548697233200073 -0.198532894253730774 -0.325891047716140747
-0.402043908834457397 0.0264821350574493408 0.0283426623791456223
0.197743341326713562 -0.489306420087814331 -0.0258287861943244934
-0.617329776287078857 -0.92673492431640625 0.11885862797498703
-1.02156627178192139 -0.174841344356536865 -0.397807210683822632
-0.592770516872406006 -1.11558187007904053 0.076535344123840332
-0.317563891410827637 -0.441962242126464844 -0.151174083352088928
0.139398589730262756 -0.112766355276107788 0.108123131096363068
-0.475631892681121826 -0.401254117488861084 -0.559495985507965088
-0.68833082914352417 -0.123659417033195496 0.0873928964138031006
0.209205210208892822 -0.2418069988489151 -0.323872596025466919
-0.342744112014770508 -0.609720349311828613 -0.0165645070374011993
0.257682144641876221 -0.516041457653045654 -0.344300270080566406
0.283497989177703857 -0.426614433526992798 -0.25705757737159729
0.202613160014152527 -0.221656948328018188 -0.181839823722839355
-0.409838348627090454 0.0489494763314723969 0.064588107168674469
-0.588449299335479736 -0.861794471740722656 0.0824635252356529236
0.128417760133743286 -0.18612988293170929 0.06041736900806427
0.213621795177459717 -0.256738573312759399 -0.00953944120556116104
-0.486023098230361938 -0.924684286117553711 0.110082715749740601
-0.493192553520202637 -0.18333396315574646 -0.495512932538986206
0.296131402254104614 -0.511157751083374023 -0.211265981197357178
-0.351888567209243774 -0.485846757888793945 -0.165760308504104614
-0.0748269855976104736 -0.120887987315654755 -0.304202347993850708
0.111313700675964355 -0.176502302289009094 0.17140081524848938
-0.614882171154022217 -0.999390661716461182 0.082678772509098053
-0.552908539772033691 -0.146518513560295105 0.00751449400559067726
-0.605723977088928223 -0.220791220664978027 -0.637416541576385498
-0.533327043056488037 -0.507595539093017578 0.141446769237518311
-0.424104928970336914 -0.503340005874633789 0.278402984142303467
-0.490365445613861084 -0.802094161510467529 0.12972414493560791
-0.425031721591949463 -0.440335184335708618 0.16916888952255249
-0.483554869890213013 -0.877850353717803955 0.144285038113594055
-0.000267425202764570713 -0.0186372343450784683 0.165930554270744324
0.171224713325500488 -0.365221023559570312 0.0673958137631416321
0.221731215715408325 -0.270073533058166504 -0.27217528223991394
0.106323041021823883 -0.271373540163040161 0.20632191002368927
-0.542404532432556152 -1.06003010272979736 0.101829759776592255
-0.995745062828063965 -0.151645049452781677 -0.326657295227050781
0.320688366889953613 -0.646601080894470215 -0.210067883133888245
-0.312959909439086914 -0.271418482065200806 -0.365257918834686279
-0.685355067253112793 -0.426436901092529297 -0.622158348560333252
-0.573518574237823486 -1.07455229759216309 0.0554378628730773926
-0.0478561148047447205 -0.254119783639907837 0.30465349555015564
-0.865153908729553223 -0.177446350455284119 -0.269901394844055176
-0.47700732946395874 -0.131702929735183716 -0.0388190858066082001
-0.985825538635253906 -0.307505577802658081 -0.682686090469360352
-1.09019434452056885 -0.170688703656196594 -0.470265418291091919
-0.543286919593811035 -0.110433533787727356 -0.542300224304199219
-0.585425019264221191 -0.0936511531472206116 -0.588454544544219971
-0.576665222644805908 -0.948749721050262451 0.0351145565509796143
-0.572832703590393066 -0.213353246450424194 -0.601465284824371338
0.118259929120540619 -0.224922820925712585 0.115798905491828918
-0.579291403293609619 -1.10123908519744873 0.0938431993126869202
-0.289765477180480957 -0.537721335887908936 0.0303372032940387726
-0.607529103755950928 -1.10524988174438477 0.160765916109085083
-0.48624226450920105 -0.216149717569351196 -0.0847227722406387329
-0.505085587501525879 -0.97202068567276001 0.0676573961973190308
0.153950899839401245 -0.194705486297607422 -0.375674694776535034
0.254651039838790894 -0.343325763940811157 -0.198092877864837646
-0.721260249614715576 -0.0984317809343338013 0.000785127631388604641
0.0144144175574183464 -0.0240801461040973663 0.168867573142051697
-0.207234770059585571 -0.213710978627204895 -0.433613121509552002
0.180339783430099487 -0.143743082880973816 -0.187659695744514465
0.135836899280548096 -0.156936600804328918 0.0740197375416755676
0.13427068293094635 -0.0177485216408967972 -0.00396630540490150452
-0.86103743314743042 -0.400749683380126953 -0.753122806549072266
-0.535317897796630859 -0.79662787914276123 0.0613447204232215881
-0.819028615951538086 -0.165539413690567017 0.14016038179397583
-0.549148738384246826 -0.861583352088928223 0.104339875280857086
-1.02093970775604248 -0.251316606998443604 -0.515282690525054932
-0.279036134481430054 -0.125266373157501221 0.285012811422348022
0.101722538471221924 -0.0487083643674850464 0.118651755154132843
-0.898095965385437012 -0.229045286774635315 -0.365817427635192871
-0.283284783363342285 -0.376149028539657593 -0.242421001195907593
-0.523258984088897705 -0.734470069408416748 0.11256726086139679
-0.714488744735717773 -0.0953248068690299988 0.0607152990996837616
-0.497886896133422852 -0.836459100246429443 0.0895872563123703003
-1.05904340744018555 -0.253083854913711548 -0.578961968421936035
-0.464718937873840332 -0.507848560810089111 -0.561684370040893555
-0.493755996227264404 0.0569350272417068481 0.0879952386021614075
0.186902329325675964 -0.375423640012741089 0.0314292050898075104
0.296738773584365845 -0.45248180627822876 -0.154766291379928589
0.219275012612342834 -0.357682287693023682 -0.0295037887990474701
-0.373216241598129272 -0.525992512702941895 0.0478852689266204834
-0.250697016716003418 -0.29665684700012207 -0.469639748334884644
-0.270724117755889893 -0.18766506016254425 -0.314169704914093018
-0.320267766714096069 -0.438524574041366577 -0.255740195512771606
0.180307820439338684 -0.394592463970184326 -0.476901978254318237
-0.217891305685043335 -0.211988240480422974 -0.444712936878204346
0.308562874794006348 -0.574171900749206543 -0.17601245641708374
-1.03706490993499756 -0.0402423925697803497 -0.249206796288490295
-0.516093194484710693 -0.460941284894943237 -0.617216944694519043
-0.970189154148101807 -0.303394854068756104 -0.565027475357055664
-0.570708155632019043 -0.470247119665145874 0.0138934226706624031
-0.837041139602661133 -0.262900054454803467 -0.388458460569381714
0.250099003314971924 -0.204438701272010803 -0.102706961333751678
-0.548738360404968262 -0.861841678619384766 0.108425155282020569
-0.810917556285858154 -0.0831926837563514709 0.00322457728907465935
-0.923295319080352783 -0.0783100053668022156 -0.217506766319274902
-0.503904819488525391 -0.0975305140018463135 -0.506526708602905273
-0.580922186374664307 -0.919620633125305176 0.0800396054983139038
-0.0268305931240320206 -0.279771715402603149 0.30314520001411438
-0.446335524320602417 -0.91684722900390625 0.0685248002409934998
-0.462333828210830688 -0.117436103522777557 -0.471775680780410767
-0.437211006879806519 -0.137376382946968079 -0.0366328395903110504
-0.0659901276230812073 -0.286030739545822144 -0.360322535037994385
-0.598865032196044922 -0.942060351371765137 0.127460137009620667
-0.923775017261505127 -0.311426937580108643 -0.537884950637817383
-0.75108039379119873 -0.433204710483551025 -0.670716285705566406
-0.436316639184951782 -0.0183521825820207596 -0.466668039560317993
-0.211332023143768311 -0.358151227235794067 -0.469583600759506226
-1.08340728282928467 -0.160987764596939087 -0.433702766895294189
0.268855810165405273 -0.498740106821060181 -0.314748197793960571
-0.328605830669403076 -0.441297143697738647 -0.609026491641998291
0.265187740325927734 -0.261999607086181641 -0.122045367956161499
-0.539698243141174316 -0.75182110071182251 0.047808576375246048
-0.886224091053009033 -0.336767196655273438 -0.545245468616485596
-0.416882336139678955 -0.509669244289398193 0.243024483323097229
-0.528314054012298584 -0.295443892478942871 -0.583909809589385986
0.0275197997689247131 -0.399897933006286621 -0.329185426235198975
0.200169995427131653 -0.193284645676612854 -0.282494872808456421
-1.08897435665130615 -0.264811247587203979 -0.629173457622528076
-0.683371424674987793 -0.417918920516967773 -0.25086897611618042
-0.376921504735946655 -0.291609436273574829 -0.420202523469924927
-0.495418459177017212 -0.392056018114089966 -0.57313239574432373
0.308716148138046265 -0.493344813585281372 -0.114433050155639648
-0.0444686263799667358 0.0181543920189142227 0.206172525882720947
-1.12106502056121826 0.0040752761997282505 -0.283007293939590454
-1.05559778213500977 -0.226797983050346375 -0.532277107238769531
-0.552175164222717285 -0.939622998237609863 0.163875177502632141
0.298867881298065186 -0.480450034141540527 -0.15968284010887146
-0.533938765525817871 -0.947181344032287598 0.0887843817472457886
-0.496021568775177002 -0.239837154746055603 -0.553798556327819824
-0.282462447881698608 -0.203451111912727356 -0.476653188467025757
-0.0509229861199855804 -0.151268899440765381 -0.309354692697525024
-0.383998006582260132 -0.118573114275932312 -0.396701782941818237
-0.146000534296035767 -0.207638204097747803 -0.371143102645874023
-0.586860835552215576 -1.0303955078125 0.0744452029466629028
0.304566949605941772 -0.643216371536254883 -0.283968120813369751
-0.246176660060882568 -0.2667960524559021 -0.472545057535171509
-0.667055964469909668 -1.06427288055419922 0.0918936878442764282
-0.366687208414077759 -0.654316723346710205 -0.0165812447667121887
0.145599231123924255 -0.498672425746917725 0.0152697591111063957
-0.496830999851226807 -0.06420937180519104 -0.470997989177703857
-0.258144617080688477 -0.415852218866348267 -0.542322099208831787
-1.13740718364715576 -0.174303799867630005 -0.574978649616241455
-0.0419774167239665985 -0.337095826864242554 -0.348035871982574463
0.100553184747695923 -0.327767938375473022 0.00674736034125089645
-0.0709352642297744751 -0.146227449178695679 0.264950454235076904
0.284180760383605957 -0.283658713102340698 -0.106861010193824768
-0.549122393131256104 -1.02511203289031982 0.0777829661965370178
0.146172657608985901 -0.225657477974891663 -0.412914752960205078
-0.399345248937606812 -0.465442866086959839 0.111459426581859589
-0.939864575862884521 -0.31118619441986084 -0.567586123943328857
-0.523453950881958008 -0.000225425726966932416 -0.533112943172454834
-0.938658297061920166 -0.081743188202381134 -0.288336724042892456
-0.983240067958831787 -0.0593471042811870575 -0.0167141389101743698
-0.907197237014770508 -0.328879654407501221 -0.511696755886077881
-0.819195985794067383 -0.402261167764663696 -0.701485037803649902
-0.0865917578339576721 -0.359344065189361572 0.400873452425003052
-0.591738104820251465 -0.912680566310882568 0.153084322810173035
-1.03455305099487305 -0.2853374183177948 -0.637374818325042725
-0.302965134382247925 -0.156377419829368591 -0.508471846580505371
-0.511695206165313721 0.0264877807348966599 0.0925256609916687012
0.130382359027862549 -0.395652145147323608 0.207726806402206421
-0.538707196712493896 -0.9857749342918396 0.104315869510173798
-0.91599804162979126 -0.331832617521286011 -0.60574716329574585
0.253960996866226196 -0.336672067642211914 -0.282011687755584717
-0.711479604244232178 -0.132684558629989624 0.105575829744338989
-0.262495487928390503 -0.0835062339901924133 -0.450091421604156494
0.335661888122558594 -0.532921016216278076 -0.128984585404396057
-0.101909495890140533 -0.11325710266828537 0.315468370914459229
0.319919973611831665 -0.603474855422973633 -0.208571538329124451
-0.944162607192993164 -0.311662286520004272 -0.551782608032226562
0.140414774417877197 -0.300009250640869141 0.112366333603858948
-0.858166098594665527 -0.359090954065322876 -0.533069431781768799
-0.016638975590467453 -0.358387500047683716 0.334287464618682861
-0.443978309631347656 -0.596548795700073242 0.0916910991072654724
-0.265077561140060425 -0.506519317626953125 -0.551925480365753174
-0.809209883213043213 -0.087373778223991394 -0.0473408997058868408
-0.462098270654678345 -0.568064868450164795 0.112585797905921936
-0.979454398155212402 -0.288497745990753174 -0.604843676090240479
-0.563601016998291016 -0.407848477363586426 -0.627983272075653076
0.0549813657999038696 -0.332408666610717773 -0.00946645811200141907
-0.0990758612751960754 -0.154370129108428955 -0.342250555753707886
-0.418683052062988281 -0.412038415670394897 -0.488092273473739624
-0.278811067342758179 -0.105100981891155243 -0.483454525470733643
0.242181509733200073 -0.278541982173919678 -0.263918876647949219
-0.539835929870605469 -1.02690744400024414 0.120041057467460632
