ply
format ascii 1.0
element vertex 717
property float x
property float y
property float z
end_header
0.115533694624900818 -0.0430487692356109619 -0.0357817076146602631
0.406186878681182861 0.217484816908836365 0.0492636188864707947
0.47020295262336731 0.320278167724609375 -0.201367557048797607
0.975623428821563721 0.866098999977111816 -0.377682924270629883
0.34883233904838562 0.302249640226364136 -0.0294176526367664337
0.740878283977508545 0.352328777313232422 -0.0874735638499259949
0.572367668151855469 -0.0755457952618598938 -0.141458749771118164
0.481926262378692627 0.427805632352828979 -0.350036293268203735
0.938578605651855469 0.32397007942199707 -0.171918570995330811
0.720951199531555176 0.0490691885352134705 0.110242746770381927
0.661530196666717529 -0.0726184770464897156 -0.205593839287757874
0.524843990802764893 0.177934467792510986 -0.235893756151199341
0.335604727268218994 0.313461512327194214 -0.0237675253301858902
0.499020606279373169 0.0712842419743537903 -0.0977989137172698975
0.958068788051605225 0.333159476518630981 -0.215227246284484863
0.285449951887130737 0.0630125924944877625 0.189860746264457703
0.410173475742340088 0.124352224171161652 0.0717960670590400696
0.513765335083007812 -0.22890789806842804 0.418530017137527466
0.433882743120193481 0.165127277374267578 -0.123113319277763367
0.853583872318267822 0.110173217952251434 -0.290899872779846191
0.35300743579864502 0.254584312438964844 0.0985529422760009766
0.532045960426330566 0.131523549556732178 0.0825802534818649292
0.724549591541290283 0.0561757683753967285 0.156777292490005493
0.388123929500579834 0.122452720999717712 0.253748893737792969
0.453275442123413086 0.215375244617462158 -0.00779320579022169113
0.639042198657989502 -0.0478982068598270416 -0.240968987345695496
0.815490365028381348 0.423012346029281616 -0.305042237043380737
0.634914278984069824 0.189152538776397705 -0.131135597825050354
1.01773273944854736 0.631887733936309814 -0.397828042507171631
0.132938176393508911 -0.194731414318084717 -0.185291826725006104
0.854591190814971924 0.260301381349563599 0.0293526314198970795
0.670776844024658203 -0.0537237226963043213 -0.25393792986869812
0.552936017513275146 0.332926720380783081 0.0674266666173934937
0.660035490989685059 -0.0190059114247560501 0.149426296353340149
0.496414303779602051 -0.122181721031665802 0.00724051054567098618
0.92486119270324707 0.619503796100616455 -0.335708320140838623
0.419596284627914429 0.0482534542679786682 -0.300444513559341431
0.639667928218841553 -0.0869391411542892456 -0.123820655047893524
0.46774446964263916 -0.119456231594085693 0.400509834289550781
0.664939761161804199 0.111914969980716705 -0.158878907561302185
0.35690721869468689 -0.235110431909561157 -0.155090957880020142
0.361586958169937134 0.427806288003921509 -0.350912988185882568
0.699414610862731934 0.245094984769821167 -0.139476433396339417
0.629585802555084229 -0.164214327931404114 0.0431527160108089447
0.849542796611785889 0.133625030517578125 -0.117756180465221405
0.393353551626205444 0.142027631402015686 -0.211580514907836914
0.434409052133560181 0.0509700886905193329 0.0636284202337265015
0.808393955230712891 0.674477219581604004 -0.487311303615570068
0.597863435745239258 0.0907869786024093628 -0.165229842066764832
0.761534631252288818 0.045910172164440155 -0.0167768634855747223
0.215143412351608276 -0.324227124452590942 -0.147035703063011169
0.81116640567779541 0.470918416976928711 -0.154734358191490173
0.477375447750091553 0.152038350701332092 0.061225544661283493
0.272807151079177856 0.270034521818161011 -0.271864354610443115
0.658559501171112061 0.152872487902641296 -0.0609398745000362396
0.710923194885253906 0.243471413850784302 -0.171818211674690247
0.507762670516967773 0.905090749263763428 -0.404251307249069214
0.366403460502624512 0.303031086921691895 -0.0823919326066970825
0.833983361721038818 -0.275205790996551514 -0.0824108794331550598
0.789630651473999023 0.197137549519538879 -0.320705890655517578
0.882672488689422607 0.0435643792152404785 -0.286399424076080322
0.397545129060745239 -0.579402387142181396 0.0454566217958927155
0.512423992156982422 -0.517203390598297119 -0.0187661387026309967
0.714782595634460449 -0.111207850277423859 0.0747363343834877014
0.682338833808898926 0.254143774509429932 -0.0935053080320358276
0.508784890174865723 0.0116337724030017853 0.202238038182258606
0.678551316261291504 0.552955925464630127 -0.436479270458221436
0.305540740489959717 0.182907804846763611 -0.315392524003982544
0.457798779010772705 0.202961638569831848 0.098426133394241333
0.585333764553070068 0.880066871643066406 -0.472453981637954712
0.65619659423828125 0.424789935350418091 -0.363797605037689209
0.451976120471954346 -0.163875743746757507 0.0553004071116447449
0.416951686143875122 0.211093142628669739 -0.113178856670856476
0.379427582025527954 0.151809290051460266 0.0396044552326202393
0.509790539741516113 -0.0738470479846000671 -0.0637819692492485046
1.16202282905578613 0.887649834156036377 -0.417527675628662109
0.856916964054107666 0.65633469820022583 -0.140326395630836487
0.448172390460968018 0.395422428846359253 -0.337421417236328125
0.53941112756729126 0.590069770812988281 0.0132009563967585564
0.773491740226745605 0.74736863374710083 -0.441068887710571289
0.633323609828948975 0.215864852070808411 -0.0902795940637588501
0.41371917724609375 0.342875421047210693 0.0402176529169082642
0.429012060165405273 0.547907710075378418 -0.356670796871185303
0.888986527919769287 -0.0974179580807685852 -0.190734416246414185
0.704207062721252441 0.437068372964859009 -0.152139440178871155
0.584216713905334473 0.366284757852554321 -0.189484834671020508
0.499177485704421997 0.402106642723083496 -0.191637679934501648
0.641073942184448242 0.240842878818511963 -0.163441821932792664
0.743694186210632324 0.460002809762954712 -0.386129260063171387
0.700734794139862061 0.392458975315093994 -0.0576178021728992462
0.683821678161621094 0.373749762773513794 -0.333151191473007202
0.703675508499145508 -0.192319512367248535 0.303345054388046265
0.888616502285003662 0.66930091381072998 -0.179714813828468323
0.671061575412750244 0.405540496110916138 -0.116938918828964233
0.578290104866027832 -0.0737251117825508118 0.18409024178981781
0.562306344509124756 0.226318106055259705 -0.238322168588638306
0.675919890403747559 0.19088059663772583 -0.280449360609054565
0.298049628734588623 -0.0113435694947838783 -0.00877487752586603165
0.266584962606430054 -0.575169920921325684 0.0653633922338485718
0.633822023868560791 0.113349378108978271 0.018146442249417305
0.985010981559753418 0.100373528897762299 -0.150023877620697021
1.0376441478729248 0.0409596860408782959 -0.17670750617980957
0.141304612159729004 -0.351786881685256958 0.0512218885123729706
0.180315181612968445 0.00434996467083692551 -0.00278877001255750656
0.774663209915161133 -0.0459875985980033875 0.177957937121391296
0.665268003940582275 -0.133608803153038025 -0.058578144758939743
0.326806396245956421 0.197233617305755615 0.0980532392859458923
0.516725122928619385 -0.62312626838684082 0.239802911877632141
0.401259720325469971 -0.429649591445922852 -0.119948402047157288
0.595337867736816406 0.851398825645446777 -0.104577064514160156
0.830336987972259521 0.591149866580963135 -0.407411009073257446
0.490291625261306763 0.0400532782077789307 0.0836032330989837646
0.234350547194480896 0.0866323336958885193 0.257400959730148315
0.563940525054931641 -0.234360665082931519 -0.0264208074659109116
0.622620820999145508 -0.144446790218353271 -0.148794680833816528
0.328810751438140869 0.129715576767921448 0.274758040904998779
0.387057900428771973 -0.323084473609924316 0.482481986284255981
0.584179341793060303 0.304005146026611328 -0.150835052132606506
0.961351990699768066 0.670364141464233398 -0.247399106621742249
0.535026431083679199 -0.172958582639694214 0.0276816338300704956
0.539121091365814209 0.000960966339334845543 0.248289495706558228
1.22472226619720459 0.815744519233703613 -0.33247414231300354
0.808841824531555176 0.566588640213012695 0.102957375347614288
0.947855472564697266 0.455375254154205322 -0.355657666921615601
0.239339262247085571 0.0184815898537635803 0.118645355105400085
0.132003262639045715 -0.239195093512535095 0.240861549973487854
0.550248563289642334 0.284291774034500122 -0.283137142658233643
1.10734939575195312 0.436142861843109131 -0.373099446296691895
0.256268113851547241 0.141520991921424866 -0.294815570116043091
0.141860529780387878 -0.39609140157699585 0.0857952162623405457
0.359998464584350586 0.0402745455503463745 -0.219363242387771606
0.849462926387786865 0.434645265340805054 -0.0562245436012744904
0.114295452833175659 -0.199912518262863159 0.0869305282831192017
0.825981259346008301 0.577315866947174072 -0.251535266637802124
0.816485464572906494 -0.0137611515820026398 0.0807044357061386108
0.241706117987632751 -0.392396658658981323 -0.0922747552394866943
0.800677955150604248 0.396308332681655884 -0.376036643981933594
0.582346677780151367 -0.140307888388633728 -0.118725188076496124
0.629843652248382568 0.00254026730544865131 -0.152717351913452148
0.838438808917999268 0.546261966228485107 -0.326579898595809937
0.864253044128417969 -0.197413042187690735 0.0602121986448764801
0.766460895538330078 0.0162685532122850418 -0.182932853698730469
0.415094166994094849 0.0880702435970306396 -0.258393168449401855
0.462913781404495239 -0.28501930832862854 -0.171448871493339539
0.257919520139694214 -0.472759485244750977 0.351719707250595093
0.961512565612792969 0.64722132682800293 -0.401008278131484985
0.44158896803855896 0.0571999400854110718 0.387812435626983643
0.444214195013046265 0.0427281185984611511 -0.179726585745811462
0.464186608791351318 -0.23546166718006134 -0.108522519469261169
0.120127074420452118 -0.0223931316286325455 -0.0710917040705680847
0.526165783405303955 0.43555837869644165 -0.356302946805953979
0.710226595401763916 0.637727022171020508 -0.358660727739334106
0.809373259544372559 -0.0157338008284568787 -0.023286871612071991
0.329572111368179321 -0.00900320149958133698 -0.0552860237658023834
0.748226404190063477 -0.121116645634174347 0.170417428016662598
0.252700299024581909 0.399329245090484619 -0.29203459620475769
0.49320518970489502 0.347309857606887817 0.0191650092601776123
0.85433351993560791 0.340564429759979248 0.0188347343355417252
0.592728793621063232 0.112785458564758301 -0.16352669894695282
0.50611037015914917 0.915135800838470459 -0.493856579065322876
0.794420301914215088 0.137346014380455017 0.0432973094284534454
0.614032268524169922 0.13640381395816803 -0.167988866567611694
0.711630940437316895 0.270468354225158691 -0.088122837245464325
0.414082646369934082 0.0358631648123264313 0.325775176286697388
0.520310103893280029 -0.00126420962624251842 -0.213660940527915955
0.115333288908004761 0.024324880912899971 0.0451540388166904449
0.977109670639038086 0.301425009965896606 -0.366590112447738647
0.208573892712593079 -0.259239643812179565 0.37073180079460144
0.692775130271911621 -0.270773410797119141 -0.151292994618415833
0.592965543270111084 0.371414929628372192 0.0461316630244255066
0.813144326210021973 0.533660471439361572 0.045140538364648819
0.49545702338218689 0.469216138124465942 -0.218828529119491577
0.576556682586669922 0.634492099285125732 -0.357629537582397461
0.439984917640686035 0.522833347320556641 -0.0971912369132041931
0.605688631534576416 -0.403654217720031738 -0.120512343943119049
0.837772130966186523 0.324142038822174072 -0.165086656808853149
0.473673015832901001 0.317122727632522583 -0.0371485836803913116
0.184873715043067932 -0.393213987350463867 0.00841208454221487045
0.559789955615997314 0.452023893594741821 -0.214367151260375977
0.569779455661773682 0.215010836720466614 -0.305677801370620728
0.798258662223815918 0.0982035622000694275 -0.125666588544845581
0.345184981822967529 -0.115601561963558197 -0.0427496619522571564
0.835261106491088867 0.759786009788513184 -0.36233636736869812
0.747871696949005127 0.508478999137878418 -0.14160493016242981
0.254004359245300293 -0.0167893823236227036 -0.242529571056365967
0.824213385581970215 -0.275339245796203613 0.0733482614159584045
0.191434219479560852 0.113603405654430389 -0.294111013412475586
0.361649274826049805 0.13172563910484314 -0.284065604209899902
0.704176604747772217 0.541562318801879883 -0.241894856095314026
0.629840314388275146 -0.2892608642578125 -0.167826473712921143
0.553360700607299805 0.845420718193054199 -0.153892025351524353
0.192025601863861084 -0.0974110886454582214 -0.0559497512876987457
0.366873204708099365 -0.201820850372314453 -0.0809704586863517761
0.811895370483398438 0.381965607404708862 -0.118404895067214966
0.867063581943511963 0.169317126274108887 -0.294737339019775391
1.21653532981872559 0.645485937595367432 -0.4851035475730896
0.860888957977294922 -0.175252407789230347 0.105991765856742859
0.181648865342140198 -0.1616230309009552 0.29249805212020874
0.600434422492980957 0.335989475250244141 0.00415421649813652039
0.609624981880187988 0.170190244913101196 0.0451943911612033844
0.458744466304779053 0.330717772245407104 0.0137559939175844193
0.432196527719497681 0.245951950550079346 -0.276722967624664307
0.461786478757858276 0.0329685956239700317 -0.272058337926864624
0.489346474409103394 -0.0427070632576942444 0.00922905746847391129
0.554450094699859619 -0.346002012491226196 0.439112007617950439
0.432853430509567261 0.281528443098068237 -0.324647456407546997
0.997822761535644531 0.0384611859917640686 -0.226510375738143921
0.960731625556945801 0.536098301410675049 -0.32604670524597168
0.9288138747215271 -0.212371587753295898 -0.230347990989685059
0.897835254669189453 0.674588799476623535 -0.286375492811203003
0.530179142951965332 0.121716946363449097 -0.226095274090766907
0.559695065021514893 0.118000701069831848 0.169863477349281311
0.483596175909042358 0.390191406011581421 -0.292480289936065674
0.782347917556762695 0.808078527450561523 -0.302221447229385376
0.773725330829620361 0.135198652744293213 -0.0993479266762733459
0.246269464492797852 0.305910021066665649 -0.304182499647140503
0.648801803588867188 -0.284519076347351074 -0.0698296055197715759
0.760725140571594238 0.528422951698303223 -0.0291262045502662659
0.471083074808120728 -0.604154586791992188 0.279950231313705444
0.658539533615112305 0.427595317363739014 -0.0639642998576164246
0.578852355480194092 0.401941269636154175 -0.0676133856177330017
0.807643771171569824 0.0492660738527774811 -0.116534054279327393
0.366418719291687012 0.385387033224105835 -0.32564014196395874
0.742187678813934326 0.302613914012908936 0.0315888263285160065
0.218766123056411743 0.0728864073753356934 0.086680881679058075
0.595435798168182373 0.00423920806497335434 -0.00480283843353390694
0.488208353519439697 0.588622152805328369 -0.440304279327392578
0.67324674129486084 0.0555643849074840546 0.170775428414344788
0.410830467939376831 -0.0582824051380157471 0.366431921720504761
0.332903087139129639 -0.290585368871688843 0.456401735544204712
0.115638487040996552 -0.1359977126121521 0.0428321585059165955
0.64063948392868042 0.117620624601840973 0.100191079080104828
0.760135471820831299 -0.0278988666832447052 -0.104076825082302094
0.488753676414489746 0.262144267559051514 0.152763277292251587
0.439044952392578125 -0.50039374828338623 -0.119356453418731689
0.643056094646453857 0.526648640632629395 -0.0171855296939611435
0.225450083613395691 -0.541937172412872314 0.246983766555786133
0.537817776203155518 -0.526392519474029541 0.0465167760848999023
0.768069148063659668 0.342529177665710449 -0.116529032588005066
0.954861998558044434 0.658579587936401367 -0.329408138990402222
0.937675833702087402 0.432264506816864014 0.0266934409737586975
0.781673312187194824 0.182342976331710815 -0.130145326256752014
0.227295204997062683 -0.586182236671447754 0.183566346764564514
0.635813534259796143 0.103994831442832947 -0.0927158743143081665
0.764233887195587158 0.507094085216522217 -0.345800340175628662
0.581044554710388184 0.210711210966110229 -0.17718447744846344
0.798194348812103271 -0.101629741489887238 -0.24156557023525238
0.627466499805450439 -0.436436921358108521 -0.0822548791766166687
0.76833343505859375 0.431276470422744751 -0.298095971345901489
1.14103317260742188 0.607103288173675537 -0.221388310194015503
0.541026294231414795 -0.241398274898529053 -0.167309120297431946
0.670558810234069824 -0.177917927503585815 0.328070759773254395
0.687445580959320068 -0.05822029709815979 0.0590336062014102936
0.687541484832763672 0.013668387196958065 -0.0440742596983909607
0.794635117053985596 0.569940567016601562 0.0321130380034446716
0.509932875633239746 0.0430318638682365417 0.292037367820739746
0.479922562837600708 0.183601602911949158 0.0586433708667755127
0.630482673645019531 0.3891143798828125 -0.140175655484199524
0.578673899173736572 0.00991491880267858505 -0.0551775097846984863
0.557702481746673584 0.410917758941650391 -0.26140981912612915
0.217189490795135498 -0.0964259728789329529 0.306154429912567139
0.32070392370223999 -0.436746269464492798 -0.0841760039329528809
0.826617062091827393 -0.124580696225166321 0.190560087561607361
1.03304219245910645 0.434840857982635498 -0.353894025087356567
0.590313196182250977 0.211353510618209839 0.00458287680521607399
0.59596484899520874 0.241546779870986938 -0.189411327242851257
0.45229300856590271 0.474604606628417969 -0.267442762851715088
0.992338776588439941 0.310071051120758057 -0.216844558715820312
0.709438860416412354 0.364565223455429077 -0.0297019276767969131
0.655858397483825684 0.503304183483123779 -0.0644900500774383545
0.564659595489501953 0.213731557130813599 -0.0599860288202762604
0.637449026107788086 0.156975537538528442 -0.23392823338508606
0.862570047378540039 0.116628572344779968 -0.0667912140488624573
0.299054771661758423 -0.378341466188430786 -0.126178398728370667
0.178978338837623596 0.0421712137758731842 0.0411940142512321472
0.280016154050827026 0.122025541961193085 0.291912615299224854
0.402773857116699219 0.114108540117740631 -0.232871472835540771
0.828284859657287598 0.0380747281014919281 0.0221389923244714737
0.605719566345214844 -0.466709345579147339 -0.0093417121097445488
0.652591288089752197 -0.43312796950340271 0.001269954489544034
0.0974468067288398743 -0.0923711508512496948 -0.0562351234257221222
1.20446884632110596 0.762757658958435059 -0.283294230699539185
0.48141142725944519 0.376245051622390747 0.0280028674751520157
0.494462162256240845 0.749742746353149414 -0.34314456582069397
0.485671311616897583 0.430159389972686768 -0.18260529637336731
0.586782515048980713 0.122237607836723328 -0.0389362350106239319
0.754856407642364502 0.760537862777709961 -0.163309529423713684
0.673468232154846191 0.0554532110691070557 0.00195027259178459644
0.442238032817840576 -0.0021245849784463644 0.08073434978723526
0.731388866901397705 -0.130024343729019165 0.0336018092930316925
0.575027644634246826 0.0793625414371490479 -0.266537457704544067
0.368757694959640503 -0.573412299156188965 0.271626293659210205
0.648925185203552246 0.0102928923442959785 0.0566538646817207336
0.89400714635848999 0.565678417682647705 -0.291002929210662842
1.08496940135955811 0.632302999496459961 -0.285214096307754517
0.465408205986022949 0.173148944973945618 0.0255019254982471466
0.728030502796173096 -0.277993440628051758 0.248010188341140747
0.408333331346511841 0.387522965669631958 -0.356078535318374634
0.561021804809570312 0.337506473064422607 -0.269535481929779053
0.433389067649841309 -0.0611907504498958588 -0.229671195149421692
0.327918440103530884 0.0700010806322097778 0.227667078375816345
0.405493944883346558 0.114331655204296112 -0.0700404420495033264
0.795839667320251465 0.0518609918653964996 -0.215669542551040649
0.499135792255401611 0.0293879136443138123 -0.0611048564314842224
0.362994164228439331 -0.0016575023764744401 -0.20886366069316864
0.605377554893493652 0.277171194553375244 0.0444527864456176758
0.817600011825561523 0.235963240265846252 -0.262878149747848511
0.743257343769073486 0.345607846975326538 -0.112995237112045288
0.329015731811523438 -0.108384564518928528 0.0456234924495220184
0.517476201057434082 -0.0790793523192405701 -0.113085366785526276
0.722380518913269043 -0.23982161283493042 -0.0891446247696876526
0.47706073522567749 -0.55476081371307373 0.34353107213973999
0.547121644020080566 -0.556544780731201172 0.352484345436096191
0.690102517604827881 -0.0452739819884300232 0.246616989374160767
0.514324605464935303 0.0420145280659198761 -0.0899179801344871521
0.714342176914215088 -0.0531972795724868774 -0.101447790861129761
0.703082859516143799 -0.172790184617042542 -0.0964465886354446411
0.537036418914794922 0.15342143177986145 -0.307976216077804565
0.682746171951293945 0.392314940690994263 -0.143321588635444641
0.512761175632476807 0.138844594359397888 0.0346473492681980133
0.435599595308303833 -0.182088419795036316 -0.0180332884192466736
0.826907336711883545 -0.295578509569168091 -0.0188036784529685974
0.719041883945465088 0.460049808025360107 -0.131018459796905518
0.718714237213134766 -0.403578877449035645 0.164323478937149048
0.377813875675201416 0.0976150035858154297 -0.0897347405552864075
0.483615785837173462 0.26814684271812439 0.00289053167216479778
0.805170118808746338 0.293212205171585083 0.0224307496100664139
0.729967653751373291 0.373576521873474121 0.026272997260093689
0.428549498319625854 0.729706227779388428 -0.326604872941970825
0.406953305006027222 -0.44965285062789917 0.48260071873664856
0.539409339427947998 0.718855023384094238 -0.370286345481872559
0.768754065036773682 0.255557477474212646 -0.276745885610580444
0.5905190110206604 0.110334642231464386 -0.277819931507110596
0.830374419689178467 0.0477115996181964874 -0.140759572386741638
0.623071849346160889 0.942106842994689941 -0.418765544891357422
0.479719310998916626 -0.109591446816921234 -0.178342923521995544
0.583777248859405518 0.72533106803894043 -0.453049808740615845
0.262211710214614868 0.0981596857309341431 -0.0730007067322731018
1.11739718914031982 0.579877257347106934 -0.0939412117004394531
0.626352250576019287 0.286267757415771484 -0.0113991722464561462
0.590852141380310059 0.0835248380899429321 -0.011990867555141449
0.639851212501525879 0.343601703643798828 -0.152626410126686096
0.804789185523986816 0.269850701093673706 -0.160811156034469604
0.572674989700317383 0.0352255925536155701 -0.113964863121509552
0.732276439666748047 0.187515929341316223 -0.173050388693809509
0.541608572006225586 -0.134570643305778503 -0.129952043294906616
0.692614734172821045 0.401406228542327881 0.0185815952718257904
0.696112990379333496 0.177244558930397034 -0.0856019333004951477
0.735723376274108887 0.139716982841491699 -0.235494464635848999
0.98236382007598877 0.306317031383514404 -0.322739988565444946
0.236514434218406677 -0.401405900716781616 0.417005628347396851
0.363632708787918091 0.13751181960105896 -0.083972640335559845
0.989120662212371826 0.501179337501525879 -0.230306223034858704
0.166487649083137512 -0.542630434036254883 0.15954996645450592
0.383680254220962524 -0.039214596152305603 -0.0521982014179229736
0.66720956563949585 0.225138604640960693 -0.0850630030035972595
0.995836019515991211 0.603481411933898926 -0.369164705276489258
0.451824992895126343 0.288254648447036743 0.119309484958648682
0.717134773731231689 0.0102600902318954468 -0.154889300465583801
0.448022276163101196 0.216381773352622986 -0.102298423647880554
0.81963038444519043 -0.196305900812149048 0.171528145670890808
0.56360316276550293 -0.558206617832183838 0.314331114292144775
0.81511235237121582 0.353928059339523315 -0.273773640394210815
0.856558740139007568 0.348995834589004517 -0.202494487166404724
1.10555422306060791 0.372517496347427368 -0.228352129459381104
0.637776494026184082 0.481523275375366211 -0.199984297156333923
0.252244234085083008 -0.164420366287231445 -0.181476041674613953
0.644772946834564209 0.481967687606811523 -0.0832480266690254211
0.462776005268096924 0.382076829671859741 -0.0250642392784357071
0.638454556465148926 0.302921384572982788 -0.0364528894424438477
0.224804118275642395 0.124391146004199982 0.187438488006591797
0.775599658489227295 0.51912844181060791 -0.373483002185821533
0.759597659111022949 -0.209595218300819397 0.235245510935783386
0.818494796752929688 0.183037638664245605 -0.212351039052009583
0.717904865741729736 -0.270511209964752197 -0.109558895230293274
0.19996817409992218 -0.209822595119476318 0.342538326978683472
0.694259762763977051 -0.109882600605487823 -0.103017859160900116
0.627371609210968018 0.141050651669502258 -0.212489098310470581
1.20288693904876709 0.756232678890228271 -0.2121991366147995
0.661399185657501221 0.303434193134307861 0.0479729436337947845
0.715249836444854736 -0.10081857442855835 0.312921673059463501
0.815820038318634033 0.317848503589630127 0.119613274931907654
0.534890472888946533 -0.0836206600069999695 0.0358000248670578003
0.657182574272155762 0.343897759914398193 0.0312880463898181915
0.870421171188354492 0.26815265417098999 -0.118116848170757294
1.12421286106109619 0.483674585819244385 -0.333811461925506592
0.462823301553726196 0.0145006347447633743 -0.0899781361222267151
0.516958713531494141 0.367759585380554199 -0.270018428564071655
0.735490500926971436 -0.239344879984855652 -0.00542479101568460464
0.69692915678024292 0.129031509160995483 -0.19872671365737915
0.62631911039352417 0.109718769788742065 0.18824489414691925
0.563224077224731445 -0.498068839311599731 0.0020755622535943985
0.540071845054626465 0.133840769529342651 -0.0514632090926170349
0.860156059265136719 0.535163819789886475 0.0334310382604598999
0.393569469451904297 0.213538274168968201 0.0167193207889795303
0.154732301831245422 -0.31013798713684082 -0.0153649244457483292
0.514899611473083496 0.174493581056594849 -0.168905183672904968
0.199669256806373596 -0.333562195301055908 0.411076903343200684
0.507697761058807373 0.00784623902291059494 0.107542410492897034
0.456812769174575806 0.246819421648979187 0.070598304271697998
0.51098865270614624 -0.0515755191445350647 -0.0238394122570753098
0.709097504615783691 -0.0240228548645973206 -0.170760378241539001
0.701371192932128906 -0.0942159742116928101 -0.0435485094785690308
1.18983912467956543 0.794165432453155518 -0.234069392085075378
0.546797752380371094 -0.102050647139549255 -0.215153962373733521
0.524310827255249023 -0.104685820639133453 0.401726275682449341
0.508562445640563965 0.270317256450653076 -0.139409199357032776
0.758859395980834961 0.0389669127762317657 -0.0891330167651176453
0.445239841938018799 0.278398245573043823 -0.14705890417098999
1.19412589073181152 0.836659252643585205 -0.38639947772026062
0.641795992851257324 0.646447837352752686 -0.423113733530044556
0.450124353170394897 0.325321942567825317 0.0596765689551830292
0.478560745716094971 0.483498185873031616 -0.256245315074920654
0.673182427883148193 -0.300836861133575439 -0.174835845828056335
0.867098152637481689 0.333409637212753296 -0.283952921628952026
0.793527722358703613 0.555409610271453857 -0.124041035771369934
0.496566236019134521 -0.204337045550346375 -0.0395191013813018799
0.600875556468963623 0.700263381004333496 -0.315164834260940552
0.893429934978485107 0.157715722918510437 -0.11063782125711441
0.175661042332649231 -0.290117919445037842 -0.0609090700745582581
0.312757194042205811 -0.0585085861384868622 -0.186118021607398987
0.372695177793502808 -0.492520570755004883 -0.0699167028069496155
0.580999612808227539 -0.0747349634766578674 -0.256861060857772827
0.95681464672088623 0.323853462934494019 -0.337371736764907837
0.519163310527801514 -0.297968238592147827 -0.175656363368034363
0.693523168563842773 0.444734662771224976 -0.122555457055568695
0.857330799102783203 0.0308208707720041275 0.0780203342437744141
0.421024203300476074 0.178176090121269226 -0.267799019813537598
0.680208086967468262 0.481067091226577759 -0.16533254086971283
0.697146594524383545 0.174888312816619873 -0.307043075561523438
0.354676157236099243 0.222099438309669495 -0.266375482082366943
0.4433327317237854 0.334890842437744141 -0.146388068795204163
0.745232343673706055 0.110232926905155182 0.0653406828641891479
0.441065996885299683 0.165290355682373047 -0.0511140190064907074
0.544198095798492432 0.0644034221768379211 -0.270944386720657349
0.393977493047714233 -0.117079004645347595 -0.00131495099049061537
0.666321635246276855 0.608815312385559082 -0.387499868869781494
0.913793265819549561 0.415039032697677612 -0.361092746257781982
0.133361861109733582 -0.237184405326843262 0.0516521073877811432
0.402413636445999146 0.00230806716717779636 -0.0656280219554901123
0.40199810266494751 0.071437545120716095 -0.0366529449820518494
0.562961578369140625 -0.287646085023880005 -0.114508695900440216
0.205072477459907532 -0.041946113109588623 -0.0708573907613754272
0.622646033763885498 -0.439336478710174561 0.346363425254821777
0.497350066900253296 -0.313938140869140625 0.439347922801971436
0.367775231599807739 0.196369290351867676 -0.252261817455291748
0.170748278498649597 0.0132052041590213776 0.173812791705131531
0.538351297378540039 0.145409300923347473 -0.167944476008415222
0.83962017297744751 0.487105190753936768 -0.264734178781509399
0.661374568939208984 0.0657017976045608521 -0.0794970840215682983
0.455653369426727295 -0.671824634075164795 0.219986915588378906
0.688874304294586182 0.127043738961219788 0.0387379825115203857
0.377589970827102661 0.261256158351898193 0.153937339782714844
0.743357956409454346 0.560238182544708252 0.0315067581832408905
0.486612826585769653 0.00357862259261310101 -0.126862987875938416
0.384061604738235474 0.159676626324653625 -0.0744336023926734924
0.882798194885253906 -0.218227893114089966 0.01188675407320261
0.695838451385498047 0.00561302946880459785 -0.257843375205993652
0.924100875854492188 0.00723774125799536705 -0.223965391516685486
0.720634758472442627 -0.386132478713989258 -0.00222536548972129822
0.52728348970413208 0.12691575288772583 -0.181571543216705322
0.601555109024047852 0.235423371195793152 -0.0817881599068641663
1.05509388446807861 0.254705220460891724 -0.139063045382499695
0.598826944828033447 0.0942897871136665344 0.127936273813247681
0.19883430004119873 -0.241129457950592041 -0.164610564708709717
0.335920423269271851 -0.0349011421203613281 -0.188668116927146912
0.11344601958990097 -0.177529767155647278 0.052442643791437149
0.723570287227630615 0.00785562582314014435 0.252586245536804199
0.3813285231590271 0.10153159499168396 0.33087468147277832
1.20926225185394287 0.746963381767272949 -0.457955449819564819
0.382112056016921997 -0.613509058952331543 0.0795511975884437561
0.506698548793792725 0.37359386682510376 -0.0325295664370059967
0.828917384147644043 0.295275270938873291 -0.225675404071807861
0.775371730327606201 0.650155067443847656 -0.313998222351074219
0.596882164478302002 0.122340627014636993 0.0075848093256354332
0.29435303807258606 0.137522086501121521 -0.0994014665484428406
0.641425788402557373 -0.0574079938232898712 -0.0799263790249824524
0.943745791912078857 0.648636102676391602 -0.446092396974563599
0.573750793933868408 0.821825623512268066 -0.0455872751772403717
1.07447445392608643 0.495964676141738892 -0.423252373933792114
0.82976919412612915 0.539194285869598389 -0.118943624198436737
0.737151622772216797 0.326651960611343384 0.00872729532420635223
0.13339628279209137 -0.146618902683258057 -0.0361666791141033173
1.15395903587341309 0.823573708534240723 -0.304487317800521851
0.529016315937042236 0.126493439078330994 -0.0119534330442547798
0.679339468479156494 0.30553126335144043 0.0879108980298042297
0.534246146678924561 0.0193315409123897552 -0.0534570589661598206
0.51217043399810791 -0.219777956604957581 -0.174259409308433533
0.32930833101272583 0.0428482815623283386 -0.274516463279724121
0.532861173152923584 -0.00753089739009737968 -0.170156523585319519
0.385405272245407104 -0.0754397958517074585 0.0823533311486244202
0.786142349243164062 0.171121597290039062 -0.0842644870281219482
0.796895146369934082 0.0353456474840641022 -0.125500515103340149
0.796554207801818848 0.0550849214196205139 0.0765981376171112061
0.155445665121078491 -0.0304421801120042801 0.169130265712738037
0.663075804710388184 -0.0217420868575572968 0.349772334098815918
0.465573221445083618 -0.195536449551582336 0.0579369626939296722
1.04294979572296143 0.222790271043777466 -0.172268092632293701
1.0194779634475708 0.242954373359680176 -0.307632714509963989
1.16663444042205811 0.888955175876617432 -0.348011165857315063
0.708540081977844238 0.243229508399963379 -0.0507510341703891754
0.584631502628326416 -0.105322614312171936 0.355670899152755737
0.732480049133300781 0.452145755290985107 -0.386385977268218994
0.460338503122329712 -0.0691952705383300781 -0.0828291848301887512
0.136741921305656433 -0.282560437917709351 -0.0126593653112649918
0.313998252153396606 -0.141280055046081543 0.373810887336730957
1.01898729801177979 0.66299206018447876 -0.24679921567440033
0.620995044708251953 -0.131948083639144897 -0.109062768518924713
0.229057952761650085 -0.0685455948114395142 -0.0047780107706785202
0.674732983112335205 0.120961181819438934 -0.0114953331649303436
0.563968420028686523 0.332611292600631714 -0.124290324747562408
0.830112636089324951 0.0296331290155649185 -0.0327678509056568146
0.602582573890686035 -0.0652336180210113525 -0.0655188560485839844
0.483920395374298096 0.510724544525146484 -0.161007389426231384
0.562087118625640869 0.241268932819366455 -0.123289398849010468
0.342317193746566772 0.126032277941703796 -0.060444612056016922
0.318163156509399414 0.107322759926319122 -0.262203425168991089
0.922920942306518555 0.501196920871734619 -0.279889494180679321
0.732244968414306641 -0.0453784875571727753 0.194747164845466614
0.406766355037689209 0.00949480850249528885 -0.110175475478172302
0.889697253704071045 0.13834284245967865 -0.224968940019607544
0.449642091989517212 -0.158864900469779968 -0.198355495929718018
0.594383597373962402 0.406616181135177612 -0.365539461374282837
0.396402835845947266 -0.037759050726890564 -0.246318638324737549
0.556276619434356689 0.899586260318756104 -0.471548467874526978
0.668904602527618408 0.923347234725952148 -0.409811407327651978
0.491931557655334473 0.302434682846069336 -0.231219321489334106
0.543218255043029785 -0.0244315043091773987 -0.0423090457916259766
0.544682204723358154 0.114719852805137634 0.0539984293282032013
0.809651970863342285 0.601311385631561279 -0.27915191650390625
0.428762078285217285 0.208867058157920837 -0.198337256908416748
0.688778519630432129 0.025222383439540863 -0.130103170871734619
0.974173665046691895 0.108582481741905212 -0.1039581298828125
1.08153009414672852 0.662951648235321045 -0.260938882827758789
1.01614546775817871 -0.00287282676436007023 -0.260059118270874023
0.537388443946838379 0.3754844069480896 -0.203962236642837524
0.583518445491790771 0.0631234943866729736 0.280144065618515015
0.66339564323425293 0.0146603090688586235 -0.276556819677352905
0.713142693042755127 -0.28560936450958252 -0.0689982399344444275
0.53471219539642334 0.458702534437179565 -0.151373997330665588
0.488989710807800293 0.310916334390640259 0.0602345764636993408
0.316838175058364868 -0.407590359449386597 0.471855431795120239
1.09548294544219971 -0.0159044135361909866 -0.125860825181007385
0.554952740669250488 -0.0575919114053249359 -0.17709977924823761
0.392905205488204956 -0.00283777480944991112 -0.161067754030227661
0.252331167459487915 -0.607236325740814209 0.0851134806871414185
0.82091057300567627 0.182026073336601257 -0.134009316563606262
0.289582729339599609 0.362405002117156982 -0.364876121282577515
0.723930776119232178 -0.072388872504234314 -0.148461043834686279
0.127280086278915405 -0.2383078932762146 0.15657159686088562
0.778615713119506836 0.320279568433761597 -0.193629860877990723
0.474439829587936401 0.689246833324432373 -0.434458613395690918
0.788335084915161133 -0.232329756021499634 -0.0446286983788013458
0.4855632483959198 0.375540465116500854 -0.146375000476837158
0.467452377080917358 -0.576795279979705811 0.0795189663767814636
0.760852336883544922 -0.0436981990933418274 -0.202602103352546692
0.566448330879211426 0.179727345705032349 -0.0853628814220428467
0.101976737380027771 -0.429358690977096558 0.287777870893478394
0.749017596244812012 0.581239283084869385 -0.0810605362057685852
0.88311535120010376 0.404909640550613403 -0.285246670246124268
0.719208896160125732 0.606254041194915771 -0.185403555631637573
0.651783347129821777 0.253401607275009155 -0.294231444597244263
0.123656235635280609 0.0052955937571823597 0.0796061456203460693
0.650101423263549805 0.395178109407424927 -0.163368716835975647
0.391000658273696899 0.185026377439498901 -0.303551018238067627
0.823636710643768311 0.304030925035476685 -0.283055514097213745
0.7283591628074646 0.709059000015258789 -0.443932890892028809
0.353935778141021729 -0.0219268575310707092 -0.0514831393957138062
0.178260207176208496 -0.225188568234443665 -0.210651561617851257
0.736692368984222412 -0.356616765260696411 -0.0296911746263504028
0.475710242986679077 0.208303198218345642 0.195775285363197327
0.451044946908950806 -0.552209019660949707 0.0232001077383756638
0.38585326075553894 0.00360322208143770695 -0.0242879427969455719
0.206233739852905273 -0.0110439583659172058 0.0745628476142883301
0.731735944747924805 0.274231523275375366 -0.140862226486206055
0.568446755409240723 0.36314922571182251 0.136630862951278687
0.875050663948059082 0.6316986083984375 -0.256289511919021606
0.599788665771484375 0.937560319900512695 -0.282796263694763184
0.282625019550323486 0.147015541791915894 -0.0138534121215343475
0.670996189117431641 0.0947279557585716248 0.0224990565329790115
0.515836119651794434 0.229979604482650757 -0.305189847946166992
0.174297571182250977 -0.0585095249116420746 0.246474295854568481
1.1095573902130127 0.489373356103897095 -0.385482341051101685
0.68645089864730835 0.296160489320755005 -0.0343943238258361816
0.417861789464950562 0.205786719918251038 -0.155364722013473511
1.11265861988067627 0.427050203084945679 -0.362481743097305298
0.428236067295074463 -0.100108392536640167 -0.151202678680419922
0.471113741397857666 0.159067526459693909 -0.11871039867401123
0.669834613800048828 0.0622763670980930328 -0.00804703682661056519
0.272083878517150879 0.145715773105621338 0.102933689951896667
0.55941009521484375 0.43879052996635437 -0.251880347728729248
0.608601689338684082 0.566880524158477783 -0.0214806869626045227
0.600431084632873535 0.287331938743591309 -0.0682133510708808899
0.368691354990005493 -0.41728740930557251 0.478698849678039551
0.381631553173065186 0.0532030276954174042 -0.125548616051673889
0.781654477119445801 0.132942020893096924 -0.266574949026107788
0.356841057538986206 0.0156422164291143417 0.33805885910987854
0.916964232921600342 0.31348496675491333 -0.30366981029510498
0.43248024582862854 -0.351353496313095093 0.474014580249786377
0.676337838172912598 0.08689165860414505 -0.307933837175369263
0.366463959217071533 0.245989203453063965 -0.0469431951642036438
0.880922794342041016 0.0157452058047056198 -0.0371844321489334106
0.261748671531677246 0.0314742699265480042 0.13795769214630127
0.776170551776885986 0.729679882526397705 -0.351804018020629883
0.796645641326904297 0.594161391258239746 -0.12891523540019989
0.174753978848457336 -0.252011299133300781 -0.0928838327527046204
0.349012911319732666 -0.329535067081451416 0.460113257169723511
0.125880062580108643 -0.0751352161169052124 0.0926125049591064453
0.134885698556900024 -0.468058973550796509 0.219234898686408997
0.497945636510848999 0.000992980902083218098 -0.0484224818646907806
0.515290975570678711 0.240024670958518982 -0.256993532180786133
0.350776046514511108 0.188243165612220764 -0.0491029173135757446
0.977746784687042236 0.536385715007781982 -0.238409429788589478
0.477689474821090698 -0.114337220788002014 0.0598300620913505554
0.718825280666351318 0.48109850287437439 -0.0662694796919822693
0.754215717315673828 -0.113872237503528595 0.27452385425567627
0.369865983724594116 -0.178101658821105957 0.427441507577896118
0.517625629901885986 0.0353630371391773224 -0.245435819029808044
0.628014326095581055 0.325024813413619995 -0.302539229393005371
0.452975004911422729 0.705461502075195312 -0.388615608215332031
0.844617486000061035 0.264974504709243774 -0.0663034990429878235
0.368117809295654297 0.400981366634368896 -0.129623278975486755
0.632362544536590576 -0.451565563678741455 0.289640575647354126
0.717570126056671143 0.313496530055999756 -0.235036492347717285
0.347360700368881226 0.39213678240776062 -0.363147139549255371
0.947392940521240234 0.528848469257354736 -0.17878095805644989
0.650374650955200195 -0.173075199127197266 -0.19555974006652832
0.675985217094421387 -0.436696141958236694 0.11861225962638855
0.56273263692855835 0.075802236795425415 -0.166055276989936829
0.52424323558807373 0.389320790767669678 -0.12195480614900589
0.490927398204803467 0.710557639598846436 -0.232583805918693542
0.600336611270904541 0.0125477267429232597 0.0813738256692886353
0.138575047254562378 -0.429920494556427002 0.102188952267169952
0.661764919757843018 0.387050777673721313 -0.0115776071324944496
0.604183793067932129 0.251878112554550171 -0.0336874127388000488
0.629317045211791992 0.118989698588848114 -0.136687681078910828
0.727898657321929932 0.0404236689209938049 0.296221166849136353
0.81329500675201416 0.118036724627017975 -0.260393321514129639
0.423097848892211914 -0.655580699443817139 0.175692379474639893
0.519556760787963867 -0.0133274346590042114 -0.112869866192340851
0.507163941860198975 -0.0397326201200485229 0.201444521546363831
0.702324211597442627 -0.146821379661560059 0.136171877384185791
0.765856564044952393 0.3894805908203125 0.0740556269884109497
0.576325178146362305 -0.110518507659435272 -0.0347882732748985291
0.691661417484283447 -0.17101171612739563 0.0698565021157264709
0.500490963459014893 0.800193905830383301 -0.217485800385475159
0.304921895265579224 0.0105698136612772942 -0.231895476579666138
0.291819393634796143 0.220725446939468384 -0.23465263843536377
0.472172528505325317 0.227288052439689636 -0.0587476789951324463
0.581579983234405518 0.351806312799453735 -0.0484943576157093048
0.388067781925201416 -0.148159444332122803 -0.156776338815689087
0.911255419254302979 0.334756165742874146 -0.236531913280487061
0.924072384834289551 0.574219107627868652 -0.177950084209442139
0.543381273746490479 -0.410710960626602173 -0.156762003898620605
0.557755172252655029 -0.0409903749823570251 0.0212525203824043274
0.619543075561523438 -0.234182566404342651 -0.0100572947412729263
0.375843286514282227 0.0570803210139274597 -0.255104213953018188
0.771820008754730225 -0.308797627687454224 0.100999370217323303
0.5385780930519104 -0.133475914597511292 -0.214355677366256714
1.12643611431121826 0.525036215782165527 -0.296957075595855713
0.531065642833709717 0.328623920679092407 -0.112187176942825317
1.0622018575668335 0.360898822546005249 -0.283867955207824707
0.828215122222900391 0.334432065486907959 -0.0795373618602752686
0.522220730781555176 0.0634601414203643799 -0.0606882348656654358
0.525270402431488037 -0.0874577760696411133 0.144992068409919739
0.792030632495880127 0.561615049839019775 0.145136356353759766
0.456256657838821411 -0.0592735074460506439 0.366470843553543091
0.760467052459716797 0.810949444770812988 -0.472389906644821167
0.91485440731048584 0.606109738349914551 -0.271219164133071899
0.332806438207626343 0.234574481844902039 -0.0224654693156480789
0.564667344093322754 0.2559317946434021 0.176113918423652649
0.816096305847167969 0.0893530100584030151 0.0536797456443309784
0.9425010085105896 0.606298565864562988 -0.415497630834579468
0.676896214485168457 0.15045619010925293 -0.141085997223854065
0.841856837272644043 0.465900301933288574 -0.379492849111557007
0.278357028961181641 0.106526404619216919 -0.150853604078292847
0.56188809871673584 -0.289455920457839966 0.434803813695907593
0.743156969547271729 0.1073894202709198 -0.227042540907859802
0.11214485764503479 0.0110379112884402275 -0.0129626058042049408
0.620081424713134766 0.0381861254572868347 0.00225635664537549019
0.777188003063201904 0.481907933950424194 -0.126163646578788757
0.683205246925354004 0.233903944492340088 -0.22370573878288269
0.627263426780700684 0.0422379560768604279 -0.0941593125462532043
0.684446096420288086 0.758845627307891846 -0.328155279159545898
0.815124750137329102 0.341951340436935425 0.0716232657432556152
0.753706872463226318 -0.280960440635681152 0.185164526104927063
0.807446539402008057 0.121285803616046906 -0.0164454374462366104
0.836252033710479736 0.0874591842293739319 -0.28433266282081604
0.885779798030853271 0.131968021392822266 -0.178581759333610535
1.09596872329711914 0.633589506149291992 -0.328553646802902222
0.251859098672866821 -0.0448071174323558807 0.327414482831954956
0.874713003635406494 0.622875869274139404 -0.419255912303924561
0.692613899707794189 0.298225879669189453 -0.347096681594848633
0.325501024723052979 0.158825784921646118 -0.293843269348144531
0.458749353885650635 0.122794754803180695 -0.316014200448989868
0.27158820629119873 -0.255681812763214111 0.427073001861572266
0.758171737194061279 0.069570690393447876 0.0185715705156326294
0.742426812648773193 0.0911159291863441467 -0.275546014308929443
0.55445253849029541 0.150535166263580322 -0.272478759288787842
0.276045411825180054 0.360854536294937134 -0.064558759331703186
0.447711318731307983 0.140615448355674744 -0.102624803781509399
0.50836634635925293 0.240733027458190918 0.0266691762953996658
0.548789858818054199 0.469313561916351318 -0.0655429810285568237
0.764791429042816162 0.350418418645858765 -0.190654993057250977
0.42364916205406189 -0.126228123903274536 -0.132750928401947021
0.897758424282073975 -0.101938806474208832 -0.148151382803916931
0.855100810527801514 0.229513734579086304 -0.15966777503490448
1.07554185390472412 0.875806689262390137 -0.45494002103805542
0.286888033151626587 -0.224983453750610352 -0.189893931150436401
0.382813572883605957 -0.0671427994966506958 -0.123627729713916779
0.352640658617019653 0.523666918277740479 -0.342130303382873535
0.267199277877807617 0.0704688131809234619 -0.120985142886638641
1.10777294635772705 0.631983101367950439 -0.249026566743850708
0.819512903690338135 0.578290700912475586 -0.214785978198051453
0.404205352067947388 0.305411219596862793 0.0213084202259778976
0.57666856050491333 -0.526668190956115723 0.0764290392398834229
0.675081312656402588 0.539291262626647949 -0.184061720967292786
