ply
format ascii 1.0
element vertex 717
property float x
property float y
property float z
end_header
-0.0662023052573204041 0.24551747739315033 0.0907002240419387817
-0.208100602030754089 0.238361537456512451 -0.0533247403800487518
-0.105974160134792328 0.211848929524421692 0.19590894877910614
-0.162736624479293823 0.195541784167289734 0.0373684950172901154
-0.0917093083262443542 0.184705808758735657 -0.159975484013557434
0.0826230794191360474 0.0257370341569185257 -0.00799111835658550262
0.0828093662858009338 0.00597315235063433647 0.0292351078242063522
0.119806349277496338 0.101940996944904327 -0.0241609476506710052
0.0904663354158401489 0.034479580819606781 -0.0898469164967536926
0.127665400505065918 0.0520825870335102081 0.0239887293428182602
-0.0888518616557121277 0.0525396466255187988 0.133039280772209167
0.157057702541351318 0.203781858086585999 0.109713263809680939
-0.0313126668334007263 0.206491753458976746 0.191056802868843079
-0.0303263980895280838 0.03931460902094841 -0.136353835463523865
-0.132816493511199951 0.103662051260471344 0.0683502629399299622
-0.0659406408667564392 0.128664016723632812 0.139558553695678711
-0.146621197462081909 0.184020057320594788 0.0352433212101459503
0.0462363585829734802 0.113581791520118713 -0.132199451327323914
0.0448959395289421082 0.196953237056732178 -0.154788300395011902
-0.145710363984107971 0.168988347053527832 0.0794106125831604004
0.112187601625919342 0.158313706517219543 0.0436932109296321869
0.0937427282333374023 0.183500230312347412 0.0248307753354310989
0.115279287099838257 0.0783400088548660278 -0.0706247687339782715
-0.0506651215255260468 0.247829437255859375 0.188847601413726807
-0.196488305926322937 0.20709855854511261 -0.0317422375082969666
-0.180251166224479675 0.213076114654541016 0.064415372908115387
0.158192142844200134 0.153423592448234558 0.0659735202789306641
0.0965597480535507202 0.0715951696038246155 0.0778858959674835205
0.00132957648020237684 0.212164133787155151 -0.200865462422370911
0.118073858320713043 0.0741522088646888733 0.0686725974082946777
-0.148346319794654846 0.147750571370124817 -0.0281264279037714005
-0.101602904498577118 0.165805235505104065 -0.132709026336669922
0.00477425521239638329 0.103176526725292206 -0.151168614625930786
0.167584255337715149 0.187288478016853333 -0.00845223385840654373
0.0567406006157398224 0.177165716886520386 0.121305383741855621
-0.035145152360200882 0.282106161117553711 0.133201912045478821
-0.0826269835233688354 0.117427915334701538 0.0630068853497505188
-0.0550080910325050354 0.252557635307312012 0.0863069221377372742
0.00108198286034166813 0.166022747755050659 0.148991018533706665
-0.0892311781644821167 0.106089197099208832 -0.0690645650029182434
-0.0806001424789428711 0.240777686238288879 -0.0325579307973384857
0.165372446179389954 0.216281011700630188 0.0755137652158737183
-0.121902167797088623 0.0572646036744117737 -0.0602891072630882263
0.0651615560054779053 0.211721882224082947 0.197483018040657043
0.0903949588537216187 0.0874386206269264221 -0.100918255746364594
-0.16089138388633728 0.194093376398086548 -0.120821729302406311
-0.0266442839056253433 0.0378251038491725922 -0.0907648280262947083
0.120268918573856354 0.144927829504013062 0.00389296701177954674
0.175468042492866516 0.106145359575748444 -0.0246871002018451691
0.0614471882581710815 0.115771830081939697 -0.110601030290126801
-0.136786624789237976 0.074875369668006897 0.0194269958883523941
-0.12866838276386261 0.116545610129833221 0.088017977774143219
-0.0826672837138175964 0.266829371452331543 -0.0157877244055271149
0.093420766294002533 0.0276107490062713623 0.0418344102799892426
-0.00329271983355283737 0.183261498808860779 -0.194451823830604553
0.121147237718105316 0.11162654310464859 -0.0351401045918464661
-0.125727742910385132 0.106975041329860687 0.0157029479742050171
0.151863440871238708 0.180521830916404724 0.137588933110237122
0.0539028346538543701 0.165568262338638306 0.0905722081661224365
0.0965521633625030518 0.246089667081832886 0.0238276198506355286
0.0993872284889221191 0.0921033173799514771 0.163271501660346985
0.0550138354301452637 0.243735447525978088 -0.0926354080438613892
0.0796939060091972351 0.168956026434898376 -0.142343461513519287
-0.0986790657043457031 0.24867546558380127 -0.0596556104719638824
-0.0742596238851547241 0.0662625804543495178 0.104652151465415955
0.132398709654808044 0.166854545474052429 -0.0590278320014476776
0.0608403012156486511 0.125294655561447144 0.158943071961402893
-0.078075505793094635 0.20830497145652771 0.165050849318504333
0.13054172694683075 0.227135032415390015 -0.0628337860107421875
-0.240180835127830505 0.211600005626678467 0.0310311932116746902
0.119928866624832153 0.157535672187805176 0.0594183057546615601
0.180512547492980957 0.143364235758781433 0.0268413778394460678
-0.115050680935382843 0.0438550673425197601 -0.105649024248123169
-0.0962809696793556213 0.119625464081764221 -0.149173572659492493
0.0922161787748336792 0.236965358257293701 -0.101703174412250519
-0.181932270526885986 0.140835732221603394 0.0231155995279550552
0.0766441002488136292 0.102584563195705414 0.0929064303636550903
0.112244278192520142 0.00976357236504554749 0.0489774420857429504
-0.100487418472766876 0.165910109877586365 -0.0731288567185401917
0.0143000185489654541 0.0315270237624645233 -0.104908548295497894
-0.0399831347167491913 0.0389866940677165985 -0.0660874173045158386
0.0692191570997238159 0.130811423063278198 0.149797603487968445
-0.0418927967548370361 0.153812408447265625 0.0796281322836875916
0.0341251194477081299 0.139169350266456604 -0.0837545841932296753
0.0170769300311803818 0.0702791586518287659 0.162389427423477173
0.085348375141620636 0.0172912832349538803 0.0669308379292488098
-0.00240403343923389912 0.182329356670379639 -0.148285269737243652
-0.0373360365629196167 0.21670176088809967 0.102047830820083618
-0.0499092377722263336 0.219497427344322205 0.184622079133987427
-0.0347022488713264465 0.124104797840118408 -0.158333733677864075
-0.178898006677627563 0.200553536415100098 -0.0196902584284543991
0.0426918864250183105 0.181383863091468811 0.0728969350457191467
-0.0677915066480636597 0.0325039289891719818 0.131109371781349182
-0.06544523686170578 0.225387394428253174 0.198077067732810974
-0.0921731814742088318 0.226810470223426819 0.055415567010641098
0.0306606683880090714 0.193778365850448608 -0.194981306791305542
0.0839888677000999451 0.210336551070213318 -0.180956244468688965
0.125906378030776978 0.166970789432525635 0.083548225462436676
0.0159611012786626816 0.141589120030403137 -0.076569780707359314
0.0294809006154537201 0.0391877405345439911 0.102237783372402191
0.0578993372619152069 0.149447545409202576 0.0987604185938835144
-0.0913928970694541931 0.111613690853118896 0.0926924273371696472
-0.0608128681778907776 0.144274890422821045 -0.0522405244410037994
0.116887740790843964 0.0807492583990097046 -0.0254743918776512146
0.0941519290208816528 0.174539506435394287 0.16627347469329834
0.187770754098892212 0.206825420260429382 -0.0352570749819278717
0.132389232516288757 0.212722137570381165 0.159344479441642761
0.0882192179560661316 0.157761827111244202 -0.0338809266686439514
0.00815205089747905731 0.214366987347602844 0.153028413653373718
0.188447535037994385 0.225074335932731628 0.0124546326696872711
0.0292083043605089188 0.173478737473487854 -0.0714414194226264954
0.11013755202293396 0.131625652313232422 0.15546107292175293
-0.0479136556386947632 0.24564969539642334 -0.0565727651119232178
0.123341962695121765 0.194906115531921387 -0.115353219211101532
-0.0628036260604858398 0.225793927907943726 0.137312620878219604
-0.199339002370834351 0.209099724888801575 0.0590740405023097992
0.0770196095108985901 0.233219057321548462 -0.0735411718487739563
0.139227584004402161 0.0444137416779994965 -0.0363486446440219879
-0.0190011356025934219 0.043393939733505249 0.119499340653419495
0.0127140134572982788 0.238722458481788635 -0.0805912166833877563
-0.0307887978851795197 0.176529571413993835 -0.19388309121131897
0.124019846320152283 0.184936076402664185 -0.0921131893992424011
0.0491129718720912933 0.180460438132286072 -0.0819439738988876343
0.0797468945384025574 0.0380243770778179169 0.145145431160926819
0.0487210527062416077 0.281742483377456665 -0.0554248541593551636
0.0172435734421014786 0.134424477815628052 0.122229091823101044
0.0380507968366146088 0.113592088222503662 0.123144291341304779
-0.126988396048545837 0.152868747711181641 -0.0586475171148777008
0.147934302687644958 0.208232909440994263 -0.083857320249080658
-0.1499042809009552 0.044907059520483017 0.00224608764983713627
0.137225538492202759 0.209690853953361511 0.143042981624603271
0.0144189167767763138 0.097417682409286499 -0.0910668447613716125
0.0316357649862766266 0.146886527538299561 0.163279131054878235
0.184956580400466919 0.196908369660377502 0.0223907511681318283
-0.0139756659045815468 0.173150375485420227 0.169085294008255005
0.0922128632664680481 0.137153789401054382 0.0608243681490421295
-0.0796177089214324951 0.0680657550692558289 -0.11948046088218689
0.108356565237045288 0.0337694026529788971 -0.0678229480981826782
-0.015712318941950798 0.179739922285079956 0.110415175557136536
-0.0782265141606330872 0.230003029108047485 0.0357229039072990417
0.00153050781227648258 0.127905860543251038 -0.140984460711479187
0.122405804693698883 0.230183258652687073 0.181152105331420898
-0.0212304331362247467 0.177674934267997742 -0.0550573840737342834
0.00868041068315505981 0.0731012821197509766 -0.102567471563816071
0.119461141526699066 0.0363273918628692627 0.040712457150220871
-0.100415512919425964 0.0489925630390644073 0.103514313697814941
-0.0379300154745578766 0.177623182535171509 -0.121997475624084473
0.0141224386170506477 0.186695650219917297 0.16809418797492981
0.0392135344445705414 0.163491189479827881 -0.0784022808074951172
-0.0811370536684989929 0.181545644998550415 -0.0398149341344833374
0.129598841071128845 0.163849413394927979 0.118716523051261902
0.123417653143405914 0.0563599802553653717 0.0519461855292320251
-0.0549800917506217957 0.0131129007786512375 0.027039283886551857
0.113046906888484955 0.0755679532885551453 -0.0430302955210208893
-0.0405093356966972351 0.208290740847587585 0.207848474383354187
0.00282821059226989746 0.21687692403793335 -0.227244019508361816
0.0722244232892990112 0.145806804299354553 0.0882489383220672607
0.0923548787832260132 0.0712162107229232788 -0.105585783720016479
0.0741611123085021973 0.209848031401634216 -0.17823462188243866
-0.0759828090667724609 0.113101504743099213 0.159674033522605896
0.00961055699735879898 0.166540712118148804 0.129492148756980896
-0.0236735064536333084 0.159438028931617737 0.078637830913066864
-0.0669534727931022644 0.0932146608829498291 0.154395341873168945
0.184407889842987061 0.114206850528717041 0.0160202961415052414
-0.0361136235296726227 0.0648945346474647522 0.115004152059555054
0.0936475619673728943 0.220932364463806152 0.0192761719226837158
0.0447086654603481293 0.0731125548481941223 0.108699239790439606
-0.033759385347366333 0.198861822485923767 0.128255277872085571
-0.0732099264860153198 0.249563753604888916 0.0159377362579107285
-0.0426359288394451141 0.156095907092094421 -0.0945943966507911682
-0.0087853623554110527 0.262222647666931152 0.106435775756835938
-0.0948286280035972595 0.0272971224039793015 -0.01940133236348629
0.0782778188586235046 0.215329229831695557 -0.0202962309122085571
0.0711065307259559631 0.0404099635779857635 0.102967604994773865
-0.0805409476161003113 0.193590983748435974 -0.0578699931502342224
0.0417695306241512299 0.204072892665863037 -0.125740587711334229
0.0163087788969278336 0.176934808492660522 0.0998064428567886353
-0.0483920946717262268 0.0518366210162639618 0.150734096765518188
-0.113333694636821747 0.0544343963265419006 0.104876451194286346
0.067764967679977417 0.06037922203540802 -0.10785212367773056
0.0739619210362434387 0.0312537141144275665 -0.0392084866762161255
-0.0700491964817047119 0.148407503962516785 0.161155864596366882
0.0252757705748081207 0.15810057520866394 0.162551328539848328
-0.0604918338358402252 0.0503710061311721802 -0.11062130331993103
0.125205338001251221 0.16410006582736969 0.0693309158086776733
-0.142515882849693298 0.164680659770965576 0.0183997116982936859
0.0131301321089267731 0.122927933931350708 0.165632143616676331
0.137379065155982971 0.052782110869884491 0.00242241076193749905
0.0646923556923866272 0.0964453518390655518 0.131597116589546204
0.166921883821487427 0.160869240760803223 0.00494376989081501961
-0.0319055318832397461 0.176354393362998962 0.135715335607528687
0.128592327237129211 0.134086847305297852 -0.0636773332953453064
-0.108402274549007416 0.0731723234057426453 0.0284510515630245209
-0.0190577264875173569 0.20974084734916687 -0.125941678881645203
0.117739461362361908 0.0331728793680667877 0.0673863217234611511
0.0165872499346733093 0.137224674224853516 0.139709904789924622
-0.0082368161529302597 0.115537077188491821 -0.178617879748344421
0.00570893241092562675 0.182915046811103821 0.0681055039167404175
0.046956866979598999 0.282462924718856812 -0.077145501971244812
0.134721636772155762 0.198153525590896606 0.0967298001050949097
-0.0875533744692802429 0.066699005663394928 0.0931256860494613647
0.0486985445022583008 0.182586580514907837 -0.10594978928565979
0.0767282396554946899 0.171511426568031311 0.168018445372581482
-0.00681867543607950211 0.263273268938064575 -0.101327449083328247
-0.00732285715639591217 0.148309588432312012 -0.0695868507027626038
0.0386931933462619781 0.0414367951452732086 -0.0873611718416213989
0.0947774425148963928 0.195492580533027649 0.171895474195480347
-0.0677483603358268738 0.224830567836761475 -0.0423816516995429993
0.000581837841309607029 0.136291205883026123 0.173111200332641602
-0.179828912019729614 0.210412725806236267 -0.0951490029692649841
0.116339154541492462 0.123179472982883453 0.0351634174585342407
-0.137165665626525879 0.185416668653488159 -0.0777619704604148865
0.0736636146903038025 0.238041341304779053 -0.0512621700763702393
-0.0917453840374946594 0.174503058195114136 0.187788605690002441
0.228360533714294434 0.212756305932998657 0.00903764460235834122
0.0975579917430877686 0.123971596360206604 0.153164997696876526
-0.156293734908103943 0.0351461432874202728 0.0166628025472164154
0.116574354469776154 0.0333892591297626495 0.108207568526268005
-0.107108451426029205 0.212940335273742676 0.0107971178367733955
0.13730168342590332 0.184559017419815063 0.0333369933068752289
-0.0287458635866641998 0.17872677743434906 -0.124626085162162781
-0.008098602294921875 0.14516042172908783 -0.147604465484619141
0.0447976626455783844 -0.000306476315017789602 0.083356022834777832
-0.0602263547480106354 0.146088272333145142 -0.06020335853099823
-0.0901550576090812683 0.144574537873268127 -0.0140665657818317413
-0.0542090833187103271 0.207708492875099182 0.174187600612640381
0.131198883056640625 0.121426619589328766 -0.031912628561258316
0.103729076683521271 0.0966193526983261108 0.0477917641401290894
-0.0698870494961738586 0.203953221440315247 0.0545774251222610474
0.143440783023834229 0.131122216582298279 0.0466382056474685669
0.107952244579792023 0.121507726609706879 -0.0986031591892242432
0.164656177163124084 0.209255591034889221 0.0911255776882171631
0.0700453668832778931 0.141564026474952698 -0.0874376222491264343
-0.00975109264254570007 0.176309496164321899 -0.094813421368598938
0.0966800525784492493 0.11524779349565506 0.0325995683670043945
-0.114723309874534607 0.0615551695227622986 -0.016951683908700943
-0.111742690205574036 0.18931540846824646 -0.0349182859063148499
-0.112585768103599548 0.233589634299278259 0.0261579491198062897
-0.00570867303758859634 0.21631273627281189 0.163182452321052551
0.122025944292545319 0.0973159000277519226 0.00375467352569103241
0.0419554747641086578 0.164399176836013794 0.0911339223384857178
0.109064012765884399 0.0676405727863311768 -0.126630872488021851
0.041248030960559845 0.159554034471511841 -0.126949667930603027
-0.0510890260338783264 0.142139896750450134 -0.0762634053826332092
0.131183922290802002 0.142487019300460815 -0.0931039974093437195
0.0768593847751617432 0.151932492852210999 -0.0582759343087673187
0.163784340023994446 0.0702174976468086243 -0.0230729784816503525
-0.116423457860946655 0.0625963136553764343 -0.014455258846282959
-0.0478500686585903168 0.0577017217874526978 0.107542239129543304
-0.00580031843855977058 0.131912097334861755 0.158882513642311096
0.082063630223274231 0.0800241455435752869 -0.0891297981142997742
0.187144443392753601 0.130950331687927246 -0.0274999924004077911
0.0317759700119495392 0.238126248121261597 0.116427257657051086
0.0306141451001167297 0.0717021375894546509 -0.126415327191352844
0.125313371419906616 0.0864707678556442261 0.0656304657459259033
-0.08138236403465271 0.111802563071250916 0.024586603045463562
-0.0310129933059215546 0.273089826107025146 0.0926077365875244141
-0.159857109189033508 0.213083073496818542 0.0887657925486564636
-0.128392979502677917 0.0959256067872047424 -0.100919745862483978
-0.0167863816022872925 0.0701284408569335938 0.131950557231903076
-0.0990381091833114624 0.0732327476143836975 -0.0325943790376186371
-0.0460606031119823456 0.13479885458946228 -0.14423660933971405
0.173826903104782104 0.215237349271774292 -0.0582558736205101013
-0.0697391405701637268 0.294636160135269165 0.0671038255095481873
0.0427197776734828949 0.211023613810539246 -0.0700130164623260498
0.100965090095996857 0.194446355104446411 -0.138467714190483093
0.0963394120335578918 0.149069294333457947 0.0449106059968471527
0.111637763679027557 0.0751279965043067932 0.0899900346994400024
0.0676098614931106567 0.132453322410583496 -0.127658873796463013
0.125164508819580078 0.129540815949440002 -0.0536687262356281281
-0.00340748275630176067 0.133348196744918823 -0.144232705235481262
-0.0820121616125106812 0.258344650268554688 -0.0424135103821754456
0.126322686672210693 0.26676863431930542 0.071347750723361969
-0.122533053159713745 0.0656135901808738708 -0.102944068610668182
0.138158023357391357 0.198798000812530518 -0.0999514609575271606
0.162813767790794373 0.238163501024246216 0.145040050148963928
-0.0292057599872350693 0.0335298068821430206 0.0923779606819152832
0.00983568094670772552 0.210067287087440491 -0.189844176173210144
0.100716166198253632 0.242502838373184204 0.0987732484936714172
0.110096879303455353 0.0144377443939447403 0.0936581939458847046
-0.0135930133983492851 0.205034464597702026 0.105902619659900665
-0.118313051760196686 0.223216474056243896 -0.173058733344078064
0.0435717329382896423 0.138164371252059937 -0.0862771272659301758
-0.117014415562152863 0.0639838948845863342 0.00285299425013363361
-0.00367491808719933033 0.0664433389902114868 -0.14073556661605835
0.00954972580075263977 0.260697156190872192 0.149224817752838135
-0.130472376942634583 0.165338084101676941 0.0639604851603507996
-4.85168166051153094e-05 0.196795210242271423 -0.15452277660369873
-0.133518427610397339 0.220715582370758057 0.0394912697374820709
0.120179884135723114 0.0228983815759420395 -0.00851141661405563354
0.132027864456176758 0.0941964685916900635 0.00645223725587129593
0.115926750004291534 0.146417602896690369 -0.0191066674888134003
0.0238327626138925552 0.128929257392883301 0.1330232173204422
-0.0802197158336639404 0.136407196521759033 0.0981373786926269531
-0.109654180705547333 0.191642239689826965 -0.137605667114257812
0.13205893337726593 0.0727933794260025024 0.103173889219760895
-0.0558319017291069031 0.163591235876083374 0.0753500759601593018
-0.112903736531734467 0.0564602427184581757 0.0432527624070644379
0.0904835239052772522 0.108741439878940582 -0.0524794124066829681
0.114262938499450684 0.146749407052993774 0.069212205708026886
0.0799728929996490479 0.0671195387840270996 -0.0773405507206916809
-0.0632893145084381104 0.109805479645729065 0.0823493897914886475
0.0761609002947807312 0.171812474727630615 0.163026660680770874
-0.0349559113383293152 0.180158674716949463 -0.097007453441619873
-0.103493377566337585 0.069597877562046051 0.14410671591758728
-0.159872010350227356 0.221497491002082825 -0.148386850953102112
-0.00767404446378350258 0.188326776027679443 -0.126407459378242493
-0.0945981442928314209 0.12842695415019989 0.0804769024252891541
-0.0543429329991340637 0.2745799720287323 0.0655369684100151062
-0.140115916728973389 0.179912477731704712 -0.106477893888950348
-0.032406345009803772 0.0226330216974020004 0.14606882631778717
-0.0242427587509155273 0.0383244790136814117 0.0428239405155181885
-0.16113927960395813 0.206916689872741699 -0.0314806140959262848
0.146073296666145325 0.143426880240440369 -0.0159112755209207535
0.0161299556493759155 0.125821694731712341 -0.0937642082571983337
0.0651030465960502625 0.184665694832801819 0.0888799205422401428
-0.0206792112439870834 0.21852564811706543 -0.0702319741249084473
-0.00583939673379063606 0.0080187646672129631 0.101497776806354523
0.121768414974212646 0.102880813181400299 0.0726869925856590271
0.0699341371655464172 0.192792445421218872 0.0345772691071033478
-0.175540491938591003 0.214917048811912537 -0.0316428504884243011
-0.0633155703544616699 0.120858043432235718 -0.123740904033184052
-0.121011249721050262 0.0104156564921140671 0.0159077364951372147
-0.0868627652525901794 0.134482815861701965 -0.136873185634613037
-0.134458184242248535 0.0898721367120742798 -0.0652516111731529236
-0.0740404874086380005 0.0609152652323246002 0.124394148588180542
-0.0684914812445640564 0.310184299945831299 -0.0935239791870117188
0.119287125766277313 0.083805672824382782 -0.00167742779012769461
0.0797982364892959595 0.146379828453063965 -0.100766502320766449
-0.00937993358820676804 0.0875875949859619141 -0.165371552109718323
0.104749917984008789 0.265886127948760986 -0.0178765915334224701
-0.0851983651518821716 0.0880310535430908203 0.0638594254851341248
0.0755153000354766846 0.0661832019686698914 0.136021092534065247
-0.0381632223725318909 0.262309938669204712 -0.0732298865914344788
-0.0550782270729541779 0.208192542195320129 0.203778102993965149
-0.126991197466850281 0.143517434597015381 0.0156982298940420151
0.144054755568504333 0.226216062903404236 0.135890021920204163
0.00249503739178180695 0.258877456188201904 0.116439469158649445
0.031616557389497757 0.233015596866607666 -0.0821411237120628357
-0.167678192257881165 0.138732984662055969 0.0480120107531547546
-0.0316093452274799347 0.274288952350616455 0.103676997125148773
0.125982195138931274 0.118553228676319122 -0.0575571916997432709
-0.0459148921072483063 0.198523148894309998 0.159820333123207092
0.0853911340236663818 0.048424992710351944 -0.0683160945773124695
-0.0325602628290653229 0.0701383650302886963 -0.13390156626701355
0.11842731386423111 0.0640150830149650574 0.0408111177384853363
-0.0577320307493209839 0.224053576588630676 0.0263899359852075577
0.098871178925037384 0.199839174747467041 0.0293313935399055481
-0.163021042943000793 0.103541046380996704 -0.0240502189844846725
0.066300712525844574 0.0589731298387050629 -0.118488781154155731
0.0418803766369819641 0.204672083258628845 -0.0923322215676307678
-0.0483142435550689697 0.141817733645439148 0.0913152247667312622
-0.115876629948616028 0.181175947189331055 -0.170596495270729065
-0.152997955679893494 0.175049841403961182 0.119481436908245087
-0.0669420957565307617 0.149200290441513062 0.0103092435747385025
0.0411629378795623779 0.234401732683181763 0.0934119075536727905
0.00448660878464579582 0.140637308359146118 -0.150962144136428833
0.000751123821828514338 0.169117733836174011 -0.10571751743555069
0.0736510083079338074 0.154143735766410828 0.150973081588745117
-0.108561456203460693 0.261899560689926147 0.0354283824563026428
0.0124243404716253281 0.196220055222511292 -0.202191799879074097
-0.128679826855659485 0.0918625593185424805 0.0623179636895656586
0.0837351530790328979 0.0405729115009307861 0.0878979116678237915
0.144786208868026733 0.169733732938766479 0.0939150601625442505
0.09368925541639328 0.205673888325691223 0.136854574084281921
0.00117437040898948908 0.0868720188736915588 -0.140648350119590759
-0.103620849549770355 0.0232576727867126465 0.0286455173045396805
-0.146195530891418457 0.129731357097625732 -0.0713709145784378052
-0.16510908305644989 0.182424694299697876 0.0631850957870483398
0.0783478543162345886 0.212344378232955933 -0.0807705819606781006
-0.0709401592612266541 0.129353687167167664 0.0914772078394889832
-0.0646141991019248962 0.155825704336166382 -0.0613093487918376923
0.174445509910583496 0.19513016939163208 -0.0342605337500572205
-0.137183442711830139 0.138707771897315979 -0.0151973199099302292
0.058194335550069809 0.262002110481262207 0.0772591680288314819
-0.110127538442611694 0.100173808634281158 0.0853136852383613586
-0.0993542894721031189 0.0825979039072990417 0.148732632398605347
-0.205729454755783081 0.188711211085319519 0.00969299208372831345
0.0930704325437545776 0.188849315047264099 0.0577348731458187103
0.0169257577508687973 0.201410427689552307 -0.0663083791732788086
-0.0981211066246032715 0.0377346128225326538 0.000272198260063305497
0.18127027153968811 0.227595284581184387 0.075520835816860199
0.0131605230271816254 0.211371555924415588 -0.170208469033241272
0.138426870107650757 0.134567484259605408 0.0496139489114284515
-0.0532991476356983185 0.154321849346160889 0.101902768015861511
0.0386200584471225739 0.148809760808944702 -0.154401659965515137
0.0822843164205551147 0.158084198832511902 -0.0949277952313423157
-0.114894933998584747 0.0456254072487354279 0.0544958896934986115
-0.107269898056983948 0.023521842435002327 -0.0657667070627212524
-0.11847202479839325 0.218305379152297974 -0.179055258631706238
-0.0605873391032218933 0.187544196844100952 0.090159095823764801
-0.173518240451812744 0.162671029567718506 0.047305721789598465
-0.0658600255846977234 0.0413759127259254456 0.0883417055010795593
-0.087147243320941925 0.235768347978591919 -0.137763217091560364
0.0754765793681144714 0.0243120547384023666 0.0269548278301954269
0.141524627804756165 0.175788328051567078 0.0656761378049850464
-0.113020256161689758 0.0477923937141895294 -0.054482143372297287
0.00426990771666169167 0.224696606397628784 -0.0831171423196792603
-0.0371841639280319214 0.0286414977163076401 0.0513662323355674744
0.0975599586963653564 0.241533398628234863 -0.00624543428421020508
-0.0968920662999153137 0.167577832937240601 0.0103140445426106453
0.0588071830570697784 0.0166504997760057449 -0.0543298088014125824
-0.0975364223122596741 0.266739487648010254 -0.0101218828931450844
0.118436321616172791 0.186162963509559631 0.14716048538684845
-0.0931176617741584778 0.0838388502597808838 0.0302420780062675476
-0.0309945158660411835 0.221634432673454285 -0.191382423043251038
-0.118235312402248383 0.0347338356077671051 -0.0654642283916473389
-0.0559394694864749908 0.249871447682380676 -0.105173878371715546
-0.0305045954883098602 0.110830679535865784 -0.128048047423362732
0.0618546009063720703 0.0598090477287769318 0.133367195725440979
0.0854683667421340942 0.212906703352928162 0.203901439905166626
0.10550294816493988 0.153905928134918213 0.0267810076475143433
0.0340372882783412933 0.211005106568336487 0.0750932767987251282
-0.149736747145652771 0.152088016271591187 -0.0143755245953798294
0.0849361419677734375 0.0702563673257827759 -0.124554254114627838
0.142329007387161255 0.173727855086326599 -0.01885204017162323
-0.0221724752336740494 0.248476624488830566 0.0798955261707305908
0.0516748875379562378 0.235494107007980347 -0.0920220687985420227
-0.171831294894218445 0.209704801440238953 0.0303186774253845215
-0.0725172907114028931 0.148230880498886108 0.0229082275182008743
0.0907511040568351746 0.0464376136660575867 0.0630889907479286194
-0.0290269497781991959 0.170330360531806946 0.142249569296836853
-0.0560243688523769379 0.136990666389465332 0.120760820806026459
-0.114643462002277374 0.173339977860450745 0.0412284098565578461
-0.121688477694988251 0.156043127179145813 0.0336929559707641602
0.0369542688131332397 0.0265823006629943848 0.0995465368032455444
-0.0868757143616676331 0.0648551732301712036 -0.158041596412658691
0.129503145813941956 0.200687035918235779 -0.140784069895744324
-0.177418068051338196 0.198186382651329041 -0.0669842660427093506
0.0395210087299346924 0.273739457130432129 0.0897705480456352234
0.114511013031005859 0.063348919153213501 -0.0932250246405601501
0.125072717666625977 0.223035469651222229 0.165117233991622925
0.118741370737552643 0.0689269229769706726 0.0912994891405105591
-0.110452547669410706 0.159015238285064697 0.0807373151183128357
0.0612360164523124695 0.089315757155418396 0.153119549155235291
0.0661463439464569092 0.0776828527450561523 -0.142846345901489258
0.0851627066731452942 0.211149305105209351 0.0823569595813751221
-0.0328252203762531281 0.0679835677146911621 -0.131420567631721497
-0.146299257874488831 0.186582982540130615 0.0103384274989366531
0.0262055546045303345 0.262970566749572754 0.132752448320388794
0.073797665536403656 0.00895493850111961365 0.00305419415235519409
-0.0487798713147640228 0.220775991678237915 0.0496260188519954681
-0.0164153631776571274 0.134842053055763245 -0.0450612492859363556
-0.0251958388835191727 0.131248056888580322 0.115996398031711578
0.0107041299343109131 0.0359064824879169464 -0.0753680616617202759
-0.0713619068264961243 0.164522066712379456 0.124894320964813232
0.0826339796185493469 0.109794266521930695 0.108796946704387665
-0.0887492373585700989 0.106613919138908386 0.0936371833086013794
-0.1204519122838974 0.261373519897460938 0.0132490657269954681
0.109029471874237061 0.220157459378242493 0.108102001249790192
0.168551117181777954 0.188823938369750977 0.0174645818769931793
-0.0991260185837745667 0.117111243307590485 -0.122597180306911469
0.0782883316278457642 0.0787852108478546143 0.0927183106541633606
0.0203475076705217361 0.0130575951188802719 0.0759880468249320984
-0.133544966578483582 0.14354000985622406 -0.0911955684423446655
0.0299795307219028473 0.168440699577331543 -0.0810959264636039734
0.0727523937821388245 0.0323893353343009949 0.0993771180510520935
-0.045330587774515152 0.144487068057060242 -0.141400992870330811
-0.111606046557426453 0.124149434268474579 0.0180528312921524048
0.015379403717815876 0.0519796274602413177 -0.116595439612865448
0.0675315558910369873 0.12125822901725769 -0.148460730910301208
0.0877252370119094849 0.100216180086135864 -0.0949404686689376831
0.101155981421470642 0.214119970798492432 0.0803444981575012207
-0.123904675245285034 0.0369880050420761108 0.0260734651237726212
0.18959026038646698 0.0978925228118896484 -0.02053828164935112
-0.00101434800308197737 0.12344832718372345 -0.0756514072418212891
0.0960041582584381104 0.13267594575881958 0.0993247851729393005
-0.0355347469449043274 -0.00426292000338435173 0.0859847590327262878
0.126652464270591736 0.0704698488116264343 -0.0543116144835948944
0.193434774875640869 0.255702435970306396 0.0418352037668228149
-0.0691563785076141357 0.06705445796251297 -0.0642480477690696716
-0.0277268495410680771 0.216516077518463135 -0.0489233918488025665
-0.116940423846244812 0.185238242149353027 -0.114111699163913727
0.10614168643951416 0.131671831011772156 -0.0157538671046495438
0.0516327470541000366 0.163461804389953613 -0.0541905350983142853
-0.0168515481054782867 0.227210700511932373 -0.0909131020307540894
0.103973135352134705 0.0395678058266639709 -0.011834452860057354
-0.146887049078941345 0.221959590911865234 0.000184714794158935547
-0.0300334859639406204 0.0821532756090164185 -0.167453065514564514
0.0169675014913082123 0.15038047730922699 -0.139718353748321533
-0.153951942920684814 0.253442108631134033 0.0872534960508346558
-0.0392977297306060791 0.245269164443016052 0.107201866805553436
-0.0112681919708848 0.0949797108769416809 0.122819803655147552
-0.225029349327087402 0.218592092394828796 -0.0222617853432893753
-0.0709819421172142029 0.181367218494415283 0.0874744951725006104
-0.0408798530697822571 0.250741124153137207 0.0677961781620979309
-0.1359671950340271 0.125360563397407532 0.059132702648639679
0.101813815534114838 0.0250310152769088745 0.0405607074499130249
0.16244351863861084 0.223049759864807129 -0.151006653904914856
-0.130646988749504089 0.0861454978585243225 -0.0319923125207424164
0.133690282702445984 0.182154655456542969 -0.104287095367908478
0.0808522626757621765 0.203935116529464722 0.0194438938051462173
0.180878520011901855 0.151945129036903381 0.00635371636599302292
-0.147008046507835388 0.212249428033828735 -0.155429035425186157
0.0915652811527252197 0.0671949237585067749 -0.102671228349208832
0.126074939966201782 0.0842552408576011658 0.109682783484458923
0.0727967843413352966 0.171249434351921082 0.0104297799989581108
-0.136823639273643494 0.146727114915847778 -0.0498834475874900818
0.11781039834022522 0.105571918189525604 -0.0778561979532241821
-0.181725814938545227 0.105014510452747345 -0.00977934710681438446
-0.0647129639983177185 0.241723418235778809 0.0549642033874988556
-0.179866328835487366 0.222811639308929443 0.122394047677516937
0.179954126477241516 0.185315877199172974 0.0424304492771625519
-0.10865127295255661 0.0140237715095281601 -0.00791969150304794312
0.0456163771450519562 0.0146967703476548195 0.100758537650108337
-0.108125977218151093 0.0468397811055183411 0.0478849634528160095
0.00246027042157948017 0.104649797081947327 -0.126973748207092285
-0.0463552400469779968 0.0226906109601259232 -0.0903952717781066895
-0.13674558699131012 0.230366528034210205 0.156861975789070129
0.0136335836723446846 0.0155577007681131363 0.0874869078397750854
-0.126620471477508545 0.174953967332839966 -0.151418775320053101
0.11425328254699707 0.0251709800213575363 -0.0753961354494094849
0.071118280291557312 0.154996201395988464 0.0475290752947330475
0.0347230806946754456 0.204029306769371033 0.16738581657409668
-0.00516735296696424484 0.0492120534181594849 -0.135454714298248291
-0.0954216569662094116 0.171859130263328552 -0.0752598047256469727
-0.0190118346363306046 0.234458208084106445 -0.142294779419898987
0.24470636248588562 0.234463095664978027 0.0455270558595657349
0.0463484413921833038 0.0425506085157394409 0.118987441062927246
0.0265535749495029449 0.218451499938964844 0.177263766527175903
-0.0526540838181972504 0.100720889866352081 0.0937193408608436584
0.0124973030760884285 0.103936955332756042 0.138065353035926819
-0.116749078035354614 0.269551098346710205 0.0327685251832008362
-0.131448730826377869 0.0581222884356975555 -0.0464280024170875549
0.0992096886038780212 0.219507113099098206 -0.0293465517461299896
-0.135218724608421326 0.153795957565307617 0.10385555773973465
0.0677898973226547241 0.192829683423042297 -0.152587756514549255
-0.029060976579785347 0.267452925443649292 -0.10007496178150177
-0.125230401754379272 0.0725850611925125122 0.031832430511713028
-0.0602292753756046295 0.216429874300956726 0.0329415015876293182
-0.0402774251997470856 0.170392096042633057 0.131962612271308899
-0.13397940993309021 0.255038201808929443 0.0135760465636849403
-0.0765071883797645569 0.213506385684013367 -0.00727973226457834244
-0.149546012282371521 0.0265139471739530563 0.037829376757144928
-0.0999612435698509216 0.0927361175417900085 -0.0498206280171871185
0.186170890927314758 0.217372506856918335 0.102125532925128937
0.0556593984365463257 0.0947199687361717224 -0.0729084759950637817
-0.0837840959429740906 0.265539944171905518 0.00563888391479849815
0.0736501589417457581 0.0869117528200149536 -0.0732645019888877869
-0.0657415539026260376 0.0972451269626617432 0.0940112099051475525
0.0388503745198249817 0.0345711447298526764 0.0975767150521278381
-0.112550333142280579 0.0773869976401329041 0.120203346014022827
-0.0855787768959999084 0.102219641208648682 -0.137098386883735657
0.00634369067847728729 0.0898858979344367981 -0.107654109597206116
0.13948725163936615 0.223563820123672485 -0.0591801553964614868
-0.118341930210590363 0.0662717148661613464 0.0163267888128757477
0.126899957656860352 0.215178579092025757 -0.156073182821273804
-0.164835363626480103 0.23542429506778717 -0.126853004097938538
-0.103730633854866028 0.124371662735939026 -0.0609005577862262726
-0.0747328102588653564 0.0845509245991706848 -0.124000713229179382
-0.101110920310020447 0.104696333408355713 -0.0217951573431491852
-0.0087643209844827652 0.162609592080116272 -0.148437678813934326
-0.145949438214302063 0.0914130881428718567 0.0978032872080802917
0.109987773001194 0.199675187468528748 -0.0781195461750030518
-0.161141619086265564 0.1980561763048172 0.118751704692840576
-0.120263963937759399 0.0966230407357215881 0.0552185662090778351
-0.00642023002728819847 0.209698513150215149 0.085387691855430603
-0.0079217664897441864 0.171086758375167847 0.16177310049533844
0.0910570099949836731 0.262082576751708984 -0.0119448201730847359
-0.0793058127164840698 0.165816962718963623 -0.161562457680702209
0.0196108482778072357 0.225145608186721802 0.180595517158508301
0.0563984028995037079 0.134471267461776733 -0.0813877657055854797
0.0142930643633008003 0.213498502969741821 -0.067530117928981781
-0.0592937692999839783 0.147721737623214722 0.125879600644111633
0.0828817635774612427 0.0982026681303977966 0.0765392109751701355
-0.197823092341423035 0.233795911073684692 0.0139631219208240509
-0.105092279613018036 0.145505085587501526 -0.121068231761455536
0.12124372273683548 0.0509724058210849762 0.0255493912845849991
-0.133164003491401672 0.105750970542430878 0.0685010403394699097
-0.154146209359169006 0.167551860213279724 0.039410468190908432
0.00992941763252019882 0.164468541741371155 -0.0910305827856063843
-0.0400167480111122131 0.0684904530644416809 -0.151705563068389893
-0.134980902075767517 0.201376438140869141 -0.161374270915985107
-0.0642455741763114929 0.152022376656532288 0.0755226463079452515
-0.0624162405729293823 0.0352527238428592682 -0.0983467027544975281
0.0121682481840252876 0.0585832931101322174 -0.121894724667072296
0.0697330012917518616 0.145354807376861572 -0.140589520335197449
-0.0192156508564949036 0.0827482268214225769 -0.131030410528182983
0.0232832375913858414 0.235337719321250916 0.0846593230962753296
0.0852824300527572632 0.0275205373764038086 -0.0845911279320716858
-0.0410105213522911072 0.226093083620071411 0.123718976974487305
0.122127413749694824 0.0962578952312469482 -0.0952322930097579956
0.0766684263944625854 0.122102648019790649 -0.0866456702351570129
0.119791112840175629 0.115537658333778381 0.060720931738615036
-0.0604681447148323059 0.115261286497116089 -0.150795012712478638
-0.141842439770698547 0.0786200985312461853 -0.0655538663268089294
-0.0718377828598022461 0.203610256314277649 -0.00179883372038602829
-0.0697832852602005005 0.247250780463218689 0.0389514081180095673
-0.117324702441692352 0.110472753643989563 0.0561229921877384186
-0.095518745481967926 0.158000081777572632 0.111203208565711975
0.0969572067260742188 0.0385063998401165009 0.0828813686966896057
0.0784292146563529968 0.220686450600624084 -0.0585939213633537292
0.0583925843238830566 0.200477927923202515 0.0596136413514614105
-0.0250576213002204895 0.244152843952178955 -0.0767519399523735046
0.112145066261291504 0.188277855515480042 -0.0459419861435890198
0.128514289855957031 0.134238302707672119 -0.108821183443069458
-0.0576647147536277771 0.149442285299301147 0.150905102491378784
-0.140372991561889648 0.183369919657707214 -0.101737551391124725
0.104407556354999542 0.131727620959281921 0.0313498862087726593
-0.0512026064097881317 0.183083906769752502 0.127008289098739624
-0.0836760401725769043 0.164949819445610046 0.152919799089431763
-0.0729722604155540466 0.085837826132774353 0.0997977405786514282
0.046194911003112793 0.0960931777954101562 -0.0950343459844589233
0.0826071426272392273 0.113350287079811096 0.162276118993759155
0.0882118195295333862 0.0614750310778617859 0.0617905482649803162
-0.0382499992847442627 0.131663590669631958 0.106740996241569519
0.0289647802710533142 0.0265756584703922272 -0.103462390601634979
-0.0671005696058273315 0.100682869553565979 -0.0668161064386367798
0.0751965418457984924 0.0643968656659126282 0.121255315840244293
-0.0687767043709754944 0.185412853956222534 0.18323110044002533
-0.00671034865081310272 0.0640763193368911743 0.136682271957397461
-0.173516333103179932 0.183899641036987305 -0.0680468752980232239
0.053707517683506012 0.21123148500919342 0.0197409056127071381
-0.0733197331428527832 0.11125299334526062 0.139932692050933838
-0.0723232924938201904 0.206012308597564697 -0.0606095083057880402
-0.0970646068453788757 0.086025729775428772 0.135086789727210999
-0.129353046417236328 0.115165688097476959 -0.0918271690607070923
0.111534833908081055 0.0300714354962110519 -0.0288441050797700882
0.00288555910810828209 0.0970396921038627625 -0.127260133624076843
0.0481374375522136688 0.0366897620260715485 0.121354788541793823
0.110562838613986969 0.0780057385563850403 0.0323920771479606628
-0.124264635145664215 0.232031524181365967 0.0119849145412445068
-0.185555726289749146 0.162092700600624084 0.0246746893972158432
0.0414690449833869934 0.236747667193412781 0.218464866280555725
-0.113957948982715607 0.224976807832717896 0.129821360111236572
-0.0484796278178691864 0.209952160716056824 0.121500447392463684
0.0417049005627632141 0.102784141898155212 0.140204906463623047
-0.140583544969558716 0.0586240217089653015 -0.0164262615144252777
0.00080234260531142354 0.212462380528450012 0.185287311673164368
0.0162125490605831146 0.176839157938957214 0.106074459850788116
-0.0589166022837162018 0.0991845354437828064 -0.171418562531471252
-0.0863762199878692627 0.216606155037879944 -0.0182254873216152191
-0.0458429940044879913 0.193229526281356812 0.0769837349653244019
0.122519224882125854 0.135285958647727966 0.00366647331975400448
0.116808876395225525 0.172038286924362183 0.0996720567345619202
-0.115444988012313843 0.187254056334495544 0.17402040958404541
-0.131583884358406067 0.196219250559806824 0.114798292517662048
-0.0496337674558162689 0.237266838550567627 -0.0473528914153575897
0.1443634033203125 0.127012759447097778 0.107871741056442261
-0.0541134849190711975 0.277718871831893921 0.0818378627300262451
0.0266972929239273071 0.0906438678503036499 0.128242731094360352
0.122217684984207153 0.112369388341903687 0.0473316125571727753
0.0392933636903762817 0.0562141649425029755 0.160028547048568726
-0.0559972710907459259 0.208269581198692322 0.0278674643486738205
0.0611303336918354034 0.0813943073153495789 -0.0897003486752510071
-0.0656906738877296448 0.17808203399181366 -0.000243919959757477045
0.132818877696990967 0.145151391625404358 0.025074150413274765
-0.0207488462328910828 0.0959374904632568359 -0.185135930776596069
-0.158565744757652283 0.186429083347320557 -0.130033209919929504
0.131149649620056152 0.0611477941274642944 -0.0105482917279005051
0.118842944502830505 0.128226771950721741 0.064459286630153656
-0.012305685319006443 0.0708869323134422302 0.115826264023780823
0.00261557265184819698 0.143910497426986694 0.119479268789291382
-0.123613514006137848 0.214299574494361877 0.0207328647375106812
0.0143846618011593819 0.0885445699095726013 -0.121781006455421448
0.017820354551076889 0.182966932654380798 0.161128029227256775
-0.126920074224472046 0.112098313868045807 0.038773268461227417
0.0314140096306800842 0.135770067572593689 0.115413054823875427
0.0247616749256849289 0.137498572468757629 0.0916387289762496948
-0.0346548669040203094 0.190257355570793152 0.190910562872886658
-0.116448879241943359 0.13816089928150177 -0.144435882568359375
0.142273575067520142 0.0604103989899158478 -0.0494744107127189636
0.111898854374885559 0.0899385511875152588 0.118338786065578461
0.197941437363624573 0.186355620622634888 -0.0120197664946317673
0.079824790358543396 0.27468574047088623 -0.0446868687868118286
0.0407828018069267273 0.116955287754535675 -0.0917725488543510437
0.103352658450603485 0.114629365503787994 0.00720763392746448517
0.0174102969467639923 0.0322247594594955444 0.142130017280578613
-0.170731216669082642 0.204851016402244568 -0.0265893582254648209
-0.0421665720641613007 0.114313051104545593 -0.0875642523169517517
-0.0941814109683036804 0.207379966974258423 0.135219380259513855
-0.089361339807510376 0.17099529504776001 0.0607260242104530334
-0.0772525966167449951 0.134994640946388245 -0.0523258671164512634
0.133768036961555481 0.0199578069150447845 0.0766729414463043213
-0.0319790728390216827 0.114759571850299835 0.151695847511291504
0.127839609980583191 0.168595686554908752 0.0690699741244316101
0.096733585000038147 0.181477546691894531 -0.0247705597430467606
-0.015492832288146019 0.203326791524887085 -0.12544974684715271
0.0622602254152297974 0.216124773025512695 0.0901906788349151611
0.077898852527141571 0.048322681337594986 0.098234914243221283
-0.191764622926712036 0.232137501239776611 -0.0893590077757835388
-0.00458414060994982719 0.202303916215896606 -0.174274459481239319
-0.0450604185461997986 0.08396177738904953 0.131495550274848938
0.129568248987197876 0.227328047156333923 0.0845153555274009705
-0.194600746035575867 0.192505627870559692 0.0324234403669834137
-0.164944902062416077 0.131770581007003784 -0.0132155530154705048
0.069838792085647583 0.0122777726501226425 0.0108898719772696495
0.211218073964118958 0.242412537336349487 0.0414814800024032593
0.0985447689890861511 0.231194376945495605 0.020598655566573143
-0.10620405524969101 0.141278639435768127 -0.0375017188489437103
0.107188813388347626 0.162623852491378784 0.0525644123554229736
0.0531690604984760284 0.215897202491760254 -0.0407117605209350586
0.0243593920022249222 0.198509842157363892 0.0693397298455238342
0.0713685452938079834 0.210167810320854187 0.190981566905975342
0.10414297878742218 0.198873564600944519 -0.0958710536360740662
-0.0823417752981185913 0.205071449279785156 0.0435891412198543549
0.0376218408346176147 0.0674305185675621033 0.165273696184158325
0.0449016094207763672 0.254353374242782593 0.0911345481872558594
0.167612046003341675 0.199788659811019897 -0.0899348780512809753
0.0913057252764701843 0.0736346021294593811 0.0757154971361160278
-0.0594281852245330811 0.0961932241916656494 -0.124369680881500244
-0.128807604312896729 0.0734031647443771362 -0.056008119136095047
-0.142646938562393188 0.176053181290626526 0.0658377707004547119
0.0933081060647964478 0.174367591738700867 0.0290806666016578674
-0.0665711089968681335 0.184383809566497803 -0.0731395110487937927
0.0805140435695648193 0.221369042992591858 0.0225611720234155655
0.0897064283490180969 0.143828645348548889 -0.0499906875193119049
-0.0607683807611465454 0.0271965730935335159 0.0273160524666309357
0.0152587210759520531 0.217568948864936829 0.0980241894721984863
-0.0906965136528015137 0.135055720806121826 0.0672315657138824463
0.074234306812286377 0.27508842945098877 0.0940114930272102356
0.120166115462779999 0.0562396533787250519 0.0143977850675582886
-0.0230173971503973007 0.115654148161411285 0.123259417712688446
-0.0223847441375255585 0.174636334180831909 -0.131171524524688721
-0.0952627509832382202 0.271612673997879028 0.000344160973327234387
0.0025147490669041872 0.185759842395782471 -0.0584625042974948883
0.145448416471481323 0.181225970387458801 -0.0976381897926330566
