ply
format ascii 1.0
element vertex 717
property float x
property float y
property float z
end_header
-0.229778096079826355 -0.143582329154014587 -0.838344275951385498
-0.184798061847686768 -0.16689714789390564 -0.810683190822601318
-0.272740453481674194 -0.165262132883071899 -0.966045975685119629
-0.174109876155853271 -0.112301826477050781 -0.551423788070678711
-0.0541733428835868835 -0.121846280992031097 -0.605218231678009033
-0.313780397176742554 -0.22008812427520752 -0.939194321632385254
0.314239263534545898 -0.256166338920593262 -0.352196931838989258
-0.159585312008857727 -0.10050470381975174 -0.694598734378814697
-0.396685749292373657 -0.185249850153923035 -0.976387083530426025
0.263645797967910767 -0.260146349668502808 -0.384508043527603149
-0.453650683164596558 0.0369079671800136566 -0.783875942230224609
-0.214222356677055359 -0.232693523168563843 -0.802171170711517334
0.58225095272064209 -0.364280223846435547 -0.124203130602836609
0.177049875259399414 -0.195540353655815125 -0.420527547597885132
0.0970329418778419495 -0.170882776379585266 -0.491987168788909912
-0.093355908989906311 -0.238442227244377136 -0.644187331199645996
-0.0845221430063247681 -0.1431007981300354 -0.638684988021850586
-0.22747117280960083 -0.0657178312540054321 -0.770646035671234131
-0.290366590023040771 -0.157727017998695374 -0.988575100898742676
-0.34374651312828064 -0.235695049166679382 -0.984196484088897705
-0.150408327579498291 -0.161516487598419189 -0.596224427223205566
-0.181804969906806946 -0.229998186230659485 -0.853062331676483154
-0.271999627351760864 -0.0165770351886749268 -0.728673219680786133
-0.230362281203269958 -0.0888413041830062866 -0.776093780994415283
-0.232061296701431274 -0.14750419557094574 -0.713446319103240967
-0.115314945578575134 -0.13249775767326355 -0.656585812568664551
-0.0992817282676696777 -0.263297468423843384 -0.735811114311218262
-0.362266629934310913 0.011614236980676651 -0.785398900508880615
-0.0237937849014997482 -0.139265298843383789 -0.57522881031036377
-0.472423762083053589 0.0311231762170791626 -0.785871446132659912
0.622213304042816162 -0.396543771028518677 -0.0841923505067825317
-0.359238594770431519 -0.132675781846046448 -0.960308551788330078
-0.163410410284996033 -0.225179657340049744 -0.859277665615081787
-0.0965588092803955078 -0.166379883885383606 -0.712410628795623779
0.0345007404685020447 -0.17242567241191864 -0.574233829975128174
-0.171543672680854797 -0.043909851461648941 -0.690137147903442383
-0.39539375901222229 -0.176252663135528564 -1.07019209861755371
-0.101002663373947144 -0.222044333815574646 -0.765061438083648682
0.0722570717334747314 -0.183145716786384583 -0.46043771505355835
-0.294596284627914429 -0.198707655072212219 -0.879718244075775146
0.1460610032081604 -0.186645671725273132 -0.41678696870803833
-0.328938901424407959 -0.12787938117980957 -0.924485623836517334
0.193039506673812866 -0.214598700404167175 -0.415560632944107056
0.45696491003036499 -0.31886744499206543 -0.211477294564247131
-0.291440337896347046 -0.18087555468082428 -0.978897511959075928
0.589672982692718506 -0.408175140619277954 -0.0670079663395881653
-0.240580841898918152 -0.148197755217552185 -0.713192224502563477
-0.056589566171169281 -0.141414150595664978 -0.595373034477233887
-0.0235129650682210922 -0.232884809374809265 -0.661360323429107666
0.00501102488487958908 -0.147736847400665283 -0.585272312164306641
0.518305957317352295 -0.347299069166183472 -0.185464799404144287
-0.33489382266998291 -0.209528878331184387 -0.910813808441162109
0.103999704122543335 -0.193472772836685181 -0.446236968040466309
0.0624814070761203766 -0.144746080040931702 -0.490701586008071899
0.455381602048873901 -0.318221837282180786 -0.227324828505516052
0.504897713661193848 -0.333642542362213135 -0.16890089213848114
0.136189520359039307 -0.202382490038871765 -0.474975109100341797
0.242112129926681519 -0.227415874600410461 -0.368000626564025879
-0.164645805954933167 -0.259142130613327026 -0.79881817102432251
-0.0770462378859519958 -0.123458534479141235 -0.607930660247802734
-0.258223086595535278 -0.148136705160140991 -0.943679630756378174
0.162056624889373779 -0.194766804575920105 -0.431471049785614014
-0.314720064401626587 -0.217174381017684937 -0.95724862813949585
-0.211192607879638672 -0.245727956295013428 -0.829777956008911133
-0.366609007120132446 0.0307280737906694412 -0.785104691982269287
-0.281839191913604736 -0.155995547771453857 -0.794546782970428467
-0.227117270231246948 -0.203632578253746033 -0.953574836254119873
-0.384723544120788574 -0.0217100139707326889 -0.676225602626800537
0.6354941725730896 -0.444306671619415283 -0.0154778677970170975
-0.326696932315826416 -0.198969349265098572 -1.04272103309631348
0.238480299711227417 -0.261381685733795166 -0.364061802625656128
0.256551206111907959 -0.217511415481567383 -0.346982479095458984
-0.0810262709856033325 -0.185499072074890137 -0.545139551162719727
-0.063622690737247467 -0.248232439160346985 -0.66485130786895752
-0.129249334335327148 -0.149093657732009888 -0.730073511600494385
-0.234880149364471436 -0.0297992359846830368 -0.668304502964019775
-0.348663657903671265 -0.197138115763664246 -0.9251556396484375
-0.019057009369134903 -0.152102440595626831 -0.594087123870849609
-0.0206475928425788879 -0.166426092386245728 -0.592444419860839844
-0.369961678981781006 -0.0576542466878890991 -0.748433470726013184
-0.261053532361984253 -0.193220198154449463 -0.931444883346557617
0.594243705272674561 -0.425998896360397339 -0.0803975164890289307
0.447259873151779175 -0.306375741958618164 -0.210320442914962769
-0.270376503467559814 -0.0929708406329154968 -0.675157845020294189
-0.155478894710540771 -0.217090174555778503 -0.841477394104003906
0.0533621534705162048 -0.217024520039558411 -0.525717258453369141
0.375064551830291748 -0.280258387327194214 -0.267679154872894287
-0.318735897541046143 -0.151328191161155701 -0.994650065898895264
-0.259135663509368896 -0.155606016516685486 -0.736215591430664062
-0.402976512908935547 -0.221600070595741272 -1.0018998384475708
-0.17694486677646637 -0.165899559855461121 -0.82151949405670166
-0.150568783283233643 -0.141739264130592346 -0.694477617740631104
0.177473530173301697 -0.233846545219421387 -0.465307474136352539
-0.452918440103530884 -0.178650960326194763 -1.14879155158996582
0.0115251475945115089 -0.136079445481300354 -0.559039592742919922
-0.233964532613754272 -0.141544133424758911 -0.816792666912078857
-0.247749105095863342 -0.100664660334587097 -0.804635822772979736
0.606578350067138672 -0.369792819023132324 -0.120091311633586884
0.277842968702316284 -0.28399813175201416 -0.369295269250869751
0.216947808861732483 -0.270385712385177612 -0.415329903364181519
0.314009904861450195 -0.255690425634384155 -0.316287368535995483
-0.432013601064682007 -0.157278448343276978 -1.14271926879882812
0.0419329442083835602 -0.169818460941314697 -0.542467296123504639
0.32909625768661499 -0.243193089962005615 -0.316496402025222778
-0.283863216638565063 -0.152331992983818054 -0.983675122261047363
-0.303904950618743896 -0.0770702958106994629 -0.679273903369903564
-0.233196139335632324 -0.22570529580116272 -0.963811159133911133
-0.237094968557357788 -0.179841101169586182 -0.928458452224731445
-0.190588086843490601 -0.0516058839857578278 -0.698094606399536133
-0.247891560196876526 -0.0459498949348926544 -0.711466610431671143
-0.198010265827178955 -0.240320131182670593 -0.880000710487365723
-0.356082707643508911 -0.135827437043190002 -0.979643285274505615
-0.0814012810587882996 -0.163067415356636047 -0.680809140205383301
-0.273809969425201416 -0.0761991739273071289 -0.664029538631439209
-0.00974713359028100967 -0.168382272124290466 -0.474931627511978149
-0.268170058727264404 -0.163462460041046143 -0.795742154121398926
-0.0742651447653770447 -0.20370781421661377 -0.762652099132537842
-0.354210615158081055 -0.22948417067527771 -1.05511856079101562
-0.224767088890075684 -0.167486816644668579 -0.879580676555633545
0.132416054606437683 -0.194160789251327515 -0.43026655912399292
-0.169435083866119385 -0.0430843643844127655 -0.661849141120910645
-0.30858185887336731 -0.243790626525878906 -0.952897489070892334
-0.00990152638405561447 -0.182509765028953552 -0.62764132022857666
0.143873795866966248 -0.187877848744392395 -0.427080839872360229
-0.040216054767370224 -0.221888542175292969 -0.671106815338134766
-0.319184154272079468 -0.010745929554104805 -0.773656725883483887
0.548701465129852295 -0.365931212902069092 -0.180772706866264343
-0.163766905665397644 -0.172842755913734436 -0.842116713523864746
-0.0226883869618177414 -0.222709506750106812 -0.582651913166046143
-0.28322717547416687 -0.12137112021446228 -0.856688141822814941
-0.00390981277450919151 -0.119844257831573486 -0.559177696704864502
-0.153060957789421082 -0.223830193281173706 -0.689359366893768311
-0.0281752459704875946 -0.153844967484474182 -0.48746645450592041
0.0721586644649505615 -0.163639187812805176 -0.561635911464691162
0.168443560600280762 -0.2601967453956604 -0.408230006694793701
-0.373294621706008911 -0.163313016295433044 -0.947213053703308105
-0.175644978880882263 -0.171036139130592346 -0.841906130313873291
-0.0387043841183185577 -0.110435068607330322 -0.570189893245697021
-0.348041325807571411 -0.224252358078956604 -1.04176831245422363
-0.445071518421173096 -0.172678381204605103 -1.14375925064086914
-0.0960785895586013794 -0.233483105897903442 -0.761081874370574951
-0.149446249008178711 -0.142870903015136719 -0.788234949111938477
0.218193680047988892 -0.226473584771156311 -0.338471889495849609
0.121843248605728149 -0.185406357049942017 -0.468461096286773682
0.0884505510330200195 -0.179594039916992188 -0.455152034759521484
-0.0403109341859817505 -0.165400311350822449 -0.649253666400909424
-0.000939086603466421366 -0.190392732620239258 -0.585356056690216064
0.159869581460952759 -0.247597754001617432 -0.451387882232666016
-0.345520317554473877 -0.0798225030303001404 -0.777501046657562256
-0.121689341962337494 -0.160325154662132263 -0.733704924583435059
-0.340797781944274902 -0.0290967114269733429 -0.789744019508361816
-0.189253911375999451 -0.211816206574440002 -0.741520106792449951
0.28917992115020752 -0.262629151344299316 -0.352250903844833374
0.293615847826004028 -0.265872210264205933 -0.388857275247573853
0.24013751745223999 -0.225170135498046875 -0.356596916913986206
-0.257553935050964355 -0.213442280888557434 -0.924097776412963867
0.0998256877064704895 -0.200771361589431763 -0.511617422103881836
-0.417709589004516602 -0.0121183684095740318 -0.71866142749786377
-0.26396605372428894 -0.130027920007705688 -0.723820209503173828
-0.348006516695022583 -0.175959587097167969 -1.04822814464569092
-0.213070854544639587 -0.0415369756519794464 -0.676197230815887451
0.140515878796577454 -0.176240473985671997 -0.453733116388320923
-0.30560639500617981 -0.0182126555591821671 -0.808063685894012451
-0.165535822510719299 -0.0719553381204605103 -0.679505109786987305
0.0279556009918451309 -0.186955034732818604 -0.537403345108032227
-0.166242435574531555 -0.208676829934120178 -0.732264518737792969
0.444878429174423218 -0.306646168231964111 -0.22811146080493927
-0.173564612865447998 -0.273559093475341797 -0.812985539436340332
-0.188128083944320679 -0.130490809679031372 -0.743060827255249023
-0.107089005410671234 -0.181857630610466003 -0.767047643661499023
-0.216510370373725891 -0.11106785386800766 -0.765488684177398682
-0.2282390296459198 -0.168893769383430481 -0.743559718132019043
0.155806183815002441 -0.195989623665809631 -0.410537809133529663
-0.175639569759368896 -0.102329246699810028 -0.692652583122253418
0.639296293258666992 -0.434793144464492798 -0.0336739420890808105
0.260433286428451538 -0.255175620317459106 -0.357148319482803345
-0.143132016062736511 -0.207282423973083496 -0.672385871410369873
-0.427513808012008667 0.00075457763159647584 -0.715112924575805664
-0.252853870391845703 -0.126771524548530579 -0.698354125022888184
-0.179093942046165466 -0.205519035458564758 -0.867706537246704102
-0.135524705052375793 -0.135156407952308655 -0.655289709568023682
-0.351757258176803589 -0.053820926696062088 -0.715139865875244141
-0.296692043542861938 -0.0657074600458145142 -0.649640202522277832
-0.349739700555801392 -0.205803155899047852 -0.9964255690574646
-0.25121644139289856 -0.0613218843936920166 -0.75166630744934082
-0.223342835903167725 -0.231731399893760681 -0.854625046253204346
0.557020723819732666 -0.391732871532440186 -0.112222708761692047
-0.125425785779953003 -0.165260583162307739 -0.721834182739257812
-0.150756746530532837 -0.0579970963299274445 -0.626341104507446289
-0.118060216307640076 -0.22143690288066864 -0.629524111747741699
-0.226854860782623291 -0.177236974239349365 -0.891556680202484131
-0.317341864109039307 -0.220311447978019714 -0.927944600582122803
-0.210003450512886047 -0.211117669939994812 -0.901119112968444824
0.0516821146011352539 -0.184056788682937622 -0.550380587577819824
0.132684797048568726 -0.175760194659233093 -0.439464449882507324
0.528911292552947998 -0.374467819929122925 -0.180396154522895813
0.201584652066230774 -0.242987647652626038 -0.422723203897476196
-0.00024086366465780884 -0.186742186546325684 -0.495885461568832397
0.451283663511276245 -0.331031501293182373 -0.240603536367416382
0.563542485237121582 -0.411709129810333252 -0.0958958640694618225
-0.220334663987159729 -0.081409841775894165 -0.73644179105758667
-0.416177123785018921 -0.0659302994608879089 -0.769409120082855225
-0.374598979949951172 -0.023089604452252388 -0.748684942722320557
-0.0700910165905952454 -0.202203348278999329 -0.523984074592590332
-0.20623132586479187 -0.0718126893043518066 -0.727312564849853516
-0.0418050438165664673 -0.130338624119758606 -0.637980282306671143
0.0258936882019042969 -0.178064212203025818 -0.601720750331878662
-0.261411607265472412 -0.0586096495389938354 -0.60951918363571167
0.643625140190124512 -0.435897082090377808 0.00225896458141505718
0.0351570770144462585 -0.151258066296577454 -0.515521228313446045
-0.0415820404887199402 -0.20036594569683075 -0.670956254005432129
0.00161310669500380754 -0.153940826654434204 -0.56307685375213623
-0.417842298746109009 -0.180535957217216492 -1.02984833717346191
-0.335834860801696777 -0.125902935862541199 -0.839322745800018311
0.153165236115455627 -0.220442637801170349 -0.497910439968109131
0.59362870454788208 -0.434904754161834717 -0.0481402315199375153
-0.00254315719939768314 -0.162382960319519043 -0.498246699571609497
-0.06842852383852005 -0.100952409207820892 -0.568183183670043945
0.00104219431523233652 -0.157659962773323059 -0.570331692695617676
-0.086287371814250946 -0.279121696949005127 -0.683189094066619873
0.297246605157852173 -0.277180701494216919 -0.345941126346588135
-0.0348003022372722626 -0.224524140357971191 -0.557232379913330078
-0.358015328645706177 -0.226185053586959839 -1.03268957138061523
0.250818759202957153 -0.259074300527572632 -0.34025728702545166
-0.213874474167823792 -0.237683787941932678 -0.933135747909545898
-0.176657631993293762 -0.241581439971923828 -0.800757050514221191
-0.170926645398139954 -0.100888319313526154 -0.722127914428710938
-0.104918085038661957 -0.119008801877498627 -0.699649989604949951
-0.170343995094299316 -0.152206405997276306 -0.601258933544158936
0.553288817405700684 -0.392764151096343994 -0.167094424366950989
-0.000182580406544730067 -0.242361545562744141 -0.587473571300506592
-0.289109885692596436 -0.0831072777509689331 -0.804994344711303711
-0.400310426950454712 -0.0265873707830905914 -0.718846499919891357
0.0251277107745409012 -0.12592373788356781 -0.534366428852081299
-0.0878396257758140564 -0.120286189019680023 -0.607686936855316162
-0.296543747186660767 -0.169553682208061218 -0.821505606174468994
-0.17173004150390625 -0.126045927405357361 -0.56605154275894165
-0.333670824766159058 -0.0792484432458877563 -0.727427899837493896
-0.00538677535951137543 -0.171307995915412903 -0.61690598726272583
-0.115369349718093872 -0.169472530484199524 -0.612811267375946045
-0.150224208831787109 -0.244171932339668274 -0.738690018653869629
-0.259054511785507202 -0.102767109870910645 -0.810174226760864258
0.0814335942268371582 -0.172128558158874512 -0.490315645933151245
0.579193234443664551 -0.404315471649169922 -0.0615888237953186035
-0.081851571798324585 -0.194596663117408752 -0.683799564838409424
-0.311110049486160278 -0.225290685892105103 -0.943677306175231934
-0.0249321702867746353 -0.197372063994407654 -0.504953861236572266
-0.31111869215965271 -0.187513589859008789 -1.02432394027709961
-0.25402379035949707 -0.213348805904388428 -0.995312094688415527
-0.18263794481754303 -0.122487910091876984 -0.74785304069519043
0.193199008703231812 -0.227318346500396729 -0.395182788372039795
0.532703995704650879 -0.33883899450302124 -0.163102075457572937
0.215361729264259338 -0.228720039129257202 -0.364327937364578247
-0.29320216178894043 -0.237135186791419983 -0.942962646484375
-0.151300415396690369 -0.238763794302940369 -0.804499447345733643
0.338309705257415771 -0.26532861590385437 -0.266093283891677856
-0.281817585229873657 -0.131659805774688721 -0.882892191410064697
-0.139740750193595886 -0.0781198814511299133 -0.679549038410186768
-0.18599216639995575 -0.164855018258094788 -0.657133340835571289
0.618682503700256348 -0.474270552396774292 -0.0435272343456745148
-0.111874610185623169 -0.248664110898971558 -0.780470907688140869
-0.0467764325439929962 -0.115807235240936279 -0.574892759323120117
-0.0320325903594493866 -0.183515474200248718 -0.533741414546966553
-0.158042028546333313 -0.109719492495059967 -0.657405734062194824
0.0596731491386890411 -0.152448922395706177 -0.511823832988739014
0.0376723557710647583 -0.170857444405555725 -0.543552696704864502
-0.118726462125778198 -0.131087392568588257 -0.738953530788421631
0.628248393535614014 -0.458006203174591064 -0.0224436484277248383
-0.089504539966583252 -0.132698893547058105 -0.683661520481109619
-0.389094889163970947 -0.203457862138748169 -0.995562851428985596
-0.376534849405288696 -0.0232358742505311966 -0.783567726612091064
0.0747701153159141541 -0.194070905447006226 -0.448120713233947754
-0.299669265747070312 -0.241686880588531494 -0.949782788753509521
-0.0434193983674049377 -0.183837622404098511 -0.646864891052246094
0.616690695285797119 -0.433717489242553711 -0.0508126802742481232
-0.36526036262512207 0.0175405777990818024 -0.755091667175292969
0.613848984241485596 -0.430535018444061279 -0.0748541802167892456
-0.130690127611160278 -0.203719824552536011 -0.804138004779815674
0.000140155767439864576 -0.160837605595588684 -0.607683897018432617
-0.0493268035352230072 -0.220487788319587708 -0.74715423583984375
0.586591243743896484 -0.442204445600509644 -0.0880441367626190186
-0.0373061783611774445 -0.219040542840957642 -0.516768932342529297
-0.415496557950973511 -0.182598873972892761 -1.10198521614074707
-0.0227266047149896622 -0.195687472820281982 -0.637970685958862305
-0.032812509685754776 -0.165354788303375244 -0.627852916717529297
-0.283132463693618774 -0.202852174639701843 -0.997221469879150391
-0.305914342403411865 -0.165087342262268066 -0.976320862770080566
0.055881839245557785 -0.184058427810668945 -0.568953335285186768
0.455900877714157104 -0.336469769477844238 -0.17249724268913269
0.584754049777984619 -0.40428510308265686 -0.157100632786750793
-0.273991107940673828 -0.216252043843269348 -0.835387885570526123
0.326666861772537231 -0.269878178834915161 -0.2797069251537323
-0.225925564765930176 -0.258299857378005981 -0.888634562492370605
0.627671718597412109 -0.46549910306930542 -0.0892419889569282532
0.469074457883834839 -0.339162290096282959 -0.169091284275054932
0.0777474269270896912 -0.153900280594825745 -0.499058276414871216
-0.0772590562701225281 -0.084956042468547821 -0.562368333339691162
-0.0907386466860771179 -0.212352007627487183 -0.735388457775115967
-0.327275544404983521 -0.222883924841880798 -0.991374075412750244
-0.411956638097763062 -0.162885710597038269 -1.09739363193511963
-0.239000082015991211 -0.237006589770317078 -0.79978477954864502
-0.320888519287109375 -0.0972914397716522217 -0.712990760803222656
-0.0801003873348236084 -0.245275139808654785 -0.651665449142456055
-0.329068511724472046 -0.0761033147573471069 -0.81490790843963623
-0.263514727354049683 -0.239101096987724304 -0.86051863431930542
-0.0855646282434463501 -0.12847234308719635 -0.685404360294342041
-0.23121267557144165 -0.0544954650104045868 -0.732860326766967773
-0.27419590950012207 -0.117895647883415222 -0.90340501070022583
-0.396382033824920654 0.0444736480712890625 -0.772073328495025635
0.329767405986785889 -0.28509792685508728 -0.337250739336013794
-0.196070313453674316 -0.252079486846923828 -0.797586381435394287
-0.128801912069320679 -0.0987175554037094116 -0.636053323745727539
0.0787487849593162537 -0.188980564475059509 -0.502434253692626953
-0.210726514458656311 -0.173876851797103882 -0.724333643913269043
-0.0938876718282699585 -0.256159096956253052 -0.70192253589630127
-0.0802895873785018921 -0.110858768224716187 -0.611023426055908203
0.00628466391935944557 -0.224182486534118652 -0.572571933269500732
-0.392412245273590088 -0.176296651363372803 -1.12161147594451904
-0.289553821086883545 -0.183003693819046021 -0.805465042591094971
0.088397487998008728 -0.201618194580078125 -0.450542807579040527
-0.235313564538955688 -0.152114599943161011 -0.87811434268951416
-0.318662792444229126 -0.22692243754863739 -0.917468011379241943
0.440151095390319824 -0.327983081340789795 -0.256543785333633423
0.03604087233543396 -0.182253316044807434 -0.582987427711486816
-0.243964061141014099 -0.134398713707923889 -0.873228847980499268
0.314490944147109985 -0.279032528400421143 -0.347059130668640137
0.474992871284484863 -0.348541826009750366 -0.207366973161697388
0.40727686882019043 -0.313285797834396362 -0.267765611410140991
-0.353751778602600098 -0.0357346683740615845 -0.696899116039276123
-0.0312671363353729248 -0.15148647129535675 -0.589366018772125244
-0.118129126727581024 -0.244208812713623047 -0.774067103862762451
-0.00632438855245709419 -0.11711333692073822 -0.550017178058624268
-0.179953470826148987 -0.228060916066169739 -0.750028789043426514
-0.162262097001075745 -0.115654900670051575 -0.69296950101852417
-0.125487208366394043 -0.110552780330181122 -0.680002152919769287
0.260419756174087524 -0.245014160871505737 -0.407436341047286987
0.614473283290863037 -0.493428647518157959 -0.0509459897875785828
-0.418072223663330078 -0.173097416758537292 -1.13854038715362549
0.0748758986592292786 -0.207583636045455933 -0.537454903125762939
-0.289823561906814575 -0.207701757550239563 -0.869636058807373047
-0.1387978196144104 -0.118606530129909515 -0.695843756198883057
-0.344331711530685425 -0.232544302940368652 -1.0232999324798584
0.125942036509513855 -0.168765798211097717 -0.420670807361602783
-0.383575707674026489 -0.226243630051612854 -1.03663337230682373
-0.0959095805883407593 -0.194973155856132507 -0.761211872100830078
-0.13383619487285614 -0.0786636173725128174 -0.626068294048309326
-0.267225503921508789 -0.085429064929485321 -0.810007154941558838
0.118544220924377441 -0.240180164575576782 -0.484458476305007935
-0.251375406980514526 -0.0845843404531478882 -0.810433864593505859
-0.0194533094763755798 -0.112119674682617188 -0.568241000175476074
-0.231372043490409851 -0.145911142230033875 -0.693537473678588867
-0.316003620624542236 -0.0321661606431007385 -0.639670372009277344
-0.360496193170547485 -0.239053457975387573 -1.01862263679504395
-0.16709686815738678 -0.0629433318972587585 -0.647255778312683105
0.499945610761642456 -0.346542149782180786 -0.186512336134910583
-0.255357831716537476 -0.244172200560569763 -0.864553987979888916
0.302871495485305786 -0.270530492067337036 -0.327061951160430908
-0.325369298458099365 -0.202094420790672302 -1.00833725929260254
-0.0553900972008705139 -0.102672666311264038 -0.572190642356872559
-0.393300861120223999 -0.1643170565366745 -1.07402360439300537
-0.395043820142745972 -0.0423758700489997864 -0.767764806747436523
-0.148165479302406311 -0.0981019660830497742 -0.702572107315063477
0.0261033456772565842 -0.147178426384925842 -0.55132138729095459
-0.307485818862915039 0.0123199215158820152 -0.728200912475585938
0.550648808479309082 -0.396924227476119995 -0.186065852642059326
-0.287410825490951538 -0.133481338620185852 -0.91186988353729248
-0.213370040059089661 -0.170580536127090454 -0.852752447128295898
-0.241159394383430481 -0.233858257532119751 -0.878996908664703369
-0.295878291130065918 -0.245350122451782227 -0.889409124851226807
0.21561238169670105 -0.218844547867774963 -0.423885494470596313
0.633574962615966797 -0.391035884618759155 -0.0793489143252372742
-0.0896475762128829956 -0.25747409462928772 -0.671651244163513184
-0.322094887495040894 -0.0705446228384971619 -0.717628419399261475
-0.248963296413421631 -0.241790637373924255 -0.914239943027496338
-0.042459830641746521 -0.0827162563800811768 -0.6013985276222229
-0.159305855631828308 -0.137620851397514343 -0.773448765277862549
-0.441505789756774902 -0.154607966542243958 -1.11743378639221191
-0.436653345823287964 -0.190645292401313782 -1.14887094497680664
-0.203554317355155945 -0.219171375036239624 -0.787436485290527344
-0.202172324061393738 -0.255278080701828003 -0.834049046039581299
-0.201113179326057434 -0.0850503072142601013 -0.731163263320922852
-0.0810035541653633118 -0.128579631447792053 -0.621040999889373779
-0.1552010178565979 -0.226111516356468201 -0.731475591659545898
0.652298450469970703 -0.41180536150932312 -0.0506811700761318207
0.250489473342895508 -0.258775413036346436 -0.385145813226699829
-0.350745826959609985 -0.106417514383792877 -0.813598573207855225
-0.349473446607589722 -0.206503838300704956 -0.952284336090087891
-0.212744995951652527 -0.140926435589790344 -0.691368341445922852
-0.185808494687080383 -0.095949612557888031 -0.579448103904724121
0.302256107330322266 -0.276282668113708496 -0.341335117816925049
0.408376514911651611 -0.324792772531509399 -0.247133597731590271
-0.0226702708750963211 -0.112811878323554993 -0.52906489372253418
-0.252205640077590942 -0.209084644913673401 -0.832352817058563232
-0.0515649430453777313 -0.16031472384929657 -0.634475111961364746
-0.443378746509552002 -0.187682509422302246 -1.07420742511749268
0.246914923191070557 -0.258780896663665771 -0.371468842029571533
-0.174591675400733948 -0.210751980543136597 -0.832172632217407227
0.280264914035797119 -0.261129528284072876 -0.377291649580001831
-0.0426113083958625793 -0.165452703833580017 -0.483193010091781616
-0.128867700695991516 -0.0894546955823898315 -0.627765238285064697
-0.0484590828418731689 -0.229152560234069824 -0.688094615936279297
-0.294847249984741211 -0.0175015777349472046 -0.725176870822906494
0.243588104844093323 -0.23697759211063385 -0.365468770265579224
-0.285817921161651611 -0.168769627809524536 -0.947745680809020996
0.184559181332588196 -0.236818581819534302 -0.450956106185913086
-0.214317724108695984 -0.0433899201452732086 -0.726678967475891113
-0.248225033283233643 -0.0664126798510551453 -0.740648210048675537
0.47300383448600769 -0.33221164345741272 -0.205631062388420105
-0.287757724523544312 -0.108980342745780945 -0.848066747188568115
-0.2561320960521698 -0.221328794956207275 -0.901821911334991455
0.598147213459014893 -0.470757842063903809 -0.120287477970123291
-0.478037238121032715 -0.220646083354949951 -1.10422253608703613
-0.149594634771347046 -0.102241985499858856 -0.702618300914764404
-0.0195852555334568024 -0.163652762770652771 -0.529906511306762695
0.198428422212600708 -0.195681929588317871 -0.365984290838241577
-0.391674250364303589 -0.16119462251663208 -1.07799339294433594
0.360967367887496948 -0.276304125785827637 -0.312986165285110474
-0.162482008337974548 -0.237570777535438538 -0.746845364570617676
-0.269624412059783936 -0.25209847092628479 -0.935829281806945801
0.0742679759860038757 -0.200185015797615051 -0.473545759916305542
0.0220958776772022247 -0.171154439449310303 -0.481529176235198975
-0.215893968939781189 -0.103992998600006104 -0.650910615921020508
-0.203624308109283447 -0.144484192132949829 -0.807575404644012451
-0.361756205558776855 -0.192233175039291382 -0.989886224269866943
-0.234248504042625427 -0.0506861507892608643 -0.706142127513885498
-0.204798251390457153 -0.126288503408432007 -0.799749672412872314
0.614318370819091797 -0.401613861322402954 -0.098844870924949646
0.618879377841949463 -0.407691359519958496 -0.0719707086682319641
-0.360391587018966675 -0.182129144668579102 -0.925454139709472656
-0.160500168800354004 -0.220084071159362793 -0.864652335643768311
-0.151440292596817017 -0.154015064239501953 -0.62612307071685791
-0.187085866928100586 -0.045706622302532196 -0.646252632141113281
-0.453059285879135132 0.0293295308947563171 -0.752069175243377686
-0.264313191175460815 -0.141281262040138245 -0.726925492286682129
0.281630545854568481 -0.273450195789337158 -0.34617266058921814
0.317811965942382812 -0.282023787498474121 -0.32410624623298645
-0.194857373833656311 -0.220100283622741699 -0.775813400745391846
-0.434348165988922119 -0.0111776469275355339 -0.755006909370422363
0.650852322578430176 -0.461575478315353394 -0.00151223328430205584
-0.0795858651399612427 -0.089488886296749115 -0.599489390850067139
-0.446699529886245728 -0.185382470488548279 -1.14066267013549805
0.0657597333192825317 -0.134984984993934631 -0.485406041145324707
-0.371626079082489014 -0.158457487821578979 -1.00991320610046387
0.586458384990692139 -0.401853233575820923 -0.11177188903093338
0.556746780872344971 -0.358907908201217651 -0.16291065514087677
0.175811558961868286 -0.197471171617507935 -0.421136736869812012
0.469397276639938354 -0.357105076313018799 -0.167541056871414185
-0.312180161476135254 -0.197334393858909607 -0.886213958263397217
-0.267060339450836182 -0.113148711621761322 -0.71064603328704834
0.347214639186859131 -0.304155856370925903 -0.338889360427856445
-0.084135398268699646 -0.137894600629806519 -0.657232880592346191
-0.130656138062477112 -0.14722520112991333 -0.547504425048828125
0.0384500287473201752 -0.198041453957557678 -0.577890455722808838
-0.277565509080886841 -0.245722502470016479 -0.955022335052490234
0.0647285580635070801 -0.165335670113563538 -0.482868850231170654
-0.154755175113677979 -0.0887984111905097961 -0.657881438732147217
-0.176524564623832703 -0.137551680207252502 -0.785550057888031006
0.321373552083969116 -0.275821119546890259 -0.295458167791366577
-0.335605412721633911 -0.166898161172866821 -0.82099074125289917
-0.350641220808029175 -0.242161348462104797 -0.990772902965545654
-0.179811134934425354 -0.100115522742271423 -0.6919899582862854
-0.135856404900550842 -0.168770045042037964 -0.62096095085144043
-0.166918888688087463 -0.114672519266605377 -0.713308155536651611
-0.20816802978515625 -0.0912467092275619507 -0.746085166931152344
0.0793356224894523621 -0.210902988910675049 -0.522409021854400635
-0.0908980667591094971 -0.147226423025131226 -0.708081841468811035
-0.204709380865097046 -0.148446545004844666 -0.650833368301391602
-0.31206589937210083 -0.196347251534461975 -0.847075998783111572
-0.0996358394622802734 -0.116182215511798859 -0.620006263256072998
-0.232343822717666626 -0.076047360897064209 -0.760116696357727051
-0.219619050621986389 -0.0764447599649429321 -0.697006464004516602
-0.032596442848443985 -0.123741097748279572 -0.58453214168548584
-0.0405826456844806671 -0.16344057023525238 -0.689704298973083496
-0.211516723036766052 -0.0488343685865402222 -0.688860297203063965
-0.265354037284851074 -0.131173849105834961 -0.836380243301391602
0.0707755014300346375 -0.197415813803672791 -0.500950932502746582
0.0599391646683216095 -0.210413381457328796 -0.525852560997009277
-0.0519624501466751099 -0.109794601798057556 -0.568978428840637207
-0.337633728981018066 -0.109275773167610168 -0.809553444385528564
0.0155125455930829048 -0.140349462628364563 -0.545710206031799316
-0.338808417320251465 -0.0686689764261245728 -0.720785915851593018
-0.221952065825462341 -0.107004813849925995 -0.77425539493560791
-0.0520834922790527344 -0.10829673707485199 -0.563010096549987793
-0.111789040267467499 -0.0938802510499954224 -0.592570006847381592
-0.0865984484553337097 -0.260342329740524292 -0.699235439300537109
-0.147687628865242004 -0.0736188963055610657 -0.648065149784088135
0.0649379491806030273 -0.176027402281761169 -0.519850313663482666
-0.194871217012405396 -0.230992779135704041 -0.901102125644683838
-0.335452526807785034 -0.145267054438591003 -0.978345632553100586
-0.0131859173998236656 -0.257649511098861694 -0.623305320739746094
0.0888623446226119995 -0.165708988904953003 -0.47126162052154541
-0.0289192907512187958 -0.175486788153648376 -0.621250569820404053
-0.359551459550857544 -0.015453064814209938 -0.686110794544219971
0.610422730445861816 -0.385204017162322998 -0.098410479724407196
-0.306149929761886597 -0.0191915817558765411 -0.745767295360565186
-0.207741588354110718 -0.207445248961448669 -0.942820549011230469
-0.246576428413391113 -0.0964148864150047302 -0.830438137054443359
-0.091070219874382019 -0.111966781318187714 -0.606783568859100342
0.44231027364730835 -0.349146515130996704 -0.23540140688419342
-0.288406789302825928 -0.100013665854930878 -0.87082970142364502
-0.29881209135055542 -0.124544039368629456 -0.953611135482788086
-0.193592995405197144 -0.196090608835220337 -0.711698412895202637
-0.325466305017471313 -0.210166588425636292 -1.0087047815322876
0.415894925594329834 -0.329541832208633423 -0.203258275985717773
-0.306203693151473999 -0.12415798008441925 -0.759235560894012451
-0.4182414710521698 -0.000559082953259348869 -0.732458233833312988
-0.314012974500656128 -0.162738829851150513 -0.841814756393432617
-0.339347660541534424 -0.0599439218640327454 -0.66155242919921875
-0.212190017104148865 -0.0514692328870296478 -0.661956071853637695
-0.221108734607696533 -0.246238812804222107 -0.890155613422393799
-0.309229373931884766 -0.0289056729525327682 -0.771747350692749023
-0.257732301950454712 -0.220027744770050049 -0.963221192359924316
0.449019044637680054 -0.313836544752120972 -0.228639945387840271
-0.286909431219100952 -0.140201255679130554 -0.734809815883636475
0.531947791576385498 -0.369867444038391113 -0.168854132294654846
0.13003946840763092 -0.208891198039054871 -0.472216695547103882
0.124644607305526733 -0.206671029329299927 -0.441173434257507324
0.0188314337283372879 -0.225703820586204529 -0.580326318740844727
0.490469574928283691 -0.318861156702041626 -0.224634662270545959
0.139212608337402344 -0.211126521229743958 -0.472701609134674072
-0.122203215956687927 -0.147928833961486816 -0.583086788654327393
-0.285336554050445557 -0.0080309845507144928 -0.7343406081199646
-0.209564954042434692 -0.0399981662631034851 -0.710354208946228027
-0.149977520108222961 -0.162191510200500488 -0.766131162643432617
0.523140966892242432 -0.348112136125564575 -0.184009715914726257
-0.166555747389793396 -0.0849686339497566223 -0.697009623050689697
0.369380921125411987 -0.307208210229873657 -0.232185736298561096
0.0848108753561973572 -0.151752784848213196 -0.474541366100311279
0.0605342574417591095 -0.199120551347732544 -0.519791543483734131
-0.314050883054733276 -0.153513222932815552 -0.803324878215789795
-0.0692043900489807129 -0.191024512052536011 -0.579448997974395752
0.0624666325747966766 -0.175889000296592712 -0.528254687786102295
0.312485605478286743 -0.269871652126312256 -0.345615923404693604
0.207948729395866394 -0.245739132165908813 -0.42715492844581604
-0.32356560230255127 -0.14653313159942627 -0.83955615758895874
0.395092487335205078 -0.281328290700912476 -0.237766489386558533
-0.0284122824668884277 -0.124328009784221649 -0.53209918737411499
-0.0356712676584720612 -0.167745739221572876 -0.606299519538879395
0.0817484110593795776 -0.207490190863609314 -0.536003351211547852
0.000644852058030664921 -0.156138196587562561 -0.478019624948501587
-0.158461526036262512 -0.120411030948162079 -0.704790830612182617
0.099837280809879303 -0.180609747767448425 -0.467741966247558594
0.59058457612991333 -0.424155145883560181 -0.0999690443277359009
-0.111602708697319031 -0.167060509324073792 -0.767661452293395996
0.045573849231004715 -0.207383036613464355 -0.487310200929641724
-0.351384431123733521 -0.116725191473960876 -0.765533685684204102
-0.146965131163597107 -0.140741944313049316 -0.756502687931060791
0.123256415128707886 -0.165960565209388733 -0.493005812168121338
0.285188019275665283 -0.25972592830657959 -0.337967634201049805
-0.00011911916226381436 -0.171168252825737 -0.512674987316131592
-0.351121723651885986 -0.0141812069341540337 -0.66513514518737793
-0.29107433557510376 -0.040393337607383728 -0.785812020301818848
-0.24664895236492157 -0.17202545702457428 -0.767356336116790771
0.342604398727416992 -0.294034242630004883 -0.308778077363967896
0.200990602374076843 -0.235016852617263794 -0.433560639619827271
-0.116200782358646393 -0.0903977975249290466 -0.596588134765625
-0.142442792654037476 -0.153207272291183472 -0.731155157089233398
-0.269975900650024414 -0.182422757148742676 -0.797445952892303467
-0.165906205773353577 -0.231546282768249512 -0.710382223129272461
-0.236570686101913452 -0.0931000187993049622 -0.768781185150146484
0.236020654439926147 -0.211861088871955872 -0.382753223180770874
-0.284941643476486206 -0.0619321167469024658 -0.681092619895935059
-0.0578722991049289703 -0.230385109782218933 -0.583716511726379395
-0.312578350305557251 -0.107874572277069092 -0.748630046844482422
0.177097484469413757 -0.20931592583656311 -0.382181107997894287
-0.133381173014640808 -0.255691021680831909 -0.723083734512329102
-0.0503354109823703766 -0.130202025175094604 -0.553396165370941162
-0.222819730639457703 -0.0552605241537094116 -0.701132357120513916
-0.0108184702694416046 -0.13676057755947113 -0.517560184001922607
-0.0683553144335746765 -0.208379149436950684 -0.595140278339385986
-0.185929447412490845 -0.180283963680267334 -0.66903078556060791
-0.263305783271789551 -0.054381147027015686 -0.757942795753479004
-0.288165122270584106 -0.24580267071723938 -0.915060460567474365
-0.271793335676193237 -0.104221530258655548 -0.725494503974914551
-0.224897682666778564 -0.194362685084342957 -0.885271012783050537
-0.26272284984588623 -0.0329505056142807007 -0.751982510089874268
0.0249332506209611893 -0.169414162635803223 -0.55920255184173584
-0.310405254364013672 -0.237113341689109802 -0.952459394931793213
0.606854259967803955 -0.399937927722930908 -0.0659472793340682983
-0.176988109946250916 -0.188455358147621155 -0.681252598762512207
-0.43147626519203186 -0.173597455024719238 -1.13836956024169922
-0.0347412191331386566 -0.22834286093711853 -0.565988063812255859
-0.42077404260635376 -0.0161180049180984497 -0.71015399694442749
0.219486802816390991 -0.210123464465141296 -0.400646239519119263
0.349454998970031738 -0.29156157374382019 -0.264725476503372192
0.281182736158370972 -0.284260660409927368 -0.374352872371673584
-0.102888517081737518 -0.245664849877357483 -0.764978647232055664
-0.185908511281013489 -0.112560689449310303 -0.70001530647277832
0.464571952819824219 -0.322800755500793457 -0.229096412658691406
-0.380987286567687988 0.0172714665532112122 -0.77625507116317749
-0.153225332498550415 -0.23518158495426178 -0.726613044738769531
-0.139028847217559814 -0.193588331341743469 -0.625238656997680664
-0.231855377554893494 -0.135790526866912842 -0.658154428005218506
-0.194996610283851624 -0.0968246385455131531 -0.729510486125946045
-0.357480823993682861 -0.0653889477252960205 -0.766525745391845703
0.341959655284881592 -0.294971555471420288 -0.295069426298141479
-0.0930778458714485168 -0.128623306751251221 -0.610547840595245361
-0.168056070804595947 -0.0869648382067680359 -0.681007683277130127
0.180818349123001099 -0.214865237474441528 -0.39757072925567627
-0.0439442098140716553 -0.136295244097709656 -0.485671132802963257
-0.23292754590511322 -0.0915153175592422485 -0.7945442795753479
-0.129728257656097412 -0.133192479610443115 -0.719568014144897461
-0.146606892347335815 -0.0999480783939361572 -0.713017106056213379
-0.0308436192572116852 -0.109151221811771393 -0.612128674983978271
0.240979284048080444 -0.260064482688903809 -0.358723729848861694
-0.424067586660385132 -0.198143243789672852 -1.05026626586914062
0.460331588983535767 -0.327268868684768677 -0.228613883256912231
-0.293613731861114502 -0.228512540459632874 -0.983930408954620361
-0.242430105805397034 -0.238334372639656067 -0.856342196464538574
-0.22601783275604248 -0.0958280712366104126 -0.76724618673324585
-0.242459878325462341 -0.195393308997154236 -0.914711713790893555
-0.317420482635498047 -0.10111575573682785 -0.81063544750213623
0.0781912356615066528 -0.204789474606513977 -0.484868735074996948
-0.134689897298812866 -0.234231099486351013 -0.670687258243560791
0.336052000522613525 -0.30160290002822876 -0.268203943967819214
-0.40507209300994873 -0.185465395450592041 -1.06353187561035156
0.390535831451416016 -0.322073191404342651 -0.23012600839138031
-0.13579830527305603 -0.105264991521835327 -0.69188082218170166
-0.444687128067016602 0.0399620793759822845 -0.787406504154205322
-0.138931870460510254 -0.176037639379501343 -0.796526789665222168
0.375201404094696045 -0.320028394460678101 -0.271943271160125732
0.0513328425586223602 -0.197591960430145264 -0.564856290817260742
-0.214269191026687622 -0.141756311058998108 -0.783438503742218018
0.519268035888671875 -0.335364013910293579 -0.191622078418731689
0.00669561093673110008 -0.152512639760971069 -0.494696736335754395
-0.124214090406894684 -0.0457181371748447418 -0.585534036159515381
-0.164154186844825745 -0.080170266330242157 -0.703713834285736084
0.511458277702331543 -0.341618865728378296 -0.187122344970703125
0.0580581091344356537 -0.197390273213386536 -0.562446475028991699
-0.0735742002725601196 -0.23006477952003479 -0.725389838218688965
0.0106853684410452843 -0.13922998309135437 -0.5377998948097229
-0.348737865686416626 -0.140861988067626953 -0.899422585964202881
-0.223099634051322937 -0.184406295418739319 -0.756981551647186279
0.0149716651067137718 -0.218800947070121765 -0.587231099605560303
-0.1441468745470047 -0.0688507556915283203 -0.648347258567810059
-0.177584826946258545 -0.125673249363899231 -0.73086082935333252
-0.301995158195495605 -0.183432966470718384 -0.966268837451934814
-0.269816696643829346 -0.250015228986740112 -0.937899768352508545
-0.213788256049156189 -0.0959007441997528076 -0.573343575000762939
0.618371009826660156 -0.42780834436416626 -0.0423941053450107574
-0.30521094799041748 -0.0555699951946735382 -0.644280493259429932
-0.331842422485351562 -0.254038572311401367 -0.993277609348297119
-0.0927072614431381226 -0.110573478043079376 -0.6380959153175354
0.429392307996749878 -0.307574599981307983 -0.257494330406188965
-0.152004271745681763 -0.175166592001914978 -0.643066942691802979
0.258091270923614502 -0.255175262689590454 -0.342893272638320923
-0.122772634029388428 -0.245242998003959656 -0.704924702644348145
0.00321241677738726139 -0.196632429957389832 -0.628592729568481445
0.571364760398864746 -0.400785326957702637 -0.150940790772438049
-0.164035975933074951 -0.128598853945732117 -0.581135571002960205
-0.333184361457824707 -0.120023421943187714 -0.837603092193603516
-0.402162790298461914 -0.171413898468017578 -1.04074299335479736
0.00330134900286793709 -0.151753470301628113 -0.536980628967285156
-0.0115596679970622063 -0.137759119272232056 -0.580470085144042969
0.0110143246129155159 -0.105488739907741547 -0.53683096170425415
-0.183663353323936462 -0.197680085897445679 -0.867423057556152344
0.374422371387481689 -0.301024019718170166 -0.315252929925918579
-0.263169288635253906 -0.198364019393920898 -0.848689138889312744
0.0579791106283664703 -0.188462480902671814 -0.5710563063621521
-0.13313700258731842 -0.225808560848236084 -0.816890954971313477
-0.163854733109474182 -0.134735763072967529 -0.718183934688568115
-0.199479907751083374 -0.0623022206127643585 -0.692799806594848633
-0.0935992971062660217 -0.176314964890480042 -0.569568753242492676
-0.039484318345785141 -0.155939579010009766 -0.594432950019836426
-0.271478980779647827 -0.219455018639564514 -0.869126021862030029
-0.226750969886779785 -0.0982372835278511047 -0.818313419818878174
-0.227588221430778503 -0.233605280518531799 -0.818436264991760254
0.211059972643852234 -0.222836092114448547 -0.401957213878631592
-0.383800625801086426 -0.0148679623380303383 -0.764507055282592773
-0.106496550142765045 -0.0769542232155799866 -0.629935324192047119
-0.186770588159561157 -0.0991821512579917908 -0.56581491231918335
-0.218357771635055542 -0.175216794013977051 -0.904842197895050049
-0.299357891082763672 -0.14747735857963562 -0.754547715187072754
-0.392568349838256836 -0.157446131110191345 -1.01646566390991211
0.659463584423065186 -0.440643817186355591 -0.0163854975253343582
-0.249322637915611267 -0.160744667053222656 -0.877232253551483154
-0.130542740225791931 -0.175155594944953918 -0.783870995044708252
0.24041612446308136 -0.195911422371864319 -0.364404797554016113
0.589858174324035645 -0.394395887851715088 -0.108033023774623871
0.0254851244390010834 -0.158231675624847412 -0.513814091682434082
0.0853093564510345459 -0.203551307320594788 -0.507475852966308594
-0.337020009756088257 -0.177683562040328979 -1.05066263675689697
0.370590239763259888 -0.292234510183334351 -0.269605487585067749
0.629960775375366211 -0.40535929799079895 -0.0967348068952560425
-0.0766063109040260315 -0.108516700565814972 -0.593919932842254639
-0.198538213968276978 -0.0930546373128890991 -0.740953743457794189
-0.269281864166259766 -0.166557252407073975 -0.751794934272766113
-0.399541318416595459 -0.217529386281967163 -1.07812118530273438
-0.274117559194564819 -0.162424430251121521 -0.910328984260559082
0.0509680211544036865 -0.176909685134887695 -0.493860214948654175
0.00330707360990345478 -0.127231493592262268 -0.53527599573135376
-0.0203238129615783691 -0.218323841691017151 -0.518371462821960449
0.470820337533950806 -0.327956825494766235 -0.208247289061546326
-0.414742082357406616 -0.206202208995819092 -1.12092113494873047
-0.239775627851486206 -0.245943054556846619 -0.902366578578948975
0.431010574102401733 -0.317579120397567749 -0.273407697677612305
0.421125710010528564 -0.33203694224357605 -0.205692827701568604
-0.252393037080764771 -0.241612613201141357 -0.908832788467407227
-0.0671839639544487 -0.139373242855072021 -0.68447422981262207
0.636948883533477783 -0.406657963991165161 -0.0503690578043460846
0.0117283519357442856 -0.153087511658668518 -0.47873842716217041
-0.184459403157234192 -0.0980968326330184937 -0.726935386657714844
-0.153318330645561218 -0.082863539457321167 -0.659407496452331543
-0.331630140542984009 -0.0432355254888534546 -0.715265631675720215
-0.130884543061256409 -0.109777674078941345 -0.678149700164794922
0.418197453022003174 -0.309413790702819824 -0.263185799121856689
-0.0705417171120643616 -0.158571064472198486 -0.674331963062286377
0.620008230209350586 -0.426772981882095337 -0.0380972959101200104
-0.347252041101455688 -0.212203353643417358 -0.958208382129669189
-0.013338746502995491 -0.198113232851028442 -0.625670790672302246
-0.171329379081726074 -0.239105939865112305 -0.761936187744140625
0.261869549751281738 -0.244542613625526428 -0.334431201219558716
0.487133711576461792 -0.356097936630249023 -0.166858077049255371
0.133593097329139709 -0.184438139200210571 -0.472067266702651978
-0.0238159447908401489 -0.16203773021697998 -0.596893668174743652
-0.0966979041695594788 -0.202017903327941895 -0.596426606178283691
-0.363178223371505737 -0.0747525766491889954 -0.771937191486358643
