ply
format ascii 1.0
element vertex 717
property float x
property float y
property float z
end_header
0.472347348928451538 -0.0494464077055454254 0.469902515411376953
-0.00737591413781046867 0.116959825158119202 -0.259434252977371216
0.222309276461601257 0.175277158617973328 0.0651579052209854126
-0.558988034725189209 0.109460912644863129 0.0360875576734542847
0.189397349953651428 -0.126669138669967651 -0.302738368511199951
0.314769715070724487 0.0644742399454116821 0.3352012038230896
-0.110417529940605164 0.213424563407897949 -0.170725896954536438
0.187492877244949341 -0.0856606662273406982 -0.155857309699058533
0.319125622510910034 0.0195016246289014816 0.496086955070495605
-0.152316838502883911 -0.072588697075843811 -0.263727843761444092
-0.640812397003173828 0.178080424666404724 -0.271631926298141479
0.377720147371292114 -0.0838807225227355957 -0.378742784261703491
0.136918008327484131 0.264915317296981812 -0.104618899524211884
-0.193559899926185608 0.229175835847854614 -0.149176612496376038
0.0557285919785499573 0.113447554409503937 0.380756765604019165
0.0217184703797101974 0.129075661301612854 0.456146657466888428
-0.559464454650878906 0.134324818849563599 0.0718019753694534302
-0.441932797431945801 0.106039255857467651 -0.0893204063177108765
-0.326507091522216797 0.0206182431429624557 -0.392182648181915283
-0.644525587558746338 0.101655729115009308 -0.335044533014297485
0.11069132387638092 0.102059736847877502 -0.0389760583639144897
-0.422420382499694824 0.304585754871368408 0.0225410275161266327
0.319969415664672852 -0.117544174194335938 -0.33366808295249939
0.373693615198135376 -0.0249211918562650681 -0.101915426552295685
0.244695216417312622 0.10304395854473114 0.156695351004600525
0.0148476921021938324 0.192820742726325989 -0.257436871528625488
0.170876890420913696 0.120876431465148926 -0.317485064268112183
-0.180371895432472229 0.0135827111080288887 -0.378761112689971924
0.179162338376045227 -0.0870309770107269287 -0.0258684232831001282
-0.0332952588796615601 0.102998003363609314 -0.384750604629516602
-0.0496886633336544037 -0.0955941081047058105 -0.361932128667831421
-0.126578375697135925 0.0966334417462348938 -0.0900182798504829407
0.387232810258865356 -0.0444989502429962158 -0.167694613337516785
0.387132823467254639 -0.0293497778475284576 -0.321823388338088989
-0.03047974593937397 0.464376360177993774 0.344458818435668945
-0.0639766231179237366 0.0585028417408466339 -0.37435382604598999
0.116994023323059082 0.14289189875125885 -0.34569162130355835
-0.609663128852844238 0.109438806772232056 -0.153604298830032349
-0.346313178539276123 0.195282205939292908 -0.187832057476043701
-0.505112648010253906 0.12730562686920166 0.0380384884774684906
-0.00300743337720632553 0.257330566644668579 -0.0788047686219215393
-0.225266143679618835 -0.0926726162433624268 -0.223028883337974548
0.103428088128566742 -0.0500246100127696991 -0.372637331485748291
0.439888119697570801 -0.0825639590620994568 -0.292206764221191406
0.452799618244171143 -0.0785014256834983826 -0.0284461267292499542
0.0902078747749328613 0.485712707042694092 0.430740714073181152
0.406652241945266724 -0.0381852239370346069 0.255367130041122437
-0.318014919757843018 -0.0921602547168731689 -0.224044069647789001
-0.402431458234786987 0.103541940450668335 -0.311719268560409546
-0.473138689994812012 0.311503171920776367 0.0411192812025547028
0.181568846106529236 0.117734633386135101 -0.124755501747131348
0.329559504985809326 0.0717574283480644226 -0.25894889235496521
-0.032414563000202179 0.394401431083679199 0.189004018902778625
0.0333737954497337341 0.463663339614868164 0.336447477340698242
-0.416118651628494263 0.106163114309310913 -0.273750513792037964
0.297915011644363403 -0.00277100480161607265 0.546678364276885986
-0.582490384578704834 0.209345042705535889 -0.207265853881835938
0.332428276538848877 0.0233697276562452316 0.461871534585952759
0.0297462139278650284 0.129060089588165283 -0.352170556783676147
0.0099672442302107811 0.121522553265094757 -0.230339378118515015
0.449711143970489502 -0.0328325368463993073 -0.00554411532357335091
0.314077913761138916 0.0799971148371696472 -0.038182966411113739
-0.176275297999382019 0.128831088542938232 -0.0609296075999736786
-0.275254547595977783 -0.00179066741839051247 -0.375631034374237061
-0.314112991094589233 0.13906724750995636 0.160365119576454163
0.300994127988815308 0.125249996781349182 0.00234793242998421192
-0.13744315505027771 -0.0823476910591125488 -0.356824040412902832
-0.00519861234351992607 0.344781011343002319 0.112731300294399261
0.213209092617034912 0.110926389694213867 0.349682629108428955
-0.348404645919799805 -0.0168998390436172485 -0.378712058067321777
0.322985738515853882 -0.011458205059170723 0.0346319861710071564
-0.306812644004821777 -0.0172058586031198502 -0.384758621454238892
0.241020798683166504 0.158149793744087219 0.118786364793777466
-0.37995108962059021 0.152326017618179321 0.161205083131790161
0.328701287508010864 0.0632938221096992493 -0.330408066511154175
0.106455996632575989 0.219175651669502258 -0.162857934832572937
0.00869986042380332947 0.244354069232940674 -0.173808902502059937
-0.657743096351623535 0.243036806583404541 -0.150154143571853638
-0.0805774852633476257 0.122076980769634247 -0.0491823069751262665
-0.659312605857849121 0.127931654453277588 0.0441319495439529419
-0.452321022748947144 0.117062605917453766 0.0225747488439083099
-0.384799301624298096 0.109937436878681183 -0.0966632440686225891
0.127653762698173523 0.139041334390640259 0.260250478982925415
0.481999188661575317 -0.02667267806828022 -0.364349544048309326
-0.375023066997528076 0.0884698778390884399 -0.374457478523254395
0.157446354627609253 -0.075192086398601532 0.112850785255432129
-0.227018281817436218 0.0796800404787063599 0.208847269415855408
-0.0367093756794929504 0.107035987079143524 -0.257891058921813965
0.324454009532928467 -0.0942097604274749756 -0.254966109991073608
-0.476180285215377808 -0.043897874653339386 -0.391484200954437256
0.431866258382797241 -0.0940345525741577148 0.328795909881591797
0.213899865746498108 0.0215370003134012222 0.528584182262420654
0.302322566509246826 -0.0896427109837532043 -0.216541692614555359
0.485061049461364746 -0.0314563848078250885 -0.158725947141647339
0.252978056669235229 0.118892483413219452 0.136834725737571716
0.325361877679824829 -0.0219115577638149261 -0.128968730568885803
0.306548923254013062 0.106051303446292877 -0.134151697158813477
-0.00105121580418199301 0.299714744091033936 -0.00126907555386424065
-0.469780325889587402 0.125966176390647888 -0.0605809055268764496
0.258093923330307007 0.174392402172088623 -0.0299415886402130127
0.00490051321685314178 -0.0861254557967185974 -0.0973073691129684448
-0.046053759753704071 -0.0281946826726198196 -0.380802810192108154
-0.117709644138813019 0.141109243035316467 -0.351514071226119995
0.130253851413726807 0.249406367540359497 -0.143551468849182129
-0.143373847007751465 -0.00334762362763285637 -0.371531248092651367
-0.325208932161331177 0.144797325134277344 -0.313764184713363647
-0.57454448938369751 0.112125836312770844 0.0648077875375747681
-0.507026076316833496 0.223011672496795654 -0.14078560471534729
0.122590579092502594 0.125621035695075989 -0.374890685081481934
-0.272843122482299805 0.295059680938720703 0.0082608954980969429
0.0954931005835533142 0.364681720733642578 0.171283334493637085
0.120212152600288391 -0.120124712586402893 -0.313359618186950684
-0.0334957428276538849 -0.10478692501783371 -0.0733821764588356018
0.00060504936845973134 0.114903956651687622 0.258487790822982788
0.317038983106613159 0.132048025727272034 0.325831860303878784
0.134620636701583862 0.37906000018119812 0.151727542281150818
-0.274255931377410889 0.120959989726543427 -0.207173541188240051
0.301823943853378296 0.0852101221680641174 0.0355857089161872864
0.208294779062271118 -0.0206202752888202667 -0.386663526296615601
-0.536765456199645996 0.254050880670547485 -0.0841108039021492004
-0.219867020845413208 0.349418103694915771 0.121921472251415253
0.0710067525506019592 0.509487271308898926 0.427840948104858398
-0.652779757976531982 0.11524258553981781 -0.285531759262084961
0.24324345588684082 -0.267654240131378174 -0.342217445373535156
-0.105834171175956726 0.217631936073303223 -0.185863077640533447
0.228385850787162781 0.108754843473434448 0.00695508252829313278
-0.0616827048361301422 0.252596884965896606 -0.0935134217143058777
0.362639755010604858 -0.0305620301514863968 0.169514745473861694
0.25020211935043335 -0.17201569676399231 -0.322777599096298218
0.213009342551231384 0.113746128976345062 -0.192755743861198425
-0.313849031925201416 0.114823363721370697 -0.0262173842638731003
-0.400315672159194946 0.118133023381233215 0.0836286619305610657
0.332939803600311279 0.0127531997859477997 0.0968121066689491272
-0.0649572908878326416 0.369028598070144653 0.172494769096374512
0.262377768754959106 0.124426484107971191 0.187529310584068298
0.0773947015404701233 0.198489740490913391 -0.224059998989105225
-0.164497494697570801 0.140660569071769714 -0.330642282962799072
0.401676326990127563 -0.0824938863515853882 -0.0928285196423530579
-0.573942959308624268 0.257184743881225586 -0.110824689269065857
0.248224839568138123 -0.076178133487701416 -0.150481775403022766
-0.653416037559509277 0.0997416898608207703 -0.188415005803108215
0.0045932503417134285 0.265882968902587891 -0.093488253653049469
-0.244946852326393127 0.0755640491843223572 0.187273427844047546
0.188533395528793335 -0.0889885351061820984 -0.302486151456832886
-0.707528054714202881 0.265058636665344238 -0.100323192775249481
0.261977821588516235 -0.0949369668960571289 -0.0443682819604873657
0.418891161680221558 -0.0875873416662216187 -0.361737519502639771
-0.0292407926172018051 -0.0760301947593688965 -0.0557937510311603546
-0.226674839854240417 -0.0843040719628334045 -0.312745958566665649
0.36304163932800293 -0.0756098106503486633 -0.231141820549964905
0.355115175247192383 -0.0236612968146800995 0.238454848527908325
-0.131882607936859131 -0.081812441349029541 -0.0476311780512332916
-0.633450031280517578 0.174662530422210693 -0.268765509128570557
0.0251009538769721985 -0.033662017434835434 -0.393542051315307617
0.403710097074508667 -0.0295301768928766251 -0.208025231957435608
0.478063344955444336 -0.0631294399499893188 -0.00457702670246362686
0.329160749912261963 0.0966895222663879395 -0.228268861770629883
-0.585195183753967285 0.294530391693115234 0.0172968152910470963
-0.600054442882537842 0.147119238972663879 -0.298331797122955322
-0.569394707679748535 0.112441763281822205 -0.0895831063389778137
-0.0556560344994068146 0.388421446084976196 0.239624470472335815
0.107831664383411407 -0.0742547363042831421 -0.302827239036560059
-0.315887182950973511 0.112422697246074677 -0.168806463479995728
-0.0736589357256889343 0.121531359851360321 -0.228020012378692627
0.121687471866607666 0.127503201365470886 -0.293922662734985352
-0.289539456367492676 0.150189876556396484 -0.292934417724609375
0.297179818153381348 -0.0896180346608161926 -0.279979825019836426
-0.593523204326629639 0.0962069258093833923 -0.0664450973272323608
-0.0453153885900974274 0.293600499629974365 -0.0776151642203330994
0.461399078369140625 -0.0757941529154777527 -0.388089835643768311
-0.215761825442314148 0.152796745300292969 -0.322074323892593384
-0.0294036157429218292 0.0806758925318717957 0.40736699104309082
-0.375532925128936768 0.183151230216026306 -0.25313374400138855
0.0445092059671878815 -0.0832374840974807739 -0.308051168918609619
0.272665411233901978 0.122973240911960602 0.528458595275878906
-0.264347761869430542 0.0998076796531677246 -0.380998194217681885
-0.292328178882598877 0.0981703847646713257 -0.262158066034317017
-0.269272923469543457 0.171162784099578857 -0.220930904150009155
0.240136906504631042 0.10016690194606781 0.251065671443939209
0.324487149715423584 0.112517789006233215 0.00795534998178482056
-0.480877280235290527 0.126410216093063354 -0.179007604718208313
-0.25186079740524292 0.115768231451511383 -0.0469346567988395691
-0.606901407241821289 0.253008604049682617 -0.119828976690769196
0.401139795780181885 -0.0560594424605369568 -0.0345866866409778595
0.492586135864257812 -0.00400716438889503479 -0.364567935466766357
-0.162711635231971741 0.107579715549945831 -0.264421850442886353
0.371073544025421143 -0.118091464042663574 -0.344681113958358765
0.226896971464157104 0.178472891449928284 0.0589487776160240173
0.32997429370880127 -0.0222049634903669357 -0.186673983931541443
0.433502256870269775 -0.0420381687581539154 0.269709467887878418
-0.569821357727050781 0.098450981080532074 0.114279769361019135
-0.536015212535858154 0.190692052245140076 -0.255381256341934204
0.0583925358951091766 0.103349223732948303 0.324765503406524658
0.279776126146316528 0.0928877517580986023 -0.385556638240814209
-0.328942358493804932 0.124946348369121552 0.127899840474128723
-0.526326179504394531 0.134390443563461304 -0.332079976797103882
-0.64091956615447998 0.101649127900600433 -0.0936661511659622192
-0.186279013752937317 -0.0660493448376655579 -0.356665045022964478
-0.0220779329538345337 0.174320846796035767 -0.283321112394332886
0.0946709513664245605 0.431348443031311035 0.307158291339874268
-0.492046236991882324 0.115550503134727478 -0.307595908641815186
-0.334865868091583252 0.154449760913848877 -0.35544663667678833
0.101051852107048035 0.118606865406036377 0.0319378599524497986
-0.474656283855438232 0.18001691997051239 -0.261915028095245361
-0.747434258460998535 0.0837882533669471741 -0.125032901763916016
-0.332175999879837036 -0.0926668941974639893 -0.35858801007270813
0.239358484745025635 0.190514430403709412 -0.0728694573044776917
-0.300950139760971069 0.274528950452804565 -0.0698214918375015259
-0.0122180860489606857 0.310406625270843506 -0.00332256429828703403
-0.689731955528259277 0.112394437193870544 -0.220563843846321106
0.249469205737113953 0.151747316122055054 0.485213130712509155
0.284907102584838867 0.0335808210074901581 -0.385314762592315674
-0.293635904788970947 0.316488951444625854 0.056733451783657074
-0.224328532814979553 0.114321149885654449 0.168810337781906128
0.172445788979530334 -0.0760907158255577087 -0.0659734234213829041
-0.231468215584754944 0.252126246690750122 -0.10613558441400528
-0.366731882095336914 0.124928496778011322 -0.296074390411376953
-0.154099956154823303 0.201206371188163757 -0.239294975996017456
0.33877834677696228 0.0655379444360733032 0.0100624561309814453
-0.0950063839554786682 -0.0614858679473400116 -0.315510272979736328
0.344334989786148071 -0.0285577159374952316 0.0276257265359163284
-0.173187971115112305 0.347767740488052368 0.0960071906447410583
-0.134465694427490234 0.376981794834136963 0.159047231078147888
-0.0365188866853713989 0.118332810699939728 0.339114844799041748
-0.100466817617416382 0.113875269889831543 0.105471447110176086
0.441022962331771851 -0.078936748206615448 -0.26680716872215271
-0.0972277820110321045 0.124445565044879913 -0.0746155008673667908
-0.158210113644599915 0.129260614514350891 0.0381774529814720154
-0.0637099370360374451 0.102988466620445251 0.179340243339538574
0.123249202966690063 0.197192385792732239 -0.233032584190368652
-0.0185471251606941223 0.423162728548049927 0.298370122909545898
-0.174762755632400513 0.116615407168865204 -0.293392211198806763
-0.0591025687754154205 0.110293127596378326 0.233686119318008423
0.16492152214050293 -0.0968854501843452454 0.151271313428878784
0.467514306306838989 -0.00345098809339106083 0.523840844631195068
-0.684355616569519043 0.105513736605644226 -0.0912443250417709351
-0.10757727175951004 0.0397202223539352417 -0.392096668481826782
-0.497385889291763306 -0.0802412703633308411 -0.315400034189224243
0.0935014858841896057 -0.0245335474610328674 -0.386431992053985596
0.192609831690788269 -0.0810980126261711121 0.150363102555274963
-0.124733485281467438 0.275213152170181274 -0.0648086518049240112
-0.251989662647247314 0.107963249087333679 -0.269974410533905029
0.0832847356796264648 0.508939862251281738 0.379567474126815796
0.0846912264823913574 0.433370441198348999 0.290455222129821777
-0.149032801389694214 0.147224634885787964 -0.369360238313674927
0.135874837636947632 0.147729784250259399 -0.0294478945434093475
-0.107642121613025665 0.183932855725288391 -0.234367355704307556
-0.376136124134063721 -0.106740251183509827 -0.301137417554855347
0.231053799390792847 0.107364870607852936 0.520173013210296631
-0.240524649620056152 0.169183105230331421 -0.286866068840026855
-0.267076224088668823 0.12341124564409256 -0.333333969116210938
-0.155062541365623474 0.112866275012493134 0.0861848220229148865
0.231429889798164368 0.113677136600017548 -0.341769307851791382
0.149656429886817932 0.0326382219791412354 -0.368955165147781372
0.441445410251617432 -0.0326906777918338776 0.304234534502029419
0.478535234928131104 -0.065891951322555542 -0.0732331126928329468
0.37292635440826416 -0.0477784201502799988 -0.0780441462993621826
-0.194982200860977173 0.304311782121658325 -0.0321304090321063995
0.324271023273468018 0.117320910096168518 -0.32358279824256897
0.457491099834442139 -0.0856774747371673584 0.364491701126098633
0.155535727739334106 0.126371428370475769 0.45986977219581604
0.171325922012329102 0.130987763404846191 0.291382968425750732
-0.414496034383773804 0.112161360681056976 -0.00193897273857146502
0.363030195236206055 -0.0885298028588294983 -0.0786741599440574646
0.00658066850155591965 0.192240744829177856 -0.222220003604888916
0.358187109231948853 -0.0959370434284210205 -0.226673901081085205
0.321251571178436279 0.0354602187871932983 -0.224744156002998352
-0.105640411376953125 0.409563809633255005 0.23121015727519989
0.228238478302955627 0.127416789531707764 0.0474191009998321533
-0.0348585769534111023 0.15606158971786499 -0.325269609689712524
0.376290738582611084 0.00331970164552330971 -0.388509869575500488
0.345203608274459839 0.0164218470454216003 0.179180353879928589
0.0470450520515441895 0.130521193146705627 -0.354665160179138184
-0.412746399641036987 0.196289345622062683 -0.238655611872673035
0.461854785680770874 -0.0396806299686431885 -0.228121429681777954
0.23503585159778595 0.0522641502320766449 -0.362670004367828369
0.300743937492370605 -0.0974499061703681946 -0.338615119457244873
-0.281908661127090454 -0.097164057195186615 -0.273812055587768555
-0.127109631896018982 0.0204094499349594116 -0.395579636096954346
0.364041715860366821 -0.0835067331790924072 0.151824191212654114
-0.0426784157752990723 -0.0839745178818702698 -0.374148637056350708
0.496127724647521973 -0.0289039891213178635 0.28869938850402832
0.340595811605453491 -0.0547648780047893524 -0.278146624565124512
-0.639057040214538574 0.135208278894424438 0.0700395628809928894
-0.0850320905447006226 0.321357786655426025 0.0579883456230163574
0.14000760018825531 0.274936914443969727 -0.0432973876595497131
0.378239274024963379 -0.0148017304018139839 0.513506293296813965
0.29239886999130249 0.12886442244052887 -0.342502683401107788
0.332002431154251099 0.109434589743614197 0.431256473064422607
-0.102962225675582886 0.113732524216175079 0.145056933164596558
0.332690685987472534 0.00679560098797082901 0.0422763600945472717
-0.483631521463394165 0.111412353813648224 0.0966511666774749756
-0.275109589099884033 0.27179640531539917 -0.103314660489559174
-0.2372903972864151 0.12813606858253479 -0.224984094500541687
0.341867595911026001 -0.0867232009768486023 0.19822259247303009
0.170453384518623352 -0.0124127967283129692 -0.375889748334884644
-0.02763405442237854 0.140620008111000061 0.430896371603012085
0.136433124542236328 0.104574576020240784 0.526048004627227783
0.1293821781873703 0.13876679539680481 0.0724290087819099426
0.0755001828074455261 0.0165966711938381195 -0.402472168207168579
0.0582122057676315308 0.107006557285785675 0.522411763668060303
0.274830073118209839 0.120628349483013153 -0.211775675415992737
0.285127490758895874 0.0907829329371452332 0.525661826133728027
0.0183529946953058243 0.110916152596473694 0.0806347504258155823
0.0312408600002527237 -0.0908162817358970642 -0.322665125131607056
0.147781684994697571 0.308702766895294189 -0.0193391554057598114
-0.290139913558959961 0.109812282025814056 -0.371546417474746704
0.22495993971824646 0.224581152200698853 0.0530104860663414001
0.30536988377571106 -0.0792283788323402405 0.168100461363792419
0.249158665537834167 -0.122573904693126678 -0.00940237753093242645
0.382017076015472412 -0.0669263824820518494 -0.277049332857131958
0.28073391318321228 0.109727412462234497 0.0251373723149299622
-0.0156693141907453537 0.0924295336008071899 0.451422780752182007
0.125201255083084106 0.182320326566696167 -0.275724411010742188
-0.139922782778739929 0.103185288608074188 -0.149704679846763611
0.331554412841796875 -0.0505442582070827484 -0.360848546028137207
0.315522283315658569 0.0765998959541320801 -0.387567102909088135
-0.563946306705474854 0.0433586686849594116 -0.361172676086425781
0.340257048606872559 0.0047728419303894043 0.393633842468261719
0.197504118084907532 -0.141578137874603271 -0.317463815212249756
-0.382381737232208252 0.120408311486244202 0.0274752210825681686
0.00650939671322703362 0.412225604057312012 0.245842128992080688
-0.677315831184387207 0.280095309019088745 -0.0671883374452590942
0.0372119881212711334 0.31073346734046936 0.483498632907867432
0.123425468802452087 0.120629757642745972 0.277158588171005249
0.207096725702285767 0.110501222312450409 0.124614469707012177
-0.634476125240325928 0.222484186291694641 -0.144211187958717346
0.19241003692150116 -0.0728076398372650146 0.0486328452825546265
-0.334668755531311035 0.120268017053604126 0.0480530187487602234
0.0845323354005813599 -0.0725342705845832825 -0.240736275911331177
0.049252975732088089 0.219939321279525757 -0.111506573855876923
-0.440450936555862427 0.108282946050167084 -0.0386439859867095947
-0.696020960807800293 0.196187570691108704 -0.221903502941131592
0.452924758195877075 -0.0477834753692150116 0.048711579293012619
-0.424957573413848877 0.153398469090461731 -0.331211119890213013
0.275066643953323364 -0.0864026471972465515 -0.316667884588241577
-0.476072013378143311 0.215182110667228699 -0.140093550086021423
0.0593841522932052612 0.376036494970321655 0.0801605582237243652
0.0987032577395439148 0.364969432353973389 0.131688997149467468
0.0740127488970756531 -0.0939389839768409729 0.0368324033915996552
0.109189718961715698 0.221017807722091675 -0.182731524109840393
0.100473187863826752 0.398116469383239746 0.23754650354385376
-0.339951008558273315 0.156571760773658752 -0.308774113655090332
-0.618952155113220215 0.192277267575263977 -0.218763381242752075
0.381543517112731934 -0.0446441136300563812 0.0486273765563964844
0.39603075385093689 -0.0890951231122016907 -0.261494487524032593
0.0734492689371109009 0.240991100668907166 -0.13313661515712738
-0.718216836452484131 0.0890257284045219421 -0.0806685835123062134
0.478951811790466309 -0.0396206602454185486 0.154472604393959045
-0.0758325308561325073 0.105909973382949829 -0.281207174062728882
0.331582337617874146 0.0503482669591903687 -0.400823980569839478
0.216295614838600159 -0.0884968116879463196 0.182995736598968506
0.0246123876422643661 0.134694948792457581 0.398621141910552979
0.378083467483520508 0.00225524208508431911 -0.373962461948394775
-0.569109022617340088 0.114988043904304504 -0.217460945248603821
-0.463001638650894165 0.140837043523788452 -0.322408437728881836
0.130063176155090332 0.136030316352844238 0.240799069404602051
0.341299921274185181 -0.0820677801966667175 -0.177380234003067017
0.0271625500172376633 0.428768247365951538 0.280886560678482056
-0.0715376660227775574 0.303210705518722534 0.0228663347661495209
0.414423108100891113 -0.0250077098608016968 0.0315144509077072144
0.469904273748397827 -0.0545389540493488312 -0.345902681350708008
0.246295303106307983 0.119943603873252869 0.10375262051820755
0.0568052195012569427 0.46628144383430481 0.367494493722915649
-0.0859246253967285156 0.102670922875404358 0.071795538067817688
0.12455422431230545 0.363353997468948364 0.0914235934615135193
-0.546877861022949219 0.224718526005744934 -0.175898283720016479
0.0467262677848339081 0.204245641827583313 -0.203986197710037231
0.322063595056533813 0.0570640154182910919 0.0396346375346183777
0.121420539915561676 -0.0936236828565597534 0.00835219305008649826
-0.617538213729858398 0.119886845350265503 0.0319061800837516785
-0.496262043714523315 0.11693282425403595 0.132746145129203796
0.307905137538909912 0.0893599838018417358 0.194796726107597351
0.0315790176391601562 0.370142042636871338 0.432347208261489868
0.186768263578414917 0.138641402125358582 0.224853068590164185
-0.571195662021636963 0.107302062213420868 -0.29219934344291687
0.326032340526580811 0.0421051569283008575 0.427964001893997192
0.0781320631504058838 0.139978811144828796 -0.380147039890289307
0.39673277735710144 -0.0962570905685424805 -0.350501328706741333
-0.68038177490234375 0.105533994734287262 -0.0318204313516616821
-0.0521298050880432129 0.235305488109588623 -0.123834587633609772
0.25481867790222168 0.116181351244449615 -0.0272843595594167709
-0.0863500162959098816 0.245084628462791443 -0.141395330429077148
-0.366714179515838623 -0.0890013277530670166 -0.235842302441596985
0.0694703683257102966 0.288228690624237061 -0.037898629903793335
0.157912150025367737 -0.0936284884810447693 -0.308387100696563721
0.311469674110412598 0.0124994385987520218 -0.234175741672515869
-0.715096592903137207 0.291160553693771362 -0.0494715943932533264
0.410428881645202637 -0.0395580120384693146 -0.24603801965713501
0.248093575239181519 -0.148048356175422668 -0.355563074350357056
0.235795825719833374 0.200325936079025269 0.114600643515586853
-0.271192789077758789 0.120763257145881653 0.00248224753886461258
0.0968155041337013245 -0.0732495784759521484 0.112366028130054474
0.376664519309997559 -0.0947454050183296204 -0.327839821577072144
0.13008466362953186 0.172808334231376648 -0.27246817946434021
0.0927657708525657654 0.102531574666500092 0.150802403688430786
0.139008417725563049 0.0896385237574577332 -0.382105439901351929
-0.352251201868057251 0.297915041446685791 0.000105256629467476159
-0.158367589116096497 0.0330244638025760651 0.242010429501533508
0.362716495990753174 -0.0801897719502449036 -0.0215914789587259293
0.310802638530731201 -0.139010161161422729 -0.309292048215866089
0.0213251467794179916 0.127815023064613342 0.518090605735778809
0.365270882844924927 -0.091181926429271698 0.263657361268997192
-0.522967755794525146 0.29073488712310791 0.00337206898257136345
0.409643352031707764 -0.0122862420976161957 -0.272199720144271851
0.327975004911422729 0.016289886087179184 -0.192094773054122925
-0.481453537940979004 0.307995498180389404 0.00518082361668348312
0.0296474061906337738 0.1087612584233284 0.256249099969863892
0.484870761632919312 -0.0526153594255447388 -0.0477137267589569092
-0.596226215362548828 0.254073381423950195 -0.0981862321496009827
-0.471667855978012085 0.103377006947994232 -0.398171991109848022
-0.127016082406044006 0.305190205574035645 -0.0147580336779356003
0.139556527137756348 0.272479802370071411 -0.0905754044651985168
-0.0760987177491188049 0.109597407281398773 -0.3352336585521698
0.323612868785858154 0.0185295697301626205 0.321725964546203613
0.275332927703857422 -0.0744255334138870239 -0.0129085741937160492
0.309343308210372925 -0.124527372419834137 -0.363518238067626953
-0.357119292020797729 0.08992757648229599 0.153376638889312744
0.207338899374008179 -0.265353500843048096 -0.365660905838012695
-0.0330032519996166229 0.320967346429824829 0.0542778261005878448
0.0317339561879634857 0.11247020959854126 0.133546873927116394
-0.441360145807266235 0.107750356197357178 -0.244934037327766418
0.239546433091163635 0.125276565551757812 -0.306598633527755737
0.0450367368757724762 0.10952642560005188 -0.405664950609207153
-0.0819665640592575073 -0.0675632581114768982 -0.382749199867248535
0.491220027208328247 -0.0487198531627655029 -0.321455895900726318
0.0835779756307601929 0.259070724248886108 -0.114951461553573608
-0.0793345943093299866 0.089040219783782959 0.331675022840499878
0.280478149652481079 0.114888779819011688 0.443493843078613281
-0.573823750019073486 0.289077162742614746 -0.0190748590975999832
0.0939396917819976807 0.41874358057975769 0.197079241275787354
-0.144732102751731873 0.213597893714904785 -0.207011327147483826
-0.310902684926986694 0.119750984013080597 0.0476153641939163208
0.355117201805114746 -0.0513955838978290558 0.254420638084411621
0.320750385522842407 0.105073362588882446 -0.0193980038166046143
-0.694189488887786865 0.0959228053689002991 -0.278199583292007446
-0.213813960552215576 0.141408607363700867 0.210819780826568604
0.100774072110652924 0.0922452211380004883 -0.0166039019823074341
0.216179579496383667 -0.112481169402599335 0.0638453215360641479
-0.651903331279754639 0.307669639587402344 -0.000506923533976078033
0.0557920746505260468 0.449681580066680908 0.312125146389007568
0.344341278076171875 0.0245146322995424271 -0.305395364761352539
-0.511040985584259033 0.0826009958982467651 -0.377933621406555176
0.312920987606048584 -0.000851532444357872009 0.0192177183926105499
-0.0746964141726493835 0.159181714057922363 -0.319257348775863647
0.315137714147567749 0.0624166429042816162 0.446962594985961914
0.137645408511161804 -0.10917847603559494 -0.377947777509689331
0.050185423344373703 0.424800604581832886 0.242033272981643677
0.0239678416401147842 0.11052810400724411 -0.156998157501220703
0.0798945054411888123 0.112539403140544891 0.0859486982226371765
0.0595679469406604767 0.117158479988574982 -0.0972238853573799133
-0.0979150310158729553 0.0862028747797012329 -0.391788393259048462
-0.583080947399139404 -0.0884681046009063721 -0.348631918430328369
-0.151528134942054749 -0.0789396017789840698 -0.307576477527618408
0.308134734630584717 0.0961769968271255493 0.2176332026720047
-0.64285576343536377 0.161836296319961548 -0.34701046347618103
0.176363542675971985 0.0987016037106513977 -0.143631741404533386
-0.262931853532791138 0.113755419850349426 -0.16076911985874176
-0.0286289546638727188 0.114740587770938873 -0.0460498034954071045
-0.141976237297058105 -0.0960245057940483093 -0.383513391017913818
-0.303928226232528687 0.320541977882385254 0.0956420227885246277
0.089717373251914978 0.144334360957145691 0.520393788814544678
-0.674765884876251221 0.284103751182556152 -0.00589071493595838547
-0.0176131576299667358 -0.0813667699694633484 0.00231363461352884769
0.164535671472549438 -0.0976678431034088135 -0.364841222763061523
-0.467382699251174927 -0.0167618393898010254 -0.391376227140426636
0.235055774450302124 -0.0872569456696510315 -0.042058940976858139
0.0219550039619207382 0.117209739983081818 0.248608797788619995
-0.481855183839797974 0.0251318085938692093 -0.38377070426940918
0.412670016288757324 -0.016003848984837532 -0.0321492515504360199
0.422817736864089966 -0.0633033215999603271 0.350886493921279907
0.085258185863494873 0.153413251042366028 -0.326425611972808838
0.126589119434356689 0.393264681100845337 0.180709943175315857
0.344424903392791748 -0.0256218966096639633 -0.215843766927719116
-0.194929718971252441 -0.0128863668069243431 -0.387318611145019531
0.394640743732452393 -0.0852321460843086243 -0.121691621840000153
0.32824629545211792 0.0974272787570953369 -0.0854202359914779663
0.0764639601111412048 -0.0989242717623710632 -0.324709892272949219
0.0624710209667682648 0.222468867897987366 -0.169128447771072388
0.250529974699020386 0.12355177104473114 0.345361620187759399
0.0913823246955871582 -0.131224170327186584 -0.349385261535644531
-0.35369458794593811 0.0607348009943962097 -0.367030084133148193
0.389015555381774902 -0.0794212743639945984 0.243229135870933533
0.345566540956497192 -0.0243824943900108337 -0.154594734311103821
0.000953475595451891422 -0.0991442501544952393 -0.0629284381866455078
-0.190391108393669128 0.0550619661808013916 0.232229948043823242
0.456647545099258423 -0.0257190372794866562 -0.285805851221084595
-0.380258083343505859 0.115544028580188751 0.129289314150810242
0.191363513469696045 0.109922684729099274 0.000817199063021689653
-0.287901222705841064 -0.0932686328887939453 -0.37444227933883667
-0.400752454996109009 0.240147262811660767 -0.124836921691894531
-0.45378682017326355 0.132608070969581604 -0.0227126087993383408
0.452976822853088379 -0.0299552232027053833 0.227228149771690369
-0.0128475995734333992 0.133617907762527466 0.376058816909790039
0.0103168133646249771 0.254785716533660889 0.496045768260955811
-0.123403772711753845 0.102864302694797516 -0.287334978580474854
-0.225332215428352356 -0.0811711326241493225 -0.234767988324165344
-0.412950336933135986 0.213384658098220825 -0.177617594599723816
-0.406888127326965332 0.108440510928630829 -0.0204044636338949203
-0.395158052444458008 0.326041191816329956 0.0653686374425888062
0.0323277562856674194 0.120169363915920258 -0.215239182114601135
0.316145330667495728 -0.0351973623037338257 0.20009160041809082
0.0159348808228969574 0.355991899967193604 0.084247887134552002
-0.319915592670440674 0.290905654430389404 0.00288026826456189156
0.30662459135055542 0.0549974963068962097 -0.0690529346466064453
0.151043698191642761 0.112064816057682037 0.030858626589179039
-0.358561992645263672 0.287919402122497559 0.0442313402891159058
-0.237085223197937012 0.117706097662448883 -0.259577542543411255
-0.454680740833282471 -0.0783119797706604004 -0.357201546430587769
-0.382972627878189087 -0.0132132293656468391 -0.388443797826766968
-0.731657803058624268 0.208862587809562683 -0.211626514792442322
0.229635536670684814 0.107476711273193359 0.0896032750606536865
-0.482776641845703125 0.291509479284286499 -0.000466081954073160887
-0.151817113161087036 -0.0769665390253067017 -0.362124234437942505
-0.71309661865234375 0.233505338430404663 -0.187359243631362915
0.219232738018035889 -0.0763831660151481628 -0.260402500629425049
0.120883896946907043 0.0699922144412994385 0.5292014479637146
0.326775014400482178 -0.082158505916595459 -0.292263597249984741
-0.308800399303436279 0.0872145220637321472 -0.210647836327552795
0.276413053274154663 0.112918920814990997 0.174203634262084961
0.114930219948291779 0.273915886878967285 -0.0790410265326499939
0.436766743659973145 -0.0321669131517410278 0.187305524945259094
-0.124266177415847778 0.116531573235988617 0.293892621994018555
-0.583805561065673828 0.106537558138370514 -0.262049317359924316
-0.0630081519484519958 0.322272181510925293 0.0646423324942588806
-0.739359259605407715 0.0441416129469871521 -0.115676037967205048
0.185916751623153687 0.120949901640415192 0.393078356981277466
-0.0230331793427467346 -0.086792968213558197 -0.0244253687560558319
-0.377297639846801758 0.272337108850479126 -0.0811306536197662354
0.376672834157943726 -0.0569030120968818665 0.32750430703163147
0.462259799242019653 -0.0270497966557741165 0.193624034523963928
0.0376746580004692078 0.217668637633323669 -0.152927190065383911
0.336788594722747803 0.044946085661649704 0.070006445050239563
-0.302448004484176636 0.110357783734798431 0.110432036221027374
0.254558265209197998 -0.0879667177796363831 -0.107852146029472351
0.00370657630264759064 0.221763849258422852 -0.133975625038146973
0.121654532849788666 0.136409774422645569 -0.0776734277606010437
-0.243122473359107971 -0.0892460271716117859 -0.242569312453269958
0.0324985943734645844 0.109022133052349091 -0.0353280752897262573
0.0295641534030437469 0.178303137421607971 -0.237928062677383423
-0.154076188802719116 -0.0843981727957725525 -0.320358574390411377
-0.645843088626861572 0.109387233853340149 -0.0884742885828018188
0.097134910523891449 0.211770728230476379 -0.260554403066635132
-0.035251908004283905 -0.103061310946941376 -0.295656085014343262
0.231598913669586182 0.120476871728897095 -0.234348326921463013
0.319360703229904175 -0.0710026770830154419 -0.0350288152694702148
0.382122337818145752 -0.0635616183280944824 -0.388116836547851562
-0.0439412966370582581 0.123476400971412659 0.00927396863698959351
-0.102771714329719543 0.140491709113121033 0.275972664356231689
-0.508657753467559814 -0.0798315033316612244 -0.370779663324356079
0.0364483930170536041 -0.0970856919884681702 -0.11092078685760498
-0.539949417114257812 -0.106955297291278839 -0.35545995831489563
0.353576809167861938 0.113063789904117584 0.469079911708831787
0.292382150888442993 -0.0802015438675880432 0.197733238339424133
0.274779468774795532 -0.0908690914511680603 0.143668577075004578
0.319412082433700562 -0.0327962487936019897 0.106581985950469971
-0.138543292880058289 -0.0811779201030731201 -0.0705205351114273071
0.217340648174285889 -0.124215647578239441 0.0492514856159687042
-0.316811293363571167 0.303749948740005493 -0.0241304915398359299
-0.634974420070648193 0.294759780168533325 -0.0368217825889587402
-0.12466064840555191 0.243740275502204895 -0.102406390011310577
-0.173752233386039734 0.364421725273132324 0.151683658361434937
-0.0936531275510787964 0.10844682902097702 -0.264269739389419556
-0.0307702627032995224 0.109633877873420715 -0.342195272445678711
-0.444880068302154541 0.262039273977279663 -0.060297597199678421
-0.23116813600063324 -0.0654748231172561646 -0.382394075393676758
0.315200895071029663 0.0514197126030921936 0.529256880283355713
-0.0872529372572898865 0.0858895033597946167 0.160271331667900085
-0.196872040629386902 0.107261180877685547 -0.173990368843078613
0.0953313335776329041 0.457100242376327515 0.369836866855621338
0.0881701931357383728 -0.0841074660420417786 0.0342905148863792419
-0.203103989362716675 0.107368797063827515 -0.0215167626738548279
-0.324807584285736084 0.192633777856826782 -0.225901931524276733
0.466066062450408936 -0.036747317761182785 0.0985708460211753845
-0.495508700609207153 0.115392155945301056 0.0501695536077022552
-0.170404016971588135 0.204252153635025024 -0.239463075995445251
-0.0942992791533470154 -0.0611570589244365692 -0.395509928464889526
0.265832245349884033 0.119999811053276062 0.0383426472544670105
0.471280843019485474 -0.0237292218953371048 0.219955012202262878
0.013038191944360733 0.445069640874862671 0.310969799757003784
-0.145398557186126709 0.260909885168075562 -0.0687684342265129089
-0.0772299021482467651 0.118645980954170227 -0.380219221115112305
-0.0206321850419044495 0.073481343686580658 -0.379305630922317505
0.328327268362045288 0.0491955913603305817 -0.298145800828933716
0.137036874890327454 0.216123700141906738 -0.147668495774269104
0.307943642139434814 0.045725550502538681 -0.100186675786972046
0.488844484090805054 -0.0452508069574832916 0.323543578386306763
0.419921666383743286 -0.0498700179159641266 -0.106666721403598785
0.126390859484672546 0.139839395880699158 0.316056609153747559
-0.219186455011367798 0.0511037856340408325 -0.387020856142044067
0.32301861047744751 0.0616474337875843048 -0.219104334712028503
-0.416595607995986938 0.266973614692687988 -0.0511610172688961029
0.254860639572143555 0.137803509831428528 -0.130783453583717346
-0.309708237648010254 0.119206570088863373 -0.310430258512496948
-0.108354166150093079 0.297278821468353271 -0.0137038109824061394
0.235780850052833557 0.134187698364257812 0.507858395576477051
-0.566516578197479248 0.0972072184085845947 -0.0961350947618484497
-0.108860045671463013 0.115796782076358795 -0.334538877010345459
0.00995497405529022217 -0.0775745958089828491 -0.221808388829231262
0.4389382004737854 -0.0661679580807685852 0.0412560030817985535
-0.150182962417602539 0.102579191327095032 -0.378240078687667847
0.0671088993549346924 0.0430548042058944702 -0.386058270931243896
-0.663304984569549561 0.222216874361038208 -0.185213938355445862
0.381431162357330322 -0.0221662912517786026 0.276853233575820923
0.446399569511413574 -0.0282902270555496216 -0.364871591329574585
0.317711621522903442 0.130295410752296448 0.112154804170131683
-0.153524652123451233 0.347664028406143188 0.0623697377741336823
0.0273309983313083649 0.366168886423110962 0.134626850485801697
0.322112709283828735 0.00137675146106630564 -0.115738250315189362
0.126433089375495911 0.134586647152900696 0.404207587242126465
-0.123939462006092072 0.146943852305412292 -0.314030736684799194
0.368229806423187256 0.0301813725382089615 -0.37102508544921875
0.219003796577453613 0.105373650789260864 0.434671700000762939
-0.0737555474042892456 0.350045830011367798 0.124614588916301727
-0.0286684278398752213 0.0986572727560997009 -0.185523912310600281
-0.350439637899398804 0.110207512974739075 -0.377854764461517334
-0.0887460708618164062 0.0807821676135063171 0.0379259362816810608
-0.444028228521347046 0.128835722804069519 -0.371534019708633423
-0.263106316328048706 0.152295902371406555 0.198764950037002563
-0.250144124031066895 0.373991400003433228 0.150234892964363098
-0.235014170408248901 0.238186240196228027 -0.135403797030448914
0.41656571626663208 -0.096892818808555603 -0.125935941934585571
-0.195644915103912354 0.130216494202613831 0.0834186598658561707
0.0274986829608678818 0.168208330869674683 0.510874450206756592
0.402770072221755981 -0.0503164492547512054 -0.00785620883107185364
-0.142348363995552063 0.33479684591293335 0.1166238933801651
0.376495271921157837 -0.105505466461181641 -0.335689842700958252
0.303116440773010254 -0.14641997218132019 0.0314325019717216492
-0.586139500141143799 0.206059351563453674 -0.23363611102104187
0.22340749204158783 0.117948822677135468 0.282897144556045532
-0.200494244694709778 0.0612008087337017059 -0.392402708530426025
-0.394352734088897705 0.133461073040962219 -0.230909064412117004
-0.270168811082839966 -0.0845731496810913086 -0.232365280389785767
0.328917771577835083 0.0480231940746307373 -0.159340575337409973
-0.25829315185546875 0.0378548353910446167 -0.382562518119812012
0.0923430398106575012 -0.102295450866222382 -0.107627183198928833
-0.329188913106918335 0.227780327200889587 -0.187897458672523499
0.05670170858502388 0.31084093451499939 -0.00452346401289105415
-0.474165439605712891 0.132250458002090454 0.123023517429828644
-0.0681435391306877136 0.211352437734603882 -0.22204194962978363
-0.127192825078964233 -0.0491742230951786041 0.056643310934305191
0.146965280175209045 0.178317829966545105 -0.286268323659896851
-0.118742778897285461 -0.097680702805519104 -0.0231418050825595856
-0.32026025652885437 -0.0531884916126728058 -0.386047929525375366
0.479444593191146851 -0.0525287389755249023 0.204554453492164612
0.00638251891359686852 0.0905983373522758484 -0.107392400503158569
0.207946881651878357 -0.10965331643819809 0.11581961065530777
-0.0231928024441003799 0.410070866346359253 0.178734391927719116
0.314265698194503784 0.126939967274665833 -0.117208078503608704
0.447545379400253296 -0.0607531145215034485 0.223778858780860901
-0.290376186370849609 0.210251554846763611 -0.193729758262634277
-0.200300604104995728 0.0369902439415454865 -0.38545796275138855
0.125527828931808472 0.153647243976593018 -0.337336748838424683
-0.0686504170298576355 0.150927379727363586 -0.362852007150650024
-0.294472485780715942 0.236924469470977783 -0.149593904614448547
-0.248724654316902161 -0.0875563547015190125 -0.344429463148117065
0.207092463970184326 0.133497551083564758 0.469314724206924438
0.239842519164085388 -0.0911196917295455933 -0.354717344045639038
0.293613255023956299 -0.0892043858766555786 -0.326165229082107544
0.474563568830490112 -0.0794686749577522278 0.0348506942391395569
0.229331344366073608 0.130678623914718628 -0.169079169631004333
0.129232451319694519 0.495241880416870117 0.411625713109970093
0.18528449535369873 0.120871834456920624 0.101374164223670959
-0.493427306413650513 0.113367602229118347 -0.0929394140839576721
-0.622922182083129883 0.322490304708480835 0.0269126947969198227
-0.530082821846008301 0.118300765752792358 -0.180823221802711487
0.0878978371620178223 0.481792718172073364 0.336015999317169189
0.327328652143478394 0.124292708933353424 -0.0815834924578666687
0.235595002770423889 0.100270107388496399 -0.307374864816665649
0.480621993541717529 -0.0353637188673019409 0.393993407487869263
0.0878013744950294495 0.119386538863182068 0.40030437707901001
-0.563105523586273193 0.322905987501144409 0.0675124377012252808
0.310124695301055908 0.0656065866351127625 0.115314148366451263
0.32637101411819458 0.0210254229605197906 0.510691165924072266
0.442926228046417236 -0.0370119251310825348 -0.160639643669128418
-0.389047026634216309 0.0541841462254524231 -0.397601008415222168
0.0693280771374702454 -0.0879752933979034424 -0.169100105762481689
-0.182107135653495789 0.11943323165178299 0.0415603220462799072
0.296393245458602905 0.116653703153133392 -0.360958963632583618
-0.219268009066581726 0.122215352952480316 -0.37262803316116333
-0.137628361582756042 0.191842600703239441 -0.24237726628780365
0.155412256717681885 0.119222000241279602 0.339447289705276489
0.207772836089134216 -0.0857229605317115784 -0.188972398638725281
-0.00504739116877317429 0.126481473445892334 0.344998925924301147
-0.0745928958058357239 0.112126454710960388 0.311539530754089355
-0.0148157933726906776 0.27495613694190979 -0.0899278596043586731
0.033350728452205658 0.270530849695205688 -0.0754187628626823425
-0.259064555168151855 0.102943047881126404 0.202920243144035339
0.226590558886528015 -0.0777229592204093933 -0.218572273850440979
0.066092662513256073 -0.115759901702404022 -0.393048316240310669
-0.602569401264190674 0.103151395916938782 -0.173520654439926147
-0.202967181801795959 0.334783583879470825 0.0962117835879325867
-0.0744503065943717957 0.429075330495834351 0.279607206583023071
-0.0614409781992435455 -0.0762631967663764954 -0.319271057844161987
-0.466412782669067383 0.101776108145713806 0.136473268270492554
-0.524586677551269531 0.12932296097278595 -0.37641596794128418
-0.420199334621429443 0.0514368191361427307 -0.378871768712997437
-0.0653173699975013733 0.0705714598298072815 0.349393129348754883
0.381073802709579468 -0.0495350845158100128 0.401935875415802002
-0.347316265106201172 0.125072583556175232 -0.0862656980752944946
0.285606622695922852 0.120948716998100281 0.223069906234741211
0.0818906873464584351 0.390759050846099854 0.176341399550437927
0.24094642698764801 -0.0705027282238006592 -0.302638471126556396
-0.308689355850219727 -0.0846003517508506775 -0.314847320318222046
-0.353589475154876709 -0.0836409479379653931 -0.39499172568321228
0.224518179893493652 0.104880698025226593 0.543560504913330078
0.335651218891143799 -0.085123889148235321 -0.113941580057144165
0.021622728556394577 0.0561638176441192627 -0.387172818183898926
-0.725615739822387695 0.246925190091133118 -0.143238633871078491
0.00123093021102249622 0.118315674364566803 0.124630607664585114
-0.511508405208587646 0.0312703661620616913 -0.376739740371704102
-0.187768310308456421 0.105348050594329834 0.134655594825744629
0.322702735662460327 -0.0043340376578271389 0.321844726800918579
-0.390901029109954834 0.0522049851715564728 0.134952932596206665
-0.275859475135803223 0.13311845064163208 -0.363731354475021362
0.00856660306453704834 0.266272455453872681 -0.0100241852924227715
0.0192226450890302658 0.504244983196258545 0.365884631872177124
