ply
format ascii 1.0
element vertex 717
property float x
property float y
property float z
end_header
-0.243333399295806885 -0.474590390920639038 -0.0510451793670654297
-0.204869300127029419 -0.736964046955108643 -0.057200409471988678
-0.0540769323706626892 -0.79607313871383667 0.217273861169815063
0.152291193604469299 -0.144359707832336426 0.0474375374615192413
-0.263555228710174561 -0.526517927646636963 0.102875784039497375
-0.043644249439239502 -0.735974669456481934 0.253986388444900513
-0.211257115006446838 0.733693599700927734 -0.250756323337554932
-0.10077551007270813 0.0478928424417972565 0.0258371848613023758
-0.0413039103150367737 -0.517501711845397949 -0.201120287179946899
0.0375827774405479431 -0.56494218111038208 -0.177368834614753723
-0.162458255887031555 -0.228750854730606079 0.179289132356643677
0.0556765720248222351 -0.589228928089141846 0.257720857858657837
-0.0159984752535820007 -0.200284421443939209 -0.155119895935058594
-0.0793282762169837952 0.307246178388595581 -0.0560668483376502991
0.0919903591275215149 -0.325673729181289673 -0.150377005338668823
0.0792180970311164856 0.800711631774902344 -0.269449383020401001
-0.176969915628433228 -0.680610060691833496 0.211280271410942078
-0.0366463996469974518 -0.355653464794158936 0.269165873527526855
0.128890708088874817 -0.833006322383880615 0.137197941541671753
0.168417647480964661 -0.741579115390777588 0.0366610027849674225
-0.0901680216193199158 0.676854968070983887 -0.241992920637130737
-0.0233902614563703537 -0.8982047438621521 0.213805019855499268
-0.219146713614463806 -0.820167303085327148 0.0278145931661128998
-0.0171113330870866776 0.13716493546962738 0.037647198885679245
0.158483833074569702 -0.270293712615966797 0.104773610830307007
0.45191541314125061 0.694790005683898926 -0.210568785667419434
-0.0636673644185066223 -0.547142267227172852 -0.196963995695114136
0.0572629719972610474 -0.319801479578018188 -0.152633219957351685
-0.0972401127219200134 -0.0881486162543296814 -0.0791438892483711243
-0.0599178113043308258 0.147311165928840637 -0.0214769579470157623
-0.0154736945405602455 0.602126061916351318 -0.473520100116729736
-0.20467434823513031 -0.804362893104553223 -0.051862027496099472
0.179648414254188538 -0.609237611293792725 0.155065402388572693
-0.106882236897945404 -0.888355374336242676 0.0488890893757343292
0.129878774285316467 -0.400581598281860352 0.19141782820224762
0.0784514099359512329 0.0457338355481624603 0.0376032553613185883
0.157085046172142029 -0.149470359086990356 -0.0351137295365333557
-0.149347797036170959 -0.657325983047485352 0.216882139444351196
-0.0826749354600906372 0.597914457321166992 -0.347578167915344238
0.0362548790872097015 -0.253636956214904785 -0.0567427016794681549
-0.233325779438018799 -0.454686403274536133 0.142431691288948059
0.194193646311759949 0.83348006010055542 -0.369527250528335571
0.123542942106723785 -0.717870235443115234 0.203070700168609619
-0.118615731596946716 -0.523338556289672852 -0.174478679895401001
0.168335855007171631 -0.162268131971359253 0.0376546755433082581
0.124759569764137268 -0.527359247207641602 0.205976918339729309
0.0583451166749000549 0.0845187529921531677 0.0214228089898824692
0.290538877248764038 0.701874613761901855 -0.288476616144180298
0.165724039077758789 -0.251980751752853394 0.0764022320508956909
0.236553862690925598 0.825273513793945312 -0.333006024360656738
-0.139788642525672913 -0.549535453319549561 -0.160496294498443604
-0.21641366183757782 -0.373735547065734863 -0.0741846486926078796
-0.0952945426106452942 -0.50977778434753418 -0.179868131875991821
0.2211618572473526 -0.391474723815917969 0.0571604110300540924
0.149368882179260254 -0.142543479800224304 0.103544309735298157
-0.143774539232254028 -0.381068140268325806 -0.155703410506248474
0.105822339653968811 0.791768252849578857 -0.275015026330947876
-0.177713945508003235 -0.402028381824493408 -0.151967108249664307
0.136657744646072388 -0.60264885425567627 -0.114551618695259094
-0.0402142889797687531 -0.438333392143249512 0.25135919451713562
-0.168025389313697815 -0.432497978210449219 -0.136809423565864563
-0.23437143862247467 -0.51195138692855835 -0.0804155990481376648
-0.225784853100776672 -0.478240728378295898 0.176659420132637024
0.13002564013004303 -0.155791804194450378 0.085376344621181488
0.19856688380241394 0.842157900333404541 -0.407778710126876831
-0.0148859350010752678 0.607652485370635986 -0.362816184759140015
0.474104195833206177 0.701759636402130127 -0.180976435542106628
0.160099178552627563 0.706521987915039062 -0.277426004409790039
0.0440534166991710663 0.263850182294845581 -0.0272325742989778519
-0.0114763621240854263 -0.902421295642852783 -0.0120397889986634254
0.11277192085981369 -0.0915427282452583313 -0.0430861450731754303
-0.0305898133665323257 0.193403005599975586 -0.0476549491286277771
0.121500506997108459 -0.631604373455047607 -0.119947366416454315
-0.151407569646835327 -0.449943900108337402 0.243205338716506958
-0.162622660398483276 -0.117812469601631165 0.134099364280700684
-0.033486686646938324 0.0581850111484527588 0.0703376829624176025
-0.0653466954827308655 -0.617413818836212158 -0.179751276969909668
-0.186878874897956848 -0.13141120970249176 0.115097947418689728
0.0977514088153839111 -0.706847310066223145 0.226824253797531128
0.103432513773441315 -0.53988271951675415 -0.151011303067207336
0.0105588193982839584 -0.870984077453613281 -0.0485131926834583282
0.000574161822441965342 0.186684489250183105 -0.0307043138891458511
0.0641402825713157654 -0.295217454433441162 -0.0756756439805030823
-0.101623035967350006 -0.354399919509887695 -0.179210752248764038
0.182495743036270142 -0.438415288925170898 0.157557010650634766
-0.099581792950630188 0.312189310789108276 -0.0537064746022224426
-0.0625408217310905457 -0.230935037136077881 -0.154879108071327209
0.166236475110054016 -0.385014325380325317 -0.0770640969276428223
0.03797125443816185 0.0617253109812736511 -0.0197510644793510437
0.0517815016210079193 0.565668225288391113 -0.387731313705444336
-0.214412957429885864 -0.410342574119567871 0.199449479579925537
-0.154751941561698914 -0.785056769847869873 0.187057971954345703
-0.0843558833003044128 -0.85075223445892334 0.219197452068328857
-0.0717512816190719604 0.224274501204490662 -0.0261015072464942932
-0.0592811927199363708 0.51602327823638916 -0.16886882483959198
0.214953958988189697 -0.575274467468261719 0.0810313299298286438
0.181015908718109131 -0.80273902416229248 -0.0142605360597372055
-0.192863136529922485 -0.775181770324707031 0.149091422557830811
-0.20024554431438446 -0.126973018050193787 0.0780822113156318665
-0.0364814773201942444 -0.828203201293945312 -0.161280304193496704
0.0892842859029769897 -0.819005727767944336 0.177447691559791565
-0.227780595421791077 -0.722166597843170166 -0.0653408393263816833
0.427707165479660034 0.660226166248321533 -0.334670424461364746
0.354024410247802734 0.691848695278167725 -0.202877625823020935
-0.033067014068365097 0.600023210048675537 -0.491893351078033447
-0.020763808861374855 -0.406683862209320068 -0.194313839077949524
-0.0460318401455879211 -0.50162816047668457 0.265701353549957275
-0.00175689428579062223 0.659654319286346436 -0.279754877090454102
-0.211016938090324402 -0.174969717860221863 0.0434602946043014526
0.213183924555778503 -0.450791060924530029 0.0120330639183521271
-0.028177531436085701 0.0931892991065979004 -0.0397326909005641937
0.0122652873396873474 -0.432877391576766968 0.252114266157150269
-0.120302684605121613 -0.447000116109848022 -0.16328786313533783
-0.123495675623416901 -0.619670212268829346 -0.173910766839981079
-0.0727163627743721008 0.143836855888366699 -0.0223389267921447754
0.0709731355309486389 -0.751329600811004639 0.213187277317047119
-0.115770682692527771 -0.424007058143615723 0.262897282838821411
0.100835897028446198 -0.512121856212615967 0.23809368908405304
-0.0578448548913002014 -0.902630090713500977 -0.00607360759750008583
-0.0468649715185165405 -0.0697396397590637207 -0.114020347595214844
-0.272545099258422852 0.711712658405303955 -0.311390548944473267
-0.11849299818277359 -0.328827142715454102 0.22664681077003479
-0.0690444260835647583 -0.339468032121658325 -0.171404749155044556
0.188569262623786926 -0.699133038520812988 0.0779134854674339294
-0.0700151696801185608 -0.885896086692810059 0.199321985244750977
0.180962115526199341 -0.74618220329284668 0.108888350427150726
-0.0520272590219974518 0.476830214262008667 -0.127436652779579163
-0.118741951882839203 0.115375436842441559 0.0405268073081970215
0.126037716865539551 -0.830468893051147461 -0.0416397005319595337
-0.20569823682308197 0.68995201587677002 -0.309335619211196899
-0.227905139327049255 -0.734069287776947021 0.126044243574142456
0.233012288808822632 0.827953338623046875 -0.292305678129196167
-0.0241853613406419754 0.0455428510904312134 0.0937978476285934448
-0.22461293637752533 -0.283423721790313721 -0.0545812696218490601
0.144329741597175598 -0.449394911527633667 -0.145747676491737366
-0.250316470861434937 -0.676317512989044189 0.0874349474906921387
-0.00905387662351131439 -0.237119391560554504 -0.14758436381816864
-0.125085070729255676 -0.4632892906665802 -0.17890600860118866
0.0177750773727893829 -0.268955409526824951 -0.0708224326372146606
0.0787657573819160461 -0.647469699382781982 -0.15909731388092041
-0.207434862852096558 -0.589898169040679932 0.159280866384506226
0.0482327193021774292 0.0324644148349761963 -0.0215839669108390808
0.208787992596626282 0.789125144481658936 -0.256477057933807373
0.183735698461532593 -0.371826797723770142 0.135867863893508911
-0.133662089705467224 -0.722362935543060303 -0.154720574617385864
0.0372068211436271667 -0.362756311893463135 0.265121817588806152
0.269983202219009399 0.741523623466491699 -0.246270105242729187
0.0679229497909545898 0.0580304078757762909 0.0551395490765571594
-0.17158876359462738 -0.384699642658233643 0.203234538435935974
0.181440010666847229 -0.441368728876113892 0.149378836154937744
0.109829850494861603 -0.589651286602020264 0.198190629482269287
-0.207548022270202637 -0.718157649040222168 0.139210790395736694
0.102135270833969116 -0.71989905834197998 -0.141712918877601624
-0.00428059697151184082 -0.519368171691894531 0.264132112264633179
-0.241983681917190552 -0.505634129047393799 -0.0420239605009555817
0.0890454724431037903 -0.528703153133392334 0.255369067192077637
0.168592274188995361 -0.748442530632019043 0.0678227692842483521
-0.179504513740539551 -0.818144917488098145 -0.0669832602143287659
0.098288513720035553 -0.800086081027984619 -0.106055900454521179
-0.233980298042297363 -0.325670510530471802 0.087476484477519989
0.00996292103081941605 -0.508180201053619385 0.252677947282791138
-0.00803719926625490189 -0.648843348026275635 -0.191019877791404724
-0.19839206337928772 -0.430713742971420288 -0.110665619373321533
0.408310770988464355 0.639786183834075928 -0.164607763290405273
0.169001847505569458 -0.756165027618408203 -0.0418182052671909332
-0.129994824528694153 -0.851548314094543457 0.181359127163887024
0.106636427342891693 -0.838898539543151855 -0.0710275545716285706
0.383456408977508545 0.691852927207946777 -0.355985850095748901
-0.0905680805444717407 -0.746427774429321289 -0.151305407285690308
-0.218915596604347229 -0.326701968908309937 0.109956584870815277
0.100548595190048218 -0.683630108833312988 0.205890849232673645
-0.00225997250527143478 0.622505605220794678 -0.453612446784973145
-0.0869269445538520813 0.183041885495185852 -0.00103710603434592485
-0.1640310138463974 -0.531616926193237305 -0.15023978054523468
0.167112857103347778 -0.778292059898376465 -0.035683363676071167
0.17751958966255188 -0.280869781970977783 -0.0500418022274971008
-0.337561279535293579 0.620800673961639404 -0.28568616509437561
-0.155649721622467041 -0.110229544341564178 -0.0482871569693088531
0.21443350613117218 -0.450615972280502319 0.0508295558393001556
-0.216278702020645142 -0.381443977355957031 0.166404455900192261
0.160557165741920471 -0.329180210828781128 -0.0812391117215156555
-0.13351796567440033 0.737955749034881592 -0.220731720328330994
0.13773752748966217 -0.78500056266784668 0.182159826159477234
0.132990077137947083 -0.0721957385540008545 0.0271534174680709839
-0.185849472880363464 -0.209368765354156494 -0.074795946478843689
-0.241374164819717407 0.513763010501861572 -0.432910263538360596
-0.1841144859790802 -0.575995802879333496 -0.12879730761051178
-0.0219182614237070084 -0.188740566372871399 0.129904076457023621
-0.243160948157310486 -0.376021981239318848 -0.0182744767516851425
0.162497147917747498 -0.480465739965438843 0.1898689866065979
0.112506255507469177 -0.33528938889503479 -0.133867025375366211
0.0854605287313461304 -0.306277185678482056 0.23220469057559967
0.182033911347389221 -0.616170585155487061 0.0479284226894378662
-0.212631434202194214 -0.742229104042053223 0.000679945689626038074
-0.025270465761423111 -0.0853700637817382812 -0.111108534038066864
0.023182455450296402 -0.139333412051200867 -0.156363561749458313
-0.236925959587097168 -0.573056519031524658 -0.0811631679534912109
0.21312887966632843 -0.608636260032653809 0.101166009902954102
-0.174912318587303162 0.7272682785987854 -0.247697785496711731
-0.186842605471611023 -0.276942610740661621 0.158834889531135559
0.0325586684048175812 -0.635616183280944824 0.259559184312820435
0.0890498608350753784 -0.4579315185546875 -0.161303654313087463
-0.0769304260611534119 -0.530583858489990234 0.271181344985961914
-0.24653741717338562 -0.514207720756530762 -0.0162801630795001984
0.1639433354139328 -0.336069792509078979 -0.0708991140127182007
-0.105027072131633759 -0.335900306701660156 0.249463200569152832
0.170117020606994629 -0.757592260837554932 -0.0275193490087985992
-0.156494751572608948 -0.628277719020843506 -0.130825504660606384
-0.242580041289329529 -0.345603764057159424 -0.0108325034379959106
-0.185192570090293884 -0.841508448123931885 0.0282529145479202271
-0.0744473785161972046 -0.595421493053436279 -0.180830821394920349
0.0241691917181015015 -0.0179058834910392761 -0.0814589709043502808
-0.206629455089569092 -0.73530280590057373 0.138981342315673828
-0.139831393957138062 0.678120732307434082 -0.259796947240829468
-0.0354790948331356049 0.585789084434509277 -0.241729408502578735
-0.151334747672080994 -0.857460975646972656 -0.0894861072301864624
-0.221353039145469666 -0.826209425926208496 0.00677972240373492241
0.0551377907395362854 -0.653540194034576416 -0.152831390500068665
0.0452263243496417999 0.187301397323608398 4.08004325436195359e-07
-0.208714574575424194 -0.391242265701293945 -0.10886470228433609
0.16361553966999054 -0.721248507499694824 -0.0468667298555374146
0.00932953879237174988 0.0737682357430458069 -0.0383438728749752045
-0.129989847540855408 0.640051007270812988 -0.266034752130508423
-0.229848980903625488 -0.724906623363494873 0.063067413866519928
-0.0605690516531467438 -0.306463271379470825 -0.178211569786071777
0.142095178365707397 -0.853726804256439209 -0.013009238988161087
-0.174069881439208984 -0.83470606803894043 0.127141222357749939
-0.0297376513481140137 -0.89049232006072998 -0.12023482471704483
-0.0857191458344459534 -0.792244195938110352 -0.136996805667877197
-0.127974599599838257 -0.117463983595371246 0.161772996187210083
0.0699698701500892639 0.259592354297637939 -0.0105018578469753265
-0.14331132173538208 -0.910974204540252686 -0.0475362464785575867
0.181143149733543396 0.863892078399658203 -0.30398792028427124
0.00725432904437184334 0.654969394207000732 -0.423756986856460571
0.00820278935134410858 -0.23132990300655365 -0.164426043629646301
0.0367053970694541931 -0.10804392397403717 -0.122305475175380707
-0.244282752275466919 -0.621524512767791748 0.0853239446878433228
-0.17959730327129364 -0.523854494094848633 -0.137430489063262939
-0.108160838484764099 -0.218118071556091309 -0.1463947594165802
0.0692122727632522583 -0.297723114490509033 0.244004830718040466
0.124233528971672058 0.65261530876159668 -0.430122643709182739
-0.113751627504825592 0.00260373903438448906 0.0137732755392789841
0.160331025719642639 -0.775069117546081543 0.110085487365722656
0.0308367982506752014 -0.708018302917480469 -0.166729629039764404
-0.167560100555419922 -0.573031425476074219 -0.133094429969787598
-0.239604353904724121 -0.753092408180236816 -0.0166366063058376312
-0.221101433038711548 -0.296364516019821167 -0.0551228336989879608
-0.058612186461687088 -0.887290120124816895 -0.00342465052381157875
-0.182032838463783264 -0.353171676397323608 0.19299723207950592
-0.0494600236415863037 -0.87931448221206665 0.110135622322559357
-0.157626256346702576 0.622097194194793701 -0.305556744337081909
-0.168655931949615479 0.57991492748260498 -0.4027995765209198
0.203371390700340271 -0.551547348499298096 0.177726894617080688
-0.0327609516680240631 -0.804219365119934082 0.23627743124961853
0.187196746468544006 -0.48307684063911438 0.163537397980690002
0.05207090824842453 -0.557362735271453857 -0.1709480881690979
-0.00654708221554756165 0.698994219303131104 -0.291882514953613281
0.366143941879272461 0.711984574794769287 -0.187886819243431091
0.132723599672317505 -0.865743756294250488 0.00492014503106474876
-0.00297560123726725578 -0.560897409915924072 -0.191414788365364075
-0.17118053138256073 -0.703171372413635254 -0.121226713061332703
-0.210858866572380066 -0.84654003381729126 0.0782405734062194824
-0.0644037500023841858 0.280156522989273071 -0.0697594955563545227
-0.0511156283318996429 -0.468867063522338867 -0.199027329683303833
0.343021571636199951 0.6729164719581604 -0.271249830722808838
0.340987592935562134 0.712696969509124756 -0.38701137900352478
0.159598588943481445 -0.80367279052734375 0.0948144346475601196
-0.229924678802490234 -0.327257513999938965 -0.00591429322957992554
-0.23337043821811676 -0.612343013286590576 -0.0507071688771247864
0.145166367292404175 -0.816249370574951172 -0.0559793785214424133
-0.0149403521791100502 0.706377387046813965 -0.239858493208885193
-0.117127187550067902 -0.571894049644470215 0.277768909931182861
0.15044170618057251 -0.473934024572372437 0.182693570852279663
-0.23639284074306488 -0.275387287139892578 0.0277082193642854691
0.14799092710018158 -0.199252888560295105 -0.0610617697238922119
-0.198692932724952698 -0.71907961368560791 -0.0852760002017021179
-0.212018907070159912 -0.319301009178161621 -0.039791695773601532
0.0368201658129692078 0.313084244728088379 -0.0624305941164493561
0.0531876012682914734 0.778188407421112061 -0.258716017007827759
0.106706000864505768 -0.78705209493637085 -0.122780896723270416
0.244933456182479858 0.797549962997436523 -0.284008383750915527
-0.154515653848648071 -0.298414409160614014 -0.150353789329528809
-0.159601464867591858 -0.172127619385719299 -0.0632573738694190979
-0.12277337908744812 -0.69414973258972168 -0.149121329188346863
-0.0128244282677769661 0.642481327056884766 -0.257493853569030762
0.112266458570957184 -0.670102536678314209 -0.127731442451477051
-0.0518140494823455811 0.583042383193969727 -0.280636847019195557
-0.117901742458343506 -0.0684542655944824219 0.0749390199780464172
0.204676315188407898 -0.624348640441894531 -0.0049762125127017498
-0.259639650583267212 0.710137307643890381 -0.341557592153549194
0.215904176235198975 0.872976005077362061 -0.29163515567779541
0.129038527607917786 -0.426843196153640747 -0.12903963029384613
0.0214978586882352829 -0.253651469945907593 -0.154880061745643616
0.236691370606422424 0.720015287399291992 -0.337292879819869995
0.200845927000045776 -0.381029427051544189 0.0764612331986427307
0.100741297006607056 -0.56649482250213623 -0.153786033391952515
0.0577279292047023773 -0.889609277248382568 0.132011860609054565
0.0412663780152797699 -0.596345961093902588 -0.185569748282432556
0.108797460794448853 -0.594582021236419678 0.224702149629592896
0.000768934434745460749 0.622432470321655273 -0.284221261739730835
-0.0057623288594186306 -0.774594366550445557 -0.152250543236732483
-0.167099669575691223 -0.463514417409896851 -0.164756044745445251
0.0461484938859939575 -0.58661341667175293 0.250075340270996094
0.0691323205828666687 0.562675237655639648 -0.442326277494430542
0.169483974575996399 -0.707476675510406494 -0.0684631690382957458
-0.115819007158279419 -0.625014662742614746 -0.15937359631061554
-0.084036119282245636 -0.100316420197486877 -0.0995033830404281616
0.07834605872631073 -0.800565063953399658 0.209742173552513123
-0.244011953473091125 -0.479895204305648804 -0.0209233108907938004
0.136791303753852844 -0.707259833812713623 0.164929747581481934
-0.284607499837875366 -0.392475605010986328 0.06449870765209198
0.187722340226173401 -0.626077651977539062 -0.0350159332156181335
0.011654287576675415 -0.645915091037750244 0.263840645551681519
0.0366650447249412537 -0.788847684860229492 0.225144088268280029
-0.234581112861633301 -0.404393643140792847 -0.0529536120593547821
-0.25179600715637207 -0.68273848295211792 0.022385869175195694
-0.203240528702735901 -0.199247643351554871 0.0635922849178314209
0.0306728780269622803 -0.269050896167755127 -0.161963135004043579
0.0321861431002616882 -0.895658314228057861 -0.105430841445922852
-0.136072009801864624 -0.794168412685394287 -0.111879244446754456
-0.13307487964630127 0.606302320957183838 -0.433660030364990234
-0.148711919784545898 -0.293012559413909912 -0.112825788557529449
-0.137858331203460693 -0.444891780614852905 0.256282269954681396
0.161730483174324036 -0.659645557403564453 0.156181037425994873
-0.12523864209651947 -0.700629770755767822 -0.152354121208190918
0.0930979996919631958 0.643883228302001953 -0.359459847211837769
-0.16587105393409729 -0.600869596004486084 -0.146445423364639282
0.0493392236530780792 -0.859998822212219238 0.20528411865234375
0.179979130625724792 -0.70435631275177002 0.0462589487433433533
0.0217942036688327789 -0.652486801147460938 -0.175155371427536011
-0.214089259505271912 -0.485503643751144409 0.152002468705177307
-0.196250826120376587 -0.368508487939834595 0.163530871272087097
0.197898179292678833 -0.692836999893188477 0.0389916263520717621
-0.0428617410361766815 0.237525507807731628 -0.00539764482527971268
-0.149836331605911255 0.62353891134262085 -0.404302150011062622
-0.261758357286453247 -0.501549839973449707 0.0895315259695053101
0.0570792630314826965 0.632992863655090332 -0.453097760677337646
-0.0819621384143829346 -0.187759175896644592 -0.131226494908332825
-0.255932241678237915 -0.293761134147644043 -0.0135685689747333527
-0.202595055103302002 -0.138006880879402161 0.0439685769379138947
-0.157261893153190613 -0.241984963417053223 -0.11969340592622757
-0.219722792506217957 -0.151664957404136658 0.0813639983534812927
0.00443051662296056747 -0.278512358665466309 -0.180144861340522766
-0.246891766786575317 -0.587090432643890381 -0.0120833255350589752
-0.123920857906341553 0.605309128761291504 -0.282379120588302612
0.21442742645740509 -0.366973161697387695 0.0456275753676891327
0.215626358985900879 -0.520501196384429932 0.0468631982803344727
-0.0728705450892448425 -0.270012378692626953 -0.144453346729278564
0.085878908634185791 0.648865818977355957 -0.348427951335906982
0.173156991600990295 -0.324642360210418701 -0.0968274548649787903
-0.231796562671661377 -0.574653863906860352 -0.0173128433525562286
0.0758721604943275452 -0.716727197170257568 0.234635278582572937
-0.0439266040921211243 0.445724010467529297 -0.121083840727806091
-0.189007192850112915 -0.183560013771057129 -0.0330810956656932831
0.0604573152959346771 -0.415903478860855103 -0.174839586019515991
-0.0397028103470802307 0.206635192036628723 -0.055073905736207962
0.105072595179080963 -0.229782581329345703 -0.083294309675693512
0.0125002413988113403 -0.790525615215301514 -0.14613749086856842
-0.0854579433798789978 -0.47984662652015686 -0.193790361285209656
-0.245294153690338135 -0.699149370193481445 0.0678498968482017517
-0.203960850834846497 -0.764038503170013428 0.137363255023956299
-0.155649662017822266 -0.0571592748165130615 0.0216024406254291534
-0.182690486311912537 -0.247498929500579834 0.144638746976852417
0.196324363350868225 -0.389161646366119385 0.163513511419296265
-0.0612421296536922455 0.550684511661529541 -0.197455719113349915
0.179988086223602295 -0.269872188568115234 -0.0177312493324279785
-0.245010331273078918 -0.394837766885757446 0.00717079360038042068
0.180986389517784119 -0.544674217700958252 -0.0914705544710159302
0.138429537415504456 -0.657345414161682129 -0.107030801475048065
0.0704924166202545166 0.684067666530609131 -0.375375926494598389
0.210666820406913757 -0.477972567081451416 -0.0344823151826858521
-0.244560867547988892 -0.455478459596633911 0.1101699098944664
0.323106855154037476 0.682747125625610352 -0.356655120849609375
0.2118082195520401 -0.591643989086151123 0.0160348042845726013
-0.179725885391235352 -0.7062264084815979 -0.115107201039791107
0.0596992112696170807 -0.648957014083862305 0.248263075947761536
0.139209970831871033 -0.364046305418014526 0.180283322930335999
0.208316922187805176 -0.395520895719528198 -0.0107016079127788544
-0.232595697045326233 -0.700346410274505615 -0.0334805361926555634
0.0634769871830940247 -0.104413799941539764 -0.0859525874257087708
0.103730879724025726 -0.889815986156463623 -0.027157999575138092
-0.214936628937721252 -0.658638954162597656 0.187992453575134277
-0.177965506911277771 0.694442451000213623 -0.23349878191947937
0.0608214400708675385 -0.891026914119720459 0.0353410914540290833
-0.170345842838287354 -0.881926178932189941 -0.0148505773395299911
-0.219122573733329773 0.617374956607818604 -0.333421885967254639
0.09317006915807724 -0.276973694562911987 -0.150920867919921875
0.197667136788368225 -0.450789093971252441 0.0647069066762924194
-0.0294313970953226089 0.707809329032897949 -0.228200420737266541
0.0136796114966273308 0.678288698196411133 -0.303809374570846558
-0.239536762237548828 -0.731328725814819336 0.0577206462621688843
-0.0886931270360946655 -0.889786481857299805 0.0490772314369678497
0.204126521944999695 -0.365767955780029297 0.118134140968322754
-0.0648257359862327576 -0.884189486503601074 0.170282915234565735
-0.245723962783813477 -0.290130794048309326 0.0495247803628444672
0.198456645011901855 -0.41040271520614624 0.0895843431353569031
0.0976286232471466064 0.00524125667288899422 0.0139161581173539162
0.025690784677863121 -0.311212539672851562 0.243578314781188965
-0.148924350738525391 -0.030728047713637352 0.0567867234349250793
-0.00212954077869653702 -0.615097284317016602 -0.188189610838890076
0.0635265037417411804 0.214197367429733276 0.0105982488021254539
-0.0661116540431976318 -0.687911808490753174 -0.191219329833984375
0.15797443687915802 -0.425750136375427246 0.200303375720977783
-0.251160591840744019 -0.460098922252655029 0.0298323817551136017
0.199222654104232788 0.810100853443145752 -0.260440587997436523
0.0960788726806640625 -0.00363771663978695869 0.0848220288753509521
-0.109499216079711914 0.60582500696182251 -0.259103178977966309
-0.197333455085754395 -0.3403167724609375 -0.103857427835464478
0.213691458106040955 -0.543481051921844482 0.0867803841829299927
0.16679680347442627 -0.256039232015609741 0.0356891937553882599
0.209293216466903687 -0.550862491130828857 -0.0243370812386274338
0.188286051154136658 0.795307517051696777 -0.283943980932235718
-0.0232308059930801392 0.264514684677124023 -0.0433333031833171844
-0.184989660978317261 -0.106085881590843201 0.0723149403929710388
-0.237258836627006531 -0.400952309370040894 0.0749793201684951782
0.0840598121285438538 -0.788873791694641113 -0.146275252103805542
-0.203686326742172241 -0.623646140098571777 -0.098447851836681366
0.266960620880126953 0.699265480041503906 -0.386095494031906128
0.136682569980621338 0.842565655708312988 -0.298153102397918701
-0.246857717633247375 -0.579813897609710693 0.0928121283650398254
0.153170302510261536 -0.606723010540008545 -0.117361612617969513
-0.151442438364028931 -0.47878950834274292 0.228158503770828247
0.0709424018859863281 0.640643656253814697 -0.440804481506347656
-0.0283157974481582642 0.625299394130706787 -0.36366724967956543
-0.0465946495532989502 0.540942847728729248 -0.388808608055114746
-0.11216726154088974 -0.901077210903167725 -0.082544863224029541
0.211897209286689758 -0.519051074981689453 0.0455748066306114197
-0.0842044949531555176 -0.354167550802230835 0.277106821537017822
-0.0946385934948921204 -0.464803159236907959 0.285736501216888428
0.12108244001865387 -0.844134271144866943 -0.0881833583116531372
0.0943674072623252869 -0.782336950302124023 0.180009633302688599
-0.228485122323036194 -0.255227237939834595 0.0447421222925186157
0.127457156777381897 -0.0342840142548084259 -0.00345569662749767303
0.102736502885818481 -0.191260978579521179 -0.0893830806016921997
-0.220020651817321777 -0.207802474498748779 0.0913450866937637329
-0.1594105064868927 -0.217791423201560974 -0.11696779727935791
0.0136319026350975037 0.650396883487701416 -0.439803451299667358
-0.147500142455101013 -0.291538447141647339 -0.146739035844802856
0.15875321626663208 -0.820005834102630615 0.0363836847245693207
0.155891343951225281 0.907798528671264648 -0.29020652174949646
-0.115017041563987732 0.00434030778706073761 -0.0199987888336181641
0.0291334614157676697 0.764844834804534912 -0.258655130863189697
-0.246932372450828552 -0.660570085048675537 -0.0141265857964754105
0.21361224353313446 -0.557254612445831299 0.0327500887215137482
0.200775116682052612 -0.479850590229034424 -0.0718409493565559387
0.150370806455612183 -0.843481779098510742 0.0165849532932043076
0.0115419328212738037 -0.46505853533744812 -0.189196065068244934
0.21059708297252655 -0.581006944179534912 0.0517171882092952728
-0.118537850677967072 -0.660230040550231934 -0.158263146877288818
-0.207347869873046875 -0.624764978885650635 0.178619906306266785
0.126398772001266479 -0.407559663057327271 -0.125385954976081848
0.106014765799045563 -0.0615260601043701172 0.0853979587554931641
0.193681582808494568 -0.585043966770172119 -0.0447876192629337311
-0.175734832882881165 -0.210231870412826538 0.13544781506061554
0.0638501942157745361 -0.87538754940032959 -0.120684012770652771
-0.231201037764549255 -0.693544507026672363 0.0980394706130027771
0.200133129954338074 -0.384087234735488892 0.00773980701342225075
0.134015053510665894 -0.383476465940475464 0.219071030616760254
-0.0202459096908569336 -0.895548999309539795 0.0831625685095787048
-0.159629791975021362 -0.783044099807739258 -0.111933834850788116
0.168608784675598145 -0.673588395118713379 -0.0527384914457798004
0.0374258384108543396 -0.674252748489379883 0.262817114591598511
0.12835066020488739 -0.303635388612747192 0.183838382363319397
-0.0502477772533893585 0.0268001630902290344 0.0603606440126895905
-0.150103271007537842 0.63769841194152832 -0.377185136079788208
-0.0353754498064517975 0.622596085071563721 -0.401495248079299927
0.0567440874874591827 -0.431537061929702759 -0.175362765789031982
-0.243247970938682556 -0.371608972549438477 -0.0307285580784082413
0.163097932934761047 -0.247563168406486511 0.0840694606304168701
-0.172740727663040161 -0.667709052562713623 0.20734676718711853
0.138267874717712402 -0.232490375638008118 0.166077062487602234
-0.147582679986953735 -0.234781965613365173 0.198380917310714722
-0.00748659996315836906 -0.316536515951156616 0.162491783499717712
-0.034306846559047699 -0.738847672939300537 -0.14874190092086792
-0.22516922652721405 -0.584293067455291748 -0.0602297112345695496
-0.231318548321723938 -0.778630435466766357 0.000810066412668675184
-0.0271123331040143967 -0.607420027256011963 -0.196498408913612366
-0.106720224022865295 -0.867075264453887939 -0.0393808484077453613
-0.106906302273273468 -0.286200433969497681 -0.151669129729270935
-0.0582324676215648651 0.196326106786727905 -0.0464508458971977234
-0.158981189131736755 -0.832965672016143799 -0.0982575789093971252
-0.232584848999977112 -0.298681169748306274 0.0994480922818183899
0.393950611352920532 0.663491129875183105 -0.184061422944068909
-0.219505414366722107 -0.368963241577148438 0.150213703513145447
0.195018038153648376 -0.53431093692779541 0.00716309109702706337
-0.160263940691947937 0.598506629467010498 -0.369395166635513306
-0.252765387296676636 -0.442211687564849854 -0.0197573378682136536
-0.193900465965270996 -0.631657958030700684 0.20044650137424469
-0.00302724866196513176 -0.402091860771179199 0.300145715475082397
0.0292092077434062958 -0.379212349653244019 0.269060283899307251
-0.276449501514434814 0.636942923069000244 -0.297813147306442261
-0.239298611879348755 -0.605954825878143311 -0.037516321986913681
0.0858855247497558594 -0.407994121313095093 0.253331691026687622
-0.250939339399337769 -0.540394842624664307 0.010996953584253788
0.145986020565032959 -0.181513532996177673 0.0121561018750071526
-0.0590804852545261383 0.52743828296661377 -0.466394484043121338
-0.191442981362342834 -0.664048969745635986 0.19539816677570343
-0.171462550759315491 0.583446741104125977 -0.510111749172210693
0.185092806816101074 -0.424252480268478394 -0.0460963770747184753
0.19191896915435791 -0.356400728225708008 0.0263232160359621048
-0.0273878239095211029 0.622204065322875977 -0.326615869998931885
-0.11024165153503418 -0.81797945499420166 -0.130688324570655823
-0.0748230591416358948 0.591078519821166992 -0.34186023473739624
0.14754350483417511 0.615930557250976562 -0.397389680147171021
-0.0953183621168136597 -0.127284616231918335 -0.125490859150886536
0.408157616853713989 0.70036846399307251 -0.189875081181526184
-0.14444732666015625 0.617286205291748047 -0.365518689155578613
-0.254348427057266235 -0.372627109289169312 -0.0409960448741912842
0.157059237360954285 -0.73200613260269165 0.159940868616104126
0.0437828563153743744 0.0172073133289813995 -0.0394286550581455231
-0.152717873454093933 -0.0534057058393955231 -0.0164188593626022339
-0.102444469928741455 -0.437953859567642212 -0.194043830037117004
0.43589937686920166 0.677409648895263672 -0.267325520515441895
0.164723038673400879 -0.686713099479675293 0.163205325603485107
-0.0166086051613092422 -0.483201831579208374 -0.209640771150588989
0.450288563966751099 0.65125727653503418 -0.31875184178352356
-0.162091180682182312 -0.711096346378326416 0.211162328720092773
0.147777393460273743 -0.879118084907531738 0.0425212271511554718
-0.13140907883644104 0.689836978912353516 -0.20937812328338623
0.0653319284319877625 -0.0343741215765476227 -0.0613984391093254089
-0.0730182155966758728 -0.901389360427856445 -0.113260552287101746
-0.0691453441977500916 0.609608292579650879 -0.230259016156196594
0.429689496755599976 0.717203199863433838 -0.202678650617599487
0.19032779335975647 -0.533301949501037598 -0.0406550988554954529
0.1172899529337883 -0.886329531669616699 -0.0603674650192260742
-0.0218544509261846542 0.203521966934204102 -0.0435106903314590454
0.12332916259765625 -0.882109344005584717 0.0311734694987535477
0.0938152968883514404 0.670559108257293701 -0.277292847633361816
0.409814029932022095 0.721757650375366211 -0.254085928201675415
-0.14701727032661438 0.639149844646453857 -0.319392800331115723
0.166752666234970093 -0.597766458988189697 0.178950071334838867
-0.13660961389541626 -0.473448365926742554 -0.17153620719909668
-0.273652344942092896 0.61775130033493042 -0.355879813432693481
-0.0863165482878684998 0.582229077816009521 -0.265823870897293091
0.239403441548347473 0.81485360860824585 -0.314673155546188354
0.107290811836719513 -0.604096651077270508 0.212073996663093567
0.195858925580978394 -0.667072057723999023 0.0528516694903373718
-0.168014869093894958 -0.790835320949554443 0.152770534157752991
-0.165059328079223633 -0.454518228769302368 0.236407265067100525
0.109757736325263977 -0.498200207948684692 -0.144230037927627563
-0.208194166421890259 0.591652095317840576 -0.380863100290298462
-0.0368572622537612915 -0.00976575817912817001 0.0696040615439414978
0.496710807085037231 0.643024027347564697 -0.14730440080165863
0.0473355799913406372 -0.768387317657470703 -0.149679869413375854
0.135929405689239502 -0.868810176849365234 0.0167274679988622665
-0.0426557362079620361 -0.883894562721252441 0.0875871330499649048
0.148299157619476318 -0.167966604232788086 0.0704766809940338135
0.0185191892087459564 -0.417538553476333618 -0.188842326402664185
-0.0197544731199741364 -0.903057873249053955 0.157970249652862549
-0.054226309061050415 0.678773105144500732 -0.251014143228530884
-0.0565301179885864258 0.610341370105743408 -0.437595903873443604
0.131201103329658508 -0.849328100681304932 0.155875280499458313
0.170918181538581848 0.607734322547912598 -0.360645204782485962
0.305488854646682739 0.712843835353851318 -0.284570872783660889
0.159622505307197571 -0.851357817649841309 0.079247593879699707
-0.152148991823196411 0.664858818054199219 -0.291780680418014526
0.0765257850289344788 -0.826056897640228271 -0.137243643403053284
-0.102828294038772583 -0.84598076343536377 -0.133611828088760376
-0.248045191168785095 -0.509728789329528809 0.0450179688632488251
-0.147561132907867432 -0.896357119083404541 -0.0382262282073497772
-0.0655941516160964966 -0.414247512817382812 0.261712640523910522
0.0148833571001887321 0.641006827354431152 -0.349386721849441528
-0.141447126865386963 -0.492344588041305542 0.228807821869850159
0.388757586479187012 0.65337526798248291 -0.195154830813407898
0.10215410590171814 -0.757184445858001709 -0.129542753100395203
0.44795912504196167 0.625438451766967773 -0.229876101016998291
0.133211180567741394 -0.808764398097991943 0.161614865064620972
-0.252000242471694946 -0.323834866285324097 0.0398489870131015778
-0.181496515870094299 0.582150042057037354 -0.432808339595794678
-0.248500213027000427 -0.322580188512802124 0.0882218927145004272
-0.140521451830863953 -0.0493001602590084076 0.10278765857219696
0.210526078939437866 -0.479497253894805908 0.00967465899884700775
0.261653602123260498 0.718129634857177734 -0.35670742392539978
0.124459557235240936 -0.309441655874252319 -0.113577857613563538
-0.257649540901184082 -0.547602176666259766 0.0544416159391403198
-0.163835108280181885 -0.327748626470565796 0.207198113203048706
-0.142147734761238098 -0.159587666392326355 -0.0968765020370483398
-0.200243368744850159 -0.727041900157928467 0.166941449046134949
-0.0904360860586166382 0.605839312076568604 -0.314426898956298828
0.0273387245833873749 -0.883132219314575195 0.199175029993057251
0.0483973212540149689 -0.32453608512878418 -0.159689202904701233
0.165094643831253052 -0.842932939529418945 0.0469538569450378418
-0.265250653028488159 0.658701002597808838 -0.379903465509414673
0.106954291462898254 0.789380967617034912 -0.271404564380645752
-0.295940399169921875 0.622798562049865723 -0.404046505689620972
0.0203787479549646378 -0.732751727104187012 0.238269612193107605
0.0470479913055896759 -0.792278468608856201 -0.139105096459388733
-0.22644372284412384 -0.25745624303817749 -0.0285001341253519058
0.156808793544769287 -0.194806963205337524 -0.0343205481767654419
0.0278108697384595871 0.616444587707519531 -0.350444555282592773
-0.0614605210721492767 0.606304466724395752 -0.299921572208404541
0.145353779196739197 -0.346215903759002686 0.193073317408561707
-0.087098143994808197 -0.677771568298339844 -0.153892055153846741
0.157700151205062866 -0.414696484804153442 -0.115426301956176758
-0.186946794390678406 -0.38473394513130188 -0.136907860636711121
-0.207732975482940674 -0.773585915565490723 -0.056503981351852417
-0.00856869574636220932 -0.833024442195892334 -0.145680695772171021
-0.129979535937309265 -0.263253927230834961 0.0902517586946487427
0.18002675473690033 -0.2862204909324646 0.111058510839939117
0.0823146402835845947 -0.347904980182647705 0.226958557963371277
0.255849599838256836 0.794799685478210449 -0.377994567155838013
-0.0327465981245040894 0.603921055793762207 -0.271985262632369995
0.00893233250826597214 0.537839412689208984 -0.469533532857894897
-0.168556526303291321 0.524188697338104248 -0.397465109825134277
0.169142261147499084 -0.802360117435455322 0.0674887597560882568
-0.102981992065906525 -0.158858954906463623 -0.11751256138086319
0.0628543049097061157 -0.657663226127624512 0.266661882400512695
-0.148431092500686646 0.699629843235015869 -0.253830045461654663
0.0867808163166046143 -0.891194760799407959 -0.0616936422884464264
-0.213968187570571899 -0.82533562183380127 0.111372902989387512
0.383897483348846436 0.63163292407989502 -0.321516335010528564
0.155672058463096619 -0.248047828674316406 -0.0778716430068016052
0.219179734587669373 -0.493164390325546265 -0.00156756734941154718
-0.117171987891197205 -0.500589609146118164 0.246302291750907898
-0.220418289303779602 0.521256923675537109 -0.452487379312515259
-0.0766040012240409851 -0.882068395614624023 0.16128028929233551
0.134325549006462097 -0.125192523002624512 -0.0368376560509204865
-0.201074495911598206 -0.669781863689422607 -0.0515150986611843109
0.21731780469417572 0.736217916011810303 -0.352761924266815186
-0.102845951914787292 -0.868712782859802246 0.21448691189289093
0.434274792671203613 0.666555225849151611 -0.148377746343612671
-0.157990798354148865 -0.905586421489715576 0.0697670578956604004
-0.016453377902507782 -0.111752994358539581 0.150977209210395813
-0.128507420420646667 -0.767189264297485352 0.224520742893218994
-0.133085593581199646 -0.040666583925485611 0.108252748847007751
0.0527953915297985077 0.156834691762924194 0.0390956662595272064
0.00746652949601411819 -0.473207086324691772 0.266673445701599121
0.0160298310220241547 -0.359296947717666626 0.268948256969451904
0.10491161048412323 0.722965359687805176 -0.28929099440574646
-0.235896334052085876 -0.394705772399902344 0.127696335315704346
0.0521055683493614197 0.100596927106380463 0.0130735691636800766
-0.0988478139042854309 0.281308799982070923 -0.0279660671949386597
0.052460305392742157 0.0885713398456573486 0.0460692644119262695
0.138975441455841064 -0.878356635570526123 0.0829190164804458618
0.0588781684637069702 -0.0789916738867759705 -0.0839130952954292297
0.0108593851327896118 0.310043931007385254 -0.0682182013988494873
0.0670675709843635559 -0.102151662111282349 -0.0987522006034851074
-0.0385661572217941284 -0.434397250413894653 -0.195010408759117126
0.0752087458968162537 -0.0667554512619972229 -0.0713138356804847717
0.189150393009185791 -0.617971837520599365 -0.0685840621590614319
-0.177185758948326111 -0.146409556269645691 0.0913167670369148254
0.262640416622161865 0.789056181907653809 -0.336840331554412842
-0.257717639207839966 0.554793059825897217 -0.412401378154754639
0.0404938608407974243 0.30258825421333313 -0.0519609898328781128
0.526479542255401611 0.601619064807891846 -0.132417619228363037
0.103823766112327576 -0.278776228427886963 0.211107656359672546
-0.101813286542892456 -0.376514703035354614 0.264182239770889282
-0.10136866569519043 -0.65351402759552002 0.236310437321662903
0.224966958165168762 0.754902362823486328 -0.330478966236114502
0.295701920986175537 0.737991631031036377 -0.227939531207084656
-0.0337486900389194489 0.31089627742767334 -0.0662977397441864014
-0.155123040080070496 -0.753433763980865479 0.206176504492759705
0.0665724650025367737 0.672423362731933594 -0.298646688461303711
0.0395835340023040771 -0.432808369398117065 -0.189684823155403137
-0.0700719729065895081 0.0330212004482746124 0.0519840270280838013
0.0164313223212957382 0.571424126625061035 -0.382791608572006226
0.0632450208067893982 -0.662870109081268311 0.225823089480400085
0.0122277382761240005 0.255622982978820801 -0.0666249766945838928
-0.156835630536079407 -0.182808622717857361 0.170083582401275635
-0.205372020602226257 -0.803499162197113037 -0.0157128777354955673
-0.0684918537735939026 -0.0638012662529945374 -0.0883254185318946838
0.104342371225357056 -0.109911084175109863 0.125529050827026367
-0.111319787800312042 0.604583621025085449 -0.372529685497283936
0.168866738677024841 -0.372109204530715942 -0.09024781733751297
-0.120081193745136261 -0.148104116320610046 -0.0919295623898506165
-0.183840930461883545 -0.247081160545349121 -0.0817316919565200806
0.0148807549849152565 -0.0512587204575538635 -0.104876771569252014
0.170343667268753052 -0.209194526076316833 0.0229215957224369049
-0.0189500339329242706 -0.869569003582000732 0.0730891600251197815
-0.0675742402672767639 0.563407599925994873 -0.518484890460968018
0.154879644513130188 -0.268186330795288086 -0.0709514990448951721
0.164866194128990173 -0.371109932661056519 -0.0181092936545610428
0.181197196245193481 -0.337848037481307983 0.125268206000328064
-0.160318762063980103 -0.695556819438934326 0.212503671646118164
-0.133803144097328186 0.551041662693023682 -0.380683630704879761
-0.111659340560436249 -0.876699447631835938 -0.0829192176461219788
-0.120664037764072418 -0.884461700916290283 0.10260511189699173
-0.206922844052314758 -0.178429991006851196 0.120408304035663605
0.264202117919921875 0.700707972049713135 -0.275954693555831909
0.491631507873535156 0.564216256141662598 -0.270496010780334473
-0.0310597885400056839 0.0731577351689338684 0.0354633517563343048
0.186956152319908142 -0.720443189144134521 0.0270501971244812012
-0.230596363544464111 0.680003762245178223 -0.241576120257377625
-0.164428949356079102 -0.881425440311431885 0.0464443974196910858
0.198816657066345215 0.695606231689453125 -0.27198067307472229
-0.0983178019523620605 0.597266614437103271 -0.299382418394088745
0.0334834940731525421 0.0853802338242530823 -0.0103202033787965775
0.128820374608039856 -0.281460583209991455 0.164011105895042419
0.0276926960796117783 0.571848690509796143 -0.43054082989692688
-0.168714076280593872 -0.0763615593314170837 -0.00901221577078104019
-0.117250122129917145 -0.726138174533843994 0.222015723586082458
0.0670685470104217529 -0.155144363641738892 0.188635706901550293
-0.130429968237876892 -0.776919186115264893 -0.13735806941986084
0.0762756913900375366 -0.904443085193634033 -0.0911181122064590454
0.201415196061134338 -0.309232056140899658 0.00298110116273164749
-0.224417507648468018 -0.353728890419006348 -0.089833676815032959
-0.157666340470314026 -0.890214860439300537 0.151753693819046021
-0.170025929808616638 0.622803747653961182 -0.296634942293167114
-0.105765312910079956 -0.570241630077362061 -0.189793482422828674
-0.0448943339288234711 -0.332124412059783936 -0.18583911657333374
-0.0745455101132392883 -0.00624320656061172485 0.058812800794839859
-0.00531858624890446663 0.240770190954208374 -0.0300900712609291077
0.0670206621289253235 -0.791567027568817139 0.223256543278694153
0.0501271598041057587 0.291141599416732788 0.00014157702389638871
-0.17503434419631958 0.715369880199432373 -0.227646112442016602
0.132951796054840088 -0.262662351131439209 0.210556507110595703
0.103149242699146271 -0.606124341487884521 -0.1781892329454422
0.0758784264326095581 -0.0948226675391197205 -0.0687208771705627441
0.160891905426979065 -0.761716842651367188 0.109012633562088013
-0.0548784397542476654 -0.902233242988586426 0.0399811416864395142
0.0124777639284729958 -0.101391710340976715 -0.0983015969395637512
0.355104267597198486 0.679355025291442871 -0.321535289287567139
-0.218542814254760742 -0.386421024799346924 0.124727286398410797
0.178982943296432495 -0.338396608829498291 0.0307579543441534042
0.20038662850856781 -0.666555941104888916 -0.00551254814490675926
0.0503225885331630707 -0.70219343900680542 0.24428364634513855
-0.0925842449069023132 -0.547080397605895996 0.266885101795196533
