ply
format ascii 1.0
element vertex 717
property float x
property float y
property float z
end_header
0.14846038818359375 -0.158126741647720337 -0.0541209615767002106
0.233927100896835327 -0.0343266241252422333 -0.0761705189943313599
0.220717787742614746 -0.0262062903493642807 -0.141953751444816589
0.101203180849552155 -0.0524834692478179932 -0.00222322391346096992
0.210235610604286194 -0.0454506762325763702 -0.135122299194335938
0.125085651874542236 -0.0169945098459720612 -0.257027029991149902
0.143140286207199097 1.14360400402802043e-05 -0.0565111525356769562
0.223190858960151672 -0.150682926177978516 -0.0730321556329727173
0.00254017719998955727 0.00547897443175315857 -0.135137185454368591
0.142222285270690918 -0.14482511579990387 -0.225178569555282593
0.104144491255283356 0.0339333973824977875 -0.140913292765617371
0.146926581859588623 0.090893961489200592 -0.182787492871284485
0.153563499450683594 0.0809453055262565613 -0.170690476894378662
0.0774161294102668762 0.00885298475623130798 -0.19940514862537384
0.0241555403918027878 0.0669420361518859863 -0.0332698263227939606
0.00126519741024821997 -0.24805942177772522 -0.211317628622055054
0.0929596796631813049 -0.0148611804470419884 0.0410162992775440216
0.134776800870895386 -0.0290884282439947128 -0.0197436735033988953
0.0718663781881332397 -0.100423611700534821 0.0670070946216583252
0.151532441377639771 -0.0143766952678561211 -0.243743777275085449
0.25829017162322998 -0.0189946312457323074 -0.182249277830123901
0.0160006284713745117 0.0156126720830798149 -0.222922936081886292
0.155166015028953552 -0.0330809690058231354 -0.137607038021087646
0.0425550006330013275 0.041442234069108963 -0.226066052913665771
0.16880364716053009 -0.149001643061637878 0.0226322580128908157
0.127472341060638428 -0.0219579432159662247 -0.147257193922996521
0.108321048319339752 0.11245264858007431 -0.0747293755412101746
0.215330794453620911 -0.0168580487370491028 -0.151011556386947632
0.129836723208427429 0.0536830015480518341 -0.232731714844703674
0.143310531973838806 0.013728780671954155 -0.208283185958862305
0.216693297028541565 0.0354986675083637238 -0.18225271999835968
-0.0216628368943929672 -0.0953006744384765625 0.0495439581573009491
-0.00542338751256465912 -0.187199786305427551 -0.178089186549186707
-0.0640158951282501221 -0.330794632434844971 -0.186651527881622314
0.154370218515396118 0.046099148690700531 -0.102736160159111023
0.125776678323745728 0.060083828866481781 -0.140876919031143188
0.217257633805274963 -0.187412172555923462 -0.210615828633308411
0.127016142010688782 0.0326613932847976685 -0.215759590268135071
0.0755881443619728088 0.14072185754776001 -0.101262904703617096
0.110298573970794678 0.0114435935392975807 -0.118482373654842377
0.254972130060195923 -0.076890602707862854 -0.0341866388916969299
0.109823159873485565 0.0623661056160926819 -0.169447630643844604
0.099404357373714447 -0.0317165479063987732 -0.19154927134513855
0.0871827378869056702 0.000343552208505570889 0.0214378684759140015
0.1344899982213974 -0.196758642792701721 -0.134605482220649719
0.209674656391143799 -0.0068798307329416275 -0.0820802971720695496
0.210600167512893677 -0.083725467324256897 -0.220948472619056702
-0.00236168620176613331 -0.131823241710662842 -0.233600705862045288
-0.00719497771933674812 0.102538220584392548 -0.0716503933072090149
-0.0727725028991699219 -0.334813177585601807 -0.126704230904579163
0.184239774942398071 -0.107495814561843872 0.0125961797311902046
0.0832356587052345276 -0.203778013586997986 -0.170356050133705139
0.0352312773466110229 -0.229143708944320679 -0.179552361369132996
0.12275320291519165 -0.195143133401870728 -0.215515509247779846
0.152873232960700989 0.0358005426824092865 -0.118321411311626434
0.228646397590637207 -0.0467991158366203308 -0.100311145186424255
0.130650162696838379 0.0775274559855461121 -0.166884005069732666
0.116971127688884735 0.0847255438566207886 -0.152889430522918701
0.187469199299812317 -0.0947352796792984009 -0.0669986382126808167
0.211734727025032043 0.0159568507224321365 -0.113492093980312347
0.0789526328444480896 -0.0106047932058572769 -0.203400805592536926
0.00376968830823898315 -0.313939690589904785 -0.14076802134513855
0.0921280011534690857 0.0477688759565353394 -0.253755033016204834
0.165506720542907715 -0.0608552992343902588 -0.167912095785140991
0.287084490060806274 0.00689963903278112411 -0.207405701279640198
0.180978670716285706 -0.112758845090866089 -0.165842950344085693
0.125782519578933716 0.0900752916932106018 -0.185393437743186951
0.113666154444217682 0.0217456575483083725 -0.156029701232910156
-0.0320942923426628113 -0.0232089627534151077 -0.147522911429405212
0.153726845979690552 -0.00182484753895550966 -0.139129385352134705
0.0131492232903838158 -0.0755141749978065491 -0.0272958520799875259
-0.0779131054878234863 -0.280591309070587158 -0.165614426136016846
0.0546005405485630035 -0.226448476314544678 -0.20389091968536377
-0.0114518497139215469 -0.0933249294757843018 0.0541636273264884949
0.125575721263885498 -0.176846101880073547 -0.0966536179184913635
0.0534165538847446442 -0.10112520307302475 -0.0169066824018955231
-0.016567399725317955 -0.116893209517002106 -0.0753815993666648865
0.122616767883300781 -0.0565914399921894073 -0.0122748734429478645
0.0768153965473175049 -0.108040891587734222 0.0461876019835472107
0.178831145167350769 0.0246417392045259476 -0.036618303507566452
0.170313224196434021 -0.13758675754070282 -0.204759493470191956
0.15434601902961731 -0.0994800180196762085 -0.0591127127408981323
-0.0240741707384586334 -0.0315854661166667938 -0.194848194718360901
0.231251820921897888 -0.0232793018221855164 -0.189562767744064331
0.210753545165061951 -0.0421801358461380005 -0.104354150593280792
0.194068804383277893 -0.254330635070800781 -0.174390584230422974
0.144941762089729309 -0.0354957021772861481 -0.176193863153457642
0.0601176545023918152 0.00374306272715330124 -0.239488855004310608
0.211595490574836731 -0.10423269122838974 -0.174763575196266174
0.121919035911560059 -0.0169274602085351944 -0.192519634962081909
0.0367874614894390106 0.0865227580070495605 -0.0451263375580310822
0.0718287602066993713 -0.000555291946511715651 0.014919736422598362
0.0456021577119827271 -0.0860854536294937134 0.0741501078009605408
0.148190632462501526 0.0528702810406684875 -0.147834166884422302
0.184399232268333435 0.0473490245640277863 -0.140098154544830322
0.11731332540512085 -0.16727776825428009 -0.0729671120643615723
0.223189964890480042 -0.095873713493347168 -0.132937252521514893
-0.0141500094905495644 -0.120297849178314209 0.080531097948551178
0.0917724147439002991 -0.0303003378212451935 -0.23083043098449707
0.138040691614151001 -0.160774767398834229 -0.205769568681716919
0.0844213739037513733 -0.166825816035270691 -0.251687139272689819
0.132688462734222412 -0.0233441554009914398 -0.0265723168849945068
0.171867340803146362 -0.00811874121427536011 0.0233017187565565109
0.183332711458206177 0.0492980256676673889 -0.228470146656036377
0.175559133291244507 -0.127491459250450134 -0.110039182007312775
0.0753565728664398193 -0.182164043188095093 -0.0547898188233375549
0.0779047608375549316 -0.232841223478317261 -0.141487687826156616
0.11342756450176239 -0.0439411960542201996 0.0212649889290332794
0.142419666051864624 -0.262795418500900269 -0.187410816550254822
0.184249803423881531 0.00459836842492222786 -0.227043330669403076
0.220344707369804382 -0.0744977369904518127 -0.112385496497154236
0.186178997159004211 -0.0801523849368095398 -0.157716795802116394
0.0835182741284370422 0.0841393694281578064 -0.142361491918563843
0.105650216341018677 0.0471852682530879974 -0.107264690101146698
0.0693539753556251526 -0.235576838254928589 -0.210237771272659302
0.214667007327079773 -0.0476505979895591736 -0.212057724595069885
0.0229815412312746048 -0.248395532369613647 -0.183586463332176208
0.199509590864181519 -0.100247837603092194 0.00453907717019319534
0.0110636977478861809 0.0369145572185516357 -0.147617965936660767
0.251337975263595581 -0.0398318618535995483 -0.141382902860641479
0.135734334588050842 0.0622805841267108917 -0.227599248290061951
0.105641409754753113 0.0738972127437591553 -0.183164939284324646
-0.021086718887090683 -0.113261722028255463 -0.0791300907731056213
0.0625903233885765076 0.0307299010455608368 -0.236416980624198914
0.179319098591804504 -0.0207512546330690384 -0.232858821749687195
0.0915138721466064453 -0.194696664810180664 -0.079560495913028717
0.166215270757675171 0.016129910945892334 -0.194926515221595764
0.195061773061752319 -0.0195974744856357574 -0.197822079062461853
0.1213034987449646 -0.109675034880638123 -0.216592520475387573
0.0636028498411178589 -0.116566203534603119 -0.026827467605471611
0.17999817430973053 -0.1945323646068573 -0.17638242244720459
0.172447994351387024 0.0507811903953552246 -0.222956269979476929
-0.0349957831203937531 -0.234511047601699829 -0.215787827968597412
0.232873588800430298 -0.00275099207647144794 -0.0516452044248580933
0.287780553102493286 0.0248637348413467407 -0.223380729556083679
0.0658966824412345886 -0.250717669725418091 -0.202238708734512329
0.160891354084014893 -0.169886916875839233 -0.157238200306892395
0.168120875954627991 -0.0344554707407951355 -0.126741260290145874
0.0787636116147041321 0.0784198269248008728 -0.135866641998291016
0.272110402584075928 0.0214790087193250656 -0.188668712973594666
0.21135064959526062 0.00745328189805150032 -0.13373875617980957
0.121759034693241119 -0.0841842889785766602 -0.201603367924690247
0.231453225016593933 -0.0353723578155040741 -0.150301620364189148
0.203976944088935852 -0.0912434011697769165 -0.193538621068000793
0.11632101982831955 -0.211756274104118347 -0.163402929902076721
0.107132680714130402 -0.172971099615097046 -0.214320719242095947
0.245933756232261658 -0.0242500510066747665 -0.256691664457321167
0.114096380770206451 -0.0327690653502941132 -0.200722560286521912
0.0216436441987752914 0.0281935092061758041 -0.217914015054702759
-0.00336019694805145264 -0.154778957366943359 -0.0703805908560752869
0.193009108304977417 -0.153069570660591125 -0.237711906433105469
0.154803082346916199 -0.0367441810667514801 -0.218283459544181824
0.187446758151054382 -0.0374980047345161438 -0.166339010000228882
-0.00297971395775675774 -0.12222076952457428 -0.079465717077255249
0.0895919650793075562 -0.0820721536874771118 0.0585032366216182709
0.149480581283569336 -0.225664004683494568 -0.204712122678756714
0.179513230919837952 -0.127553775906562805 -0.0525683797895908356
-0.00506165763363242149 -0.130458012223243713 -0.204671934247016907
0.191349342465400696 -0.238447099924087524 -0.191441789269447327
-0.00561443343758583069 -0.0089830104261636734 -0.0922541692852973938
0.209974512457847595 -0.0942861735820770264 -0.251357614994049072
0.213924035429954529 -0.143693536520004272 -0.167996212840080261
0.079468846321105957 -0.132051393389701843 0.0321117490530014038
0.0941242203116416931 -0.209761172533035278 -0.0941859632730484009
0.123045787215232849 0.0340622514486312866 -0.225096032023429871
0.162162810564041138 0.029583292081952095 -0.0771863013505935669
-0.0450742840766906738 -0.0621914789080619812 -0.124181538820266724
0.0441942512989044189 -0.262339681386947632 -0.20863419771194458
0.0543391704559326172 -0.294194787740707397 -0.1350526362657547
0.119022361934185028 0.0457454100251197815 -0.229129493236541748
0.212475627660751343 -0.234603732824325562 -0.186645716428756714
0.196685776114463806 -0.119615741074085236 -0.0353005677461624146
0.207271888852119446 -0.194038912653923035 -0.21076086163520813
0.0206185672432184219 -0.0473364368081092834 -0.0248203463852405548
0.109094977378845215 -0.060010034590959549 -0.0321973040699958801
0.140963554382324219 -0.0080773206427693367 -0.0293145757168531418
-0.0335317440330982208 -0.0899151936173439026 -0.123209230601787567
0.167174354195594788 -0.127175793051719666 -0.246764183044433594
0.1566009521484375 -0.0978457406163215637 -0.224856957793235779
0.103323794901371002 0.088588617742061615 -0.210954859852790833
0.105921193957328796 0.00882246345281600952 -0.125784099102020264
0.135608404874801636 -0.0415339246392250061 -0.0262704081833362579
0.0715081021189689636 -0.0110657243058085442 0.0110878488048911095
0.0575410947203636169 -0.10746532678604126 0.00497207185253500938
0.0653557330369949341 -0.0791147202253341675 0.0279144253581762314
0.0871261060237884521 -0.0754213705658912659 0.0864388272166252136
-0.0616226382553577423 -0.0736079365015029907 -0.178685054183006287
0.15101902186870575 0.0649797618389129639 -0.186240345239639282
0.0372835248708724976 0.0913871079683303833 -0.14380645751953125
0.174382820725440979 -0.0893448293209075928 -0.0654359757900238037
0.0965766385197639465 0.000780240865424275398 -0.189455196261405945
0.118839487433433533 -0.213735535740852356 -0.227882519364356995
-0.0304837636649608612 -0.0844328701496124268 -0.179960250854492188
0.114316187798976898 0.0215991009026765823 -0.0618133619427680969
0.129383519291877747 -0.0167392119765281677 -0.173685625195503235
0.0941172093152999878 0.140000030398368835 -0.0832215920090675354
-0.0220086891204118729 -0.0537906661629676819 -0.236289113759994507
0.238358139991760254 -0.0451839715242385864 -0.146558701992034912
0.181915700435638428 0.0301830153912305832 -0.153154224157333374
-0.120261065661907196 -0.303216218948364258 -0.120271027088165283
0.0854483693838119507 -0.0135519932955503464 -0.237641245126724243
0.0613973662257194519 -0.0669984668493270874 -0.0295418612658977509
0.00793318077921867371 0.0132592068985104561 -0.111616030335426331
0.110032804310321808 0.0419182814657688141 -0.114003017544746399
0.154449731111526489 0.0563827231526374817 -0.174463286995887756
0.193022042512893677 0.0409531183540821075 -0.23779807984828949
-0.0441694371402263641 -0.0946834087371826172 0.0567938201129436493
0.238357394933700562 -0.12615792453289032 -0.117437288165092468
0.167384922504425049 -0.0966613143682479858 -0.236461818218231201
-0.0114764580503106117 -0.259007632732391357 -0.212109401822090149
0.31041601300239563 0.0529682785272598267 -0.233540728688240051
0.00480880914255976677 -0.112256675958633423 -0.0598068460822105408
0.240598857402801514 -0.02755776047706604 -0.125659391283988953
0.170064583420753479 -0.0588420741260051727 -0.228418290615081787
-0.0335730388760566711 -0.137637108564376831 -0.139952048659324646
0.114496342837810516 -0.0331198610365390778 -0.0200871452689170837
0.224297225475311279 -0.113190010190010071 -0.19454018771648407
0.0379067696630954742 -0.136810764670372009 -0.0178937651216983795
-0.0185927823185920715 -0.139708548784255981 -0.124135591089725494
0.244836539030075073 -0.0113192517310380936 -0.042987532913684845
0.141410186886787415 -0.0657150149345397949 -0.173028483986854553
0.135556653141975403 -0.19338563084602356 -0.150592416524887085
0.246511518955230713 -0.0693083256483078003 -0.0901335626840591431
0.134716644883155823 -0.0984542146325111389 -0.0347143858671188354
0.0931795835494995117 -0.174563094973564148 -0.0470888055860996246
0.1589251309633255 -0.00369555479846894741 -0.104005731642246246
0.142116546630859375 -0.142161831259727478 -0.202850699424743652
0.140254616737365723 -0.0460191071033477783 -0.196890279650688171
-0.0274585466831922531 -0.14531882107257843 -0.134095564484596252
0.190769091248512268 -0.0472297891974449158 -0.141819193959236145
-0.0267515704035758972 -0.137352153658866882 -0.130328193306922913
0.333172738552093506 0.0411943197250366211 -0.234543845057487488
0.216794073581695557 -0.0310019981116056442 -0.137793838977813721
0.279969096183776855 0.0103523861616849899 -0.196620360016822815
0.0355529449880123138 0.115850426256656647 -0.205156341195106506
-0.0636756494641304016 -0.0623571425676345825 -0.156849384307861328
0.114932194352149963 -0.00537953665480017662 0.0153025975450873375
0.173770219087600708 -0.0122503954917192459 -0.239577248692512512
-0.00873822625726461411 -0.257539749145507812 -0.170392066240310669
0.155100256204605103 0.0212709717452526093 -0.0423254519701004028
0.187061131000518799 -0.0265615135431289673 -0.109179362654685974
0.13258342444896698 -0.0419851914048194885 -0.00501718884333968163
0.0807918533682823181 0.0515426024794578552 -0.148496314883232117
0.124003298580646515 0.0667697042226791382 -0.217320144176483154
0.0333975628018379211 0.100655846297740936 -0.105553388595581055
0.16516481339931488 -0.18040253221988678 -0.189520925283432007
0.165206491947174072 -0.1766786128282547 -0.131303325295448303
0.150759235024452209 0.0303598027676343918 -0.0838195979595184326
0.169788181781768799 -0.135301262140274048 -0.064461931586265564
0.0266843196004629135 0.0944915637373924255 -0.0574092864990234375
0.218364089727401733 -0.107576213777065277 -0.0634349361062049866
0.247635617852210999 -0.106414370238780975 -0.0281021762639284134
0.157923132181167603 -0.157684698700904846 -0.0732320100069046021
-0.00846325140446424484 0.025422513484954834 -0.110551193356513977
0.15204755961894989 -0.158653706312179565 -0.0824381113052368164
0.173795014619827271 0.0671374052762985229 -0.130252420902252197
-0.0212662462145090103 -0.0530148148536682129 -0.0714333951473236084
-0.00539704272523522377 -0.0481947325170040131 -0.233320713043212891
0.0336950048804283142 -0.103219799697399139 0.0118769276887178421
0.159245535731315613 0.0592595487833023071 -0.212774559855461121
0.0741009041666984558 0.0489147007465362549 -0.21316877007484436
0.0671121850609779358 0.0244301408529281616 -0.208331093192100525
0.0160668790340423584 -0.238303408026695251 -0.181214213371276855
-0.00930717028677463531 -0.232565209269523621 -0.171537443995475769
-0.0434468872845172882 -0.0324932336807250977 -0.130262121558189392
0.0981099233031272888 0.0475574322044849396 -0.222611859440803528
0.156853228807449341 0.0595005154609680176 -0.118116520345211029
0.0956477448344230652 0.0487812906503677368 -0.202952057123184204
-0.00164250528905540705 -0.0921639055013656616 -0.0192630589008331299
0.0131007563322782516 -0.171238049864768982 -0.104287870228290558
0.134235277771949768 -0.0648055151104927063 -0.17983601987361908
-0.000970496330410242081 -0.0247434563934803009 -0.193200811743736267
0.0851927772164344788 0.0036661224439740181 -0.230844035744667053
0.0687257573008537292 0.0910161733627319336 -0.12079504132270813
0.0324058718979358673 -0.0685807913541793823 -0.017836419865489006
0.0969023033976554871 -0.14899909496307373 0.0145072620362043381
0.0766958892345428467 0.058104000985622406 -0.207166314125061035
0.204433634877204895 -0.074439123272895813 -0.203793168067932129
0.26453697681427002 -0.0907859429717063904 -0.0818775445222854614
-0.0563362240791320801 -0.269528687000274658 -0.154261082410812378
0.136307790875434875 -0.0785235688090324402 -0.203566595911979675
0.0865137651562690735 -0.037029169499874115 -0.0348151400685310364
0.162254348397254944 0.026503000408411026 -0.228802978992462158
0.108016319572925568 -0.0970647260546684265 -0.218313544988632202
0.135105326771736145 0.0785613134503364563 -0.14764752984046936
0.161484241485595703 -0.273921936750411987 -0.176186710596084595
0.296496450901031494 0.0454068556427955627 -0.215506851673126221
0.0736834481358528137 -0.0200096350163221359 -0.231068998575210571
0.127209484577178955 -0.185366988182067871 -0.126485690474510193
-0.0454364381730556488 -0.11314227432012558 -0.138575360178947449
-0.0329760350286960602 -0.148286670446395874 -0.124993324279785156
0.12380962073802948 -0.011249881237745285 -0.202976077795028687
0.0750856474041938782 -0.14086422324180603 -0.0347221717238426208
0.241178572177886963 -0.00250982539728283882 -0.0284226387739181519
0.223966509103775024 -0.0529067032039165497 -0.168161273002624512
-0.0606276765465736389 -0.310569137334823608 -0.145737528800964355
0.0181470979005098343 -0.172664687037467957 -0.128112822771072388
0.15364210307598114 -0.240315288305282593 -0.201002597808837891
0.0566739626228809357 -0.100404269993305206 0.000555529375560581684
0.108503669500350952 -0.108596853911876678 0.0243309885263442993
0.0469297543168067932 0.0157724767923355103 -0.212142661213874817
0.183120936155319214 -0.0706503093242645264 -0.15260981023311615
0.137140437960624695 -0.106061331927776337 -0.0212456360459327698
0.179312929511070251 0.0124673424288630486 -0.166132807731628418
0.0534551255404949188 -0.0934994444251060486 0.0787573307752609253
0.157721728086471558 0.0276168957352638245 -0.212135076522827148
0.1371784508228302 -0.018219849094748497 -0.0325358062982559204
0.222761556506156921 -0.135765314102172852 -0.143477365374565125
0.124479286372661591 -0.0649877786636352539 -0.171498313546180725
0.117796562612056732 0.0748927518725395203 -0.182722285389900208
0.189024791121482849 0.0582597255706787109 -0.192685604095458984
0.187196701765060425 -0.070422828197479248 -0.00956538226455450058
0.186759024858474731 -0.0264448821544647217 -0.0427020639181137085
0.0125549137592315674 0.133209392428398132 -0.0954863131046295166
0.21442703902721405 -0.136428177356719971 -0.109873533248901367
0.146747186779975891 0.0540052205324172974 -0.102687038481235504
0.2242451012134552 -0.0596516616642475128 -0.195168763399124146
0.155645459890365601 -0.217774972319602966 -0.202497407793998718
0.147964268922805786 0.0172762311995029449 -0.205216407775878906
0.190100565552711487 -0.116976119577884674 -0.0451877936720848083
0.105841062963008881 0.0416379161179065704 -0.0905247330665588379
0.124447450041770935 0.0573565326631069183 -0.212274357676506042
0.220488607883453369 -0.08429669588804245 -0.163702398538589478
0.122684739530086517 -0.191531628370285034 -0.227883368730545044
0.0993912145495414734 0.0656479299068450928 -0.187641814351081848
-0.0037057199515402317 -0.21988619863986969 -0.162807255983352661
0.107837237417697906 -0.103920780122280121 -0.00637111719697713852
0.0786687582731246948 -0.172519326210021973 0.0419991165399551392
0.186139971017837524 -0.105464302003383636 -0.221729159355163574
0.211556285619735718 -0.0760680213570594788 -0.135357096791267395
0.207941621541976929 0.0336370132863521576 -0.0707952529191970825
0.201445698738098145 0.0144788986071944237 -0.0376570262014865875
0.0301848500967025757 -0.0717076435685157776 -0.033238288015127182
0.125608250498771667 -0.182876840233802795 -0.178141728043556213
0.171828225255012512 0.0231510568410158157 -0.223930642008781433
0.0495928451418876648 -0.085645921528339386 0.00361965945921838284
-0.0562644340097904205 -0.0596120059490203857 -0.173212781548500061
-0.00313032232224941254 -0.100267641246318817 -0.0447429940104484558
0.0158376563340425491 0.00963429268449544907 -0.179148241877555847
0.19885803759098053 -0.0328903272747993469 -0.100473359227180481
0.256269544363021851 0.00367538537830114365 -0.173178687691688538
0.0831015557050704956 -0.0813301950693130493 -0.00343301380053162575
0.178201586008071899 -0.151043102145195007 -0.122222959995269775
0.194164663553237915 -0.024559391662478447 -0.25027090311050415
0.0465223677456378937 -0.0286432690918445587 -0.233420044183731079
0.136994019150733948 0.0868959277868270874 -0.183675259351730347
0.148855805397033691 0.020876958966255188 -0.113808684051036835
0.166291043162345886 -0.14103834331035614 -0.0601768679916858673
0.168796360492706299 5.52158817299641669e-05 -0.187636390328407288
0.15201297402381897 -0.198642730712890625 -0.179382383823394775
0.124837063252925873 -0.0334021970629692078 -0.186433747410774231
0.154779419302940369 -0.0735882595181465149 -0.17004692554473877
0.0869726687669754028 -0.0679309219121932983 -0.00260341726243495941
-0.0424077138304710388 -0.0161696076393127441 -0.136268541216850281
0.20570509135723114 0.0357189849019050598 -0.0698164030909538269
0.12516312301158905 -0.0338949523866176605 -0.0174660831689834595
0.247008383274078369 -0.0845331475138664246 -0.0441561825573444366
0.16307319700717926 -0.0139352474361658096 -0.00707983085885643959
0.083345852792263031 -0.246689066290855408 -0.199772268533706665
0.217951282858848572 -0.0350861214101314545 -0.131059348583221436
-0.0439008809626102448 -0.300364762544631958 -0.16253170371055603
0.154414936900138855 -0.158587619662284851 -0.114768438041210175
0.0528764910995960236 -0.219572857022285461 -0.229083850979804993
0.212850302457809448 -0.0661571994423866272 -0.20406554639339447
0.224499672651290894 -0.110614731907844543 -0.163785442709922791
-0.0375384986400604248 -0.0774552524089813232 -0.218155086040496826
0.0555671080946922302 -0.247699305415153503 -0.189669325947761536
0.19204278290271759 0.0193597245961427689 -0.117802150547504425
0.246856167912483215 -0.0456722043454647064 -0.0876738652586936951
-0.0763959512114524841 -0.280441612005233765 -0.213032200932502747
0.0504229441285133362 -0.190826416015625 -0.0868892595171928406
0.0924909263849258423 -0.0184060502797365189 -0.0309710614383220673
0.323538899421691895 0.0493623167276382446 -0.217939645051956177
0.178180396556854248 -0.214794620871543884 -0.187009572982788086
0.165588527917861938 -0.11845070868730545 -0.0734209045767784119
0.221871733665466309 -0.151118680834770203 -0.223792001605033875
0.208220645785331726 -0.0767024680972099304 -0.243884503841400146
-0.0210781041532754898 -0.256320565938949585 -0.210642516613006592
0.156444057822227478 -0.0689926445484161377 -0.0516930446028709412
0.133679017424583435 -0.0643138587474822998 -0.012211846187710762
0.1523447185754776 0.0662552341818809509 -0.221731528639793396
-0.0316719599068164825 -0.0701795145869255066 -0.0880470052361488342
0.301980108022689819 0.0191765371710062027 -0.212208494544029236
0.073058784008026123 0.0471987165510654449 -0.12141108512878418
-0.0522808991372585297 -0.122350476682186127 -0.138440757989883423
-0.0359688140451908112 -0.105221882462501526 -0.19373852014541626
0.0733311772346496582 0.107146047055721283 -0.157487422227859497
0.104886949062347412 -0.0746949836611747742 -0.212713927030563354
0.102598413825035095 0.101699560880661011 -0.124521836638450623
0.049061797559261322 0.00686771748587489128 -0.23878556489944458
0.268436968326568604 0.0219097398221492767 -0.197504445910453796
0.130523726344108582 0.00404245452955365181 -0.101653262972831726
0.0846281424164772034 -0.250237762928009033 -0.228604614734649658
-0.0513718612492084503 -0.31507718563079834 -0.20277036726474762
0.198768049478530884 0.0562851577997207642 -0.106305517256259918
0.00298577616922557354 -0.0215892922133207321 -0.228949174284934998
0.170034840703010559 -0.242697760462760925 -0.187713861465454102
0.0226315520703792572 0.0308667737990617752 -0.167108461260795593
0.14891970157623291 0.0540050417184829712 -0.228264272212982178
-0.043614756315946579 -0.0609516911208629608 -0.116262927651405334
0.148466110229492188 0.0438898205757141113 -0.0726898461580276489
0.232861623167991638 -0.0084167923778295517 -0.0828954800963401794
0.266175687313079834 -0.0820193067193031311 -0.0744812414050102234
0.214602798223495483 -0.0838029012084007263 -0.213938340544700623
-0.0114863142371177673 -0.0527530498802661896 -0.204445183277130127
0.120239265263080597 0.0301843751221895218 -0.00422952743247151375
-1.26263012134586461e-05 -0.00255281222052872181 -0.0940448194742202759
0.20917724072933197 -0.0205103997141122818 -0.13026466965675354
0.199488893151283264 -0.0316579230129718781 -0.237472116947174072
0.153563246130943298 -0.0452937968075275421 -0.193400755524635315
0.117764323949813843 -0.0781892538070678711 0.0154114216566085815
-0.0264623183757066727 -0.024928530678153038 -0.0788080841302871704
-0.0409489087760448456 -0.264963746070861816 -0.141293153166770935
-0.0144246863201260567 -0.151914402842521667 -0.179804280400276184
0.203927069902420044 -0.0833634287118911743 -0.184461548924446106
0.103853560984134674 -0.0410809554159641266 -0.213417977094650269
0.100742153823375702 -0.063050977885723114 0.0118420915678143501
0.169663712382316589 -0.0340912416577339172 -0.228952333331108093
0.0580447465181350708 -0.179612100124359131 -0.0846031531691551208
0.100054517388343811 -0.00153124541975557804 -0.000500946480315178633
0.208934798836708069 0.00860167387872934341 -0.244326129555702209
0.0578377507627010345 -0.0213207174092531204 0.0645267367362976074
0.0158652141690254211 -0.127098977565765381 -0.241215139627456665
0.0439415350556373596 -0.198363319039344788 -0.156107708811759949
0.157921269536018372 -0.0323905311524868011 -0.243930310010910034
0.135867208242416382 -0.0195548031479120255 -0.0446705222129821777
0.211313351988792419 -0.0544578731060028076 -0.0966964513063430786
0.0843978002667427063 -0.220810681581497192 -0.220183894038200378
-0.0311138946563005447 -0.28213202953338623 -0.207746490836143494
0.0925780981779098511 -0.230272084474563599 -0.195563092827796936
0.0299462955445051193 0.0874453559517860413 -0.052792821079492569
0.0658423826098442078 -0.205149605870246887 -0.113461613655090332
0.246096938848495483 0.00986657664179801941 -0.169462457299232483
0.0879935622215270996 -0.0320169925689697266 0.0237206071615219116
0.344345718622207642 0.0653990283608436584 -0.223621144890785217
0.106620050966739655 -0.0648226141929626465 -0.00529329758137464523
0.233043596148490906 -0.105858787894248962 -0.1011849045753479
0.233107075095176697 -0.0640316307544708252 -0.10847366601228714
0.150203302502632141 0.0379426740109920502 -0.198203191161155701
0.19436761736869812 -0.0187996271997690201 -0.0970555022358894348
0.200849413871765137 -0.119303815066814423 -0.1886330246925354
-0.0265944097191095352 -0.259722381830215454 -0.225807368755340576
0.225633919239044189 -0.0477228611707687378 -0.235396578907966614
0.161688625812530518 -0.0444309227168560028 -0.203085586428642273
-0.0121151171624660492 -0.257473915815353394 -0.188585430383682251
0.121321208775043488 0.038044322282075882 -0.1315716952085495
0.0130458083003759384 -0.290977030992507935 -0.16657373309135437
0.140853762626647949 -0.103737935423851013 -0.232158437371253967
0.103985905647277832 -0.0101958774030208588 -0.237434819340705872
0.0252159107476472855 -0.126485690474510193 -0.225150033831596375
0.0799065306782722473 -0.0911394804716110229 -0.0185801144689321518
-0.00378078920766711235 -0.0779441893100738525 -0.248813644051551819
0.269743025302886963 -0.0915985926985740662 -0.0461864657700061798
0.115932613611221313 -0.0736393257975578308 0.0329104922711849213
0.101328440010547638 0.010031956247985363 -0.235705658793449402
0.0938054099678993225 -0.195813298225402832 -0.184597596526145935
0.0991822928190231323 0.131940767168998718 -0.102655939757823944
-0.0220474973320960999 -0.153646543622016907 -0.2188711017370224
0.136167719960212708 -0.0344530306756496429 -0.00492570130154490471
0.0256230887025594711 -0.00963688921183347702 -0.217429846525192261
0.0655424594879150391 -0.271997690200805664 -0.219401821494102478
0.125564038753509521 0.0333461835980415344 -0.1435660719871521
0.0715675130486488342 -0.196962505578994751 -0.200446486473083496
0.144936472177505493 -0.185922577977180481 -0.0596256181597709656
0.155970662832260132 -0.128459364175796509 -0.0379690267145633698
0.199738875031471252 0.0318054705858230591 -0.0607263073325157166
0.0563178211450576782 -0.266099393367767334 -0.216103538870811462
0.139458775520324707 -0.0597329661250114441 -0.0029298802837729454
0.0462227128446102142 -0.190526187419891357 -0.153027981519699097
0.140798762440681458 0.0400891825556755066 -0.108598776161670685
-0.112862013280391693 -0.27752271294593811 -0.129031643271446228
0.0823754742741584778 0.00752173410728573799 -0.200184836983680725
0.049520004540681839 0.120456807315349579 -0.106508418917655945
-0.131850674748420715 -0.307176053524017334 -0.101833976805210114
0.243701636791229248 -0.117162607610225677 -0.120149657130241394
0.0788884833455085754 0.113914348185062408 -0.114818580448627472
-0.0355960801243782043 -0.0740009471774101257 -0.191835016012191772
0.0531070828437805176 -0.161771565675735474 -0.0296922549605369568
0.179691970348358154 0.0225240308791399002 -0.143732950091362
0.167424991726875305 -0.131422549486160278 -0.1899985671043396
0.0620450079441070557 -0.310161113739013672 -0.150014236569404602
0.236370638012886047 -0.217228636145591736 -0.24901387095451355
0.150057733058929443 0.0782647207379341125 -0.227546662092208862
-0.0212181359529495239 -0.11605149507522583 -0.189792245626449585
0.15851081907749176 -0.0763173550367355347 -0.153198421001434326
0.146361544728279114 -0.0382761768996715546 -0.140704438090324402
0.191450968384742737 0.078889600932598114 -0.134454146027565002
0.153337419033050537 -0.0611862353980541229 -0.202894389629364014
0.168812736868858337 0.0482627488672733307 -0.0543632619082927704
-0.103176422417163849 -0.283657699823379517 -0.124465480446815491
0.200086966156959534 0.00326577760279178619 -0.110811710357666016
0.0600837543606758118 -0.13118724524974823 0.0333695821464061737
0.184504464268684387 -0.034889664500951767 -0.194381847977638245
0.0240021198987960815 -0.286013543605804443 -0.141653060913085938
0.193519830703735352 0.00584183959290385246 -0.185364320874214172
0.176991552114486694 0.0229206904768943787 -0.179844915866851807
0.204520374536514282 -0.114677205681800842 -0.154885470867156982
0.059358648955821991 -0.283820688724517822 -0.135435208678245544
0.152552112936973572 -0.0482698194682598114 -0.0535173267126083374
0.0769493058323860168 -0.0226534996181726456 -0.0252073481678962708
0.234263285994529724 -0.158430576324462891 -0.0622772946953773499
0.187291383743286133 -0.114892750978469849 -0.159920915961265564
0.113832131028175354 0.00505365850403904915 -0.174265503883361816
0.15402550995349884 -0.189583703875541687 -0.141909778118133545
-0.0435487814247608185 -0.250486493110656738 -0.196799680590629578
0.253474593162536621 0.000824932183604687452 -0.191357150673866272
0.228953078389167786 -0.0349503941833972931 -0.0964222177863121033
0.175407275557518005 0.0181319322437047958 -0.211619719862937927
-0.0666823536157608032 -0.258892923593521118 -0.111649096012115479
0.14079652726650238 -0.122632779181003571 -0.0443771854043006897
0.0618935152888298035 0.0107733430340886116 -0.10004638135433197
0.101307190954685211 -0.228649824857711792 -0.225359484553337097
0.0670802965760231018 -0.0324652455747127533 0.0240286402404308319
0.176681846380233765 -0.146582797169685364 -0.123721271753311157
0.00536036677658557892 -0.146202296018600464 -0.222328394651412964
0.15618579089641571 -0.128865867853164673 -0.106072396039962769
0.0562693104147911072 0.0477045811712741852 -0.160511299967765808
0.16183355450630188 -0.14172641932964325 -0.190776169300079346
0.182191237807273865 -0.00147205998655408621 -0.205697983503341675
-0.0313515141606330872 -0.0368998758494853973 -0.196534678339958191
-0.0139868538826704025 -0.177831113338470459 -0.171908214688301086
0.120582781732082367 -0.0403184704482555389 -0.172548562288284302
0.00811689067631959915 0.0392663776874542236 -0.169118762016296387
0.180326759815216064 -0.0594223290681838989 -0.154430851340293884
0.116275951266288757 -0.129315018653869629 -0.0361108370125293732
-0.121381141245365143 -0.290011405944824219 -0.139479964971542358
0.121279589831829071 -0.0680622756481170654 0.0273222755640745163
0.143723413348197937 -0.158622249960899353 -0.0989552363753318787
0.0816334560513496399 0.0332913696765899658 -0.0565528236329555511
0.0646073073148727417 -0.264583200216293335 -0.170683205127716064
0.122927553951740265 -0.163874268531799316 -0.215825751423835754
0.119903087615966797 -0.074367128312587738 -0.00629012519493699074
-0.0563953220844268799 -0.0978962928056716919 -0.202230006456375122
0.218050748109817505 -0.0167954154312610626 -0.12903238832950592
0.0125516513362526894 -0.155552014708518982 -0.0595211312174797058
0.268226891756057739 -0.135086372494697571 -0.135523825883865356
0.202440664172172546 -0.134338170289993286 -0.00881477911025285721
0.0341024845838546753 -0.236667528748512268 -0.232465535402297974
0.190147086977958679 0.0774238109588623047 -0.243092045187950134
0.0785997584462165833 -0.175006479024887085 0.0105374706909060478
0.149448543787002563 0.0248437058180570602 -0.0137489177286624908
0.23822428286075592 -0.0230136197060346603 -0.146874234080314636
0.134680360555648804 -0.00649125408381223679 -0.064599454402923584
0.0355232991278171539 0.015968596562743187 -0.226933270692825317
0.110063813626766205 0.0447974987328052521 -0.164593920111656189
0.209236845374107361 -0.110263697803020477 -0.193501904606819153
0.226581394672393799 -0.0565727651119232178 -0.246574714779853821
0.000347906956449151039 -0.00779835926368832588 -0.0684876963496208191
-0.0372720696032047272 -0.0850861892104148865 -0.190372005105018616
0.117410488426685333 0.0282706096768379211 -0.0800248458981513977
0.186519041657447815 -0.104109860956668854 -0.00030300806974992156
0.139649242162704468 -0.0148163679987192154 -0.209530144929885864
0.0730429664254188538 0.0588902123272418976 -0.220605507493019104
0.0713878795504570007 0.0857378244400024414 -0.168520331382751465
0.115701958537101746 -0.166831910610198975 -0.205109730362892151
0.0940861552953720093 -0.17634892463684082 -0.0451149865984916687
0.13001658022403717 -0.0732112452387809753 -0.220085397362709045
-0.000972181733231991529 -0.188689112663269043 -0.128733843564987183
0.13791230320930481 0.045010935515165329 -0.114071406424045563
0.0717898458242416382 0.0487407594919204712 -0.175262689590454102
0.0507483705878257751 0.0415608435869216919 -0.0932607650756835938
0.125689044594764709 -0.0323951058089733124 0.0100877387449145317
0.194892629981040955 -0.176458418369293213 -0.231583058834075928
-0.00902105960994958878 0.00924211740493774414 -0.117464765906333923
0.0420257039368152618 -0.00929476507008075714 -0.015675179660320282
-0.15644429624080658 -0.316184967756271362 -0.12514437735080719
0.135758921504020691 0.038308367133140564 -0.117406316101551056
-0.0318851657211780548 -0.132154777646064758 -0.164793163537979126
0.184737801551818848 -0.0438716895878314972 -0.00100073590874671936
0.0709268301725387573 0.014377521350979805 -0.0627611204981803894
0.108113750815391541 -0.0957098305225372314 0.046924978494644165
0.194668829441070557 -0.210144773125648499 -0.193847879767417908
0.0306588802486658096 0.105081886053085327 -0.0695689618587493896
0.0513298362493515015 -0.24914039671421051 -0.203330084681510925
-0.0411765463650226593 -0.0350970961153507233 -0.0958593189716339111
0.17585444450378418 -0.0779379308223724365 -0.234260097146034241
-0.0348450802266597748 -0.127152994275093079 -0.144819080829620361
0.101017095148563385 -0.244785308837890625 -0.22279694676399231
0.0281566791236400604 -0.175056591629981995 -0.123883113265037537
0.246409326791763306 -0.0889165624976158142 -0.115591622889041901
0.328695446252822876 0.0398046374320983887 -0.234408214688301086
0.14790421724319458 -0.0167658515274524689 -0.0520093254745006561
-0.0215612668544054031 -0.146889239549636841 -0.211820214986801147
0.0231981445103883743 -0.203438252210617065 -0.133972063660621643
0.0864574536681175232 0.0937852486968040466 -0.190682381391525269
-0.0721086487174034119 -0.247610554099082947 -0.109584107995033264
0.213266551494598389 -0.0460054054856300354 -0.120646342635154724
0.0975863337516784668 -0.0899467095732688904 0.0350729972124099731
0.153825417160987854 0.0452776886522769928 -0.00844558142125606537
0.243721514940261841 -0.18930584192276001 -0.221842706203460693
-0.0155265973880887032 -0.0407544933259487152 -0.178554922342300415
0.12129656970500946 -0.237622857093811035 -0.212031111121177673
0.0682920068502426147 0.0405369140207767487 -0.220581501722335815
0.239763185381889343 -0.0616228990256786346 -0.111065298318862915
0.0277790036052465439 -0.126473799347877502 -0.0428704768419265747
0.179052963852882385 -0.0251017194241285324 -0.0809054076671600342
0.00925769098103046417 -0.0422941483557224274 -0.0538356862962245941
0.059880230575799942 -0.184283450245857239 -0.159306704998016357
-0.040435444563627243 -0.0958525314927101135 -0.200374945998191833
0.0815225839614868164 0.00600192416459321976 -0.0410025976598262787
0.216289505362510681 -0.0904273241758346558 -0.210842832922935486
0.236214220523834229 -0.0212694015353918076 -0.163563117384910583
0.133737847208976746 0.0326065197587013245 -0.185770407319068909
0.156768307089805603 0.040303405374288559 -0.152899950742721558
0.200238421559333801 -0.0402504615485668182 -0.233686193823814392
0.191630691289901733 -0.114860929548740387 -0.0450257398188114166
0.0650353133678436279 -0.247963815927505493 -0.12880629301071167
0.0722453147172927856 -0.116079740226268768 0.0408854484558105469
0.0815003141760826111 0.0288460813462734222 -0.0648127719759941101
0.0801396146416664124 0.0536833368241786957 -0.2026042640209198
0.150347158312797546 0.0468707866966724396 -0.22376587986946106
0.0893400311470031738 -0.00711014214903116226 -0.0392516106367111206
0.0245024636387825012 -0.255444169044494629 -0.171997040510177612
0.246753141283988953 -0.155990466475486755 -0.200755119323730469
0.193629190325737 -0.0377922840416431427 -0.122204020619392395
0.0512383989989757538 -0.0754681006073951721 0.0531535521149635315
0.0812821388244628906 -0.277301967144012451 -0.221519991755485535
0.0329942852258682251 -0.262077122926712036 -0.169370159506797791
0.10591590404510498 -0.0237039551138877869 -0.0265346243977546692
-0.0496306493878364563 -0.132368817925453186 -0.123556360602378845
0.120797663927078247 -0.0731837302446365356 -0.213030532002449036
0.131818503141403198 -0.175153493881225586 -0.196193993091583252
0.248716861009597778 -0.151414006948471069 -0.206585675477981567
0.131591111421585083 -0.088193453848361969 -0.20430871844291687
0.190044879913330078 -0.0741659477353096008 -0.0698020234704017639
0.0881426706910133362 -0.250448882579803467 -0.202729135751724243
0.0101036000996828079 0.0393966957926750183 -0.171333268284797668
-0.0498684793710708618 -0.273545712232589722 -0.2213725745677948
0.0809935852885246277 -0.0119500383734703064 -0.00141030782833695412
-0.135359525680541992 -0.274813145399093628 -0.137890711426734924
0.0845592692494392395 -0.0243843700736761093 0.0837743133306503296
0.171485796570777893 -0.0389347337186336517 -0.132370069622993469
0.079340808093547821 0.0272452849894762039 -0.236605733633041382
0.0893684104084968567 0.0239546149969100952 -0.116584070026874542
0.182276174426078796 -0.012753819115459919 -0.0226492732763290405
0.17642270028591156 -0.0433721467852592468 -0.0709761679172515869
0.097204156219959259 0.0634460523724555969 -0.177260681986808777
0.0784802064299583435 -0.201086431741714478 -0.167984813451766968
0.00884453952312469482 -0.0278535317629575729 -0.233940333127975464
0.108357720077037811 -0.214755266904830933 -0.157428711652755737
0.172298848628997803 -0.0702950283885002136 -0.237041875720024109
0.0838040933012962341 0.0153486989438533783 -0.0810965970158576965
0.158922076225280762 -0.0913349911570549011 -0.0521472729742527008
0.184641540050506592 -0.0948959141969680786 -0.241204708814620972
-0.0144872656092047691 -0.0057427380234003067 -0.112155154347419739
-0.0767750144004821777 -0.34840509295463562 -0.147927820682525635
0.0151374060660600662 -0.288653582334518433 -0.175622254610061646
-0.0144752617925405502 -0.00476363068446516991 -0.191676139831542969
0.0970647633075714111 -0.262414157390594482 -0.1934652179479599
0.132136642932891846 -0.145559459924697876 -0.0528958700597286224
-0.118786253035068512 -0.288444459438323975 -0.136130303144454956
-0.104034349322319031 -0.357668638229370117 -0.131992250680923462
0.130347728729248047 -0.169469088315963745 -0.0963039770722389221
0.11515539139509201 0.0342073552310466766 -0.194487214088439941
0.0196705088019371033 -0.164141595363616943 -0.228873804211616516
-0.0205270685255527496 -0.245889440178871155 -0.18835604190826416
0.138678878545761108 -0.12031073123216629 -0.217960506677627563
0.101205594837665558 -0.202155604958534241 -0.157052859663963318
0.349537312984466553 0.0474120602011680603 -0.242666691541671753
0.201250389218330383 -0.142016604542732239 0.00817173905670642853
0.143411517143249512 0.013151959516108036 -0.235596701502799988
0.148471072316169739 -0.0631050541996955872 -0.182602807879447937
0.021899741142988205 0.00305181439034640789 -0.24955374002456665
0.122364714741706848 0.00659609166905283928 -0.010822598822414875
0.0118994591757655144 -0.179857760667800903 -0.0838833823800086975
0.184721976518630981 0.00282181520015001297 -0.186586901545524597
0.193894326686859131 0.0174826215952634811 -0.102910622954368591
0.130716070532798767 -0.0996574386954307556 -0.245053082704544067
0.255863428115844727 -0.0664717927575111389 -0.0655417144298553467
0.0065267481841146946 -0.293139338493347168 -0.173747867345809937
0.158119261264801025 0.0220473781228065491 -0.177528053522109985
0.0914093106985092163 -0.161871418356895447 0.0340455509722232819
0.126667290925979614 0.0698512643575668335 -0.173397064208984375
0.0580467656254768372 0.0203821044415235519 -0.0441632382571697235
0.170846521854400635 0.0333796516060829163 -0.144499018788337708
0.0254070684313774109 0.0368785113096237183 -0.137248486280441284
0.0964323282241821289 -0.113283529877662659 0.0579774156212806702
0.0547448284924030304 -0.217638269066810608 -0.219040960073471069
0.202496826648712158 -0.0946108922362327576 -0.236446842551231384
-0.0937284901738166809 -0.33416062593460083 -0.144411206245422363
0.22634027898311615 -0.0523858852684497833 -0.127584025263786316
0.202670931816101074 -0.104760691523551941 -0.224051818251609802
0.198936179280281067 -0.0365460142493247986 -0.133713662624359131
0.143334001302719116 -0.0545961968600749969 -0.159058436751365662
0.169697746634483337 -0.021871345117688179 -0.000332571013132110238
-0.0169371236115694046 -0.0545327775180339813 -0.233198642730712891
0.0909310281276702881 0.105931892991065979 -0.125162333250045776
0.200394958257675171 0.00308919977396726608 -0.257538437843322754
0.133243337273597717 -0.0597504079341888428 0.00633531855419278145
0.216628894209861755 -0.0660813674330711365 -0.237719014286994934
0.157929793000221252 -0.024471556767821312 -0.0528044514358043671
0.104601964354515076 -0.156083151698112488 -0.0293746758252382278
0.231221511960029602 -0.122354455292224884 -0.078520551323890686
0.0322883911430835724 -0.0962821021676063538 0.0357944555580615997
0.0839605554938316345 -0.264860093593597412 -0.160712510347366333
0.120821915566921234 -0.0112225897610187531 -0.144492730498313904
0.0339709296822547913 0.0363760665059089661 -0.0892788171768188477
0.116505518555641174 0.0277266222983598709 -0.0833776667714118958
0.169904112815856934 0.0222083292901515961 -0.21562601625919342
0.117645256221294403 -0.117568396031856537 -0.0130109013989567757
0.147934809327125549 -0.0341133736073970795 -0.234457433223724365
0.249328464269638062 -0.166451677680015564 -0.145874544978141785
0.0982478335499763489 0.04871411994099617 -0.216865673661231995
0.215918600559234619 -0.0908569842576980591 -0.0973806828260421753
0.0956115350127220154 -0.0338004119694232941 -0.0160577446222305298
0.0264449678361415863 0.00857469998300075531 -0.0942473486065864563
0.136666387319564819 -0.134261712431907654 -0.223240897059440613
0.0443036854267120361 -0.182855516672134399 -0.133585631847381592
0.108490705490112305 0.11200781911611557 -0.150033771991729736
0.194748923182487488 0.0203837063163518906 -0.065928630530834198
-0.0240999199450016022 -0.144870355725288391 -0.179054290056228638
0.135303720831871033 -0.052525445818901062 -0.0272342469543218613
0.143196076154708862 0.061442255973815918 -0.101769588887691498
0.216894432902336121 -0.0727910175919532776 -0.101194582879543304
0.176006123423576355 -0.0590372346341609955 -0.218634247779846191
0.0403121672570705414 -0.0773066356778144836 0.0756898075342178345
0.0401219278573989868 0.0341589860618114471 -0.135303318500518799
