ply
format ascii 1.0
element vertex 717
property float x
property float y
property float z
end_header
0.248103469610214233 0.747670829296112061 -0.882887184619903564
-0.23640364408493042 0.525522112846374512 -0.146644651889801025
-0.17033703625202179 0.707162380218505859 0.157439380884170532
0.0185031089931726456 0.933012247085571289 -0.315738797187805176
0.132165625691413879 1.25850057601928711 -0.122324727475643158
-0.427700519561767578 0.554101169109344482 -0.00159349478781223297
-0.0247350316494703293 0.951155245304107666 -0.822596490383148193
-0.190349489450454712 0.626633763313293457 -0.154281392693519592
0.157259121537208557 1.28628969192504883 -0.306424766778945923
0.0394179932773113251 0.967976629734039307 -0.243689939379692078
-0.208128243684768677 0.648810148239135742 0.274229317903518677
0.0543412864208221436 1.33188772201538086 -0.252432852983474731
0.00319038401357829571 0.998898506164550781 -0.756953656673431396
0.0691019743680953979 0.753565371036529541 -0.215398088097572327
0.0306307040154933929 0.811046063899993896 -0.303965926170349121
0.0326183103024959564 0.849756240844726562 -0.312442094087600708
0.320870310068130493 1.1844940185546875 -0.47097507119178772
-0.506523311138153076 0.533691048622131348 0.202373161911964417
0.286167323589324951 0.885602295398712158 -0.83077317476272583
0.498998910188674927 0.82747727632522583 -0.746896326541900635
-0.0795580893754959106 0.505586624145507812 0.275503456592559814
0.644691884517669678 0.687569618225097656 -0.590582668781280518
0.044028647243976593 0.833790719509124756 -0.320899784564971924
-0.367327004671096802 0.637213349342346191 0.0577273815870285034
0.231295198202133179 0.923144519329071045 -0.772925078868865967
0.00421481253579258919 0.464398860931396484 -0.000311511161271482706
-0.13937145471572876 0.763291001319885254 -0.124314211308956146
0.252716660499572754 1.26190376281738281 -0.376614868640899658
-0.048214934766292572 0.555893540382385254 -0.138632580637931824
0.20679105818271637 1.3254396915435791 -0.434190422296524048
-0.257136732339859009 0.433811426162719727 -0.0686013698577880859
0.0572949573397636414 0.918134450912475586 -0.825460612773895264
0.407030850648880005 1.22902011871337891 -0.409264475107192993
0.228095963597297668 1.26873326301574707 -0.180335596203804016
0.390515029430389404 0.717132389545440674 -0.849325954914093018
0.188690364360809326 0.878478586673736572 -0.20856437087059021
-0.213568836450576782 0.673649072647094727 0.226988166570663452
0.0565227791666984558 0.795930624008178711 -0.0940002799034118652
-0.119914278388023376 0.786614894866943359 -0.041317421942949295
0.0274114664644002914 0.60383683443069458 -0.0964149981737136841
0.0524214990437030792 0.573773562908172607 -0.0133601799607276917
0.0778375864028930664 0.930809855461120605 -0.196117594838142395
0.045439302921295166 0.702096819877624512 -0.037596285343170166
0.139817237854003906 0.939065515995025635 -0.635554611682891846
0.11990019679069519 1.05406010150909424 -0.747647583484649658
-0.183011725544929504 0.411889404058456421 -0.0802886784076690674
-0.30508086085319519 0.697281897068023682 0.0958426147699356079
0.0759309157729148865 0.970229566097259521 -0.250136703252792358
0.519948899745941162 0.886409342288970947 -0.778573870658874512
0.137777790427207947 1.34651827812194824 -0.135854482650756836
0.722592771053314209 0.971078157424926758 -0.617414414882659912
0.246968299150466919 1.20500743389129639 -0.309220880270004272
-0.13412204384803772 0.711728811264038086 0.180929392576217651
0.122816130518913269 1.27050769329071045 -0.292943567037582397
0.511728882789611816 0.656444013118743896 -0.726889312267303467
0.130505740642547607 1.02568769454956055 -0.767827093601226807
-0.163458481431007385 0.778723061084747314 0.0445267930626869202
-0.471655815839767456 0.551780760288238525 0.11881130188703537
0.0850597023963928223 0.997773587703704834 -0.809462308883666992
0.155284538865089417 1.28791689872741699 -0.102024093270301819
0.496851027011871338 0.933576285839080811 -0.884729564189910889
0.146349593997001648 0.835058450698852539 -0.753625929355621338
-0.0125173609703779221 0.797965645790100098 -0.0617605634033679962
-0.00422574393451213837 0.74352794885635376 -0.159078970551490784
-0.184733644127845764 0.490683227777481079 0.409466564655303955
-0.0198455005884170532 0.425262600183486938 0.215419963002204895
0.73224949836730957 0.945201575756072998 -0.498015671968460083
0.156037941575050354 1.06191599369049072 -0.247044548392295837
0.110039770603179932 0.767921090126037598 -0.885718166828155518
0.54413837194442749 0.844643175601959229 -0.617377817630767822
-0.347949951887130737 0.574409008026123047 0.354832768440246582
0.478060811758041382 0.758454382419586182 -0.771025359630584717
0.0260511394590139389 0.947934627532958984 -0.324060022830963135
-0.266624569892883301 0.733678221702575684 0.0760461464524269104
0.0220749080181121826 0.931914091110229492 -0.285788655281066895
0.650134861469268799 0.939729452133178711 -0.611606061458587646
-0.0847064778208732605 0.431853413581848145 -0.046632762998342514
-0.218389958143234253 0.578850269317626953 -0.127043262124061584
0.00060057325754314661 0.483341336250305176 0.142478764057159424
0.142213046550750732 1.3244774341583252 -0.305443108081817627
0.407145410776138306 0.732860326766967773 -0.846026897430419922
0.193814128637313843 0.831528663635253906 -0.835003793239593506
0.163622215390205383 1.23541009426116943 -0.271902352571487427
-0.440690308809280396 0.523368299007415771 0.0186184514313936234
0.0129275126382708549 0.904361486434936523 -0.293114781379699707
0.295582175254821777 1.26059186458587646 -0.351386159658432007
0.455835014581680298 0.88051372766494751 -0.7784385085105896
0.36195412278175354 1.26446533203125 -0.386988461017608643
-0.0707926452159881592 1.07841622829437256 -0.764162123203277588
0.202715441584587097 0.803244829177856445 -0.283099234104156494
-0.201079040765762329 0.722573518753051758 0.166922852396965027
-0.0317564532160758972 0.750273644924163818 -0.131575256586074829
0.6469879150390625 0.702863335609436035 -0.648432672023773193
-0.0988955572247505188 0.582592904567718506 -0.157714769244194031
-0.0584800019860267639 0.794358372688293457 -0.021500270813703537
-0.361208975315093994 0.660962104797363281 0.0655172914266586304
0.173523843288421631 0.944003522396087646 -0.185914188623428345
0.07083110511302948 0.956184506416320801 -0.79857105016708374
-0.176728710532188416 0.666675150394439697 0.277974635362625122
0.56345897912979126 0.630145907402038574 -0.764487326145172119
-0.207600459456443787 0.614377260208129883 -0.125354573130607605
0.0316381491720676422 0.539929211139678955 0.0666505992412567139
-0.305945694446563721 0.665387570858001709 -0.0321562662720680237
0.130622819066047668 1.28791558742523193 -0.197584390640258789
0.485783994197845459 0.907680630683898926 -0.733679831027984619
0.179940730333328247 0.752173900604248047 -0.770296335220336914
0.414526373147964478 0.710838139057159424 -0.841462790966033936
0.0385239385068416595 0.659720718860626221 -0.0359799303114414215
0.200361043214797974 1.25761258602142334 -0.377911120653152466
0.317164450883865356 0.883557260036468506 -0.752998709678649902
0.647719204425811768 1.01674795150756836 -0.70519644021987915
0.553798854351043701 0.79475325345993042 -0.620121181011199951
-0.139724045991897583 0.723167002201080322 -0.144542306661605835
-0.355640918016433716 0.653171360492706299 0.163181409239768982
-0.133946880698204041 0.411530584096908569 -0.06854218989610672
-0.0375272221863269806 0.645632684230804443 0.143928781151771545
0.328578412532806396 1.19284975528717041 -0.315578460693359375
0.318376153707504272 0.869507849216461182 -0.738896071910858154
0.520570278167724609 0.866059780120849609 -0.731138706207275391
0.533452928066253662 0.733549892902374268 -0.682562410831451416
0.145470559597015381 0.774491786956787109 -0.205047160387039185
-0.337128251791000366 0.687715351581573486 0.131328657269477844
-0.339765816926956177 0.602337777614593506 -0.0271597746759653091
0.187508866190910339 1.29632925987243652 -0.341718107461929321
0.261726677417755127 0.802914083003997803 -0.7491341233253479
0.0746145769953727722 0.828264415264129639 -0.377352923154830933
0.552078962326049805 1.01792120933532715 -0.745274066925048828
-0.354230731725692749 0.657593250274658203 0.258556723594665527
0.067971356213092804 1.07303357124328613 -0.725475668907165527
0.618966460227966309 0.90636521577835083 -0.574574470520019531
0.119850985705852509 1.28685712814331055 -0.28168952465057373
0.654274404048919678 0.628158748149871826 -0.641424059867858887
-0.0156041830778121948 1.10127115249633789 -0.8423195481300354
0.0832036659121513367 0.909595727920532227 -0.22924022376537323
0.3839569091796875 1.19996356964111328 -0.089037574827671051
-0.145492389798164368 0.661724627017974854 0.231383547186851501
0.202938944101333618 1.1036299467086792 -0.815334975719451904
-0.101048104465007782 1.03348886966705322 -0.785268843173980713
-0.189383745193481445 0.755964994430541992 0.113125719130039215
-0.265409708023071289 0.607802271842956543 0.360420584678649902
-0.293656229972839355 0.724627554416656494 0.126580670475959778
0.280087918043136597 0.898238539695739746 -0.746840536594390869
0.0127662764862179756 0.771791338920593262 -0.041856028139591217
0.1880970299243927 0.793842017650604248 -0.836451053619384766
-0.0217444337904453278 0.48372986912727356 0.212575048208236694
0.0575500614941120148 0.698515057563781738 -0.106286749243736267
0.492630630731582642 0.909527838230133057 -0.770446836948394775
-0.346498817205429077 0.596732854843139648 0.339748203754425049
0.034011155366897583 0.942080795764923096 -0.237907931208610535
-0.183565258979797363 0.468733906745910645 -0.133872687816619873
0.121673107147216797 1.25843775272369385 -0.312974125146865845
-0.189134806394577026 0.687079668045043945 0.23276771605014801
0.0675794482231140137 1.3173832893371582 -0.273194789886474609
-0.141040071845054626 0.612324059009552002 0.152477607131004333
0.375986099243164062 0.902050495147705078 -0.817326247692108154
0.0974416136741638184 0.80160444974899292 -0.37944483757019043
0.494723200798034668 0.818826079368591309 -0.679903864860534668
-0.215764656662940979 0.642589569091796875 0.286719411611557007
0.333125263452529907 0.985330879688262939 -0.703018128871917725
0.192854359745979309 0.97207796573638916 -0.730533957481384277
0.254187315702438354 0.820243179798126221 -0.737874805927276611
0.106343299150466919 0.775746047496795654 -0.202449515461921692
-0.415911644697189331 0.582025289535522461 0.343014061450958252
0.544015765190124512 0.937906920909881592 -0.792291998863220215
0.0462061278522014618 0.608153700828552246 0.0349819101393222809
-0.378094404935836792 0.485900908708572388 -0.0164920184761285782
-0.0644074901938438416 0.443206340074539185 0.292207241058349609
0.43270525336265564 0.864937186241149902 -0.834644019603729248
0.0926825329661369324 0.84188687801361084 -0.372289031744003296
-0.0705547034740447998 1.02737343311309814 -0.793770790100097656
-0.231928169727325439 0.741261899471282959 0.0793547406792640686
-0.157354593276977539 0.779198825359344482 -0.0475744716823101044
0.225666224956512451 1.22205579280853271 -0.217648759484291077
-0.466584652662277222 0.566446185111999512 0.29045635461807251
0.0684333965182304382 1.34961831569671631 -0.183477506041526794
0.351354449987411499 1.20868813991546631 -0.254354953765869141
-0.184019967913627625 0.592425644397735596 -0.166564896702766418
0.380568265914916992 1.24229669570922852 -0.224953725934028625
-0.179539486765861511 0.530588686466217041 -0.147316232323646545
0.122857175767421722 0.933843910694122314 -0.705033183097839355
0.299492806196212769 1.21221280097961426 -0.158816143870353699
0.249238491058349609 1.29308760166168213 -0.455241978168487549
0.0932205468416213989 0.859900474548339844 -0.431705474853515625
0.547068476676940918 0.764212489128112793 -0.689775168895721436
0.255245000123977661 1.19431471824645996 -0.2870749831199646
-0.0107566332444548607 0.471476316452026367 -0.0468097515404224396
0.113223887979984283 1.05575358867645264 -0.78368079662322998
0.0149791901931166649 0.963405251502990723 -0.768626928329467773
0.156059741973876953 0.808884799480438232 -0.855814516544342041
0.0646704062819480896 0.693474054336547852 -0.136670812964439392
0.156936496496200562 1.32825648784637451 -0.145745590329170227
0.313985109329223633 1.21592152118682861 -0.308463484048843384
-0.276354819536209106 0.48118475079536438 -0.117101967334747314
0.153275534510612488 1.23057663440704346 -0.220156744122505188
0.0167239122092723846 0.835172653198242188 -0.319890588521957397
0.195748910307884216 1.22762608528137207 -0.220762699842453003
0.581517398357391357 0.721380949020385742 -0.700118541717529297
-0.214556828141212463 0.607439100742340088 0.343191385269165039
0.467922389507293701 0.834115207195281982 -0.629249989986419678
0.650845527648925781 1.07623112201690674 -0.644450068473815918
0.541625440120697021 0.655586421489715576 -0.769965529441833496
-0.304177314043045044 0.660422325134277344 0.234679073095321655
0.568562448024749756 0.711046040058135986 -0.696608185768127441
-0.059763789176940918 0.589171051979064941 0.214900046586990356
-0.437642008066177368 0.59281611442565918 0.081221260130405426
-0.344961225986480713 0.512881159782409668 -0.0641446635127067566
0.189277753233909607 1.24249362945556641 -0.421584993600845337
-0.0756803974509239197 0.629943907260894775 0.250510990619659424
0.708919823169708252 1.01394271850585938 -0.647332549095153809
0.0606343448162078857 0.880676388740539551 -0.769479751586914062
0.151122018694877625 1.0490800142288208 -0.774749338626861572
-0.144388779997825623 0.480427473783493042 0.390014439821243286
0.128974437713623047 0.873048007488250732 -0.793929636478424072
-0.088475152850151062 0.793467581272125244 -0.121043436229228973
-0.0303547419607639313 0.856460988521575928 -0.886886656284332275
-0.0136432861909270287 1.03798055648803711 -0.806921482086181641
0.151205554604530334 0.825119912624359131 -0.215239375829696655
0.0780223757028579712 0.784893929958343506 -0.115783520042896271
-0.366164654493331909 0.687910795211791992 0.117216877639293671
0.463904589414596558 0.937325060367584229 -0.736406803131103516
0.0959276109933853149 0.892436385154724121 -0.753922820091247559
-0.39234122633934021 0.662647426128387451 0.157254502177238464
-0.0302304830402135849 0.785657525062561035 -0.23742830753326416
0.115635991096496582 1.34830296039581299 -0.252995073795318604
0.55301356315612793 0.893000125885009766 -0.675275325775146484
-0.0861702784895896912 0.738458991050720215 -0.075212918221950531
0.0353042446076869965 0.787207603454589844 -0.15359632670879364
0.228760123252868652 1.18579185009002686 -0.273180335760116577
0.283920645713806152 1.28550875186920166 -0.151977181434631348
-0.0306858383119106293 0.660155594348907471 -0.178897872567176819
-0.24429573118686676 0.676954030990600586 -0.10931473970413208
0.638581991195678711 0.871491611003875732 -0.646723628044128418
0.120947599411010742 0.918942928314208984 -0.746481418609619141
-0.0775412246584892273 0.477549165487289429 0.327429264783859253
0.0412418954074382782 1.19659364223480225 -0.736476421356201172
0.167581886053085327 1.14354825019836426 -0.797505617141723633
-0.0215311497449874878 0.862313568592071533 -0.203390300273895264
-0.0596709474921226501 0.504391252994537354 -0.126279085874557495
0.17281050980091095 1.28620195388793945 -0.212344169616699219
0.0714923441410064697 1.15031003952026367 -0.779777109622955322
-0.271674931049346924 0.726116597652435303 0.112566091120243073
0.349050909280776978 1.2121894359588623 -0.110956087708473206
-0.126585990190505981 0.725961863994598389 -0.0264692064374685287
-0.229650244116783142 0.751310825347900391 -0.0177100151777267456
0.133240386843681335 0.970787107944488525 -0.190099373459815979
-0.0306299179792404175 0.739422857761383057 -0.0922169461846351624
-0.119469501078128815 0.432016164064407349 -0.0682877078652381897
-0.467549830675125122 0.503425836563110352 0.0686337947845458984
0.218703389167785645 1.15404820442199707 -0.277172058820724487
0.515454530715942383 0.83682018518447876 -0.670920193195343018
-0.352215826511383057 0.59422910213470459 -0.0498733296990394592
0.244929715991020203 1.02349066734313965 -0.783948719501495361
0.331754475831985474 1.24392211437225342 -0.210691183805465698
0.154193386435508728 1.23349940776824951 -0.220349714159965515
0.277242809534072876 1.27376711368560791 -0.17125934362411499
0.111501649022102356 0.73573601245880127 -0.24602198600769043
0.0559249185025691986 0.783734679222106934 -0.823356866836547852
0.0345279611647129059 0.942572891712188721 -0.295558720827102661
0.730459868907928467 0.800592780113220215 -0.454711407423019409
-0.00839713122695684433 0.648604750633239746 -0.202661573886871338
-0.162321358919143677 0.662505090236663818 -0.167029306292533875
0.689582884311676025 0.912197470664978027 -0.570665538311004639
0.332873672246932983 1.21755218505859375 -0.311495810747146606
-0.354448914527893066 0.656684517860412598 0.225367769598960876
-0.295089691877365112 0.426330983638763428 -0.0912969335913658142
0.333854436874389648 1.02731704711914062 -0.817829489707946777
0.534702420234680176 0.898781001567840576 -0.653740525245666504
0.265383243560791016 1.24661791324615479 -0.0648830011487007141
-0.236963257193565369 0.676757454872131348 0.241011127829551697
0.405745416879653931 0.815086901187896729 -0.766457736492156982
0.545962512493133545 1.0755542516708374 -0.743862271308898926
0.306530982255935669 1.21826338768005371 -0.433149784803390503
0.0511014871299266815 0.611186206340789795 -0.0182997565716505051
-0.00058517564320936799 0.848276376724243164 -0.264139294624328613
0.0187687762081623077 0.825719177722930908 -0.229713037610054016
0.647761940956115723 0.974153578281402588 -0.576193928718566895
0.637632369995117188 0.924143075942993164 -0.566531240940093994
-0.0388950742781162262 0.433151930570602417 0.00129346665926277637
-0.339864194393157959 0.560975372791290283 0.398556381464004517
0.456548154354095459 0.639808833599090576 -0.772895634174346924
-0.285559862852096558 0.642396748065948486 -0.0867447033524513245
-0.215112060308456421 0.719266235828399658 -0.095820695161819458
0.630955398082733154 0.817126035690307617 -0.619384407997131348
0.111052855849266052 0.783557116985321045 -0.246318519115447998
-0.257922559976577759 0.729121148586273193 0.164341568946838379
0.11879488080739975 0.97523200511932373 -0.740071535110473633
0.41393357515335083 0.855021417140960693 -0.863226652145385742
0.605045855045318604 0.919029116630554199 -0.623376190662384033
0.0165804736316204071 1.04751694202423096 -0.840696513652801514
-0.477938085794448853 0.556386828422546387 0.123314276337623596
0.705447018146514893 0.827777206897735596 -0.518551290035247803
-0.377400964498519897 0.627053141593933105 0.288731634616851807
0.515712738037109375 0.937053024768829346 -0.712544620037078857
0.55558854341506958 0.953936219215393066 -0.733943641185760498
-0.0327709652483463287 0.796620190143585205 -0.250679910182952881
0.162592679262161255 1.03656363487243652 -0.760516047477722168
-0.495352298021316528 0.562806367874145508 0.194107726216316223
0.55160975456237793 0.67229914665222168 -0.66248089075088501
0.475048542022705078 0.775548398494720459 -0.887251079082489014
-0.0941804274916648865 0.50883638858795166 0.325314849615097046
0.0181427430361509323 0.490420013666152954 0.126202672719955444
-0.14194902777671814 0.529286444187164307 -0.142316833138465881
0.326867610216140747 1.29473793506622314 -0.129339993000030518
0.137810617685317993 0.909228324890136719 -0.573888778686523438
0.52950209379196167 0.982329249382019043 -0.720109879970550537
-0.146293118596076965 0.694433987140655518 0.214662164449691772
0.161868751049041748 1.24077296257019043 -0.319999903440475464
0.0132445609197020531 0.886827826499938965 -0.248807534575462341
0.0657827332615852356 0.722720086574554443 -0.0747102871537208557
0.184344649314880371 0.999837338924407959 -0.75962364673614502
0.604952633380889893 1.00999224185943604 -0.679659724235534668
0.716948568820953369 0.805974066257476807 -0.504985392093658447
0.262286096811294556 1.2515106201171875 -0.354351431131362915
-0.225041821599006653 0.616591274738311768 -0.112539447844028473
0.0568474270403385162 1.31886613368988037 -0.315049886703491211
0.17819562554359436 0.749002039432525635 -0.866388082504272461
-0.123238988220691681 0.634655296802520752 0.149406746029853821
0.507026255130767822 0.90069502592086792 -0.861437559127807617
0.566631019115447998 0.877192974090576172 -0.641164958477020264
0.592367827892303467 0.787099480628967285 -0.660464048385620117
0.205425217747688293 0.833198666572570801 -0.245259404182434082
0.049369271844625473 1.14592647552490234 -0.752794206142425537
0.263421028852462769 0.76812434196472168 -0.88842540979385376
-0.090832635760307312 0.45074927806854248 -0.0668441429734230042
-0.163698375225067139 0.682998418807983398 0.217369332909584045
0.566448509693145752 0.764002084732055664 -0.684011638164520264
0.251043915748596191 0.904984533786773682 -0.746559202671051025
0.036680467426776886 0.505509495735168457 0.126123979687690735
0.316173642873764038 1.21179187297821045 -0.414747923612594604
0.175659030675888062 0.811345100402832031 -0.243743464350700378
0.389621227979660034 0.695990204811096191 -0.841003596782684326
0.063305385410785675 0.827285647392272949 -0.192372798919677734
0.197543025016784668 1.3038705587387085 -0.350392162799835205
0.326781004667282104 1.1367487907409668 -0.715972602367401123
0.477769553661346436 0.849288523197174072 -0.667182266712188721
-0.238842874765396118 0.741086304187774658 0.0934867709875106812
0.090163111686706543 0.81612926721572876 -0.880032896995544434
-0.0205182675272226334 0.896314024925231934 -0.81782609224319458
-0.197347760200500488 0.618499159812927246 0.307739585638046265
0.578537464141845703 0.669565916061401367 -0.714486062526702881
-0.0110701480880379677 0.743681907653808594 0.023660292848944664
-0.11841602623462677 0.576141119003295898 0.317090392112731934
-0.0301469117403030396 0.41895681619644165 0.164401203393936157
-0.0165114812552928925 0.516171514987945557 0.191135615110397339
0.0955340713262557983 1.08789384365081787 -0.805650532245635986
0.313416272401809692 1.2166602611541748 -0.217927828431129456
-0.207391589879989624 0.757448494434356689 0.0141952922567725182
0.28847232460975647 1.09552896022796631 -0.745469927787780762
0.517552495002746582 0.648654282093048096 -0.820689797401428223
0.0172277558594942093 0.845677018165588379 -0.174598559737205505
0.170592352747917175 1.07400155067443848 -0.740599453449249268
-0.0629137083888053894 0.378860026597976685 -0.00823964271694421768
0.629949331283569336 0.979783892631530762 -0.721175968647003174
0.0674491003155708313 0.868086576461791992 -0.1284312903881073
0.494386970996856689 0.871039092540740967 -0.746622323989868164
-0.04837779700756073 0.68375694751739502 0.0413819514214992523
-0.445928633213043213 0.55774235725402832 0.351270139217376709
0.444376289844512939 1.16246521472930908 -0.346429258584976196
0.0237495545297861099 0.837283313274383545 -0.279120117425918579
-0.00496869673952460289 0.489617675542831421 0.169213026762008667
0.454705327749252319 0.847207367420196533 -0.792463779449462891
-0.0143677042797207832 0.76792454719543457 -0.0928447321057319641
-0.409711599349975586 0.612549722194671631 0.269671797752380371
0.336604833602905273 0.889293134212493896 -0.771782755851745605
0.230892971158027649 1.25746440887451172 -0.193471059203147888
0.266916602849960327 1.27530956268310547 -0.414369255304336548
0.164256229996681213 1.2314072847366333 -0.519233584403991699
0.0654932260513305664 0.864249706268310547 -0.853103458881378174
-0.222507640719413757 0.666456043720245361 0.0765822082757949829
0.599196076393127441 0.74783402681350708 -0.603712320327758789
-0.272604405879974365 0.735080957412719727 0.0508710257709026337
0.168283075094223022 0.802506923675537109 -0.246859699487686157
-0.286142349243164062 0.633468925952911377 0.325705975294113159
0.144615307450294495 1.32516348361968994 -0.144965216517448425
0.500581741333007812 0.835473835468292236 -0.610621213912963867
0.275598049163818359 1.21234750747680664 -0.20812264084815979
0.540921032428741455 1.02877986431121826 -0.852514147758483887
0.246017888188362122 1.21839761734008789 -0.197531595826148987
-0.290020972490310669 0.619976639747619629 0.164039880037307739
0.225228235125541687 1.0617755651473999 -0.707342207431793213
-0.107864849269390106 0.652611076831817627 0.241448625922203064
0.10531972348690033 1.30349075794219971 -0.386918872594833374
0.0236793141812086105 0.665082931518554688 -0.161509484052658081
0.175473079085350037 1.16270005702972412 -0.760613799095153809
-0.103894814848899841 0.770938336849212646 0.0828178897500038147
-0.0658879205584526062 0.812650084495544434 -0.0820689275860786438
0.086483299732208252 0.865474283695220947 -0.45735013484954834
-0.192233026027679443 0.694024026393890381 0.0450985617935657501
0.494966834783554077 0.697092831134796143 -0.742801785469055176
0.042810540646314621 0.65802466869354248 0.05859336256980896
0.193067774176597595 1.31182217597961426 -0.397216290235519409
0.13535800576210022 1.06268978118896484 -0.805502593517303467
0.049579717218875885 0.822574794292449951 -0.835323333740234375
0.20968472957611084 1.32550704479217529 -0.122025236487388611
0.181278258562088013 1.32284271717071533 -0.445161342620849609
0.117330655455589294 0.853698372840881348 -0.158697754144668579
0.533256232738494873 0.8269539475440979 -0.608243942260742188
-0.099102504551410675 0.644824683666229248 0.0753982216119766235
0.40905451774597168 1.26708078384399414 -0.232406303286552429
-0.394405066967010498 0.580217361450195312 -0.00204428099095821381
-0.236697882413864136 0.663715600967407227 0.0809258744120597839
0.47966429591178894 0.982399642467498779 -0.79507678747177124
0.680360138416290283 0.849062204360961914 -0.565846025943756104
0.575510740280151367 0.846232473850250244 -0.604095637798309326
0.474976211786270142 0.783258140087127686 -0.863247096538543701
-0.364862382411956787 0.618548214435577393 0.313346207141876221
0.0379732660949230194 1.31672990322113037 -0.409918725490570068
-0.0233084969222545624 0.734695076942443848 0.0788828432559967041
0.309620410203933716 1.21577632427215576 -0.254053741693496704
0.0481362529098987579 0.772295534610748291 -0.286170423030853271
0.133180931210517883 1.04550600051879883 -0.247710034251213074
0.445779651403427124 0.933568596839904785 -0.791966617107391357
0.512570798397064209 0.79347914457321167 -0.660894215106964111
0.188578009605407715 1.03424251079559326 -0.783909082412719727
-0.437068402767181396 0.609538614749908447 0.174590364098548889
0.283733129501342773 0.833387613296508789 -0.440449774265289307
-0.197281166911125183 0.76961052417755127 0.0268464330583810806
-0.168808236718177795 0.52303999662399292 -0.130174934864044189
-0.00709034083411097527 0.448033422231674194 0.039922613650560379
0.0801928713917732239 0.797645151615142822 -0.329594522714614868
0.12882193922996521 0.794662535190582275 -0.154132544994354248
0.118872694671154022 0.797521412372589111 -0.339196473360061646
0.00698389112949371338 0.644681334495544434 0.0887843221426010132
-0.077030569314956665 0.756170749664306641 -0.197167634963989258
-0.136310949921607971 0.569158375263214111 0.327399492263793945
0.645057618618011475 0.821065723896026611 -0.600663125514984131
-0.0300533529371023178 0.574536383152008057 -0.152876228094100952
0.276833862066268921 0.941737532615661621 -0.729736566543579102
0.35072973370552063 1.25298190116882324 -0.263277381658554077
0.271827191114425659 1.26770937442779541 -0.414249002933502197
-0.223518863320350647 0.697822630405426025 0.202566564083099365
0.0671141445636749268 0.825941681861877441 -0.325215131044387817
0.127517744898796082 1.32946383953094482 -0.362418770790100098
0.0344718471169471741 0.673006176948547363 -0.129423916339874268
-0.021241920068860054 0.740360915660858154 -0.0390609204769134521
0.0286755785346031189 0.573978424072265625 0.0228512473404407501
0.244365423917770386 0.99393916130065918 -0.781881570816040039
0.174979761242866516 0.796224474906921387 -0.777527213096618652
0.0544202849268913269 0.83379751443862915 -0.280728161334991455
-0.206485778093338013 0.571919560432434082 -0.149759367108345032
-0.388902574777603149 0.625036895275115967 0.0205248240381479263
0.0539589151740074158 0.813596248626708984 -0.231647491455078125
-0.0106414668262004852 0.737403810024261475 -0.0050980118103325367
0.0513824038207530975 0.936974704265594482 -0.832717835903167725
0.441954463720321655 0.815322518348693848 -0.913783013820648193
-0.280159056186676025 0.640002667903900146 0.309389024972915649
-0.422942280769348145 0.566961944103240967 0.365174353122711182
0.113992370665073395 1.25235152244567871 -0.203783109784126282
0.034727148711681366 0.780273497104644775 -0.212786674499511719
0.466112077236175537 0.606546223163604736 -0.751421332359313965
0.0464368648827075958 0.698399841785430908 -0.0844007581472396851
0.66045534610748291 0.830193579196929932 -0.631755709648132324
-0.0201916303485631943 0.742623269557952881 0.0802212730050086975
0.000964027596637606621 0.976861894130706787 -0.869792461395263672
0.0241358950734138489 1.12667834758758545 -0.821106314659118652
0.338335663080215454 1.26018786430358887 -0.129583165049552917
-0.355230927467346191 0.676930606365203857 0.182890474796295166
-0.415726333856582642 0.54648125171661377 0.38906550407409668
0.0222563575953245163 0.99594956636428833 -0.772217452526092529
0.23924766480922699 1.22639656066894531 -0.378025561571121216
0.0219840258359909058 0.617870867252349854 0.128424361348152161
-0.00381318014115095139 0.469357877969741821 0.105495162308216095
-0.381761342287063599 0.609597623348236084 -0.00811673887073993683
0.0889096856117248535 0.841396450996398926 -0.337871253490447998
-0.0219217762351036072 0.723705828189849854 -0.219950199127197266
0.145714864134788513 0.800032377243041992 -0.777382016181945801
0.47187429666519165 0.842882215976715088 -0.737028062343597412
0.0421089828014373779 1.33415913581848145 -0.261205285787582397
0.466131061315536499 0.885264456272125244 -0.80834650993347168
0.603486478328704834 0.712112665176391602 -0.616980791091918945
-0.292818248271942139 0.556160390377044678 -0.0950672253966331482
0.0085477735847234726 0.728800356388092041 -0.818897545337677002
0.108856603503227234 1.2727656364440918 -0.325419425964355469
0.353919923305511475 1.28275406360626221 -0.191678419709205627
0.392600595951080322 1.19696426391601562 -0.362764090299606323
0.30834534764289856 0.834610998630523682 -0.776234030723571777
-0.0142216244712471962 0.837482810020446777 -0.143289849162101746
-0.452193796634674072 0.620166361331939697 0.189994871616363525
0.586272776126861572 0.683279156684875488 -0.709782898426055908
-0.332767248153686523 0.665661394596099854 0.207922324538230896
0.698219358921051025 0.865631222724914551 -0.626726865768432617
-0.437618613243103027 0.592497348785400391 0.257581889629364014
0.639573752880096436 0.901229321956634521 -0.6000862717628479
0.382806211709976196 0.850142836570739746 -0.776089072227478027
-0.127988547086715698 0.74045860767364502 0.138483628630638123
0.689533531665802002 0.976012289524078369 -0.552003324031829834
0.0909978002309799194 1.13312351703643799 -0.81579744815826416
0.0366067551076412201 0.639058589935302734 -0.114838257431983948
-0.0109646553173661232 0.533614039421081543 -0.0361394137144088745
-0.256925076246261597 0.737542986869812012 0.0735223442316055298
-0.0787362456321716309 0.859398305416107178 -0.822934210300445557
-0.111218839883804321 0.558709383010864258 -0.153758376836776733
-0.122816629707813263 0.613087177276611328 -0.158968225121498108
0.19283236563205719 0.926244139671325684 -0.206353262066841125
0.0221091732382774353 0.653536617755889893 -0.0668365061283111572
-0.0766152068972587585 0.42353212833404541 -0.0273867156356573105
0.603826224803924561 0.92514270544052124 -0.685457825660705566
-0.210687324404716492 0.456750869750976562 -0.0948993489146232605
0.224087193608283997 0.851001858711242676 -0.751901209354400635
-0.0812286287546157837 0.679589569568634033 -0.172537803649902344
0.0998460873961448669 0.793464362621307373 -0.149916768074035645
0.361306726932525635 0.841356813907623291 -0.499218881130218506
0.127729222178459167 0.973713994026184082 -0.708521485328674316
-0.0627089664340019226 0.609049022197723389 -0.097673073410987854
0.070866018533706665 0.756464719772338867 -0.135370701551437378
-0.489079415798187256 0.549351155757904053 0.281304359436035156
0.349672883749008179 1.25156152248382568 -0.325151890516281128
-0.173283413052558899 0.759432613849639893 -0.0391057394444942474
0.397268861532211304 1.1933586597442627 -0.366251945495605469
-0.491973727941513062 0.564682185649871826 0.23125496506690979
-0.0303377937525510788 0.750771045684814453 -0.221493199467658997
-0.419070959091186523 0.505839049816131592 -0.00781256984919309616
-0.346803128719329834 0.644798517227172852 0.282572716474533081
-0.152069821953773499 0.570634067058563232 -0.157688051462173462
-0.35339239239692688 0.672195494174957275 0.0908931270241737366
-0.0651032999157905579 0.536396145820617676 0.268800914287567139
0.109673559665679932 1.29510402679443359 -0.428059846162796021
0.00380035699345171452 0.489722251892089844 -0.0110613023862242699
0.517289698123931885 0.940143287181854248 -0.878505587577819824
0.32235381007194519 0.854949414730072021 -0.760314762592315674
-0.0341849476099014282 0.451695084571838379 -0.00688465824350714684
0.147380068898200989 1.11943900585174561 -0.789275884628295898
0.0840158239006996155 0.807166934013366699 -0.242474287748336792
0.385843843221664429 0.97950369119644165 -0.736480593681335449
0.432983040809631348 0.841995596885681152 -0.589517652988433838
0.170561030507087708 1.09935617446899414 -0.239958181977272034
0.47993585467338562 0.83818286657333374 -0.617659986019134521
0.0194016210734844208 0.679584324359893799 0.00902715325355529785
-0.0912187546491622925 0.809824109077453613 -0.0633381381630897522
0.113303221762180328 0.831026315689086914 -0.840351760387420654
-0.0179339107125997543 0.435652583837509155 0.0123776961117982864
0.138012737035751343 1.25279140472412109 -0.168536141514778137
-0.295125246047973633 0.703827559947967529 0.204611018300056458
0.0276923161000013351 0.772979736328125 -0.825207769870758057
-0.00296002603136003017 0.527098119258880615 -0.0848205685615539551
0.165630072355270386 0.945464909076690674 -0.691625356674194336
0.167456015944480896 1.23448812961578369 -0.378432810306549072
0.151622921228408813 1.08019328117370605 -0.749619781970977783
-0.0570560432970523834 0.433000564575195312 -0.0429496355354785919
0.544025003910064697 0.586754143238067627 -0.675289392471313477
0.211429685354232788 1.29820919036865234 -0.39867737889289856
-0.401823818683624268 0.62769770622253418 0.17724473774433136
-0.23178844153881073 0.732897818088531494 -0.0402599610388278961
-0.0620441250503063202 0.816521883010864258 -0.164168104529380798
-0.068901747465133667 0.779770970344543457 -0.201039046049118042
0.0506741516292095184 0.967618703842163086 -0.248608678579330444
0.108226761221885681 0.905253708362579346 -0.17790772020816803
0.661353409290313721 0.651229918003082275 -0.558380961418151855
0.120444208383560181 1.35356485843658447 -0.0894733145833015442
0.0128871509805321693 0.551039040088653564 0.123894035816192627
0.155170798301696777 1.26651668548583984 -0.261492133140563965
0.044171307235956192 0.91577303409576416 -0.191762447357177734
-0.0387940742075443268 0.690435886383056641 0.104497723281383514
0.128839045763015747 0.878537774085998535 -0.749926388263702393
0.0174561608582735062 0.821907937526702881 -0.12758249044418335
0.29907679557800293 1.2002873420715332 -0.130249917507171631
-0.0447427816689014435 0.577623069286346436 0.234026268124580383
0.229237675666809082 1.10505712032318115 -0.703510105609893799
-0.411100894212722778 0.620573818683624268 0.0673168003559112549
-0.0379610359668731689 0.761072814464569092 0.0317057333886623383
0.424365878105163574 1.01865804195404053 -0.863041341304779053
0.279233783483505249 1.24837076663970947 -0.199665874242782593
-0.290947556495666504 0.53410416841506958 0.428183853626251221
-0.0474099777638912201 0.582803189754486084 0.210648238658905029
0.00127458409406244755 0.43819156289100647 0.156022176146507263
-0.0568312220275402069 0.704613745212554932 -0.0155924959108233452
-0.0140587417408823967 0.780115306377410889 -0.836887240409851074
-0.150800272822380066 0.620794713497161865 0.318043291568756104
0.589169085025787354 0.641659796237945557 -0.609972596168518066
-0.0356582477688789368 0.80076146125793457 -0.0344363227486610413
-0.202162221074104309 0.669803261756896973 0.285566270351409912
0.204623371362686157 1.23313379287719727 -0.32924121618270874
0.175681188702583313 1.2771453857421875 -0.174123004078865051
0.0735126957297325134 0.799290180206298828 -0.304088711738586426
-0.0922518596053123474 0.702588021755218506 -0.18618755042552948
0.639864027500152588 0.992934763431549072 -0.632617771625518799
0.513069391250610352 0.877311170101165771 -0.691737532615661621
0.447650432586669922 0.858540773391723633 -0.799715161323547363
0.0127505213022232056 0.732266664505004883 -0.0239532254636287689
-0.124659396708011627 0.657417237758636475 -0.166179612278938293
-0.0461583957076072693 0.509768068790435791 -0.110886484384536743
0.172109484672546387 0.707329452037811279 -0.810723066329956055
0.481852144002914429 0.936251282691955566 -0.886293232440948486
0.339686810970306396 1.26443052291870117 -0.168503299355506897
-0.143259763717651367 0.59618067741394043 0.308004468679428101
-0.0404275432229042053 0.433440715074539185 0.252380251884460449
0.148033082485198975 1.28430438041687012 -0.233712732791900635
-0.123711287975311279 0.765771985054016113 0.0358178243041038513
-0.389719396829605103 0.621382236480712891 0.152103051543235779
-0.0111890379339456558 0.84632718563079834 -0.254860132932662964
-0.307572275400161743 0.617603421211242676 0.335612297058105469
0.0303965210914611816 0.610290825366973877 -0.123697072267532349
-0.198366999626159668 0.462030559778213501 -0.111997641623020172
0.365076422691345215 0.951443493366241455 -0.818166017532348633
0.0158962421119213104 0.608606457710266113 0.104201115667819977
0.161846160888671875 0.833639323711395264 -0.823191046714782715
0.753726184368133545 0.885136961936950684 -0.579889774322509766
0.0961437821388244629 0.868456602096557617 -0.173881441354751587
0.371161073446273804 1.21022343635559082 -0.179787904024124146
0.125535160303115845 0.856130242347717285 -0.784184455871582031
0.63909834623336792 0.764631211757659912 -0.632475733757019043
-0.251842200756072998 0.544710457324981689 0.423904776573181152
0.252964019775390625 0.795057058334350586 -0.773697793483734131
0.0305594690144062042 0.85800856351852417 -0.151942506432533264
-0.0539075806736946106 0.641084432601928711 0.221373960375785828
0.00739933270961046219 0.801098763942718506 -0.285443156957626343
-0.0207257084548473358 0.780159831047058105 -0.0282562151551246643
0.546485185623168945 0.552575647830963135 -0.647331178188323975
-0.340881556272506714 0.653210341930389404 -0.00531185558065772057
0.125437751412391663 1.08597743511199951 -0.802202343940734863
0.118896119296550751 0.925020515918731689 -0.181691274046897888
0.2076825350522995 1.3321608304977417 -0.0643832460045814514
0.698685050010681152 1.00503325462341309 -0.6552315354347229
0.15723024308681488 1.03278100490570068 -0.246803402900695801
0.156626269221305847 0.870312511920928955 -0.784295439720153809
-0.25526893138885498 0.700784027576446533 -0.072028525173664093
0.222292438149452209 1.24644064903259277 -0.0970042496919631958
-0.059547077864408493 0.744611084461212158 -0.105175472795963287
-0.178749933838844299 0.412306904792785645 0.00661908090114593506
-0.165454939007759094 0.597600638866424561 0.17738749086856842
0.169909581542015076 1.3054957389831543 -0.198292404413223267
0.528027653694152832 0.697601497173309326 -0.804936826229095459
0.250553756952285767 1.06076908111572266 -0.744470655918121338
0.117421887814998627 1.13652980327606201 -0.815106213092803955
-0.0443029217422008514 0.621324479579925537 -0.182961925864219666
-0.0288879629224538803 0.578916490077972412 0.207840830087661743
-0.49738958477973938 0.524912178516387939 0.278288662433624268
0.218449249863624573 0.83813929557800293 -0.360381543636322021
-0.011069069616496563 0.720405519008636475 -0.202127173542976379
0.158080324530601501 1.2809455394744873 -0.209135279059410095
-0.00485840998589992523 0.696609258651733398 0.128821700811386108
0.144792690873146057 1.13401675224304199 -0.767468929290771484
-0.156320735812187195 0.74679100513458252 0.103001125156879425
0.515900790691375732 0.754730045795440674 -0.688975632190704346
0.213579222559928894 1.23963057994842529 -0.350944608449935913
-0.441549867391586304 0.590433120727539062 0.226113989949226379
0.147857621312141418 1.31511986255645752 -0.371756225824356079
0.295964837074279785 1.21528315544128418 -0.223336681723594666
-0.347245633602142334 0.569747626781463623 0.365416616201400757
-0.245192229747772217 0.73567509651184082 0.128882691264152527
0.539435684680938721 1.11424112319946289 -0.731447935104370117
0.218800947070121765 0.940255641937255859 -0.761444032192230225
-0.319891095161437988 0.665467619895935059 0.252325952053070068
0.583282589912414551 0.996153712272644043 -0.668894767761230469
0.101412571966648102 1.3010023832321167 -0.363184452056884766
0.384444653987884521 1.04910588264465332 -0.809785664081573486
-0.250044256448745728 0.553297936916351318 -0.118721969425678253
0.0174332484602928162 0.8392525315284729 -0.883131563663482666
-0.210018619894981384 0.411790758371353149 -0.0793455019593238831
-0.378213346004486084 0.656989336013793945 0.197850897908210754
-0.32920682430267334 0.625641047954559326 0.300745218992233276
-0.116570658981800079 0.656195104122161865 0.237237915396690369
-0.0526654645800590515 0.517007350921630859 0.257620453834533691
-0.0665416419506072998 0.997204244136810303 -0.861346423625946045
0.0273929741233587265 1.08419573307037354 -0.847051799297332764
-0.205910921096801758 0.758294165134429932 0.0704798251390457153
-0.242961063981056213 0.57949143648147583 0.350644379854202271
-0.0888646692037582397 0.662015438079833984 0.0762499347329139709
0.180010110139846802 1.01561570167541504 -0.769233405590057373
0.603138923645019531 0.717898964881896973 -0.686639010906219482
-0.320741415023803711 0.533368825912475586 0.412462323904037476
0.267471134662628174 0.740638196468353271 -0.80714106559753418
0.0218441430479288101 0.976455986499786377 -0.830545723438262939
0.239045262336730957 0.873167335987091064 -0.753518402576446533
-0.149820879101753235 0.770842313766479492 0.00381832430139183998
0.0790291726589202881 0.805629909038543701 -0.789754092693328857
-0.0222705807536840439 0.43141743540763855 0.0550991743803024292
0.655807256698608398 0.792475998401641846 -0.612836837768554688
-0.0347387790679931641 0.486738979816436768 -0.0695163905620574951
-0.0446519851684570312 0.822191894054412842 -0.147901073098182678
-0.00209281779825687408 0.645265877246856689 0.129919588565826416
-0.0861171334981918335 0.482187062501907349 -0.12314683198928833
-0.208706632256507874 0.632369279861450195 0.317399322986602783
-0.169004380702972412 0.445026516914367676 -0.0991324111819267273
-0.0290649645030498505 0.843286871910095215 -0.170729175209999084
0.0642867758870124817 0.905089855194091797 -0.205040842294692993
-0.166743338108062744 0.70683741569519043 -0.146415501832962036
0.232681825757026672 1.1979290246963501 -0.228654459118843079
-0.181900814175605774 0.533501088619232178 0.393071144819259644
0.306591272354125977 1.26665794849395752 -0.436369359493255615
-0.28493112325668335 0.72783815860748291 0.138415247201919556
0.572084605693817139 0.895812153816223145 -0.627926945686340332
0.274534672498703003 0.833529770374298096 -0.43322443962097168
-0.469069570302963257 0.588436663150787354 0.214199230074882507
-0.0487101301550865173 0.625344514846801758 0.206815004348754883
-0.00136484252288937569 0.60754096508026123 -0.154177308082580566
0.231719896197319031 1.24670708179473877 -0.151923537254333496
0.235013708472251892 0.873482882976531982 -0.810926973819732666
-0.0384273119270801544 0.521391212940216064 -0.0763474777340888977
-0.186639592051506042 0.69077068567276001 0.0283813253045082092
0.0823502242565155029 1.32028520107269287 -0.212874218821525574
-0.402199357748031616 0.477136343717575073 0.000529652927070856094
0.0944342240691184998 1.09268093109130859 -0.821833431720733643
0.0817268192768096924 1.29414558410644531 -0.398739814758300781
0.422188609838485718 0.741688668727874756 -0.777011334896087646
0.233821123838424683 1.07249176502227783 -0.782803952693939209
-0.16734999418258667 0.767724573612213135 0.011105978861451149
0.0867377817630767822 1.38181388378143311 -0.21027962863445282
0.139247000217437744 0.928765594959259033 -0.601704716682434082
0.641777753829956055 0.643591403961181641 -0.678753018379211426
0.0695940852165222168 0.974095344543457031 -0.283737272024154663
-0.405080735683441162 0.588114261627197266 0.271350890398025513
-0.168128907680511475 0.645223438739776611 -0.157323107123374939
-0.083181627094745636 0.717409431934356689 -0.197322085499763489
-0.432560533285140991 0.59758305549621582 0.0724589675664901733
0.178874656558036804 1.31895041465759277 -0.459105998277664185
-0.225720390677452087 0.498717337846755981 0.449383974075317383
0.0593165382742881775 0.975187480449676514 -0.76048886775970459
-0.0396442823112010956 0.75484013557434082 -0.132480591535568237
-0.444266438484191895 0.578602969646453857 0.30861353874206543
0.109621539711952209 1.27347564697265625 -0.227155059576034546
0.490148633718490601 0.700787603855133057 -0.696404337882995605
0.284654915332794189 1.2137610912322998 -0.284692496061325073
0.745339870452880859 0.897421360015869141 -0.57938385009765625
0.60827791690826416 0.875688135623931885 -0.643650949001312256
0.0885572358965873718 0.917738378047943115 -0.775413155555725098
-0.190525561571121216 0.423749685287475586 0.00909063220024108887
